G04 ================== begin FILE IDENTIFICATION RECORD ==================*
G04 Layout Name:  STM32F103C8T6_KIT_DEV_2.brd*
G04 Film Name:    ASB*
G04 File Format:  Gerber RS274X*
G04 File Origin:  Cadence Allegro 17.2-P019*
G04 Origin Date:  Sun Dec 27 22:50:34 2020*
G04 *
G04 Layer:  REF DES/ASSEMBLY_BOTTOM*
G04 Layer:  PACKAGE GEOMETRY/ASSEMBLY_BOTTOM*
G04 Layer:  BOARD GEOMETRY/OUTLINE*
G04 *
G04 Offset:    (0.000 0.000)*
G04 Mirror:    Yes*
G04 Mode:      Positive*
G04 Rotation:  0*
G04 FullContactRelief:  No*
G04 UndefLineWidth:     6.000*
G04 ================== end FILE IDENTIFICATION RECORD ====================*
%FSLAX25Y25*MOIN*%
%IR0*IPPOS*OFA0.00000B0.00000*MIA1B0*SFA1.00000B1.00000*%
%ADD10C,.004*%
%ADD11C,.006*%
G75*
%LPD*%
G75*
G54D10*
G01X28900Y77300D02*
Y78500D01*
G03X28000Y79400I-900J0D01*
G01X23800D01*
G03X22900Y78500I0J-900D01*
G01Y77300D01*
G03X23800Y76400I900J0D01*
G01X28000D01*
G03X28900Y77300I0J900D01*
G01X69200Y22800D02*
X75200D01*
Y25800D01*
X69200D01*
Y22800D01*
G01X75300Y32200D02*
Y33400D01*
G03X74400Y34300I-900J0D01*
G01X70200D01*
G03X69300Y33400I0J-900D01*
G01Y32200D01*
G03X70200Y31300I900J0D01*
G01X74400D01*
G03X75300Y32200I0J900D01*
G01X71800Y99100D02*
X77800D01*
Y102100D01*
X71800D01*
Y99100D01*
G01X93354Y62003D02*
X94203Y61154D01*
G03X95476I636J636D01*
G01X98446Y64124D01*
G03Y65397I-636J636D01*
G01X97597Y66246D01*
G03X96324I-636J-636D01*
G01X93354Y63276D01*
G03Y62003I636J-636D01*
G01X107900Y17200D02*
X113900D01*
Y20200D01*
X107900D01*
Y17200D01*
G01X112097Y37054D02*
X112946Y37903D01*
G03Y39176I-636J636D01*
G01X109976Y42146D01*
G03X108703I-636J-636D01*
G01X107854Y41297D01*
G03Y40024I636J-636D01*
G01X110824Y37054D01*
G03X112097I636J636D01*
G01X126854Y68303D02*
X127703Y67454D01*
G03X128976I636J636D01*
G01X131946Y70424D01*
G03Y71697I-636J636D01*
G01X131097Y72546D01*
G03X129824I-636J-636D01*
G01X126854Y69576D01*
G03Y68303I636J-636D01*
G01X130754Y64503D02*
X131603Y63654D01*
G03X132876I636J636D01*
G01X135846Y66624D01*
G03Y67897I-636J636D01*
G01X134997Y68746D01*
G03X133724I-636J-636D01*
G01X130754Y65776D01*
G03Y64503I636J-636D01*
G01X134446Y55797D02*
X133597Y56646D01*
G03X132324I-636J-636D01*
G01X129354Y53676D01*
G03Y52403I636J-636D01*
G01X130203Y51554D01*
G03X131476I636J636D01*
G01X134446Y54524D01*
G03Y55797I-636J636D01*
G01X120303Y76446D02*
X119454Y75597D01*
G03Y74324I636J-636D01*
G01X122424Y71354D01*
G03X123697I636J636D01*
G01X124546Y72203D01*
G03Y73476I-636J636D01*
G01X121576Y76446D01*
G03X120303I-636J-636D01*
G01X138082Y79592D02*
X133839Y83834D01*
X131718Y81713D01*
X135961Y77470D01*
X138082Y79592D01*
G01X198300Y17900D02*
Y23900D01*
X195300D01*
Y17900D01*
X198300D01*
G01X201000Y95800D02*
Y101800D01*
X198000D01*
Y95800D01*
X201000D01*
G54D11*
G01X18357Y80183D02*
X18737Y80433D01*
X19180Y80600D01*
X19687D01*
X20257Y80350D01*
X20700Y79933D01*
X21017Y79433D01*
X21270Y78600D01*
X21333Y77850D01*
X21207Y77100D01*
X21017Y76600D01*
X20637Y76100D01*
X20193Y75767D01*
X19750Y75600D01*
X19307D01*
X18863Y75767D01*
X18483Y76017D01*
X18167Y76350D01*
G01X14777Y75600D02*
X14650Y76683D01*
X14460Y77600D01*
X14207Y78433D01*
X13890Y79350D01*
X13383Y80600D01*
X15917D01*
G01X38743Y93500D02*
Y89917D01*
X38490Y89166D01*
X37983Y88667D01*
X37350Y88500D01*
X36717Y88667D01*
X36210Y89166D01*
X35957Y89917D01*
Y93500D01*
G01X33453Y92667D02*
X33073Y93167D01*
X32630Y93417D01*
X32123Y93500D01*
X31490Y93333D01*
X31047Y92917D01*
X30920Y92417D01*
X30983Y91916D01*
X31237Y91500D01*
X32503Y90667D01*
X33073Y90083D01*
X33453Y89250D01*
X33580Y88500D01*
X30920D01*
G01X66717Y21900D02*
Y26900D01*
X65133D01*
X64627Y26650D01*
X64310Y26317D01*
X64183Y25650D01*
X64310Y24983D01*
X64690Y24567D01*
X65133Y24317D01*
X66717D01*
G01X65133D02*
X64183Y21900D01*
G01X60350D02*
Y26900D01*
X61110Y25900D01*
G01Y21900D02*
X59590D01*
G01X63957Y34883D02*
X64337Y35133D01*
X64780Y35300D01*
X65287D01*
X65857Y35050D01*
X66300Y34633D01*
X66617Y34133D01*
X66870Y33300D01*
X66933Y32550D01*
X66807Y31800D01*
X66617Y31300D01*
X66237Y30800D01*
X65793Y30467D01*
X65350Y30300D01*
X64907D01*
X64463Y30467D01*
X64083Y30717D01*
X63767Y31050D01*
G01X60250Y30300D02*
Y35300D01*
X61010Y34300D01*
G01Y30300D02*
X59490D01*
G01X70117Y98200D02*
Y103200D01*
X68533D01*
X68027Y102950D01*
X67710Y102617D01*
X67583Y101950D01*
X67710Y101283D01*
X68090Y100867D01*
X68533Y100617D01*
X70117D01*
G01X68533D02*
X67583Y98200D01*
G01X65143Y99200D02*
X64763Y98617D01*
X64257Y98283D01*
X63687Y98200D01*
X63180Y98283D01*
X62673Y98700D01*
X62357Y99200D01*
X62293Y99700D01*
X62420Y100283D01*
X62863Y100700D01*
X63307Y100867D01*
X63877D01*
G01X63307D02*
X62927Y101117D01*
X62610Y101533D01*
X62483Y102033D01*
X62610Y102533D01*
X62927Y102950D01*
X63497Y103200D01*
X64067Y103117D01*
X64637Y102783D01*
G01X105717Y16600D02*
Y21600D01*
X104133D01*
X103627Y21350D01*
X103310Y21017D01*
X103183Y20350D01*
X103310Y19683D01*
X103690Y19267D01*
X104133Y19017D01*
X105717D01*
G01X104133D02*
X103183Y16600D01*
G01X99350D02*
X98907Y16683D01*
X98400Y16933D01*
X98083Y17350D01*
X97957Y17933D01*
X98083Y18517D01*
X98463Y19017D01*
X99033Y19267D01*
X99667D01*
X100047Y19433D01*
X100363Y19850D01*
X100490Y20433D01*
X100300Y21017D01*
X99857Y21433D01*
X99350Y21600D01*
X98843Y21433D01*
X98400Y21017D01*
X98210Y20433D01*
X98337Y19850D01*
X98653Y19433D01*
X99033Y19267D01*
X99667D01*
X100237Y19017D01*
X100617Y18517D01*
X100743Y17933D01*
X100617Y17350D01*
X100300Y16933D01*
X99793Y16683D01*
X99350Y16600D01*
G01X105991Y46755D02*
X106437Y46663D01*
X106868Y46468D01*
X107226Y46110D01*
X107452Y45530D01*
X107471Y44922D01*
X107342Y44344D01*
X106932Y43576D01*
X106446Y43000D01*
X105826Y42560D01*
X105338Y42341D01*
X104716Y42256D01*
X104167Y42334D01*
X103735Y42529D01*
X103422Y42843D01*
X103226Y43274D01*
X103134Y43720D01*
X103146Y44179D01*
G01X102453Y46758D02*
X102552Y47484D01*
X102519Y47988D01*
X102279Y48464D01*
X101847Y48660D01*
X101388Y48648D01*
X100855Y48474D01*
X100398Y48106D01*
X100089Y47708D01*
X99915Y47175D01*
X99889Y46612D01*
X100084Y46180D01*
X100561Y45940D01*
X101228Y45980D01*
X101937Y46331D01*
X102571Y46876D01*
X103248Y47731D01*
X103526Y48278D01*
X103714Y48914D01*
X103695Y49522D01*
X103441Y49895D01*
X103010Y50090D01*
X102491Y50020D01*
G01X88745Y60091D02*
X88837Y60537D01*
X89032Y60968D01*
X89390Y61326D01*
X89970Y61552D01*
X90578Y61571D01*
X91156Y61441D01*
X91924Y61032D01*
X92500Y60546D01*
X92940Y59926D01*
X93159Y59438D01*
X93244Y58816D01*
X93166Y58267D01*
X92971Y57835D01*
X92657Y57522D01*
X92226Y57326D01*
X91780Y57234D01*
X91321Y57246D01*
G01X89643Y55921D02*
X89787Y55240D01*
X89664Y54646D01*
X89320Y54184D01*
X88903Y53885D01*
X88250Y53821D01*
X87672Y53951D01*
X87274Y54260D01*
X86951Y54762D01*
X86970Y55370D01*
X87166Y55801D01*
X87568Y56204D01*
G01X87166Y55801D02*
X86720Y55709D01*
X86202Y55780D01*
X85758Y56044D01*
X85494Y56487D01*
X85424Y57006D01*
X85650Y57586D01*
X86112Y57930D01*
X86751Y58097D01*
G01X124745Y50391D02*
X124837Y50837D01*
X125032Y51268D01*
X125390Y51626D01*
X125970Y51852D01*
X126579Y51871D01*
X127156Y51742D01*
X127924Y51332D01*
X128500Y50846D01*
X128940Y50226D01*
X129160Y49738D01*
X129244Y49116D01*
X129166Y48567D01*
X128971Y48135D01*
X128657Y47822D01*
X128226Y47626D01*
X127781Y47534D01*
X127321Y47546D01*
G01X125820Y46045D02*
X125846Y45481D01*
X125709Y44991D01*
X125365Y44529D01*
X124844Y44244D01*
X124295Y44166D01*
X123658Y44355D01*
X123142Y44781D01*
X122760Y45342D01*
X122690Y45861D01*
X122767Y46410D01*
X123022Y46782D01*
X123394Y47037D01*
X124033Y47204D01*
X122367Y48602D01*
X121157Y47393D01*
G01X121548Y67094D02*
X121640Y67540D01*
X121835Y67971D01*
X122194Y68329D01*
X122774Y68555D01*
X123382Y68574D01*
X123959Y68445D01*
X124728Y68035D01*
X125303Y67549D01*
X125743Y66929D01*
X125963Y66441D01*
X126048Y65819D01*
X125970Y65270D01*
X125774Y64838D01*
X125460Y64525D01*
X125029Y64329D01*
X124584Y64237D01*
X124124Y64249D01*
G01X122168Y61232D02*
X118632Y64768D01*
X119877Y64598D01*
G01X122705Y61770D02*
X121631Y60695D01*
G01X118562Y57626D02*
X115026Y61162D01*
X116270Y60992D01*
G01X119099Y58164D02*
X118024Y57089D01*
G01X125848Y62094D02*
X125940Y62540D01*
X126135Y62971D01*
X126494Y63329D01*
X127074Y63556D01*
X127682Y63574D01*
X128259Y63445D01*
X129028Y63035D01*
X129603Y62549D01*
X130043Y61929D01*
X130263Y61441D01*
X130348Y60819D01*
X130270Y60270D01*
X130074Y59839D01*
X129761Y59525D01*
X129329Y59329D01*
X128884Y59237D01*
X128424Y59249D01*
G01X126468Y56232D02*
X122932Y59768D01*
X124177Y59598D01*
G01X127005Y56770D02*
X125931Y55695D01*
G01X120766Y56423D02*
X120144Y56508D01*
X119654Y56371D01*
X119237Y56072D01*
X118906Y55506D01*
X118888Y54898D01*
X119152Y54455D01*
X119550Y54146D01*
X120024Y54031D01*
X121509Y54337D01*
X122324Y54328D01*
X123182Y54007D01*
X123802Y53567D01*
X121921Y51686D01*
G01X139531Y79834D02*
X143067Y83369D01*
X141947Y84489D01*
X141412Y84670D01*
X140952Y84658D01*
X140391Y84276D01*
X140010Y83716D01*
X139984Y83152D01*
X140120Y82662D01*
X141240Y81542D01*
G01X140120Y82662D02*
X137740Y81625D01*
G01X136203Y83986D02*
X135595Y84005D01*
X135119Y84246D01*
X134878Y84722D01*
X134918Y85389D01*
X135225Y86143D01*
X135666Y86763D01*
X136314Y87411D01*
X136934Y87852D01*
X137629Y88100D01*
X138133Y88067D01*
X138565Y87871D01*
X138805Y87395D01*
X138838Y86890D01*
X138664Y86358D01*
X138282Y85797D01*
X137780Y85474D01*
X137143Y85285D01*
X136639Y85318D01*
X136267Y85573D01*
X136026Y86049D01*
X136052Y86612D01*
X136314Y87411D01*
G01X117591Y81055D02*
X118037Y80963D01*
X118468Y80768D01*
X118826Y80410D01*
X119052Y79830D01*
X119071Y79222D01*
X118941Y78644D01*
X118532Y77876D01*
X118046Y77300D01*
X117426Y76860D01*
X116938Y76640D01*
X116316Y76556D01*
X115767Y76634D01*
X115335Y76829D01*
X115022Y77143D01*
X114826Y77574D01*
X114734Y78019D01*
X114746Y78479D01*
G01X111192Y80973D02*
X114727Y84508D01*
X113851Y80317D01*
X111611Y82557D01*
G01X188300Y17483D02*
X193300D01*
Y19067D01*
X193050Y19573D01*
X192717Y19890D01*
X192050Y20017D01*
X191383Y19890D01*
X190967Y19510D01*
X190717Y19067D01*
Y17483D01*
G01Y19067D02*
X188300Y20017D01*
G01Y24610D02*
X193300D01*
X189717Y22267D01*
Y25433D01*
G01X191300Y95683D02*
X196300D01*
Y97267D01*
X196050Y97773D01*
X195717Y98090D01*
X195050Y98217D01*
X194383Y98090D01*
X193967Y97710D01*
X193717Y97267D01*
Y95683D01*
G01Y97267D02*
X191300Y98217D01*
G01X192050Y100657D02*
X191633Y101037D01*
X191383Y101480D01*
X191300Y102050D01*
X191467Y102620D01*
X191800Y103063D01*
X192383Y103380D01*
X193050Y103443D01*
X193717Y103317D01*
X194133Y103000D01*
X194467Y102557D01*
X194550Y102113D01*
X194467Y101670D01*
X194133Y101100D01*
X196300Y101290D01*
Y103000D01*
G01X0Y0D02*
X216535D01*
Y118110D01*
X0D01*
Y0D01*
G01X32718Y85800D02*
G03I-1118J0D01*
G01X40100Y84100D02*
Y95500D01*
X29100D01*
Y84100D01*
X40100D01*
M02*
