G04 ================== begin FILE IDENTIFICATION RECORD ==================*
G04 Layout Name:  STM32F103C8T6_KIT_DEV_2.brd*
G04 Film Name:    AST*
G04 File Format:  Gerber RS274X*
G04 File Origin:  Cadence Allegro 17.2-P019*
G04 Origin Date:  Sun Dec 27 22:50:34 2020*
G04 *
G04 Layer:  REF DES/ASSEMBLY_TOP*
G04 Layer:  PACKAGE GEOMETRY/ASSEMBLY_TOP*
G04 Layer:  BOARD GEOMETRY/OUTLINE*
G04 *
G04 Offset:    (0.000 0.000)*
G04 Mirror:    No*
G04 Mode:      Positive*
G04 Rotation:  0*
G04 FullContactRelief:  No*
G04 UndefLineWidth:     6.000*
G04 ================== end FILE IDENTIFICATION RECORD ====================*
%FSLAX25Y25*MOIN*%
%IR0*IPPOS*OFA0.00000B0.00000*MIA0B0*SFA1.00000B1.00000*%
%ADD10C,.004*%
%ADD11C,.006*%
G75*
%LPD*%
G75*
G54D10*
G01X31300Y59000D02*
X37300D01*
Y56000D01*
X31300D01*
Y59000D01*
G01Y65000D02*
X37300D01*
Y62000D01*
X31300D01*
Y65000D01*
G01X41400Y96200D02*
Y95000D01*
G02X40500Y94100I-900J0D01*
G01X36300D01*
G02X35400Y95000I0J900D01*
G01Y96200D01*
G02X36300Y97100I900J0D01*
G01X40500D01*
G02X41400Y96200I0J-900D01*
G01X41500Y86000D02*
Y84800D01*
G02X40600Y83900I-900J0D01*
G01X36400D01*
G02X35500Y84800I0J900D01*
G01Y86000D01*
G02X36400Y86900I900J0D01*
G01X40600D01*
G02X41500Y86000I0J-900D01*
G01X47300Y85100D02*
X46100D01*
G02X45200Y86000I0J900D01*
G01Y90200D01*
G02X46100Y91100I900J0D01*
G01X47300D01*
G02X48200Y90200I0J-900D01*
G01Y86000D01*
G02X47300Y85100I-900J0D01*
G01X70700Y65200D02*
Y71200D01*
X73700D01*
Y65200D01*
X70700D01*
G01X136597Y86946D02*
X137446Y86097D01*
G02Y84824I-636J-636D01*
G01X134476Y81854D01*
G02X133203I-636J636D01*
G01X132354Y82703D01*
G02Y83976I636J636D01*
G01X135324Y86946D01*
G02X136597I636J-636D01*
G01X140897Y82846D02*
X141746Y81997D01*
G02Y80724I-636J-636D01*
G01X138776Y77754D01*
G02X137503I-636J636D01*
G01X136654Y78603D01*
G02Y79876I636J636D01*
G01X139624Y82846D01*
G02X140897I636J-636D01*
G01X195600Y74300D02*
X196800D01*
G02X197700Y73400I0J-900D01*
G01Y69200D01*
G02X196800Y68300I-900J0D01*
G01X195600D01*
G02X194700Y69200I0J900D01*
G01Y73400D01*
G02X195600Y74300I900J0D01*
G54D11*
G01X7400Y55357D02*
X10983D01*
X11734Y55610D01*
X12233Y56117D01*
X12400Y56750D01*
X12233Y57383D01*
X11734Y57890D01*
X10983Y58143D01*
X7400D01*
G01X11400Y60457D02*
X11983Y60837D01*
X12317Y61343D01*
X12400Y61913D01*
X12317Y62420D01*
X11900Y62927D01*
X11400Y63243D01*
X10900Y63307D01*
X10317Y63180D01*
X9900Y62737D01*
X9733Y62293D01*
Y61723D01*
G01Y62293D02*
X9483Y62673D01*
X9067Y62990D01*
X8567Y63117D01*
X8067Y62990D01*
X7650Y62673D01*
X7400Y62103D01*
X7483Y61533D01*
X7817Y60963D01*
G01X38883Y54700D02*
Y59700D01*
X40467D01*
X40973Y59450D01*
X41290Y59117D01*
X41417Y58450D01*
X41290Y57783D01*
X40910Y57367D01*
X40467Y57117D01*
X38883D01*
G01X40467D02*
X41417Y54700D01*
G01X45123D02*
X45250Y55783D01*
X45440Y56700D01*
X45693Y57533D01*
X46010Y58450D01*
X46517Y59700D01*
X43983D01*
G01X39083Y61300D02*
Y66300D01*
X40667D01*
X41173Y66050D01*
X41490Y65717D01*
X41617Y65050D01*
X41490Y64383D01*
X41110Y63967D01*
X40667Y63717D01*
X39083D01*
G01X40667D02*
X41617Y61300D01*
G01X44247Y63383D02*
X44690Y63967D01*
X45070Y64300D01*
X45577Y64467D01*
X46020Y64300D01*
X46337Y63967D01*
X46590Y63467D01*
X46653Y62883D01*
X46590Y62383D01*
X46337Y61883D01*
X45957Y61467D01*
X45513Y61300D01*
X45007Y61467D01*
X44563Y61966D01*
X44310Y62717D01*
X44247Y63550D01*
X44373Y64633D01*
X44563Y65217D01*
X44880Y65800D01*
X45323Y66217D01*
X45767Y66300D01*
X46210Y66133D01*
X46527Y65717D01*
G01X23493Y98383D02*
X23113Y98633D01*
X22670Y98800D01*
X22163D01*
X21593Y98550D01*
X21150Y98133D01*
X20833Y97633D01*
X20580Y96800D01*
X20517Y96050D01*
X20643Y95300D01*
X20833Y94800D01*
X21213Y94300D01*
X21657Y93967D01*
X22100Y93800D01*
X22543D01*
X22987Y93967D01*
X23367Y94217D01*
X23683Y94550D01*
G01X27200Y93800D02*
Y98800D01*
X26440Y97800D01*
G01Y93800D02*
X27960D01*
G01X32300Y98800D02*
X31793Y98633D01*
X31413Y98217D01*
X31160Y97717D01*
X30970Y97050D01*
X30907Y96300D01*
X30970Y95550D01*
X31160Y94883D01*
X31413Y94383D01*
X31793Y93967D01*
X32300Y93800D01*
X32807Y93967D01*
X33187Y94383D01*
X33440Y94883D01*
X33630Y95550D01*
X33693Y96300D01*
X33630Y97050D01*
X33440Y97717D01*
X33187Y98217D01*
X32807Y98633D01*
X32300Y98800D01*
G01X28543Y88183D02*
X28163Y88433D01*
X27720Y88600D01*
X27213D01*
X26643Y88350D01*
X26200Y87933D01*
X25883Y87433D01*
X25630Y86600D01*
X25567Y85850D01*
X25693Y85100D01*
X25883Y84600D01*
X26263Y84100D01*
X26707Y83767D01*
X27150Y83600D01*
X27593D01*
X28037Y83767D01*
X28417Y84017D01*
X28733Y84350D01*
G01X32250Y83600D02*
X32693Y83683D01*
X33200Y83933D01*
X33517Y84350D01*
X33643Y84933D01*
X33517Y85517D01*
X33137Y86017D01*
X32567Y86267D01*
X31933D01*
X31553Y86433D01*
X31237Y86850D01*
X31110Y87433D01*
X31300Y88017D01*
X31743Y88433D01*
X32250Y88600D01*
X32757Y88433D01*
X33200Y88017D01*
X33390Y87433D01*
X33263Y86850D01*
X32947Y86433D01*
X32567Y86267D01*
X31933D01*
X31363Y86017D01*
X30983Y85517D01*
X30857Y84933D01*
X30983Y84350D01*
X31300Y83933D01*
X31807Y83683D01*
X32250Y83600D01*
G01X44717Y96343D02*
X44467Y95963D01*
X44300Y95520D01*
Y95013D01*
X44550Y94443D01*
X44967Y94000D01*
X45467Y93683D01*
X46300Y93430D01*
X47050Y93367D01*
X47800Y93493D01*
X48300Y93683D01*
X48800Y94063D01*
X49133Y94507D01*
X49300Y94950D01*
Y95393D01*
X49133Y95837D01*
X48883Y96217D01*
X48550Y96533D01*
G01X48717Y98973D02*
X49133Y99417D01*
X49300Y99923D01*
X49133Y100430D01*
X48634Y100873D01*
X47883Y101190D01*
X47133Y101317D01*
X46217D01*
X45467Y101190D01*
X44800Y100873D01*
X44467Y100493D01*
X44300Y100050D01*
X44467Y99543D01*
X44800Y99163D01*
X45300Y98910D01*
X45967Y98783D01*
X46550Y98910D01*
X47133Y99227D01*
X47467Y99607D01*
X47550Y100050D01*
X47383Y100557D01*
X46967Y100937D01*
X46217Y101317D01*
G01X65770Y27467D02*
X66277Y27050D01*
X66847Y26800D01*
X67353D01*
X67860Y27050D01*
X68240Y27467D01*
X68430Y28050D01*
X68303Y28633D01*
X67987Y29133D01*
X67417Y29467D01*
X66657Y29633D01*
X66213Y29967D01*
X66023Y30550D01*
X66150Y31133D01*
X66467Y31550D01*
X66910Y31800D01*
X67353D01*
X67797Y31633D01*
X68177Y31217D01*
G01X70300Y31800D02*
X71187Y26800D01*
X72200Y31800D01*
X73213Y26800D01*
X74100Y31800D01*
G01X77300Y26800D02*
Y31800D01*
X76540Y30800D01*
G01Y26800D02*
X78060D01*
G01X80700Y65083D02*
X75700D01*
Y66667D01*
X75950Y67173D01*
X76283Y67490D01*
X76950Y67617D01*
X77617Y67490D01*
X78033Y67110D01*
X78283Y66667D01*
Y65083D01*
G01Y66667D02*
X80700Y67617D01*
G01X76533Y70247D02*
X76033Y70627D01*
X75783Y71070D01*
X75700Y71577D01*
X75867Y72210D01*
X76283Y72653D01*
X76783Y72780D01*
X77284Y72717D01*
X77700Y72463D01*
X78533Y71197D01*
X79117Y70627D01*
X79950Y70247D01*
X80700Y70120D01*
Y72780D01*
G01X68796Y85716D02*
X69113Y85216D01*
X69493Y84882D01*
X69936Y84716D01*
X70443Y84882D01*
X70823Y85216D01*
X71203Y85716D01*
X71330Y86382D01*
Y89716D01*
G01X75163Y84716D02*
Y89716D01*
X74403Y88716D01*
G01Y84716D02*
X75923D01*
G01X106083Y6400D02*
X106400Y5900D01*
X106780Y5567D01*
X107223Y5400D01*
X107730Y5567D01*
X108110Y5900D01*
X108490Y6400D01*
X108617Y7067D01*
Y10400D01*
G01X113210Y5400D02*
Y10400D01*
X110867Y6817D01*
X114033D01*
G01X109828Y58396D02*
X112362Y55862D01*
X113071Y55510D01*
X113783Y55515D01*
X114348Y55845D01*
X114679Y56411D01*
X114683Y57123D01*
X114332Y57832D01*
X111798Y60366D01*
G01X117955Y59451D02*
X114419Y62987D01*
X114589Y61742D01*
G01X117417Y58914D02*
X118492Y59989D01*
G01X138106Y74552D02*
X137660Y74460D01*
X137229Y74265D01*
X136871Y73906D01*
X136644Y73326D01*
X136626Y72718D01*
X136755Y72141D01*
X137165Y71372D01*
X137651Y70797D01*
X138271Y70357D01*
X138759Y70137D01*
X139381Y70052D01*
X139930Y70130D01*
X140362Y70326D01*
X140675Y70640D01*
X140871Y71071D01*
X140963Y71516D01*
X140951Y71976D01*
G01X143968Y73932D02*
X140432Y77468D01*
X140602Y76223D01*
G01X143430Y73395D02*
X144505Y74470D01*
G01X145882Y77260D02*
X146563Y77116D01*
X147157Y77239D01*
X147619Y77583D01*
X147918Y78000D01*
X147982Y78653D01*
X147852Y79231D01*
X147543Y79629D01*
X147041Y79952D01*
X146433Y79933D01*
X146002Y79738D01*
X145599Y79335D01*
G01X146002Y79738D02*
X146094Y80183D01*
X146023Y80702D01*
X145759Y81145D01*
X145316Y81409D01*
X144797Y81479D01*
X144218Y81253D01*
X143873Y80791D01*
X143706Y80152D01*
G01X126106Y86952D02*
X125660Y86860D01*
X125229Y86665D01*
X124871Y86306D01*
X124644Y85726D01*
X124626Y85118D01*
X124755Y84541D01*
X125165Y83772D01*
X125651Y83197D01*
X126271Y82757D01*
X126759Y82537D01*
X127381Y82452D01*
X127930Y82530D01*
X128362Y82726D01*
X128675Y83040D01*
X128871Y83471D01*
X128963Y83916D01*
X128951Y84376D01*
G01X131968Y86332D02*
X128432Y89868D01*
X128602Y88623D01*
G01X131430Y85795D02*
X132505Y86870D01*
G01X136111Y90476D02*
X132576Y94011D01*
X133453Y89820D01*
X135692Y92060D01*
G01X109483Y108200D02*
X109800Y107700D01*
X110180Y107367D01*
X110623Y107200D01*
X111130Y107367D01*
X111510Y107700D01*
X111890Y108200D01*
X112017Y108867D01*
Y112200D01*
G01X114457Y108200D02*
X114837Y107617D01*
X115343Y107283D01*
X115913Y107200D01*
X116420Y107283D01*
X116927Y107700D01*
X117243Y108200D01*
X117307Y108700D01*
X117180Y109283D01*
X116737Y109700D01*
X116293Y109867D01*
X115723D01*
G01X116293D02*
X116673Y110117D01*
X116990Y110533D01*
X117117Y111033D01*
X116990Y111533D01*
X116673Y111950D01*
X116103Y112200D01*
X115533Y112117D01*
X114963Y111783D01*
G01X161100Y55550D02*
X158850D01*
X156100Y54283D01*
G01Y56817D02*
X158850Y55550D01*
G01X156933Y59447D02*
X156433Y59827D01*
X156183Y60270D01*
X156100Y60777D01*
X156267Y61410D01*
X156683Y61853D01*
X157183Y61980D01*
X157684Y61917D01*
X158100Y61663D01*
X158933Y60397D01*
X159517Y59827D01*
X160350Y59447D01*
X161100Y59320D01*
Y61980D01*
G01X183500Y55350D02*
X181250D01*
X178500Y54083D01*
G01Y56617D02*
X181250Y55350D01*
G01X183500Y60450D02*
X178500D01*
X179500Y59690D01*
G01X183500D02*
Y61210D01*
G01X193617Y61443D02*
X193367Y61063D01*
X193200Y60620D01*
Y60113D01*
X193450Y59543D01*
X193867Y59100D01*
X194367Y58783D01*
X195200Y58530D01*
X195950Y58467D01*
X196700Y58593D01*
X197200Y58783D01*
X197700Y59163D01*
X198033Y59607D01*
X198200Y60050D01*
Y60493D01*
X198033Y60937D01*
X197783Y61317D01*
X197450Y61633D01*
G01X194033Y63947D02*
X193533Y64327D01*
X193283Y64770D01*
X193200Y65277D01*
X193367Y65910D01*
X193783Y66353D01*
X194283Y66480D01*
X194784Y66417D01*
X195200Y66163D01*
X196033Y64897D01*
X196617Y64327D01*
X197450Y63947D01*
X198200Y63820D01*
Y66480D01*
G01X207000Y23157D02*
X202000D01*
Y24423D01*
X202250Y24930D01*
X202583Y25310D01*
X203083Y25627D01*
X203667Y25880D01*
X204500Y25943D01*
X205333Y25880D01*
X205917Y25627D01*
X206417Y25310D01*
X206750Y24930D01*
X207000Y24423D01*
Y23157D01*
G01Y29650D02*
X202000D01*
X203000Y28890D01*
G01X207000D02*
Y30410D01*
G01X205700Y52583D02*
X206200Y52900D01*
X206533Y53280D01*
X206700Y53723D01*
X206533Y54230D01*
X206200Y54610D01*
X205700Y54990D01*
X205033Y55117D01*
X201700D01*
G01X202533Y57747D02*
X202033Y58127D01*
X201783Y58570D01*
X201700Y59077D01*
X201867Y59710D01*
X202283Y60153D01*
X202783Y60280D01*
X203284Y60217D01*
X203700Y59963D01*
X204533Y58697D01*
X205117Y58127D01*
X205950Y57747D01*
X206700Y57620D01*
Y60280D01*
G01X209000Y87957D02*
X204000D01*
Y89223D01*
X204250Y89730D01*
X204583Y90110D01*
X205083Y90427D01*
X205667Y90680D01*
X206500Y90743D01*
X207333Y90680D01*
X207917Y90427D01*
X208417Y90110D01*
X208750Y89730D01*
X209000Y89223D01*
Y87957D01*
G01X204833Y93247D02*
X204333Y93627D01*
X204083Y94070D01*
X204000Y94577D01*
X204167Y95210D01*
X204583Y95653D01*
X205083Y95780D01*
X205584Y95717D01*
X206000Y95463D01*
X206833Y94197D01*
X207417Y93627D01*
X208250Y93247D01*
X209000Y93120D01*
Y95780D01*
G01X0Y0D02*
X216535D01*
Y118110D01*
X0D01*
Y0D01*
G01X8268Y12488D02*
Y3000D01*
X208268D01*
Y12488D01*
X8268D01*
G01X21658Y70866D02*
G03I-2201J0D01*
G01X22665Y73622D02*
Y44488D01*
X500D01*
Y73622D01*
X22665D01*
G01X8268Y115110D02*
Y105622D01*
X208268D01*
Y115110D01*
X8268D01*
G01X57352Y21513D02*
X88848D01*
Y35687D01*
X57352D01*
Y21513D01*
G01X63073Y79794D02*
G03I-2784J0D01*
G01X56116Y95700D02*
X88084D01*
Y75700D01*
X56116D01*
Y95700D01*
G01X114268Y78542D02*
X94780Y59055D01*
X114268Y39568D01*
X133755Y59055D01*
X114268Y78542D01*
G01X131780Y59055D02*
G03I-2201J0D01*
G01X168701Y34843D02*
Y83268D01*
X150197D01*
Y34843D01*
X168701D01*
G01X199753Y19601D02*
Y32199D01*
X193847D01*
Y19601D01*
X199753D01*
G01X178880Y70911D02*
G03I-2201J0D01*
G01X189080Y74848D02*
Y43352D01*
X174120D01*
Y74848D01*
X189080D01*
G01X206925Y7744D02*
G03I-2201J0D01*
G01X196800Y26400D02*
Y29900D01*
G01X194800Y24400D02*
X198800D01*
G01X196800D02*
X198800Y26400D01*
X194800D01*
X196800Y24400D01*
Y22900D01*
G01X200047Y39055D02*
X209535D01*
Y79055D01*
X200047D01*
Y39055D01*
G01X208340Y73819D02*
G03I-3549J0D01*
G01X199400Y90800D02*
Y87300D01*
G01X201400Y92800D02*
X197400D01*
G01X199400D02*
X197400Y90800D01*
X201400D01*
X199400Y92800D01*
Y94300D01*
G01X196447Y97599D02*
Y85001D01*
X202353D01*
Y97599D01*
X196447D01*
G01X206925Y110366D02*
G03I-2201J0D01*
M02*
