G04 ================== begin FILE IDENTIFICATION RECORD ==================*
G04 Layout Name:  STM32F103C8T6_KIT_DEV_2.brd*
G04 Film Name:    BOTTOM*
G04 File Format:  Gerber RS274X*
G04 File Origin:  Cadence Allegro 17.2-P019*
G04 Origin Date:  Mon Dec 28 20:52:39 2020*
G04 *
G04 Layer:  VIA CLASS/BOTTOM*
G04 Layer:  PIN/BOTTOM*
G04 Layer:  ETCH/BOTTOM*
G04 Layer:  BOARD GEOMETRY/OUTLINE*
G04 *
G04 Offset:    (0.000 0.000)*
G04 Mirror:    No*
G04 Mode:      Positive*
G04 Rotation:  0*
G04 FullContactRelief:  No*
G04 UndefLineWidth:     6.000*
G04 ================== end FILE IDENTIFICATION RECORD ====================*
%FSLAX25Y25*MOIN*%
%IR0*IPPOS*OFA0.00000B0.00000*MIA0B0*SFA1.00000B1.00000*%
%AMMACRO17*
21,1,.03,.032,0.0,0.0,135.*%
%ADD17MACRO17*%
%ADD19R,.032X.03*%
%AMMACRO18*
21,1,.03,.032,0.0,0.0,45.*%
%ADD18MACRO18*%
%ADD14R,.03X.032*%
%ADD12C,.03*%
%ADD13C,.022*%
%ADD15R,.048X.028*%
%ADD11C,.021693*%
%ADD10C,.059843*%
%ADD16R,.059843X.059843*%
%ADD20C,.008*%
%ADD21C,.01*%
%ADD22C,.02*%
%ADD23C,.006*%
%ADD25C,.041698*%
%ADD26C,.069848*%
%ADD24C,.079848*%
G75*
%LPD*%
G75*
G36*
G01X2100Y2100D02*
Y116010D01*
X214435D01*
Y82845D01*
G02X213753Y82562I-400J0D01*
G01X212014Y84300D01*
X199795D01*
G02X199512Y84983I0J400D01*
G01X209321Y94792D01*
Y107142D01*
X207260Y109202D01*
Y113358D01*
G03X206260Y114358I-1000J0D01*
G01X200276D01*
G03X199275Y113358I0J-1000D01*
G01Y107374D01*
G03X199382Y106925I1000J0D01*
G01X199447Y106796D01*
X199203Y106552D01*
X196946Y108809D01*
X196993Y108931D01*
G03X189591Y108811I-3725J1436D01*
G01X178100Y97320D01*
Y63021D01*
X177976Y62897D01*
G02X177396Y62911I-283J283D01*
G03X177260Y63009I-296J-268D01*
G02X177034Y63475I161J366D01*
G03X173383Y62660I-2034J525D01*
G01X173499Y62520D01*
X170256Y59278D01*
G02X169573Y59561I-283J283D01*
G01Y68457D01*
G03X166573I-1500J1470D01*
G01Y59895D01*
X162200Y55522D01*
G02X161522Y55868I-283J283D01*
G03X161546Y56103I-2074J332D01*
G01X161550Y56180D01*
X163900Y58530D01*
Y65521D01*
X143557Y85865D01*
X134243D01*
X133674Y85296D01*
X133538Y85386D01*
G03X132926Y85500I-441J-668D01*
G02X132462Y85760I-86J391D01*
G03X129792Y83090I-1986J-684D01*
G02X130053Y82627I-130J-378D01*
G03X130268Y81890I782J-171D01*
G01X132390Y79768D01*
G03X133397Y79667I566J566D01*
G01X133533Y79757D01*
X134004Y79285D01*
X133914Y79149D01*
G03X134016Y78142I668J-441D01*
G01X135394Y76764D01*
G02X135062Y76084I-283J-283D01*
G03X133330Y75500I-262J-2084D01*
G01X132779D01*
X131850Y74571D01*
X131709Y74686D01*
G03X130637Y74632I-506J-620D01*
G01X128516Y72510D01*
G03X128414Y71503I566J-566D01*
G01X128504Y71367D01*
X127824Y70687D01*
X127693Y70758D01*
G03X127102Y70672I-238J-440D01*
G01X124980Y68551D01*
G03Y67843I354J-354D01*
G01X127243Y65580D01*
G03X127951I354J354D01*
G01X130072Y67702D01*
G03X130158Y68293I-354J354D01*
G01X130087Y68424D01*
X130767Y69104D01*
X130903Y69014D01*
G03X131910Y69116I441J668D01*
G01X133097Y70303D01*
X133526D01*
G02X133667Y69962I0J-200D01*
G01X132416Y68710D01*
G03X132314Y67703I566J-566D01*
G01X132404Y67567D01*
X131724Y66887D01*
X131593Y66958D01*
G03X131002Y66872I-238J-440D01*
G01X128881Y64751D01*
G03Y64043I354J-354D01*
G01X130732Y62192D01*
G02X130591Y61850I-141J-141D01*
G01X130264D01*
X123000Y69114D01*
Y69447D01*
G02X123342Y69588I200J0D01*
G01X123449Y69480D01*
G03X124157I354J354D01*
G01X126420Y71743D01*
G03Y72451I-354J354D01*
G01X124300Y74570D01*
Y76514D01*
X119914Y80900D01*
X92186D01*
X87086Y75800D01*
X71814D01*
X71584Y76031D01*
G02X71888Y76713I283J283D01*
G03X69373Y83616I212J3987D01*
G02X68700Y83909I-273J292D01*
G01Y87492D01*
G02X69373Y87784I400J0D01*
G03X73650Y94379I2727J2916D01*
G01Y98183D01*
X73810Y98216D01*
G03X74434Y98840I-160J784D01*
G01X74467Y99000D01*
X75133D01*
X75166Y98840D01*
G03X75950Y98200I784J160D01*
G01X78950D01*
G03X79746Y98920I0J800D01*
G01X79764Y99100D01*
X80621D01*
X80920Y99399D01*
X81060Y99282D01*
G03X80930Y102400I1340J1618D01*
G01X79736D01*
X79683Y102520D01*
G03X78950Y103000I-733J-320D01*
G01X75950D01*
G03X75166Y102360I0J-800D01*
G01X75133Y102200D01*
X74467D01*
X74434Y102360D01*
G03X73650Y103000I-784J-160D01*
G01X70650D01*
G03X69850Y102200I0J-800D01*
G01Y99000D01*
G03X70490Y98216I800J0D01*
G01X70650Y98183D01*
Y95364D01*
X70600Y95314D01*
Y94400D01*
G03X69093Y93326I1500J-3700D01*
G02X68508Y93306I-301J263D01*
G01X56514Y105300D01*
X41914D01*
X39700Y107514D01*
Y108069D01*
X40001D01*
X40061Y107988D01*
G03Y112744I3207J2378D01*
G01X40001Y112663D01*
X39700D01*
Y113314D01*
X38414Y114600D01*
X29186D01*
X27100Y112514D01*
Y112202D01*
G02X26347Y112014I-400J0D01*
G03Y108719I-3079J-1648D01*
G02X27100Y108530I353J-189D01*
G01Y103986D01*
X31402Y99683D01*
G02X31120Y99000I-283J-283D01*
G01X14586D01*
X11900Y96314D01*
Y84986D01*
X14986Y81900D01*
X24486D01*
X25500Y80886D01*
Y80330D01*
G02X24944Y79961I-400J0D01*
G03X24750Y80000I-194J-461D01*
G01X21750D01*
G03X21250Y79500I0J-500D01*
G01Y76300D01*
G03X21750Y75800I500J0D01*
G01X22320D01*
G02X22602Y75117I0J-400D01*
G01X20600Y73114D01*
Y69786D01*
X20719Y69666D01*
G02X20374Y68988I-283J-283D01*
G03X22106Y67256I-326J-2059D01*
G02X22784Y67601I395J63D01*
G01X26500Y63886D01*
Y13486D01*
X28786Y11200D01*
X30112D01*
G02X30400Y10522I0J-400D01*
G03X36136I2868J-2777D01*
G02X36423Y11200I287J278D01*
G01X40112D01*
G02X40400Y10522I0J-400D01*
G03X46136I2868J-2777D01*
G02X46423Y11200I287J278D01*
G01X49386D01*
X50237Y10349D01*
X50127Y10209D01*
G03X56693Y9794I3140J-2465D01*
G02X57037Y10400I343J205D01*
G01X59499D01*
G02X59842Y9794I0J-400D01*
G03X66693I3426J-2050D01*
G02X67037Y10400I343J205D01*
G01X69499D01*
G02X69842Y9794I0J-400D01*
G03X76693I3426J-2050D01*
G02X77037Y10400I343J205D01*
G01X79499D01*
G02X79842Y9794I0J-400D01*
G03X86693I3426J-2050D01*
G02X87037Y10400I343J205D01*
G01X89499D01*
G02X89842Y9794I0J-400D01*
G03X96693I3426J-2050D01*
G02X97037Y10400I343J205D01*
G01X99499D01*
G02X99842Y9794I0J-400D01*
G03X106693I3426J-2050D01*
G02X107037Y10400I343J205D01*
G01X109499D01*
G02X109842Y9794I0J-400D01*
G03X116693I3426J-2050D01*
G02X117037Y10400I343J205D01*
G01X119499D01*
G02X119842Y9794I0J-400D01*
G03X126693I3426J-2050D01*
G02X127037Y10400I343J205D01*
G01X129499D01*
G02X129842Y9794I0J-400D01*
G03X136693I3426J-2050D01*
G02X137037Y10400I343J205D01*
G01X139499D01*
G02X139842Y9794I0J-400D01*
G03X146693I3426J-2050D01*
G02X147037Y10400I343J205D01*
G01X149499D01*
G02X149842Y9794I0J-400D01*
G03X156693I3426J-2050D01*
G02X157037Y10400I343J205D01*
G01X159499D01*
G02X159842Y9794I0J-400D01*
G03X166693I3426J-2050D01*
G02X167037Y10400I343J205D01*
G01X168186D01*
X168500Y10086D01*
Y4686D01*
X170086Y3100D01*
X186614D01*
X189300Y5786D01*
Y12114D01*
X182914Y18500D01*
X182714D01*
X176698Y24517D01*
G02X176980Y25200I283J283D01*
G01X178058D01*
X203234Y50376D01*
X203356Y50330D01*
G03X206890Y50659I1436J3725D01*
G02X207500Y50318I210J-340D01*
G01Y47189D01*
G02X206863Y46867I-400J0D01*
G03Y41243I-2071J-2812D01*
G02X207500Y40921I237J-322D01*
G01Y38314D01*
X207086Y37900D01*
X204286D01*
X199700Y33314D01*
Y26186D01*
X201586Y24300D01*
X203886D01*
X205300Y22886D01*
Y18314D01*
X200586Y13600D01*
X198086D01*
X197000Y12514D01*
Y9756D01*
G02X196257Y9549I-400J0D01*
G03Y5939I-2990J-1805D01*
G02X197000Y5732I342J-207D01*
G01Y3186D01*
X197403Y2783D01*
G02X197120Y2100I-283J-283D01*
G01X2100D01*
G37*
G36*
G01X185198Y4833D02*
G03X181338I-1930J2911D01*
G02X181117Y4100I-221J-333D01*
G01X176229D01*
G02X175959Y4795I0J400D01*
G03X170207Y10307I-2692J2949D01*
G02X169506Y10494I-307J257D01*
G01X168600Y11400D01*
X164872D01*
G03X161663I-1604J-3656D01*
G01X154872D01*
G03X151663I-1604J-3656D01*
G01X144872D01*
G03X141663I-1604J-3656D01*
G01X134872D01*
G03X131663I-1604J-3656D01*
G01X124872D01*
G03X121663I-1604J-3656D01*
G01X114872D01*
G03X111663I-1604J-3656D01*
G01X104872D01*
G03X101663I-1604J-3656D01*
G01X94872D01*
G03X91663I-1604J-3656D01*
G01X84872D01*
G03X81663I-1604J-3656D01*
G01X74872D01*
G03X71663I-1604J-3656D01*
G01X64872D01*
G03X61663I-1604J-3656D01*
G01X54872D01*
G03X51701Y11416I-1604J-3656D01*
G01X51663Y11400D01*
X50600D01*
X49800Y12200D01*
X29200D01*
X27500Y13900D01*
Y47970D01*
G03Y48030I-2500J30D01*
G01Y64300D01*
X21600Y70200D01*
Y72700D01*
X23500Y74600D01*
X26000D01*
X26500Y75100D01*
Y75412D01*
G02X26967Y75807I400J0D01*
G03X27050Y75800I83J493D01*
G01X30050D01*
G03X30550Y76300I0J500D01*
G01Y79500D01*
G03X30050Y80000I-500J0D01*
G01X27050D01*
G03X26967Y79993I0J-500D01*
G02X26500Y80388I-67J394D01*
G01Y81300D01*
X24900Y82900D01*
X15400D01*
X12900Y85400D01*
Y95900D01*
X15000Y98000D01*
X32500D01*
X35400Y95100D01*
Y88414D01*
X35300Y88314D01*
Y74786D01*
X35400Y74686D01*
Y73782D01*
X43557Y65624D01*
G02X43214Y64946I-283J-283D01*
G03X41502Y61299I-318J-2076D01*
G02Y60701I-265J-299D01*
G03X43739Y57207I1394J-1571D01*
G02X44300Y56840I161J-366D01*
G01Y56100D01*
X46800Y53600D01*
Y26000D01*
X55300Y17500D01*
X105950D01*
Y17100D01*
G03X106750Y16300I800J0D01*
G01X109750D01*
G03X110534Y16940I0J800D01*
G01X110567Y17100D01*
X111528D01*
X111571Y16957D01*
G03X112050Y16600I479J143D01*
G01X115050D01*
G03X115550Y17100I0J500D01*
G01Y20300D01*
G03X115372Y20683I-500J0D01*
G01X115300Y20743D01*
Y23500D01*
X116300Y24500D01*
X175300D01*
X182300Y17500D01*
X182500D01*
X188300Y11700D01*
Y9285D01*
G03Y6203I1275J-1541D01*
G01Y6200D01*
X186200Y4100D01*
X185419D01*
G02X185198Y4833I0J400D01*
G37*
G36*
G01X55714Y18500D02*
X47800Y26414D01*
Y54014D01*
X45300Y56514D01*
Y58850D01*
X76470D01*
X86120Y49200D01*
X88162D01*
G02X88445Y48517I0J-400D01*
G01X75129Y35200D01*
X73450D01*
G03X72666Y34560I0J-800D01*
G01X72633Y34400D01*
X71672D01*
X71629Y34543D01*
G03X71150Y34900I-479J-143D01*
G01X68150D01*
G03X67650Y34400I0J-500D01*
G01Y31200D01*
G03X68150Y30700I500J0D01*
G01X71150D01*
G03X71629Y31057I0J500D01*
G01X71672Y31200D01*
X72633D01*
X72666Y31040D01*
G03X73210Y30437I784J160D01*
G01X73350Y30393D01*
Y29900D01*
X62086D01*
X59700Y27514D01*
Y21586D01*
X62102Y19183D01*
G02X61820Y18500I-283J-283D01*
G01X55714D01*
G37*
G36*
G01X122000Y70506D02*
Y68700D01*
X123976Y66724D01*
G03X126124Y64576I1994J-154D01*
G01X127871Y62829D01*
G03X130430Y60850I1999J-59D01*
G01X132292D01*
G03X133814I761J1850D01*
G01X134650D01*
X138200Y57300D01*
Y55800D01*
X135400Y53000D01*
X135100Y53300D01*
X135036D01*
G02X134753Y53983I0J400D01*
G01X136320Y55549D01*
G03Y56257I-354J354D01*
G01X134057Y58520D01*
G03X133349I-354J-354D01*
G01X131228Y56398D01*
G03X131142Y55807I354J-354D01*
G01X131213Y55676D01*
X130533Y54996D01*
X130397Y55086D01*
G03X129390Y54984I-441J-668D01*
G01X127268Y52863D01*
G03Y51731I566J-566D01*
G01X128100Y50900D01*
X127800Y50600D01*
Y48600D01*
X134500Y41900D01*
X161800D01*
X162700Y42800D01*
X169129D01*
X185500Y59172D01*
Y69800D01*
X199000Y83300D01*
X211600D01*
X214000Y80900D01*
Y6900D01*
X209100Y2000D01*
X199600D01*
X198000Y3600D01*
Y12100D01*
X198500Y12600D01*
X201000D01*
X206300Y17900D01*
Y23300D01*
X204300Y25300D01*
X202000D01*
X200700Y26600D01*
Y32900D01*
X204700Y36900D01*
X207500D01*
X208500Y37900D01*
Y42577D01*
G03Y45533I-3709J1478D01*
G01Y52577D01*
G03Y55533I-3709J1478D01*
G01Y62577D01*
G03X208514Y65499I-3709J1478D01*
G01X208500Y65534D01*
Y67500D01*
X207700Y68300D01*
X203600D01*
X202836Y67536D01*
X202813Y67523D01*
G03X201311Y66011I1979J-3468D01*
G01X195400Y60100D01*
Y53900D01*
X173000Y31500D01*
X105300D01*
X100800Y27000D01*
Y23100D01*
X96400Y18700D01*
X64000D01*
X60700Y22000D01*
Y27100D01*
X62500Y28900D01*
X68449D01*
G03X70851I1201J1600D01*
G01X73350D01*
Y26717D01*
X73190Y26684D01*
G03X72566Y26060I160J-784D01*
G01X72533Y25900D01*
X71572D01*
X71529Y26043D01*
G03X71050Y26400I-479J-143D01*
G01X68050D01*
G03X67550Y25900I0J-500D01*
G01Y22700D01*
G03X68050Y22200I500J0D01*
G01X71050D01*
G03X71529Y22557I0J500D01*
G01X71572Y22700D01*
X72533D01*
X72566Y22540D01*
G03X73350Y21900I784J160D01*
G01X76350D01*
G03X77146Y22620I0J800D01*
G01X77164Y22800D01*
X79721D01*
X83420Y26499D01*
X83497Y26502D01*
G03X83760Y30669I-97J2098D01*
G02X83546Y31346I69J394D01*
G01X92200Y40000D01*
X106606D01*
X107890Y38716D01*
G03X108897Y38614I566J566D01*
G01X109033Y38704D01*
X109713Y38024D01*
X109642Y37893D01*
G03X109728Y37302I440J-238D01*
G01X111849Y35180D01*
G03X112557I354J354D01*
G01X114819Y37443D01*
G03Y38151I-354J354D01*
G01X113653Y39317D01*
G02X113936Y40000I283J283D01*
G01X116500D01*
X121000Y44500D01*
Y51378D01*
X122400Y52779D01*
Y52900D01*
X122500Y53000D01*
Y58700D01*
X117200Y64000D01*
X116107D01*
X116086Y64004D01*
G03X115214I-436J-2054D01*
G01X115193Y64000D01*
X113900D01*
X109400Y59500D01*
X105579D01*
X105178Y59100D01*
X104700D01*
X103100Y57500D01*
X89100D01*
X88700Y57900D01*
Y58000D01*
X78700Y68000D01*
X53700D01*
X46700Y75000D01*
Y90600D01*
X48600Y92500D01*
Y95000D01*
X46300Y97300D01*
X35200D01*
X28100Y104400D01*
Y112100D01*
X29600Y113600D01*
X30599D01*
G02X30874Y112909I0J-400D01*
G03X35662I2394J-2543D01*
G02X35936Y113600I274J291D01*
G01X38000D01*
X38700Y112900D01*
Y107100D01*
X41500Y104300D01*
X56100D01*
X67700Y92700D01*
Y78400D01*
X70300Y75800D01*
X70400D01*
X71400Y74800D01*
X87500D01*
X92600Y79900D01*
X119500D01*
X120275Y79125D01*
G02X120083Y78453I-283J-283D01*
G03X119843Y78320I114J-487D01*
G01X117580Y76057D01*
G03Y75349I354J-354D01*
G01X119702Y73228D01*
G03X120293Y73142I354J354D01*
G01X120424Y73213D01*
X121104Y72533D01*
X121014Y72397D01*
G03X121116Y71390I668J-441D01*
G01X122000Y70506D01*
G37*
G36*
G01X37900Y89500D02*
X43400D01*
X45100Y87800D01*
Y74400D01*
X44000Y73300D01*
X38200D01*
X36300Y75200D01*
Y87900D01*
X37900Y89500D01*
G37*
G36*
G01X105434Y41000D02*
X91786D01*
X80686Y29900D01*
X76450D01*
Y30383D01*
X76610Y30416D01*
G03X77250Y31200I-160J784D01*
G01Y33079D01*
X90171Y46000D01*
X111421D01*
X114422Y49000D01*
X115879D01*
X117078Y50200D01*
X120000D01*
Y44914D01*
X116086Y41000D01*
X113814D01*
X112314Y42500D01*
X110470D01*
X108951Y44020D01*
G03X108243I-354J-354D01*
G01X105981Y41757D01*
G03X105834Y41402I354J-354D01*
G02X105434Y41000I-400J-1D01*
G37*
G36*
G01X139200Y55386D02*
Y57714D01*
X135064Y61850D01*
X132886D01*
G02X132603Y62533I0J400D01*
G01X133972Y63902D01*
G03X134058Y64493I-354J354D01*
G01X133987Y64624D01*
X134667Y65304D01*
X134803Y65214D01*
G03X135810Y65316I441J668D01*
G01X136997Y66503D01*
X137608D01*
G02X137959Y65910I0J-400D01*
G03X139703Y62802I1841J-1010D01*
G01X139780Y62798D01*
X147000Y55579D01*
Y53780D01*
G02X146317Y53498I-400J0D01*
G01X146019Y53796D01*
X146008Y53859D01*
G03X143127Y50978I-2465J-416D01*
G01X143190Y50967D01*
X150574Y43583D01*
G02X150291Y42900I-283J-283D01*
G01X134914D01*
X128800Y49014D01*
Y50186D01*
X129019Y50405D01*
X129743Y49680D01*
G03X130451I354J354D01*
G01X132572Y51802D01*
G03X132717Y52116I-354J354D01*
G01X132732Y52300D01*
X134686D01*
X135400Y51586D01*
X136666Y52851D01*
X136673Y52857D01*
G03X136943Y53127I-1273J1543D01*
G01X136949Y53135D01*
X139200Y55386D01*
G37*
%LPC*%
G75*
G36*
G01X202721Y17499D02*
X201971Y16750D01*
X199217D01*
X199184Y16590D01*
G02X198400Y15950I-784J160D01*
G01X195200D01*
G02X194400Y16750I0J800D01*
G01Y19750D01*
G02X195040Y20534I800J0D01*
G01X195200Y20567D01*
Y21528D01*
X195057Y21571D01*
G02X194700Y22050I143J479D01*
G01Y25050D01*
G02X195200Y25550I500J0D01*
G01X198400D01*
G02X198900Y25050I0J-500D01*
G01Y22050D01*
G02X198543Y21571I-500J0D01*
G01X198400Y21528D01*
Y20567D01*
X198560Y20534D01*
G02X199184Y19910I-160J-784D01*
G01X199217Y19750D01*
X200599D01*
X200625Y19920D01*
G02X202798Y17503I2076J-319D01*
G01X202721Y17499D01*
G37*
G36*
G01X31400Y84200D02*
X26600D01*
G02X26100Y84700I0J500D01*
G01Y87500D01*
G02X26105Y87571I500J0D01*
G01X26107Y87586D01*
Y87741D01*
G02X26036Y87800I493J660D01*
G01X24500D01*
G02Y91800I-1500J2000D01*
G01X26036D01*
G02X26107Y91859I564J-600D01*
G01Y92014D01*
X26105Y92029D01*
G02X26100Y92100I495J71D01*
G01Y94900D01*
G02X26600Y95400I500J0D01*
G01X31400D01*
G02X31900Y94900I0J-500D01*
G01Y92100D01*
G02X31853Y91888I-500J0D01*
G02X32223Y91200I-453J-688D01*
G01Y88400D01*
G02X31853Y87712I-823J0D01*
G02X31900Y87500I-453J-212D01*
G01Y84700D01*
G02X31400Y84200I-500J0D01*
G37*
G36*
G01X95016Y66210D02*
X97137Y68332D01*
G02X98269I566J-566D01*
G01X100532Y66069D01*
G02X100766Y65501I-566J-566D01*
G01Y65410D01*
X100876Y65300D01*
X102200D01*
G02Y61300I1500J-2000D01*
G01X99219D01*
X97936Y62582D01*
X97852Y62582D01*
G02X97403Y62714I-8J800D01*
G01X97267Y62804D01*
X96587Y62124D01*
X96658Y61993D01*
G02X96572Y61402I-440J-238D01*
G01X94451Y59280D01*
G02X93743I-354J354D01*
G01X91480Y61543D01*
G02Y62251I354J354D01*
G01X93602Y64372D01*
G02X94193Y64458I354J-354D01*
G01X94324Y64387D01*
X95004Y65067D01*
X94914Y65203D01*
G02X95016Y66210I668J441D01*
G37*
G36*
G01X208284Y71063D02*
G02X207784Y70563I-500J0D01*
G01X201799D01*
G02X201299Y71063I0J500D01*
G01Y77047D01*
G02X201799Y77547I500J0D01*
G01X207784D01*
G02X208284Y77047I0J-500D01*
G01Y71063D01*
G37*
G36*
G01X206760Y4752D02*
G02X206260Y4252I-500J0D01*
G01X200276D01*
G02X199775Y4752I0J500D01*
G01Y10736D01*
G02X200276Y11236I500J0D01*
G01X206260D01*
G02X206760Y10736I0J-500D01*
G01Y4752D01*
G37*
G36*
G01X58608Y77708D02*
Y83692D01*
G02X59108Y84192I500J0D01*
G01X65092D01*
G02X65592Y83692I0J-500D01*
G01Y77708D01*
G02X65092Y77208I-500J0D01*
G01X59108D01*
G02X58608Y77708I0J500D01*
G37*
G36*
G01X37300Y84700D02*
Y87500D01*
G02X37800Y88000I500J0D01*
G01X42600D01*
G02X43100Y87500I0J-500D01*
G01Y84700D01*
G02X42600Y84200I-500J0D01*
G01X37800D01*
G02X37300Y84700I0J500D01*
G37*
G54D25*
X20047Y51181D03*
G54D26*
X13268Y110366D03*
X82100Y90700D03*
Y80700D03*
X62100Y90700D03*
G54D24*
X13268Y7744D03*
X23268D03*
X53268Y110366D03*
X63268D03*
X73268D03*
X83268D03*
X93268D03*
X103268D03*
X113268D03*
X123268D03*
X133268D03*
X143268D03*
X153268D03*
X163268D03*
X173268D03*
X183268D03*
%LPD*%
G75*
G54D10*
X13268Y7744D03*
Y110366D03*
X23268Y7744D03*
X33268D03*
X43268D03*
X23268Y110366D03*
X33268D03*
X43268D03*
X53268Y7744D03*
X63268D03*
X73268D03*
X72100Y90700D03*
X62100D03*
X72100Y80700D03*
X53268Y110366D03*
X63268D03*
X73268D03*
X83268Y7744D03*
X93268D03*
X103268D03*
X82100Y90700D03*
Y80700D03*
X83268Y110366D03*
X93268D03*
X103268D03*
X113268Y7744D03*
X123268D03*
X133268D03*
X113268Y110366D03*
X123268D03*
X133268D03*
X143268Y7744D03*
X153268D03*
X163268D03*
X143268Y110366D03*
X153268D03*
X163268D03*
X173268Y7744D03*
X183268D03*
X193268D03*
X173268Y110366D03*
X183268D03*
X193268D03*
X204791Y44055D03*
Y54055D03*
Y64055D03*
G54D20*
G01X42895Y62870D02*
X44016Y61750D01*
X77671D01*
X87321Y52100D01*
X108900D01*
X109493Y52693D01*
Y53336D01*
X108161Y54668D01*
G01X112325D02*
X110993Y53335D01*
Y52071D01*
X109522Y50600D01*
X86700D01*
X77050Y60250D01*
X44016D01*
X42895Y59130D01*
G54D11*
X20047Y51181D03*
Y66929D03*
G54D21*
G01X83400Y28600D02*
X79100Y24300D01*
X74850D01*
G01X115650Y61950D02*
X120900Y56700D01*
Y53400D01*
X119200Y51700D01*
X115000D01*
X110800Y47500D01*
X89550D01*
X74950Y32900D01*
Y32800D01*
G01D02*
Y30200D01*
X74850Y30100D01*
Y24300D01*
G01X76700Y65550D02*
X78800D01*
X88750Y55600D01*
X103800D01*
X106200Y58000D01*
X115100D01*
X118000Y55100D01*
G01X77450Y100600D02*
X80000D01*
X80300Y100900D01*
X82400D01*
G01X72100Y90700D02*
Y94692D01*
X72150Y94742D01*
Y100600D01*
G01X204791Y64055D02*
X198900Y58164D01*
Y52800D01*
X175600Y29500D01*
X106900D01*
X105400Y28000D01*
G01X108250Y18700D02*
Y22750D01*
G01X204791Y54055D02*
X177436Y26700D01*
X118600D01*
G01X175000Y64000D02*
Y61900D01*
X163500Y50400D01*
X155700D01*
X151200Y54900D01*
Y60100D01*
X143297Y68003D01*
X135244D01*
X135174Y68074D01*
G01D02*
X137700Y70600D01*
X140300D01*
G01X134800Y74000D02*
X133400D01*
X131274Y71874D01*
G01D02*
X131344Y71803D01*
X136103D01*
X137500Y73200D01*
X144000D01*
X155000Y62200D01*
Y55600D01*
X157800Y52800D01*
X161600D01*
X168073Y59273D01*
Y69927D01*
G01X139652Y75900D02*
X136774Y78779D01*
G01D02*
X136844Y78849D01*
X142799D01*
X159449Y62200D01*
G01X130476Y85076D02*
X133026Y82526D01*
G01D02*
X134865Y84365D01*
X142935D01*
X162400Y64900D01*
Y59151D01*
X159449Y56200D01*
G01X139800Y64900D02*
X148500Y56200D01*
Y53400D01*
X154300Y47600D01*
X164800D01*
X179600Y62400D01*
Y96698D01*
X193268Y110366D01*
G01X199500Y96150D02*
X195250D01*
X193800Y97600D01*
G01X193268Y110366D02*
X199500Y104134D01*
Y101450D01*
G01X196800Y18250D02*
X201350D01*
X202701Y19601D01*
G54D12*
G01X204791Y74055D02*
X208645D01*
X16000Y58000D03*
X19000Y77900D03*
X25000Y48000D03*
X28500Y69100D03*
X25300Y72600D03*
X31800D03*
X23000Y89800D03*
X42400Y80500D03*
Y76900D03*
X64700Y32800D03*
X55300Y85450D03*
X51100D03*
X53200Y81300D03*
X103700Y63300D03*
X89900Y65900D03*
X115050Y34850D03*
X114000Y44700D03*
X131124Y58624D03*
X116300Y71900D03*
X127900Y78200D03*
X143543Y53443D03*
X139600Y49600D03*
X142900Y88300D03*
X189800Y23550D03*
X204400Y30500D03*
G54D22*
G01X23250Y77900D02*
X19000D01*
G01X19575Y110366D02*
X23268D01*
G01X13268Y106674D02*
Y110366D01*
G01D02*
Y114058D01*
G01X9575Y110366D02*
X13268D01*
G01D02*
X16960D01*
G01X29000Y89800D02*
X23000D01*
G01X23250Y77900D02*
Y80450D01*
G01X40200Y86100D02*
X37300D01*
G01X40200Y84000D02*
Y86100D01*
G01D02*
Y88200D01*
G01Y86100D02*
X43300D01*
G01X29000Y93500D02*
X25100D01*
G01X28550Y77900D02*
Y74800D01*
G01X29000Y83200D02*
Y86100D01*
G01X28550Y77900D02*
X32200D01*
G01X29000Y86100D02*
X24500D01*
G01X29000D02*
X33000D01*
G01X28550Y77900D02*
Y81450D01*
G01X29000Y93500D02*
Y95600D01*
G01Y93500D02*
X32100D01*
G01X40200D02*
X43500D01*
X45000Y95000D01*
G01X23268Y106674D02*
Y110366D01*
G01D02*
Y114058D01*
G01X33268Y106674D02*
Y110366D01*
G01X29575D02*
X33268D01*
G01D02*
X36960D01*
G01X69650Y32800D02*
X64700D01*
G01X69650Y30500D02*
Y32800D01*
G01D02*
Y35100D01*
G01X69550Y24300D02*
Y22000D01*
G01Y24300D02*
Y27150D01*
G01X66700Y24300D02*
X69550D01*
G01X78408Y80700D02*
X82100D01*
G01X78408Y90700D02*
X82100D01*
G01X62100Y77008D02*
Y80700D01*
G01D02*
Y84392D01*
G01X58408Y80700D02*
X62100D01*
G01D02*
X65792D01*
G01X62100Y87008D02*
Y90700D01*
G01D02*
Y94392D01*
G01X58408Y90700D02*
X62100D01*
G01D02*
X65792D01*
G01X108526Y41474D02*
X106405Y43595D01*
G01X97774Y65574D02*
X100048Y63300D01*
X103700D01*
G01X92400Y63453D02*
X94026Y61826D01*
G01D02*
X95653Y60200D01*
G01X92470Y60270D02*
X94026Y61826D01*
G01X82100Y77008D02*
Y80700D01*
G01D02*
Y84392D01*
G01Y80700D02*
X85792D01*
G01X82100Y87008D02*
Y90700D01*
G01D02*
Y94392D01*
G01Y90700D02*
X85792D01*
G01X108526Y41474D02*
X111752Y44700D01*
G01X113830Y36170D02*
X115050Y34950D01*
Y34850D01*
G01X114300Y39000D02*
X113026Y37726D01*
X112274D01*
G01D02*
X113830Y36170D01*
G01X110647Y36100D02*
X112274Y37726D01*
G01X113550Y16400D02*
Y18700D01*
G01D02*
X115750D01*
G01X127526Y68126D02*
Y68374D01*
X123874Y72026D01*
G01X127526Y68126D02*
X131326Y64326D01*
X131426D01*
G01X123874Y72026D02*
X127400Y75552D01*
G01X130026Y52226D02*
X132652Y49600D01*
G01D02*
X139600D01*
G01X111752Y44700D02*
X114000D01*
G01X129800Y65953D02*
X131426Y64326D01*
G01D02*
X133053Y62700D01*
G01X129870Y62770D02*
X131426Y64326D01*
G01X125900Y69753D02*
X127526Y68126D01*
G01X125970Y66570D02*
X127526Y68126D01*
G01X133774Y55974D02*
X131124Y58624D01*
G01X133774Y55974D02*
X135895Y58095D01*
G01X135400Y54400D02*
X133826Y55974D01*
X133774D01*
G01X120126Y75774D02*
X116300Y71948D01*
G01D02*
Y71900D01*
G01X127400Y75552D02*
Y77700D01*
X127900Y78200D01*
G01X120126Y75774D02*
X118005Y77895D01*
G01X203268Y110366D02*
X207321Y106313D01*
Y95621D01*
X183500Y71800D01*
Y60000D01*
X168300Y44800D01*
X152186D01*
X143543Y53443D01*
G01X193268Y4052D02*
Y7744D01*
G01D02*
Y11436D01*
G01X189575Y7744D02*
X193268D01*
G01X183268D02*
Y11436D01*
G01X179575Y7744D02*
X183268D01*
G01X196800Y23550D02*
X189800D01*
G01X203268Y4052D02*
Y7744D01*
G01D02*
Y11436D01*
G01X199575Y7744D02*
X203268D01*
G01D02*
X206960D01*
G01X204791Y40363D02*
Y44055D01*
G01X196800Y23550D02*
Y25750D01*
G01Y23550D02*
X199100D01*
G01X204791Y44055D02*
Y47748D01*
G01X201099Y44055D02*
X204791D01*
G01Y70363D02*
Y74055D01*
G01D02*
Y77748D01*
G01X201099Y74055D02*
X204791D01*
G54D13*
X42895Y62870D03*
Y59130D03*
X45000Y95000D03*
X76700Y65550D03*
X83400Y28600D03*
X108250Y22750D03*
X105400Y28000D03*
X108161Y54668D03*
X82400Y100900D03*
X118600Y26700D03*
X115650Y61950D03*
X112325Y54668D03*
X118000Y55100D03*
X134800Y74000D03*
X130476Y85076D03*
X139800Y64900D03*
X140300Y70600D03*
X159449Y62200D03*
Y56200D03*
X139652Y75900D03*
X175000Y64000D03*
X168073Y69927D03*
X193800Y97600D03*
X202701Y19601D03*
G54D23*
G01X0Y0D02*
X216535D01*
Y118110D01*
X0D01*
Y0D01*
G54D14*
X28550Y77900D03*
X23250D03*
X69550Y24300D03*
X74850D03*
X74950Y32800D03*
X69650D03*
X72150Y100600D03*
X77450D03*
X108250Y18700D03*
X113550D03*
G54D15*
X40200Y93500D03*
Y86100D03*
X29000Y93500D03*
Y89800D03*
Y86100D03*
G54D16*
X62100Y80700D03*
X203268Y7744D03*
X204791Y74055D03*
X203268Y110366D03*
G54D17*
X108526Y41474D03*
X112274Y37726D03*
X123874Y72026D03*
X136774Y78779D03*
X133026Y82526D03*
X120126Y75774D03*
G54D18*
X94026Y61826D03*
X97774Y65574D03*
X127526Y68126D03*
X131274Y71874D03*
X131426Y64326D03*
X135174Y68074D03*
X133774Y55974D03*
X130026Y52226D03*
G54D19*
X196800Y18250D03*
Y23550D03*
X199500Y96150D03*
Y101450D03*
M02*
