G04 ================== begin FILE IDENTIFICATION RECORD ==================*
G04 Layout Name:  STM32F103C8T6_KIT_DEV_2.brd*
G04 Film Name:    FAB*
G04 File Format:  Gerber RS274X*
G04 File Origin:  Cadence Allegro 17.2-P019*
G04 Origin Date:  Sun Dec 27 22:50:34 2020*
G04 *
G04 Layer:  DRAWING FORMAT/FAB_NOTE*
G04 Layer:  MANUFACTURING/NCLEGEND-1-2*
G04 Layer:  MANUFACTURING/XSECTION_CHART*
G04 Layer:  MANUFACTURING/NCDRILL_LEGEND*
G04 Layer:  MANUFACTURING/NCDRILL_FIGURE*
G04 Layer:  DRAWING FORMAT/OUTLINE*
G04 Layer:  DRAWING FORMAT/TITLE_BLOCK*
G04 Layer:  DRAWING FORMAT/REVISION_BLOCK*
G04 Layer:  DRAWING FORMAT/REVISION_DATA*
G04 Layer:  BOARD GEOMETRY/OUTLINE*
G04 Layer:  BOARD GEOMETRY/DIMENSION*
G04 *
G04 Offset:    (0.000 0.000)*
G04 Mirror:    No*
G04 Mode:      Positive*
G04 Rotation:  0*
G04 FullContactRelief:  No*
G04 UndefLineWidth:     6.000*
G04 ================== end FILE IDENTIFICATION RECORD ====================*
%FSLAX25Y25*MOIN*%
%IR0*IPPOS*OFA0.00000B0.00000*MIA0B0*SFA1.00000B1.00000*%
%AMMACRO13*
1,1,.006,.025,0.0*
20,1,.006,.025,0.0,.02462,-.004341,0.0*
1,1,.006,.02462,-.004341*
20,1,.006,.02462,-.004341,.023492,-.008551,0.0*
1,1,.006,.023492,-.008551*
20,1,.006,.023492,-.008551,.021651,-.0125,0.0*
1,1,.006,.021651,-.0125*
20,1,.006,.021651,-.0125,.019151,-.01607,0.0*
1,1,.006,.019151,-.01607*
20,1,.006,.019151,-.01607,.01607,-.019151,0.0*
1,1,.006,.01607,-.019151*
20,1,.006,.01607,-.019151,.0125,-.021651,0.0*
1,1,.006,.0125,-.021651*
20,1,.006,.0125,-.021651,.008551,-.023492,0.0*
1,1,.006,.008551,-.023492*
20,1,.006,.008551,-.023492,.004341,-.02462,0.0*
1,1,.006,.004341,-.02462*
20,1,.006,.004341,-.02462,0.0,-.025,0.0*
1,1,.006,0.0,-.025*
20,1,.006,0.0,-.025,-.004341,-.02462,0.0*
1,1,.006,-.004341,-.02462*
20,1,.006,-.004341,-.02462,-.008551,-.023492,0.0*
1,1,.006,-.008551,-.023492*
20,1,.006,-.008551,-.023492,-.0125,-.021651,0.0*
1,1,.006,-.0125,-.021651*
20,1,.006,-.0125,-.021651,-.01607,-.019151,0.0*
1,1,.006,-.01607,-.019151*
20,1,.006,-.01607,-.019151,-.019151,-.01607,0.0*
1,1,.006,-.019151,-.01607*
20,1,.006,-.019151,-.01607,-.021651,-.0125,0.0*
1,1,.006,-.021651,-.0125*
20,1,.006,-.021651,-.0125,-.023492,-.008551,0.0*
1,1,.006,-.023492,-.008551*
20,1,.006,-.023492,-.008551,-.02462,-.004341,0.0*
1,1,.006,-.02462,-.004341*
20,1,.006,-.02462,-.004341,-.025,0.0,0.0*
1,1,.006,-.025,0.0*
20,1,.006,-.025,0.0,-.02462,.004341,0.0*
1,1,.006,-.02462,.004341*
20,1,.006,-.02462,.004341,-.023492,.008551,0.0*
1,1,.006,-.023492,.008551*
20,1,.006,-.023492,.008551,-.021651,.0125,0.0*
1,1,.006,-.021651,.0125*
20,1,.006,-.021651,.0125,-.019151,.01607,0.0*
1,1,.006,-.019151,.01607*
20,1,.006,-.019151,.01607,-.01607,.019151,0.0*
1,1,.006,-.01607,.019151*
20,1,.006,-.01607,.019151,-.0125,.021651,0.0*
1,1,.006,-.0125,.021651*
20,1,.006,-.0125,.021651,-.008551,.023492,0.0*
1,1,.006,-.008551,.023492*
20,1,.006,-.008551,.023492,-.004341,.02462,0.0*
1,1,.006,-.004341,.02462*
20,1,.006,-.004341,.02462,0.0,.025,0.0*
1,1,.006,0.0,.025*
20,1,.006,0.0,.025,.004341,.02462,0.0*
1,1,.006,.004341,.02462*
20,1,.006,.004341,.02462,.008551,.023492,0.0*
1,1,.006,.008551,.023492*
20,1,.006,.008551,.023492,.0125,.021651,0.0*
1,1,.006,.0125,.021651*
20,1,.006,.0125,.021651,.01607,.019151,0.0*
1,1,.006,.01607,.019151*
20,1,.006,.01607,.019151,.019151,.01607,0.0*
1,1,.006,.019151,.01607*
20,1,.006,.019151,.01607,.021651,.0125,0.0*
1,1,.006,.021651,.0125*
20,1,.006,.021651,.0125,.023492,.008551,0.0*
1,1,.006,.023492,.008551*
20,1,.006,.023492,.008551,.02462,.004341,0.0*
1,1,.006,.02462,.004341*
20,1,.006,.02462,.004341,.025,0.0,0.0*
1,1,.006,.025,0.0*
1,1,.006,-.010417,-.0125*
20,1,.006,-.010417,-.0125,0.0,.0125,0.0*
1,1,.006,0.0,.0125*
20,1,.006,0.0,.0125,.010417,-.0125,0.0*
1,1,.006,.010417,-.0125*
1,1,.006,.006666,-.00375*
20,1,.006,.006666,-.00375,-.006667,-.00375,0.0*
1,1,.006,-.006667,-.00375*
%
%ADD13MACRO13*%
%AMMACRO12*
1,1,.006,.025,0.0*
20,1,.006,.025,0.0,.02462,-.004341,0.0*
1,1,.006,.02462,-.004341*
20,1,.006,.02462,-.004341,.023492,-.008551,0.0*
1,1,.006,.023492,-.008551*
20,1,.006,.023492,-.008551,.021651,-.0125,0.0*
1,1,.006,.021651,-.0125*
20,1,.006,.021651,-.0125,.019151,-.01607,0.0*
1,1,.006,.019151,-.01607*
20,1,.006,.019151,-.01607,.01607,-.019151,0.0*
1,1,.006,.01607,-.019151*
20,1,.006,.01607,-.019151,.0125,-.021651,0.0*
1,1,.006,.0125,-.021651*
20,1,.006,.0125,-.021651,.008551,-.023492,0.0*
1,1,.006,.008551,-.023492*
20,1,.006,.008551,-.023492,.004341,-.02462,0.0*
1,1,.006,.004341,-.02462*
20,1,.006,.004341,-.02462,0.0,-.025,0.0*
1,1,.006,0.0,-.025*
20,1,.006,0.0,-.025,-.004341,-.02462,0.0*
1,1,.006,-.004341,-.02462*
20,1,.006,-.004341,-.02462,-.008551,-.023492,0.0*
1,1,.006,-.008551,-.023492*
20,1,.006,-.008551,-.023492,-.0125,-.021651,0.0*
1,1,.006,-.0125,-.021651*
20,1,.006,-.0125,-.021651,-.01607,-.019151,0.0*
1,1,.006,-.01607,-.019151*
20,1,.006,-.01607,-.019151,-.019151,-.01607,0.0*
1,1,.006,-.019151,-.01607*
20,1,.006,-.019151,-.01607,-.021651,-.0125,0.0*
1,1,.006,-.021651,-.0125*
20,1,.006,-.021651,-.0125,-.023492,-.008551,0.0*
1,1,.006,-.023492,-.008551*
20,1,.006,-.023492,-.008551,-.02462,-.004341,0.0*
1,1,.006,-.02462,-.004341*
20,1,.006,-.02462,-.004341,-.025,0.0,0.0*
1,1,.006,-.025,0.0*
20,1,.006,-.025,0.0,-.02462,.004341,0.0*
1,1,.006,-.02462,.004341*
20,1,.006,-.02462,.004341,-.023492,.008551,0.0*
1,1,.006,-.023492,.008551*
20,1,.006,-.023492,.008551,-.021651,.0125,0.0*
1,1,.006,-.021651,.0125*
20,1,.006,-.021651,.0125,-.019151,.01607,0.0*
1,1,.006,-.019151,.01607*
20,1,.006,-.019151,.01607,-.01607,.019151,0.0*
1,1,.006,-.01607,.019151*
20,1,.006,-.01607,.019151,-.0125,.021651,0.0*
1,1,.006,-.0125,.021651*
20,1,.006,-.0125,.021651,-.008551,.023492,0.0*
1,1,.006,-.008551,.023492*
20,1,.006,-.008551,.023492,-.004341,.02462,0.0*
1,1,.006,-.004341,.02462*
20,1,.006,-.004341,.02462,0.0,.025,0.0*
1,1,.006,0.0,.025*
20,1,.006,0.0,.025,.004341,.02462,0.0*
1,1,.006,.004341,.02462*
20,1,.006,.004341,.02462,.008551,.023492,0.0*
1,1,.006,.008551,.023492*
20,1,.006,.008551,.023492,.0125,.021651,0.0*
1,1,.006,.0125,.021651*
20,1,.006,.0125,.021651,.01607,.019151,0.0*
1,1,.006,.01607,.019151*
20,1,.006,.01607,.019151,.019151,.01607,0.0*
1,1,.006,.019151,.01607*
20,1,.006,.019151,.01607,.021651,.0125,0.0*
1,1,.006,.021651,.0125*
20,1,.006,.021651,.0125,.023492,.008551,0.0*
1,1,.006,.023492,.008551*
20,1,.006,.023492,.008551,.02462,.004341,0.0*
1,1,.006,.02462,.004341*
20,1,.006,.02462,.004341,.025,0.0,0.0*
1,1,.006,.025,0.0*
1,1,.006,.003333,.000834*
20,1,.006,.003333,.000834,.005,.002083,0.0*
1,1,.006,.005,.002083*
20,1,.006,.005,.002083,.00625,.004166,0.0*
1,1,.006,.00625,.004166*
20,1,.006,.00625,.004166,.007084,.007084,0.0*
1,1,.006,.007084,.007084*
20,1,.006,.007084,.007084,.00625,.009583,0.0*
1,1,.006,.00625,.009583*
20,1,.006,.00625,.009583,.004583,.01125,0.0*
1,1,.006,.004583,.01125*
20,1,.006,.004583,.01125,.001667,.0125,0.0*
1,1,.006,.001667,.0125*
20,1,.006,.001667,.0125,-.009583,.0125,0.0*
1,1,.006,-.009583,.0125*
20,1,.006,-.009583,.0125,-.009583,-.0125,0.0*
1,1,.006,-.009583,-.0125*
20,1,.006,-.009583,-.0125,.004167,-.0125,0.0*
1,1,.006,.004167,-.0125*
20,1,.006,.004167,-.0125,.007084,-.010834,0.0*
1,1,.006,.007084,-.010834*
20,1,.006,.007084,-.010834,.00875,-.008333,0.0*
1,1,.006,.00875,-.008333*
20,1,.006,.00875,-.008333,.009583,-.005417,0.0*
1,1,.006,.009583,-.005417*
20,1,.006,.009583,-.005417,.00875,-.002501,0.0*
1,1,.006,.00875,-.002501*
20,1,.006,.00875,-.002501,.00625,0.0,0.0*
1,1,.006,.00625,0.0*
20,1,.006,.00625,0.0,.003333,.000834,0.0*
1,1,.006,.003333,.000834*
20,1,.006,.003333,.000834,-.009583,.000834,0.0*
1,1,.006,-.009583,.000834*
%
%ADD12MACRO12*%
%AMMACRO10*
1,1,.006,.025,0.0*
20,1,.006,.025,0.0,.02462,-.004341,0.0*
1,1,.006,.02462,-.004341*
20,1,.006,.02462,-.004341,.023492,-.008551,0.0*
1,1,.006,.023492,-.008551*
20,1,.006,.023492,-.008551,.021651,-.0125,0.0*
1,1,.006,.021651,-.0125*
20,1,.006,.021651,-.0125,.019151,-.01607,0.0*
1,1,.006,.019151,-.01607*
20,1,.006,.019151,-.01607,.01607,-.019151,0.0*
1,1,.006,.01607,-.019151*
20,1,.006,.01607,-.019151,.0125,-.021651,0.0*
1,1,.006,.0125,-.021651*
20,1,.006,.0125,-.021651,.008551,-.023492,0.0*
1,1,.006,.008551,-.023492*
20,1,.006,.008551,-.023492,.004341,-.02462,0.0*
1,1,.006,.004341,-.02462*
20,1,.006,.004341,-.02462,0.0,-.025,0.0*
1,1,.006,0.0,-.025*
20,1,.006,0.0,-.025,-.004341,-.02462,0.0*
1,1,.006,-.004341,-.02462*
20,1,.006,-.004341,-.02462,-.008551,-.023492,0.0*
1,1,.006,-.008551,-.023492*
20,1,.006,-.008551,-.023492,-.0125,-.021651,0.0*
1,1,.006,-.0125,-.021651*
20,1,.006,-.0125,-.021651,-.01607,-.019151,0.0*
1,1,.006,-.01607,-.019151*
20,1,.006,-.01607,-.019151,-.019151,-.01607,0.0*
1,1,.006,-.019151,-.01607*
20,1,.006,-.019151,-.01607,-.021651,-.0125,0.0*
1,1,.006,-.021651,-.0125*
20,1,.006,-.021651,-.0125,-.023492,-.008551,0.0*
1,1,.006,-.023492,-.008551*
20,1,.006,-.023492,-.008551,-.02462,-.004341,0.0*
1,1,.006,-.02462,-.004341*
20,1,.006,-.02462,-.004341,-.025,0.0,0.0*
1,1,.006,-.025,0.0*
20,1,.006,-.025,0.0,-.02462,.004341,0.0*
1,1,.006,-.02462,.004341*
20,1,.006,-.02462,.004341,-.023492,.008551,0.0*
1,1,.006,-.023492,.008551*
20,1,.006,-.023492,.008551,-.021651,.0125,0.0*
1,1,.006,-.021651,.0125*
20,1,.006,-.021651,.0125,-.019151,.01607,0.0*
1,1,.006,-.019151,.01607*
20,1,.006,-.019151,.01607,-.01607,.019151,0.0*
1,1,.006,-.01607,.019151*
20,1,.006,-.01607,.019151,-.0125,.021651,0.0*
1,1,.006,-.0125,.021651*
20,1,.006,-.0125,.021651,-.008551,.023492,0.0*
1,1,.006,-.008551,.023492*
20,1,.006,-.008551,.023492,-.004341,.02462,0.0*
1,1,.006,-.004341,.02462*
20,1,.006,-.004341,.02462,0.0,.025,0.0*
1,1,.006,0.0,.025*
20,1,.006,0.0,.025,.004341,.02462,0.0*
1,1,.006,.004341,.02462*
20,1,.006,.004341,.02462,.008551,.023492,0.0*
1,1,.006,.008551,.023492*
20,1,.006,.008551,.023492,.0125,.021651,0.0*
1,1,.006,.0125,.021651*
20,1,.006,.0125,.021651,.01607,.019151,0.0*
1,1,.006,.01607,.019151*
20,1,.006,.01607,.019151,.019151,.01607,0.0*
1,1,.006,.019151,.01607*
20,1,.006,.019151,.01607,.021651,.0125,0.0*
1,1,.006,.021651,.0125*
20,1,.006,.021651,.0125,.023492,.008551,0.0*
1,1,.006,.023492,.008551*
20,1,.006,.023492,.008551,.02462,.004341,0.0*
1,1,.006,.02462,.004341*
20,1,.006,.02462,.004341,.025,0.0,0.0*
1,1,.006,.025,0.0*
1,1,.006,.009167,.010416*
20,1,.006,.009167,.010416,.006666,.011667,0.0*
1,1,.006,.006666,.011667*
20,1,.006,.006666,.011667,.00375,.0125,0.0*
1,1,.006,.00375,.0125*
20,1,.006,.00375,.0125,.000417,.0125,0.0*
1,1,.006,.000417,.0125*
20,1,.006,.000417,.0125,-.003334,.01125,0.0*
1,1,.006,-.003334,.01125*
20,1,.006,-.003334,.01125,-.00625,.009167,0.0*
1,1,.006,-.00625,.009167*
20,1,.006,-.00625,.009167,-.008333,.006666,0.0*
1,1,.006,-.008333,.006666*
20,1,.006,-.008333,.006666,-.010001,.0025,0.0*
1,1,.006,-.010001,.0025*
20,1,.006,-.010001,.0025,-.010417,-.00125,0.0*
1,1,.006,-.010417,-.00125*
20,1,.006,-.010417,-.00125,-.009583,-.005,0.0*
1,1,.006,-.009583,-.005*
20,1,.006,-.009583,-.005,-.008333,-.0075,0.0*
1,1,.006,-.008333,-.0075*
20,1,.006,-.008333,-.0075,-.005833,-.010001,0.0*
1,1,.006,-.005833,-.010001*
20,1,.006,-.005833,-.010001,-.002916,-.011667,0.0*
1,1,.006,-.002916,-.011667*
20,1,.006,-.002916,-.011667,0.0,-.0125,0.0*
1,1,.006,0.0,-.0125*
20,1,.006,0.0,-.0125,.002916,-.0125,0.0*
1,1,.006,.002916,-.0125*
20,1,.006,.002916,-.0125,.005833,-.011667,0.0*
1,1,.006,.005833,-.011667*
20,1,.006,.005833,-.011667,.008333,-.010417,0.0*
1,1,.006,.008333,-.010417*
20,1,.006,.008333,-.010417,.010417,-.008751,0.0*
1,1,.006,.010417,-.008751*
%
%ADD10MACRO10*%
%AMMACRO11*
1,1,.006,.025,0.0*
20,1,.006,.025,0.0,-.025,0.0,0.0*
1,1,.006,-.025,0.0*
1,1,.006,0.0,.025*
20,1,.006,0.0,.025,0.0,-.025,0.0*
1,1,.006,0.0,-.025*
1,1,.006,.003333,0.0*
20,1,.006,.003333,0.0,.003333,.025,0.0*
1,1,.006,.003333,.025*
20,1,.006,.003333,.025,.011666,.025,0.0*
1,1,.006,.011666,.025*
20,1,.006,.011666,.025,.015,.02375,0.0*
1,1,.006,.015,.02375*
20,1,.006,.015,.02375,.0175,.022083,0.0*
1,1,.006,.0175,.022083*
20,1,.006,.0175,.022083,.019584,.019584,0.0*
1,1,.006,.019584,.019584*
20,1,.006,.019584,.019584,.02125,.016666,0.0*
1,1,.006,.02125,.016666*
20,1,.006,.02125,.016666,.021667,.0125,0.0*
1,1,.006,.021667,.0125*
20,1,.006,.021667,.0125,.02125,.008333,0.0*
1,1,.006,.02125,.008333*
20,1,.006,.02125,.008333,.019584,.005416,0.0*
1,1,.006,.019584,.005416*
20,1,.006,.019584,.005416,.0175,.002916,0.0*
1,1,.006,.0175,.002916*
20,1,.006,.0175,.002916,.015,.00125,0.0*
1,1,.006,.015,.00125*
20,1,.006,.015,.00125,.011666,0.0,0.0*
1,1,.006,.011666,0.0*
20,1,.006,.011666,0.0,.003333,0.0,0.0*
1,1,.006,.003333,0.0*
%
%ADD11MACRO11*%
%ADD14C,.006*%
G75*
%LPD*%
G75*
G36*
G01X838000Y404080D02*
Y395540D01*
X840500D01*
Y212540D01*
X838000D01*
Y204000D01*
X853000D01*
Y212540D01*
X850500D01*
Y395540D01*
X853000D01*
Y404080D01*
X838000D01*
G37*
G36*
G01X818000Y204000D02*
Y212540D01*
X878000D01*
Y204000D01*
X818000D01*
G37*
G36*
G01Y395540D02*
Y404080D01*
X878000D01*
Y395540D01*
X818000D01*
G37*
G54D10*
X13268Y7744D03*
Y110366D03*
X23268Y7744D03*
X33268D03*
X43268D03*
X23268Y110366D03*
X33268D03*
X43268D03*
X53268Y7744D03*
X63268D03*
X73268D03*
X72100Y90700D03*
X62100D03*
X72100Y80700D03*
X62100D03*
X53268Y110366D03*
X63268D03*
X73268D03*
X83268Y7744D03*
X93268D03*
X103268D03*
X82100Y90700D03*
Y80700D03*
X83268Y110366D03*
X93268D03*
X103268D03*
X113268Y7744D03*
X123268D03*
X133268D03*
X113268Y110366D03*
X123268D03*
X133268D03*
X143268Y7744D03*
X153268D03*
X163268D03*
X143268Y110366D03*
X153268D03*
X163268D03*
X173268Y7744D03*
X183268D03*
X193268D03*
X173268Y110366D03*
X183268D03*
X193268D03*
X203268Y7744D03*
X204791Y44055D03*
Y54055D03*
Y64055D03*
Y74055D03*
X203268Y110366D03*
X544950Y-99500D03*
G54D11*
X20047Y51181D03*
Y66929D03*
X544950Y-124500D03*
G54D12*
X16000Y58000D03*
X19000Y77900D03*
X25000Y48000D03*
X28500Y69100D03*
X25300Y72600D03*
X31800D03*
X23000Y89800D03*
X42400Y80500D03*
Y76900D03*
X64700Y32800D03*
X55300Y85450D03*
X51100D03*
X53200Y81300D03*
X103700Y63300D03*
X89900Y65900D03*
X115050Y34850D03*
X114000Y44700D03*
X131124Y58624D03*
X116300Y71900D03*
X127900Y78200D03*
X143543Y53443D03*
X139600Y49600D03*
X142900Y88300D03*
X189800Y23550D03*
X204400Y30500D03*
X544950Y-74500D03*
G54D13*
X42895Y62870D03*
Y59130D03*
X45000Y95000D03*
X76700Y65550D03*
X83400Y28600D03*
X108250Y22750D03*
X105400Y28000D03*
X108161Y54668D03*
X82400Y100900D03*
X118600Y26700D03*
X115650Y61950D03*
X112325Y54668D03*
X118000Y55100D03*
X134800Y74000D03*
X130476Y85076D03*
X139800Y64900D03*
X140300Y70600D03*
X159449Y62200D03*
Y56200D03*
X139652Y75900D03*
X175000Y64000D03*
X168073Y69927D03*
X193800Y97600D03*
X202701Y19601D03*
X544950Y-49500D03*
G54D14*
G01X-123335Y293583D02*
X-121588Y292125D01*
X-119623Y291250D01*
X-117877D01*
X-116130Y292125D01*
X-114820Y293583D01*
X-114165Y295625D01*
X-114602Y297666D01*
X-115693Y299416D01*
X-117658Y300584D01*
X-120278Y301167D01*
X-121807Y302333D01*
X-122462Y304375D01*
X-122025Y306417D01*
X-120934Y307875D01*
X-119405Y308750D01*
X-117877D01*
X-116348Y308167D01*
X-115038Y306708D01*
G01X-103870Y308750D02*
X-98630D01*
G01X-101250D02*
Y291250D01*
G01X-103870D02*
X-98630D01*
G01X-88117Y308750D02*
Y291250D01*
X-79383D01*
G01X-71053D02*
Y308750D01*
G01X-62757D02*
X-71053Y297958D01*
G01X-61447Y291250D02*
X-67342Y302916D01*
G01X-53335Y293583D02*
X-51588Y292125D01*
X-49623Y291250D01*
X-47877D01*
X-46130Y292125D01*
X-44820Y293583D01*
X-44165Y295625D01*
X-44602Y297666D01*
X-45693Y299416D01*
X-47658Y300584D01*
X-50278Y301167D01*
X-51807Y302333D01*
X-52462Y304375D01*
X-52025Y306417D01*
X-50934Y307875D01*
X-49405Y308750D01*
X-47877D01*
X-46348Y308167D01*
X-45038Y306708D01*
G01X-26447Y307291D02*
X-27757Y308167D01*
X-29285Y308750D01*
X-31032D01*
X-32997Y307875D01*
X-34525Y306417D01*
X-35617Y304666D01*
X-36490Y301750D01*
X-36709Y299125D01*
X-36272Y296500D01*
X-35617Y294750D01*
X-34307Y293000D01*
X-32778Y291833D01*
X-31250Y291250D01*
X-29722D01*
X-28193Y291833D01*
X-26883Y292708D01*
X-25791Y293874D01*
G01X-18117Y291250D02*
Y308750D01*
X-12658D01*
X-10912Y307875D01*
X-9820Y306708D01*
X-9383Y304375D01*
X-9820Y302042D01*
X-11130Y300584D01*
X-12658Y299708D01*
X-18117D01*
G01X-12658D02*
X-9383Y291250D01*
G01X8117D02*
X-617D01*
Y308750D01*
X8117D01*
G01X4623Y300292D02*
X-617D01*
G01X25617Y291250D02*
X16883D01*
Y308750D01*
X25617D01*
G01X22123Y300292D02*
X16883D01*
G01X33728Y291250D02*
Y308750D01*
X43772Y291250D01*
Y308750D01*
G01X56250Y290667D02*
X55813Y290958D01*
Y291542D01*
X56250Y291833D01*
X56687Y291542D01*
Y290958D01*
X56250Y290667D01*
G01Y298541D02*
X55813Y298833D01*
Y299416D01*
X56250Y299708D01*
X56687Y299416D01*
Y298833D01*
X56250Y298541D01*
G01X84700Y308750D02*
X87756Y291250D01*
X91250Y308750D01*
X94743Y291250D01*
X97800Y308750D01*
G01X104165Y291250D02*
Y308750D01*
G01X113335D02*
Y291250D01*
G01Y300000D02*
X104165D01*
G01X123630Y308750D02*
X128870D01*
G01X126250D02*
Y291250D01*
G01X123630D02*
X128870D01*
G01X143750Y308750D02*
Y291250D01*
G01X138728Y308750D02*
X148772D01*
G01X165617Y291250D02*
X156883D01*
Y308750D01*
X165617D01*
G01X162123Y300292D02*
X156883D01*
G01X-122085Y343583D02*
X-120338Y342125D01*
X-118373Y341250D01*
X-116627D01*
X-114880Y342125D01*
X-113570Y343583D01*
X-112915Y345625D01*
X-113352Y347666D01*
X-114443Y349416D01*
X-116408Y350584D01*
X-119028Y351167D01*
X-120557Y352333D01*
X-121212Y354375D01*
X-120775Y356417D01*
X-119684Y357875D01*
X-118155Y358750D01*
X-116627D01*
X-115098Y358167D01*
X-113788Y356708D01*
G01X-100000Y341250D02*
X-101747Y341542D01*
X-103275Y342708D01*
X-104585Y344458D01*
X-105459Y346500D01*
X-105895Y348833D01*
Y351167D01*
X-105459Y353500D01*
X-104585Y355542D01*
X-103275Y357291D01*
X-101747Y358458D01*
X-100000Y358750D01*
X-98254Y358458D01*
X-96725Y357291D01*
X-95415Y355542D01*
X-94541Y353500D01*
X-94105Y351167D01*
Y348833D01*
X-94541Y346500D01*
X-95415Y344458D01*
X-96725Y342708D01*
X-98254Y341542D01*
X-100000Y341250D01*
G01X-86867Y358750D02*
Y341250D01*
X-78133D01*
G01X-69803D02*
Y358750D01*
X-65437D01*
X-63690Y357875D01*
X-62380Y356708D01*
X-61288Y354959D01*
X-60415Y352916D01*
X-60197Y350000D01*
X-60415Y347083D01*
X-61288Y345041D01*
X-62380Y343291D01*
X-63690Y342125D01*
X-65437Y341250D01*
X-69803D01*
G01X-43133D02*
X-51867D01*
Y358750D01*
X-43133D01*
G01X-46627Y350292D02*
X-51867D01*
G01X-34367Y341250D02*
Y358750D01*
X-28908D01*
X-27162Y357875D01*
X-26070Y356708D01*
X-25633Y354375D01*
X-26070Y352042D01*
X-27380Y350584D01*
X-28908Y349708D01*
X-34367D01*
G01X-28908D02*
X-25633Y341250D01*
G01X-677D02*
Y358750D01*
X5000Y344167D01*
X10677Y358750D01*
Y341250D01*
G01X17041D02*
X22500Y358750D01*
X27959Y341250D01*
G01X25993Y347375D02*
X19006D01*
G01X35415Y343583D02*
X37162Y342125D01*
X39127Y341250D01*
X40873D01*
X42620Y342125D01*
X43930Y343583D01*
X44585Y345625D01*
X44148Y347666D01*
X43057Y349416D01*
X41092Y350584D01*
X38472Y351167D01*
X36943Y352333D01*
X36288Y354375D01*
X36725Y356417D01*
X37816Y357875D01*
X39345Y358750D01*
X40873D01*
X42402Y358167D01*
X43712Y356708D01*
G01X52697Y341250D02*
Y358750D01*
G01X60993D02*
X52697Y347958D01*
G01X62303Y341250D02*
X56408Y352916D01*
G01X75000Y340667D02*
X74563Y340958D01*
Y341542D01*
X75000Y341833D01*
X75437Y341542D01*
Y340958D01*
X75000Y340667D01*
G01Y348541D02*
X74563Y348833D01*
Y349416D01*
X75000Y349708D01*
X75437Y349416D01*
Y348833D01*
X75000Y348541D01*
G01X111310Y350000D02*
X115677D01*
Y344750D01*
X114367Y343000D01*
X112838Y341833D01*
X110655Y341250D01*
X108472Y341833D01*
X106943Y343000D01*
X105633Y344750D01*
X104760Y346792D01*
X104323Y349125D01*
Y351167D01*
X104760Y352916D01*
X105633Y354959D01*
X106943Y356708D01*
X108253Y357875D01*
X110000Y358750D01*
X111528D01*
X113275Y358167D01*
X114585Y357000D01*
G01X123133Y341250D02*
Y358750D01*
X128592D01*
X130338Y357875D01*
X131430Y356708D01*
X131867Y354375D01*
X131430Y352042D01*
X130120Y350584D01*
X128592Y349708D01*
X123133D01*
G01X128592D02*
X131867Y341250D01*
G01X149367D02*
X140633D01*
Y358750D01*
X149367D01*
G01X145873Y350292D02*
X140633D01*
G01X166867Y341250D02*
X158133D01*
Y358750D01*
X166867D01*
G01X163373Y350292D02*
X158133D01*
G01X174978Y341250D02*
Y358750D01*
X185022Y341250D01*
Y358750D01*
G01X-120000Y408750D02*
Y391250D01*
G01X-125022Y408750D02*
X-114978D01*
G01X-107085Y391250D02*
Y408750D01*
G01X-97915D02*
Y391250D01*
G01Y400000D02*
X-107085D01*
G01X-87620Y408750D02*
X-82380D01*
G01X-85000D02*
Y391250D01*
G01X-87620D02*
X-82380D01*
G01X-62697Y407291D02*
X-64007Y408167D01*
X-65535Y408750D01*
X-67282D01*
X-69247Y407875D01*
X-70775Y406417D01*
X-71867Y404666D01*
X-72740Y401750D01*
X-72959Y399125D01*
X-72522Y396500D01*
X-71867Y394750D01*
X-70557Y393000D01*
X-69028Y391833D01*
X-67500Y391250D01*
X-65972D01*
X-64443Y391833D01*
X-63133Y392708D01*
X-62041Y393874D01*
G01X-54803Y391250D02*
Y408750D01*
G01X-46507D02*
X-54803Y397958D01*
G01X-45197Y391250D02*
X-51092Y402916D01*
G01X-37522Y391250D02*
Y408750D01*
X-27478Y391250D01*
Y408750D01*
G01X-10633Y391250D02*
X-19367D01*
Y408750D01*
X-10633D01*
G01X-14127Y400292D02*
X-19367D01*
G01X-2085Y393583D02*
X-338Y392125D01*
X1627Y391250D01*
X3373D01*
X5120Y392125D01*
X6430Y393583D01*
X7085Y395625D01*
X6648Y397666D01*
X5557Y399416D01*
X3592Y400584D01*
X972Y401167D01*
X-557Y402333D01*
X-1212Y404375D01*
X-775Y406417D01*
X316Y407875D01*
X1845Y408750D01*
X3373D01*
X4902Y408167D01*
X6212Y406708D01*
G01X15415Y393583D02*
X17162Y392125D01*
X19127Y391250D01*
X20873D01*
X22620Y392125D01*
X23930Y393583D01*
X24585Y395625D01*
X24148Y397666D01*
X23057Y399416D01*
X21092Y400584D01*
X18472Y401167D01*
X16943Y402333D01*
X16288Y404375D01*
X16725Y406417D01*
X17816Y407875D01*
X19345Y408750D01*
X20873D01*
X22402Y408167D01*
X23712Y406708D01*
G01X37500Y390667D02*
X37063Y390958D01*
Y391542D01*
X37500Y391833D01*
X37937Y391542D01*
Y390958D01*
X37500Y390667D01*
G01Y398541D02*
X37063Y398833D01*
Y399416D01*
X37500Y399708D01*
X37937Y399416D01*
Y398833D01*
X37500Y398541D01*
G01X67915Y393583D02*
X69662Y392125D01*
X71627Y391250D01*
X73373D01*
X75120Y392125D01*
X76430Y393583D01*
X77085Y395625D01*
X76648Y397666D01*
X75557Y399416D01*
X73592Y400584D01*
X70972Y401167D01*
X69443Y402333D01*
X68788Y404375D01*
X69225Y406417D01*
X70316Y407875D01*
X71845Y408750D01*
X73373D01*
X74902Y408167D01*
X76212Y406708D01*
G01X94367Y391250D02*
X85633D01*
Y408750D01*
X94367D01*
G01X90873Y400292D02*
X85633D01*
G01X111867Y391250D02*
X103133D01*
Y408750D01*
X111867D01*
G01X108373Y400292D02*
X103133D01*
G01X137697Y391250D02*
Y408750D01*
X142063D01*
X143810Y407875D01*
X145120Y406708D01*
X146212Y404959D01*
X147085Y402916D01*
X147303Y400000D01*
X147085Y397083D01*
X146212Y395041D01*
X145120Y393291D01*
X143810Y392125D01*
X142063Y391250D01*
X137697D01*
G01X154541D02*
X160000Y408750D01*
X165459Y391250D01*
G01X163493Y397375D02*
X156506D01*
G01X177500Y408750D02*
Y391250D01*
G01X172478Y408750D02*
X182522D01*
G01X189541Y391250D02*
X195000Y408750D01*
X200459Y391250D01*
G01X198493Y397375D02*
X191506D01*
G01X209880Y408750D02*
X215120D01*
G01X212500D02*
Y391250D01*
G01X209880D02*
X215120D01*
G01X225633Y408750D02*
Y391250D01*
X234367D01*
G01X259541D02*
X265000Y408750D01*
X270459Y391250D01*
G01X268493Y397375D02*
X261506D01*
G01X-115617Y461667D02*
Y444167D01*
X-106883D01*
G01X-99209D02*
X-93750Y461667D01*
X-88291Y444167D01*
G01X-90257Y450292D02*
X-97244D01*
G01X-76250Y444167D02*
Y452042D01*
X-80617Y461667D01*
G01X-71883D02*
X-76250Y452042D01*
G01X-54383Y444167D02*
X-63117D01*
Y461667D01*
X-54383D01*
G01X-57877Y453209D02*
X-63117D01*
G01X-45617Y444167D02*
Y461667D01*
X-40158D01*
X-38412Y460791D01*
X-37320Y459625D01*
X-36883Y457292D01*
X-37320Y454958D01*
X-38630Y453500D01*
X-40158Y452625D01*
X-45617D01*
G01X-40158D02*
X-36883Y444167D01*
G01X-23750Y443584D02*
X-24187Y443875D01*
Y444458D01*
X-23750Y444750D01*
X-23313Y444458D01*
Y443875D01*
X-23750Y443584D01*
G01Y451458D02*
X-24187Y451750D01*
Y452333D01*
X-23750Y452625D01*
X-23313Y452333D01*
Y451750D01*
X-23750Y451458D01*
G01X7102Y458750D02*
X8412Y460500D01*
X9940Y461375D01*
X11687Y461667D01*
X13870Y461084D01*
X15398Y459625D01*
X15835Y457875D01*
X15617Y456125D01*
X14743Y454667D01*
X10377Y451750D01*
X8412Y449708D01*
X7102Y446791D01*
X6665Y444167D01*
X15835D01*
G01X51447Y503584D02*
X61053Y516417D01*
G01X56250Y518750D02*
Y501250D01*
G01X61053Y503584D02*
X51447Y516417D01*
G01X49700Y510000D02*
X62800D01*
G01X68947Y503584D02*
X78553Y516417D01*
G01X73750Y518750D02*
Y501250D01*
G01X78553Y503584D02*
X68947Y516417D01*
G01X67200Y510000D02*
X80300D01*
G01X86447Y503584D02*
X96053Y516417D01*
G01X91250Y518750D02*
Y501250D01*
G01X96053Y503584D02*
X86447Y516417D01*
G01X84700Y510000D02*
X97800D01*
G01X103947Y503584D02*
X113553Y516417D01*
G01X108750Y518750D02*
Y501250D01*
G01X113553Y503584D02*
X103947Y516417D01*
G01X102200Y510000D02*
X115300D01*
G01X121447Y503584D02*
X131053Y516417D01*
G01X126250Y518750D02*
Y501250D01*
G01X131053Y503584D02*
X121447Y516417D01*
G01X119700Y510000D02*
X132800D01*
G01X138728Y504167D02*
Y521667D01*
X148772Y504167D01*
Y521667D01*
G01X161250Y504167D02*
X159503Y504458D01*
X157975Y505625D01*
X156665Y507375D01*
X155791Y509417D01*
X155355Y511750D01*
Y514083D01*
X155791Y516417D01*
X156665Y518458D01*
X157975Y520208D01*
X159503Y521375D01*
X161250Y521667D01*
X162996Y521375D01*
X164525Y520208D01*
X165835Y518458D01*
X166709Y516417D01*
X167145Y514083D01*
Y511750D01*
X166709Y509417D01*
X165835Y507375D01*
X164525Y505625D01*
X162996Y504458D01*
X161250Y504167D01*
G01X178750Y521667D02*
Y504167D01*
G01X173728Y521667D02*
X183772D01*
G01X200617Y504167D02*
X191883D01*
Y521667D01*
X200617D01*
G01X197123Y513209D02*
X191883D01*
G01X208947Y503584D02*
X218553Y516417D01*
G01X213750Y518750D02*
Y501250D01*
G01X218553Y503584D02*
X208947Y516417D01*
G01X207200Y510000D02*
X220300D01*
G01X226447Y503584D02*
X236053Y516417D01*
G01X231250Y518750D02*
Y501250D01*
G01X236053Y503584D02*
X226447Y516417D01*
G01X224700Y510000D02*
X237800D01*
G01X243947Y503584D02*
X253553Y516417D01*
G01X248750Y518750D02*
Y501250D01*
G01X253553Y503584D02*
X243947Y516417D01*
G01X242200Y510000D02*
X255300D01*
G01X261447Y503584D02*
X271053Y516417D01*
G01X266250Y518750D02*
Y501250D01*
G01X271053Y503584D02*
X261447Y516417D01*
G01X259700Y510000D02*
X272800D01*
G01X278947Y503584D02*
X288553Y516417D01*
G01X283750Y518750D02*
Y501250D01*
G01X288553Y503584D02*
X278947Y516417D01*
G01X277200Y510000D02*
X290300D01*
G01X556597Y-358800D02*
Y-353800D01*
X559003D01*
G01X558117Y-356217D02*
X556597D01*
G01X561633Y-358800D02*
Y-353800D01*
X563217D01*
X563723Y-354050D01*
X564040Y-354383D01*
X564167Y-355050D01*
X564040Y-355717D01*
X563660Y-356133D01*
X563217Y-356383D01*
X561633D01*
G01X563217D02*
X564167Y-358800D01*
G01X566417D02*
X568000Y-353800D01*
X569583Y-358800D01*
G01X569013Y-357050D02*
X566987D01*
G01X574493Y-354217D02*
X574113Y-353967D01*
X573670Y-353800D01*
X573163D01*
X572593Y-354050D01*
X572150Y-354467D01*
X571833Y-354967D01*
X571580Y-355800D01*
X571517Y-356550D01*
X571643Y-357300D01*
X571833Y-357800D01*
X572213Y-358300D01*
X572657Y-358633D01*
X573100Y-358800D01*
X573543D01*
X573987Y-358633D01*
X574367Y-358383D01*
X574683Y-358050D01*
G01X578200Y-353800D02*
Y-358800D01*
G01X576743Y-353800D02*
X579657D01*
G01X582540D02*
X584060D01*
G01X583300D02*
Y-358800D01*
G01X582540D02*
X584060D01*
G01X588400D02*
X587893Y-358717D01*
X587450Y-358383D01*
X587070Y-357883D01*
X586817Y-357300D01*
X586690Y-356633D01*
Y-355967D01*
X586817Y-355300D01*
X587070Y-354717D01*
X587450Y-354217D01*
X587893Y-353883D01*
X588400Y-353800D01*
X588907Y-353883D01*
X589350Y-354217D01*
X589730Y-354717D01*
X589983Y-355300D01*
X590110Y-355967D01*
Y-356633D01*
X589983Y-357300D01*
X589730Y-357883D01*
X589350Y-358383D01*
X588907Y-358717D01*
X588400Y-358800D01*
G01X592043D02*
Y-353800D01*
X594957Y-358800D01*
Y-353800D01*
G01X597270Y-358134D02*
X597777Y-358550D01*
X598347Y-358800D01*
X598853D01*
X599360Y-358550D01*
X599740Y-358134D01*
X599930Y-357550D01*
X599803Y-356967D01*
X599487Y-356467D01*
X598917Y-356133D01*
X598157Y-355967D01*
X597713Y-355633D01*
X597523Y-355050D01*
X597650Y-354467D01*
X597967Y-354050D01*
X598410Y-353800D01*
X598853D01*
X599297Y-353967D01*
X599677Y-354383D01*
G01X608103Y-357133D02*
X609623D01*
G01X608800Y-356050D02*
Y-358217D01*
G01X556217Y-343800D02*
X557800Y-338800D01*
X559383Y-343800D01*
G01X558813Y-342050D02*
X556787D01*
G01X561443Y-343800D02*
Y-338800D01*
X564357Y-343800D01*
Y-338800D01*
G01X568380Y-341300D02*
X569647D01*
Y-342800D01*
X569267Y-343300D01*
X568823Y-343633D01*
X568190Y-343800D01*
X567557Y-343633D01*
X567113Y-343300D01*
X566733Y-342800D01*
X566480Y-342217D01*
X566353Y-341550D01*
Y-340967D01*
X566480Y-340467D01*
X566733Y-339883D01*
X567113Y-339383D01*
X567493Y-339050D01*
X568000Y-338800D01*
X568443D01*
X568950Y-338967D01*
X569330Y-339300D01*
G01X571833Y-338800D02*
Y-343800D01*
X574367D01*
G01X579467D02*
X576933D01*
Y-338800D01*
X579467D01*
G01X578453Y-341217D02*
X576933D01*
G01X581970Y-343134D02*
X582477Y-343550D01*
X583047Y-343800D01*
X583553D01*
X584060Y-343550D01*
X584440Y-343134D01*
X584630Y-342550D01*
X584503Y-341967D01*
X584187Y-341467D01*
X583617Y-341133D01*
X582857Y-340967D01*
X582413Y-340633D01*
X582223Y-340050D01*
X582350Y-339467D01*
X582667Y-339050D01*
X583110Y-338800D01*
X583553D01*
X583997Y-338967D01*
X584377Y-339383D01*
G01X592803Y-342133D02*
X594323D01*
G01X593500Y-341050D02*
Y-343217D01*
G01X556407Y-327800D02*
X556787Y-328383D01*
X557293Y-328717D01*
X557863Y-328800D01*
X558370Y-328717D01*
X558877Y-328300D01*
X559193Y-327800D01*
X559257Y-327300D01*
X559130Y-326717D01*
X558687Y-326300D01*
X558243Y-326133D01*
X557673D01*
G01X558243D02*
X558623Y-325883D01*
X558940Y-325467D01*
X559067Y-324967D01*
X558940Y-324467D01*
X558623Y-324050D01*
X558053Y-323800D01*
X557483Y-323883D01*
X556913Y-324217D01*
G01X566733Y-328800D02*
Y-323800D01*
X568253D01*
X568760Y-324050D01*
X569140Y-324633D01*
X569267Y-325300D01*
X569140Y-325967D01*
X568823Y-326467D01*
X568253Y-326717D01*
X566733D01*
G01X571833Y-323800D02*
Y-328800D01*
X574367D01*
G01X581907D02*
Y-323800D01*
X583173D01*
X583680Y-324050D01*
X584060Y-324383D01*
X584377Y-324883D01*
X584630Y-325467D01*
X584693Y-326300D01*
X584630Y-327133D01*
X584377Y-327717D01*
X584060Y-328217D01*
X583680Y-328550D01*
X583173Y-328800D01*
X581907D01*
G01X589667D02*
X587133D01*
Y-323800D01*
X589667D01*
G01X588653Y-326217D02*
X587133D01*
G01X594893Y-324217D02*
X594513Y-323967D01*
X594070Y-323800D01*
X593563D01*
X592993Y-324050D01*
X592550Y-324467D01*
X592233Y-324967D01*
X591980Y-325800D01*
X591917Y-326550D01*
X592043Y-327300D01*
X592233Y-327800D01*
X592613Y-328300D01*
X593057Y-328633D01*
X593500Y-328800D01*
X593943D01*
X594387Y-328633D01*
X594767Y-328383D01*
X595083Y-328050D01*
G01X597840Y-323800D02*
X599360D01*
G01X598600D02*
Y-328800D01*
G01X597840D02*
X599360D01*
G01X602053D02*
Y-323800D01*
X603700Y-327967D01*
X605347Y-323800D01*
Y-328800D01*
G01X607217D02*
X608800Y-323800D01*
X610383Y-328800D01*
G01X609813Y-327050D02*
X607787D01*
G01X612633Y-323800D02*
Y-328800D01*
X615167D01*
G01X617670Y-328134D02*
X618177Y-328550D01*
X618747Y-328800D01*
X619253D01*
X619760Y-328550D01*
X620140Y-328134D01*
X620330Y-327550D01*
X620203Y-326967D01*
X619887Y-326467D01*
X619317Y-326133D01*
X618557Y-325967D01*
X618113Y-325633D01*
X617923Y-325050D01*
X618050Y-324467D01*
X618367Y-324050D01*
X618810Y-323800D01*
X619253D01*
X619697Y-323967D01*
X620077Y-324383D01*
G01X628503Y-327133D02*
X630023D01*
G01X629200Y-326050D02*
Y-328217D01*
G01X556597Y-309633D02*
X556977Y-309133D01*
X557420Y-308883D01*
X557927Y-308800D01*
X558560Y-308967D01*
X559003Y-309383D01*
X559130Y-309883D01*
X559067Y-310384D01*
X558813Y-310800D01*
X557547Y-311633D01*
X556977Y-312217D01*
X556597Y-313050D01*
X556470Y-313800D01*
X559130D01*
G01X566733D02*
Y-308800D01*
X568253D01*
X568760Y-309050D01*
X569140Y-309633D01*
X569267Y-310300D01*
X569140Y-310967D01*
X568823Y-311467D01*
X568253Y-311717D01*
X566733D01*
G01X571833Y-308800D02*
Y-313800D01*
X574367D01*
G01X581907D02*
Y-308800D01*
X583173D01*
X583680Y-309050D01*
X584060Y-309383D01*
X584377Y-309883D01*
X584630Y-310467D01*
X584693Y-311300D01*
X584630Y-312133D01*
X584377Y-312717D01*
X584060Y-313217D01*
X583680Y-313550D01*
X583173Y-313800D01*
X581907D01*
G01X589667D02*
X587133D01*
Y-308800D01*
X589667D01*
G01X588653Y-311217D02*
X587133D01*
G01X594893Y-309217D02*
X594513Y-308967D01*
X594070Y-308800D01*
X593563D01*
X592993Y-309050D01*
X592550Y-309467D01*
X592233Y-309967D01*
X591980Y-310800D01*
X591917Y-311550D01*
X592043Y-312300D01*
X592233Y-312800D01*
X592613Y-313300D01*
X593057Y-313633D01*
X593500Y-313800D01*
X593943D01*
X594387Y-313633D01*
X594767Y-313383D01*
X595083Y-313050D01*
G01X597840Y-308800D02*
X599360D01*
G01X598600D02*
Y-313800D01*
G01X597840D02*
X599360D01*
G01X602053D02*
Y-308800D01*
X603700Y-312967D01*
X605347Y-308800D01*
Y-313800D01*
G01X607217D02*
X608800Y-308800D01*
X610383Y-313800D01*
G01X609813Y-312050D02*
X607787D01*
G01X612633Y-308800D02*
Y-313800D01*
X615167D01*
G01X617670Y-313134D02*
X618177Y-313550D01*
X618747Y-313800D01*
X619253D01*
X619760Y-313550D01*
X620140Y-313134D01*
X620330Y-312550D01*
X620203Y-311967D01*
X619887Y-311467D01*
X619317Y-311133D01*
X618557Y-310967D01*
X618113Y-310633D01*
X617923Y-310050D01*
X618050Y-309467D01*
X618367Y-309050D01*
X618810Y-308800D01*
X619253D01*
X619697Y-308967D01*
X620077Y-309383D01*
G01X628503Y-312133D02*
X630023D01*
G01X629200Y-311050D02*
Y-313217D01*
G01X557800Y-293800D02*
Y-298800D01*
G01X556343Y-293800D02*
X559257D01*
G01X562900Y-298800D02*
X562393Y-298717D01*
X561950Y-298383D01*
X561570Y-297883D01*
X561317Y-297300D01*
X561190Y-296633D01*
Y-295967D01*
X561317Y-295300D01*
X561570Y-294717D01*
X561950Y-294217D01*
X562393Y-293883D01*
X562900Y-293800D01*
X563407Y-293883D01*
X563850Y-294217D01*
X564230Y-294717D01*
X564483Y-295300D01*
X564610Y-295967D01*
Y-296633D01*
X564483Y-297300D01*
X564230Y-297883D01*
X563850Y-298383D01*
X563407Y-298717D01*
X562900Y-298800D01*
G01X566733Y-293800D02*
Y-298800D01*
X569267D01*
G01X574367D02*
X571833D01*
Y-293800D01*
X574367D01*
G01X573353Y-296217D02*
X571833D01*
G01X576933Y-298800D02*
Y-293800D01*
X578517D01*
X579023Y-294050D01*
X579340Y-294383D01*
X579467Y-295050D01*
X579340Y-295717D01*
X578960Y-296133D01*
X578517Y-296383D01*
X576933D01*
G01X578517D02*
X579467Y-298800D01*
G01X581717D02*
X583300Y-293800D01*
X584883Y-298800D01*
G01X584313Y-297050D02*
X582287D01*
G01X586943Y-298800D02*
Y-293800D01*
X589857Y-298800D01*
Y-293800D01*
G01X594893Y-294217D02*
X594513Y-293967D01*
X594070Y-293800D01*
X593563D01*
X592993Y-294050D01*
X592550Y-294467D01*
X592233Y-294967D01*
X591980Y-295800D01*
X591917Y-296550D01*
X592043Y-297300D01*
X592233Y-297800D01*
X592613Y-298300D01*
X593057Y-298633D01*
X593500Y-298800D01*
X593943D01*
X594387Y-298633D01*
X594767Y-298383D01*
X595083Y-298050D01*
G01X599867Y-298800D02*
X597333D01*
Y-293800D01*
X599867D01*
G01X598853Y-296217D02*
X597333D01*
G01X602370Y-298134D02*
X602877Y-298550D01*
X603447Y-298800D01*
X603953D01*
X604460Y-298550D01*
X604840Y-298134D01*
X605030Y-297550D01*
X604903Y-296967D01*
X604587Y-296467D01*
X604017Y-296133D01*
X603257Y-295967D01*
X602813Y-295633D01*
X602623Y-295050D01*
X602750Y-294467D01*
X603067Y-294050D01*
X603510Y-293800D01*
X603953D01*
X604397Y-293967D01*
X604777Y-294383D01*
G01X613900Y-298800D02*
X613393Y-298717D01*
X612950Y-298383D01*
X612570Y-297883D01*
X612317Y-297300D01*
X612190Y-296633D01*
Y-295967D01*
X612317Y-295300D01*
X612570Y-294717D01*
X612950Y-294217D01*
X613393Y-293883D01*
X613900Y-293800D01*
X614407Y-293883D01*
X614850Y-294217D01*
X615230Y-294717D01*
X615483Y-295300D01*
X615610Y-295967D01*
Y-296633D01*
X615483Y-297300D01*
X615230Y-297883D01*
X614850Y-298383D01*
X614407Y-298717D01*
X613900Y-298800D01*
G01X617543D02*
Y-293800D01*
X620457Y-298800D01*
Y-293800D01*
G01X624100Y-298967D02*
X623973Y-298883D01*
Y-298717D01*
X624100Y-298633D01*
X624227Y-298717D01*
Y-298883D01*
X624100Y-298967D01*
G01Y-296717D02*
X623973Y-296633D01*
Y-296467D01*
X624100Y-296383D01*
X624227Y-296467D01*
Y-296633D01*
X624100Y-296717D01*
G01X556407Y-281300D02*
Y-276300D01*
X557673D01*
X558180Y-276550D01*
X558560Y-276883D01*
X558877Y-277383D01*
X559130Y-277967D01*
X559193Y-278800D01*
X559130Y-279633D01*
X558877Y-280217D01*
X558560Y-280717D01*
X558180Y-281050D01*
X557673Y-281300D01*
X556407D01*
G01X562140Y-276300D02*
X563660D01*
G01X562900D02*
Y-281300D01*
G01X562140D02*
X563660D01*
G01X566353D02*
Y-276300D01*
X568000Y-280467D01*
X569647Y-276300D01*
Y-281300D01*
G01X574367D02*
X571833D01*
Y-276300D01*
X574367D01*
G01X573353Y-278717D02*
X571833D01*
G01X576743Y-281300D02*
Y-276300D01*
X579657Y-281300D01*
Y-276300D01*
G01X581970Y-280634D02*
X582477Y-281050D01*
X583047Y-281300D01*
X583553D01*
X584060Y-281050D01*
X584440Y-280634D01*
X584630Y-280050D01*
X584503Y-279467D01*
X584187Y-278967D01*
X583617Y-278633D01*
X582857Y-278467D01*
X582413Y-278133D01*
X582223Y-277550D01*
X582350Y-276967D01*
X582667Y-276550D01*
X583110Y-276300D01*
X583553D01*
X583997Y-276467D01*
X584377Y-276883D01*
G01X587640Y-276300D02*
X589160D01*
G01X588400D02*
Y-281300D01*
G01X587640D02*
X589160D01*
G01X593500D02*
X592993Y-281217D01*
X592550Y-280883D01*
X592170Y-280383D01*
X591917Y-279800D01*
X591790Y-279133D01*
Y-278467D01*
X591917Y-277800D01*
X592170Y-277217D01*
X592550Y-276717D01*
X592993Y-276383D01*
X593500Y-276300D01*
X594007Y-276383D01*
X594450Y-276717D01*
X594830Y-277217D01*
X595083Y-277800D01*
X595210Y-278467D01*
Y-279133D01*
X595083Y-279800D01*
X594830Y-280383D01*
X594450Y-280883D01*
X594007Y-281217D01*
X593500Y-281300D01*
G01X597143D02*
Y-276300D01*
X600057Y-281300D01*
Y-276300D01*
G01X602370Y-280634D02*
X602877Y-281050D01*
X603447Y-281300D01*
X603953D01*
X604460Y-281050D01*
X604840Y-280634D01*
X605030Y-280050D01*
X604903Y-279467D01*
X604587Y-278967D01*
X604017Y-278633D01*
X603257Y-278467D01*
X602813Y-278133D01*
X602623Y-277550D01*
X602750Y-276967D01*
X603067Y-276550D01*
X603510Y-276300D01*
X603953D01*
X604397Y-276467D01*
X604777Y-276883D01*
G01X612317Y-281300D02*
X613900Y-276300D01*
X615483Y-281300D01*
G01X614913Y-279550D02*
X612887D01*
G01X617733Y-281300D02*
Y-276300D01*
X619317D01*
X619823Y-276550D01*
X620140Y-276883D01*
X620267Y-277550D01*
X620140Y-278217D01*
X619760Y-278633D01*
X619317Y-278883D01*
X617733D01*
G01X619317D02*
X620267Y-281300D01*
G01X625367D02*
X622833D01*
Y-276300D01*
X625367D01*
G01X624353Y-278717D02*
X622833D01*
G01X633540Y-276300D02*
X635060D01*
G01X634300D02*
Y-281300D01*
G01X633540D02*
X635060D01*
G01X637943D02*
Y-276300D01*
X640857Y-281300D01*
Y-276300D01*
G01X648840D02*
X650360D01*
G01X649600D02*
Y-281300D01*
G01X648840D02*
X650360D01*
G01X653243D02*
Y-276300D01*
X656157Y-281300D01*
Y-276300D01*
G01X661193Y-276717D02*
X660813Y-276467D01*
X660370Y-276300D01*
X659863D01*
X659293Y-276550D01*
X658850Y-276967D01*
X658533Y-277467D01*
X658280Y-278300D01*
X658217Y-279050D01*
X658343Y-279800D01*
X658533Y-280300D01*
X658913Y-280800D01*
X659357Y-281133D01*
X659800Y-281300D01*
X660243D01*
X660687Y-281133D01*
X661067Y-280883D01*
X661383Y-280550D01*
G01X663570Y-281300D02*
Y-276300D01*
G01X666230D02*
Y-281300D01*
G01Y-278800D02*
X663570D01*
G01X671267Y-281300D02*
X668733D01*
Y-276300D01*
X671267D01*
G01X670253Y-278717D02*
X668733D01*
G01X673770Y-280634D02*
X674277Y-281050D01*
X674847Y-281300D01*
X675353D01*
X675860Y-281050D01*
X676240Y-280634D01*
X676430Y-280050D01*
X676303Y-279467D01*
X675987Y-278967D01*
X675417Y-278633D01*
X674657Y-278467D01*
X674213Y-278133D01*
X674023Y-277550D01*
X674150Y-276967D01*
X674467Y-276550D01*
X674910Y-276300D01*
X675353D01*
X675797Y-276467D01*
X676177Y-276883D01*
G01X556407Y-248800D02*
Y-252383D01*
X556660Y-253134D01*
X557167Y-253633D01*
X557800Y-253800D01*
X558433Y-253633D01*
X558940Y-253134D01*
X559193Y-252383D01*
Y-248800D01*
G01X561443Y-253800D02*
Y-248800D01*
X564357Y-253800D01*
Y-248800D01*
G01X566733D02*
Y-253800D01*
X569267D01*
G01X574367D02*
X571833D01*
Y-248800D01*
X574367D01*
G01X573353Y-251217D02*
X571833D01*
G01X576870Y-253134D02*
X577377Y-253550D01*
X577947Y-253800D01*
X578453D01*
X578960Y-253550D01*
X579340Y-253134D01*
X579530Y-252550D01*
X579403Y-251967D01*
X579087Y-251467D01*
X578517Y-251133D01*
X577757Y-250967D01*
X577313Y-250633D01*
X577123Y-250050D01*
X577250Y-249467D01*
X577567Y-249050D01*
X578010Y-248800D01*
X578453D01*
X578897Y-248967D01*
X579277Y-249383D01*
G01X581970Y-253134D02*
X582477Y-253550D01*
X583047Y-253800D01*
X583553D01*
X584060Y-253550D01*
X584440Y-253134D01*
X584630Y-252550D01*
X584503Y-251967D01*
X584187Y-251467D01*
X583617Y-251133D01*
X582857Y-250967D01*
X582413Y-250633D01*
X582223Y-250050D01*
X582350Y-249467D01*
X582667Y-249050D01*
X583110Y-248800D01*
X583553D01*
X583997Y-248967D01*
X584377Y-249383D01*
G01X593500Y-253800D02*
X592993Y-253717D01*
X592550Y-253383D01*
X592170Y-252883D01*
X591917Y-252300D01*
X591790Y-251633D01*
Y-250967D01*
X591917Y-250300D01*
X592170Y-249717D01*
X592550Y-249217D01*
X592993Y-248883D01*
X593500Y-248800D01*
X594007Y-248883D01*
X594450Y-249217D01*
X594830Y-249717D01*
X595083Y-250300D01*
X595210Y-250967D01*
Y-251633D01*
X595083Y-252300D01*
X594830Y-252883D01*
X594450Y-253383D01*
X594007Y-253717D01*
X593500Y-253800D01*
G01X598600Y-248800D02*
Y-253800D01*
G01X597143Y-248800D02*
X600057D01*
G01X602370Y-253800D02*
Y-248800D01*
G01X605030D02*
Y-253800D01*
G01Y-251300D02*
X602370D01*
G01X610067Y-253800D02*
X607533D01*
Y-248800D01*
X610067D01*
G01X609053Y-251217D02*
X607533D01*
G01X612633Y-253800D02*
Y-248800D01*
X614217D01*
X614723Y-249050D01*
X615040Y-249383D01*
X615167Y-250050D01*
X615040Y-250717D01*
X614660Y-251133D01*
X614217Y-251383D01*
X612633D01*
G01X614217D02*
X615167Y-253800D01*
G01X617100Y-248800D02*
X617987Y-253800D01*
X619000Y-248800D01*
X620013Y-253800D01*
X620900Y-248800D01*
G01X623340D02*
X624860D01*
G01X624100D02*
Y-253800D01*
G01X623340D02*
X624860D01*
G01X627870Y-253134D02*
X628377Y-253550D01*
X628947Y-253800D01*
X629453D01*
X629960Y-253550D01*
X630340Y-253134D01*
X630530Y-252550D01*
X630403Y-251967D01*
X630087Y-251467D01*
X629517Y-251133D01*
X628757Y-250967D01*
X628313Y-250633D01*
X628123Y-250050D01*
X628250Y-249467D01*
X628567Y-249050D01*
X629010Y-248800D01*
X629453D01*
X629897Y-248967D01*
X630277Y-249383D01*
G01X635567Y-253800D02*
X633033D01*
Y-248800D01*
X635567D01*
G01X634553Y-251217D02*
X633033D01*
G01X643170Y-253134D02*
X643677Y-253550D01*
X644247Y-253800D01*
X644753D01*
X645260Y-253550D01*
X645640Y-253134D01*
X645830Y-252550D01*
X645703Y-251967D01*
X645387Y-251467D01*
X644817Y-251133D01*
X644057Y-250967D01*
X643613Y-250633D01*
X643423Y-250050D01*
X643550Y-249467D01*
X643867Y-249050D01*
X644310Y-248800D01*
X644753D01*
X645197Y-248967D01*
X645577Y-249383D01*
G01X648333Y-253800D02*
Y-248800D01*
X649853D01*
X650360Y-249050D01*
X650740Y-249633D01*
X650867Y-250300D01*
X650740Y-250967D01*
X650423Y-251467D01*
X649853Y-251717D01*
X648333D01*
G01X655967Y-253800D02*
X653433D01*
Y-248800D01*
X655967D01*
G01X654953Y-251217D02*
X653433D01*
G01X661193Y-249217D02*
X660813Y-248967D01*
X660370Y-248800D01*
X659863D01*
X659293Y-249050D01*
X658850Y-249467D01*
X658533Y-249967D01*
X658280Y-250800D01*
X658217Y-251550D01*
X658343Y-252300D01*
X658533Y-252800D01*
X658913Y-253300D01*
X659357Y-253633D01*
X659800Y-253800D01*
X660243D01*
X660687Y-253633D01*
X661067Y-253383D01*
X661383Y-253050D01*
G01X664140Y-248800D02*
X665660D01*
G01X664900D02*
Y-253800D01*
G01X664140D02*
X665660D01*
G01X668797D02*
Y-248800D01*
X671203D01*
G01X670317Y-251217D02*
X668797D01*
G01X674340Y-248800D02*
X675860D01*
G01X675100D02*
Y-253800D01*
G01X674340D02*
X675860D01*
G01X681467D02*
X678933D01*
Y-248800D01*
X681467D01*
G01X680453Y-251217D02*
X678933D01*
G01X683907Y-253800D02*
Y-248800D01*
X685173D01*
X685680Y-249050D01*
X686060Y-249383D01*
X686377Y-249883D01*
X686630Y-250467D01*
X686693Y-251300D01*
X686630Y-252133D01*
X686377Y-252717D01*
X686060Y-253217D01*
X685680Y-253550D01*
X685173Y-253800D01*
X683907D01*
G01X635197Y304167D02*
Y321667D01*
X639563D01*
X641310Y320791D01*
X642620Y319625D01*
X643712Y317875D01*
X644585Y315833D01*
X644803Y312916D01*
X644585Y310000D01*
X643712Y307958D01*
X642620Y306208D01*
X641310Y305042D01*
X639563Y304167D01*
X635197D01*
G01X661867D02*
X653133D01*
Y321667D01*
X661867D01*
G01X658373Y313209D02*
X653133D01*
G01X675000Y321667D02*
Y304167D01*
G01X669978Y321667D02*
X680022D01*
G01X687041Y304167D02*
X692500Y321667D01*
X697959Y304167D01*
G01X695993Y310292D02*
X689006D01*
G01X707380Y321667D02*
X712620D01*
G01X710000D02*
Y304167D01*
G01X707380D02*
X712620D01*
G01X723133Y321667D02*
Y304167D01*
X731867D01*
G01X745000Y303584D02*
X744563Y303875D01*
Y304458D01*
X745000Y304750D01*
X745437Y304458D01*
Y303875D01*
X745000Y303584D01*
G01Y311458D02*
X744563Y311750D01*
Y312333D01*
X745000Y312625D01*
X745437Y312333D01*
Y311750D01*
X745000Y311458D01*
G01X774541Y304167D02*
X780000Y321667D01*
X785459Y304167D01*
G01X783493Y310292D02*
X776506D01*
G01X716950Y153734D02*
X723850D01*
G01X726150D02*
X733050D01*
G01X735350D02*
X742250D01*
G01X744550D02*
X751450D01*
G01X753750D02*
X760650D01*
G01X762950D02*
X769850D01*
G01X772150D02*
X779050D01*
G01X781350D02*
X788250D01*
G01X790550D02*
X797450D01*
G01X799750D02*
X806650D01*
G01X808950D02*
X815850D01*
G01X818150D02*
X825050D01*
G01X827350D02*
X834250D01*
G01X836550D02*
X843450D01*
G01X845750D02*
X852650D01*
G01X854950D02*
X861850D01*
G01X864150D02*
X871050D01*
G01X873350D02*
X880250D01*
G01X882550D02*
X889450D01*
G01X891750D02*
X898650D01*
G01X900950D02*
X907850D01*
G01X910150D02*
X917050D01*
G01X919350D02*
X926250D01*
G01X928550D02*
X935450D01*
G01X937750D02*
X944650D01*
G01X946950D02*
X953850D01*
G01X956150D02*
X963050D01*
G01X734200Y136267D02*
Y126867D01*
G01X731555Y136267D02*
X736845D01*
G01X743400Y126867D02*
X742480Y127023D01*
X741675Y127650D01*
X740985Y128590D01*
X740525Y129687D01*
X740295Y130940D01*
Y132193D01*
X740525Y133447D01*
X740985Y134543D01*
X741675Y135483D01*
X742480Y136110D01*
X743400Y136267D01*
X744320Y136110D01*
X745125Y135483D01*
X745815Y134543D01*
X746275Y133447D01*
X746505Y132193D01*
Y130940D01*
X746275Y129687D01*
X745815Y128590D01*
X745125Y127650D01*
X744320Y127023D01*
X743400Y126867D01*
G01X752600Y136267D02*
Y126867D01*
G01X749955Y136267D02*
X755245D01*
G01X758925Y126867D02*
X761800Y136267D01*
X764675Y126867D01*
G01X763640Y130157D02*
X759960D01*
G01X768700Y136267D02*
Y126867D01*
X773300D01*
G01X789400Y136267D02*
Y126867D01*
G01X786755Y136267D02*
X792045D01*
G01X796185Y126867D02*
Y136267D01*
G01X801015D02*
Y126867D01*
G01Y131567D02*
X796185D01*
G01X806420Y136267D02*
X809180D01*
G01X807800D02*
Y126867D01*
G01X806420D02*
X809180D01*
G01X819530Y135483D02*
X818840Y135953D01*
X818035Y136267D01*
X817115D01*
X816080Y135796D01*
X815275Y135013D01*
X814700Y134073D01*
X814240Y132507D01*
X814125Y131097D01*
X814355Y129687D01*
X814700Y128747D01*
X815390Y127806D01*
X816195Y127180D01*
X817000Y126867D01*
X817805D01*
X818610Y127180D01*
X819300Y127650D01*
X819875Y128276D01*
G01X823670Y126867D02*
Y136267D01*
G01X828040D02*
X823670Y130470D01*
G01X828730Y126867D02*
X825625Y133133D01*
G01X832755Y126867D02*
Y136267D01*
X838045Y126867D01*
Y136267D01*
G01X846900Y126867D02*
X842300D01*
Y136267D01*
X846900D01*
G01X845060Y131724D02*
X842300D01*
G01X851385Y128120D02*
X852305Y127337D01*
X853340Y126867D01*
X854260D01*
X855180Y127337D01*
X855870Y128120D01*
X856215Y129217D01*
X855985Y130313D01*
X855410Y131253D01*
X854375Y131880D01*
X852995Y132193D01*
X852190Y132820D01*
X851845Y133917D01*
X852075Y135013D01*
X852650Y135796D01*
X853455Y136267D01*
X854260D01*
X855065Y135953D01*
X855755Y135170D01*
G01X860585Y128120D02*
X861505Y127337D01*
X862540Y126867D01*
X863460D01*
X864380Y127337D01*
X865070Y128120D01*
X865415Y129217D01*
X865185Y130313D01*
X864610Y131253D01*
X863575Y131880D01*
X862195Y132193D01*
X861390Y132820D01*
X861045Y133917D01*
X861275Y135013D01*
X861850Y135796D01*
X862655Y136267D01*
X863460D01*
X864265Y135953D01*
X864955Y135170D01*
G01X878870Y128747D02*
X879560Y127650D01*
X880480Y127023D01*
X881515Y126867D01*
X882435Y127023D01*
X883355Y127806D01*
X883930Y128747D01*
X884045Y129687D01*
X883815Y130783D01*
X883010Y131567D01*
X882205Y131880D01*
X881170D01*
G01X882205D02*
X882895Y132350D01*
X883470Y133133D01*
X883700Y134073D01*
X883470Y135013D01*
X882895Y135796D01*
X881860Y136267D01*
X880825Y136110D01*
X879790Y135483D01*
G01X888415Y134700D02*
X889105Y135640D01*
X889910Y136110D01*
X890830Y136267D01*
X891980Y135953D01*
X892785Y135170D01*
X893015Y134230D01*
X892900Y133290D01*
X892440Y132507D01*
X890140Y130940D01*
X889105Y129843D01*
X888415Y128276D01*
X888185Y126867D01*
X893015D01*
G01X899800Y126553D02*
X899570Y126710D01*
Y127023D01*
X899800Y127180D01*
X900030Y127023D01*
Y126710D01*
X899800Y126553D01*
G01X909000Y126867D02*
X909805Y127023D01*
X910725Y127493D01*
X911300Y128276D01*
X911530Y129373D01*
X911300Y130470D01*
X910610Y131410D01*
X909575Y131880D01*
X908425D01*
X907735Y132193D01*
X907160Y132976D01*
X906930Y134073D01*
X907275Y135170D01*
X908080Y135953D01*
X909000Y136267D01*
X909920Y135953D01*
X910725Y135170D01*
X911070Y134073D01*
X910840Y132976D01*
X910265Y132193D01*
X909575Y131880D01*
X908425D01*
X907390Y131410D01*
X906700Y130470D01*
X906470Y129373D01*
X906700Y128276D01*
X907275Y127493D01*
X908195Y127023D01*
X909000Y126867D01*
G01X924410D02*
Y136267D01*
X927400Y128433D01*
X930390Y136267D01*
Y126867D01*
G01X935220Y136267D02*
X937980D01*
G01X936600D02*
Y126867D01*
G01X935220D02*
X937980D01*
G01X943500Y136267D02*
Y126867D01*
X948100D01*
G01X722470Y175300D02*
Y184700D01*
X724770D01*
X725690Y184230D01*
X726380Y183603D01*
X726955Y182664D01*
X727415Y181566D01*
X727530Y180000D01*
X727415Y178433D01*
X726955Y177336D01*
X726380Y176396D01*
X725690Y175770D01*
X724770Y175300D01*
X722470D01*
G01X736500D02*
X731900D01*
Y184700D01*
X736500D01*
G01X734660Y180157D02*
X731900D01*
G01X740985Y176553D02*
X741905Y175770D01*
X742940Y175300D01*
X743860D01*
X744780Y175770D01*
X745470Y176553D01*
X745815Y177650D01*
X745585Y178746D01*
X745010Y179687D01*
X743975Y180313D01*
X742595Y180627D01*
X741790Y181253D01*
X741445Y182350D01*
X741675Y183447D01*
X742250Y184230D01*
X743055Y184700D01*
X743860D01*
X744665Y184387D01*
X745355Y183603D01*
G01X751220Y184700D02*
X753980D01*
G01X752600D02*
Y175300D01*
G01X751220D02*
X753980D01*
G01X762490Y180000D02*
X764790D01*
Y177180D01*
X764100Y176240D01*
X763295Y175613D01*
X762145Y175300D01*
X760995Y175613D01*
X760190Y176240D01*
X759500Y177180D01*
X759040Y178277D01*
X758810Y179530D01*
Y180627D01*
X759040Y181566D01*
X759500Y182664D01*
X760190Y183603D01*
X760880Y184230D01*
X761800Y184700D01*
X762605D01*
X763525Y184387D01*
X764215Y183760D01*
G01X768355Y175300D02*
Y184700D01*
X773645Y175300D01*
Y184700D01*
G01X791930Y183916D02*
X791240Y184387D01*
X790435Y184700D01*
X789515D01*
X788480Y184230D01*
X787675Y183447D01*
X787100Y182507D01*
X786640Y180940D01*
X786525Y179530D01*
X786755Y178120D01*
X787100Y177180D01*
X787790Y176240D01*
X788595Y175613D01*
X789400Y175300D01*
X790205D01*
X791010Y175613D01*
X791700Y176083D01*
X792275Y176710D01*
G01X796300Y175300D02*
Y184700D01*
X799175D01*
X800095Y184230D01*
X800670Y183603D01*
X800900Y182350D01*
X800670Y181097D01*
X799980Y180313D01*
X799175Y179843D01*
X796300D01*
G01X799175D02*
X800900Y175300D01*
G01X807800D02*
X806880Y175457D01*
X806075Y176083D01*
X805385Y177023D01*
X804925Y178120D01*
X804695Y179373D01*
Y180627D01*
X804925Y181880D01*
X805385Y182977D01*
X806075Y183916D01*
X806880Y184543D01*
X807800Y184700D01*
X808720Y184543D01*
X809525Y183916D01*
X810215Y182977D01*
X810675Y181880D01*
X810905Y180627D01*
Y179373D01*
X810675Y178120D01*
X810215Y177023D01*
X809525Y176083D01*
X808720Y175457D01*
X807800Y175300D01*
G01X814585Y176553D02*
X815505Y175770D01*
X816540Y175300D01*
X817460D01*
X818380Y175770D01*
X819070Y176553D01*
X819415Y177650D01*
X819185Y178746D01*
X818610Y179687D01*
X817575Y180313D01*
X816195Y180627D01*
X815390Y181253D01*
X815045Y182350D01*
X815275Y183447D01*
X815850Y184230D01*
X816655Y184700D01*
X817460D01*
X818265Y184387D01*
X818955Y183603D01*
G01X823785Y176553D02*
X824705Y175770D01*
X825740Y175300D01*
X826660D01*
X827580Y175770D01*
X828270Y176553D01*
X828615Y177650D01*
X828385Y178746D01*
X827810Y179687D01*
X826775Y180313D01*
X825395Y180627D01*
X824590Y181253D01*
X824245Y182350D01*
X824475Y183447D01*
X825050Y184230D01*
X825855Y184700D01*
X826660D01*
X827465Y184387D01*
X828155Y183603D01*
G01X842185Y176553D02*
X843105Y175770D01*
X844140Y175300D01*
X845060D01*
X845980Y175770D01*
X846670Y176553D01*
X847015Y177650D01*
X846785Y178746D01*
X846210Y179687D01*
X845175Y180313D01*
X843795Y180627D01*
X842990Y181253D01*
X842645Y182350D01*
X842875Y183447D01*
X843450Y184230D01*
X844255Y184700D01*
X845060D01*
X845865Y184387D01*
X846555Y183603D01*
G01X856100Y175300D02*
X851500D01*
Y184700D01*
X856100D01*
G01X854260Y180157D02*
X851500D01*
G01X865530Y183916D02*
X864840Y184387D01*
X864035Y184700D01*
X863115D01*
X862080Y184230D01*
X861275Y183447D01*
X860700Y182507D01*
X860240Y180940D01*
X860125Y179530D01*
X860355Y178120D01*
X860700Y177180D01*
X861390Y176240D01*
X862195Y175613D01*
X863000Y175300D01*
X863805D01*
X864610Y175613D01*
X865300Y176083D01*
X865875Y176710D01*
G01X872200Y184700D02*
Y175300D01*
G01X869555Y184700D02*
X874845D01*
G01X880020D02*
X882780D01*
G01X881400D02*
Y175300D01*
G01X880020D02*
X882780D01*
G01X890600D02*
X889680Y175457D01*
X888875Y176083D01*
X888185Y177023D01*
X887725Y178120D01*
X887495Y179373D01*
Y180627D01*
X887725Y181880D01*
X888185Y182977D01*
X888875Y183916D01*
X889680Y184543D01*
X890600Y184700D01*
X891520Y184543D01*
X892325Y183916D01*
X893015Y182977D01*
X893475Y181880D01*
X893705Y180627D01*
Y179373D01*
X893475Y178120D01*
X893015Y177023D01*
X892325Y176083D01*
X891520Y175457D01*
X890600Y175300D01*
G01X897155D02*
Y184700D01*
X902445Y175300D01*
Y184700D01*
G01X920730Y183916D02*
X920040Y184387D01*
X919235Y184700D01*
X918315D01*
X917280Y184230D01*
X916475Y183447D01*
X915900Y182507D01*
X915440Y180940D01*
X915325Y179530D01*
X915555Y178120D01*
X915900Y177180D01*
X916590Y176240D01*
X917395Y175613D01*
X918200Y175300D01*
X919005D01*
X919810Y175613D01*
X920500Y176083D01*
X921075Y176710D01*
G01X924985Y175300D02*
Y184700D01*
G01X929815D02*
Y175300D01*
G01Y180000D02*
X924985D01*
G01X933725Y175300D02*
X936600Y184700D01*
X939475Y175300D01*
G01X938440Y178590D02*
X934760D01*
G01X943500Y175300D02*
Y184700D01*
X946375D01*
X947295Y184230D01*
X947870Y183603D01*
X948100Y182350D01*
X947870Y181097D01*
X947180Y180313D01*
X946375Y179843D01*
X943500D01*
G01X946375D02*
X948100Y175300D01*
G01X955000Y184700D02*
Y175300D01*
G01X952355Y184700D02*
X957645D01*
G01X755343Y-282667D02*
Y-277667D01*
X758257Y-282667D01*
Y-277667D01*
G01X761900Y-282833D02*
X761773Y-282750D01*
Y-282583D01*
X761900Y-282500D01*
X762027Y-282583D01*
Y-282750D01*
X761900Y-282833D01*
G01X765543Y-282667D02*
Y-277667D01*
X768457Y-282667D01*
Y-277667D01*
G01X772100Y-282833D02*
X771973Y-282750D01*
Y-282583D01*
X772100Y-282500D01*
X772227Y-282583D01*
Y-282750D01*
X772100Y-282833D01*
G01X777200Y-277667D02*
Y-282667D01*
G01X775743Y-277667D02*
X778657D01*
G01X894670Y316553D02*
X899730Y323447D01*
G01X897200Y324700D02*
Y315300D01*
G01X899730Y316553D02*
X894670Y323447D01*
G01X893750Y320000D02*
X900650D01*
G01X922270Y316867D02*
Y326267D01*
X924570D01*
X925490Y325796D01*
X926180Y325170D01*
X926755Y324230D01*
X927215Y323133D01*
X927330Y321567D01*
X927215Y320000D01*
X926755Y318903D01*
X926180Y317963D01*
X925490Y317337D01*
X924570Y316867D01*
X922270D01*
G01X932620Y326267D02*
X935380D01*
G01X934000D02*
Y316867D01*
G01X932620D02*
X935380D01*
G01X945500D02*
X940900D01*
Y326267D01*
X945500D01*
G01X943660Y321724D02*
X940900D01*
G01X950100Y326267D02*
Y316867D01*
X954700D01*
G01X963900D02*
X959300D01*
Y326267D01*
X963900D01*
G01X962060Y321724D02*
X959300D01*
G01X973330Y325483D02*
X972640Y325953D01*
X971835Y326267D01*
X970915D01*
X969880Y325796D01*
X969075Y325013D01*
X968500Y324073D01*
X968040Y322507D01*
X967925Y321097D01*
X968155Y319687D01*
X968500Y318747D01*
X969190Y317806D01*
X969995Y317180D01*
X970800Y316867D01*
X971605D01*
X972410Y317180D01*
X973100Y317650D01*
X973675Y318276D01*
G01X980000Y326267D02*
Y316867D01*
G01X977355Y326267D02*
X982645D01*
G01X986900Y316867D02*
Y326267D01*
X989775D01*
X990695Y325796D01*
X991270Y325170D01*
X991500Y323917D01*
X991270Y322663D01*
X990580Y321880D01*
X989775Y321410D01*
X986900D01*
G01X989775D02*
X991500Y316867D01*
G01X997020Y326267D02*
X999780D01*
G01X998400D02*
Y316867D01*
G01X997020D02*
X999780D01*
G01X1010130Y325483D02*
X1009440Y325953D01*
X1008635Y326267D01*
X1007715D01*
X1006680Y325796D01*
X1005875Y325013D01*
X1005300Y324073D01*
X1004840Y322507D01*
X1004725Y321097D01*
X1004955Y319687D01*
X1005300Y318747D01*
X1005990Y317806D01*
X1006795Y317180D01*
X1007600Y316867D01*
X1008405D01*
X1009210Y317180D01*
X1009900Y317650D01*
X1010475Y318276D01*
G01X1024505Y320000D02*
X1027495D01*
G01X1041870Y318747D02*
X1042560Y317650D01*
X1043480Y317023D01*
X1044515Y316867D01*
X1045435Y317023D01*
X1046355Y317806D01*
X1046930Y318747D01*
X1047045Y319687D01*
X1046815Y320783D01*
X1046010Y321567D01*
X1045205Y321880D01*
X1044170D01*
G01X1045205D02*
X1045895Y322350D01*
X1046470Y323133D01*
X1046700Y324073D01*
X1046470Y325013D01*
X1045895Y325796D01*
X1044860Y326267D01*
X1043825Y326110D01*
X1042790Y325483D01*
G01X1053600Y326267D02*
X1052680Y325953D01*
X1051990Y325170D01*
X1051530Y324230D01*
X1051185Y322976D01*
X1051070Y321567D01*
X1051185Y320157D01*
X1051530Y318903D01*
X1051990Y317963D01*
X1052680Y317180D01*
X1053600Y316867D01*
X1054520Y317180D01*
X1055210Y317963D01*
X1055670Y318903D01*
X1056015Y320157D01*
X1056130Y321567D01*
X1056015Y322976D01*
X1055670Y324230D01*
X1055210Y325170D01*
X1054520Y325953D01*
X1053600Y326267D01*
G01X1069010Y316867D02*
Y326267D01*
X1072000Y318433D01*
X1074990Y326267D01*
Y316867D01*
G01X1079820Y326267D02*
X1082580D01*
G01X1081200D02*
Y316867D01*
G01X1079820D02*
X1082580D01*
G01X1088100Y326267D02*
Y316867D01*
X1092700D01*
G01X845450Y406750D02*
Y416150D01*
X844070Y414270D01*
G01Y406750D02*
X846830D01*
G01X853155Y409883D02*
X856145D01*
G01X861665Y414583D02*
X862355Y415523D01*
X863160Y415993D01*
X864080Y416150D01*
X865230Y415837D01*
X866035Y415053D01*
X866265Y414114D01*
X866150Y413173D01*
X865690Y412390D01*
X863390Y410823D01*
X862355Y409727D01*
X861665Y408160D01*
X861435Y406750D01*
X866265D01*
G01X888350Y217670D02*
Y208270D01*
X892950D01*
G01X897665Y216103D02*
X898355Y217043D01*
X899160Y217513D01*
X900080Y217670D01*
X901230Y217357D01*
X902035Y216573D01*
X902265Y215633D01*
X902150Y214693D01*
X901690Y213910D01*
X899390Y212343D01*
X898355Y211247D01*
X897665Y209680D01*
X897435Y208270D01*
X902265D01*
G01X919170Y213283D02*
X919630Y213753D01*
X919975Y214536D01*
X920205Y215633D01*
X919975Y216573D01*
X919515Y217200D01*
X918710Y217670D01*
X915605D01*
Y208270D01*
X919400D01*
X920205Y208896D01*
X920665Y209836D01*
X920895Y210933D01*
X920665Y212030D01*
X919975Y212970D01*
X919170Y213283D01*
X915605D01*
G01X927450Y208270D02*
X926530Y208426D01*
X925725Y209053D01*
X925035Y209993D01*
X924575Y211090D01*
X924345Y212343D01*
Y213597D01*
X924575Y214850D01*
X925035Y215947D01*
X925725Y216886D01*
X926530Y217513D01*
X927450Y217670D01*
X928370Y217513D01*
X929175Y216886D01*
X929865Y215947D01*
X930325Y214850D01*
X930555Y213597D01*
Y212343D01*
X930325Y211090D01*
X929865Y209993D01*
X929175Y209053D01*
X928370Y208426D01*
X927450Y208270D01*
G01X936650Y217670D02*
Y208270D01*
G01X934005Y217670D02*
X939295D01*
G01X945850D02*
Y208270D01*
G01X943205Y217670D02*
X948495D01*
G01X955050Y208270D02*
X954130Y208426D01*
X953325Y209053D01*
X952635Y209993D01*
X952175Y211090D01*
X951945Y212343D01*
Y213597D01*
X952175Y214850D01*
X952635Y215947D01*
X953325Y216886D01*
X954130Y217513D01*
X955050Y217670D01*
X955970Y217513D01*
X956775Y216886D01*
X957465Y215947D01*
X957925Y214850D01*
X958155Y213597D01*
Y212343D01*
X957925Y211090D01*
X957465Y209993D01*
X956775Y209053D01*
X955970Y208426D01*
X955050Y208270D01*
G01X961260D02*
Y217670D01*
X964250Y209836D01*
X967240Y217670D01*
Y208270D01*
G01X985180Y216886D02*
X984490Y217357D01*
X983685Y217670D01*
X982765D01*
X981730Y217200D01*
X980925Y216416D01*
X980350Y215476D01*
X979890Y213910D01*
X979775Y212500D01*
X980005Y211090D01*
X980350Y210150D01*
X981040Y209210D01*
X981845Y208583D01*
X982650Y208270D01*
X983455D01*
X984260Y208583D01*
X984950Y209053D01*
X985525Y209680D01*
G01X991850Y208270D02*
X990930Y208426D01*
X990125Y209053D01*
X989435Y209993D01*
X988975Y211090D01*
X988745Y212343D01*
Y213597D01*
X988975Y214850D01*
X989435Y215947D01*
X990125Y216886D01*
X990930Y217513D01*
X991850Y217670D01*
X992770Y217513D01*
X993575Y216886D01*
X994265Y215947D01*
X994725Y214850D01*
X994955Y213597D01*
Y212343D01*
X994725Y211090D01*
X994265Y209993D01*
X993575Y209053D01*
X992770Y208426D01*
X991850Y208270D01*
G01X998405D02*
Y217670D01*
X1003695Y208270D01*
Y217670D01*
G01X1007720Y208270D02*
Y217670D01*
X1010020D01*
X1010940Y217200D01*
X1011630Y216573D01*
X1012205Y215633D01*
X1012665Y214536D01*
X1012780Y212970D01*
X1012665Y211403D01*
X1012205Y210306D01*
X1011630Y209366D01*
X1010940Y208740D01*
X1010020Y208270D01*
X1007720D01*
G01X1016920Y217670D02*
Y210933D01*
X1017380Y209523D01*
X1018300Y208583D01*
X1019450Y208270D01*
X1020600Y208583D01*
X1021520Y209523D01*
X1021980Y210933D01*
Y217670D01*
G01X1031180Y216886D02*
X1030490Y217357D01*
X1029685Y217670D01*
X1028765D01*
X1027730Y217200D01*
X1026925Y216416D01*
X1026350Y215476D01*
X1025890Y213910D01*
X1025775Y212500D01*
X1026005Y211090D01*
X1026350Y210150D01*
X1027040Y209210D01*
X1027845Y208583D01*
X1028650Y208270D01*
X1029455D01*
X1030260Y208583D01*
X1030950Y209053D01*
X1031525Y209680D01*
G01X1037850Y217670D02*
Y208270D01*
G01X1035205Y217670D02*
X1040495D01*
G01X1047050Y208270D02*
X1046130Y208426D01*
X1045325Y209053D01*
X1044635Y209993D01*
X1044175Y211090D01*
X1043945Y212343D01*
Y213597D01*
X1044175Y214850D01*
X1044635Y215947D01*
X1045325Y216886D01*
X1046130Y217513D01*
X1047050Y217670D01*
X1047970Y217513D01*
X1048775Y216886D01*
X1049465Y215947D01*
X1049925Y214850D01*
X1050155Y213597D01*
Y212343D01*
X1049925Y211090D01*
X1049465Y209993D01*
X1048775Y209053D01*
X1047970Y208426D01*
X1047050Y208270D01*
G01X1053950D02*
Y217670D01*
X1056825D01*
X1057745Y217200D01*
X1058320Y216573D01*
X1058550Y215320D01*
X1058320Y214066D01*
X1057630Y213283D01*
X1056825Y212813D01*
X1053950D01*
G01X1056825D02*
X1058550Y208270D01*
G01X1073155Y211403D02*
X1076145D01*
G01X1093050Y208270D02*
Y217670D01*
X1091670Y215790D01*
G01Y208270D02*
X1094430D01*
G01X1102250D02*
X1101330Y208426D01*
X1100525Y209053D01*
X1099835Y209993D01*
X1099375Y211090D01*
X1099145Y212343D01*
Y213597D01*
X1099375Y214850D01*
X1099835Y215947D01*
X1100525Y216886D01*
X1101330Y217513D01*
X1102250Y217670D01*
X1103170Y217513D01*
X1103975Y216886D01*
X1104665Y215947D01*
X1105125Y214850D01*
X1105355Y213597D01*
Y212343D01*
X1105125Y211090D01*
X1104665Y209993D01*
X1103975Y209053D01*
X1103170Y208426D01*
X1102250Y208270D01*
G01X1109265Y217670D02*
X1113635D01*
X1109265Y208270D01*
X1113635D01*
G01X1117200Y205137D02*
X1124100D01*
G01X1132380Y216886D02*
X1131690Y217357D01*
X1130885Y217670D01*
X1129965D01*
X1128930Y217200D01*
X1128125Y216416D01*
X1127550Y215476D01*
X1127090Y213910D01*
X1126975Y212500D01*
X1127205Y211090D01*
X1127550Y210150D01*
X1128240Y209210D01*
X1129045Y208583D01*
X1129850Y208270D01*
X1130655D01*
X1131460Y208583D01*
X1132150Y209053D01*
X1132725Y209680D01*
G01X1139050Y208270D02*
X1138130Y208426D01*
X1137325Y209053D01*
X1136635Y209993D01*
X1136175Y211090D01*
X1135945Y212343D01*
Y213597D01*
X1136175Y214850D01*
X1136635Y215947D01*
X1137325Y216886D01*
X1138130Y217513D01*
X1139050Y217670D01*
X1139970Y217513D01*
X1140775Y216886D01*
X1141465Y215947D01*
X1141925Y214850D01*
X1142155Y213597D01*
Y212343D01*
X1141925Y211090D01*
X1141465Y209993D01*
X1140775Y209053D01*
X1139970Y208426D01*
X1139050Y208270D01*
G01X1145950D02*
Y217670D01*
X1148710D01*
X1149630Y217200D01*
X1150320Y216103D01*
X1150550Y214850D01*
X1150320Y213597D01*
X1149745Y212657D01*
X1148710Y212186D01*
X1145950D01*
G01X1155150Y208270D02*
Y217670D01*
X1157910D01*
X1158830Y217200D01*
X1159520Y216103D01*
X1159750Y214850D01*
X1159520Y213597D01*
X1158945Y212657D01*
X1157910Y212186D01*
X1155150D01*
G01X1168950Y208270D02*
X1164350D01*
Y217670D01*
X1168950D01*
G01X1167110Y213127D02*
X1164350D01*
G01X1173550Y208270D02*
Y217670D01*
X1176425D01*
X1177345Y217200D01*
X1177920Y216573D01*
X1178150Y215320D01*
X1177920Y214066D01*
X1177230Y213283D01*
X1176425Y212813D01*
X1173550D01*
G01X1176425D02*
X1178150Y208270D01*
G01X1194250D02*
Y217670D01*
X1192870Y215790D01*
G01Y208270D02*
X1195630D01*
G01X1203450Y207957D02*
X1203220Y208113D01*
Y208426D01*
X1203450Y208583D01*
X1203680Y208426D01*
Y208113D01*
X1203450Y207957D01*
G01X1214030Y208270D02*
Y217670D01*
X1209775Y210933D01*
X1215525D01*
G01X1228060Y208270D02*
Y217670D01*
X1231050Y209836D01*
X1234040Y217670D01*
Y208270D01*
G01X1238870Y217670D02*
X1241630D01*
G01X1240250D02*
Y208270D01*
G01X1238870D02*
X1241630D01*
G01X1247150Y217670D02*
Y208270D01*
X1251750D01*
G01X896700Y406267D02*
Y396867D01*
X901300D01*
G01X908200D02*
Y406267D01*
X906820Y404387D01*
G01Y396867D02*
X909580D01*
G01X926600Y406267D02*
Y396867D01*
G01X923955Y406267D02*
X929245D01*
G01X935800Y396867D02*
X934880Y397023D01*
X934075Y397650D01*
X933385Y398590D01*
X932925Y399687D01*
X932695Y400940D01*
Y402193D01*
X932925Y403447D01*
X933385Y404543D01*
X934075Y405483D01*
X934880Y406110D01*
X935800Y406267D01*
X936720Y406110D01*
X937525Y405483D01*
X938215Y404543D01*
X938675Y403447D01*
X938905Y402193D01*
Y400940D01*
X938675Y399687D01*
X938215Y398590D01*
X937525Y397650D01*
X936720Y397023D01*
X935800Y396867D01*
G01X942700D02*
Y406267D01*
X945460D01*
X946380Y405796D01*
X947070Y404700D01*
X947300Y403447D01*
X947070Y402193D01*
X946495Y401253D01*
X945460Y400783D01*
X942700D01*
G01X965930Y405483D02*
X965240Y405953D01*
X964435Y406267D01*
X963515D01*
X962480Y405796D01*
X961675Y405013D01*
X961100Y404073D01*
X960640Y402507D01*
X960525Y401097D01*
X960755Y399687D01*
X961100Y398747D01*
X961790Y397806D01*
X962595Y397180D01*
X963400Y396867D01*
X964205D01*
X965010Y397180D01*
X965700Y397650D01*
X966275Y398276D01*
G01X972600Y396867D02*
X971680Y397023D01*
X970875Y397650D01*
X970185Y398590D01*
X969725Y399687D01*
X969495Y400940D01*
Y402193D01*
X969725Y403447D01*
X970185Y404543D01*
X970875Y405483D01*
X971680Y406110D01*
X972600Y406267D01*
X973520Y406110D01*
X974325Y405483D01*
X975015Y404543D01*
X975475Y403447D01*
X975705Y402193D01*
Y400940D01*
X975475Y399687D01*
X975015Y398590D01*
X974325Y397650D01*
X973520Y397023D01*
X972600Y396867D01*
G01X979155D02*
Y406267D01*
X984445Y396867D01*
Y406267D01*
G01X988470Y396867D02*
Y406267D01*
X990770D01*
X991690Y405796D01*
X992380Y405170D01*
X992955Y404230D01*
X993415Y403133D01*
X993530Y401567D01*
X993415Y400000D01*
X992955Y398903D01*
X992380Y397963D01*
X991690Y397337D01*
X990770Y396867D01*
X988470D01*
G01X997670Y406267D02*
Y399530D01*
X998130Y398120D01*
X999050Y397180D01*
X1000200Y396867D01*
X1001350Y397180D01*
X1002270Y398120D01*
X1002730Y399530D01*
Y406267D01*
G01X1011930Y405483D02*
X1011240Y405953D01*
X1010435Y406267D01*
X1009515D01*
X1008480Y405796D01*
X1007675Y405013D01*
X1007100Y404073D01*
X1006640Y402507D01*
X1006525Y401097D01*
X1006755Y399687D01*
X1007100Y398747D01*
X1007790Y397806D01*
X1008595Y397180D01*
X1009400Y396867D01*
X1010205D01*
X1011010Y397180D01*
X1011700Y397650D01*
X1012275Y398276D01*
G01X1018600Y406267D02*
Y396867D01*
G01X1015955Y406267D02*
X1021245D01*
G01X1027800Y396867D02*
X1026880Y397023D01*
X1026075Y397650D01*
X1025385Y398590D01*
X1024925Y399687D01*
X1024695Y400940D01*
Y402193D01*
X1024925Y403447D01*
X1025385Y404543D01*
X1026075Y405483D01*
X1026880Y406110D01*
X1027800Y406267D01*
X1028720Y406110D01*
X1029525Y405483D01*
X1030215Y404543D01*
X1030675Y403447D01*
X1030905Y402193D01*
Y400940D01*
X1030675Y399687D01*
X1030215Y398590D01*
X1029525Y397650D01*
X1028720Y397023D01*
X1027800Y396867D01*
G01X1034700D02*
Y406267D01*
X1037575D01*
X1038495Y405796D01*
X1039070Y405170D01*
X1039300Y403917D01*
X1039070Y402663D01*
X1038380Y401880D01*
X1037575Y401410D01*
X1034700D01*
G01X1037575D02*
X1039300Y396867D01*
G01X1053905Y400000D02*
X1056895D01*
G01X1073800Y396867D02*
Y406267D01*
X1072420Y404387D01*
G01Y396867D02*
X1075180D01*
G01X1083000D02*
X1082080Y397023D01*
X1081275Y397650D01*
X1080585Y398590D01*
X1080125Y399687D01*
X1079895Y400940D01*
Y402193D01*
X1080125Y403447D01*
X1080585Y404543D01*
X1081275Y405483D01*
X1082080Y406110D01*
X1083000Y406267D01*
X1083920Y406110D01*
X1084725Y405483D01*
X1085415Y404543D01*
X1085875Y403447D01*
X1086105Y402193D01*
Y400940D01*
X1085875Y399687D01*
X1085415Y398590D01*
X1084725Y397650D01*
X1083920Y397023D01*
X1083000Y396867D01*
G01X1090015Y406267D02*
X1094385D01*
X1090015Y396867D01*
X1094385D01*
G01X1097950Y393734D02*
X1104850D01*
G01X1113130Y405483D02*
X1112440Y405953D01*
X1111635Y406267D01*
X1110715D01*
X1109680Y405796D01*
X1108875Y405013D01*
X1108300Y404073D01*
X1107840Y402507D01*
X1107725Y401097D01*
X1107955Y399687D01*
X1108300Y398747D01*
X1108990Y397806D01*
X1109795Y397180D01*
X1110600Y396867D01*
X1111405D01*
X1112210Y397180D01*
X1112900Y397650D01*
X1113475Y398276D01*
G01X1119800Y396867D02*
X1118880Y397023D01*
X1118075Y397650D01*
X1117385Y398590D01*
X1116925Y399687D01*
X1116695Y400940D01*
Y402193D01*
X1116925Y403447D01*
X1117385Y404543D01*
X1118075Y405483D01*
X1118880Y406110D01*
X1119800Y406267D01*
X1120720Y406110D01*
X1121525Y405483D01*
X1122215Y404543D01*
X1122675Y403447D01*
X1122905Y402193D01*
Y400940D01*
X1122675Y399687D01*
X1122215Y398590D01*
X1121525Y397650D01*
X1120720Y397023D01*
X1119800Y396867D01*
G01X1126700D02*
Y406267D01*
X1129460D01*
X1130380Y405796D01*
X1131070Y404700D01*
X1131300Y403447D01*
X1131070Y402193D01*
X1130495Y401253D01*
X1129460Y400783D01*
X1126700D01*
G01X1135900Y396867D02*
Y406267D01*
X1138660D01*
X1139580Y405796D01*
X1140270Y404700D01*
X1140500Y403447D01*
X1140270Y402193D01*
X1139695Y401253D01*
X1138660Y400783D01*
X1135900D01*
G01X1149700Y396867D02*
X1145100D01*
Y406267D01*
X1149700D01*
G01X1147860Y401724D02*
X1145100D01*
G01X1154300Y396867D02*
Y406267D01*
X1157175D01*
X1158095Y405796D01*
X1158670Y405170D01*
X1158900Y403917D01*
X1158670Y402663D01*
X1157980Y401880D01*
X1157175Y401410D01*
X1154300D01*
G01X1157175D02*
X1158900Y396867D01*
G01X1175000D02*
Y406267D01*
X1173620Y404387D01*
G01Y396867D02*
X1176380D01*
G01X1184200Y396553D02*
X1183970Y396710D01*
Y397023D01*
X1184200Y397180D01*
X1184430Y397023D01*
Y396710D01*
X1184200Y396553D01*
G01X1194780Y396867D02*
Y406267D01*
X1190525Y399530D01*
X1196275D01*
G01X1208810Y396867D02*
Y406267D01*
X1211800Y398433D01*
X1214790Y406267D01*
Y396867D01*
G01X1219620Y406267D02*
X1222380D01*
G01X1221000D02*
Y396867D01*
G01X1219620D02*
X1222380D01*
G01X1227900Y406267D02*
Y396867D01*
X1232500D01*
G01X-321600Y-446300D02*
X1378400D01*
Y653700D01*
X-321600D01*
G01D02*
Y-446300D01*
G01X-271600Y623700D02*
Y-416300D01*
G01X1328400Y503700D02*
Y-416300D01*
X-271600D01*
G01X-261600Y623700D02*
X1328400D01*
G01X-271600D02*
X-261600D01*
G01X-10000Y0D02*
X-40000D01*
G01X-48600Y52750D02*
Y65250D01*
X-50460Y62750D01*
G01Y52750D02*
X-46740D01*
G01X-36200Y52333D02*
X-36510Y52542D01*
Y52958D01*
X-36200Y53167D01*
X-35890Y52958D01*
Y52542D01*
X-36200Y52333D01*
G01X-23800Y52750D02*
Y65250D01*
X-25660Y62750D01*
G01Y52750D02*
X-21940D01*
G01X-11400D02*
X-10315Y52958D01*
X-9075Y53583D01*
X-8300Y54625D01*
X-7990Y56083D01*
X-8300Y57541D01*
X-9230Y58792D01*
X-10625Y59417D01*
X-12175D01*
X-13105Y59833D01*
X-13880Y60875D01*
X-14190Y62333D01*
X-13725Y63792D01*
X-12640Y64833D01*
X-11400Y65250D01*
X-10160Y64833D01*
X-9075Y63792D01*
X-8610Y62333D01*
X-8920Y60875D01*
X-9695Y59833D01*
X-10625Y59417D01*
X-12175D01*
X-13570Y58792D01*
X-14500Y57541D01*
X-14810Y56083D01*
X-14500Y54625D01*
X-13725Y53583D01*
X-12485Y52958D01*
X-11400Y52750D01*
G01X-10000Y118110D02*
X-40000D01*
G01X-30000Y43375D02*
Y0D01*
G01X-32500Y15000D02*
X-30000Y0D01*
X-27500Y15000D01*
X-32500D01*
G01X-30000Y74625D02*
Y118110D01*
G01X-27500Y103110D02*
X-30000Y118110D01*
X-32500Y103110D01*
X-27500D01*
G01X0Y0D02*
X216535D01*
Y118110D01*
X0D01*
Y0D01*
G01Y128110D02*
Y141000D01*
G01X15000Y133500D02*
X0Y131000D01*
X15000Y128500D01*
Y133500D01*
G01X74375Y131000D02*
X0D01*
G01X85455Y135167D02*
X86385Y136416D01*
X87470Y137042D01*
X88710Y137250D01*
X90260Y136833D01*
X91345Y135792D01*
X91655Y134542D01*
X91500Y133291D01*
X90880Y132250D01*
X87780Y130167D01*
X86385Y128708D01*
X85455Y126625D01*
X85145Y124750D01*
X91655D01*
G01X100800Y124333D02*
X100490Y124542D01*
Y124958D01*
X100800Y125167D01*
X101110Y124958D01*
Y124542D01*
X100800Y124333D01*
G01X113200Y124750D02*
Y137250D01*
X111340Y134750D01*
G01Y124750D02*
X115060D01*
G01X125290D02*
X125600Y127458D01*
X126065Y129750D01*
X126685Y131833D01*
X127460Y134125D01*
X128700Y137250D01*
X122500D01*
G01X139625Y131000D02*
X216535D01*
G01Y128110D02*
Y141000D01*
G01X201535Y128500D02*
X216535Y131000D01*
X201535Y133500D01*
Y128500D01*
G01X500000Y-137000D02*
Y38000D01*
X1197500D01*
Y-137000D01*
X500000D01*
G01Y-112000D02*
X1197500D01*
G01X500000Y-87000D02*
X1197500D01*
G01X500000Y-62000D02*
X1197500D01*
G01X511005Y-30750D02*
Y-18250D01*
X516895D01*
G01X514725Y-24292D02*
X511005D01*
G01X524490Y-18250D02*
X528210D01*
G01X526350D02*
Y-30750D01*
G01X524490D02*
X528210D01*
G01X539680Y-24500D02*
X542780D01*
Y-28250D01*
X541850Y-29500D01*
X540765Y-30333D01*
X539215Y-30750D01*
X537665Y-30333D01*
X536580Y-29500D01*
X535650Y-28250D01*
X535030Y-26792D01*
X534720Y-25125D01*
Y-23667D01*
X535030Y-22417D01*
X535650Y-20958D01*
X536580Y-19708D01*
X537510Y-18875D01*
X538750Y-18250D01*
X539835D01*
X541075Y-18667D01*
X542005Y-19500D01*
G01X547740Y-18250D02*
Y-27208D01*
X548360Y-29084D01*
X549600Y-30333D01*
X551150Y-30750D01*
X552700Y-30333D01*
X553940Y-29084D01*
X554560Y-27208D01*
Y-18250D01*
G01X560450Y-30750D02*
Y-18250D01*
X564325D01*
X565565Y-18875D01*
X566340Y-19708D01*
X566650Y-21375D01*
X566340Y-23042D01*
X565410Y-24083D01*
X564325Y-24709D01*
X560450D01*
G01X564325D02*
X566650Y-30750D01*
G01X579050D02*
X572850D01*
Y-18250D01*
X579050D01*
G01X576570Y-24292D02*
X572850D01*
G01X500000Y-37000D02*
X1197500D01*
G01X500000Y-12000D02*
X1197500D01*
G01X500000Y13000D02*
X1197500D01*
G01X548400Y-416300D02*
Y-236300D01*
X1328400D01*
G01X548400Y-266300D02*
X908400D01*
G01X589900Y-12000D02*
Y-137000D01*
G01X613305Y-30750D02*
Y-18250D01*
X619195D01*
G01X617025Y-24292D02*
X613305D01*
G01X626790Y-18250D02*
X630510D01*
G01X628650D02*
Y-30750D01*
G01X626790D02*
X630510D01*
G01X637485D02*
Y-18250D01*
X644615Y-30750D01*
Y-18250D01*
G01X651590D02*
X655310D01*
G01X653450D02*
Y-30750D01*
G01X651590D02*
X655310D01*
G01X662595Y-29084D02*
X663835Y-30125D01*
X665230Y-30750D01*
X666470D01*
X667710Y-30125D01*
X668640Y-29084D01*
X669105Y-27625D01*
X668795Y-26167D01*
X668020Y-24917D01*
X666625Y-24083D01*
X664765Y-23667D01*
X663680Y-22834D01*
X663215Y-21375D01*
X663525Y-19917D01*
X664300Y-18875D01*
X665385Y-18250D01*
X666470D01*
X667555Y-18667D01*
X668485Y-19708D01*
G01X674995Y-30750D02*
Y-18250D01*
G01X681505D02*
Y-30750D01*
G01Y-24500D02*
X674995D01*
G01X693750Y-30750D02*
X687550D01*
Y-18250D01*
X693750D01*
G01X691270Y-24292D02*
X687550D01*
G01X699640Y-30750D02*
Y-18250D01*
X702740D01*
X703980Y-18875D01*
X704910Y-19708D01*
X705685Y-20958D01*
X706305Y-22417D01*
X706460Y-24500D01*
X706305Y-26584D01*
X705685Y-28042D01*
X704910Y-29292D01*
X703980Y-30125D01*
X702740Y-30750D01*
X699640D01*
G01X710800Y-34916D02*
X720100D01*
G01X724595Y-29084D02*
X725835Y-30125D01*
X727230Y-30750D01*
X728470D01*
X729710Y-30125D01*
X730640Y-29084D01*
X731105Y-27625D01*
X730795Y-26167D01*
X730020Y-24917D01*
X728625Y-24083D01*
X726765Y-23667D01*
X725680Y-22834D01*
X725215Y-21375D01*
X725525Y-19917D01*
X726300Y-18875D01*
X727385Y-18250D01*
X728470D01*
X729555Y-18667D01*
X730485Y-19708D01*
G01X738390Y-18250D02*
X742110D01*
G01X740250D02*
Y-30750D01*
G01X738390D02*
X742110D01*
G01X749705Y-18250D02*
X755595D01*
X749705Y-30750D01*
X755595D01*
G01X768150D02*
X761950D01*
Y-18250D01*
X768150D01*
G01X765670Y-24292D02*
X761950D01*
G01X656705Y-120333D02*
X657635Y-119084D01*
X658720Y-118458D01*
X659960Y-118250D01*
X661510Y-118667D01*
X662595Y-119708D01*
X662905Y-120958D01*
X662750Y-122209D01*
X662130Y-123250D01*
X659030Y-125333D01*
X657635Y-126792D01*
X656705Y-128875D01*
X656395Y-130750D01*
X662905D01*
G01X672050D02*
Y-118250D01*
X670190Y-120750D01*
G01Y-130750D02*
X673910D01*
G01X684450Y-131167D02*
X684140Y-130958D01*
Y-130542D01*
X684450Y-130333D01*
X684760Y-130542D01*
Y-130958D01*
X684450Y-131167D01*
G01X693905Y-125542D02*
X694990Y-124083D01*
X695920Y-123250D01*
X697160Y-122834D01*
X698245Y-123250D01*
X699020Y-124083D01*
X699640Y-125333D01*
X699795Y-126792D01*
X699640Y-128042D01*
X699020Y-129292D01*
X698090Y-130333D01*
X697005Y-130750D01*
X695765Y-130333D01*
X694680Y-129084D01*
X694060Y-127208D01*
X693905Y-125125D01*
X694215Y-122417D01*
X694680Y-120958D01*
X695455Y-119500D01*
X696540Y-118458D01*
X697625Y-118250D01*
X698710Y-118667D01*
X699485Y-119708D01*
G01X705840Y-128875D02*
X706770Y-129917D01*
X707855Y-130542D01*
X709250Y-130750D01*
X710645Y-130333D01*
X711730Y-129500D01*
X712505Y-128042D01*
X712660Y-126375D01*
X712350Y-124708D01*
X711575Y-123667D01*
X710490Y-122834D01*
X709405Y-122625D01*
X708320Y-122834D01*
X706925Y-123667D01*
X707390Y-118250D01*
X711575D01*
G01X723510Y-130750D02*
Y-118250D01*
X717775Y-127208D01*
X725525D01*
G01X661510Y-105750D02*
Y-93250D01*
X655775Y-102208D01*
X663525D01*
G01X672050Y-93250D02*
X670810Y-93667D01*
X669880Y-94708D01*
X669260Y-95958D01*
X668795Y-97625D01*
X668640Y-99500D01*
X668795Y-101375D01*
X669260Y-103042D01*
X669880Y-104292D01*
X670810Y-105333D01*
X672050Y-105750D01*
X673290Y-105333D01*
X674220Y-104292D01*
X674840Y-103042D01*
X675305Y-101375D01*
X675460Y-99500D01*
X675305Y-97625D01*
X674840Y-95958D01*
X674220Y-94708D01*
X673290Y-93667D01*
X672050Y-93250D01*
G01X684450Y-106167D02*
X684140Y-105958D01*
Y-105542D01*
X684450Y-105333D01*
X684760Y-105542D01*
Y-105958D01*
X684450Y-106167D01*
G01X696850Y-105750D02*
Y-93250D01*
X694990Y-95750D01*
G01Y-105750D02*
X698710D01*
G01X705840Y-103875D02*
X706770Y-104917D01*
X707855Y-105542D01*
X709250Y-105750D01*
X710645Y-105333D01*
X711730Y-104500D01*
X712505Y-103042D01*
X712660Y-101375D01*
X712350Y-99709D01*
X711575Y-98667D01*
X710490Y-97834D01*
X709405Y-97625D01*
X708320Y-97834D01*
X706925Y-98667D01*
X707390Y-93250D01*
X711575D01*
G01X721340Y-105750D02*
X721650Y-103042D01*
X722115Y-100750D01*
X722735Y-98667D01*
X723510Y-96375D01*
X724750Y-93250D01*
X718550D01*
G01X669105Y-70333D02*
X670035Y-69084D01*
X671120Y-68458D01*
X672360Y-68250D01*
X673910Y-68667D01*
X674995Y-69708D01*
X675305Y-70958D01*
X675150Y-72209D01*
X674530Y-73250D01*
X671430Y-75333D01*
X670035Y-76792D01*
X669105Y-78875D01*
X668795Y-80750D01*
X675305D01*
G01X684450Y-68250D02*
X683210Y-68667D01*
X682280Y-69708D01*
X681660Y-70958D01*
X681195Y-72625D01*
X681040Y-74500D01*
X681195Y-76375D01*
X681660Y-78042D01*
X682280Y-79292D01*
X683210Y-80333D01*
X684450Y-80750D01*
X685690Y-80333D01*
X686620Y-79292D01*
X687240Y-78042D01*
X687705Y-76375D01*
X687860Y-74500D01*
X687705Y-72625D01*
X687240Y-70958D01*
X686620Y-69708D01*
X685690Y-68667D01*
X684450Y-68250D01*
G01X696850Y-81167D02*
X696540Y-80958D01*
Y-80542D01*
X696850Y-80333D01*
X697160Y-80542D01*
Y-80958D01*
X696850Y-81167D01*
G01X709250Y-68250D02*
X708010Y-68667D01*
X707080Y-69708D01*
X706460Y-70958D01*
X705995Y-72625D01*
X705840Y-74500D01*
X705995Y-76375D01*
X706460Y-78042D01*
X707080Y-79292D01*
X708010Y-80333D01*
X709250Y-80750D01*
X710490Y-80333D01*
X711420Y-79292D01*
X712040Y-78042D01*
X712505Y-76375D01*
X712660Y-74500D01*
X712505Y-72625D01*
X712040Y-70958D01*
X711420Y-69708D01*
X710490Y-68667D01*
X709250Y-68250D01*
G01X672050Y-55750D02*
Y-43250D01*
X670190Y-45750D01*
G01Y-55750D02*
X673910D01*
G01X681505Y-45333D02*
X682435Y-44084D01*
X683520Y-43458D01*
X684760Y-43250D01*
X686310Y-43667D01*
X687395Y-44708D01*
X687705Y-45958D01*
X687550Y-47209D01*
X686930Y-48250D01*
X683830Y-50333D01*
X682435Y-51792D01*
X681505Y-53875D01*
X681195Y-55750D01*
X687705D01*
G01X696850Y-56167D02*
X696540Y-55958D01*
Y-55542D01*
X696850Y-55333D01*
X697160Y-55542D01*
Y-55958D01*
X696850Y-56167D01*
G01X709250Y-43250D02*
X708010Y-43667D01*
X707080Y-44708D01*
X706460Y-45958D01*
X705995Y-47625D01*
X705840Y-49500D01*
X705995Y-51375D01*
X706460Y-53042D01*
X707080Y-54292D01*
X708010Y-55333D01*
X709250Y-55750D01*
X710490Y-55333D01*
X711420Y-54292D01*
X712040Y-53042D01*
X712505Y-51375D01*
X712660Y-49500D01*
X712505Y-47625D01*
X712040Y-45958D01*
X711420Y-44708D01*
X710490Y-43667D01*
X709250Y-43250D01*
G01X690340Y19250D02*
Y31750D01*
X693440D01*
X694680Y31125D01*
X695610Y30292D01*
X696385Y29042D01*
X697005Y27583D01*
X697160Y25500D01*
X697005Y23416D01*
X696385Y21958D01*
X695610Y20708D01*
X694680Y19875D01*
X693440Y19250D01*
X690340D01*
G01X703050D02*
Y31750D01*
X706925D01*
X708165Y31125D01*
X708940Y30292D01*
X709250Y28625D01*
X708940Y26958D01*
X708010Y25917D01*
X706925Y25292D01*
X703050D01*
G01X706925D02*
X709250Y19250D01*
G01X716690Y31750D02*
X720410D01*
G01X718550D02*
Y19250D01*
G01X716690D02*
X720410D01*
G01X727850Y31750D02*
Y19250D01*
X734050D01*
G01X740250Y31750D02*
Y19250D01*
X746450D01*
G01X771560Y30708D02*
X770630Y31333D01*
X769545Y31750D01*
X768305D01*
X766910Y31125D01*
X765825Y30083D01*
X765050Y28833D01*
X764430Y26750D01*
X764275Y24875D01*
X764585Y23000D01*
X765050Y21750D01*
X765980Y20500D01*
X767065Y19667D01*
X768150Y19250D01*
X769235D01*
X770320Y19667D01*
X771250Y20291D01*
X772025Y21125D01*
G01X777295Y19250D02*
Y31750D01*
G01X783805D02*
Y19250D01*
G01Y25500D02*
X777295D01*
G01X789075Y19250D02*
X792950Y31750D01*
X796825Y19250D01*
G01X795430Y23625D02*
X790470D01*
G01X802250Y19250D02*
Y31750D01*
X806125D01*
X807365Y31125D01*
X808140Y30292D01*
X808450Y28625D01*
X808140Y26958D01*
X807210Y25917D01*
X806125Y25292D01*
X802250D01*
G01X806125D02*
X808450Y19250D01*
G01X817750Y31750D02*
Y19250D01*
G01X814185Y31750D02*
X821315D01*
G01X830150Y18833D02*
X829840Y19042D01*
Y19458D01*
X830150Y19667D01*
X830460Y19458D01*
Y19042D01*
X830150Y18833D01*
G01Y24458D02*
X829840Y24667D01*
Y25083D01*
X830150Y25292D01*
X830460Y25083D01*
Y24667D01*
X830150Y24458D01*
G01X854950Y31750D02*
Y19250D01*
G01X851385Y31750D02*
X858515D01*
G01X867350Y19250D02*
X866110Y19458D01*
X865025Y20291D01*
X864095Y21542D01*
X863475Y23000D01*
X863165Y24667D01*
Y26333D01*
X863475Y28000D01*
X864095Y29458D01*
X865025Y30708D01*
X866110Y31542D01*
X867350Y31750D01*
X868590Y31542D01*
X869675Y30708D01*
X870605Y29458D01*
X871225Y28000D01*
X871535Y26333D01*
Y24667D01*
X871225Y23000D01*
X870605Y21542D01*
X869675Y20291D01*
X868590Y19458D01*
X867350Y19250D01*
G01X876650D02*
Y31750D01*
X880370D01*
X881610Y31125D01*
X882540Y29667D01*
X882850Y28000D01*
X882540Y26333D01*
X881765Y25083D01*
X880370Y24458D01*
X876650D01*
G01X904550Y31750D02*
Y19250D01*
G01X902380Y27583D02*
X906720D01*
G01X916950Y19250D02*
X916020Y19458D01*
X915090Y20291D01*
X914470Y21750D01*
X914160Y23416D01*
X914470Y25083D01*
X915090Y26542D01*
X916020Y27375D01*
X916950Y27583D01*
X917880Y27375D01*
X918810Y26542D01*
X919430Y25083D01*
X919585Y23416D01*
X919430Y21750D01*
X918810Y20291D01*
X917880Y19458D01*
X916950Y19250D01*
G01X942990Y25917D02*
X943610Y26542D01*
X944075Y27583D01*
X944385Y29042D01*
X944075Y30292D01*
X943455Y31125D01*
X942370Y31750D01*
X938185D01*
Y19250D01*
X943300D01*
X944385Y20083D01*
X945005Y21333D01*
X945315Y22792D01*
X945005Y24250D01*
X944075Y25500D01*
X942990Y25917D01*
X938185D01*
G01X954150Y19250D02*
X952910Y19458D01*
X951825Y20291D01*
X950895Y21542D01*
X950275Y23000D01*
X949965Y24667D01*
Y26333D01*
X950275Y28000D01*
X950895Y29458D01*
X951825Y30708D01*
X952910Y31542D01*
X954150Y31750D01*
X955390Y31542D01*
X956475Y30708D01*
X957405Y29458D01*
X958025Y28000D01*
X958335Y26333D01*
Y24667D01*
X958025Y23000D01*
X957405Y21542D01*
X956475Y20291D01*
X955390Y19458D01*
X954150Y19250D01*
G01X966550Y31750D02*
Y19250D01*
G01X962985Y31750D02*
X970115D01*
G01X978950D02*
Y19250D01*
G01X975385Y31750D02*
X982515D01*
G01X991350Y19250D02*
X990110Y19458D01*
X989025Y20291D01*
X988095Y21542D01*
X987475Y23000D01*
X987165Y24667D01*
Y26333D01*
X987475Y28000D01*
X988095Y29458D01*
X989025Y30708D01*
X990110Y31542D01*
X991350Y31750D01*
X992590Y31542D01*
X993675Y30708D01*
X994605Y29458D01*
X995225Y28000D01*
X995535Y26333D01*
Y24667D01*
X995225Y23000D01*
X994605Y21542D01*
X993675Y20291D01*
X992590Y19458D01*
X991350Y19250D01*
G01X999720D02*
Y31750D01*
X1003750Y21333D01*
X1007780Y31750D01*
Y19250D01*
G01X698400Y-236300D02*
Y-416300D01*
G01Y-381300D02*
X908400D01*
G01X698400Y-356300D02*
X908400D01*
G01X698400Y-326300D02*
X908400D01*
G01X698400Y-296300D02*
X908400D01*
G01X720875Y-5750D02*
X724750Y6750D01*
X728625Y-5750D01*
G01X727230Y-1375D02*
X722270D01*
G01X734050Y6750D02*
Y-5750D01*
X740250D01*
G01X746450Y6750D02*
Y-5750D01*
X752650D01*
G01X770940Y6750D02*
Y-2208D01*
X771560Y-4084D01*
X772800Y-5333D01*
X774350Y-5750D01*
X775900Y-5333D01*
X777140Y-4084D01*
X777760Y-2208D01*
Y6750D01*
G01X783185Y-5750D02*
Y6750D01*
X790315Y-5750D01*
Y6750D01*
G01X797290D02*
X801010D01*
G01X799150D02*
Y-5750D01*
G01X797290D02*
X801010D01*
G01X811550Y6750D02*
Y-5750D01*
G01X807985Y6750D02*
X815115D01*
G01X820695Y-4084D02*
X821935Y-5125D01*
X823330Y-5750D01*
X824570D01*
X825810Y-5125D01*
X826740Y-4084D01*
X827205Y-2625D01*
X826895Y-1167D01*
X826120Y83D01*
X824725Y917D01*
X822865Y1333D01*
X821780Y2166D01*
X821315Y3625D01*
X821625Y5083D01*
X822400Y6125D01*
X823485Y6750D01*
X824570D01*
X825655Y6333D01*
X826585Y5292D01*
G01X844875Y-5750D02*
X848750Y6750D01*
X852625Y-5750D01*
G01X851230Y-1375D02*
X846270D01*
G01X858050Y-5750D02*
Y6750D01*
X861925D01*
X863165Y6125D01*
X863940Y5292D01*
X864250Y3625D01*
X863940Y1958D01*
X863010Y917D01*
X861925Y292D01*
X858050D01*
G01X861925D02*
X864250Y-5750D01*
G01X876650D02*
X870450D01*
Y6750D01*
X876650D01*
G01X874170Y708D02*
X870450D01*
G01X896490Y6750D02*
X900210D01*
G01X898350D02*
Y-5750D01*
G01X896490D02*
X900210D01*
G01X907185D02*
Y6750D01*
X914315Y-5750D01*
Y6750D01*
G01X931520Y-5750D02*
Y6750D01*
X935550Y-3667D01*
X939580Y6750D01*
Y-5750D01*
G01X946090Y6750D02*
X949810D01*
G01X947950D02*
Y-5750D01*
G01X946090D02*
X949810D01*
G01X957250Y6750D02*
Y-5750D01*
X963450D01*
G01X969495Y-4084D02*
X970735Y-5125D01*
X972130Y-5750D01*
X973370D01*
X974610Y-5125D01*
X975540Y-4084D01*
X976005Y-2625D01*
X975695Y-1167D01*
X974920Y83D01*
X973525Y917D01*
X971665Y1333D01*
X970580Y2166D01*
X970115Y3625D01*
X970425Y5083D01*
X971200Y6125D01*
X972285Y6750D01*
X973370D01*
X974455Y6333D01*
X975385Y5292D01*
G01X741605Y-252960D02*
X742232Y-253485D01*
X742937Y-253800D01*
X743563D01*
X744190Y-253485D01*
X744660Y-252960D01*
X744895Y-252225D01*
X744738Y-251490D01*
X744347Y-250860D01*
X743642Y-250440D01*
X742702Y-250230D01*
X742153Y-249810D01*
X741918Y-249075D01*
X742075Y-248340D01*
X742467Y-247815D01*
X743015Y-247500D01*
X743563D01*
X744112Y-247710D01*
X744582Y-248235D01*
G01X748610Y-247500D02*
X750490D01*
G01X749550D02*
Y-253800D01*
G01X748610D02*
X750490D01*
G01X756320Y-250650D02*
X757887D01*
Y-252540D01*
X757417Y-253170D01*
X756868Y-253590D01*
X756085Y-253800D01*
X755302Y-253590D01*
X754753Y-253170D01*
X754283Y-252540D01*
X753970Y-251805D01*
X753813Y-250965D01*
Y-250230D01*
X753970Y-249600D01*
X754283Y-248865D01*
X754753Y-248235D01*
X755223Y-247815D01*
X755850Y-247500D01*
X756398D01*
X757025Y-247710D01*
X757495Y-248130D01*
G01X760348Y-253800D02*
Y-247500D01*
X763952Y-253800D01*
Y-247500D01*
G01X766492Y-253800D02*
X768450Y-247500D01*
X770408Y-253800D01*
G01X769703Y-251595D02*
X767197D01*
G01X774750Y-247500D02*
Y-253800D01*
G01X772948Y-247500D02*
X776552D01*
G01X779327D02*
Y-252015D01*
X779640Y-252960D01*
X780267Y-253590D01*
X781050Y-253800D01*
X781833Y-253590D01*
X782460Y-252960D01*
X782773Y-252015D01*
Y-247500D01*
G01X785783Y-253800D02*
Y-247500D01*
X787742D01*
X788368Y-247815D01*
X788760Y-248235D01*
X788917Y-249075D01*
X788760Y-249915D01*
X788290Y-250440D01*
X787742Y-250755D01*
X785783D01*
G01X787742D02*
X788917Y-253800D01*
G01X795217D02*
X792083D01*
Y-247500D01*
X795217D01*
G01X793963Y-250545D02*
X792083D01*
G01X798305Y-252960D02*
X798932Y-253485D01*
X799637Y-253800D01*
X800263D01*
X800890Y-253485D01*
X801360Y-252960D01*
X801595Y-252225D01*
X801438Y-251490D01*
X801047Y-250860D01*
X800342Y-250440D01*
X799402Y-250230D01*
X798853Y-249810D01*
X798618Y-249075D01*
X798775Y-248340D01*
X799167Y-247815D01*
X799715Y-247500D01*
X800263D01*
X800812Y-247710D01*
X801282Y-248235D01*
G01X791400Y-12000D02*
Y-137000D01*
G01X805350Y-18250D02*
Y-30750D01*
G01X801785Y-18250D02*
X808915D01*
G01X817750Y-30750D02*
X816510Y-30542D01*
X815425Y-29709D01*
X814495Y-28458D01*
X813875Y-27000D01*
X813565Y-25333D01*
Y-23667D01*
X813875Y-22000D01*
X814495Y-20542D01*
X815425Y-19292D01*
X816510Y-18458D01*
X817750Y-18250D01*
X818990Y-18458D01*
X820075Y-19292D01*
X821005Y-20542D01*
X821625Y-22000D01*
X821935Y-23667D01*
Y-25333D01*
X821625Y-27000D01*
X821005Y-28458D01*
X820075Y-29709D01*
X818990Y-30542D01*
X817750Y-30750D01*
G01X827050Y-18250D02*
Y-30750D01*
X833250D01*
G01X845650D02*
X839450D01*
Y-18250D01*
X845650D01*
G01X843170Y-24292D02*
X839450D01*
G01X851850Y-30750D02*
Y-18250D01*
X855725D01*
X856965Y-18875D01*
X857740Y-19708D01*
X858050Y-21375D01*
X857740Y-23042D01*
X856810Y-24083D01*
X855725Y-24709D01*
X851850D01*
G01X855725D02*
X858050Y-30750D01*
G01X863475D02*
X867350Y-18250D01*
X871225Y-30750D01*
G01X869830Y-26375D02*
X864870D01*
G01X876185Y-30750D02*
Y-18250D01*
X883315Y-30750D01*
Y-18250D01*
G01X895560Y-19292D02*
X894630Y-18667D01*
X893545Y-18250D01*
X892305D01*
X890910Y-18875D01*
X889825Y-19917D01*
X889050Y-21167D01*
X888430Y-23250D01*
X888275Y-25125D01*
X888585Y-27000D01*
X889050Y-28250D01*
X889980Y-29500D01*
X891065Y-30333D01*
X892150Y-30750D01*
X893235D01*
X894320Y-30333D01*
X895250Y-29709D01*
X896025Y-28875D01*
G01X907650Y-30750D02*
X901450D01*
Y-18250D01*
X907650D01*
G01X905170Y-24292D02*
X901450D01*
G01X912300Y-34916D02*
X921600D01*
G01X925940Y-30750D02*
Y-18250D01*
X929040D01*
X930280Y-18875D01*
X931210Y-19708D01*
X931985Y-20958D01*
X932605Y-22417D01*
X932760Y-24500D01*
X932605Y-26584D01*
X931985Y-28042D01*
X931210Y-29292D01*
X930280Y-30125D01*
X929040Y-30750D01*
X925940D01*
G01X938650D02*
Y-18250D01*
X942525D01*
X943765Y-18875D01*
X944540Y-19708D01*
X944850Y-21375D01*
X944540Y-23042D01*
X943610Y-24083D01*
X942525Y-24709D01*
X938650D01*
G01X942525D02*
X944850Y-30750D01*
G01X952290Y-18250D02*
X956010D01*
G01X954150D02*
Y-30750D01*
G01X952290D02*
X956010D01*
G01X963450Y-18250D02*
Y-30750D01*
X969650D01*
G01X975850Y-18250D02*
Y-30750D01*
X982050D01*
G01X828400Y-353800D02*
Y-236300D01*
G01Y-353800D02*
Y-356300D01*
G01X818000Y212540D02*
Y395540D01*
X878000D01*
Y212540D01*
X818000D01*
G01X828400Y533700D02*
Y503700D01*
G01Y623700D02*
Y533700D01*
G01Y563700D02*
X1328400D01*
G01X834650Y573700D02*
Y583700D01*
X837775D01*
X838775Y583200D01*
X839400Y582533D01*
X839650Y581200D01*
X839400Y579867D01*
X838650Y579033D01*
X837775Y578533D01*
X834650D01*
G01X837775D02*
X839650Y573700D01*
G01X849650D02*
X844650D01*
Y583700D01*
X849650D01*
G01X847650Y578867D02*
X844650D01*
G01X854025Y583700D02*
X857150Y573700D01*
X860275Y583700D01*
G01X828400Y593700D02*
X1328400D01*
G01X854027Y-253800D02*
Y-247500D01*
X855593D01*
X856220Y-247815D01*
X856690Y-248235D01*
X857082Y-248865D01*
X857395Y-249600D01*
X857473Y-250650D01*
X857395Y-251700D01*
X857082Y-252435D01*
X856690Y-253065D01*
X856220Y-253485D01*
X855593Y-253800D01*
X854027D01*
G01X860092D02*
X862050Y-247500D01*
X864008Y-253800D01*
G01X863303Y-251595D02*
X860797D01*
G01X868350Y-247500D02*
Y-253800D01*
G01X866548Y-247500D02*
X870152D01*
G01X876217Y-253800D02*
X873083D01*
Y-247500D01*
X876217D01*
G01X874963Y-250545D02*
X873083D01*
G01X840845Y-126584D02*
X844565D01*
G01X842550Y-123875D02*
Y-129292D01*
G01X851540Y-128250D02*
X852470Y-129709D01*
X853710Y-130542D01*
X855105Y-130750D01*
X856345Y-130542D01*
X857585Y-129500D01*
X858360Y-128250D01*
X858515Y-127000D01*
X858205Y-125542D01*
X857120Y-124500D01*
X856035Y-124083D01*
X854640D01*
G01X856035D02*
X856965Y-123458D01*
X857740Y-122417D01*
X858050Y-121167D01*
X857740Y-119917D01*
X856965Y-118875D01*
X855570Y-118250D01*
X854175Y-118458D01*
X852780Y-119292D01*
G01X867350Y-131167D02*
X867040Y-130958D01*
Y-130542D01*
X867350Y-130333D01*
X867660Y-130542D01*
Y-130958D01*
X867350Y-131167D01*
G01X879750Y-118250D02*
X878510Y-118667D01*
X877580Y-119708D01*
X876960Y-120958D01*
X876495Y-122625D01*
X876340Y-124500D01*
X876495Y-126375D01*
X876960Y-128042D01*
X877580Y-129292D01*
X878510Y-130333D01*
X879750Y-130750D01*
X880990Y-130333D01*
X881920Y-129292D01*
X882540Y-128042D01*
X883005Y-126375D01*
X883160Y-124500D01*
X883005Y-122625D01*
X882540Y-120958D01*
X881920Y-119708D01*
X880990Y-118667D01*
X879750Y-118250D01*
G01X889360Y-131167D02*
X894940Y-118250D01*
G01X902535Y-126584D02*
X906565D01*
G01X913540Y-128250D02*
X914470Y-129709D01*
X915710Y-130542D01*
X917105Y-130750D01*
X918345Y-130542D01*
X919585Y-129500D01*
X920360Y-128250D01*
X920515Y-127000D01*
X920205Y-125542D01*
X919120Y-124500D01*
X918035Y-124083D01*
X916640D01*
G01X918035D02*
X918965Y-123458D01*
X919740Y-122417D01*
X920050Y-121167D01*
X919740Y-119917D01*
X918965Y-118875D01*
X917570Y-118250D01*
X916175Y-118458D01*
X914780Y-119292D01*
G01X929350Y-131167D02*
X929040Y-130958D01*
Y-130542D01*
X929350Y-130333D01*
X929660Y-130542D01*
Y-130958D01*
X929350Y-131167D01*
G01X941750Y-118250D02*
X940510Y-118667D01*
X939580Y-119708D01*
X938960Y-120958D01*
X938495Y-122625D01*
X938340Y-124500D01*
X938495Y-126375D01*
X938960Y-128042D01*
X939580Y-129292D01*
X940510Y-130333D01*
X941750Y-130750D01*
X942990Y-130333D01*
X943920Y-129292D01*
X944540Y-128042D01*
X945005Y-126375D01*
X945160Y-124500D01*
X945005Y-122625D01*
X944540Y-120958D01*
X943920Y-119708D01*
X942990Y-118667D01*
X941750Y-118250D01*
G01X840845Y-101584D02*
X844565D01*
G01X842550Y-98875D02*
Y-104292D01*
G01X851540Y-103250D02*
X852470Y-104709D01*
X853710Y-105542D01*
X855105Y-105750D01*
X856345Y-105542D01*
X857585Y-104500D01*
X858360Y-103250D01*
X858515Y-102000D01*
X858205Y-100542D01*
X857120Y-99500D01*
X856035Y-99083D01*
X854640D01*
G01X856035D02*
X856965Y-98458D01*
X857740Y-97417D01*
X858050Y-96167D01*
X857740Y-94917D01*
X856965Y-93875D01*
X855570Y-93250D01*
X854175Y-93458D01*
X852780Y-94292D01*
G01X867350Y-106167D02*
X867040Y-105958D01*
Y-105542D01*
X867350Y-105333D01*
X867660Y-105542D01*
Y-105958D01*
X867350Y-106167D01*
G01X879750Y-93250D02*
X878510Y-93667D01*
X877580Y-94708D01*
X876960Y-95958D01*
X876495Y-97625D01*
X876340Y-99500D01*
X876495Y-101375D01*
X876960Y-103042D01*
X877580Y-104292D01*
X878510Y-105333D01*
X879750Y-105750D01*
X880990Y-105333D01*
X881920Y-104292D01*
X882540Y-103042D01*
X883005Y-101375D01*
X883160Y-99500D01*
X883005Y-97625D01*
X882540Y-95958D01*
X881920Y-94708D01*
X880990Y-93667D01*
X879750Y-93250D01*
G01X889360Y-106167D02*
X894940Y-93250D01*
G01X902535Y-101584D02*
X906565D01*
G01X913540Y-103250D02*
X914470Y-104709D01*
X915710Y-105542D01*
X917105Y-105750D01*
X918345Y-105542D01*
X919585Y-104500D01*
X920360Y-103250D01*
X920515Y-102000D01*
X920205Y-100542D01*
X919120Y-99500D01*
X918035Y-99083D01*
X916640D01*
G01X918035D02*
X918965Y-98458D01*
X919740Y-97417D01*
X920050Y-96167D01*
X919740Y-94917D01*
X918965Y-93875D01*
X917570Y-93250D01*
X916175Y-93458D01*
X914780Y-94292D01*
G01X929350Y-106167D02*
X929040Y-105958D01*
Y-105542D01*
X929350Y-105333D01*
X929660Y-105542D01*
Y-105958D01*
X929350Y-106167D01*
G01X941750Y-93250D02*
X940510Y-93667D01*
X939580Y-94708D01*
X938960Y-95958D01*
X938495Y-97625D01*
X938340Y-99500D01*
X938495Y-101375D01*
X938960Y-103042D01*
X939580Y-104292D01*
X940510Y-105333D01*
X941750Y-105750D01*
X942990Y-105333D01*
X943920Y-104292D01*
X944540Y-103042D01*
X945005Y-101375D01*
X945160Y-99500D01*
X945005Y-97625D01*
X944540Y-95958D01*
X943920Y-94708D01*
X942990Y-93667D01*
X941750Y-93250D01*
G01X840845Y-76584D02*
X844565D01*
G01X842550Y-73875D02*
Y-79292D01*
G01X851540Y-78250D02*
X852470Y-79709D01*
X853710Y-80542D01*
X855105Y-80750D01*
X856345Y-80542D01*
X857585Y-79500D01*
X858360Y-78250D01*
X858515Y-77000D01*
X858205Y-75542D01*
X857120Y-74500D01*
X856035Y-74083D01*
X854640D01*
G01X856035D02*
X856965Y-73458D01*
X857740Y-72417D01*
X858050Y-71167D01*
X857740Y-69917D01*
X856965Y-68875D01*
X855570Y-68250D01*
X854175Y-68458D01*
X852780Y-69292D01*
G01X867350Y-81167D02*
X867040Y-80958D01*
Y-80542D01*
X867350Y-80333D01*
X867660Y-80542D01*
Y-80958D01*
X867350Y-81167D01*
G01X879750Y-68250D02*
X878510Y-68667D01*
X877580Y-69708D01*
X876960Y-70958D01*
X876495Y-72625D01*
X876340Y-74500D01*
X876495Y-76375D01*
X876960Y-78042D01*
X877580Y-79292D01*
X878510Y-80333D01*
X879750Y-80750D01*
X880990Y-80333D01*
X881920Y-79292D01*
X882540Y-78042D01*
X883005Y-76375D01*
X883160Y-74500D01*
X883005Y-72625D01*
X882540Y-70958D01*
X881920Y-69708D01*
X880990Y-68667D01*
X879750Y-68250D01*
G01X889360Y-81167D02*
X894940Y-68250D01*
G01X902535Y-76584D02*
X906565D01*
G01X913540Y-78250D02*
X914470Y-79709D01*
X915710Y-80542D01*
X917105Y-80750D01*
X918345Y-80542D01*
X919585Y-79500D01*
X920360Y-78250D01*
X920515Y-77000D01*
X920205Y-75542D01*
X919120Y-74500D01*
X918035Y-74083D01*
X916640D01*
G01X918035D02*
X918965Y-73458D01*
X919740Y-72417D01*
X920050Y-71167D01*
X919740Y-69917D01*
X918965Y-68875D01*
X917570Y-68250D01*
X916175Y-68458D01*
X914780Y-69292D01*
G01X929350Y-81167D02*
X929040Y-80958D01*
Y-80542D01*
X929350Y-80333D01*
X929660Y-80542D01*
Y-80958D01*
X929350Y-81167D01*
G01X941750Y-68250D02*
X940510Y-68667D01*
X939580Y-69708D01*
X938960Y-70958D01*
X938495Y-72625D01*
X938340Y-74500D01*
X938495Y-76375D01*
X938960Y-78042D01*
X939580Y-79292D01*
X940510Y-80333D01*
X941750Y-80750D01*
X942990Y-80333D01*
X943920Y-79292D01*
X944540Y-78042D01*
X945005Y-76375D01*
X945160Y-74500D01*
X945005Y-72625D01*
X944540Y-70958D01*
X943920Y-69708D01*
X942990Y-68667D01*
X941750Y-68250D01*
G01X840845Y-51584D02*
X844565D01*
G01X842550Y-48875D02*
Y-54292D01*
G01X851540Y-53250D02*
X852470Y-54709D01*
X853710Y-55542D01*
X855105Y-55750D01*
X856345Y-55542D01*
X857585Y-54500D01*
X858360Y-53250D01*
X858515Y-52000D01*
X858205Y-50542D01*
X857120Y-49500D01*
X856035Y-49083D01*
X854640D01*
G01X856035D02*
X856965Y-48458D01*
X857740Y-47417D01*
X858050Y-46167D01*
X857740Y-44917D01*
X856965Y-43875D01*
X855570Y-43250D01*
X854175Y-43458D01*
X852780Y-44292D01*
G01X867350Y-56167D02*
X867040Y-55958D01*
Y-55542D01*
X867350Y-55333D01*
X867660Y-55542D01*
Y-55958D01*
X867350Y-56167D01*
G01X879750Y-43250D02*
X878510Y-43667D01*
X877580Y-44708D01*
X876960Y-45958D01*
X876495Y-47625D01*
X876340Y-49500D01*
X876495Y-51375D01*
X876960Y-53042D01*
X877580Y-54292D01*
X878510Y-55333D01*
X879750Y-55750D01*
X880990Y-55333D01*
X881920Y-54292D01*
X882540Y-53042D01*
X883005Y-51375D01*
X883160Y-49500D01*
X883005Y-47625D01*
X882540Y-45958D01*
X881920Y-44708D01*
X880990Y-43667D01*
X879750Y-43250D01*
G01X889360Y-56167D02*
X894940Y-43250D01*
G01X902535Y-51584D02*
X906565D01*
G01X913540Y-53250D02*
X914470Y-54709D01*
X915710Y-55542D01*
X917105Y-55750D01*
X918345Y-55542D01*
X919585Y-54500D01*
X920360Y-53250D01*
X920515Y-52000D01*
X920205Y-50542D01*
X919120Y-49500D01*
X918035Y-49083D01*
X916640D01*
G01X918035D02*
X918965Y-48458D01*
X919740Y-47417D01*
X920050Y-46167D01*
X919740Y-44917D01*
X918965Y-43875D01*
X917570Y-43250D01*
X916175Y-43458D01*
X914780Y-44292D01*
G01X929350Y-56167D02*
X929040Y-55958D01*
Y-55542D01*
X929350Y-55333D01*
X929660Y-55542D01*
Y-55958D01*
X929350Y-56167D01*
G01X941750Y-43250D02*
X940510Y-43667D01*
X939580Y-44708D01*
X938960Y-45958D01*
X938495Y-47625D01*
X938340Y-49500D01*
X938495Y-51375D01*
X938960Y-53042D01*
X939580Y-54292D01*
X940510Y-55333D01*
X941750Y-55750D01*
X942990Y-55333D01*
X943920Y-54292D01*
X944540Y-53042D01*
X945005Y-51375D01*
X945160Y-49500D01*
X945005Y-47625D01*
X944540Y-45958D01*
X943920Y-44708D01*
X942990Y-43667D01*
X941750Y-43250D01*
G01X868400Y533700D02*
Y503700D01*
G01Y533700D02*
Y593700D01*
G01X914525Y-399967D02*
X915525Y-400800D01*
X916650Y-401300D01*
X917650D01*
X918650Y-400800D01*
X919400Y-399967D01*
X919775Y-398800D01*
X919525Y-397634D01*
X918900Y-396633D01*
X917775Y-395967D01*
X916275Y-395633D01*
X915400Y-394967D01*
X915025Y-393800D01*
X915275Y-392633D01*
X915900Y-391800D01*
X916775Y-391300D01*
X917650D01*
X918525Y-391633D01*
X919275Y-392467D01*
G01X929900Y-392134D02*
X929150Y-391633D01*
X928275Y-391300D01*
X927275D01*
X926150Y-391800D01*
X925275Y-392633D01*
X924650Y-393633D01*
X924150Y-395300D01*
X924025Y-396800D01*
X924275Y-398300D01*
X924650Y-399300D01*
X925400Y-400300D01*
X926275Y-400967D01*
X927150Y-401300D01*
X928025D01*
X928900Y-400967D01*
X929650Y-400467D01*
X930275Y-399800D01*
G01X934025Y-401300D02*
X937150Y-391300D01*
X940275Y-401300D01*
G01X939150Y-397800D02*
X935150D01*
G01X944650Y-391300D02*
Y-401300D01*
X949650D01*
G01X959650D02*
X954650D01*
Y-391300D01*
X959650D01*
G01X957650Y-396133D02*
X954650D01*
G01X908400Y-236300D02*
Y-416300D01*
G01X1158400Y-386300D02*
X908400D01*
G01X914525Y-359967D02*
X915525Y-360800D01*
X916650Y-361300D01*
X917650D01*
X918650Y-360800D01*
X919400Y-359967D01*
X919775Y-358800D01*
X919525Y-357634D01*
X918900Y-356633D01*
X917775Y-355967D01*
X916275Y-355633D01*
X915400Y-354967D01*
X915025Y-353800D01*
X915275Y-352633D01*
X915900Y-351800D01*
X916775Y-351300D01*
X917650D01*
X918525Y-351633D01*
X919275Y-352467D01*
G01X925650Y-351300D02*
X928650D01*
G01X927150D02*
Y-361300D01*
G01X925650D02*
X928650D01*
G01X934775Y-351300D02*
X939525D01*
X934775Y-361300D01*
X939525D01*
G01X949650D02*
X944650D01*
Y-351300D01*
X949650D01*
G01X947650Y-356133D02*
X944650D01*
G01X1328400Y-346300D02*
X908400D01*
G01X1328400Y-286300D02*
X908400D01*
G01X939400Y573700D02*
Y583700D01*
X941900D01*
X942900Y583200D01*
X943650Y582533D01*
X944275Y581534D01*
X944775Y580366D01*
X944900Y578700D01*
X944775Y577033D01*
X944275Y575866D01*
X943650Y574866D01*
X942900Y574200D01*
X941900Y573700D01*
X939400D01*
G01X954650D02*
X949650D01*
Y583700D01*
X954650D01*
G01X952650Y578867D02*
X949650D01*
G01X959525Y575033D02*
X960525Y574200D01*
X961650Y573700D01*
X962650D01*
X963650Y574200D01*
X964400Y575033D01*
X964775Y576200D01*
X964525Y577366D01*
X963900Y578367D01*
X962775Y579033D01*
X961275Y579367D01*
X960400Y580033D01*
X960025Y581200D01*
X960275Y582367D01*
X960900Y583200D01*
X961775Y583700D01*
X962650D01*
X963525Y583367D01*
X964275Y582533D01*
G01X974900Y582866D02*
X974150Y583367D01*
X973275Y583700D01*
X972275D01*
X971150Y583200D01*
X970275Y582367D01*
X969650Y581367D01*
X969150Y579700D01*
X969025Y578200D01*
X969275Y576700D01*
X969650Y575700D01*
X970400Y574700D01*
X971275Y574033D01*
X972150Y573700D01*
X973025D01*
X973900Y574033D01*
X974650Y574533D01*
X975275Y575200D01*
G01X979650Y573700D02*
Y583700D01*
X982775D01*
X983775Y583200D01*
X984400Y582533D01*
X984650Y581200D01*
X984400Y579867D01*
X983650Y579033D01*
X982775Y578533D01*
X979650D01*
G01X982775D02*
X984650Y573700D01*
G01X990650Y583700D02*
X993650D01*
G01X992150D02*
Y573700D01*
G01X990650D02*
X993650D01*
G01X999650D02*
Y583700D01*
X1002650D01*
X1003650Y583200D01*
X1004400Y582033D01*
X1004650Y580700D01*
X1004400Y579367D01*
X1003775Y578367D01*
X1002650Y577866D01*
X999650D01*
G01X1012150Y583700D02*
Y573700D01*
G01X1009275Y583700D02*
X1015025D01*
G01X1020650D02*
X1023650D01*
G01X1022150D02*
Y573700D01*
G01X1020650D02*
X1023650D01*
G01X1032150D02*
X1031150Y573867D01*
X1030275Y574533D01*
X1029525Y575533D01*
X1029025Y576700D01*
X1028775Y578033D01*
Y579367D01*
X1029025Y580700D01*
X1029525Y581867D01*
X1030275Y582866D01*
X1031150Y583533D01*
X1032150Y583700D01*
X1033150Y583533D01*
X1034025Y582866D01*
X1034775Y581867D01*
X1035275Y580700D01*
X1035525Y579367D01*
Y578033D01*
X1035275Y576700D01*
X1034775Y575533D01*
X1034025Y574533D01*
X1033150Y573867D01*
X1032150Y573700D01*
G01X1039275D02*
Y583700D01*
X1045025Y573700D01*
Y583700D01*
G01X958400Y-386300D02*
Y-346300D01*
G01X969775Y-361300D02*
Y-351300D01*
X974525D01*
G01X972775Y-356133D02*
X969775D01*
G01X979525Y-359967D02*
X980525Y-360800D01*
X981650Y-361300D01*
X982650D01*
X983650Y-360800D01*
X984400Y-359967D01*
X984775Y-358800D01*
X984525Y-357634D01*
X983900Y-356633D01*
X982775Y-355967D01*
X981275Y-355633D01*
X980400Y-354967D01*
X980025Y-353800D01*
X980275Y-352633D01*
X980900Y-351800D01*
X981775Y-351300D01*
X982650D01*
X983525Y-351633D01*
X984275Y-352467D01*
G01X994900Y-352134D02*
X994150Y-351633D01*
X993275Y-351300D01*
X992275D01*
X991150Y-351800D01*
X990275Y-352633D01*
X989650Y-353633D01*
X989150Y-355300D01*
X989025Y-356800D01*
X989275Y-358300D01*
X989650Y-359300D01*
X990400Y-360300D01*
X991275Y-360967D01*
X992150Y-361300D01*
X993025D01*
X993900Y-360967D01*
X994650Y-360467D01*
X995275Y-359800D01*
G01X998900Y-361300D02*
Y-351300D01*
X1002150Y-359633D01*
X1005400Y-351300D01*
Y-361300D01*
G01X1019275D02*
Y-351300D01*
X1025025Y-361300D01*
Y-351300D01*
G01X1032150Y-361300D02*
X1031150Y-361133D01*
X1030275Y-360467D01*
X1029525Y-359467D01*
X1029025Y-358300D01*
X1028775Y-356967D01*
Y-355633D01*
X1029025Y-354300D01*
X1029525Y-353133D01*
X1030275Y-352134D01*
X1031150Y-351467D01*
X1032150Y-351300D01*
X1033150Y-351467D01*
X1034025Y-352134D01*
X1034775Y-353133D01*
X1035275Y-354300D01*
X1035525Y-355633D01*
Y-356967D01*
X1035275Y-358300D01*
X1034775Y-359467D01*
X1034025Y-360467D01*
X1033150Y-361133D01*
X1032150Y-361300D01*
G01X984900Y-257134D02*
X984150Y-256633D01*
X983275Y-256300D01*
X982275D01*
X981150Y-256800D01*
X980275Y-257633D01*
X979650Y-258633D01*
X979150Y-260300D01*
X979025Y-261800D01*
X979275Y-263300D01*
X979650Y-264300D01*
X980400Y-265300D01*
X981275Y-265967D01*
X982150Y-266300D01*
X983025D01*
X983900Y-265967D01*
X984650Y-265467D01*
X985275Y-264800D01*
G01X992150Y-266300D02*
X991150Y-266133D01*
X990275Y-265467D01*
X989525Y-264467D01*
X989025Y-263300D01*
X988775Y-261967D01*
Y-260633D01*
X989025Y-259300D01*
X989525Y-258133D01*
X990275Y-257134D01*
X991150Y-256467D01*
X992150Y-256300D01*
X993150Y-256467D01*
X994025Y-257134D01*
X994775Y-258133D01*
X995275Y-259300D01*
X995525Y-260633D01*
Y-261967D01*
X995275Y-263300D01*
X994775Y-264467D01*
X994025Y-265467D01*
X993150Y-266133D01*
X992150Y-266300D01*
G01X998900D02*
Y-256300D01*
X1002150Y-264633D01*
X1005400Y-256300D01*
Y-266300D01*
G01X1009650D02*
Y-256300D01*
X1012650D01*
X1013650Y-256800D01*
X1014400Y-257967D01*
X1014650Y-259300D01*
X1014400Y-260633D01*
X1013775Y-261633D01*
X1012650Y-262134D01*
X1009650D01*
G01X1019025Y-266300D02*
X1022150Y-256300D01*
X1025275Y-266300D01*
G01X1024150Y-262800D02*
X1020150D01*
G01X1029275Y-266300D02*
Y-256300D01*
X1035025Y-266300D01*
Y-256300D01*
G01X1042150Y-266300D02*
Y-261800D01*
X1039650Y-256300D01*
G01X1044650D02*
X1042150Y-261800D01*
G01X1059275Y-266300D02*
Y-256300D01*
X1065025Y-266300D01*
Y-256300D01*
G01X1069025Y-266300D02*
X1072150Y-256300D01*
X1075275Y-266300D01*
G01X1074150Y-262800D02*
X1070150D01*
G01X1078900Y-266300D02*
Y-256300D01*
X1082150Y-264633D01*
X1085400Y-256300D01*
Y-266300D01*
G01X1094650D02*
X1089650D01*
Y-256300D01*
X1094650D01*
G01X1092650Y-261133D02*
X1089650D01*
G01X1109025Y-266300D02*
X1112150Y-256300D01*
X1115275Y-266300D01*
G01X1114150Y-262800D02*
X1110150D01*
G01X1119275Y-266300D02*
Y-256300D01*
X1125025Y-266300D01*
Y-256300D01*
G01X1129400Y-266300D02*
Y-256300D01*
X1131900D01*
X1132900Y-256800D01*
X1133650Y-257467D01*
X1134275Y-258467D01*
X1134775Y-259634D01*
X1134900Y-261300D01*
X1134775Y-262967D01*
X1134275Y-264134D01*
X1133650Y-265134D01*
X1132900Y-265800D01*
X1131900Y-266300D01*
X1129400D01*
G01X1149025D02*
X1152150Y-256300D01*
X1155275Y-266300D01*
G01X1154150Y-262800D02*
X1150150D01*
G01X1159400Y-266300D02*
Y-256300D01*
X1161900D01*
X1162900Y-256800D01*
X1163650Y-257467D01*
X1164275Y-258467D01*
X1164775Y-259634D01*
X1164900Y-261300D01*
X1164775Y-262967D01*
X1164275Y-264134D01*
X1163650Y-265134D01*
X1162900Y-265800D01*
X1161900Y-266300D01*
X1159400D01*
G01X1169400D02*
Y-256300D01*
X1171900D01*
X1172900Y-256800D01*
X1173650Y-257467D01*
X1174275Y-258467D01*
X1174775Y-259634D01*
X1174900Y-261300D01*
X1174775Y-262967D01*
X1174275Y-264134D01*
X1173650Y-265134D01*
X1172900Y-265800D01*
X1171900Y-266300D01*
X1169400D01*
G01X1179650D02*
Y-256300D01*
X1182775D01*
X1183775Y-256800D01*
X1184400Y-257467D01*
X1184650Y-258800D01*
X1184400Y-260133D01*
X1183650Y-260967D01*
X1182775Y-261467D01*
X1179650D01*
G01X1182775D02*
X1184650Y-266300D01*
G01X1194650D02*
X1189650D01*
Y-256300D01*
X1194650D01*
G01X1192650Y-261133D02*
X1189650D01*
G01X1199525Y-264967D02*
X1200525Y-265800D01*
X1201650Y-266300D01*
X1202650D01*
X1203650Y-265800D01*
X1204400Y-264967D01*
X1204775Y-263800D01*
X1204525Y-262634D01*
X1203900Y-261633D01*
X1202775Y-260967D01*
X1201275Y-260633D01*
X1200400Y-259967D01*
X1200025Y-258800D01*
X1200275Y-257633D01*
X1200900Y-256800D01*
X1201775Y-256300D01*
X1202650D01*
X1203525Y-256633D01*
X1204275Y-257467D01*
G01X1209525Y-264967D02*
X1210525Y-265800D01*
X1211650Y-266300D01*
X1212650D01*
X1213650Y-265800D01*
X1214400Y-264967D01*
X1214775Y-263800D01*
X1214525Y-262634D01*
X1213900Y-261633D01*
X1212775Y-260967D01*
X1211275Y-260633D01*
X1210400Y-259967D01*
X1210025Y-258800D01*
X1210275Y-257633D01*
X1210900Y-256800D01*
X1211775Y-256300D01*
X1212650D01*
X1213525Y-256633D01*
X1214275Y-257467D01*
G01X998400Y-386300D02*
Y-416300D01*
G01X997085Y-130750D02*
Y-118250D01*
X1004215Y-130750D01*
Y-118250D01*
G01X1013050Y-130750D02*
X1011810Y-130542D01*
X1010725Y-129709D01*
X1009795Y-128458D01*
X1009175Y-127000D01*
X1008865Y-125333D01*
Y-123667D01*
X1009175Y-122000D01*
X1009795Y-120542D01*
X1010725Y-119292D01*
X1011810Y-118458D01*
X1013050Y-118250D01*
X1014290Y-118458D01*
X1015375Y-119292D01*
X1016305Y-120542D01*
X1016925Y-122000D01*
X1017235Y-123667D01*
Y-125333D01*
X1016925Y-127000D01*
X1016305Y-128458D01*
X1015375Y-129709D01*
X1014290Y-130542D01*
X1013050Y-130750D01*
G01X1021885D02*
Y-118250D01*
X1029015Y-130750D01*
Y-118250D01*
G01X1035835Y-126584D02*
X1039865D01*
G01X1047150Y-130750D02*
Y-118250D01*
X1050870D01*
X1052110Y-118875D01*
X1053040Y-120333D01*
X1053350Y-122000D01*
X1053040Y-123667D01*
X1052265Y-124917D01*
X1050870Y-125542D01*
X1047150D01*
G01X1059550Y-118250D02*
Y-130750D01*
X1065750D01*
G01X1071175D02*
X1075050Y-118250D01*
X1078925Y-130750D01*
G01X1077530Y-126375D02*
X1072570D01*
G01X1087450Y-118250D02*
Y-130750D01*
G01X1083885Y-118250D02*
X1091015D01*
G01X1102950Y-130750D02*
X1096750D01*
Y-118250D01*
X1102950D01*
G01X1100470Y-124292D02*
X1096750D01*
G01X1108840Y-130750D02*
Y-118250D01*
X1111940D01*
X1113180Y-118875D01*
X1114110Y-119708D01*
X1114885Y-120958D01*
X1115505Y-122417D01*
X1115660Y-124500D01*
X1115505Y-126584D01*
X1114885Y-128042D01*
X1114110Y-129292D01*
X1113180Y-130125D01*
X1111940Y-130750D01*
X1108840D01*
G01X992900Y-12000D02*
Y-137000D01*
G01X1022350Y-105750D02*
Y-93250D01*
X1026070D01*
X1027310Y-93875D01*
X1028240Y-95333D01*
X1028550Y-97000D01*
X1028240Y-98667D01*
X1027465Y-99917D01*
X1026070Y-100542D01*
X1022350D01*
G01X1034750Y-93250D02*
Y-105750D01*
X1040950D01*
G01X1046375D02*
X1050250Y-93250D01*
X1054125Y-105750D01*
G01X1052730Y-101375D02*
X1047770D01*
G01X1062650Y-93250D02*
Y-105750D01*
G01X1059085Y-93250D02*
X1066215D01*
G01X1078150Y-105750D02*
X1071950D01*
Y-93250D01*
X1078150D01*
G01X1075670Y-99292D02*
X1071950D01*
G01X1084040Y-105750D02*
Y-93250D01*
X1087140D01*
X1088380Y-93875D01*
X1089310Y-94708D01*
X1090085Y-95958D01*
X1090705Y-97417D01*
X1090860Y-99500D01*
X1090705Y-101584D01*
X1090085Y-103042D01*
X1089310Y-104292D01*
X1088380Y-105125D01*
X1087140Y-105750D01*
X1084040D01*
G01X1022350Y-80750D02*
Y-68250D01*
X1026070D01*
X1027310Y-68875D01*
X1028240Y-70333D01*
X1028550Y-72000D01*
X1028240Y-73667D01*
X1027465Y-74917D01*
X1026070Y-75542D01*
X1022350D01*
G01X1034750Y-68250D02*
Y-80750D01*
X1040950D01*
G01X1046375D02*
X1050250Y-68250D01*
X1054125Y-80750D01*
G01X1052730Y-76375D02*
X1047770D01*
G01X1062650Y-68250D02*
Y-80750D01*
G01X1059085Y-68250D02*
X1066215D01*
G01X1078150Y-80750D02*
X1071950D01*
Y-68250D01*
X1078150D01*
G01X1075670Y-74292D02*
X1071950D01*
G01X1084040Y-80750D02*
Y-68250D01*
X1087140D01*
X1088380Y-68875D01*
X1089310Y-69708D01*
X1090085Y-70958D01*
X1090705Y-72417D01*
X1090860Y-74500D01*
X1090705Y-76584D01*
X1090085Y-78042D01*
X1089310Y-79292D01*
X1088380Y-80125D01*
X1087140Y-80750D01*
X1084040D01*
G01X1022350Y-55750D02*
Y-43250D01*
X1026070D01*
X1027310Y-43875D01*
X1028240Y-45333D01*
X1028550Y-47000D01*
X1028240Y-48667D01*
X1027465Y-49917D01*
X1026070Y-50542D01*
X1022350D01*
G01X1034750Y-43250D02*
Y-55750D01*
X1040950D01*
G01X1046375D02*
X1050250Y-43250D01*
X1054125Y-55750D01*
G01X1052730Y-51375D02*
X1047770D01*
G01X1062650Y-43250D02*
Y-55750D01*
G01X1059085Y-43250D02*
X1066215D01*
G01X1078150Y-55750D02*
X1071950D01*
Y-43250D01*
X1078150D01*
G01X1075670Y-49292D02*
X1071950D01*
G01X1084040Y-55750D02*
Y-43250D01*
X1087140D01*
X1088380Y-43875D01*
X1089310Y-44708D01*
X1090085Y-45958D01*
X1090705Y-47417D01*
X1090860Y-49500D01*
X1090705Y-51584D01*
X1090085Y-53042D01*
X1089310Y-54292D01*
X1088380Y-55125D01*
X1087140Y-55750D01*
X1084040D01*
G01X1022350Y-30750D02*
Y-18250D01*
X1026070D01*
X1027310Y-18875D01*
X1028240Y-20333D01*
X1028550Y-22000D01*
X1028240Y-23667D01*
X1027465Y-24917D01*
X1026070Y-25542D01*
X1022350D01*
G01X1034750Y-18250D02*
Y-30750D01*
X1040950D01*
G01X1046375D02*
X1050250Y-18250D01*
X1054125Y-30750D01*
G01X1052730Y-26375D02*
X1047770D01*
G01X1062650Y-18250D02*
Y-30750D01*
G01X1059085Y-18250D02*
X1066215D01*
G01X1078150Y-30750D02*
X1071950D01*
Y-18250D01*
X1078150D01*
G01X1075670Y-24292D02*
X1071950D01*
G01X1084040Y-30750D02*
Y-18250D01*
X1087140D01*
X1088380Y-18875D01*
X1089310Y-19708D01*
X1090085Y-20958D01*
X1090705Y-22417D01*
X1090860Y-24500D01*
X1090705Y-26584D01*
X1090085Y-28042D01*
X1089310Y-29292D01*
X1088380Y-30125D01*
X1087140Y-30750D01*
X1084040D01*
G01X1044650Y603700D02*
Y613700D01*
X1047775D01*
X1048775Y613200D01*
X1049400Y612533D01*
X1049650Y611200D01*
X1049400Y609867D01*
X1048650Y609033D01*
X1047775Y608533D01*
X1044650D01*
G01X1047775D02*
X1049650Y603700D01*
G01X1059650D02*
X1054650D01*
Y613700D01*
X1059650D01*
G01X1057650Y608867D02*
X1054650D01*
G01X1064025Y613700D02*
X1067150Y603700D01*
X1070275Y613700D01*
G01X1075650D02*
X1078650D01*
G01X1077150D02*
Y603700D01*
G01X1075650D02*
X1078650D01*
G01X1084525Y605033D02*
X1085525Y604200D01*
X1086650Y603700D01*
X1087650D01*
X1088650Y604200D01*
X1089400Y605033D01*
X1089775Y606200D01*
X1089525Y607366D01*
X1088900Y608367D01*
X1087775Y609033D01*
X1086275Y609367D01*
X1085400Y610033D01*
X1085025Y611200D01*
X1085275Y612367D01*
X1085900Y613200D01*
X1086775Y613700D01*
X1087650D01*
X1088525Y613367D01*
X1089275Y612533D01*
G01X1095650Y613700D02*
X1098650D01*
G01X1097150D02*
Y603700D01*
G01X1095650D02*
X1098650D01*
G01X1107150D02*
X1106150Y603867D01*
X1105275Y604533D01*
X1104525Y605533D01*
X1104025Y606700D01*
X1103775Y608033D01*
Y609367D01*
X1104025Y610700D01*
X1104525Y611867D01*
X1105275Y612866D01*
X1106150Y613533D01*
X1107150Y613700D01*
X1108150Y613533D01*
X1109025Y612866D01*
X1109775Y611867D01*
X1110275Y610700D01*
X1110525Y609367D01*
Y608033D01*
X1110275Y606700D01*
X1109775Y605533D01*
X1109025Y604533D01*
X1108150Y603867D01*
X1107150Y603700D01*
G01X1114275D02*
Y613700D01*
X1120025Y603700D01*
Y613700D01*
G01X1124525Y605033D02*
X1125525Y604200D01*
X1126650Y603700D01*
X1127650D01*
X1128650Y604200D01*
X1129400Y605033D01*
X1129775Y606200D01*
X1129525Y607366D01*
X1128900Y608367D01*
X1127775Y609033D01*
X1126275Y609367D01*
X1125400Y610033D01*
X1125025Y611200D01*
X1125275Y612367D01*
X1125900Y613200D01*
X1126775Y613700D01*
X1127650D01*
X1128525Y613367D01*
X1129275Y612533D01*
G01X1078400Y-386300D02*
Y-346300D01*
G01X1089400Y-361300D02*
Y-351300D01*
X1091900D01*
X1092900Y-351800D01*
X1093650Y-352467D01*
X1094275Y-353466D01*
X1094775Y-354634D01*
X1094900Y-356300D01*
X1094775Y-357967D01*
X1094275Y-359134D01*
X1093650Y-360134D01*
X1092900Y-360800D01*
X1091900Y-361300D01*
X1089400D01*
G01X1098400Y-351300D02*
X1100150Y-361300D01*
X1102150Y-351300D01*
X1104150Y-361300D01*
X1105900Y-351300D01*
G01X1112900Y-356300D02*
X1115400D01*
Y-359300D01*
X1114650Y-360300D01*
X1113775Y-360967D01*
X1112525Y-361300D01*
X1111275Y-360967D01*
X1110400Y-360300D01*
X1109650Y-359300D01*
X1109150Y-358133D01*
X1108900Y-356800D01*
Y-355633D01*
X1109150Y-354634D01*
X1109650Y-353466D01*
X1110400Y-352467D01*
X1111150Y-351800D01*
X1112150Y-351300D01*
X1113025D01*
X1114025Y-351633D01*
X1114775Y-352300D01*
G01X1129275Y-361300D02*
Y-351300D01*
X1135025Y-361300D01*
Y-351300D01*
G01X1142150Y-361300D02*
X1141150Y-361133D01*
X1140275Y-360467D01*
X1139525Y-359467D01*
X1139025Y-358300D01*
X1138775Y-356967D01*
Y-355633D01*
X1139025Y-354300D01*
X1139525Y-353133D01*
X1140275Y-352134D01*
X1141150Y-351467D01*
X1142150Y-351300D01*
X1143150Y-351467D01*
X1144025Y-352134D01*
X1144775Y-353133D01*
X1145275Y-354300D01*
X1145525Y-355633D01*
Y-356967D01*
X1145275Y-358300D01*
X1144775Y-359467D01*
X1144025Y-360467D01*
X1143150Y-361133D01*
X1142150Y-361300D01*
G01X1120000Y-12000D02*
Y-137000D01*
G01X1158400Y-416300D02*
Y-386300D01*
X1328400D01*
G01X1155805Y-120333D02*
X1156735Y-119084D01*
X1157820Y-118458D01*
X1159060Y-118250D01*
X1160610Y-118667D01*
X1161695Y-119708D01*
X1162005Y-120958D01*
X1161850Y-122209D01*
X1161230Y-123250D01*
X1158130Y-125333D01*
X1156735Y-126792D01*
X1155805Y-128875D01*
X1155495Y-130750D01*
X1162005D01*
G01X1149140Y-103875D02*
X1150070Y-104917D01*
X1151155Y-105542D01*
X1152550Y-105750D01*
X1153945Y-105333D01*
X1155030Y-104500D01*
X1155805Y-103042D01*
X1155960Y-101375D01*
X1155650Y-99709D01*
X1154875Y-98667D01*
X1153790Y-97834D01*
X1152705Y-97625D01*
X1151620Y-97834D01*
X1150225Y-98667D01*
X1150690Y-93250D01*
X1154875D01*
G01X1164950D02*
X1163710Y-93667D01*
X1162780Y-94708D01*
X1162160Y-95958D01*
X1161695Y-97625D01*
X1161540Y-99500D01*
X1161695Y-101375D01*
X1162160Y-103042D01*
X1162780Y-104292D01*
X1163710Y-105333D01*
X1164950Y-105750D01*
X1166190Y-105333D01*
X1167120Y-104292D01*
X1167740Y-103042D01*
X1168205Y-101375D01*
X1168360Y-99500D01*
X1168205Y-97625D01*
X1167740Y-95958D01*
X1167120Y-94708D01*
X1166190Y-93667D01*
X1164950Y-93250D01*
G01X1149605Y-70333D02*
X1150535Y-69084D01*
X1151620Y-68458D01*
X1152860Y-68250D01*
X1154410Y-68667D01*
X1155495Y-69708D01*
X1155805Y-70958D01*
X1155650Y-72209D01*
X1155030Y-73250D01*
X1151930Y-75333D01*
X1150535Y-76792D01*
X1149605Y-78875D01*
X1149295Y-80750D01*
X1155805D01*
G01X1161540Y-78875D02*
X1162470Y-79917D01*
X1163555Y-80542D01*
X1164950Y-80750D01*
X1166345Y-80333D01*
X1167430Y-79500D01*
X1168205Y-78042D01*
X1168360Y-76375D01*
X1168050Y-74708D01*
X1167275Y-73667D01*
X1166190Y-72834D01*
X1165105Y-72625D01*
X1164020Y-72834D01*
X1162625Y-73667D01*
X1163090Y-68250D01*
X1167275D01*
G01X1149605Y-45333D02*
X1150535Y-44084D01*
X1151620Y-43458D01*
X1152860Y-43250D01*
X1154410Y-43667D01*
X1155495Y-44708D01*
X1155805Y-45958D01*
X1155650Y-47209D01*
X1155030Y-48250D01*
X1151930Y-50333D01*
X1150535Y-51792D01*
X1149605Y-53875D01*
X1149295Y-55750D01*
X1155805D01*
G01X1166810D02*
Y-43250D01*
X1161075Y-52208D01*
X1168825D01*
G01X1146350Y-30750D02*
X1145110Y-30542D01*
X1144025Y-29709D01*
X1143095Y-28458D01*
X1142475Y-27000D01*
X1142165Y-25333D01*
Y-23667D01*
X1142475Y-22000D01*
X1143095Y-20542D01*
X1144025Y-19292D01*
X1145110Y-18458D01*
X1146350Y-18250D01*
X1147590Y-18458D01*
X1148675Y-19292D01*
X1149605Y-20542D01*
X1150225Y-22000D01*
X1150535Y-23667D01*
Y-25333D01*
X1150225Y-27000D01*
X1149605Y-28458D01*
X1148675Y-29709D01*
X1147590Y-30542D01*
X1146350Y-30750D01*
G01X1147590Y-27417D02*
X1149450Y-30750D01*
G01X1158750Y-18250D02*
Y-30750D01*
G01X1155185Y-18250D02*
X1162315D01*
G01X1171150Y-30750D02*
Y-25125D01*
X1168050Y-18250D01*
G01X1174250D02*
X1171150Y-25125D01*
G01X1138400Y533700D02*
Y503700D01*
G01Y523700D02*
Y563700D01*
G01D02*
Y593700D01*
G01X1169525Y-399967D02*
X1170525Y-400800D01*
X1171650Y-401300D01*
X1172650D01*
X1173650Y-400800D01*
X1174400Y-399967D01*
X1174775Y-398800D01*
X1174525Y-397634D01*
X1173900Y-396633D01*
X1172775Y-395967D01*
X1171275Y-395633D01*
X1170400Y-394967D01*
X1170025Y-393800D01*
X1170275Y-392633D01*
X1170900Y-391800D01*
X1171775Y-391300D01*
X1172650D01*
X1173525Y-391633D01*
X1174275Y-392467D01*
G01X1179525Y-401300D02*
Y-391300D01*
G01X1184775D02*
Y-401300D01*
G01Y-396300D02*
X1179525D01*
G01X1194650Y-401300D02*
X1189650D01*
Y-391300D01*
X1194650D01*
G01X1192650Y-396133D02*
X1189650D01*
G01X1204650Y-401300D02*
X1199650D01*
Y-391300D01*
X1204650D01*
G01X1202650Y-396133D02*
X1199650D01*
G01X1212150Y-391300D02*
Y-401300D01*
G01X1209275Y-391300D02*
X1215025D01*
G01X1164400Y573700D02*
Y583700D01*
X1166900D01*
X1167900Y583200D01*
X1168650Y582533D01*
X1169275Y581534D01*
X1169775Y580366D01*
X1169900Y578700D01*
X1169775Y577033D01*
X1169275Y575866D01*
X1168650Y574866D01*
X1167900Y574200D01*
X1166900Y573700D01*
X1164400D01*
G01X1174025D02*
X1177150Y583700D01*
X1180275Y573700D01*
G01X1179150Y577200D02*
X1175150D01*
G01X1187150Y583700D02*
Y573700D01*
G01X1184275Y583700D02*
X1190025D01*
G01X1199650Y573700D02*
X1194650D01*
Y583700D01*
X1199650D01*
G01X1197650Y578867D02*
X1194650D01*
G01X1228400Y533700D02*
Y503700D01*
G01Y533700D02*
Y563700D01*
G01D02*
Y593700D01*
G01X1239025Y573700D02*
X1242150Y583700D01*
X1245275Y573700D01*
G01X1244150Y577200D02*
X1240150D01*
G01X1249650Y573700D02*
Y583700D01*
X1252650D01*
X1253650Y583200D01*
X1254400Y582033D01*
X1254650Y580700D01*
X1254400Y579367D01*
X1253775Y578367D01*
X1252650Y577866D01*
X1249650D01*
G01X1259650Y573700D02*
Y583700D01*
X1262650D01*
X1263650Y583200D01*
X1264400Y582033D01*
X1264650Y580700D01*
X1264400Y579367D01*
X1263775Y578367D01*
X1262650Y577866D01*
X1259650D01*
G01X1269650Y573700D02*
Y583700D01*
X1272775D01*
X1273775Y583200D01*
X1274400Y582533D01*
X1274650Y581200D01*
X1274400Y579867D01*
X1273650Y579033D01*
X1272775Y578533D01*
X1269650D01*
G01X1272775D02*
X1274650Y573700D01*
G01X1282150D02*
X1281150Y573867D01*
X1280275Y574533D01*
X1279525Y575533D01*
X1279025Y576700D01*
X1278775Y578033D01*
Y579367D01*
X1279025Y580700D01*
X1279525Y581867D01*
X1280275Y582866D01*
X1281150Y583533D01*
X1282150Y583700D01*
X1283150Y583533D01*
X1284025Y582866D01*
X1284775Y581867D01*
X1285275Y580700D01*
X1285525Y579367D01*
Y578033D01*
X1285275Y576700D01*
X1284775Y575533D01*
X1284025Y574533D01*
X1283150Y573867D01*
X1282150Y573700D01*
G01X1289025Y583700D02*
X1292150Y573700D01*
X1295275Y583700D01*
G01X1304650Y573700D02*
X1299650D01*
Y583700D01*
X1304650D01*
G01X1302650Y578867D02*
X1299650D01*
G01X1309400Y573700D02*
Y583700D01*
X1311900D01*
X1312900Y583200D01*
X1313650Y582533D01*
X1314275Y581534D01*
X1314775Y580366D01*
X1314900Y578700D01*
X1314775Y577033D01*
X1314275Y575866D01*
X1313650Y574866D01*
X1312900Y574200D01*
X1311900Y573700D01*
X1309400D01*
G01X1328400Y623700D02*
Y503700D01*
M02*
