G04 ================== begin FILE IDENTIFICATION RECORD ==================*
G04 Layout Name:  STM32F103C8T6_KIT_DEV_2.brd*
G04 Film Name:    SMB*
G04 File Format:  Gerber RS274X*
G04 File Origin:  Cadence Allegro 17.2-P019*
G04 Origin Date:  Sun Dec 27 22:50:34 2020*
G04 *
G04 Layer:  PIN/SOLDERMASK_BOTTOM*
G04 Layer:  VIA CLASS/SOLDERMASK_BOTTOM*
G04 Layer:  PACKAGE GEOMETRY/SOLDERMASK_BOTTOM*
G04 Layer:  BOARD GEOMETRY/OUTLINE*
G04 Layer:  BOARD GEOMETRY/SOLDERMASK_BOTTOM*
G04 *
G04 Offset:    (0.000 0.000)*
G04 Mirror:    No*
G04 Mode:      Positive*
G04 Rotation:  0*
G04 FullContactRelief:  No*
G04 UndefLineWidth:     6.000*
G04 ================== end FILE IDENTIFICATION RECORD ====================*
%FSLAX25Y25*MOIN*%
%IR0*IPPOS*OFA0.00000B0.00000*MIA0B0*SFA1.00000B1.00000*%
%AMMACRO17*
21,1,.035,.037,0.0,0.0,135.*%
%ADD17MACRO17*%
%ADD15R,.054X.034*%
%ADD19R,.037X.035*%
%AMMACRO18*
21,1,.035,.037,0.0,0.0,45.*%
%ADD18MACRO18*%
%ADD14R,.035X.037*%
%ADD12C,.036*%
%ADD13C,.028*%
%ADD11C,.031654*%
%ADD10C,.065748*%
%ADD16R,.065748X.065748*%
%ADD20C,.006*%
G75*
%LPD*%
G75*
G54D10*
X13268Y7744D03*
Y110366D03*
X23268Y7744D03*
X33268D03*
X43268D03*
X23268Y110366D03*
X33268D03*
X43268D03*
X53268Y7744D03*
X63268D03*
X73268D03*
X72100Y90700D03*
X62100D03*
X72100Y80700D03*
X53268Y110366D03*
X63268D03*
X73268D03*
X83268Y7744D03*
X93268D03*
X103268D03*
X82100Y90700D03*
Y80700D03*
X83268Y110366D03*
X93268D03*
X103268D03*
X113268Y7744D03*
X123268D03*
X133268D03*
X113268Y110366D03*
X123268D03*
X133268D03*
X143268Y7744D03*
X153268D03*
X163268D03*
X143268Y110366D03*
X153268D03*
X163268D03*
X173268Y7744D03*
X183268D03*
X193268D03*
X173268Y110366D03*
X183268D03*
X193268D03*
X204791Y44055D03*
Y54055D03*
Y64055D03*
G54D20*
G01X0Y0D02*
X216535D01*
Y118110D01*
X0D01*
Y0D01*
G54D11*
X20047Y51181D03*
Y66929D03*
G54D12*
X16000Y58000D03*
X19000Y77900D03*
X25000Y48000D03*
X28500Y69100D03*
X25300Y72600D03*
X31800D03*
X23000Y89800D03*
X42400Y80500D03*
Y76900D03*
X64700Y32800D03*
X55300Y85450D03*
X51100D03*
X53200Y81300D03*
X103700Y63300D03*
X89900Y65900D03*
X115050Y34850D03*
X114000Y44700D03*
X131124Y58624D03*
X116300Y71900D03*
X127900Y78200D03*
X143543Y53443D03*
X139600Y49600D03*
X142900Y88300D03*
X189800Y23550D03*
X204400Y30500D03*
G54D13*
X42895Y62870D03*
Y59130D03*
X45000Y95000D03*
X76700Y65550D03*
X83400Y28600D03*
X108250Y22750D03*
X105400Y28000D03*
X108161Y54668D03*
X82400Y100900D03*
X118600Y26700D03*
X115650Y61950D03*
X112325Y54668D03*
X118000Y55100D03*
X134800Y74000D03*
X130476Y85076D03*
X139800Y64900D03*
X140300Y70600D03*
X159449Y62200D03*
Y56200D03*
X139652Y75900D03*
X175000Y64000D03*
X168073Y69927D03*
X193800Y97600D03*
X202701Y19601D03*
G54D14*
X28550Y77900D03*
X23250D03*
X69550Y24300D03*
X74850D03*
X74950Y32800D03*
X69650D03*
X72150Y100600D03*
X77450D03*
X108250Y18700D03*
X113550D03*
G54D15*
X40200Y93500D03*
Y86100D03*
X29000Y93500D03*
Y89800D03*
Y86100D03*
G54D16*
X62100Y80700D03*
X203268Y7744D03*
X204791Y74055D03*
X203268Y110366D03*
G54D17*
X108526Y41474D03*
X112274Y37726D03*
X123874Y72026D03*
X136774Y78779D03*
X133026Y82526D03*
X120126Y75774D03*
G54D18*
X94026Y61826D03*
X97774Y65574D03*
X127526Y68126D03*
X131274Y71874D03*
X131426Y64326D03*
X135174Y68074D03*
X133774Y55974D03*
X130026Y52226D03*
G54D19*
X196800Y18250D03*
Y23550D03*
X199500Y96150D03*
Y101450D03*
M02*
