G04 ================== begin FILE IDENTIFICATION RECORD ==================*
G04 Layout Name:  STM32F103C8T6_KIT_DEV_2.brd*
G04 Film Name:    SSB*
G04 File Format:  Gerber RS274X*
G04 File Origin:  Cadence Allegro 17.2-P019*
G04 Origin Date:  Sun Dec 27 22:50:34 2020*
G04 *
G04 Layer:  REF DES/SILKSCREEN_BOTTOM*
G04 Layer:  PACKAGE GEOMETRY/SILKSCREEN_BOTTOM*
G04 Layer:  BOARD GEOMETRY/OUTLINE*
G04 Layer:  BOARD GEOMETRY/SILKSCREEN_BOTTOM*
G04 *
G04 Offset:    (0.000 0.000)*
G04 Mirror:    No*
G04 Mode:      Positive*
G04 Rotation:  0*
G04 FullContactRelief:  No*
G04 UndefLineWidth:     6.000*
G04 ================== end FILE IDENTIFICATION RECORD ====================*
%FSLAX25Y25*MOIN*%
%IR0*IPPOS*OFA0.00000B0.00000*MIA0B0*SFA1.00000B1.00000*%
%ADD10C,.006*%
G75*
%LPD*%
G75*
G36*
G01X24500Y85000D02*
X21500Y82000D01*
Y88000D01*
X24500Y85000D01*
G37*
G54D10*
G01X12557Y79983D02*
X12937Y80233D01*
X13380Y80400D01*
X13887D01*
X14457Y80150D01*
X14900Y79733D01*
X15217Y79233D01*
X15470Y78400D01*
X15533Y77650D01*
X15407Y76900D01*
X15217Y76400D01*
X14837Y75900D01*
X14393Y75567D01*
X13950Y75400D01*
X13507D01*
X13063Y75567D01*
X12683Y75817D01*
X12367Y76150D01*
G01X8977Y75400D02*
X8850Y76483D01*
X8660Y77400D01*
X8407Y78233D01*
X8090Y79150D01*
X7583Y80400D01*
X10117D01*
G01X30300D02*
X21500D01*
G03X20900Y79800I0J-600D01*
G01Y76000D01*
G03X21500Y75400I600J0D01*
G01X30300D01*
G03X30900Y76000I0J600D01*
G01Y79800D01*
G03X30300Y80400I-600J0D01*
G01X38943Y102400D02*
Y98817D01*
X38690Y98066D01*
X38183Y97567D01*
X37550Y97400D01*
X36917Y97567D01*
X36410Y98066D01*
X36157Y98817D01*
Y102400D01*
G01X33653Y101567D02*
X33273Y102067D01*
X32830Y102317D01*
X32323Y102400D01*
X31690Y102233D01*
X31247Y101817D01*
X31120Y101317D01*
X31183Y100816D01*
X31437Y100400D01*
X32703Y99567D01*
X33273Y98983D01*
X33653Y98150D01*
X33780Y97400D01*
X31120D01*
G01X48193Y84550D02*
X47813Y84133D01*
X47370Y83883D01*
X46800Y83800D01*
X46230Y83967D01*
X45787Y84300D01*
X45470Y84883D01*
X45407Y85550D01*
X45533Y86217D01*
X45850Y86633D01*
X46293Y86967D01*
X46737Y87050D01*
X47180Y86967D01*
X47750Y86633D01*
X47560Y88800D01*
X45850D01*
G01X47740Y91900D02*
Y96900D01*
X50083Y93317D01*
X46917D01*
G01X25193Y94000D02*
X24813Y93417D01*
X24307Y93083D01*
X23737Y93000D01*
X23230Y93083D01*
X22723Y93500D01*
X22407Y94000D01*
X22343Y94500D01*
X22470Y95083D01*
X22913Y95500D01*
X23357Y95667D01*
X23927D01*
G01X23357D02*
X22977Y95917D01*
X22660Y96333D01*
X22533Y96833D01*
X22660Y97333D01*
X22977Y97750D01*
X23547Y98000D01*
X24117Y97917D01*
X24687Y97583D01*
G01X65617Y21500D02*
Y26500D01*
X64033D01*
X63527Y26250D01*
X63210Y25917D01*
X63083Y25250D01*
X63210Y24583D01*
X63590Y24167D01*
X64033Y23917D01*
X65617D01*
G01X64033D02*
X63083Y21500D01*
G01X59250D02*
Y26500D01*
X60010Y25500D01*
G01Y21500D02*
X58490D01*
G01X67200Y21800D02*
X77200D01*
Y26800D01*
X67200D01*
Y21800D01*
G01X58857Y34983D02*
X59237Y35233D01*
X59680Y35400D01*
X60187D01*
X60757Y35150D01*
X61200Y34733D01*
X61517Y34233D01*
X61770Y33400D01*
X61833Y32650D01*
X61707Y31900D01*
X61517Y31400D01*
X61137Y30900D01*
X60693Y30567D01*
X60250Y30400D01*
X59807D01*
X59363Y30567D01*
X58983Y30817D01*
X58667Y31150D01*
G01X55150Y30400D02*
Y35400D01*
X55910Y34400D01*
G01Y30400D02*
X54390D01*
G01X76700Y35300D02*
X67900D01*
G03X67300Y34700I0J-600D01*
G01Y30900D01*
G03X67900Y30300I600J0D01*
G01X76700D01*
G03X77300Y30900I0J600D01*
G01Y34700D01*
G03X76700Y35300I-600J0D01*
G01X68017Y98000D02*
Y103000D01*
X66433D01*
X65927Y102750D01*
X65610Y102417D01*
X65483Y101750D01*
X65610Y101083D01*
X65990Y100667D01*
X66433Y100417D01*
X68017D01*
G01X66433D02*
X65483Y98000D01*
G01X63043Y99000D02*
X62663Y98417D01*
X62157Y98083D01*
X61587Y98000D01*
X61080Y98083D01*
X60573Y98500D01*
X60257Y99000D01*
X60193Y99500D01*
X60320Y100083D01*
X60763Y100500D01*
X61207Y100667D01*
X61777D01*
G01X61207D02*
X60827Y100917D01*
X60510Y101333D01*
X60383Y101833D01*
X60510Y102333D01*
X60827Y102750D01*
X61397Y103000D01*
X61967Y102917D01*
X62537Y102583D01*
G01X69800Y98100D02*
X79800D01*
Y103100D01*
X69800D01*
Y98100D01*
G01X57603Y93367D02*
X57223Y93867D01*
X56780Y94117D01*
X56273Y94200D01*
X55640Y94033D01*
X55197Y93617D01*
X55070Y93117D01*
X55133Y92616D01*
X55387Y92200D01*
X56653Y91367D01*
X57223Y90783D01*
X57603Y89950D01*
X57730Y89200D01*
X55070D01*
G01X55800Y77900D02*
Y82900D01*
X56560Y81900D01*
G01Y77900D02*
X55040D01*
G01X103617Y16100D02*
Y21100D01*
X102033D01*
X101527Y20850D01*
X101210Y20517D01*
X101083Y19850D01*
X101210Y19183D01*
X101590Y18767D01*
X102033Y18517D01*
X103617D01*
G01X102033D02*
X101083Y16100D01*
G01X97250D02*
X96807Y16183D01*
X96300Y16433D01*
X95983Y16850D01*
X95857Y17433D01*
X95983Y18017D01*
X96363Y18517D01*
X96933Y18767D01*
X97567D01*
X97947Y18933D01*
X98263Y19350D01*
X98390Y19933D01*
X98200Y20517D01*
X97757Y20933D01*
X97250Y21100D01*
X96743Y20933D01*
X96300Y20517D01*
X96110Y19933D01*
X96237Y19350D01*
X96553Y18933D01*
X96933Y18767D01*
X97567D01*
X98137Y18517D01*
X98517Y18017D01*
X98643Y17433D01*
X98517Y16850D01*
X98200Y16433D01*
X97693Y16183D01*
X97250Y16100D01*
G01X105900Y16200D02*
X115900D01*
Y21200D01*
X105900D01*
Y16200D01*
G01X105491Y47855D02*
X105937Y47763D01*
X106368Y47568D01*
X106726Y47210D01*
X106952Y46630D01*
X106971Y46022D01*
X106842Y45444D01*
X106432Y44676D01*
X105946Y44100D01*
X105326Y43660D01*
X104838Y43441D01*
X104216Y43356D01*
X103667Y43434D01*
X103235Y43629D01*
X102922Y43943D01*
X102726Y44374D01*
X102634Y44820D01*
X102646Y45279D01*
G01X101953Y47858D02*
X102052Y48584D01*
X102019Y49088D01*
X101779Y49564D01*
X101347Y49760D01*
X100888Y49748D01*
X100355Y49574D01*
X99898Y49206D01*
X99589Y48808D01*
X99415Y48275D01*
X99389Y47712D01*
X99584Y47280D01*
X100060Y47040D01*
X100727Y47080D01*
X101437Y47431D01*
X102071Y47976D01*
X102747Y48831D01*
X103026Y49378D01*
X103214Y50014D01*
X103195Y50622D01*
X102941Y50995D01*
X102510Y51190D01*
X101991Y51120D01*
G01X115279Y38256D02*
X109056Y44479D01*
G03X108208I-424J-424D01*
G01X105521Y41792D01*
G03Y40944I424J-424D01*
G01X111744Y34721D01*
G03X112592I424J424D01*
G01X115279Y37408D01*
G03Y38256I-424J424D01*
G01X87945Y58291D02*
X88037Y58736D01*
X88232Y59168D01*
X88590Y59526D01*
X89170Y59752D01*
X89778Y59771D01*
X90356Y59642D01*
X91124Y59232D01*
X91700Y58746D01*
X92140Y58126D01*
X92359Y57638D01*
X92444Y57016D01*
X92366Y56467D01*
X92171Y56035D01*
X91857Y55722D01*
X91426Y55526D01*
X90980Y55434D01*
X90521Y55446D01*
G01X88843Y54121D02*
X88987Y53440D01*
X88864Y52846D01*
X88520Y52384D01*
X88103Y52085D01*
X87450Y52021D01*
X86872Y52151D01*
X86474Y52460D01*
X86151Y52962D01*
X86170Y53570D01*
X86366Y54001D01*
X86768Y54404D01*
G01X86366Y54001D02*
X85920Y53909D01*
X85402Y53980D01*
X84958Y54244D01*
X84694Y54687D01*
X84624Y55206D01*
X84850Y55786D01*
X85312Y56130D01*
X85951Y56297D01*
G01X94557Y58821D02*
X100779Y65044D01*
G03Y65892I-424J424D01*
G01X98092Y68579D01*
G03X97244I-424J-424D01*
G01X91021Y62356D01*
G03Y61508I424J-424D01*
G01X93708Y58821D01*
G03X94557I424J424D01*
G01X90303Y90883D02*
X89860Y91467D01*
X89480Y91800D01*
X88973Y91967D01*
X88530Y91800D01*
X88213Y91467D01*
X87960Y90967D01*
X87897Y90383D01*
X87960Y89883D01*
X88213Y89383D01*
X88593Y88967D01*
X89037Y88800D01*
X89543Y88967D01*
X89987Y89466D01*
X90240Y90217D01*
X90303Y91050D01*
X90177Y92133D01*
X89987Y92717D01*
X89670Y93300D01*
X89227Y93717D01*
X88783Y93800D01*
X88340Y93633D01*
X88023Y93217D01*
G01X90193Y78650D02*
X89813Y78233D01*
X89370Y77983D01*
X88800Y77900D01*
X88230Y78067D01*
X87787Y78400D01*
X87470Y78983D01*
X87407Y79650D01*
X87533Y80317D01*
X87850Y80733D01*
X88293Y81067D01*
X88737Y81150D01*
X89180Y81067D01*
X89750Y80733D01*
X89560Y82900D01*
X87850D01*
G01X123545Y48891D02*
X123637Y49337D01*
X123832Y49768D01*
X124190Y50126D01*
X124770Y50352D01*
X125379Y50371D01*
X125956Y50242D01*
X126724Y49832D01*
X127300Y49346D01*
X127740Y48726D01*
X127960Y48238D01*
X128044Y47616D01*
X127966Y47067D01*
X127771Y46635D01*
X127457Y46322D01*
X127026Y46126D01*
X126581Y46034D01*
X126121Y46046D01*
G01X124620Y44545D02*
X124646Y43981D01*
X124509Y43491D01*
X124165Y43029D01*
X123644Y42744D01*
X123095Y42666D01*
X122458Y42855D01*
X121942Y43281D01*
X121560Y43842D01*
X121490Y44361D01*
X121567Y44910D01*
X121822Y45282D01*
X122194Y45537D01*
X122833Y45704D01*
X121167Y47102D01*
X119957Y45893D01*
G01X119348Y66694D02*
X119440Y67140D01*
X119635Y67571D01*
X119994Y67929D01*
X120574Y68155D01*
X121182Y68174D01*
X121759Y68045D01*
X122528Y67635D01*
X123103Y67149D01*
X123543Y66529D01*
X123763Y66041D01*
X123848Y65419D01*
X123770Y64870D01*
X123574Y64438D01*
X123260Y64125D01*
X122829Y63929D01*
X122384Y63837D01*
X121924Y63849D01*
G01X119968Y60832D02*
X116432Y64368D01*
X117677Y64198D01*
G01X120505Y61370D02*
X119431Y60295D01*
G01X116362Y57226D02*
X112826Y60762D01*
X114070Y60592D01*
G01X116899Y57764D02*
X115824Y56689D01*
G01X128057Y65121D02*
X134279Y71344D01*
G03Y72192I-424J424D01*
G01X131592Y74879D01*
G03X130743I-424J-424D01*
G01X124521Y68657D01*
G03Y67808I424J-424D01*
G01X127208Y65121D01*
G03X128057I424J424D01*
G01X121848Y59194D02*
X121940Y59640D01*
X122135Y60071D01*
X122494Y60429D01*
X123074Y60655D01*
X123682Y60674D01*
X124259Y60545D01*
X125028Y60135D01*
X125603Y59649D01*
X126043Y59029D01*
X126263Y58541D01*
X126347Y57919D01*
X126270Y57370D01*
X126074Y56938D01*
X125761Y56625D01*
X125329Y56429D01*
X124884Y56337D01*
X124424Y56349D01*
G01X122468Y53332D02*
X118932Y56868D01*
X120177Y56698D01*
G01X123005Y53870D02*
X121931Y52795D01*
G01X116766Y53523D02*
X116144Y53608D01*
X115654Y53471D01*
X115237Y53172D01*
X114906Y52606D01*
X114888Y51998D01*
X115152Y51555D01*
X115550Y51246D01*
X116024Y51131D01*
X117509Y51437D01*
X118324Y51428D01*
X119182Y51107D01*
X119802Y50667D01*
X117921Y48786D01*
G01X131956Y61321D02*
X138179Y67544D01*
G03Y68392I-424J424D01*
G01X135492Y71079D01*
G03X134644I-424J-424D01*
G01X128421Y64857D01*
G03Y64008I424J-424D01*
G01X131108Y61321D01*
G03X131956I424J424D01*
G01X133244Y58979D02*
X127021Y52757D01*
G03Y51908I424J-424D01*
G01X129708Y49221D01*
G03X130557I424J424D01*
G01X136779Y55444D01*
G03Y56292I-424J424D01*
G01X134092Y58979D01*
G03X133244I-424J-424D01*
G01X117121Y75244D02*
X123344Y69021D01*
G03X124192I424J424D01*
G01X126879Y71708D01*
G03Y72556I-424J424D01*
G01X120657Y78779D01*
G03X119808I-424J-424D01*
G01X117121Y76092D01*
G03Y75244I424J-424D01*
G01X127231Y85134D02*
X130767Y88669D01*
X129647Y89789D01*
X129112Y89970D01*
X128652Y89958D01*
X128091Y89576D01*
X127710Y89016D01*
X127684Y88452D01*
X127820Y87962D01*
X128940Y86842D01*
G01X127820Y87962D02*
X125440Y86925D01*
G01X123903Y89286D02*
X123295Y89305D01*
X122819Y89546D01*
X122578Y90022D01*
X122618Y90689D01*
X122925Y91443D01*
X123366Y92063D01*
X124014Y92711D01*
X124634Y93152D01*
X125329Y93400D01*
X125833Y93367D01*
X126265Y93171D01*
X126505Y92695D01*
X126538Y92190D01*
X126364Y91658D01*
X125982Y91097D01*
X125480Y90774D01*
X124843Y90585D01*
X124339Y90618D01*
X123967Y90873D01*
X123726Y91349D01*
X123752Y91912D01*
X124014Y92711D01*
G01X140203Y78885D02*
X133132Y85956D01*
X129597Y82420D01*
X136668Y75349D01*
X140203Y78885D01*
G01X116791Y81755D02*
X117237Y81663D01*
X117668Y81468D01*
X118026Y81110D01*
X118252Y80530D01*
X118271Y79922D01*
X118141Y79344D01*
X117732Y78576D01*
X117246Y78000D01*
X116626Y77560D01*
X116138Y77340D01*
X115516Y77256D01*
X114967Y77334D01*
X114535Y77529D01*
X114222Y77843D01*
X114026Y78274D01*
X113934Y78719D01*
X113946Y79179D01*
G01X110392Y81673D02*
X113927Y85208D01*
X113051Y81017D01*
X110811Y83257D01*
G01X194100Y27883D02*
X199100D01*
Y29467D01*
X198850Y29973D01*
X198517Y30290D01*
X197850Y30417D01*
X197183Y30290D01*
X196767Y29910D01*
X196517Y29467D01*
Y27883D01*
G01Y29467D02*
X194100Y30417D01*
G01Y35010D02*
X199100D01*
X195517Y32667D01*
Y35833D01*
G01X199300Y15900D02*
Y25900D01*
X194300D01*
Y15900D01*
X199300D01*
G01X197600Y83783D02*
X202600D01*
Y85367D01*
X202350Y85873D01*
X202017Y86190D01*
X201350Y86317D01*
X200683Y86190D01*
X200267Y85810D01*
X200017Y85367D01*
Y83783D01*
G01Y85367D02*
X197600Y86317D01*
G01X198350Y88757D02*
X197933Y89137D01*
X197683Y89580D01*
X197600Y90150D01*
X197767Y90720D01*
X198100Y91163D01*
X198683Y91480D01*
X199350Y91543D01*
X200017Y91417D01*
X200433Y91100D01*
X200767Y90657D01*
X200850Y90213D01*
X200767Y89770D01*
X200433Y89200D01*
X202600Y89390D01*
Y91100D01*
G01X202000Y93800D02*
Y103800D01*
X197000D01*
Y93800D01*
X202000D01*
G01X0Y0D02*
X216535D01*
Y118110D01*
X0D01*
Y0D01*
G01X40100Y84100D02*
Y95500D01*
X29100D01*
Y84100D01*
X40100D01*
M02*
