G04 CAM350/DFMSTREAM V12.1 (Build 1022) Date:  Mon Dec 28 22:30:32 2020 *
G04 Database: (Untitled) *
G04 Layer 13: ASB.art *
%FSLAX25Y25*%
%MOIN*%
%SFA1.000B1.000*%

%MIA1B0*%
%OFA2.165B0*%
%IPPOS*%
%ADD10C,0.00400*%
%ADD11C,0.00600*%
%LNASB.art*%
%LPD*%
G54D10*
X28900Y77300D02*
G01Y78500D01*
Y78500D02*
G75*
G03X28000Y79400I-900D01*
Y79400D02*
G01X23800D01*
Y79400D02*
G03X22900Y78500J-900D01*
Y78500D02*
G01Y77300D01*
Y77300D02*
G03X23800Y76400I900D01*
Y76400D02*
G01X28000D01*
Y76400D02*
G03X28900Y77300J900D01*
X69200Y22800D02*
G01X75200D01*
Y25800*
X69200*
Y22800*
X75300Y32200D02*
G01Y33400D01*
Y33400D02*
G03X74400Y34300I-900D01*
Y34300D02*
G01X70200D01*
Y34300D02*
G03X69300Y33400J-900D01*
Y33400D02*
G01Y32200D01*
Y32200D02*
G03X70200Y31300I900D01*
Y31300D02*
G01X74400D01*
Y31300D02*
G03X75300Y32200J900D01*
X71800Y99100D02*
G01X77800D01*
Y102100*
X71800*
Y99100*
X93354Y62003D02*
G01X94203Y61154D01*
Y61154D02*
G03X95476Y61154I636J636D01*
Y61154D02*
G01X98446Y64124D01*
Y64124D02*
G03X98446Y65397I-636J636D01*
Y65397D02*
G01X97597Y66246D01*
Y66246D02*
G03X96324Y66246I-637J-636D01*
Y66246D02*
G01X93354Y63276D01*
Y63276D02*
G03X93354Y62003I636J-637D01*
X107900Y17200D02*
G01X113900D01*
Y20200*
X107900*
Y17200*
X112097Y37054D02*
G01X112946Y37903D01*
Y37903D02*
G03X112946Y39176I-636J636D01*
Y39176D02*
G01X109976Y42146D01*
Y42146D02*
G03X108703Y42146I-637J-636D01*
Y42146D02*
G01X107854Y41297D01*
Y41297D02*
G03X107854Y40024I636J-637D01*
Y40024D02*
G01X110824Y37054D01*
Y37054D02*
G03X112097Y37054I636J636D01*
X126854Y68303D02*
G01X127703Y67454D01*
Y67454D02*
G03X128976Y67454I636J636D01*
Y67454D02*
G01X131946Y70424D01*
Y70424D02*
G03X131946Y71697I-636J636D01*
Y71697D02*
G01X131097Y72546D01*
Y72546D02*
G03X129824Y72546I-637J-636D01*
Y72546D02*
G01X126854Y69576D01*
Y69576D02*
G03X126854Y68303I636J-637D01*
X130754Y64503D02*
G01X131603Y63654D01*
Y63654D02*
G03X132876Y63654I636J636D01*
Y63654D02*
G01X135846Y66624D01*
Y66624D02*
G03X135846Y67897I-636J636D01*
Y67897D02*
G01X134997Y68746D01*
Y68746D02*
G03X133724Y68746I-637J-636D01*
Y68746D02*
G01X130754Y65776D01*
Y65776D02*
G03X130754Y64503I636J-637D01*
X134446Y55797D02*
G01X133597Y56646D01*
Y56646D02*
G03X132324Y56646I-637J-636D01*
Y56646D02*
G01X129354Y53676D01*
Y53676D02*
G03X129354Y52403I636J-637D01*
Y52403D02*
G01X130203Y51554D01*
Y51554D02*
G03X131476Y51554I636J636D01*
Y51554D02*
G01X134446Y54524D01*
Y54524D02*
G03X134446Y55797I-636J636D01*
X120303Y76446D02*
G01X119454Y75597D01*
Y75597D02*
G03X119454Y74324I636J-637D01*
Y74324D02*
G01X122424Y71354D01*
Y71354D02*
G03X123697Y71354I636J636D01*
Y71354D02*
G01X124546Y72203D01*
Y72203D02*
G03X124546Y73476I-636J636D01*
Y73476D02*
G01X121576Y76446D01*
Y76446D02*
G03X120303Y76446I-637J-636D01*
X138082Y79592D02*
G01X133839Y83834D01*
X131718Y81713*
X135961Y77470*
X138082Y79592*
X198300Y17900D02*
G01Y23900D01*
X195300*
Y17900*
X198300*
X201000Y95800D02*
G01Y101800D01*
X198000*
Y95800*
X201000*
G54D11*
X18357Y80183D02*
G01X18737Y80433D01*
X19180Y80600*
X19687*
X20257Y80350*
X20700Y79933*
X21017Y79433*
X21270Y78600*
X21333Y77850*
X21207Y77100*
X21017Y76600*
X20637Y76100*
X20193Y75767*
X19750Y75600*
X19307*
X18863Y75767*
X18483Y76017*
X18167Y76350*
X14777Y75600D02*
G01X14650Y76683D01*
X14460Y77600*
X14207Y78433*
X13890Y79350*
X13383Y80600*
X15917*
X38743Y93500D02*
G01Y89917D01*
X38490Y89166*
X37983Y88667*
X37350Y88500*
X36717Y88667*
X36210Y89166*
X35957Y89917*
Y93500*
X33453Y92667D02*
G01X33073Y93167D01*
X32630Y93417*
X32123Y93500*
X31490Y93333*
X31047Y92917*
X30920Y92417*
X30983Y91916*
X31237Y91500*
X32503Y90667*
X33073Y90083*
X33453Y89250*
X33580Y88500*
X30920*
X66717Y21900D02*
G01Y26900D01*
X65133*
X64627Y26650*
X64310Y26317*
X64183Y25650*
X64310Y24983*
X64690Y24567*
X65133Y24317*
X66717*
X65133D02*
G01X64183Y21900D01*
X60350D02*
G01Y26900D01*
X61110Y25900*
Y21900D02*
G01X59590D01*
X63957Y34883D02*
G01X64337Y35133D01*
X64780Y35300*
X65287*
X65857Y35050*
X66300Y34633*
X66617Y34133*
X66870Y33300*
X66933Y32550*
X66807Y31800*
X66617Y31300*
X66237Y30800*
X65793Y30467*
X65350Y30300*
X64907*
X64463Y30467*
X64083Y30717*
X63767Y31050*
X60250Y30300D02*
G01Y35300D01*
X61010Y34300*
Y30300D02*
G01X59490D01*
X70117Y98200D02*
G01Y103200D01*
X68533*
X68027Y102950*
X67710Y102617*
X67583Y101950*
X67710Y101283*
X68090Y100867*
X68533Y100617*
X70117*
X68533D02*
G01X67583Y98200D01*
X65143Y99200D02*
G01X64763Y98617D01*
X64257Y98283*
X63687Y98200*
X63180Y98283*
X62673Y98700*
X62357Y99200*
X62293Y99700*
X62420Y100283*
X62863Y100700*
X63307Y100867*
X63877*
X63307D02*
G01X62927Y101117D01*
X62610Y101533*
X62483Y102033*
X62610Y102533*
X62927Y102950*
X63497Y103200*
X64067Y103117*
X64637Y102783*
X105717Y16600D02*
G01Y21600D01*
X104133*
X103627Y21350*
X103310Y21017*
X103183Y20350*
X103310Y19683*
X103690Y19267*
X104133Y19017*
X105717*
X104133D02*
G01X103183Y16600D01*
X99350D02*
G01X98907Y16683D01*
X98400Y16933*
X98083Y17350*
X97957Y17933*
X98083Y18517*
X98463Y19017*
X99033Y19267*
X99667*
X100047Y19433*
X100363Y19850*
X100490Y20433*
X100300Y21017*
X99857Y21433*
X99350Y21600*
X98843Y21433*
X98400Y21017*
X98210Y20433*
X98337Y19850*
X98653Y19433*
X99033Y19267*
X99667*
X100237Y19017*
X100617Y18517*
X100743Y17933*
X100617Y17350*
X100300Y16933*
X99793Y16683*
X99350Y16600*
X105991Y46755D02*
G01X106437Y46663D01*
X106868Y46468*
X107226Y46110*
X107452Y45530*
X107471Y44922*
X107342Y44344*
X106932Y43576*
X106446Y43000*
X105826Y42560*
X105338Y42341*
X104716Y42256*
X104167Y42334*
X103735Y42529*
X103422Y42843*
X103226Y43274*
X103134Y43720*
X103146Y44179*
X102453Y46758D02*
G01X102552Y47484D01*
X102519Y47988*
X102279Y48464*
X101847Y48660*
X101388Y48648*
X100855Y48474*
X100398Y48106*
X100089Y47708*
X99915Y47175*
X99889Y46612*
X100084Y46180*
X100561Y45940*
X101228Y45980*
X101937Y46331*
X102571Y46876*
X103248Y47731*
X103526Y48278*
X103714Y48914*
X103695Y49522*
X103441Y49895*
X103010Y50090*
X102491Y50020*
X88745Y60091D02*
G01X88837Y60537D01*
X89032Y60968*
X89390Y61326*
X89970Y61552*
X90578Y61571*
X91156Y61441*
X91924Y61032*
X92500Y60546*
X92940Y59926*
X93159Y59438*
X93244Y58816*
X93166Y58267*
X92971Y57835*
X92657Y57522*
X92226Y57326*
X91780Y57234*
X91321Y57246*
X89643Y55921D02*
G01X89787Y55240D01*
X89664Y54646*
X89320Y54184*
X88903Y53885*
X88250Y53821*
X87672Y53951*
X87274Y54260*
X86951Y54762*
X86970Y55370*
X87166Y55801*
X87568Y56204*
X87166Y55801D02*
G01X86720Y55709D01*
X86202Y55780*
X85758Y56044*
X85494Y56487*
X85424Y57006*
X85650Y57586*
X86112Y57930*
X86751Y58097*
X124745Y50391D02*
G01X124837Y50837D01*
X125032Y51268*
X125390Y51626*
X125970Y51852*
X126579Y51871*
X127156Y51742*
X127924Y51332*
X128500Y50846*
X128940Y50226*
X129160Y49738*
X129244Y49116*
X129166Y48567*
X128971Y48135*
X128657Y47822*
X128226Y47626*
X127781Y47534*
X127321Y47546*
X125820Y46045D02*
G01X125846Y45481D01*
X125709Y44991*
X125365Y44529*
X124844Y44244*
X124295Y44166*
X123658Y44355*
X123142Y44781*
X122760Y45342*
X122690Y45861*
X122767Y46410*
X123022Y46782*
X123394Y47037*
X124033Y47204*
X122367Y48602*
X121157Y47393*
X121548Y67094D02*
G01X121640Y67540D01*
X121835Y67971*
X122194Y68329*
X122774Y68555*
X123382Y68574*
X123959Y68445*
X124728Y68035*
X125303Y67549*
X125743Y66929*
X125963Y66441*
X126048Y65819*
X125970Y65270*
X125774Y64838*
X125460Y64525*
X125029Y64329*
X124584Y64237*
X124124Y64249*
X122168Y61232D02*
G01X118632Y64768D01*
X119877Y64598*
X122705Y61770D02*
G01X121631Y60695D01*
X118562Y57626D02*
G01X115026Y61162D01*
X116270Y60992*
X119099Y58164D02*
G01X118024Y57089D01*
X125848Y62094D02*
G01X125940Y62540D01*
X126135Y62971*
X126494Y63329*
X127074Y63556*
X127682Y63574*
X128259Y63445*
X129028Y63035*
X129603Y62549*
X130043Y61929*
X130263Y61441*
X130348Y60819*
X130270Y60270*
X130074Y59839*
X129761Y59525*
X129329Y59329*
X128884Y59237*
X128424Y59249*
X126468Y56232D02*
G01X122932Y59768D01*
X124177Y59598*
X127005Y56770D02*
G01X125931Y55695D01*
X120766Y56423D02*
G01X120144Y56508D01*
X119654Y56371*
X119237Y56072*
X118906Y55506*
X118888Y54898*
X119152Y54455*
X119550Y54146*
X120024Y54031*
X121509Y54337*
X122324Y54328*
X123182Y54007*
X123802Y53567*
X121921Y51686*
X139531Y79834D02*
G01X143067Y83369D01*
X141947Y84489*
X141412Y84670*
X140952Y84658*
X140391Y84276*
X140010Y83716*
X139984Y83152*
X140120Y82662*
X141240Y81542*
X140120Y82662D02*
G01X137740Y81625D01*
X136203Y83986D02*
G01X135595Y84005D01*
X135119Y84246*
X134878Y84722*
X134918Y85389*
X135225Y86143*
X135666Y86763*
X136314Y87411*
X136934Y87852*
X137629Y88100*
X138133Y88067*
X138565Y87871*
X138805Y87395*
X138838Y86890*
X138664Y86358*
X138282Y85797*
X137780Y85474*
X137143Y85285*
X136639Y85318*
X136267Y85573*
X136026Y86049*
X136052Y86612*
X136314Y87411*
X117591Y81055D02*
G01X118037Y80963D01*
X118468Y80768*
X118826Y80410*
X119052Y79830*
X119071Y79222*
X118941Y78644*
X118532Y77876*
X118046Y77300*
X117426Y76860*
X116938Y76640*
X116316Y76556*
X115767Y76634*
X115335Y76829*
X115022Y77143*
X114826Y77574*
X114734Y78019*
X114746Y78479*
X111192Y80973D02*
G01X114727Y84508D01*
X113851Y80317*
X111611Y82557*
X188300Y17483D02*
G01X193300D01*
Y19067*
X193050Y19573*
X192717Y19890*
X192050Y20017*
X191383Y19890*
X190967Y19510*
X190717Y19067*
Y17483*
Y19067D02*
G01X188300Y20017D01*
Y24610D02*
G01X193300D01*
X189717Y22267*
Y25433*
X191300Y95683D02*
G01X196300D01*
Y97267*
X196050Y97773*
X195717Y98090*
X195050Y98217*
X194383Y98090*
X193967Y97710*
X193717Y97267*
Y95683*
Y97267D02*
G01X191300Y98217D01*
X192050Y100657D02*
G01X191633Y101037D01*
X191383Y101480*
X191300Y102050*
X191467Y102620*
X191800Y103063*
X192383Y103380*
X193050Y103443*
X193717Y103317*
X194133Y103000*
X194467Y102557*
X194550Y102113*
X194467Y101670*
X194133Y101100*
X196300Y101290*
Y103000*
X0Y0D02*
G01X216535D01*
Y118110*
X0*
Y0*
X32718Y85800D02*
G03X32718Y85800I-1118D01*
X40100Y84100D02*
G01Y95500D01*
X29100*
Y84100*
X40100*
G54D10*
X28900Y205410D02*
G01Y206610D01*
Y206610D02*
G03X28000Y207510I-900D01*
Y207510D02*
G01X23800D01*
Y207510D02*
G03X22900Y206610J-900D01*
Y206610D02*
G01Y205410D01*
Y205410D02*
G03X23800Y204510I900D01*
Y204510D02*
G01X28000D01*
Y204510D02*
G03X28900Y205410J900D01*
X69200Y150910D02*
G01X75200D01*
Y153910*
X69200*
Y150910*
X75300Y160310D02*
G01Y161510D01*
Y161510D02*
G03X74400Y162410I-900D01*
Y162410D02*
G01X70200D01*
Y162410D02*
G03X69300Y161510J-900D01*
Y161510D02*
G01Y160310D01*
Y160310D02*
G03X70200Y159410I900D01*
Y159410D02*
G01X74400D01*
Y159410D02*
G03X75300Y160310J900D01*
X71800Y227210D02*
G01X77800D01*
Y230210*
X71800*
Y227210*
X93354Y190113D02*
G01X94203Y189264D01*
Y189264D02*
G03X95476Y189264I636J636D01*
Y189264D02*
G01X98446Y192234D01*
Y192234D02*
G03X98446Y193507I-636J636D01*
Y193507D02*
G01X97597Y194356D01*
Y194356D02*
G03X96324Y194356I-637J-636D01*
Y194356D02*
G01X93354Y191386D01*
Y191386D02*
G03X93354Y190113I636J-637D01*
X107900Y145310D02*
G01X113900D01*
Y148310*
X107900*
Y145310*
X112097Y165164D02*
G01X112946Y166013D01*
Y166013D02*
G03X112946Y167286I-636J636D01*
Y167286D02*
G01X109976Y170256D01*
Y170256D02*
G03X108703Y170256I-637J-636D01*
Y170256D02*
G01X107854Y169407D01*
Y169407D02*
G03X107854Y168134I636J-637D01*
Y168134D02*
G01X110824Y165164D01*
Y165164D02*
G03X112097Y165164I636J636D01*
X126854Y196413D02*
G01X127703Y195564D01*
Y195564D02*
G03X128976Y195564I636J636D01*
Y195564D02*
G01X131946Y198534D01*
Y198534D02*
G03X131946Y199807I-636J636D01*
Y199807D02*
G01X131097Y200656D01*
Y200656D02*
G03X129824Y200656I-637J-636D01*
Y200656D02*
G01X126854Y197686D01*
Y197686D02*
G03X126854Y196413I636J-637D01*
X130754Y192613D02*
G01X131603Y191764D01*
Y191764D02*
G03X132876Y191764I636J636D01*
Y191764D02*
G01X135846Y194734D01*
Y194734D02*
G03X135846Y196007I-636J636D01*
Y196007D02*
G01X134997Y196856D01*
Y196856D02*
G03X133724Y196856I-637J-636D01*
Y196856D02*
G01X130754Y193886D01*
Y193886D02*
G03X130754Y192613I636J-637D01*
X134446Y183907D02*
G01X133597Y184756D01*
Y184756D02*
G03X132324Y184756I-637J-636D01*
Y184756D02*
G01X129354Y181786D01*
Y181786D02*
G03X129354Y180513I636J-637D01*
Y180513D02*
G01X130203Y179664D01*
Y179664D02*
G03X131476Y179664I636J636D01*
Y179664D02*
G01X134446Y182634D01*
Y182634D02*
G03X134446Y183907I-636J636D01*
X120303Y204556D02*
G01X119454Y203707D01*
Y203707D02*
G03X119454Y202434I636J-637D01*
Y202434D02*
G01X122424Y199464D01*
Y199464D02*
G03X123697Y199464I636J636D01*
Y199464D02*
G01X124546Y200313D01*
Y200313D02*
G03X124546Y201586I-636J636D01*
Y201586D02*
G01X121576Y204556D01*
Y204556D02*
G03X120303Y204556I-637J-636D01*
X138082Y207702D02*
G01X133839Y211944D01*
X131718Y209823*
X135961Y205580*
X138082Y207702*
X198300Y146010D02*
G01Y152010D01*
X195300*
Y146010*
X198300*
X201000Y223910D02*
G01Y229910D01*
X198000*
Y223910*
X201000*
G54D11*
X18357Y208293D02*
G01X18737Y208543D01*
X19180Y208710*
X19687*
X20257Y208460*
X20700Y208043*
X21017Y207543*
X21270Y206710*
X21333Y205960*
X21207Y205210*
X21017Y204710*
X20637Y204210*
X20193Y203877*
X19750Y203710*
X19307*
X18863Y203877*
X18483Y204127*
X18167Y204460*
X14777Y203710D02*
G01X14650Y204793D01*
X14460Y205710*
X14207Y206543*
X13890Y207460*
X13383Y208710*
X15917*
X38743Y221610D02*
G01Y218027D01*
X38490Y217276*
X37983Y216777*
X37350Y216610*
X36717Y216777*
X36210Y217276*
X35957Y218027*
Y221610*
X33453Y220777D02*
G01X33073Y221277D01*
X32630Y221527*
X32123Y221610*
X31490Y221443*
X31047Y221027*
X30920Y220527*
X30983Y220026*
X31237Y219610*
X32503Y218777*
X33073Y218193*
X33453Y217360*
X33580Y216610*
X30920*
X66717Y150010D02*
G01Y155010D01*
X65133*
X64627Y154760*
X64310Y154427*
X64183Y153760*
X64310Y153093*
X64690Y152677*
X65133Y152427*
X66717*
X65133D02*
G01X64183Y150010D01*
X60350D02*
G01Y155010D01*
X61110Y154010*
Y150010D02*
G01X59590D01*
X63957Y162993D02*
G01X64337Y163243D01*
X64780Y163410*
X65287*
X65857Y163160*
X66300Y162743*
X66617Y162243*
X66870Y161410*
X66933Y160660*
X66807Y159910*
X66617Y159410*
X66237Y158910*
X65793Y158577*
X65350Y158410*
X64907*
X64463Y158577*
X64083Y158827*
X63767Y159160*
X60250Y158410D02*
G01Y163410D01*
X61010Y162410*
Y158410D02*
G01X59490D01*
X70117Y226310D02*
G01Y231310D01*
X68533*
X68027Y231060*
X67710Y230727*
X67583Y230060*
X67710Y229393*
X68090Y228977*
X68533Y228727*
X70117*
X68533D02*
G01X67583Y226310D01*
X65143Y227310D02*
G01X64763Y226727D01*
X64257Y226393*
X63687Y226310*
X63180Y226393*
X62673Y226810*
X62357Y227310*
X62293Y227810*
X62420Y228393*
X62863Y228810*
X63307Y228977*
X63877*
X63307D02*
G01X62927Y229227D01*
X62610Y229643*
X62483Y230143*
X62610Y230643*
X62927Y231060*
X63497Y231310*
X64067Y231227*
X64637Y230893*
X105717Y144710D02*
G01Y149710D01*
X104133*
X103627Y149460*
X103310Y149127*
X103183Y148460*
X103310Y147793*
X103690Y147377*
X104133Y147127*
X105717*
X104133D02*
G01X103183Y144710D01*
X99350D02*
G01X98907Y144793D01*
X98400Y145043*
X98083Y145460*
X97957Y146043*
X98083Y146627*
X98463Y147127*
X99033Y147377*
X99667*
X100047Y147543*
X100363Y147960*
X100490Y148543*
X100300Y149127*
X99857Y149543*
X99350Y149710*
X98843Y149543*
X98400Y149127*
X98210Y148543*
X98337Y147960*
X98653Y147543*
X99033Y147377*
X99667*
X100237Y147127*
X100617Y146627*
X100743Y146043*
X100617Y145460*
X100300Y145043*
X99793Y144793*
X99350Y144710*
X105991Y174865D02*
G01X106437Y174773D01*
X106868Y174578*
X107226Y174220*
X107452Y173640*
X107471Y173032*
X107342Y172454*
X106932Y171686*
X106446Y171110*
X105826Y170670*
X105338Y170451*
X104716Y170366*
X104167Y170444*
X103735Y170639*
X103422Y170953*
X103226Y171384*
X103134Y171830*
X103146Y172289*
X102453Y174868D02*
G01X102552Y175594D01*
X102519Y176098*
X102279Y176574*
X101847Y176770*
X101388Y176758*
X100855Y176584*
X100398Y176216*
X100089Y175818*
X99915Y175285*
X99889Y174722*
X100084Y174290*
X100561Y174050*
X101228Y174090*
X101937Y174441*
X102571Y174986*
X103248Y175841*
X103526Y176388*
X103714Y177024*
X103695Y177632*
X103441Y178005*
X103010Y178200*
X102491Y178130*
X88745Y188201D02*
G01X88837Y188647D01*
X89032Y189078*
X89390Y189436*
X89970Y189662*
X90578Y189681*
X91156Y189551*
X91924Y189142*
X92500Y188656*
X92940Y188036*
X93159Y187548*
X93244Y186926*
X93166Y186377*
X92971Y185945*
X92657Y185632*
X92226Y185436*
X91780Y185344*
X91321Y185356*
X89643Y184031D02*
G01X89787Y183350D01*
X89664Y182756*
X89320Y182294*
X88903Y181995*
X88250Y181931*
X87672Y182061*
X87274Y182370*
X86951Y182872*
X86970Y183480*
X87166Y183911*
X87568Y184314*
X87166Y183911D02*
G01X86720Y183819D01*
X86202Y183890*
X85758Y184154*
X85494Y184597*
X85424Y185116*
X85650Y185696*
X86112Y186040*
X86751Y186207*
X124745Y178501D02*
G01X124837Y178947D01*
X125032Y179378*
X125390Y179736*
X125970Y179962*
X126579Y179981*
X127156Y179852*
X127924Y179442*
X128500Y178956*
X128940Y178336*
X129160Y177848*
X129244Y177226*
X129166Y176677*
X128971Y176245*
X128657Y175932*
X128226Y175736*
X127781Y175644*
X127321Y175656*
X125820Y174155D02*
G01X125846Y173591D01*
X125709Y173101*
X125365Y172639*
X124844Y172354*
X124295Y172276*
X123658Y172465*
X123142Y172891*
X122760Y173452*
X122690Y173971*
X122767Y174520*
X123022Y174892*
X123394Y175147*
X124033Y175314*
X122367Y176712*
X121157Y175503*
X121548Y195204D02*
G01X121640Y195650D01*
X121835Y196081*
X122194Y196439*
X122774Y196665*
X123382Y196684*
X123959Y196555*
X124728Y196145*
X125303Y195659*
X125743Y195039*
X125963Y194551*
X126048Y193929*
X125970Y193380*
X125774Y192948*
X125460Y192635*
X125029Y192439*
X124584Y192347*
X124124Y192359*
X122168Y189342D02*
G01X118632Y192878D01*
X119877Y192708*
X122705Y189880D02*
G01X121631Y188805D01*
X118562Y185736D02*
G01X115026Y189272D01*
X116270Y189102*
X119099Y186274D02*
G01X118024Y185199D01*
X125848Y190204D02*
G01X125940Y190650D01*
X126135Y191081*
X126494Y191439*
X127074Y191666*
X127682Y191684*
X128259Y191555*
X129028Y191145*
X129603Y190659*
X130043Y190039*
X130263Y189551*
X130348Y188929*
X130270Y188380*
X130074Y187949*
X129761Y187635*
X129329Y187439*
X128884Y187347*
X128424Y187359*
X126468Y184342D02*
G01X122932Y187878D01*
X124177Y187708*
X127005Y184880D02*
G01X125931Y183805D01*
X120766Y184533D02*
G01X120144Y184618D01*
X119654Y184481*
X119237Y184182*
X118906Y183616*
X118888Y183008*
X119152Y182565*
X119550Y182256*
X120024Y182141*
X121509Y182447*
X122324Y182438*
X123182Y182117*
X123802Y181677*
X121921Y179796*
X139531Y207944D02*
G01X143067Y211479D01*
X141947Y212599*
X141412Y212780*
X140952Y212768*
X140391Y212386*
X140010Y211826*
X139984Y211262*
X140120Y210772*
X141240Y209652*
X140120Y210772D02*
G01X137740Y209735D01*
X136203Y212096D02*
G01X135595Y212115D01*
X135119Y212356*
X134878Y212832*
X134918Y213499*
X135225Y214253*
X135666Y214873*
X136314Y215521*
X136934Y215962*
X137629Y216210*
X138133Y216177*
X138565Y215981*
X138805Y215505*
X138838Y215000*
X138664Y214468*
X138282Y213907*
X137780Y213584*
X137143Y213395*
X136639Y213428*
X136267Y213683*
X136026Y214159*
X136052Y214722*
X136314Y215521*
X117591Y209165D02*
G01X118037Y209073D01*
X118468Y208878*
X118826Y208520*
X119052Y207940*
X119071Y207332*
X118941Y206754*
X118532Y205986*
X118046Y205410*
X117426Y204970*
X116938Y204750*
X116316Y204666*
X115767Y204744*
X115335Y204939*
X115022Y205253*
X114826Y205684*
X114734Y206129*
X114746Y206589*
X111192Y209083D02*
G01X114727Y212618D01*
X113851Y208427*
X111611Y210667*
X188300Y145593D02*
G01X193300D01*
Y147177*
X193050Y147683*
X192717Y148000*
X192050Y148127*
X191383Y148000*
X190967Y147620*
X190717Y147177*
Y145593*
Y147177D02*
G01X188300Y148127D01*
Y152720D02*
G01X193300D01*
X189717Y150377*
Y153543*
X191300Y223793D02*
G01X196300D01*
Y225377*
X196050Y225883*
X195717Y226200*
X195050Y226327*
X194383Y226200*
X193967Y225820*
X193717Y225377*
Y223793*
Y225377D02*
G01X191300Y226327D01*
X192050Y228767D02*
G01X191633Y229147D01*
X191383Y229590*
X191300Y230160*
X191467Y230730*
X191800Y231173*
X192383Y231490*
X193050Y231553*
X193717Y231427*
X194133Y231110*
X194467Y230667*
X194550Y230223*
X194467Y229780*
X194133Y229210*
X196300Y229400*
Y231110*
X0Y128110D02*
G01X216535D01*
Y246220*
X0*
Y128110*
X32718Y213910D02*
G03X32718Y213910I-1118D01*
X40100Y212210D02*
G01Y223610D01*
X29100*
Y212210*
X40100*
X100179Y249443D02*
G01X100128Y249943D01*
X99997Y250428*
X99792Y250886*
X99517Y251305*
X99178Y251676*
X98785Y251988*
X98348Y252234*
X97877Y252408*
X97384Y252505*
X97025Y252525*
X46245*
X45745Y252485*
X45257Y252366*
X44794Y252172*
X44368Y251906*
X43990Y251576*
X43668Y251191*
X43412Y250759*
X43228Y250292*
X43120Y249802*
X43091Y249297*
X43142Y248797*
X43273Y248312*
X43478Y247854*
X43753Y247435*
X44092Y247064*
X44485Y246752*
X44922Y246506*
X45393Y246332*
X45886Y246235*
X46245Y246215*
X97025*
X97525Y246255*
X98013Y246374*
X98476Y246568*
X98902Y246834*
X99280Y247164*
X99602Y247549*
X99858Y247981*
X100042Y248448*
X100150Y248938*
X100179Y249443*
X173471D02*
G01X173420Y249943D01*
X173289Y250428*
X173084Y250886*
X172809Y251305*
X172470Y251676*
X172077Y251988*
X171640Y252234*
X171169Y252408*
X170676Y252505*
X170317Y252525*
X119325*
X118825Y252485*
X118337Y252366*
X117874Y252172*
X117448Y251906*
X117070Y251576*
X116748Y251191*
X116492Y250759*
X116308Y250292*
X116200Y249802*
X116171Y249297*
X116222Y248797*
X116353Y248312*
X116558Y247854*
X116833Y247435*
X117172Y247064*
X117565Y246752*
X118002Y246506*
X118473Y246332*
X118966Y246235*
X119325Y246215*
X170317*
X170817Y246255*
X171305Y246374*
X171768Y246568*
X172194Y246834*
X172572Y247164*
X172894Y247549*
X173150Y247981*
X173334Y248448*
X173442Y248938*
X173471Y249443*
X99667Y123251D02*
G01X99905Y123694D01*
X100069Y124168*
X100156Y124662*
X100163Y125164*
X100091Y125661*
X99941Y126140*
X99717Y126589*
X99424Y126997*
X99071Y127353*
X98665Y127649*
X98218Y127877*
X97740Y128031*
X97244Y128107*
X97015Y128115*
X46217*
X45717Y128075*
X45229Y127956*
X44766Y127762*
X44340Y127496*
X43962Y127166*
X43640Y126781*
X43384Y126349*
X43200Y125882*
X43092Y125392*
X43063Y124891*
X43114Y124391*
X43243Y123906*
X43448Y123448*
X43662Y123109*
X43401Y122680*
X43211Y122216*
X43098Y121727*
X43063Y121226*
X43109Y120726*
X43233Y120239*
X43432Y119779*
X43702Y119356*
X44036Y118981*
X44425Y118664*
X44860Y118412*
X45329Y118233*
X45820Y118130*
X46218Y118105*
X97220*
X97720Y118145*
X98208Y118264*
X98671Y118458*
X99097Y118724*
X99475Y119054*
X99797Y119439*
X100053Y119871*
X100237Y120338*
X100345Y120828*
X100374Y121329*
X100323Y121829*
X100194Y122314*
X99989Y122772*
X99714Y123192*
X99667Y123251*
X172873Y123111D02*
G01X173134Y123540D01*
X173324Y124004*
X173437Y124493*
X173472Y124994*
X173426Y125494*
X173302Y125981*
X173103Y126441*
X172833Y126864*
X172499Y127239*
X172110Y127556*
X171675Y127808*
X171206Y127987*
X170715Y128090*
X170317Y128115*
X119315*
X118815Y128075*
X118327Y127956*
X117864Y127762*
X117438Y127496*
X117060Y127166*
X116738Y126781*
X116482Y126349*
X116298Y125882*
X116190Y125392*
X116161Y124891*
X116212Y124391*
X116341Y123906*
X116546Y123448*
X116821Y123028*
X116868Y122969*
X116630Y122526*
X116466Y122052*
X116379Y121558*
X116372Y121056*
X116444Y120559*
X116594Y120080*
X116818Y119631*
X117111Y119223*
X117464Y118867*
X117870Y118571*
X118317Y118343*
X118795Y118189*
X119291Y118113*
X119520Y118105*
X170318*
X170818Y118145*
X171306Y118264*
X171769Y118458*
X172195Y118724*
X172573Y119054*
X172895Y119439*
X173151Y119871*
X173335Y120338*
X173443Y120828*
X173472Y121329*
X173421Y121829*
X173292Y122314*
X173087Y122772*
X172873Y123111*
X100364Y-3077D02*
G01X100313Y-2577D01*
X100182Y-2092*
X99977Y-1634*
X99702Y-1215*
X99363Y-844*
X98970Y-532*
X98533Y-286*
X98062Y-112*
X97569Y-15*
X97210Y5*
X46218*
X45718Y-35*
X45230Y-154*
X44767Y-348*
X44341Y-614*
X43963Y-944*
X43641Y-1329*
X43385Y-1761*
X43201Y-2228*
X43093Y-2718*
X43064Y-3223*
X43115Y-3723*
X43246Y-4208*
X43451Y-4666*
X43726Y-5085*
X44065Y-5456*
X44458Y-5768*
X44895Y-6014*
X45366Y-6188*
X45859Y-6285*
X46218Y-6305*
X97210*
X97710Y-6265*
X98198Y-6146*
X98661Y-5952*
X99087Y-5686*
X99465Y-5356*
X99787Y-4971*
X100043Y-4539*
X100227Y-4072*
X100335Y-3582*
X100364Y-3077*
X173444D02*
G01X173393Y-2577D01*
X173262Y-2092*
X173057Y-1634*
X172782Y-1215*
X172443Y-844*
X172050Y-532*
X171613Y-286*
X171142Y-112*
X170649Y-15*
X170290Y5*
X119510*
X119010Y-35*
X118522Y-154*
X118059Y-348*
X117633Y-614*
X117255Y-944*
X116933Y-1329*
X116677Y-1761*
X116493Y-2228*
X116385Y-2718*
X116356Y-3223*
X116407Y-3723*
X116538Y-4208*
X116743Y-4666*
X117018Y-5085*
X117357Y-5456*
X117750Y-5768*
X118187Y-6014*
X118658Y-6188*
X119151Y-6285*
X119510Y-6305*
X170290*
X170790Y-6265*
X171278Y-6146*
X171741Y-5952*
X172167Y-5686*
X172545Y-5356*
X172867Y-4971*
X173123Y-4539*
X173307Y-4072*
X173415Y-3582*
X173444Y-3077*
X0Y-6305D02*
G01X23918D01*
X24418Y-6265*
X24906Y-6146*
X25369Y-5952*
X25795Y-5686*
X26173Y-5356*
X26495Y-4971*
X26751Y-4539*
X26935Y-4072*
X27043Y-3582*
X27072Y-3077*
Y-3077D02*
G01X27021Y-2577D01*
X26890Y-2092*
X26685Y-1634*
X26410Y-1215*
X26071Y-844*
X25678Y-532*
X25241Y-286*
X24770Y-112*
X24277Y-15*
X23918Y5*
X5*
Y118105*
X23918*
X24418Y118145*
X24906Y118264*
X25369Y118458*
X25795Y118724*
X26173Y119054*
X26495Y119439*
X26751Y119871*
X26935Y120338*
X27043Y120828*
X27072Y121329*
X27021Y121829*
X26892Y122314*
X26687Y122772*
X26473Y123111*
X26734Y123540*
X26924Y124004*
X27037Y124493*
X27072Y124994*
X27026Y125494*
X26902Y125981*
X26703Y126441*
X26433Y126864*
X26099Y127239*
X25710Y127556*
X25275Y127808*
X24806Y127987*
X24315Y128090*
X23917Y128115*
X0*
Y246215*
X23945*
X24445Y246255*
X24933Y246374*
X25396Y246568*
X25822Y246834*
X26200Y247164*
X26522Y247549*
X26778Y247981*
X26962Y248448*
X27070Y248938*
X27099Y249443*
X27048Y249943*
X26917Y250428*
X26712Y250886*
X26437Y251305*
X26098Y251676*
X25705Y251988*
X25268Y252234*
X24797Y252408*
X24304Y252505*
X23945Y252525*
X0*
X216535D02*
G01X192617D01*
X192117Y252485*
X191629Y252366*
X191166Y252172*
X190740Y251906*
X190362Y251576*
X190040Y251191*
X189784Y250759*
X189600Y250292*
X189492Y249802*
X189463Y249297*
X189514Y248797*
X189645Y248312*
X189850Y247854*
X190125Y247435*
X190464Y247064*
X190857Y246752*
X191294Y246506*
X191765Y246332*
X192258Y246235*
X192617Y246215*
X216530*
Y128115*
X192617*
X192117Y128075*
X191629Y127956*
X191166Y127762*
X190740Y127496*
X190362Y127166*
X190040Y126781*
X189784Y126349*
X189600Y125882*
X189492Y125392*
X189463Y124891*
X189514Y124391*
X189643Y123906*
X189848Y123448*
X190062Y123109*
X189801Y122680*
X189611Y122216*
X189498Y121727*
X189463Y121226*
X189509Y120726*
X189633Y120239*
X189832Y119779*
X190102Y119356*
X190436Y118981*
X190825Y118664*
X191260Y118412*
X191729Y118233*
X192220Y118130*
X192618Y118105*
X216535*
Y5*
X192590*
X192090Y-35*
X191602Y-154*
X191139Y-348*
X190713Y-614*
X190335Y-944*
X190013Y-1329*
X189757Y-1761*
X189573Y-2228*
X189465Y-2718*
X189436Y-3223*
X189487Y-3723*
X189618Y-4208*
X189823Y-4666*
X190098Y-5085*
X190437Y-5456*
X190830Y-5768*
X191267Y-6014*
X191738Y-6188*
X192231Y-6285*
X192590Y-6305*
X216535*
X0Y0D02*
G01X216535D01*
Y118110*
X0*
Y0*
Y128110D02*
G01X216535D01*
Y246220*
X0*
Y128110*
Y252525D02*
G01Y286220D01*
Y286220D02*
G01X216535D01*
Y252525*
Y-6305D02*
G01Y-40000D01*
X0*
Y-6305*
Y5D02*
G01Y118108D01*
Y128115D02*
G01Y246219D01*
X216535Y246212D02*
G01Y128115D01*
Y118109D02*
G01Y5D01*
M02*
