G04 CAM350/DFMSTREAM V12.1 (Build 1022) Date:  Mon Dec 28 22:30:32 2020 *
G04 Database: (Untitled) *
G04 Layer 12: AST.art *
%FSLAX25Y25*%
%MOIN*%
%SFA1.000B1.000*%

%MIA0B0*%
%IPPOS*%
%ADD10C,0.00400*%
%ADD11C,0.00600*%
%LNAST.art*%
%LPD*%
G54D10*
X31300Y59000D02*
G01X37300D01*
Y56000*
X31300*
Y59000*
Y65000D02*
G01X37300D01*
Y62000*
X31300*
Y65000*
X41400Y96200D02*
G01Y95000D01*
X40500Y94100D02*
G75*
G03X41400Y95000J900D01*
X40500Y94100D02*
G01X36300D01*
X35400Y95000D02*
G03X36300Y94100I900D01*
X35400Y95000D02*
G01Y96200D01*
X36300Y97100D02*
G03X35400Y96200J-900D01*
X36300Y97100D02*
G01X40500D01*
X41400Y96200D02*
G03X40500Y97100I-900D01*
X41500Y86000D02*
G01Y84800D01*
X40600Y83900D02*
G03X41500Y84800J900D01*
X40600Y83900D02*
G01X36400D01*
X35500Y84800D02*
G03X36400Y83900I900D01*
X35500Y84800D02*
G01Y86000D01*
X36400Y86900D02*
G03X35500Y86000J-900D01*
X36400Y86900D02*
G01X40600D01*
X41500Y86000D02*
G03X40600Y86900I-900D01*
X47300Y85100D02*
G01X46100D01*
X45200Y86000D02*
G03X46100Y85100I900D01*
X45200Y86000D02*
G01Y90200D01*
X46100Y91100D02*
G03X45200Y90200J-900D01*
X46100Y91100D02*
G01X47300D01*
X48200Y90200D02*
G03X47300Y91100I-900D01*
X48200Y90200D02*
G01Y86000D01*
X47300Y85100D02*
G03X48200Y86000J900D01*
X70700Y65200D02*
G01Y71200D01*
X73700*
Y65200*
X70700*
X136597Y86946D02*
G01X137446Y86097D01*
Y84824D02*
G03X137446Y86097I-636J636D01*
Y84824D02*
G01X134476Y81854D01*
X133203D02*
G03X134476Y81854I636J636D01*
X133203D02*
G01X132354Y82703D01*
Y83976D02*
G03X132354Y82703I636J-637D01*
Y83976D02*
G01X135324Y86946D01*
X136597D02*
G03X135324Y86946I-637J-636D01*
X140897Y82846D02*
G01X141746Y81997D01*
Y80724D02*
G03X141746Y81997I-636J636D01*
Y80724D02*
G01X138776Y77754D01*
X137503D02*
G03X138776Y77754I636J636D01*
X137503D02*
G01X136654Y78603D01*
Y79876D02*
G03X136654Y78603I636J-637D01*
Y79876D02*
G01X139624Y82846D01*
X140897D02*
G03X139624Y82846I-637J-636D01*
X195600Y74300D02*
G01X196800D01*
X197700Y73400D02*
G03X196800Y74300I-900D01*
X197700Y73400D02*
G01Y69200D01*
X196800Y68300D02*
G03X197700Y69200J900D01*
X196800Y68300D02*
G01X195600D01*
X194700Y69200D02*
G03X195600Y68300I900D01*
X194700Y69200D02*
G01Y73400D01*
X195600Y74300D02*
G03X194700Y73400J-900D01*
G54D11*
X7400Y55357D02*
G01X10983D01*
X11734Y55610*
X12233Y56117*
X12400Y56750*
X12233Y57383*
X11734Y57890*
X10983Y58143*
X7400*
X11400Y60457D02*
G01X11983Y60837D01*
X12317Y61343*
X12400Y61913*
X12317Y62420*
X11900Y62927*
X11400Y63243*
X10900Y63307*
X10317Y63180*
X9900Y62737*
X9733Y62293*
Y61723*
Y62293D02*
G01X9483Y62673D01*
X9067Y62990*
X8567Y63117*
X8067Y62990*
X7650Y62673*
X7400Y62103*
X7483Y61533*
X7817Y60963*
X38883Y54700D02*
G01Y59700D01*
X40467*
X40973Y59450*
X41290Y59117*
X41417Y58450*
X41290Y57783*
X40910Y57367*
X40467Y57117*
X38883*
X40467D02*
G01X41417Y54700D01*
X45123D02*
G01X45250Y55783D01*
X45440Y56700*
X45693Y57533*
X46010Y58450*
X46517Y59700*
X43983*
X39083Y61300D02*
G01Y66300D01*
X40667*
X41173Y66050*
X41490Y65717*
X41617Y65050*
X41490Y64383*
X41110Y63967*
X40667Y63717*
X39083*
X40667D02*
G01X41617Y61300D01*
X44247Y63383D02*
G01X44690Y63967D01*
X45070Y64300*
X45577Y64467*
X46020Y64300*
X46337Y63967*
X46590Y63467*
X46653Y62883*
X46590Y62383*
X46337Y61883*
X45957Y61467*
X45513Y61300*
X45007Y61467*
X44563Y61966*
X44310Y62717*
X44247Y63550*
X44373Y64633*
X44563Y65217*
X44880Y65800*
X45323Y66217*
X45767Y66300*
X46210Y66133*
X46527Y65717*
X23493Y98383D02*
G01X23113Y98633D01*
X22670Y98800*
X22163*
X21593Y98550*
X21150Y98133*
X20833Y97633*
X20580Y96800*
X20517Y96050*
X20643Y95300*
X20833Y94800*
X21213Y94300*
X21657Y93967*
X22100Y93800*
X22543*
X22987Y93967*
X23367Y94217*
X23683Y94550*
X27200Y93800D02*
G01Y98800D01*
X26440Y97800*
Y93800D02*
G01X27960D01*
X32300Y98800D02*
G01X31793Y98633D01*
X31413Y98217*
X31160Y97717*
X30970Y97050*
X30907Y96300*
X30970Y95550*
X31160Y94883*
X31413Y94383*
X31793Y93967*
X32300Y93800*
X32807Y93967*
X33187Y94383*
X33440Y94883*
X33630Y95550*
X33693Y96300*
X33630Y97050*
X33440Y97717*
X33187Y98217*
X32807Y98633*
X32300Y98800*
X28543Y88183D02*
G01X28163Y88433D01*
X27720Y88600*
X27213*
X26643Y88350*
X26200Y87933*
X25883Y87433*
X25630Y86600*
X25567Y85850*
X25693Y85100*
X25883Y84600*
X26263Y84100*
X26707Y83767*
X27150Y83600*
X27593*
X28037Y83767*
X28417Y84017*
X28733Y84350*
X32250Y83600D02*
G01X32693Y83683D01*
X33200Y83933*
X33517Y84350*
X33643Y84933*
X33517Y85517*
X33137Y86017*
X32567Y86267*
X31933*
X31553Y86433*
X31237Y86850*
X31110Y87433*
X31300Y88017*
X31743Y88433*
X32250Y88600*
X32757Y88433*
X33200Y88017*
X33390Y87433*
X33263Y86850*
X32947Y86433*
X32567Y86267*
X31933*
X31363Y86017*
X30983Y85517*
X30857Y84933*
X30983Y84350*
X31300Y83933*
X31807Y83683*
X32250Y83600*
X44717Y96343D02*
G01X44467Y95963D01*
X44300Y95520*
Y95013*
X44550Y94443*
X44967Y94000*
X45467Y93683*
X46300Y93430*
X47050Y93367*
X47800Y93493*
X48300Y93683*
X48800Y94063*
X49133Y94507*
X49300Y94950*
Y95393*
X49133Y95837*
X48883Y96217*
X48550Y96533*
X48717Y98973D02*
G01X49133Y99417D01*
X49300Y99923*
X49133Y100430*
X48634Y100873*
X47883Y101190*
X47133Y101317*
X46217*
X45467Y101190*
X44800Y100873*
X44467Y100493*
X44300Y100050*
X44467Y99543*
X44800Y99163*
X45300Y98910*
X45967Y98783*
X46550Y98910*
X47133Y99227*
X47467Y99607*
X47550Y100050*
X47383Y100557*
X46967Y100937*
X46217Y101317*
X65770Y27467D02*
G01X66277Y27050D01*
X66847Y26800*
X67353*
X67860Y27050*
X68240Y27467*
X68430Y28050*
X68303Y28633*
X67987Y29133*
X67417Y29467*
X66657Y29633*
X66213Y29967*
X66023Y30550*
X66150Y31133*
X66467Y31550*
X66910Y31800*
X67353*
X67797Y31633*
X68177Y31217*
X70300Y31800D02*
G01X71187Y26800D01*
X72200Y31800*
X73213Y26800*
X74100Y31800*
X77300Y26800D02*
G01Y31800D01*
X76540Y30800*
Y26800D02*
G01X78060D01*
X80700Y65083D02*
G01X75700D01*
Y66667*
X75950Y67173*
X76283Y67490*
X76950Y67617*
X77617Y67490*
X78033Y67110*
X78283Y66667*
Y65083*
Y66667D02*
G01X80700Y67617D01*
X76533Y70247D02*
G01X76033Y70627D01*
X75783Y71070*
X75700Y71577*
X75867Y72210*
X76283Y72653*
X76783Y72780*
X77284Y72717*
X77700Y72463*
X78533Y71197*
X79117Y70627*
X79950Y70247*
X80700Y70120*
Y72780*
X68796Y85716D02*
G01X69113Y85216D01*
X69493Y84882*
X69936Y84716*
X70443Y84882*
X70823Y85216*
X71203Y85716*
X71330Y86382*
Y89716*
X75163Y84716D02*
G01Y89716D01*
X74403Y88716*
Y84716D02*
G01X75923D01*
X106083Y6400D02*
G01X106400Y5900D01*
X106780Y5567*
X107223Y5400*
X107730Y5567*
X108110Y5900*
X108490Y6400*
X108617Y7067*
Y10400*
X113210Y5400D02*
G01Y10400D01*
X110867Y6817*
X114033*
X109828Y58396D02*
G01X112362Y55862D01*
X113071Y55510*
X113783Y55515*
X114348Y55845*
X114679Y56411*
X114683Y57123*
X114332Y57832*
X111798Y60366*
X117955Y59451D02*
G01X114419Y62987D01*
X114589Y61742*
X117417Y58914D02*
G01X118492Y59989D01*
X138106Y74552D02*
G01X137660Y74460D01*
X137229Y74265*
X136871Y73906*
X136644Y73326*
X136626Y72718*
X136755Y72141*
X137165Y71372*
X137651Y70797*
X138271Y70357*
X138759Y70137*
X139381Y70052*
X139930Y70130*
X140362Y70326*
X140675Y70640*
X140871Y71071*
X140963Y71516*
X140951Y71976*
X143968Y73932D02*
G01X140432Y77468D01*
X140602Y76223*
X143430Y73395D02*
G01X144505Y74470D01*
X145882Y77260D02*
G01X146563Y77116D01*
X147157Y77239*
X147619Y77583*
X147918Y78000*
X147982Y78653*
X147852Y79231*
X147543Y79629*
X147041Y79952*
X146433Y79933*
X146002Y79738*
X145599Y79335*
X146002Y79738D02*
G01X146094Y80183D01*
X146023Y80702*
X145759Y81145*
X145316Y81409*
X144797Y81479*
X144218Y81253*
X143873Y80791*
X143706Y80152*
X126106Y86952D02*
G01X125660Y86860D01*
X125229Y86665*
X124871Y86306*
X124644Y85726*
X124626Y85118*
X124755Y84541*
X125165Y83772*
X125651Y83197*
X126271Y82757*
X126759Y82537*
X127381Y82452*
X127930Y82530*
X128362Y82726*
X128675Y83040*
X128871Y83471*
X128963Y83916*
X128951Y84376*
X131968Y86332D02*
G01X128432Y89868D01*
X128602Y88623*
X131430Y85795D02*
G01X132505Y86870D01*
X136111Y90476D02*
G01X132576Y94011D01*
X133453Y89820*
X135692Y92060*
X109483Y108200D02*
G01X109800Y107700D01*
X110180Y107367*
X110623Y107200*
X111130Y107367*
X111510Y107700*
X111890Y108200*
X112017Y108867*
Y112200*
X114457Y108200D02*
G01X114837Y107617D01*
X115343Y107283*
X115913Y107200*
X116420Y107283*
X116927Y107700*
X117243Y108200*
X117307Y108700*
X117180Y109283*
X116737Y109700*
X116293Y109867*
X115723*
X116293D02*
G01X116673Y110117D01*
X116990Y110533*
X117117Y111033*
X116990Y111533*
X116673Y111950*
X116103Y112200*
X115533Y112117*
X114963Y111783*
X161100Y55550D02*
G01X158850D01*
X156100Y54283*
Y56817D02*
G01X158850Y55550D01*
X156933Y59447D02*
G01X156433Y59827D01*
X156183Y60270*
X156100Y60777*
X156267Y61410*
X156683Y61853*
X157183Y61980*
X157684Y61917*
X158100Y61663*
X158933Y60397*
X159517Y59827*
X160350Y59447*
X161100Y59320*
Y61980*
X183500Y55350D02*
G01X181250D01*
X178500Y54083*
Y56617D02*
G01X181250Y55350D01*
X183500Y60450D02*
G01X178500D01*
X179500Y59690*
X183500D02*
G01Y61210D01*
X193617Y61443D02*
G01X193367Y61063D01*
X193200Y60620*
Y60113*
X193450Y59543*
X193867Y59100*
X194367Y58783*
X195200Y58530*
X195950Y58467*
X196700Y58593*
X197200Y58783*
X197700Y59163*
X198033Y59607*
X198200Y60050*
Y60493*
X198033Y60937*
X197783Y61317*
X197450Y61633*
X194033Y63947D02*
G01X193533Y64327D01*
X193283Y64770*
X193200Y65277*
X193367Y65910*
X193783Y66353*
X194283Y66480*
X194784Y66417*
X195200Y66163*
X196033Y64897*
X196617Y64327*
X197450Y63947*
X198200Y63820*
Y66480*
X207000Y23157D02*
G01X202000D01*
Y24423*
X202250Y24930*
X202583Y25310*
X203083Y25627*
X203667Y25880*
X204500Y25943*
X205333Y25880*
X205917Y25627*
X206417Y25310*
X206750Y24930*
X207000Y24423*
Y23157*
Y29650D02*
G01X202000D01*
X203000Y28890*
X207000D02*
G01Y30410D01*
X205700Y52583D02*
G01X206200Y52900D01*
X206533Y53280*
X206700Y53723*
X206533Y54230*
X206200Y54610*
X205700Y54990*
X205033Y55117*
X201700*
X202533Y57747D02*
G01X202033Y58127D01*
X201783Y58570*
X201700Y59077*
X201867Y59710*
X202283Y60153*
X202783Y60280*
X203284Y60217*
X203700Y59963*
X204533Y58697*
X205117Y58127*
X205950Y57747*
X206700Y57620*
Y60280*
X209000Y87957D02*
G01X204000D01*
Y89223*
X204250Y89730*
X204583Y90110*
X205083Y90427*
X205667Y90680*
X206500Y90743*
X207333Y90680*
X207917Y90427*
X208417Y90110*
X208750Y89730*
X209000Y89223*
Y87957*
X204833Y93247D02*
G01X204333Y93627D01*
X204083Y94070*
X204000Y94577*
X204167Y95210*
X204583Y95653*
X205083Y95780*
X205584Y95717*
X206000Y95463*
X206833Y94197*
X207417Y93627*
X208250Y93247*
X209000Y93120*
Y95780*
X0Y0D02*
G01X216535D01*
Y118110*
X0*
Y0*
X8268Y12488D02*
G01Y3000D01*
X208268*
Y12488*
X8268*
X21658Y70866D02*
G03X21658Y70866I-2201D01*
X22665Y73622D02*
G01Y44488D01*
X500*
Y73622*
X22665*
X8268Y115110D02*
G01Y105622D01*
X208268*
Y115110*
X8268*
X57352Y21513D02*
G01X88848D01*
Y35687*
X57352*
Y21513*
X63073Y79794D02*
G03X63073Y79794I-2784D01*
X56116Y95700D02*
G01X88084D01*
Y75700*
X56116*
Y95700*
X114268Y78542D02*
G01X94780Y59055D01*
X114268Y39568*
X133755Y59055*
X114268Y78542*
X131780Y59055D02*
G03X131780Y59055I-2201D01*
X168701Y34843D02*
G01Y83268D01*
X150197*
Y34843*
X168701*
X199753Y19601D02*
G01Y32199D01*
X193847*
Y19601*
X199753*
X178880Y70911D02*
G03X178880Y70911I-2201D01*
X189080Y74848D02*
G01Y43352D01*
X174120*
Y74848*
X189080*
X206925Y7744D02*
G03X206925Y7744I-2201D01*
X196800Y26400D02*
G01Y29900D01*
X194800Y24400D02*
G01X198800D01*
X196800D02*
G01X198800Y26400D01*
X194800*
X196800Y24400*
Y22900*
X200047Y39055D02*
G01X209535D01*
Y79055*
X200047*
Y39055*
X208340Y73819D02*
G03X208340Y73819I-3549D01*
X199400Y90800D02*
G01Y87300D01*
X201400Y92800D02*
G01X197400D01*
X199400D02*
G01X197400Y90800D01*
X201400*
X199400Y92800*
Y94300*
X196447Y97599D02*
G01Y85001D01*
X202353*
Y97599*
X196447*
X206925Y110366D02*
G03X206925Y110366I-2201D01*
G54D10*
X31300Y187110D02*
G01X37300D01*
Y184110*
X31300*
Y187110*
Y193110D02*
G01X37300D01*
Y190110*
X31300*
Y193110*
X41400Y224310D02*
G01Y223110D01*
X40500Y222210D02*
G03X41400Y223110J900D01*
X40500Y222210D02*
G01X36300D01*
X35400Y223110D02*
G03X36300Y222210I900D01*
X35400Y223110D02*
G01Y224310D01*
X36300Y225210D02*
G03X35400Y224310J-900D01*
X36300Y225210D02*
G01X40500D01*
X41400Y224310D02*
G03X40500Y225210I-900D01*
X41500Y214110D02*
G01Y212910D01*
X40600Y212010D02*
G03X41500Y212910J900D01*
X40600Y212010D02*
G01X36400D01*
X35500Y212910D02*
G03X36400Y212010I900D01*
X35500Y212910D02*
G01Y214110D01*
X36400Y215010D02*
G03X35500Y214110J-900D01*
X36400Y215010D02*
G01X40600D01*
X41500Y214110D02*
G03X40600Y215010I-900D01*
X47300Y213210D02*
G01X46100D01*
X45200Y214110D02*
G03X46100Y213210I900D01*
X45200Y214110D02*
G01Y218310D01*
X46100Y219210D02*
G03X45200Y218310J-900D01*
X46100Y219210D02*
G01X47300D01*
X48200Y218310D02*
G03X47300Y219210I-900D01*
X48200Y218310D02*
G01Y214110D01*
X47300Y213210D02*
G03X48200Y214110J900D01*
X70700Y193310D02*
G01Y199310D01*
X73700*
Y193310*
X70700*
X136597Y215056D02*
G01X137446Y214207D01*
Y212934D02*
G03X137446Y214207I-636J636D01*
Y212934D02*
G01X134476Y209964D01*
X133203D02*
G03X134476Y209964I636J636D01*
X133203D02*
G01X132354Y210813D01*
Y212086D02*
G03X132354Y210813I636J-637D01*
Y212086D02*
G01X135324Y215056D01*
X136597D02*
G03X135324Y215056I-637J-636D01*
X140897Y210956D02*
G01X141746Y210107D01*
Y208834D02*
G03X141746Y210107I-636J636D01*
Y208834D02*
G01X138776Y205864D01*
X137503D02*
G03X138776Y205864I636J636D01*
X137503D02*
G01X136654Y206713D01*
Y207986D02*
G03X136654Y206713I636J-637D01*
Y207986D02*
G01X139624Y210956D01*
X140897D02*
G03X139624Y210956I-637J-636D01*
X195600Y202410D02*
G01X196800D01*
X197700Y201510D02*
G03X196800Y202410I-900D01*
X197700Y201510D02*
G01Y197310D01*
X196800Y196410D02*
G03X197700Y197310J900D01*
X196800Y196410D02*
G01X195600D01*
X194700Y197310D02*
G03X195600Y196410I900D01*
X194700Y197310D02*
G01Y201510D01*
X195600Y202410D02*
G03X194700Y201510J-900D01*
G54D11*
X7400Y183467D02*
G01X10983D01*
X11734Y183720*
X12233Y184227*
X12400Y184860*
X12233Y185493*
X11734Y186000*
X10983Y186253*
X7400*
X11400Y188567D02*
G01X11983Y188947D01*
X12317Y189453*
X12400Y190023*
X12317Y190530*
X11900Y191037*
X11400Y191353*
X10900Y191417*
X10317Y191290*
X9900Y190847*
X9733Y190403*
Y189833*
Y190403D02*
G01X9483Y190783D01*
X9067Y191100*
X8567Y191227*
X8067Y191100*
X7650Y190783*
X7400Y190213*
X7483Y189643*
X7817Y189073*
X38883Y182810D02*
G01Y187810D01*
X40467*
X40973Y187560*
X41290Y187227*
X41417Y186560*
X41290Y185893*
X40910Y185477*
X40467Y185227*
X38883*
X40467D02*
G01X41417Y182810D01*
X45123D02*
G01X45250Y183893D01*
X45440Y184810*
X45693Y185643*
X46010Y186560*
X46517Y187810*
X43983*
X39083Y189410D02*
G01Y194410D01*
X40667*
X41173Y194160*
X41490Y193827*
X41617Y193160*
X41490Y192493*
X41110Y192077*
X40667Y191827*
X39083*
X40667D02*
G01X41617Y189410D01*
X44247Y191493D02*
G01X44690Y192077D01*
X45070Y192410*
X45577Y192577*
X46020Y192410*
X46337Y192077*
X46590Y191577*
X46653Y190993*
X46590Y190493*
X46337Y189993*
X45957Y189577*
X45513Y189410*
X45007Y189577*
X44563Y190076*
X44310Y190827*
X44247Y191660*
X44373Y192743*
X44563Y193327*
X44880Y193910*
X45323Y194327*
X45767Y194410*
X46210Y194243*
X46527Y193827*
X23493Y226493D02*
G01X23113Y226743D01*
X22670Y226910*
X22163*
X21593Y226660*
X21150Y226243*
X20833Y225743*
X20580Y224910*
X20517Y224160*
X20643Y223410*
X20833Y222910*
X21213Y222410*
X21657Y222077*
X22100Y221910*
X22543*
X22987Y222077*
X23367Y222327*
X23683Y222660*
X27200Y221910D02*
G01Y226910D01*
X26440Y225910*
Y221910D02*
G01X27960D01*
X32300Y226910D02*
G01X31793Y226743D01*
X31413Y226327*
X31160Y225827*
X30970Y225160*
X30907Y224410*
X30970Y223660*
X31160Y222993*
X31413Y222493*
X31793Y222077*
X32300Y221910*
X32807Y222077*
X33187Y222493*
X33440Y222993*
X33630Y223660*
X33693Y224410*
X33630Y225160*
X33440Y225827*
X33187Y226327*
X32807Y226743*
X32300Y226910*
X28543Y216293D02*
G01X28163Y216543D01*
X27720Y216710*
X27213*
X26643Y216460*
X26200Y216043*
X25883Y215543*
X25630Y214710*
X25567Y213960*
X25693Y213210*
X25883Y212710*
X26263Y212210*
X26707Y211877*
X27150Y211710*
X27593*
X28037Y211877*
X28417Y212127*
X28733Y212460*
X32250Y211710D02*
G01X32693Y211793D01*
X33200Y212043*
X33517Y212460*
X33643Y213043*
X33517Y213627*
X33137Y214127*
X32567Y214377*
X31933*
X31553Y214543*
X31237Y214960*
X31110Y215543*
X31300Y216127*
X31743Y216543*
X32250Y216710*
X32757Y216543*
X33200Y216127*
X33390Y215543*
X33263Y214960*
X32947Y214543*
X32567Y214377*
X31933*
X31363Y214127*
X30983Y213627*
X30857Y213043*
X30983Y212460*
X31300Y212043*
X31807Y211793*
X32250Y211710*
X44717Y224453D02*
G01X44467Y224073D01*
X44300Y223630*
Y223123*
X44550Y222553*
X44967Y222110*
X45467Y221793*
X46300Y221540*
X47050Y221477*
X47800Y221603*
X48300Y221793*
X48800Y222173*
X49133Y222617*
X49300Y223060*
Y223503*
X49133Y223947*
X48883Y224327*
X48550Y224643*
X48717Y227083D02*
G01X49133Y227527D01*
X49300Y228033*
X49133Y228540*
X48634Y228983*
X47883Y229300*
X47133Y229427*
X46217*
X45467Y229300*
X44800Y228983*
X44467Y228603*
X44300Y228160*
X44467Y227653*
X44800Y227273*
X45300Y227020*
X45967Y226893*
X46550Y227020*
X47133Y227337*
X47467Y227717*
X47550Y228160*
X47383Y228667*
X46967Y229047*
X46217Y229427*
X65770Y155577D02*
G01X66277Y155160D01*
X66847Y154910*
X67353*
X67860Y155160*
X68240Y155577*
X68430Y156160*
X68303Y156743*
X67987Y157243*
X67417Y157577*
X66657Y157743*
X66213Y158077*
X66023Y158660*
X66150Y159243*
X66467Y159660*
X66910Y159910*
X67353*
X67797Y159743*
X68177Y159327*
X70300Y159910D02*
G01X71187Y154910D01*
X72200Y159910*
X73213Y154910*
X74100Y159910*
X77300Y154910D02*
G01Y159910D01*
X76540Y158910*
Y154910D02*
G01X78060D01*
X80700Y193193D02*
G01X75700D01*
Y194777*
X75950Y195283*
X76283Y195600*
X76950Y195727*
X77617Y195600*
X78033Y195220*
X78283Y194777*
Y193193*
Y194777D02*
G01X80700Y195727D01*
X76533Y198357D02*
G01X76033Y198737D01*
X75783Y199180*
X75700Y199687*
X75867Y200320*
X76283Y200763*
X76783Y200890*
X77284Y200827*
X77700Y200573*
X78533Y199307*
X79117Y198737*
X79950Y198357*
X80700Y198230*
Y200890*
X68796Y213826D02*
G01X69113Y213326D01*
X69493Y212992*
X69936Y212826*
X70443Y212992*
X70823Y213326*
X71203Y213826*
X71330Y214492*
Y217826*
X75163Y212826D02*
G01Y217826D01*
X74403Y216826*
Y212826D02*
G01X75923D01*
X106083Y134510D02*
G01X106400Y134010D01*
X106780Y133677*
X107223Y133510*
X107730Y133677*
X108110Y134010*
X108490Y134510*
X108617Y135177*
Y138510*
X113210Y133510D02*
G01Y138510D01*
X110867Y134927*
X114033*
X109828Y186506D02*
G01X112362Y183972D01*
X113071Y183620*
X113783Y183625*
X114348Y183955*
X114679Y184521*
X114683Y185233*
X114332Y185942*
X111798Y188476*
X117955Y187561D02*
G01X114419Y191097D01*
X114589Y189852*
X117417Y187024D02*
G01X118492Y188099D01*
X138106Y202662D02*
G01X137660Y202570D01*
X137229Y202375*
X136871Y202016*
X136644Y201436*
X136626Y200828*
X136755Y200251*
X137165Y199482*
X137651Y198907*
X138271Y198467*
X138759Y198247*
X139381Y198162*
X139930Y198240*
X140362Y198436*
X140675Y198750*
X140871Y199181*
X140963Y199626*
X140951Y200086*
X143968Y202042D02*
G01X140432Y205578D01*
X140602Y204333*
X143430Y201505D02*
G01X144505Y202580D01*
X145882Y205370D02*
G01X146563Y205226D01*
X147157Y205349*
X147619Y205693*
X147918Y206110*
X147982Y206763*
X147852Y207341*
X147543Y207739*
X147041Y208062*
X146433Y208043*
X146002Y207848*
X145599Y207445*
X146002Y207848D02*
G01X146094Y208293D01*
X146023Y208812*
X145759Y209255*
X145316Y209519*
X144797Y209589*
X144218Y209363*
X143873Y208901*
X143706Y208262*
X126106Y215062D02*
G01X125660Y214970D01*
X125229Y214775*
X124871Y214416*
X124644Y213836*
X124626Y213228*
X124755Y212651*
X125165Y211882*
X125651Y211307*
X126271Y210867*
X126759Y210647*
X127381Y210562*
X127930Y210640*
X128362Y210836*
X128675Y211150*
X128871Y211581*
X128963Y212026*
X128951Y212486*
X131968Y214442D02*
G01X128432Y217978D01*
X128602Y216733*
X131430Y213905D02*
G01X132505Y214980D01*
X136111Y218586D02*
G01X132576Y222121D01*
X133453Y217930*
X135692Y220170*
X109483Y236310D02*
G01X109800Y235810D01*
X110180Y235477*
X110623Y235310*
X111130Y235477*
X111510Y235810*
X111890Y236310*
X112017Y236977*
Y240310*
X114457Y236310D02*
G01X114837Y235727D01*
X115343Y235393*
X115913Y235310*
X116420Y235393*
X116927Y235810*
X117243Y236310*
X117307Y236810*
X117180Y237393*
X116737Y237810*
X116293Y237977*
X115723*
X116293D02*
G01X116673Y238227D01*
X116990Y238643*
X117117Y239143*
X116990Y239643*
X116673Y240060*
X116103Y240310*
X115533Y240227*
X114963Y239893*
X161100Y183660D02*
G01X158850D01*
X156100Y182393*
Y184927D02*
G01X158850Y183660D01*
X156933Y187557D02*
G01X156433Y187937D01*
X156183Y188380*
X156100Y188887*
X156267Y189520*
X156683Y189963*
X157183Y190090*
X157684Y190027*
X158100Y189773*
X158933Y188507*
X159517Y187937*
X160350Y187557*
X161100Y187430*
Y190090*
X183500Y183460D02*
G01X181250D01*
X178500Y182193*
Y184727D02*
G01X181250Y183460D01*
X183500Y188560D02*
G01X178500D01*
X179500Y187800*
X183500D02*
G01Y189320D01*
X193617Y189553D02*
G01X193367Y189173D01*
X193200Y188730*
Y188223*
X193450Y187653*
X193867Y187210*
X194367Y186893*
X195200Y186640*
X195950Y186577*
X196700Y186703*
X197200Y186893*
X197700Y187273*
X198033Y187717*
X198200Y188160*
Y188603*
X198033Y189047*
X197783Y189427*
X197450Y189743*
X194033Y192057D02*
G01X193533Y192437D01*
X193283Y192880*
X193200Y193387*
X193367Y194020*
X193783Y194463*
X194283Y194590*
X194784Y194527*
X195200Y194273*
X196033Y193007*
X196617Y192437*
X197450Y192057*
X198200Y191930*
Y194590*
X207000Y151267D02*
G01X202000D01*
Y152533*
X202250Y153040*
X202583Y153420*
X203083Y153737*
X203667Y153990*
X204500Y154053*
X205333Y153990*
X205917Y153737*
X206417Y153420*
X206750Y153040*
X207000Y152533*
Y151267*
Y157760D02*
G01X202000D01*
X203000Y157000*
X207000D02*
G01Y158520D01*
X205700Y180693D02*
G01X206200Y181010D01*
X206533Y181390*
X206700Y181833*
X206533Y182340*
X206200Y182720*
X205700Y183100*
X205033Y183227*
X201700*
X202533Y185857D02*
G01X202033Y186237D01*
X201783Y186680*
X201700Y187187*
X201867Y187820*
X202283Y188263*
X202783Y188390*
X203284Y188327*
X203700Y188073*
X204533Y186807*
X205117Y186237*
X205950Y185857*
X206700Y185730*
Y188390*
X209000Y216067D02*
G01X204000D01*
Y217333*
X204250Y217840*
X204583Y218220*
X205083Y218537*
X205667Y218790*
X206500Y218853*
X207333Y218790*
X207917Y218537*
X208417Y218220*
X208750Y217840*
X209000Y217333*
Y216067*
X204833Y221357D02*
G01X204333Y221737D01*
X204083Y222180*
X204000Y222687*
X204167Y223320*
X204583Y223763*
X205083Y223890*
X205584Y223827*
X206000Y223573*
X206833Y222307*
X207417Y221737*
X208250Y221357*
X209000Y221230*
Y223890*
X0Y128110D02*
G01X216535D01*
Y246220*
X0*
Y128110*
X8268Y140598D02*
G01Y131110D01*
X208268*
Y140598*
X8268*
X21658Y198976D02*
G03X21658Y198976I-2201D01*
X22665Y201732D02*
G01Y172598D01*
X500*
Y201732*
X22665*
X8268Y243220D02*
G01Y233732D01*
X208268*
Y243220*
X8268*
X57352Y149623D02*
G01X88848D01*
Y163797*
X57352*
Y149623*
X63073Y207904D02*
G03X63073Y207904I-2784D01*
X56116Y223810D02*
G01X88084D01*
Y203810*
X56116*
Y223810*
X114268Y206652D02*
G01X94780Y187165D01*
X114268Y167678*
X133755Y187165*
X114268Y206652*
X131780Y187165D02*
G03X131780Y187165I-2201D01*
X168701Y162953D02*
G01Y211378D01*
X150197*
Y162953*
X168701*
X199753Y147711D02*
G01Y160309D01*
X193847*
Y147711*
X199753*
X178880Y199021D02*
G03X178880Y199021I-2201D01*
X189080Y202958D02*
G01Y171462D01*
X174120*
Y202958*
X189080*
X206925Y135854D02*
G03X206925Y135854I-2201D01*
X196800Y154510D02*
G01Y158010D01*
X194800Y152510D02*
G01X198800D01*
X196800D02*
G01X198800Y154510D01*
X194800*
X196800Y152510*
Y151010*
X200047Y167165D02*
G01X209535D01*
Y207165*
X200047*
Y167165*
X208340Y201929D02*
G03X208340Y201929I-3549D01*
X199400Y218910D02*
G01Y215410D01*
X201400Y220910D02*
G01X197400D01*
X199400D02*
G01X197400Y218910D01*
X201400*
X199400Y220910*
Y222410*
X196447Y225709D02*
G01Y213111D01*
X202353*
Y225709*
X196447*
X206925Y238476D02*
G03X206925Y238476I-2201D01*
X100179Y249443D02*
G01X100128Y249943D01*
X99997Y250428*
X99792Y250886*
X99517Y251305*
X99178Y251676*
X98785Y251988*
X98348Y252234*
X97877Y252408*
X97384Y252505*
X97025Y252525*
X46245*
X45745Y252485*
X45257Y252366*
X44794Y252172*
X44368Y251906*
X43990Y251576*
X43668Y251191*
X43412Y250759*
X43228Y250292*
X43120Y249802*
X43091Y249297*
X43142Y248797*
X43273Y248312*
X43478Y247854*
X43753Y247435*
X44092Y247064*
X44485Y246752*
X44922Y246506*
X45393Y246332*
X45886Y246235*
X46245Y246215*
X97025*
X97525Y246255*
X98013Y246374*
X98476Y246568*
X98902Y246834*
X99280Y247164*
X99602Y247549*
X99858Y247981*
X100042Y248448*
X100150Y248938*
X100179Y249443*
X173471D02*
G01X173420Y249943D01*
X173289Y250428*
X173084Y250886*
X172809Y251305*
X172470Y251676*
X172077Y251988*
X171640Y252234*
X171169Y252408*
X170676Y252505*
X170317Y252525*
X119325*
X118825Y252485*
X118337Y252366*
X117874Y252172*
X117448Y251906*
X117070Y251576*
X116748Y251191*
X116492Y250759*
X116308Y250292*
X116200Y249802*
X116171Y249297*
X116222Y248797*
X116353Y248312*
X116558Y247854*
X116833Y247435*
X117172Y247064*
X117565Y246752*
X118002Y246506*
X118473Y246332*
X118966Y246235*
X119325Y246215*
X170317*
X170817Y246255*
X171305Y246374*
X171768Y246568*
X172194Y246834*
X172572Y247164*
X172894Y247549*
X173150Y247981*
X173334Y248448*
X173442Y248938*
X173471Y249443*
X99667Y123251D02*
G01X99905Y123694D01*
X100069Y124168*
X100156Y124662*
X100163Y125164*
X100091Y125661*
X99941Y126140*
X99717Y126589*
X99424Y126997*
X99071Y127353*
X98665Y127649*
X98218Y127877*
X97740Y128031*
X97244Y128107*
X97015Y128115*
X46217*
X45717Y128075*
X45229Y127956*
X44766Y127762*
X44340Y127496*
X43962Y127166*
X43640Y126781*
X43384Y126349*
X43200Y125882*
X43092Y125392*
X43063Y124891*
X43114Y124391*
X43243Y123906*
X43448Y123448*
X43662Y123109*
X43401Y122680*
X43211Y122216*
X43098Y121727*
X43063Y121226*
X43109Y120726*
X43233Y120239*
X43432Y119779*
X43702Y119356*
X44036Y118981*
X44425Y118664*
X44860Y118412*
X45329Y118233*
X45820Y118130*
X46218Y118105*
X97220*
X97720Y118145*
X98208Y118264*
X98671Y118458*
X99097Y118724*
X99475Y119054*
X99797Y119439*
X100053Y119871*
X100237Y120338*
X100345Y120828*
X100374Y121329*
X100323Y121829*
X100194Y122314*
X99989Y122772*
X99714Y123192*
X99667Y123251*
X172873Y123111D02*
G01X173134Y123540D01*
X173324Y124004*
X173437Y124493*
X173472Y124994*
X173426Y125494*
X173302Y125981*
X173103Y126441*
X172833Y126864*
X172499Y127239*
X172110Y127556*
X171675Y127808*
X171206Y127987*
X170715Y128090*
X170317Y128115*
X119315*
X118815Y128075*
X118327Y127956*
X117864Y127762*
X117438Y127496*
X117060Y127166*
X116738Y126781*
X116482Y126349*
X116298Y125882*
X116190Y125392*
X116161Y124891*
X116212Y124391*
X116341Y123906*
X116546Y123448*
X116821Y123028*
X116868Y122969*
X116630Y122526*
X116466Y122052*
X116379Y121558*
X116372Y121056*
X116444Y120559*
X116594Y120080*
X116818Y119631*
X117111Y119223*
X117464Y118867*
X117870Y118571*
X118317Y118343*
X118795Y118189*
X119291Y118113*
X119520Y118105*
X170318*
X170818Y118145*
X171306Y118264*
X171769Y118458*
X172195Y118724*
X172573Y119054*
X172895Y119439*
X173151Y119871*
X173335Y120338*
X173443Y120828*
X173472Y121329*
X173421Y121829*
X173292Y122314*
X173087Y122772*
X172873Y123111*
X100364Y-3077D02*
G01X100313Y-2577D01*
X100182Y-2092*
X99977Y-1634*
X99702Y-1215*
X99363Y-844*
X98970Y-532*
X98533Y-286*
X98062Y-112*
X97569Y-15*
X97210Y5*
X46218*
X45718Y-35*
X45230Y-154*
X44767Y-348*
X44341Y-614*
X43963Y-944*
X43641Y-1329*
X43385Y-1761*
X43201Y-2228*
X43093Y-2718*
X43064Y-3223*
X43115Y-3723*
X43246Y-4208*
X43451Y-4666*
X43726Y-5085*
X44065Y-5456*
X44458Y-5768*
X44895Y-6014*
X45366Y-6188*
X45859Y-6285*
X46218Y-6305*
X97210*
X97710Y-6265*
X98198Y-6146*
X98661Y-5952*
X99087Y-5686*
X99465Y-5356*
X99787Y-4971*
X100043Y-4539*
X100227Y-4072*
X100335Y-3582*
X100364Y-3077*
X173444D02*
G01X173393Y-2577D01*
X173262Y-2092*
X173057Y-1634*
X172782Y-1215*
X172443Y-844*
X172050Y-532*
X171613Y-286*
X171142Y-112*
X170649Y-15*
X170290Y5*
X119510*
X119010Y-35*
X118522Y-154*
X118059Y-348*
X117633Y-614*
X117255Y-944*
X116933Y-1329*
X116677Y-1761*
X116493Y-2228*
X116385Y-2718*
X116356Y-3223*
X116407Y-3723*
X116538Y-4208*
X116743Y-4666*
X117018Y-5085*
X117357Y-5456*
X117750Y-5768*
X118187Y-6014*
X118658Y-6188*
X119151Y-6285*
X119510Y-6305*
X170290*
X170790Y-6265*
X171278Y-6146*
X171741Y-5952*
X172167Y-5686*
X172545Y-5356*
X172867Y-4971*
X173123Y-4539*
X173307Y-4072*
X173415Y-3582*
X173444Y-3077*
X0Y-6305D02*
G01X23918D01*
X24418Y-6265*
X24906Y-6146*
X25369Y-5952*
X25795Y-5686*
X26173Y-5356*
X26495Y-4971*
X26751Y-4539*
X26935Y-4072*
X27043Y-3582*
X27072Y-3077*
Y-3077D02*
G01X27021Y-2577D01*
X26890Y-2092*
X26685Y-1634*
X26410Y-1215*
X26071Y-844*
X25678Y-532*
X25241Y-286*
X24770Y-112*
X24277Y-15*
X23918Y5*
X5*
Y118105*
X23918*
X24418Y118145*
X24906Y118264*
X25369Y118458*
X25795Y118724*
X26173Y119054*
X26495Y119439*
X26751Y119871*
X26935Y120338*
X27043Y120828*
X27072Y121329*
X27021Y121829*
X26892Y122314*
X26687Y122772*
X26473Y123111*
X26734Y123540*
X26924Y124004*
X27037Y124493*
X27072Y124994*
X27026Y125494*
X26902Y125981*
X26703Y126441*
X26433Y126864*
X26099Y127239*
X25710Y127556*
X25275Y127808*
X24806Y127987*
X24315Y128090*
X23917Y128115*
X0*
Y246215*
X23945*
X24445Y246255*
X24933Y246374*
X25396Y246568*
X25822Y246834*
X26200Y247164*
X26522Y247549*
X26778Y247981*
X26962Y248448*
X27070Y248938*
X27099Y249443*
X27048Y249943*
X26917Y250428*
X26712Y250886*
X26437Y251305*
X26098Y251676*
X25705Y251988*
X25268Y252234*
X24797Y252408*
X24304Y252505*
X23945Y252525*
X0*
X216535D02*
G01X192617D01*
X192117Y252485*
X191629Y252366*
X191166Y252172*
X190740Y251906*
X190362Y251576*
X190040Y251191*
X189784Y250759*
X189600Y250292*
X189492Y249802*
X189463Y249297*
X189514Y248797*
X189645Y248312*
X189850Y247854*
X190125Y247435*
X190464Y247064*
X190857Y246752*
X191294Y246506*
X191765Y246332*
X192258Y246235*
X192617Y246215*
X216530*
Y128115*
X192617*
X192117Y128075*
X191629Y127956*
X191166Y127762*
X190740Y127496*
X190362Y127166*
X190040Y126781*
X189784Y126349*
X189600Y125882*
X189492Y125392*
X189463Y124891*
X189514Y124391*
X189643Y123906*
X189848Y123448*
X190062Y123109*
X189801Y122680*
X189611Y122216*
X189498Y121727*
X189463Y121226*
X189509Y120726*
X189633Y120239*
X189832Y119779*
X190102Y119356*
X190436Y118981*
X190825Y118664*
X191260Y118412*
X191729Y118233*
X192220Y118130*
X192618Y118105*
X216535*
Y5*
X192590*
X192090Y-35*
X191602Y-154*
X191139Y-348*
X190713Y-614*
X190335Y-944*
X190013Y-1329*
X189757Y-1761*
X189573Y-2228*
X189465Y-2718*
X189436Y-3223*
X189487Y-3723*
X189618Y-4208*
X189823Y-4666*
X190098Y-5085*
X190437Y-5456*
X190830Y-5768*
X191267Y-6014*
X191738Y-6188*
X192231Y-6285*
X192590Y-6305*
X216535*
X0Y0D02*
G01X216535D01*
Y118110*
X0*
Y0*
Y128110D02*
G01X216535D01*
Y246220*
X0*
Y128110*
Y252525D02*
G01Y286220D01*
Y286220D02*
G01X216535D01*
Y252525*
Y-6305D02*
G01Y-40000D01*
X0*
Y-6305*
Y5D02*
G01Y118108D01*
Y128115D02*
G01Y246219D01*
X216535Y246212D02*
G01Y128115D01*
Y118109D02*
G01Y5D01*
M02*
