M48
INCH,TZ
VER,1
FMAT,2
T01C0.012F100B1000S6H2000
T02C0.02F100B1000S6H2000
T03C0.040157F100B1000S6H2000
T04C0.021654F100B1000S6H2000
T05C0.1004F100B1000S6H2000
T06C0.0201F100B1000S6H2000
DETECT,ON
ATC,ON
%
T01
X45000Y95000
X193800Y97600
X202701Y19601
X118000Y55100
X76700Y65550
X118600Y26700
X105400Y28000
X108250Y22750
X112325Y54668
X42895Y59130
X108160Y54668
X42895Y62870
X82400Y100900
X83400Y28600
X115650Y61950
X130476Y85076
X159449Y56200
X139652Y75900
X159449Y62200
X168073Y69927
X134800Y74000
X175000Y64000
X140300Y70600
X139800Y64900
X45000Y223110
X193800Y225710
X202701Y147711
X118000Y183210
X76700Y193660
X118600Y154810
X105400Y156110
X108250Y150860
X112325Y182778
X42895Y187240
X108160Y182778
X42895Y190980
X82400Y229010
X83400Y156710
X115650Y190060
X130476Y213186
X159449Y184310
X139652Y204010
X159449Y190310
X168073Y198037
X134800Y202110
X175000Y192110
X140300Y198710
X139800Y193010
T02
X31800Y72600
X25300
X28500Y69100
X53200Y81300
X42400Y76900
X115050Y34850
X42400Y80500
X51100Y85450
X55300
X89900Y65900
X116300Y71900
X131124Y58624
X204400Y30500
X114000Y44700
X142900Y88300
X127900Y78200
X19000Y77900
X23000Y89800
X139600Y49600
X103700Y63300
X25000Y48000
X16000Y58000
X189800Y23550
X64700Y32800
X143543Y53443
X31800Y200710
X25300
X28500Y197210
X53200Y209410
X42400Y205010
X115050Y162960
X42400Y208610
X51100Y213560
X55300
X89900Y194010
X116300Y200010
X131124Y186734
X204400Y158610
X114000Y172810
X142900Y216410
X127900Y206310
X19000Y206010
X23000Y217910
X139600Y177710
X103700Y191410
X25000Y176110
X16000Y186110
X189800Y151660
X64700Y160910
X143543Y181553
T03
X62100Y80700
Y90700
X72100Y80700
Y90700
X82100Y80700
Y90700
X203268Y7744
X193268
X183268
X173268
X163268
X153268
X143268
X133268
X123268
X113268
X103268
X93268
X83268
X73268
X63268
X53268
X43268
X33268
X23268
X13268
X204791Y74055
Y64055
Y54055
Y44055
X203268Y110366
X193268
X183268
X173268
X163268
X153268
X143268
X133268
X123268
X113268
X103268
X93268
X83268
X73268
X63268
X53268
X43268
X33268
X23268
X13268
X62100Y208810
Y218810
X72100Y208810
Y218810
X82100Y208810
Y218810
X203268Y135854
X193268
X183268
X173268
X163268
X153268
X143268
X133268
X123268
X113268
X103268
X93268
X83268
X73268
X63268
X53268
X43268
X33268
X23268
X13268
X204791Y202165
Y192165
Y182165
Y172165
X203268Y238476
X193268
X183268
X173268
X163268
X153268
X143268
X133268
X123268
X113268
X103268
X93268
X83268
X73268
X63268
X53268
X43268
X33268
X23268
X13268
T04
X20047Y66929
Y51181
Y195039
Y179291
T05
X20000Y266220
X196535
X20000Y-20000
X196535
T06
X27068Y119110
X189468
X31068
X35068
X39068
X43068
X185468
X181468
X177468
X173468
X108270
X104270
X100270
X112270
X116270
X27068Y127110
X189468
X31068
X35068
X39068
X43068
X185468
X181468
X177468
X173468
X108270
X104270
X100270
X112270
X116270
X27068Y247220
X189468
X31068
X35068
X39068
X43068
X185468
X181468
X177468
X173468
X108270
X104270
X100270
X112270
X116270
X27068Y-1000
X189468
X31068
X35068
X39068
X43068
X185468
X181468
X177468
X173468
X108270
X104270
X100270
X112270
X116270
M30
