G04 CAM350/DFMSTREAM V12.1 (Build 1022) Date:  Mon Dec 28 22:30:29 2020 *
G04 Database: (Untitled) *
G04 Layer 10: FAB.art *
%FSLAX25Y25*%
%MOIN*%
%SFA1.000B1.000*%

%MIA0B0*%
%IPPOS*%
%AMMACRO13*
1,1,0.0060000,0.0250000,0.0000000*
20,1,0.0060000,0.0250000,0.0000000,0.0246200,-0.0043410,0.0000000*
1,1,0.0060000,0.0246200,-0.0043410*
20,1,0.0060000,0.0246200,-0.0043410,0.0234920,-0.0085510,0.0000000*
1,1,0.0060000,0.0234920,-0.0085510*
20,1,0.0060000,0.0234920,-0.0085510,0.0216510,-0.0125000,0.0000000*
1,1,0.0060000,0.0216510,-0.0125000*
20,1,0.0060000,0.0216510,-0.0125000,0.0191510,-0.0160700,0.0000000*
1,1,0.0060000,0.0191510,-0.0160700*
20,1,0.0060000,0.0191510,-0.0160700,0.0160700,-0.0191510,0.0000000*
1,1,0.0060000,0.0160700,-0.0191510*
20,1,0.0060000,0.0160700,-0.0191510,0.0125000,-0.0216510,0.0000000*
1,1,0.0060000,0.0125000,-0.0216510*
20,1,0.0060000,0.0125000,-0.0216510,0.0085510,-0.0234920,0.0000000*
1,1,0.0060000,0.0085510,-0.0234920*
20,1,0.0060000,0.0085510,-0.0234920,0.0043410,-0.0246200,0.0000000*
1,1,0.0060000,0.0043410,-0.0246200*
20,1,0.0060000,0.0043410,-0.0246200,0.0000000,-0.0250000,0.0000000*
1,1,0.0060000,0.0000000,-0.0250000*
20,1,0.0060000,0.0000000,-0.0250000,-0.0043410,-0.0246200,0.0000000*
1,1,0.0060000,-0.0043410,-0.0246200*
20,1,0.0060000,-0.0043410,-0.0246200,-0.0085510,-0.0234920,0.0000000*
1,1,0.0060000,-0.0085510,-0.0234920*
20,1,0.0060000,-0.0085510,-0.0234920,-0.0125000,-0.0216510,0.0000000*
1,1,0.0060000,-0.0125000,-0.0216510*
20,1,0.0060000,-0.0125000,-0.0216510,-0.0160700,-0.0191510,0.0000000*
1,1,0.0060000,-0.0160700,-0.0191510*
20,1,0.0060000,-0.0160700,-0.0191510,-0.0191510,-0.0160700,0.0000000*
1,1,0.0060000,-0.0191510,-0.0160700*
20,1,0.0060000,-0.0191510,-0.0160700,-0.0216510,-0.0125000,0.0000000*
1,1,0.0060000,-0.0216510,-0.0125000*
20,1,0.0060000,-0.0216510,-0.0125000,-0.0234920,-0.0085510,0.0000000*
1,1,0.0060000,-0.0234920,-0.0085510*
20,1,0.0060000,-0.0234920,-0.0085510,-0.0246200,-0.0043410,0.0000000*
1,1,0.0060000,-0.0246200,-0.0043410*
20,1,0.0060000,-0.0246200,-0.0043410,-0.0250000,0.0000000,0.0000000*
1,1,0.0060000,-0.0250000,0.0000000*
20,1,0.0060000,-0.0250000,0.0000000,-0.0246200,0.0043410,0.0000000*
1,1,0.0060000,-0.0246200,0.0043410*
20,1,0.0060000,-0.0246200,0.0043410,-0.0234920,0.0085510,0.0000000*
1,1,0.0060000,-0.0234920,0.0085510*
20,1,0.0060000,-0.0234920,0.0085510,-0.0216510,0.0125000,0.0000000*
1,1,0.0060000,-0.0216510,0.0125000*
20,1,0.0060000,-0.0216510,0.0125000,-0.0191510,0.0160700,0.0000000*
1,1,0.0060000,-0.0191510,0.0160700*
20,1,0.0060000,-0.0191510,0.0160700,-0.0160700,0.0191510,0.0000000*
1,1,0.0060000,-0.0160700,0.0191510*
20,1,0.0060000,-0.0160700,0.0191510,-0.0125000,0.0216510,0.0000000*
1,1,0.0060000,-0.0125000,0.0216510*
20,1,0.0060000,-0.0125000,0.0216510,-0.0085510,0.0234920,0.0000000*
1,1,0.0060000,-0.0085510,0.0234920*
20,1,0.0060000,-0.0085510,0.0234920,-0.0043410,0.0246200,0.0000000*
1,1,0.0060000,-0.0043410,0.0246200*
20,1,0.0060000,-0.0043410,0.0246200,0.0000000,0.0250000,0.0000000*
1,1,0.0060000,0.0000000,0.0250000*
20,1,0.0060000,0.0000000,0.0250000,0.0043410,0.0246200,0.0000000*
1,1,0.0060000,0.0043410,0.0246200*
20,1,0.0060000,0.0043410,0.0246200,0.0085510,0.0234920,0.0000000*
1,1,0.0060000,0.0085510,0.0234920*
20,1,0.0060000,0.0085510,0.0234920,0.0125000,0.0216510,0.0000000*
1,1,0.0060000,0.0125000,0.0216510*
20,1,0.0060000,0.0125000,0.0216510,0.0160700,0.0191510,0.0000000*
1,1,0.0060000,0.0160700,0.0191510*
20,1,0.0060000,0.0160700,0.0191510,0.0191510,0.0160700,0.0000000*
1,1,0.0060000,0.0191510,0.0160700*
20,1,0.0060000,0.0191510,0.0160700,0.0216510,0.0125000,0.0000000*
1,1,0.0060000,0.0216510,0.0125000*
20,1,0.0060000,0.0216510,0.0125000,0.0234920,0.0085510,0.0000000*
1,1,0.0060000,0.0234920,0.0085510*
20,1,0.0060000,0.0234920,0.0085510,0.0246200,0.0043410,0.0000000*
1,1,0.0060000,0.0246200,0.0043410*
20,1,0.0060000,0.0246200,0.0043410,0.0250000,0.0000000,0.0000000*
1,1,0.0060000,0.0250000,0.0000000*
1,1,0.0060000,-0.0104170,-0.0125000*
20,1,0.0060000,-0.0104170,-0.0125000,0.0000000,0.0125000,0.0000000*
1,1,0.0060000,0.0000000,0.0125000*
20,1,0.0060000,0.0000000,0.0125000,0.0104170,-0.0125000,0.0000000*
1,1,0.0060000,0.0104170,-0.0125000*
1,1,0.0060000,0.0066660,-0.0037500*
20,1,0.0060000,0.0066660,-0.0037500,-0.0066670,-0.0037500,0.0000000*
1,1,0.0060000,-0.0066670,-0.0037500*
%
%AMMACRO12*
1,1,0.0060000,0.0250000,0.0000000*
20,1,0.0060000,0.0250000,0.0000000,0.0246200,-0.0043410,0.0000000*
1,1,0.0060000,0.0246200,-0.0043410*
20,1,0.0060000,0.0246200,-0.0043410,0.0234920,-0.0085510,0.0000000*
1,1,0.0060000,0.0234920,-0.0085510*
20,1,0.0060000,0.0234920,-0.0085510,0.0216510,-0.0125000,0.0000000*
1,1,0.0060000,0.0216510,-0.0125000*
20,1,0.0060000,0.0216510,-0.0125000,0.0191510,-0.0160700,0.0000000*
1,1,0.0060000,0.0191510,-0.0160700*
20,1,0.0060000,0.0191510,-0.0160700,0.0160700,-0.0191510,0.0000000*
1,1,0.0060000,0.0160700,-0.0191510*
20,1,0.0060000,0.0160700,-0.0191510,0.0125000,-0.0216510,0.0000000*
1,1,0.0060000,0.0125000,-0.0216510*
20,1,0.0060000,0.0125000,-0.0216510,0.0085510,-0.0234920,0.0000000*
1,1,0.0060000,0.0085510,-0.0234920*
20,1,0.0060000,0.0085510,-0.0234920,0.0043410,-0.0246200,0.0000000*
1,1,0.0060000,0.0043410,-0.0246200*
20,1,0.0060000,0.0043410,-0.0246200,0.0000000,-0.0250000,0.0000000*
1,1,0.0060000,0.0000000,-0.0250000*
20,1,0.0060000,0.0000000,-0.0250000,-0.0043410,-0.0246200,0.0000000*
1,1,0.0060000,-0.0043410,-0.0246200*
20,1,0.0060000,-0.0043410,-0.0246200,-0.0085510,-0.0234920,0.0000000*
1,1,0.0060000,-0.0085510,-0.0234920*
20,1,0.0060000,-0.0085510,-0.0234920,-0.0125000,-0.0216510,0.0000000*
1,1,0.0060000,-0.0125000,-0.0216510*
20,1,0.0060000,-0.0125000,-0.0216510,-0.0160700,-0.0191510,0.0000000*
1,1,0.0060000,-0.0160700,-0.0191510*
20,1,0.0060000,-0.0160700,-0.0191510,-0.0191510,-0.0160700,0.0000000*
1,1,0.0060000,-0.0191510,-0.0160700*
20,1,0.0060000,-0.0191510,-0.0160700,-0.0216510,-0.0125000,0.0000000*
1,1,0.0060000,-0.0216510,-0.0125000*
20,1,0.0060000,-0.0216510,-0.0125000,-0.0234920,-0.0085510,0.0000000*
1,1,0.0060000,-0.0234920,-0.0085510*
20,1,0.0060000,-0.0234920,-0.0085510,-0.0246200,-0.0043410,0.0000000*
1,1,0.0060000,-0.0246200,-0.0043410*
20,1,0.0060000,-0.0246200,-0.0043410,-0.0250000,0.0000000,0.0000000*
1,1,0.0060000,-0.0250000,0.0000000*
20,1,0.0060000,-0.0250000,0.0000000,-0.0246200,0.0043410,0.0000000*
1,1,0.0060000,-0.0246200,0.0043410*
20,1,0.0060000,-0.0246200,0.0043410,-0.0234920,0.0085510,0.0000000*
1,1,0.0060000,-0.0234920,0.0085510*
20,1,0.0060000,-0.0234920,0.0085510,-0.0216510,0.0125000,0.0000000*
1,1,0.0060000,-0.0216510,0.0125000*
20,1,0.0060000,-0.0216510,0.0125000,-0.0191510,0.0160700,0.0000000*
1,1,0.0060000,-0.0191510,0.0160700*
20,1,0.0060000,-0.0191510,0.0160700,-0.0160700,0.0191510,0.0000000*
1,1,0.0060000,-0.0160700,0.0191510*
20,1,0.0060000,-0.0160700,0.0191510,-0.0125000,0.0216510,0.0000000*
1,1,0.0060000,-0.0125000,0.0216510*
20,1,0.0060000,-0.0125000,0.0216510,-0.0085510,0.0234920,0.0000000*
1,1,0.0060000,-0.0085510,0.0234920*
20,1,0.0060000,-0.0085510,0.0234920,-0.0043410,0.0246200,0.0000000*
1,1,0.0060000,-0.0043410,0.0246200*
20,1,0.0060000,-0.0043410,0.0246200,0.0000000,0.0250000,0.0000000*
1,1,0.0060000,0.0000000,0.0250000*
20,1,0.0060000,0.0000000,0.0250000,0.0043410,0.0246200,0.0000000*
1,1,0.0060000,0.0043410,0.0246200*
20,1,0.0060000,0.0043410,0.0246200,0.0085510,0.0234920,0.0000000*
1,1,0.0060000,0.0085510,0.0234920*
20,1,0.0060000,0.0085510,0.0234920,0.0125000,0.0216510,0.0000000*
1,1,0.0060000,0.0125000,0.0216510*
20,1,0.0060000,0.0125000,0.0216510,0.0160700,0.0191510,0.0000000*
1,1,0.0060000,0.0160700,0.0191510*
20,1,0.0060000,0.0160700,0.0191510,0.0191510,0.0160700,0.0000000*
1,1,0.0060000,0.0191510,0.0160700*
20,1,0.0060000,0.0191510,0.0160700,0.0216510,0.0125000,0.0000000*
1,1,0.0060000,0.0216510,0.0125000*
20,1,0.0060000,0.0216510,0.0125000,0.0234920,0.0085510,0.0000000*
1,1,0.0060000,0.0234920,0.0085510*
20,1,0.0060000,0.0234920,0.0085510,0.0246200,0.0043410,0.0000000*
1,1,0.0060000,0.0246200,0.0043410*
20,1,0.0060000,0.0246200,0.0043410,0.0250000,0.0000000,0.0000000*
1,1,0.0060000,0.0250000,0.0000000*
1,1,0.0060000,0.0033330,0.0008340*
20,1,0.0060000,0.0033330,0.0008340,0.0050000,0.0020830,0.0000000*
1,1,0.0060000,0.0050000,0.0020830*
20,1,0.0060000,0.0050000,0.0020830,0.0062500,0.0041660,0.0000000*
1,1,0.0060000,0.0062500,0.0041660*
20,1,0.0060000,0.0062500,0.0041660,0.0070840,0.0070840,0.0000000*
1,1,0.0060000,0.0070840,0.0070840*
20,1,0.0060000,0.0070840,0.0070840,0.0062500,0.0095830,0.0000000*
1,1,0.0060000,0.0062500,0.0095830*
20,1,0.0060000,0.0062500,0.0095830,0.0045830,0.0112500,0.0000000*
1,1,0.0060000,0.0045830,0.0112500*
20,1,0.0060000,0.0045830,0.0112500,0.0016670,0.0125000,0.0000000*
1,1,0.0060000,0.0016670,0.0125000*
20,1,0.0060000,0.0016670,0.0125000,-0.0095830,0.0125000,0.0000000*
1,1,0.0060000,-0.0095830,0.0125000*
20,1,0.0060000,-0.0095830,0.0125000,-0.0095830,-0.0125000,0.0000000*
1,1,0.0060000,-0.0095830,-0.0125000*
20,1,0.0060000,-0.0095830,-0.0125000,0.0041670,-0.0125000,0.0000000*
1,1,0.0060000,0.0041670,-0.0125000*
20,1,0.0060000,0.0041670,-0.0125000,0.0070840,-0.0108340,0.0000000*
1,1,0.0060000,0.0070840,-0.0108340*
20,1,0.0060000,0.0070840,-0.0108340,0.0087500,-0.0083330,0.0000000*
1,1,0.0060000,0.0087500,-0.0083330*
20,1,0.0060000,0.0087500,-0.0083330,0.0095830,-0.0054170,0.0000000*
1,1,0.0060000,0.0095830,-0.0054170*
20,1,0.0060000,0.0095830,-0.0054170,0.0087500,-0.0025010,0.0000000*
1,1,0.0060000,0.0087500,-0.0025010*
20,1,0.0060000,0.0087500,-0.0025010,0.0062500,0.0000000,0.0000000*
1,1,0.0060000,0.0062500,0.0000000*
20,1,0.0060000,0.0062500,0.0000000,0.0033330,0.0008340,0.0000000*
1,1,0.0060000,0.0033330,0.0008340*
20,1,0.0060000,0.0033330,0.0008340,-0.0095830,0.0008340,0.0000000*
1,1,0.0060000,-0.0095830,0.0008340*
%
%AMMACRO10*
1,1,0.0060000,0.0250000,0.0000000*
20,1,0.0060000,0.0250000,0.0000000,0.0246200,-0.0043410,0.0000000*
1,1,0.0060000,0.0246200,-0.0043410*
20,1,0.0060000,0.0246200,-0.0043410,0.0234920,-0.0085510,0.0000000*
1,1,0.0060000,0.0234920,-0.0085510*
20,1,0.0060000,0.0234920,-0.0085510,0.0216510,-0.0125000,0.0000000*
1,1,0.0060000,0.0216510,-0.0125000*
20,1,0.0060000,0.0216510,-0.0125000,0.0191510,-0.0160700,0.0000000*
1,1,0.0060000,0.0191510,-0.0160700*
20,1,0.0060000,0.0191510,-0.0160700,0.0160700,-0.0191510,0.0000000*
1,1,0.0060000,0.0160700,-0.0191510*
20,1,0.0060000,0.0160700,-0.0191510,0.0125000,-0.0216510,0.0000000*
1,1,0.0060000,0.0125000,-0.0216510*
20,1,0.0060000,0.0125000,-0.0216510,0.0085510,-0.0234920,0.0000000*
1,1,0.0060000,0.0085510,-0.0234920*
20,1,0.0060000,0.0085510,-0.0234920,0.0043410,-0.0246200,0.0000000*
1,1,0.0060000,0.0043410,-0.0246200*
20,1,0.0060000,0.0043410,-0.0246200,0.0000000,-0.0250000,0.0000000*
1,1,0.0060000,0.0000000,-0.0250000*
20,1,0.0060000,0.0000000,-0.0250000,-0.0043410,-0.0246200,0.0000000*
1,1,0.0060000,-0.0043410,-0.0246200*
20,1,0.0060000,-0.0043410,-0.0246200,-0.0085510,-0.0234920,0.0000000*
1,1,0.0060000,-0.0085510,-0.0234920*
20,1,0.0060000,-0.0085510,-0.0234920,-0.0125000,-0.0216510,0.0000000*
1,1,0.0060000,-0.0125000,-0.0216510*
20,1,0.0060000,-0.0125000,-0.0216510,-0.0160700,-0.0191510,0.0000000*
1,1,0.0060000,-0.0160700,-0.0191510*
20,1,0.0060000,-0.0160700,-0.0191510,-0.0191510,-0.0160700,0.0000000*
1,1,0.0060000,-0.0191510,-0.0160700*
20,1,0.0060000,-0.0191510,-0.0160700,-0.0216510,-0.0125000,0.0000000*
1,1,0.0060000,-0.0216510,-0.0125000*
20,1,0.0060000,-0.0216510,-0.0125000,-0.0234920,-0.0085510,0.0000000*
1,1,0.0060000,-0.0234920,-0.0085510*
20,1,0.0060000,-0.0234920,-0.0085510,-0.0246200,-0.0043410,0.0000000*
1,1,0.0060000,-0.0246200,-0.0043410*
20,1,0.0060000,-0.0246200,-0.0043410,-0.0250000,0.0000000,0.0000000*
1,1,0.0060000,-0.0250000,0.0000000*
20,1,0.0060000,-0.0250000,0.0000000,-0.0246200,0.0043410,0.0000000*
1,1,0.0060000,-0.0246200,0.0043410*
20,1,0.0060000,-0.0246200,0.0043410,-0.0234920,0.0085510,0.0000000*
1,1,0.0060000,-0.0234920,0.0085510*
20,1,0.0060000,-0.0234920,0.0085510,-0.0216510,0.0125000,0.0000000*
1,1,0.0060000,-0.0216510,0.0125000*
20,1,0.0060000,-0.0216510,0.0125000,-0.0191510,0.0160700,0.0000000*
1,1,0.0060000,-0.0191510,0.0160700*
20,1,0.0060000,-0.0191510,0.0160700,-0.0160700,0.0191510,0.0000000*
1,1,0.0060000,-0.0160700,0.0191510*
20,1,0.0060000,-0.0160700,0.0191510,-0.0125000,0.0216510,0.0000000*
1,1,0.0060000,-0.0125000,0.0216510*
20,1,0.0060000,-0.0125000,0.0216510,-0.0085510,0.0234920,0.0000000*
1,1,0.0060000,-0.0085510,0.0234920*
20,1,0.0060000,-0.0085510,0.0234920,-0.0043410,0.0246200,0.0000000*
1,1,0.0060000,-0.0043410,0.0246200*
20,1,0.0060000,-0.0043410,0.0246200,0.0000000,0.0250000,0.0000000*
1,1,0.0060000,0.0000000,0.0250000*
20,1,0.0060000,0.0000000,0.0250000,0.0043410,0.0246200,0.0000000*
1,1,0.0060000,0.0043410,0.0246200*
20,1,0.0060000,0.0043410,0.0246200,0.0085510,0.0234920,0.0000000*
1,1,0.0060000,0.0085510,0.0234920*
20,1,0.0060000,0.0085510,0.0234920,0.0125000,0.0216510,0.0000000*
1,1,0.0060000,0.0125000,0.0216510*
20,1,0.0060000,0.0125000,0.0216510,0.0160700,0.0191510,0.0000000*
1,1,0.0060000,0.0160700,0.0191510*
20,1,0.0060000,0.0160700,0.0191510,0.0191510,0.0160700,0.0000000*
1,1,0.0060000,0.0191510,0.0160700*
20,1,0.0060000,0.0191510,0.0160700,0.0216510,0.0125000,0.0000000*
1,1,0.0060000,0.0216510,0.0125000*
20,1,0.0060000,0.0216510,0.0125000,0.0234920,0.0085510,0.0000000*
1,1,0.0060000,0.0234920,0.0085510*
20,1,0.0060000,0.0234920,0.0085510,0.0246200,0.0043410,0.0000000*
1,1,0.0060000,0.0246200,0.0043410*
20,1,0.0060000,0.0246200,0.0043410,0.0250000,0.0000000,0.0000000*
1,1,0.0060000,0.0250000,0.0000000*
1,1,0.0060000,0.0091670,0.0104160*
20,1,0.0060000,0.0091670,0.0104160,0.0066660,0.0116670,0.0000000*
1,1,0.0060000,0.0066660,0.0116670*
20,1,0.0060000,0.0066660,0.0116670,0.0037500,0.0125000,0.0000000*
1,1,0.0060000,0.0037500,0.0125000*
20,1,0.0060000,0.0037500,0.0125000,0.0004170,0.0125000,0.0000000*
1,1,0.0060000,0.0004170,0.0125000*
20,1,0.0060000,0.0004170,0.0125000,-0.0033340,0.0112500,0.0000000*
1,1,0.0060000,-0.0033340,0.0112500*
20,1,0.0060000,-0.0033340,0.0112500,-0.0062500,0.0091670,0.0000000*
1,1,0.0060000,-0.0062500,0.0091670*
20,1,0.0060000,-0.0062500,0.0091670,-0.0083330,0.0066660,0.0000000*
1,1,0.0060000,-0.0083330,0.0066660*
20,1,0.0060000,-0.0083330,0.0066660,-0.0100010,0.0025000,0.0000000*
1,1,0.0060000,-0.0100010,0.0025000*
20,1,0.0060000,-0.0100010,0.0025000,-0.0104170,-0.0012500,0.0000000*
1,1,0.0060000,-0.0104170,-0.0012500*
20,1,0.0060000,-0.0104170,-0.0012500,-0.0095830,-0.0050000,0.0000000*
1,1,0.0060000,-0.0095830,-0.0050000*
20,1,0.0060000,-0.0095830,-0.0050000,-0.0083330,-0.0075000,0.0000000*
1,1,0.0060000,-0.0083330,-0.0075000*
20,1,0.0060000,-0.0083330,-0.0075000,-0.0058330,-0.0100010,0.0000000*
1,1,0.0060000,-0.0058330,-0.0100010*
20,1,0.0060000,-0.0058330,-0.0100010,-0.0029160,-0.0116670,0.0000000*
1,1,0.0060000,-0.0029160,-0.0116670*
20,1,0.0060000,-0.0029160,-0.0116670,0.0000000,-0.0125000,0.0000000*
1,1,0.0060000,0.0000000,-0.0125000*
20,1,0.0060000,0.0000000,-0.0125000,0.0029160,-0.0125000,0.0000000*
1,1,0.0060000,0.0029160,-0.0125000*
20,1,0.0060000,0.0029160,-0.0125000,0.0058330,-0.0116670,0.0000000*
1,1,0.0060000,0.0058330,-0.0116670*
20,1,0.0060000,0.0058330,-0.0116670,0.0083330,-0.0104170,0.0000000*
1,1,0.0060000,0.0083330,-0.0104170*
20,1,0.0060000,0.0083330,-0.0104170,0.0104170,-0.0087510,0.0000000*
1,1,0.0060000,0.0104170,-0.0087510*
%
%AMMACRO11*
1,1,0.0060000,0.0250000,0.0000000*
20,1,0.0060000,0.0250000,0.0000000,-0.0250000,0.0000000,0.0000000*
1,1,0.0060000,-0.0250000,0.0000000*
1,1,0.0060000,0.0000000,0.0250000*
20,1,0.0060000,0.0000000,0.0250000,0.0000000,-0.0250000,0.0000000*
1,1,0.0060000,0.0000000,-0.0250000*
1,1,0.0060000,0.0033330,0.0000000*
20,1,0.0060000,0.0033330,0.0000000,0.0033330,0.0250000,0.0000000*
1,1,0.0060000,0.0033330,0.0250000*
20,1,0.0060000,0.0033330,0.0250000,0.0116660,0.0250000,0.0000000*
1,1,0.0060000,0.0116660,0.0250000*
20,1,0.0060000,0.0116660,0.0250000,0.0150000,0.0237500,0.0000000*
1,1,0.0060000,0.0150000,0.0237500*
20,1,0.0060000,0.0150000,0.0237500,0.0175000,0.0220830,0.0000000*
1,1,0.0060000,0.0175000,0.0220830*
20,1,0.0060000,0.0175000,0.0220830,0.0195840,0.0195840,0.0000000*
1,1,0.0060000,0.0195840,0.0195840*
20,1,0.0060000,0.0195840,0.0195840,0.0212500,0.0166660,0.0000000*
1,1,0.0060000,0.0212500,0.0166660*
20,1,0.0060000,0.0212500,0.0166660,0.0216670,0.0125000,0.0000000*
1,1,0.0060000,0.0216670,0.0125000*
20,1,0.0060000,0.0216670,0.0125000,0.0212500,0.0083330,0.0000000*
1,1,0.0060000,0.0212500,0.0083330*
20,1,0.0060000,0.0212500,0.0083330,0.0195840,0.0054160,0.0000000*
1,1,0.0060000,0.0195840,0.0054160*
20,1,0.0060000,0.0195840,0.0054160,0.0175000,0.0029160,0.0000000*
1,1,0.0060000,0.0175000,0.0029160*
20,1,0.0060000,0.0175000,0.0029160,0.0150000,0.0012500,0.0000000*
1,1,0.0060000,0.0150000,0.0012500*
20,1,0.0060000,0.0150000,0.0012500,0.0116660,0.0000000,0.0000000*
1,1,0.0060000,0.0116660,0.0000000*
20,1,0.0060000,0.0116660,0.0000000,0.0033330,0.0000000,0.0000000*
1,1,0.0060000,0.0033330,0.0000000*
%
%ADD11C,0.00600*%
%ADD27MACRO13*%
%ADD28MACRO12*%
%ADD29MACRO10*%
%ADD72MACRO11*%
%LNFAB.art*%
%LPD*%
G36*
X878000Y204000D02*
G01X853000D01*
X838000*
X818000*
Y212540*
X838000*
X840500*
Y395540*
X838000*
X818000*
Y404080*
X838000*
X853000*
X878000*
Y395540*
X853000*
X850500*
Y212540*
X853000*
X878000*
Y204000*
G37*
G54D29*
X13268Y7744D03*
Y110366D03*
X23268Y7744D03*
X33268D03*
X43268D03*
X23268Y110366D03*
X33268D03*
X43268D03*
X53268Y7744D03*
X63268D03*
X73268D03*
X72100Y90700D03*
X62100D03*
X72100Y80700D03*
X62100D03*
X53268Y110366D03*
X63268D03*
X73268D03*
X83268Y7744D03*
X93268D03*
X103268D03*
X82100Y90700D03*
Y80700D03*
X83268Y110366D03*
X93268D03*
X103268D03*
X113268Y7744D03*
X123268D03*
X133268D03*
X113268Y110366D03*
X123268D03*
X133268D03*
X143268Y7744D03*
X153268D03*
X163268D03*
X143268Y110366D03*
X153268D03*
X163268D03*
X173268Y7744D03*
X183268D03*
X193268D03*
X173268Y110366D03*
X183268D03*
X193268D03*
X203268Y7744D03*
X204791Y44055D03*
Y54055D03*
Y64055D03*
Y74055D03*
X203268Y110366D03*
X544950Y-99500D03*
G54D72*
X20047Y51181D03*
Y66929D03*
X544950Y-124500D03*
G54D28*
X16000Y58000D03*
X19000Y77900D03*
X25000Y48000D03*
X28500Y69100D03*
X25300Y72600D03*
X31800D03*
X23000Y89800D03*
X42400Y80500D03*
Y76900D03*
X64700Y32800D03*
X55300Y85450D03*
X51100D03*
X53200Y81300D03*
X103700Y63300D03*
X89900Y65900D03*
X115050Y34850D03*
X114000Y44700D03*
X131124Y58624D03*
X116300Y71900D03*
X127900Y78200D03*
X143543Y53443D03*
X139600Y49600D03*
X142900Y88300D03*
X189800Y23550D03*
X204400Y30500D03*
X544950Y-74500D03*
G54D27*
X42895Y62870D03*
Y59130D03*
X45000Y95000D03*
X76700Y65550D03*
X83400Y28600D03*
X108250Y22750D03*
X105400Y28000D03*
X108161Y54668D03*
X82400Y100900D03*
X118600Y26700D03*
X115650Y61950D03*
X112325Y54668D03*
X118000Y55100D03*
X134800Y74000D03*
X130476Y85076D03*
X139800Y64900D03*
X140300Y70600D03*
X159449Y62200D03*
Y56200D03*
X139652Y75900D03*
X175000Y64000D03*
X168073Y69927D03*
X193800Y97600D03*
X202701Y19601D03*
X544950Y-49500D03*
G54D11*
X-123335Y331170D02*
G01X-121588Y329712D01*
X-119623Y328837*
X-117877*
X-116130Y329712*
X-114820Y331170*
X-114165Y333212*
X-114602Y335253*
X-115693Y337003*
X-117658Y338171*
X-120278Y338754*
X-121807Y339920*
X-122462Y341962*
X-122025Y344004*
X-120934Y345462*
X-119405Y346337*
X-117877*
X-116348Y345754*
X-115038Y344295*
X-103870Y346337D02*
G01X-98630D01*
X-101250D02*
G01Y328837D01*
X-103870D02*
G01X-98630D01*
X-88117Y346337D02*
G01Y328837D01*
X-79383*
X-71053D02*
G01Y346337D01*
X-62757D02*
G01X-71053Y335545D01*
X-61447Y328837D02*
G01X-67342Y340503D01*
X-53335Y331170D02*
G01X-51588Y329712D01*
X-49623Y328837*
X-47877*
X-46130Y329712*
X-44820Y331170*
X-44165Y333212*
X-44602Y335253*
X-45693Y337003*
X-47658Y338171*
X-50278Y338754*
X-51807Y339920*
X-52462Y341962*
X-52025Y344004*
X-50934Y345462*
X-49405Y346337*
X-47877*
X-46348Y345754*
X-45038Y344295*
X-26447Y344878D02*
G01X-27757Y345754D01*
X-29285Y346337*
X-31032*
X-32997Y345462*
X-34525Y344004*
X-35617Y342253*
X-36490Y339337*
X-36709Y336712*
X-36272Y334087*
X-35617Y332337*
X-34307Y330587*
X-32778Y329420*
X-31250Y328837*
X-29722*
X-28193Y329420*
X-26883Y330295*
X-25791Y331461*
X-18117Y328837D02*
G01Y346337D01*
X-12658*
X-10912Y345462*
X-9820Y344295*
X-9383Y341962*
X-9820Y339629*
X-11130Y338171*
X-12658Y337295*
X-18117*
X-12658D02*
G01X-9383Y328837D01*
X8117D02*
G01X-617D01*
Y346337*
X8117*
X4623Y337879D02*
G01X-617D01*
X25617Y328837D02*
G01X16883D01*
Y346337*
X25617*
X22123Y337879D02*
G01X16883D01*
X33728Y328837D02*
G01Y346337D01*
X43772Y328837*
Y346337*
X56250Y328254D02*
G01X55813Y328545D01*
Y329129*
X56250Y329420*
X56687Y329129*
Y328545*
X56250Y328254*
Y336128D02*
G01X55813Y336420D01*
Y337003*
X56250Y337295*
X56687Y337003*
Y336420*
X56250Y336128*
X84700Y346337D02*
G01X87756Y328837D01*
X91250Y346337*
X94743Y328837*
X97800Y346337*
X104165Y328837D02*
G01Y346337D01*
X113335D02*
G01Y328837D01*
Y337587D02*
G01X104165D01*
X123630Y346337D02*
G01X128870D01*
X126250D02*
G01Y328837D01*
X123630D02*
G01X128870D01*
X143750Y346337D02*
G01Y328837D01*
X138728Y346337D02*
G01X148772D01*
X165617Y328837D02*
G01X156883D01*
Y346337*
X165617*
X162123Y337879D02*
G01X156883D01*
X-122085Y381170D02*
G01X-120338Y379712D01*
X-118373Y378837*
X-116627*
X-114880Y379712*
X-113570Y381170*
X-112915Y383212*
X-113352Y385253*
X-114443Y387003*
X-116408Y388171*
X-119028Y388754*
X-120557Y389920*
X-121212Y391962*
X-120775Y394004*
X-119684Y395462*
X-118155Y396337*
X-116627*
X-115098Y395754*
X-113788Y394295*
X-100000Y378837D02*
G01X-101747Y379129D01*
X-103275Y380295*
X-104585Y382045*
X-105459Y384087*
X-105895Y386420*
Y388754*
X-105459Y391087*
X-104585Y393129*
X-103275Y394878*
X-101747Y396045*
X-100000Y396337*
X-98254Y396045*
X-96725Y394878*
X-95415Y393129*
X-94541Y391087*
X-94105Y388754*
Y386420*
X-94541Y384087*
X-95415Y382045*
X-96725Y380295*
X-98254Y379129*
X-100000Y378837*
X-86867Y396337D02*
G01Y378837D01*
X-78133*
X-69803D02*
G01Y396337D01*
X-65437*
X-63690Y395462*
X-62380Y394295*
X-61288Y392546*
X-60415Y390503*
X-60197Y387587*
X-60415Y384670*
X-61288Y382628*
X-62380Y380878*
X-63690Y379712*
X-65437Y378837*
X-69803*
X-43133D02*
G01X-51867D01*
Y396337*
X-43133*
X-46627Y387879D02*
G01X-51867D01*
X-34367Y378837D02*
G01Y396337D01*
X-28908*
X-27162Y395462*
X-26070Y394295*
X-25633Y391962*
X-26070Y389629*
X-27380Y388171*
X-28908Y387295*
X-34367*
X-28908D02*
G01X-25633Y378837D01*
X-677D02*
G01Y396337D01*
X5000Y381754*
X10677Y396337*
Y378837*
X17041D02*
G01X22500Y396337D01*
X27959Y378837*
X25993Y384962D02*
G01X19006D01*
X35415Y381170D02*
G01X37162Y379712D01*
X39127Y378837*
X40873*
X42620Y379712*
X43930Y381170*
X44585Y383212*
X44148Y385253*
X43057Y387003*
X41092Y388171*
X38472Y388754*
X36943Y389920*
X36288Y391962*
X36725Y394004*
X37816Y395462*
X39345Y396337*
X40873*
X42402Y395754*
X43712Y394295*
X52697Y378837D02*
G01Y396337D01*
X60993D02*
G01X52697Y385545D01*
X62303Y378837D02*
G01X56408Y390503D01*
X75000Y378254D02*
G01X74563Y378545D01*
Y379129*
X75000Y379420*
X75437Y379129*
Y378545*
X75000Y378254*
Y386128D02*
G01X74563Y386420D01*
Y387003*
X75000Y387295*
X75437Y387003*
Y386420*
X75000Y386128*
X111310Y387587D02*
G01X115677D01*
Y382337*
X114367Y380587*
X112838Y379420*
X110655Y378837*
X108472Y379420*
X106943Y380587*
X105633Y382337*
X104760Y384379*
X104323Y386712*
Y388754*
X104760Y390503*
X105633Y392546*
X106943Y394295*
X108253Y395462*
X110000Y396337*
X111528*
X113275Y395754*
X114585Y394587*
X123133Y378837D02*
G01Y396337D01*
X128592*
X130338Y395462*
X131430Y394295*
X131867Y391962*
X131430Y389629*
X130120Y388171*
X128592Y387295*
X123133*
X128592D02*
G01X131867Y378837D01*
X149367D02*
G01X140633D01*
Y396337*
X149367*
X145873Y387879D02*
G01X140633D01*
X166867Y378837D02*
G01X158133D01*
Y396337*
X166867*
X163373Y387879D02*
G01X158133D01*
X174978Y378837D02*
G01Y396337D01*
X185022Y378837*
Y396337*
X-120000Y446337D02*
G01Y428837D01*
X-125022Y446337D02*
G01X-114978D01*
X-107085Y428837D02*
G01Y446337D01*
X-97915D02*
G01Y428837D01*
Y437587D02*
G01X-107085D01*
X-87620Y446337D02*
G01X-82380D01*
X-85000D02*
G01Y428837D01*
X-87620D02*
G01X-82380D01*
X-62697Y444878D02*
G01X-64007Y445754D01*
X-65535Y446337*
X-67282*
X-69247Y445462*
X-70775Y444004*
X-71867Y442253*
X-72740Y439337*
X-72959Y436712*
X-72522Y434087*
X-71867Y432337*
X-70557Y430587*
X-69028Y429420*
X-67500Y428837*
X-65972*
X-64443Y429420*
X-63133Y430295*
X-62041Y431461*
X-54803Y428837D02*
G01Y446337D01*
X-46507D02*
G01X-54803Y435545D01*
X-45197Y428837D02*
G01X-51092Y440503D01*
X-37522Y428837D02*
G01Y446337D01*
X-27478Y428837*
Y446337*
X-10633Y428837D02*
G01X-19367D01*
Y446337*
X-10633*
X-14127Y437879D02*
G01X-19367D01*
X-2085Y431170D02*
G01X-338Y429712D01*
X1627Y428837*
X3373*
X5120Y429712*
X6430Y431170*
X7085Y433212*
X6648Y435253*
X5557Y437003*
X3592Y438171*
X972Y438754*
X-557Y439920*
X-1212Y441962*
X-775Y444004*
X316Y445462*
X1845Y446337*
X3373*
X4902Y445754*
X6212Y444295*
X15415Y431170D02*
G01X17162Y429712D01*
X19127Y428837*
X20873*
X22620Y429712*
X23930Y431170*
X24585Y433212*
X24148Y435253*
X23057Y437003*
X21092Y438171*
X18472Y438754*
X16943Y439920*
X16288Y441962*
X16725Y444004*
X17816Y445462*
X19345Y446337*
X20873*
X22402Y445754*
X23712Y444295*
X37500Y428254D02*
G01X37063Y428545D01*
Y429129*
X37500Y429420*
X37937Y429129*
Y428545*
X37500Y428254*
Y436128D02*
G01X37063Y436420D01*
Y437003*
X37500Y437295*
X37937Y437003*
Y436420*
X37500Y436128*
X67915Y431170D02*
G01X69662Y429712D01*
X71627Y428837*
X73373*
X75120Y429712*
X76430Y431170*
X77085Y433212*
X76648Y435253*
X75557Y437003*
X73592Y438171*
X70972Y438754*
X69443Y439920*
X68788Y441962*
X69225Y444004*
X70316Y445462*
X71845Y446337*
X73373*
X74902Y445754*
X76212Y444295*
X94367Y428837D02*
G01X85633D01*
Y446337*
X94367*
X90873Y437879D02*
G01X85633D01*
X111867Y428837D02*
G01X103133D01*
Y446337*
X111867*
X108373Y437879D02*
G01X103133D01*
X137697Y428837D02*
G01Y446337D01*
X142063*
X143810Y445462*
X145120Y444295*
X146212Y442546*
X147085Y440503*
X147303Y437587*
X147085Y434670*
X146212Y432628*
X145120Y430878*
X143810Y429712*
X142063Y428837*
X137697*
X154541D02*
G01X160000Y446337D01*
X165459Y428837*
X163493Y434962D02*
G01X156506D01*
X177500Y446337D02*
G01Y428837D01*
X172478Y446337D02*
G01X182522D01*
X189541Y428837D02*
G01X195000Y446337D01*
X200459Y428837*
X198493Y434962D02*
G01X191506D01*
X209880Y446337D02*
G01X215120D01*
X212500D02*
G01Y428837D01*
X209880D02*
G01X215120D01*
X225633Y446337D02*
G01Y428837D01*
X234367*
X259541D02*
G01X265000Y446337D01*
X270459Y428837*
X268493Y434962D02*
G01X261506D01*
X-115617Y499254D02*
G01Y481754D01*
X-106883*
X-99209D02*
G01X-93750Y499254D01*
X-88291Y481754*
X-90257Y487879D02*
G01X-97244D01*
X-76250Y481754D02*
G01Y489629D01*
X-80617Y499254*
X-71883D02*
G01X-76250Y489629D01*
X-54383Y481754D02*
G01X-63117D01*
Y499254*
X-54383*
X-57877Y490796D02*
G01X-63117D01*
X-45617Y481754D02*
G01Y499254D01*
X-40158*
X-38412Y498378*
X-37320Y497212*
X-36883Y494879*
X-37320Y492545*
X-38630Y491087*
X-40158Y490212*
X-45617*
X-40158D02*
G01X-36883Y481754D01*
X-23750Y481171D02*
G01X-24187Y481462D01*
Y482045*
X-23750Y482337*
X-23313Y482045*
Y481462*
X-23750Y481171*
Y489045D02*
G01X-24187Y489337D01*
Y489920*
X-23750Y490212*
X-23313Y489920*
Y489337*
X-23750Y489045*
X7102Y496337D02*
G01X8412Y498087D01*
X9940Y498962*
X11687Y499254*
X13870Y498671*
X15398Y497212*
X15835Y495462*
X15617Y493712*
X14743Y492254*
X10377Y489337*
X8412Y487295*
X7102Y484378*
X6665Y481754*
X15835*
X51447Y541171D02*
G01X61053Y554004D01*
X56250Y556337D02*
G01Y538837D01*
X61053Y541171D02*
G01X51447Y554004D01*
X49700Y547587D02*
G01X62800D01*
X68947Y541171D02*
G01X78553Y554004D01*
X73750Y556337D02*
G01Y538837D01*
X78553Y541171D02*
G01X68947Y554004D01*
X67200Y547587D02*
G01X80300D01*
X86447Y541171D02*
G01X96053Y554004D01*
X91250Y556337D02*
G01Y538837D01*
X96053Y541171D02*
G01X86447Y554004D01*
X84700Y547587D02*
G01X97800D01*
X103947Y541171D02*
G01X113553Y554004D01*
X108750Y556337D02*
G01Y538837D01*
X113553Y541171D02*
G01X103947Y554004D01*
X102200Y547587D02*
G01X115300D01*
X121447Y541171D02*
G01X131053Y554004D01*
X126250Y556337D02*
G01Y538837D01*
X131053Y541171D02*
G01X121447Y554004D01*
X119700Y547587D02*
G01X132800D01*
X138728Y541754D02*
G01Y559254D01*
X148772Y541754*
Y559254*
X161250Y541754D02*
G01X159503Y542045D01*
X157975Y543212*
X156665Y544962*
X155791Y547004*
X155355Y549337*
Y551670*
X155791Y554004*
X156665Y556045*
X157975Y557795*
X159503Y558962*
X161250Y559254*
X162996Y558962*
X164525Y557795*
X165835Y556045*
X166709Y554004*
X167145Y551670*
Y549337*
X166709Y547004*
X165835Y544962*
X164525Y543212*
X162996Y542045*
X161250Y541754*
X178750Y559254D02*
G01Y541754D01*
X173728Y559254D02*
G01X183772D01*
X200617Y541754D02*
G01X191883D01*
Y559254*
X200617*
X197123Y550796D02*
G01X191883D01*
X208947Y541171D02*
G01X218553Y554004D01*
X213750Y556337D02*
G01Y538837D01*
X218553Y541171D02*
G01X208947Y554004D01*
X207200Y547587D02*
G01X220300D01*
X226447Y541171D02*
G01X236053Y554004D01*
X231250Y556337D02*
G01Y538837D01*
X236053Y541171D02*
G01X226447Y554004D01*
X224700Y547587D02*
G01X237800D01*
X243947Y541171D02*
G01X253553Y554004D01*
X248750Y556337D02*
G01Y538837D01*
X253553Y541171D02*
G01X243947Y554004D01*
X242200Y547587D02*
G01X255300D01*
X261447Y541171D02*
G01X271053Y554004D01*
X266250Y556337D02*
G01Y538837D01*
X271053Y541171D02*
G01X261447Y554004D01*
X259700Y547587D02*
G01X272800D01*
X278947Y541171D02*
G01X288553Y554004D01*
X283750Y556337D02*
G01Y538837D01*
X288553Y541171D02*
G01X278947Y554004D01*
X277200Y547587D02*
G01X290300D01*
X556597Y-358800D02*
G01Y-353800D01*
X559003*
X558117Y-356217D02*
G01X556597D01*
X561633Y-358800D02*
G01Y-353800D01*
X563217*
X563723Y-354050*
X564040Y-354383*
X564167Y-355050*
X564040Y-355717*
X563660Y-356133*
X563217Y-356383*
X561633*
X563217D02*
G01X564167Y-358800D01*
X566417D02*
G01X568000Y-353800D01*
X569583Y-358800*
X569013Y-357050D02*
G01X566987D01*
X574493Y-354217D02*
G01X574113Y-353967D01*
X573670Y-353800*
X573163*
X572593Y-354050*
X572150Y-354467*
X571833Y-354967*
X571580Y-355800*
X571517Y-356550*
X571643Y-357300*
X571833Y-357800*
X572213Y-358300*
X572657Y-358633*
X573100Y-358800*
X573543*
X573987Y-358633*
X574367Y-358383*
X574683Y-358050*
X578200Y-353800D02*
G01Y-358800D01*
X576743Y-353800D02*
G01X579657D01*
X582540D02*
G01X584060D01*
X583300D02*
G01Y-358800D01*
X582540D02*
G01X584060D01*
X588400D02*
G01X587893Y-358717D01*
X587450Y-358383*
X587070Y-357883*
X586817Y-357300*
X586690Y-356633*
Y-355967*
X586817Y-355300*
X587070Y-354717*
X587450Y-354217*
X587893Y-353883*
X588400Y-353800*
X588907Y-353883*
X589350Y-354217*
X589730Y-354717*
X589983Y-355300*
X590110Y-355967*
Y-356633*
X589983Y-357300*
X589730Y-357883*
X589350Y-358383*
X588907Y-358717*
X588400Y-358800*
X592043D02*
G01Y-353800D01*
X594957Y-358800*
Y-353800*
X597270Y-358134D02*
G01X597777Y-358550D01*
X598347Y-358800*
X598853*
X599360Y-358550*
X599740Y-358134*
X599930Y-357550*
X599803Y-356967*
X599487Y-356467*
X598917Y-356133*
X598157Y-355967*
X597713Y-355633*
X597523Y-355050*
X597650Y-354467*
X597967Y-354050*
X598410Y-353800*
X598853*
X599297Y-353967*
X599677Y-354383*
X608103Y-357133D02*
G01X609623D01*
X608800Y-356050D02*
G01Y-358217D01*
X556217Y-343800D02*
G01X557800Y-338800D01*
X559383Y-343800*
X558813Y-342050D02*
G01X556787D01*
X561443Y-343800D02*
G01Y-338800D01*
X564357Y-343800*
Y-338800*
X568380Y-341300D02*
G01X569647D01*
Y-342800*
X569267Y-343300*
X568823Y-343633*
X568190Y-343800*
X567557Y-343633*
X567113Y-343300*
X566733Y-342800*
X566480Y-342217*
X566353Y-341550*
Y-340967*
X566480Y-340467*
X566733Y-339883*
X567113Y-339383*
X567493Y-339050*
X568000Y-338800*
X568443*
X568950Y-338967*
X569330Y-339300*
X571833Y-338800D02*
G01Y-343800D01*
X574367*
X579467D02*
G01X576933D01*
Y-338800*
X579467*
X578453Y-341217D02*
G01X576933D01*
X581970Y-343134D02*
G01X582477Y-343550D01*
X583047Y-343800*
X583553*
X584060Y-343550*
X584440Y-343134*
X584630Y-342550*
X584503Y-341967*
X584187Y-341467*
X583617Y-341133*
X582857Y-340967*
X582413Y-340633*
X582223Y-340050*
X582350Y-339467*
X582667Y-339050*
X583110Y-338800*
X583553*
X583997Y-338967*
X584377Y-339383*
X592803Y-342133D02*
G01X594323D01*
X593500Y-341050D02*
G01Y-343217D01*
X556407Y-327800D02*
G01X556787Y-328383D01*
X557293Y-328717*
X557863Y-328800*
X558370Y-328717*
X558877Y-328300*
X559193Y-327800*
X559257Y-327300*
X559130Y-326717*
X558687Y-326300*
X558243Y-326133*
X557673*
X558243D02*
G01X558623Y-325883D01*
X558940Y-325467*
X559067Y-324967*
X558940Y-324467*
X558623Y-324050*
X558053Y-323800*
X557483Y-323883*
X556913Y-324217*
X566733Y-328800D02*
G01Y-323800D01*
X568253*
X568760Y-324050*
X569140Y-324633*
X569267Y-325300*
X569140Y-325967*
X568823Y-326467*
X568253Y-326717*
X566733*
X571833Y-323800D02*
G01Y-328800D01*
X574367*
X581907D02*
G01Y-323800D01*
X583173*
X583680Y-324050*
X584060Y-324383*
X584377Y-324883*
X584630Y-325467*
X584693Y-326300*
X584630Y-327133*
X584377Y-327717*
X584060Y-328217*
X583680Y-328550*
X583173Y-328800*
X581907*
X589667D02*
G01X587133D01*
Y-323800*
X589667*
X588653Y-326217D02*
G01X587133D01*
X594893Y-324217D02*
G01X594513Y-323967D01*
X594070Y-323800*
X593563*
X592993Y-324050*
X592550Y-324467*
X592233Y-324967*
X591980Y-325800*
X591917Y-326550*
X592043Y-327300*
X592233Y-327800*
X592613Y-328300*
X593057Y-328633*
X593500Y-328800*
X593943*
X594387Y-328633*
X594767Y-328383*
X595083Y-328050*
X597840Y-323800D02*
G01X599360D01*
X598600D02*
G01Y-328800D01*
X597840D02*
G01X599360D01*
X602053D02*
G01Y-323800D01*
X603700Y-327967*
X605347Y-323800*
Y-328800*
X607217D02*
G01X608800Y-323800D01*
X610383Y-328800*
X609813Y-327050D02*
G01X607787D01*
X612633Y-323800D02*
G01Y-328800D01*
X615167*
X617670Y-328134D02*
G01X618177Y-328550D01*
X618747Y-328800*
X619253*
X619760Y-328550*
X620140Y-328134*
X620330Y-327550*
X620203Y-326967*
X619887Y-326467*
X619317Y-326133*
X618557Y-325967*
X618113Y-325633*
X617923Y-325050*
X618050Y-324467*
X618367Y-324050*
X618810Y-323800*
X619253*
X619697Y-323967*
X620077Y-324383*
X628503Y-327133D02*
G01X630023D01*
X629200Y-326050D02*
G01Y-328217D01*
X556597Y-309633D02*
G01X556977Y-309133D01*
X557420Y-308883*
X557927Y-308800*
X558560Y-308967*
X559003Y-309383*
X559130Y-309883*
X559067Y-310384*
X558813Y-310800*
X557547Y-311633*
X556977Y-312217*
X556597Y-313050*
X556470Y-313800*
X559130*
X566733D02*
G01Y-308800D01*
X568253*
X568760Y-309050*
X569140Y-309633*
X569267Y-310300*
X569140Y-310967*
X568823Y-311467*
X568253Y-311717*
X566733*
X571833Y-308800D02*
G01Y-313800D01*
X574367*
X581907D02*
G01Y-308800D01*
X583173*
X583680Y-309050*
X584060Y-309383*
X584377Y-309883*
X584630Y-310467*
X584693Y-311300*
X584630Y-312133*
X584377Y-312717*
X584060Y-313217*
X583680Y-313550*
X583173Y-313800*
X581907*
X589667D02*
G01X587133D01*
Y-308800*
X589667*
X588653Y-311217D02*
G01X587133D01*
X594893Y-309217D02*
G01X594513Y-308967D01*
X594070Y-308800*
X593563*
X592993Y-309050*
X592550Y-309467*
X592233Y-309967*
X591980Y-310800*
X591917Y-311550*
X592043Y-312300*
X592233Y-312800*
X592613Y-313300*
X593057Y-313633*
X593500Y-313800*
X593943*
X594387Y-313633*
X594767Y-313383*
X595083Y-313050*
X597840Y-308800D02*
G01X599360D01*
X598600D02*
G01Y-313800D01*
X597840D02*
G01X599360D01*
X602053D02*
G01Y-308800D01*
X603700Y-312967*
X605347Y-308800*
Y-313800*
X607217D02*
G01X608800Y-308800D01*
X610383Y-313800*
X609813Y-312050D02*
G01X607787D01*
X612633Y-308800D02*
G01Y-313800D01*
X615167*
X617670Y-313134D02*
G01X618177Y-313550D01*
X618747Y-313800*
X619253*
X619760Y-313550*
X620140Y-313134*
X620330Y-312550*
X620203Y-311967*
X619887Y-311467*
X619317Y-311133*
X618557Y-310967*
X618113Y-310633*
X617923Y-310050*
X618050Y-309467*
X618367Y-309050*
X618810Y-308800*
X619253*
X619697Y-308967*
X620077Y-309383*
X628503Y-312133D02*
G01X630023D01*
X629200Y-311050D02*
G01Y-313217D01*
X557800Y-293800D02*
G01Y-298800D01*
X556343Y-293800D02*
G01X559257D01*
X562900Y-298800D02*
G01X562393Y-298717D01*
X561950Y-298383*
X561570Y-297883*
X561317Y-297300*
X561190Y-296633*
Y-295967*
X561317Y-295300*
X561570Y-294717*
X561950Y-294217*
X562393Y-293883*
X562900Y-293800*
X563407Y-293883*
X563850Y-294217*
X564230Y-294717*
X564483Y-295300*
X564610Y-295967*
Y-296633*
X564483Y-297300*
X564230Y-297883*
X563850Y-298383*
X563407Y-298717*
X562900Y-298800*
X566733Y-293800D02*
G01Y-298800D01*
X569267*
X574367D02*
G01X571833D01*
Y-293800*
X574367*
X573353Y-296217D02*
G01X571833D01*
X576933Y-298800D02*
G01Y-293800D01*
X578517*
X579023Y-294050*
X579340Y-294383*
X579467Y-295050*
X579340Y-295717*
X578960Y-296133*
X578517Y-296383*
X576933*
X578517D02*
G01X579467Y-298800D01*
X581717D02*
G01X583300Y-293800D01*
X584883Y-298800*
X584313Y-297050D02*
G01X582287D01*
X586943Y-298800D02*
G01Y-293800D01*
X589857Y-298800*
Y-293800*
X594893Y-294217D02*
G01X594513Y-293967D01*
X594070Y-293800*
X593563*
X592993Y-294050*
X592550Y-294467*
X592233Y-294967*
X591980Y-295800*
X591917Y-296550*
X592043Y-297300*
X592233Y-297800*
X592613Y-298300*
X593057Y-298633*
X593500Y-298800*
X593943*
X594387Y-298633*
X594767Y-298383*
X595083Y-298050*
X599867Y-298800D02*
G01X597333D01*
Y-293800*
X599867*
X598853Y-296217D02*
G01X597333D01*
X602370Y-298134D02*
G01X602877Y-298550D01*
X603447Y-298800*
X603953*
X604460Y-298550*
X604840Y-298134*
X605030Y-297550*
X604903Y-296967*
X604587Y-296467*
X604017Y-296133*
X603257Y-295967*
X602813Y-295633*
X602623Y-295050*
X602750Y-294467*
X603067Y-294050*
X603510Y-293800*
X603953*
X604397Y-293967*
X604777Y-294383*
X613900Y-298800D02*
G01X613393Y-298717D01*
X612950Y-298383*
X612570Y-297883*
X612317Y-297300*
X612190Y-296633*
Y-295967*
X612317Y-295300*
X612570Y-294717*
X612950Y-294217*
X613393Y-293883*
X613900Y-293800*
X614407Y-293883*
X614850Y-294217*
X615230Y-294717*
X615483Y-295300*
X615610Y-295967*
Y-296633*
X615483Y-297300*
X615230Y-297883*
X614850Y-298383*
X614407Y-298717*
X613900Y-298800*
X617543D02*
G01Y-293800D01*
X620457Y-298800*
Y-293800*
X624100Y-298967D02*
G01X623973Y-298883D01*
Y-298717*
X624100Y-298633*
X624227Y-298717*
Y-298883*
X624100Y-298967*
Y-296717D02*
G01X623973Y-296633D01*
Y-296467*
X624100Y-296383*
X624227Y-296467*
Y-296633*
X624100Y-296717*
X556407Y-281300D02*
G01Y-276300D01*
X557673*
X558180Y-276550*
X558560Y-276883*
X558877Y-277383*
X559130Y-277967*
X559193Y-278800*
X559130Y-279633*
X558877Y-280217*
X558560Y-280717*
X558180Y-281050*
X557673Y-281300*
X556407*
X562140Y-276300D02*
G01X563660D01*
X562900D02*
G01Y-281300D01*
X562140D02*
G01X563660D01*
X566353D02*
G01Y-276300D01*
X568000Y-280467*
X569647Y-276300*
Y-281300*
X574367D02*
G01X571833D01*
Y-276300*
X574367*
X573353Y-278717D02*
G01X571833D01*
X576743Y-281300D02*
G01Y-276300D01*
X579657Y-281300*
Y-276300*
X581970Y-280634D02*
G01X582477Y-281050D01*
X583047Y-281300*
X583553*
X584060Y-281050*
X584440Y-280634*
X584630Y-280050*
X584503Y-279467*
X584187Y-278967*
X583617Y-278633*
X582857Y-278467*
X582413Y-278133*
X582223Y-277550*
X582350Y-276967*
X582667Y-276550*
X583110Y-276300*
X583553*
X583997Y-276467*
X584377Y-276883*
X587640Y-276300D02*
G01X589160D01*
X588400D02*
G01Y-281300D01*
X587640D02*
G01X589160D01*
X593500D02*
G01X592993Y-281217D01*
X592550Y-280883*
X592170Y-280383*
X591917Y-279800*
X591790Y-279133*
Y-278467*
X591917Y-277800*
X592170Y-277217*
X592550Y-276717*
X592993Y-276383*
X593500Y-276300*
X594007Y-276383*
X594450Y-276717*
X594830Y-277217*
X595083Y-277800*
X595210Y-278467*
Y-279133*
X595083Y-279800*
X594830Y-280383*
X594450Y-280883*
X594007Y-281217*
X593500Y-281300*
X597143D02*
G01Y-276300D01*
X600057Y-281300*
Y-276300*
X602370Y-280634D02*
G01X602877Y-281050D01*
X603447Y-281300*
X603953*
X604460Y-281050*
X604840Y-280634*
X605030Y-280050*
X604903Y-279467*
X604587Y-278967*
X604017Y-278633*
X603257Y-278467*
X602813Y-278133*
X602623Y-277550*
X602750Y-276967*
X603067Y-276550*
X603510Y-276300*
X603953*
X604397Y-276467*
X604777Y-276883*
X612317Y-281300D02*
G01X613900Y-276300D01*
X615483Y-281300*
X614913Y-279550D02*
G01X612887D01*
X617733Y-281300D02*
G01Y-276300D01*
X619317*
X619823Y-276550*
X620140Y-276883*
X620267Y-277550*
X620140Y-278217*
X619760Y-278633*
X619317Y-278883*
X617733*
X619317D02*
G01X620267Y-281300D01*
X625367D02*
G01X622833D01*
Y-276300*
X625367*
X624353Y-278717D02*
G01X622833D01*
X633540Y-276300D02*
G01X635060D01*
X634300D02*
G01Y-281300D01*
X633540D02*
G01X635060D01*
X637943D02*
G01Y-276300D01*
X640857Y-281300*
Y-276300*
X648840D02*
G01X650360D01*
X649600D02*
G01Y-281300D01*
X648840D02*
G01X650360D01*
X653243D02*
G01Y-276300D01*
X656157Y-281300*
Y-276300*
X661193Y-276717D02*
G01X660813Y-276467D01*
X660370Y-276300*
X659863*
X659293Y-276550*
X658850Y-276967*
X658533Y-277467*
X658280Y-278300*
X658217Y-279050*
X658343Y-279800*
X658533Y-280300*
X658913Y-280800*
X659357Y-281133*
X659800Y-281300*
X660243*
X660687Y-281133*
X661067Y-280883*
X661383Y-280550*
X663570Y-281300D02*
G01Y-276300D01*
X666230D02*
G01Y-281300D01*
Y-278800D02*
G01X663570D01*
X671267Y-281300D02*
G01X668733D01*
Y-276300*
X671267*
X670253Y-278717D02*
G01X668733D01*
X673770Y-280634D02*
G01X674277Y-281050D01*
X674847Y-281300*
X675353*
X675860Y-281050*
X676240Y-280634*
X676430Y-280050*
X676303Y-279467*
X675987Y-278967*
X675417Y-278633*
X674657Y-278467*
X674213Y-278133*
X674023Y-277550*
X674150Y-276967*
X674467Y-276550*
X674910Y-276300*
X675353*
X675797Y-276467*
X676177Y-276883*
X556407Y-248800D02*
G01Y-252383D01*
X556660Y-253134*
X557167Y-253633*
X557800Y-253800*
X558433Y-253633*
X558940Y-253134*
X559193Y-252383*
Y-248800*
X561443Y-253800D02*
G01Y-248800D01*
X564357Y-253800*
Y-248800*
X566733D02*
G01Y-253800D01*
X569267*
X574367D02*
G01X571833D01*
Y-248800*
X574367*
X573353Y-251217D02*
G01X571833D01*
X576870Y-253134D02*
G01X577377Y-253550D01*
X577947Y-253800*
X578453*
X578960Y-253550*
X579340Y-253134*
X579530Y-252550*
X579403Y-251967*
X579087Y-251467*
X578517Y-251133*
X577757Y-250967*
X577313Y-250633*
X577123Y-250050*
X577250Y-249467*
X577567Y-249050*
X578010Y-248800*
X578453*
X578897Y-248967*
X579277Y-249383*
X581970Y-253134D02*
G01X582477Y-253550D01*
X583047Y-253800*
X583553*
X584060Y-253550*
X584440Y-253134*
X584630Y-252550*
X584503Y-251967*
X584187Y-251467*
X583617Y-251133*
X582857Y-250967*
X582413Y-250633*
X582223Y-250050*
X582350Y-249467*
X582667Y-249050*
X583110Y-248800*
X583553*
X583997Y-248967*
X584377Y-249383*
X593500Y-253800D02*
G01X592993Y-253717D01*
X592550Y-253383*
X592170Y-252883*
X591917Y-252300*
X591790Y-251633*
Y-250967*
X591917Y-250300*
X592170Y-249717*
X592550Y-249217*
X592993Y-248883*
X593500Y-248800*
X594007Y-248883*
X594450Y-249217*
X594830Y-249717*
X595083Y-250300*
X595210Y-250967*
Y-251633*
X595083Y-252300*
X594830Y-252883*
X594450Y-253383*
X594007Y-253717*
X593500Y-253800*
X598600Y-248800D02*
G01Y-253800D01*
X597143Y-248800D02*
G01X600057D01*
X602370Y-253800D02*
G01Y-248800D01*
X605030D02*
G01Y-253800D01*
Y-251300D02*
G01X602370D01*
X610067Y-253800D02*
G01X607533D01*
Y-248800*
X610067*
X609053Y-251217D02*
G01X607533D01*
X612633Y-253800D02*
G01Y-248800D01*
X614217*
X614723Y-249050*
X615040Y-249383*
X615167Y-250050*
X615040Y-250717*
X614660Y-251133*
X614217Y-251383*
X612633*
X614217D02*
G01X615167Y-253800D01*
X617100Y-248800D02*
G01X617987Y-253800D01*
X619000Y-248800*
X620013Y-253800*
X620900Y-248800*
X623340D02*
G01X624860D01*
X624100D02*
G01Y-253800D01*
X623340D02*
G01X624860D01*
X627870Y-253134D02*
G01X628377Y-253550D01*
X628947Y-253800*
X629453*
X629960Y-253550*
X630340Y-253134*
X630530Y-252550*
X630403Y-251967*
X630087Y-251467*
X629517Y-251133*
X628757Y-250967*
X628313Y-250633*
X628123Y-250050*
X628250Y-249467*
X628567Y-249050*
X629010Y-248800*
X629453*
X629897Y-248967*
X630277Y-249383*
X635567Y-253800D02*
G01X633033D01*
Y-248800*
X635567*
X634553Y-251217D02*
G01X633033D01*
X643170Y-253134D02*
G01X643677Y-253550D01*
X644247Y-253800*
X644753*
X645260Y-253550*
X645640Y-253134*
X645830Y-252550*
X645703Y-251967*
X645387Y-251467*
X644817Y-251133*
X644057Y-250967*
X643613Y-250633*
X643423Y-250050*
X643550Y-249467*
X643867Y-249050*
X644310Y-248800*
X644753*
X645197Y-248967*
X645577Y-249383*
X648333Y-253800D02*
G01Y-248800D01*
X649853*
X650360Y-249050*
X650740Y-249633*
X650867Y-250300*
X650740Y-250967*
X650423Y-251467*
X649853Y-251717*
X648333*
X655967Y-253800D02*
G01X653433D01*
Y-248800*
X655967*
X654953Y-251217D02*
G01X653433D01*
X661193Y-249217D02*
G01X660813Y-248967D01*
X660370Y-248800*
X659863*
X659293Y-249050*
X658850Y-249467*
X658533Y-249967*
X658280Y-250800*
X658217Y-251550*
X658343Y-252300*
X658533Y-252800*
X658913Y-253300*
X659357Y-253633*
X659800Y-253800*
X660243*
X660687Y-253633*
X661067Y-253383*
X661383Y-253050*
X664140Y-248800D02*
G01X665660D01*
X664900D02*
G01Y-253800D01*
X664140D02*
G01X665660D01*
X668797D02*
G01Y-248800D01*
X671203*
X670317Y-251217D02*
G01X668797D01*
X674340Y-248800D02*
G01X675860D01*
X675100D02*
G01Y-253800D01*
X674340D02*
G01X675860D01*
X681467D02*
G01X678933D01*
Y-248800*
X681467*
X680453Y-251217D02*
G01X678933D01*
X683907Y-253800D02*
G01Y-248800D01*
X685173*
X685680Y-249050*
X686060Y-249383*
X686377Y-249883*
X686630Y-250467*
X686693Y-251300*
X686630Y-252133*
X686377Y-252717*
X686060Y-253217*
X685680Y-253550*
X685173Y-253800*
X683907*
X635197Y304167D02*
G01Y321667D01*
X639563*
X641310Y320791*
X642620Y319625*
X643712Y317875*
X644585Y315833*
X644803Y312916*
X644585Y310000*
X643712Y307958*
X642620Y306208*
X641310Y305042*
X639563Y304167*
X635197*
X661867D02*
G01X653133D01*
Y321667*
X661867*
X658373Y313209D02*
G01X653133D01*
X675000Y321667D02*
G01Y304167D01*
X669978Y321667D02*
G01X680022D01*
X687041Y304167D02*
G01X692500Y321667D01*
X697959Y304167*
X695993Y310292D02*
G01X689006D01*
X707380Y321667D02*
G01X712620D01*
X710000D02*
G01Y304167D01*
X707380D02*
G01X712620D01*
X723133Y321667D02*
G01Y304167D01*
X731867*
X745000Y303584D02*
G01X744563Y303875D01*
Y304458*
X745000Y304750*
X745437Y304458*
Y303875*
X745000Y303584*
Y311458D02*
G01X744563Y311750D01*
Y312333*
X745000Y312625*
X745437Y312333*
Y311750*
X745000Y311458*
X774541Y304167D02*
G01X780000Y321667D01*
X785459Y304167*
X783493Y310292D02*
G01X776506D01*
X716950Y153734D02*
G01X723850D01*
X726150D02*
G01X733050D01*
X735350D02*
G01X742250D01*
X744550D02*
G01X751450D01*
X753750D02*
G01X760650D01*
X762950D02*
G01X769850D01*
X772150D02*
G01X779050D01*
X781350D02*
G01X788250D01*
X790550D02*
G01X797450D01*
X799750D02*
G01X806650D01*
X808950D02*
G01X815850D01*
X818150D02*
G01X825050D01*
X827350D02*
G01X834250D01*
X836550D02*
G01X843450D01*
X845750D02*
G01X852650D01*
X854950D02*
G01X861850D01*
X864150D02*
G01X871050D01*
X873350D02*
G01X880250D01*
X882550D02*
G01X889450D01*
X891750D02*
G01X898650D01*
X900950D02*
G01X907850D01*
X910150D02*
G01X917050D01*
X919350D02*
G01X926250D01*
X928550D02*
G01X935450D01*
X937750D02*
G01X944650D01*
X946950D02*
G01X953850D01*
X956150D02*
G01X963050D01*
X734200Y136267D02*
G01Y126867D01*
X731555Y136267D02*
G01X736845D01*
X743400Y126867D02*
G01X742480Y127023D01*
X741675Y127650*
X740985Y128590*
X740525Y129687*
X740295Y130940*
Y132193*
X740525Y133447*
X740985Y134543*
X741675Y135483*
X742480Y136110*
X743400Y136267*
X744320Y136110*
X745125Y135483*
X745815Y134543*
X746275Y133447*
X746505Y132193*
Y130940*
X746275Y129687*
X745815Y128590*
X745125Y127650*
X744320Y127023*
X743400Y126867*
X752600Y136267D02*
G01Y126867D01*
X749955Y136267D02*
G01X755245D01*
X758925Y126867D02*
G01X761800Y136267D01*
X764675Y126867*
X763640Y130157D02*
G01X759960D01*
X768700Y136267D02*
G01Y126867D01*
X773300*
X789400Y136267D02*
G01Y126867D01*
X786755Y136267D02*
G01X792045D01*
X796185Y126867D02*
G01Y136267D01*
X801015D02*
G01Y126867D01*
Y131567D02*
G01X796185D01*
X806420Y136267D02*
G01X809180D01*
X807800D02*
G01Y126867D01*
X806420D02*
G01X809180D01*
X819530Y135483D02*
G01X818840Y135953D01*
X818035Y136267*
X817115*
X816080Y135796*
X815275Y135013*
X814700Y134073*
X814240Y132507*
X814125Y131097*
X814355Y129687*
X814700Y128747*
X815390Y127806*
X816195Y127180*
X817000Y126867*
X817805*
X818610Y127180*
X819300Y127650*
X819875Y128276*
X823670Y126867D02*
G01Y136267D01*
X828040D02*
G01X823670Y130470D01*
X828730Y126867D02*
G01X825625Y133133D01*
X832755Y126867D02*
G01Y136267D01*
X838045Y126867*
Y136267*
X846900Y126867D02*
G01X842300D01*
Y136267*
X846900*
X845060Y131724D02*
G01X842300D01*
X851385Y128120D02*
G01X852305Y127337D01*
X853340Y126867*
X854260*
X855180Y127337*
X855870Y128120*
X856215Y129217*
X855985Y130313*
X855410Y131253*
X854375Y131880*
X852995Y132193*
X852190Y132820*
X851845Y133917*
X852075Y135013*
X852650Y135796*
X853455Y136267*
X854260*
X855065Y135953*
X855755Y135170*
X860585Y128120D02*
G01X861505Y127337D01*
X862540Y126867*
X863460*
X864380Y127337*
X865070Y128120*
X865415Y129217*
X865185Y130313*
X864610Y131253*
X863575Y131880*
X862195Y132193*
X861390Y132820*
X861045Y133917*
X861275Y135013*
X861850Y135796*
X862655Y136267*
X863460*
X864265Y135953*
X864955Y135170*
X878870Y128747D02*
G01X879560Y127650D01*
X880480Y127023*
X881515Y126867*
X882435Y127023*
X883355Y127806*
X883930Y128747*
X884045Y129687*
X883815Y130783*
X883010Y131567*
X882205Y131880*
X881170*
X882205D02*
G01X882895Y132350D01*
X883470Y133133*
X883700Y134073*
X883470Y135013*
X882895Y135796*
X881860Y136267*
X880825Y136110*
X879790Y135483*
X888415Y134700D02*
G01X889105Y135640D01*
X889910Y136110*
X890830Y136267*
X891980Y135953*
X892785Y135170*
X893015Y134230*
X892900Y133290*
X892440Y132507*
X890140Y130940*
X889105Y129843*
X888415Y128276*
X888185Y126867*
X893015*
X899800Y126553D02*
G01X899570Y126710D01*
Y127023*
X899800Y127180*
X900030Y127023*
Y126710*
X899800Y126553*
X909000Y126867D02*
G01X909805Y127023D01*
X910725Y127493*
X911300Y128276*
X911530Y129373*
X911300Y130470*
X910610Y131410*
X909575Y131880*
X908425*
X907735Y132193*
X907160Y132976*
X906930Y134073*
X907275Y135170*
X908080Y135953*
X909000Y136267*
X909920Y135953*
X910725Y135170*
X911070Y134073*
X910840Y132976*
X910265Y132193*
X909575Y131880*
X908425*
X907390Y131410*
X906700Y130470*
X906470Y129373*
X906700Y128276*
X907275Y127493*
X908195Y127023*
X909000Y126867*
X924410D02*
G01Y136267D01*
X927400Y128433*
X930390Y136267*
Y126867*
X935220Y136267D02*
G01X937980D01*
X936600D02*
G01Y126867D01*
X935220D02*
G01X937980D01*
X943500Y136267D02*
G01Y126867D01*
X948100*
X722470Y175300D02*
G01Y184700D01*
X724770*
X725690Y184230*
X726380Y183603*
X726955Y182664*
X727415Y181566*
X727530Y180000*
X727415Y178433*
X726955Y177336*
X726380Y176396*
X725690Y175770*
X724770Y175300*
X722470*
X736500D02*
G01X731900D01*
Y184700*
X736500*
X734660Y180157D02*
G01X731900D01*
X740985Y176553D02*
G01X741905Y175770D01*
X742940Y175300*
X743860*
X744780Y175770*
X745470Y176553*
X745815Y177650*
X745585Y178746*
X745010Y179687*
X743975Y180313*
X742595Y180627*
X741790Y181253*
X741445Y182350*
X741675Y183447*
X742250Y184230*
X743055Y184700*
X743860*
X744665Y184387*
X745355Y183603*
X751220Y184700D02*
G01X753980D01*
X752600D02*
G01Y175300D01*
X751220D02*
G01X753980D01*
X762490Y180000D02*
G01X764790D01*
Y177180*
X764100Y176240*
X763295Y175613*
X762145Y175300*
X760995Y175613*
X760190Y176240*
X759500Y177180*
X759040Y178277*
X758810Y179530*
Y180627*
X759040Y181566*
X759500Y182664*
X760190Y183603*
X760880Y184230*
X761800Y184700*
X762605*
X763525Y184387*
X764215Y183760*
X768355Y175300D02*
G01Y184700D01*
X773645Y175300*
Y184700*
X791930Y183916D02*
G01X791240Y184387D01*
X790435Y184700*
X789515*
X788480Y184230*
X787675Y183447*
X787100Y182507*
X786640Y180940*
X786525Y179530*
X786755Y178120*
X787100Y177180*
X787790Y176240*
X788595Y175613*
X789400Y175300*
X790205*
X791010Y175613*
X791700Y176083*
X792275Y176710*
X796300Y175300D02*
G01Y184700D01*
X799175*
X800095Y184230*
X800670Y183603*
X800900Y182350*
X800670Y181097*
X799980Y180313*
X799175Y179843*
X796300*
X799175D02*
G01X800900Y175300D01*
X807800D02*
G01X806880Y175457D01*
X806075Y176083*
X805385Y177023*
X804925Y178120*
X804695Y179373*
Y180627*
X804925Y181880*
X805385Y182977*
X806075Y183916*
X806880Y184543*
X807800Y184700*
X808720Y184543*
X809525Y183916*
X810215Y182977*
X810675Y181880*
X810905Y180627*
Y179373*
X810675Y178120*
X810215Y177023*
X809525Y176083*
X808720Y175457*
X807800Y175300*
X814585Y176553D02*
G01X815505Y175770D01*
X816540Y175300*
X817460*
X818380Y175770*
X819070Y176553*
X819415Y177650*
X819185Y178746*
X818610Y179687*
X817575Y180313*
X816195Y180627*
X815390Y181253*
X815045Y182350*
X815275Y183447*
X815850Y184230*
X816655Y184700*
X817460*
X818265Y184387*
X818955Y183603*
X823785Y176553D02*
G01X824705Y175770D01*
X825740Y175300*
X826660*
X827580Y175770*
X828270Y176553*
X828615Y177650*
X828385Y178746*
X827810Y179687*
X826775Y180313*
X825395Y180627*
X824590Y181253*
X824245Y182350*
X824475Y183447*
X825050Y184230*
X825855Y184700*
X826660*
X827465Y184387*
X828155Y183603*
X842185Y176553D02*
G01X843105Y175770D01*
X844140Y175300*
X845060*
X845980Y175770*
X846670Y176553*
X847015Y177650*
X846785Y178746*
X846210Y179687*
X845175Y180313*
X843795Y180627*
X842990Y181253*
X842645Y182350*
X842875Y183447*
X843450Y184230*
X844255Y184700*
X845060*
X845865Y184387*
X846555Y183603*
X856100Y175300D02*
G01X851500D01*
Y184700*
X856100*
X854260Y180157D02*
G01X851500D01*
X865530Y183916D02*
G01X864840Y184387D01*
X864035Y184700*
X863115*
X862080Y184230*
X861275Y183447*
X860700Y182507*
X860240Y180940*
X860125Y179530*
X860355Y178120*
X860700Y177180*
X861390Y176240*
X862195Y175613*
X863000Y175300*
X863805*
X864610Y175613*
X865300Y176083*
X865875Y176710*
X872200Y184700D02*
G01Y175300D01*
X869555Y184700D02*
G01X874845D01*
X880020D02*
G01X882780D01*
X881400D02*
G01Y175300D01*
X880020D02*
G01X882780D01*
X890600D02*
G01X889680Y175457D01*
X888875Y176083*
X888185Y177023*
X887725Y178120*
X887495Y179373*
Y180627*
X887725Y181880*
X888185Y182977*
X888875Y183916*
X889680Y184543*
X890600Y184700*
X891520Y184543*
X892325Y183916*
X893015Y182977*
X893475Y181880*
X893705Y180627*
Y179373*
X893475Y178120*
X893015Y177023*
X892325Y176083*
X891520Y175457*
X890600Y175300*
X897155D02*
G01Y184700D01*
X902445Y175300*
Y184700*
X920730Y183916D02*
G01X920040Y184387D01*
X919235Y184700*
X918315*
X917280Y184230*
X916475Y183447*
X915900Y182507*
X915440Y180940*
X915325Y179530*
X915555Y178120*
X915900Y177180*
X916590Y176240*
X917395Y175613*
X918200Y175300*
X919005*
X919810Y175613*
X920500Y176083*
X921075Y176710*
X924985Y175300D02*
G01Y184700D01*
X929815D02*
G01Y175300D01*
Y180000D02*
G01X924985D01*
X933725Y175300D02*
G01X936600Y184700D01*
X939475Y175300*
X938440Y178590D02*
G01X934760D01*
X943500Y175300D02*
G01Y184700D01*
X946375*
X947295Y184230*
X947870Y183603*
X948100Y182350*
X947870Y181097*
X947180Y180313*
X946375Y179843*
X943500*
X946375D02*
G01X948100Y175300D01*
X955000Y184700D02*
G01Y175300D01*
X952355Y184700D02*
G01X957645D01*
X755343Y-282667D02*
G01Y-277667D01*
X758257Y-282667*
Y-277667*
X761900Y-282833D02*
G01X761773Y-282750D01*
Y-282583*
X761900Y-282500*
X762027Y-282583*
Y-282750*
X761900Y-282833*
X765543Y-282667D02*
G01Y-277667D01*
X768457Y-282667*
Y-277667*
X772100Y-282833D02*
G01X771973Y-282750D01*
Y-282583*
X772100Y-282500*
X772227Y-282583*
Y-282750*
X772100Y-282833*
X777200Y-277667D02*
G01Y-282667D01*
X775743Y-277667D02*
G01X778657D01*
X894670Y316553D02*
G01X899730Y323447D01*
X897200Y324700D02*
G01Y315300D01*
X899730Y316553D02*
G01X894670Y323447D01*
X893750Y320000D02*
G01X900650D01*
X922270Y316867D02*
G01Y326267D01*
X924570*
X925490Y325796*
X926180Y325170*
X926755Y324230*
X927215Y323133*
X927330Y321567*
X927215Y320000*
X926755Y318903*
X926180Y317963*
X925490Y317337*
X924570Y316867*
X922270*
X932620Y326267D02*
G01X935380D01*
X934000D02*
G01Y316867D01*
X932620D02*
G01X935380D01*
X945500D02*
G01X940900D01*
Y326267*
X945500*
X943660Y321724D02*
G01X940900D01*
X950100Y326267D02*
G01Y316867D01*
X954700*
X963900D02*
G01X959300D01*
Y326267*
X963900*
X962060Y321724D02*
G01X959300D01*
X973330Y325483D02*
G01X972640Y325953D01*
X971835Y326267*
X970915*
X969880Y325796*
X969075Y325013*
X968500Y324073*
X968040Y322507*
X967925Y321097*
X968155Y319687*
X968500Y318747*
X969190Y317806*
X969995Y317180*
X970800Y316867*
X971605*
X972410Y317180*
X973100Y317650*
X973675Y318276*
X980000Y326267D02*
G01Y316867D01*
X977355Y326267D02*
G01X982645D01*
X986900Y316867D02*
G01Y326267D01*
X989775*
X990695Y325796*
X991270Y325170*
X991500Y323917*
X991270Y322663*
X990580Y321880*
X989775Y321410*
X986900*
X989775D02*
G01X991500Y316867D01*
X997020Y326267D02*
G01X999780D01*
X998400D02*
G01Y316867D01*
X997020D02*
G01X999780D01*
X1010130Y325483D02*
G01X1009440Y325953D01*
X1008635Y326267*
X1007715*
X1006680Y325796*
X1005875Y325013*
X1005300Y324073*
X1004840Y322507*
X1004725Y321097*
X1004955Y319687*
X1005300Y318747*
X1005990Y317806*
X1006795Y317180*
X1007600Y316867*
X1008405*
X1009210Y317180*
X1009900Y317650*
X1010475Y318276*
X1024505Y320000D02*
G01X1027495D01*
X1041870Y318747D02*
G01X1042560Y317650D01*
X1043480Y317023*
X1044515Y316867*
X1045435Y317023*
X1046355Y317806*
X1046930Y318747*
X1047045Y319687*
X1046815Y320783*
X1046010Y321567*
X1045205Y321880*
X1044170*
X1045205D02*
G01X1045895Y322350D01*
X1046470Y323133*
X1046700Y324073*
X1046470Y325013*
X1045895Y325796*
X1044860Y326267*
X1043825Y326110*
X1042790Y325483*
X1053600Y326267D02*
G01X1052680Y325953D01*
X1051990Y325170*
X1051530Y324230*
X1051185Y322976*
X1051070Y321567*
X1051185Y320157*
X1051530Y318903*
X1051990Y317963*
X1052680Y317180*
X1053600Y316867*
X1054520Y317180*
X1055210Y317963*
X1055670Y318903*
X1056015Y320157*
X1056130Y321567*
X1056015Y322976*
X1055670Y324230*
X1055210Y325170*
X1054520Y325953*
X1053600Y326267*
X1069010Y316867D02*
G01Y326267D01*
X1072000Y318433*
X1074990Y326267*
Y316867*
X1079820Y326267D02*
G01X1082580D01*
X1081200D02*
G01Y316867D01*
X1079820D02*
G01X1082580D01*
X1088100Y326267D02*
G01Y316867D01*
X1092700*
X845450Y406750D02*
G01Y416150D01*
X844070Y414270*
Y406750D02*
G01X846830D01*
X853155Y409883D02*
G01X856145D01*
X861665Y414583D02*
G01X862355Y415523D01*
X863160Y415993*
X864080Y416150*
X865230Y415837*
X866035Y415053*
X866265Y414114*
X866150Y413173*
X865690Y412390*
X863390Y410823*
X862355Y409727*
X861665Y408160*
X861435Y406750*
X866265*
X888350Y217670D02*
G01Y208270D01*
X892950*
X897665Y216103D02*
G01X898355Y217043D01*
X899160Y217513*
X900080Y217670*
X901230Y217357*
X902035Y216573*
X902265Y215633*
X902150Y214693*
X901690Y213910*
X899390Y212343*
X898355Y211247*
X897665Y209680*
X897435Y208270*
X902265*
X919170Y213283D02*
G01X919630Y213753D01*
X919975Y214536*
X920205Y215633*
X919975Y216573*
X919515Y217200*
X918710Y217670*
X915605*
Y208270*
X919400*
X920205Y208896*
X920665Y209836*
X920895Y210933*
X920665Y212030*
X919975Y212970*
X919170Y213283*
X915605*
X927450Y208270D02*
G01X926530Y208426D01*
X925725Y209053*
X925035Y209993*
X924575Y211090*
X924345Y212343*
Y213597*
X924575Y214850*
X925035Y215947*
X925725Y216886*
X926530Y217513*
X927450Y217670*
X928370Y217513*
X929175Y216886*
X929865Y215947*
X930325Y214850*
X930555Y213597*
Y212343*
X930325Y211090*
X929865Y209993*
X929175Y209053*
X928370Y208426*
X927450Y208270*
X936650Y217670D02*
G01Y208270D01*
X934005Y217670D02*
G01X939295D01*
X945850D02*
G01Y208270D01*
X943205Y217670D02*
G01X948495D01*
X955050Y208270D02*
G01X954130Y208426D01*
X953325Y209053*
X952635Y209993*
X952175Y211090*
X951945Y212343*
Y213597*
X952175Y214850*
X952635Y215947*
X953325Y216886*
X954130Y217513*
X955050Y217670*
X955970Y217513*
X956775Y216886*
X957465Y215947*
X957925Y214850*
X958155Y213597*
Y212343*
X957925Y211090*
X957465Y209993*
X956775Y209053*
X955970Y208426*
X955050Y208270*
X961260D02*
G01Y217670D01*
X964250Y209836*
X967240Y217670*
Y208270*
X985180Y216886D02*
G01X984490Y217357D01*
X983685Y217670*
X982765*
X981730Y217200*
X980925Y216416*
X980350Y215476*
X979890Y213910*
X979775Y212500*
X980005Y211090*
X980350Y210150*
X981040Y209210*
X981845Y208583*
X982650Y208270*
X983455*
X984260Y208583*
X984950Y209053*
X985525Y209680*
X991850Y208270D02*
G01X990930Y208426D01*
X990125Y209053*
X989435Y209993*
X988975Y211090*
X988745Y212343*
Y213597*
X988975Y214850*
X989435Y215947*
X990125Y216886*
X990930Y217513*
X991850Y217670*
X992770Y217513*
X993575Y216886*
X994265Y215947*
X994725Y214850*
X994955Y213597*
Y212343*
X994725Y211090*
X994265Y209993*
X993575Y209053*
X992770Y208426*
X991850Y208270*
X998405D02*
G01Y217670D01*
X1003695Y208270*
Y217670*
X1007720Y208270D02*
G01Y217670D01*
X1010020*
X1010940Y217200*
X1011630Y216573*
X1012205Y215633*
X1012665Y214536*
X1012780Y212970*
X1012665Y211403*
X1012205Y210306*
X1011630Y209366*
X1010940Y208740*
X1010020Y208270*
X1007720*
X1016920Y217670D02*
G01Y210933D01*
X1017380Y209523*
X1018300Y208583*
X1019450Y208270*
X1020600Y208583*
X1021520Y209523*
X1021980Y210933*
Y217670*
X1031180Y216886D02*
G01X1030490Y217357D01*
X1029685Y217670*
X1028765*
X1027730Y217200*
X1026925Y216416*
X1026350Y215476*
X1025890Y213910*
X1025775Y212500*
X1026005Y211090*
X1026350Y210150*
X1027040Y209210*
X1027845Y208583*
X1028650Y208270*
X1029455*
X1030260Y208583*
X1030950Y209053*
X1031525Y209680*
X1037850Y217670D02*
G01Y208270D01*
X1035205Y217670D02*
G01X1040495D01*
X1047050Y208270D02*
G01X1046130Y208426D01*
X1045325Y209053*
X1044635Y209993*
X1044175Y211090*
X1043945Y212343*
Y213597*
X1044175Y214850*
X1044635Y215947*
X1045325Y216886*
X1046130Y217513*
X1047050Y217670*
X1047970Y217513*
X1048775Y216886*
X1049465Y215947*
X1049925Y214850*
X1050155Y213597*
Y212343*
X1049925Y211090*
X1049465Y209993*
X1048775Y209053*
X1047970Y208426*
X1047050Y208270*
X1053950D02*
G01Y217670D01*
X1056825*
X1057745Y217200*
X1058320Y216573*
X1058550Y215320*
X1058320Y214066*
X1057630Y213283*
X1056825Y212813*
X1053950*
X1056825D02*
G01X1058550Y208270D01*
X1073155Y211403D02*
G01X1076145D01*
X1093050Y208270D02*
G01Y217670D01*
X1091670Y215790*
Y208270D02*
G01X1094430D01*
X1102250D02*
G01X1101330Y208426D01*
X1100525Y209053*
X1099835Y209993*
X1099375Y211090*
X1099145Y212343*
Y213597*
X1099375Y214850*
X1099835Y215947*
X1100525Y216886*
X1101330Y217513*
X1102250Y217670*
X1103170Y217513*
X1103975Y216886*
X1104665Y215947*
X1105125Y214850*
X1105355Y213597*
Y212343*
X1105125Y211090*
X1104665Y209993*
X1103975Y209053*
X1103170Y208426*
X1102250Y208270*
X1109265Y217670D02*
G01X1113635D01*
X1109265Y208270*
X1113635*
X1117200Y205137D02*
G01X1124100D01*
X1132380Y216886D02*
G01X1131690Y217357D01*
X1130885Y217670*
X1129965*
X1128930Y217200*
X1128125Y216416*
X1127550Y215476*
X1127090Y213910*
X1126975Y212500*
X1127205Y211090*
X1127550Y210150*
X1128240Y209210*
X1129045Y208583*
X1129850Y208270*
X1130655*
X1131460Y208583*
X1132150Y209053*
X1132725Y209680*
X1139050Y208270D02*
G01X1138130Y208426D01*
X1137325Y209053*
X1136635Y209993*
X1136175Y211090*
X1135945Y212343*
Y213597*
X1136175Y214850*
X1136635Y215947*
X1137325Y216886*
X1138130Y217513*
X1139050Y217670*
X1139970Y217513*
X1140775Y216886*
X1141465Y215947*
X1141925Y214850*
X1142155Y213597*
Y212343*
X1141925Y211090*
X1141465Y209993*
X1140775Y209053*
X1139970Y208426*
X1139050Y208270*
X1145950D02*
G01Y217670D01*
X1148710*
X1149630Y217200*
X1150320Y216103*
X1150550Y214850*
X1150320Y213597*
X1149745Y212657*
X1148710Y212186*
X1145950*
X1155150Y208270D02*
G01Y217670D01*
X1157910*
X1158830Y217200*
X1159520Y216103*
X1159750Y214850*
X1159520Y213597*
X1158945Y212657*
X1157910Y212186*
X1155150*
X1168950Y208270D02*
G01X1164350D01*
Y217670*
X1168950*
X1167110Y213127D02*
G01X1164350D01*
X1173550Y208270D02*
G01Y217670D01*
X1176425*
X1177345Y217200*
X1177920Y216573*
X1178150Y215320*
X1177920Y214066*
X1177230Y213283*
X1176425Y212813*
X1173550*
X1176425D02*
G01X1178150Y208270D01*
X1194250D02*
G01Y217670D01*
X1192870Y215790*
Y208270D02*
G01X1195630D01*
X1203450Y207957D02*
G01X1203220Y208113D01*
Y208426*
X1203450Y208583*
X1203680Y208426*
Y208113*
X1203450Y207957*
X1214030Y208270D02*
G01Y217670D01*
X1209775Y210933*
X1215525*
X1228060Y208270D02*
G01Y217670D01*
X1231050Y209836*
X1234040Y217670*
Y208270*
X1238870Y217670D02*
G01X1241630D01*
X1240250D02*
G01Y208270D01*
X1238870D02*
G01X1241630D01*
X1247150Y217670D02*
G01Y208270D01*
X1251750*
X896700Y406267D02*
G01Y396867D01*
X901300*
X908200D02*
G01Y406267D01*
X906820Y404387*
Y396867D02*
G01X909580D01*
X926600Y406267D02*
G01Y396867D01*
X923955Y406267D02*
G01X929245D01*
X935800Y396867D02*
G01X934880Y397023D01*
X934075Y397650*
X933385Y398590*
X932925Y399687*
X932695Y400940*
Y402193*
X932925Y403447*
X933385Y404543*
X934075Y405483*
X934880Y406110*
X935800Y406267*
X936720Y406110*
X937525Y405483*
X938215Y404543*
X938675Y403447*
X938905Y402193*
Y400940*
X938675Y399687*
X938215Y398590*
X937525Y397650*
X936720Y397023*
X935800Y396867*
X942700D02*
G01Y406267D01*
X945460*
X946380Y405796*
X947070Y404700*
X947300Y403447*
X947070Y402193*
X946495Y401253*
X945460Y400783*
X942700*
X965930Y405483D02*
G01X965240Y405953D01*
X964435Y406267*
X963515*
X962480Y405796*
X961675Y405013*
X961100Y404073*
X960640Y402507*
X960525Y401097*
X960755Y399687*
X961100Y398747*
X961790Y397806*
X962595Y397180*
X963400Y396867*
X964205*
X965010Y397180*
X965700Y397650*
X966275Y398276*
X972600Y396867D02*
G01X971680Y397023D01*
X970875Y397650*
X970185Y398590*
X969725Y399687*
X969495Y400940*
Y402193*
X969725Y403447*
X970185Y404543*
X970875Y405483*
X971680Y406110*
X972600Y406267*
X973520Y406110*
X974325Y405483*
X975015Y404543*
X975475Y403447*
X975705Y402193*
Y400940*
X975475Y399687*
X975015Y398590*
X974325Y397650*
X973520Y397023*
X972600Y396867*
X979155D02*
G01Y406267D01*
X984445Y396867*
Y406267*
X988470Y396867D02*
G01Y406267D01*
X990770*
X991690Y405796*
X992380Y405170*
X992955Y404230*
X993415Y403133*
X993530Y401567*
X993415Y400000*
X992955Y398903*
X992380Y397963*
X991690Y397337*
X990770Y396867*
X988470*
X997670Y406267D02*
G01Y399530D01*
X998130Y398120*
X999050Y397180*
X1000200Y396867*
X1001350Y397180*
X1002270Y398120*
X1002730Y399530*
Y406267*
X1011930Y405483D02*
G01X1011240Y405953D01*
X1010435Y406267*
X1009515*
X1008480Y405796*
X1007675Y405013*
X1007100Y404073*
X1006640Y402507*
X1006525Y401097*
X1006755Y399687*
X1007100Y398747*
X1007790Y397806*
X1008595Y397180*
X1009400Y396867*
X1010205*
X1011010Y397180*
X1011700Y397650*
X1012275Y398276*
X1018600Y406267D02*
G01Y396867D01*
X1015955Y406267D02*
G01X1021245D01*
X1027800Y396867D02*
G01X1026880Y397023D01*
X1026075Y397650*
X1025385Y398590*
X1024925Y399687*
X1024695Y400940*
Y402193*
X1024925Y403447*
X1025385Y404543*
X1026075Y405483*
X1026880Y406110*
X1027800Y406267*
X1028720Y406110*
X1029525Y405483*
X1030215Y404543*
X1030675Y403447*
X1030905Y402193*
Y400940*
X1030675Y399687*
X1030215Y398590*
X1029525Y397650*
X1028720Y397023*
X1027800Y396867*
X1034700D02*
G01Y406267D01*
X1037575*
X1038495Y405796*
X1039070Y405170*
X1039300Y403917*
X1039070Y402663*
X1038380Y401880*
X1037575Y401410*
X1034700*
X1037575D02*
G01X1039300Y396867D01*
X1053905Y400000D02*
G01X1056895D01*
X1073800Y396867D02*
G01Y406267D01*
X1072420Y404387*
Y396867D02*
G01X1075180D01*
X1083000D02*
G01X1082080Y397023D01*
X1081275Y397650*
X1080585Y398590*
X1080125Y399687*
X1079895Y400940*
Y402193*
X1080125Y403447*
X1080585Y404543*
X1081275Y405483*
X1082080Y406110*
X1083000Y406267*
X1083920Y406110*
X1084725Y405483*
X1085415Y404543*
X1085875Y403447*
X1086105Y402193*
Y400940*
X1085875Y399687*
X1085415Y398590*
X1084725Y397650*
X1083920Y397023*
X1083000Y396867*
X1090015Y406267D02*
G01X1094385D01*
X1090015Y396867*
X1094385*
X1097950Y393734D02*
G01X1104850D01*
X1113130Y405483D02*
G01X1112440Y405953D01*
X1111635Y406267*
X1110715*
X1109680Y405796*
X1108875Y405013*
X1108300Y404073*
X1107840Y402507*
X1107725Y401097*
X1107955Y399687*
X1108300Y398747*
X1108990Y397806*
X1109795Y397180*
X1110600Y396867*
X1111405*
X1112210Y397180*
X1112900Y397650*
X1113475Y398276*
X1119800Y396867D02*
G01X1118880Y397023D01*
X1118075Y397650*
X1117385Y398590*
X1116925Y399687*
X1116695Y400940*
Y402193*
X1116925Y403447*
X1117385Y404543*
X1118075Y405483*
X1118880Y406110*
X1119800Y406267*
X1120720Y406110*
X1121525Y405483*
X1122215Y404543*
X1122675Y403447*
X1122905Y402193*
Y400940*
X1122675Y399687*
X1122215Y398590*
X1121525Y397650*
X1120720Y397023*
X1119800Y396867*
X1126700D02*
G01Y406267D01*
X1129460*
X1130380Y405796*
X1131070Y404700*
X1131300Y403447*
X1131070Y402193*
X1130495Y401253*
X1129460Y400783*
X1126700*
X1135900Y396867D02*
G01Y406267D01*
X1138660*
X1139580Y405796*
X1140270Y404700*
X1140500Y403447*
X1140270Y402193*
X1139695Y401253*
X1138660Y400783*
X1135900*
X1149700Y396867D02*
G01X1145100D01*
Y406267*
X1149700*
X1147860Y401724D02*
G01X1145100D01*
X1154300Y396867D02*
G01Y406267D01*
X1157175*
X1158095Y405796*
X1158670Y405170*
X1158900Y403917*
X1158670Y402663*
X1157980Y401880*
X1157175Y401410*
X1154300*
X1157175D02*
G01X1158900Y396867D01*
X1175000D02*
G01Y406267D01*
X1173620Y404387*
Y396867D02*
G01X1176380D01*
X1184200Y396553D02*
G01X1183970Y396710D01*
Y397023*
X1184200Y397180*
X1184430Y397023*
Y396710*
X1184200Y396553*
X1194780Y396867D02*
G01Y406267D01*
X1190525Y399530*
X1196275*
X1208810Y396867D02*
G01Y406267D01*
X1211800Y398433*
X1214790Y406267*
Y396867*
X1219620Y406267D02*
G01X1222380D01*
X1221000D02*
G01Y396867D01*
X1219620D02*
G01X1222380D01*
X1227900Y406267D02*
G01Y396867D01*
X1232500*
X-321600Y-446300D02*
G01X1378400D01*
Y653700*
X-321600*
Y653700D02*
G01Y-446300D01*
X-271600Y623700D02*
G01Y-416300D01*
X1328400Y503700D02*
G01Y-416300D01*
X-271600*
X-261600Y623700D02*
G01X1328400D01*
X-271600D02*
G01X-261600D01*
X-10000Y0D02*
G01X-40000D01*
X-48600Y52750D02*
G01Y65250D01*
X-50460Y62750*
Y52750D02*
G01X-46740D01*
X-36200Y52333D02*
G01X-36510Y52542D01*
Y52958*
X-36200Y53167*
X-35890Y52958*
Y52542*
X-36200Y52333*
X-23800Y52750D02*
G01Y65250D01*
X-25660Y62750*
Y52750D02*
G01X-21940D01*
X-11400D02*
G01X-10315Y52958D01*
X-9075Y53583*
X-8300Y54625*
X-7990Y56083*
X-8300Y57541*
X-9230Y58792*
X-10625Y59417*
X-12175*
X-13105Y59833*
X-13880Y60875*
X-14190Y62333*
X-13725Y63792*
X-12640Y64833*
X-11400Y65250*
X-10160Y64833*
X-9075Y63792*
X-8610Y62333*
X-8920Y60875*
X-9695Y59833*
X-10625Y59417*
X-12175*
X-13570Y58792*
X-14500Y57541*
X-14810Y56083*
X-14500Y54625*
X-13725Y53583*
X-12485Y52958*
X-11400Y52750*
X-10000Y118110D02*
G01X-40000D01*
X-30000Y43375D02*
G01Y0D01*
X-32500Y15000D02*
G01X-30000Y0D01*
X-27500Y15000*
X-32500*
X-30000Y74625D02*
G01Y118110D01*
X-27500Y103110D02*
G01X-30000Y118110D01*
X-32500Y103110*
X-27500*
X0Y0D02*
G01X216535D01*
Y118110*
X0*
Y0*
Y128110D02*
G01Y141000D01*
X15000Y133500D02*
G01X0Y131000D01*
X15000Y128500*
Y133500*
X74375Y131000D02*
G01X0D01*
X85455Y135167D02*
G01X86385Y136416D01*
X87470Y137042*
X88710Y137250*
X90260Y136833*
X91345Y135792*
X91655Y134542*
X91500Y133291*
X90880Y132250*
X87780Y130167*
X86385Y128708*
X85455Y126625*
X85145Y124750*
X91655*
X100800Y124333D02*
G01X100490Y124542D01*
Y124958*
X100800Y125167*
X101110Y124958*
Y124542*
X100800Y124333*
X113200Y124750D02*
G01Y137250D01*
X111340Y134750*
Y124750D02*
G01X115060D01*
X125290D02*
G01X125600Y127458D01*
X126065Y129750*
X126685Y131833*
X127460Y134125*
X128700Y137250*
X122500*
X139625Y131000D02*
G01X216535D01*
Y128110D02*
G01Y141000D01*
X201535Y128500D02*
G01X216535Y131000D01*
X201535Y133500*
Y128500*
X500000Y-137000D02*
G01Y38000D01*
X1197500*
Y-137000*
X500000*
Y-112000D02*
G01X1197500D01*
X500000Y-87000D02*
G01X1197500D01*
X500000Y-62000D02*
G01X1197500D01*
X511005Y-30750D02*
G01Y-18250D01*
X516895*
X514725Y-24292D02*
G01X511005D01*
X524490Y-18250D02*
G01X528210D01*
X526350D02*
G01Y-30750D01*
X524490D02*
G01X528210D01*
X539680Y-24500D02*
G01X542780D01*
Y-28250*
X541850Y-29500*
X540765Y-30333*
X539215Y-30750*
X537665Y-30333*
X536580Y-29500*
X535650Y-28250*
X535030Y-26792*
X534720Y-25125*
Y-23667*
X535030Y-22417*
X535650Y-20958*
X536580Y-19708*
X537510Y-18875*
X538750Y-18250*
X539835*
X541075Y-18667*
X542005Y-19500*
X547740Y-18250D02*
G01Y-27208D01*
X548360Y-29084*
X549600Y-30333*
X551150Y-30750*
X552700Y-30333*
X553940Y-29084*
X554560Y-27208*
Y-18250*
X560450Y-30750D02*
G01Y-18250D01*
X564325*
X565565Y-18875*
X566340Y-19708*
X566650Y-21375*
X566340Y-23042*
X565410Y-24083*
X564325Y-24709*
X560450*
X564325D02*
G01X566650Y-30750D01*
X579050D02*
G01X572850D01*
Y-18250*
X579050*
X576570Y-24292D02*
G01X572850D01*
X500000Y-37000D02*
G01X1197500D01*
X500000Y-12000D02*
G01X1197500D01*
X500000Y13000D02*
G01X1197500D01*
X548400Y-416300D02*
G01Y-236300D01*
X1328400*
X548400Y-266300D02*
G01X908400D01*
X589900Y-12000D02*
G01Y-137000D01*
X613305Y-30750D02*
G01Y-18250D01*
X619195*
X617025Y-24292D02*
G01X613305D01*
X626790Y-18250D02*
G01X630510D01*
X628650D02*
G01Y-30750D01*
X626790D02*
G01X630510D01*
X637485D02*
G01Y-18250D01*
X644615Y-30750*
Y-18250*
X651590D02*
G01X655310D01*
X653450D02*
G01Y-30750D01*
X651590D02*
G01X655310D01*
X662595Y-29084D02*
G01X663835Y-30125D01*
X665230Y-30750*
X666470*
X667710Y-30125*
X668640Y-29084*
X669105Y-27625*
X668795Y-26167*
X668020Y-24917*
X666625Y-24083*
X664765Y-23667*
X663680Y-22834*
X663215Y-21375*
X663525Y-19917*
X664300Y-18875*
X665385Y-18250*
X666470*
X667555Y-18667*
X668485Y-19708*
X674995Y-30750D02*
G01Y-18250D01*
X681505D02*
G01Y-30750D01*
Y-24500D02*
G01X674995D01*
X693750Y-30750D02*
G01X687550D01*
Y-18250*
X693750*
X691270Y-24292D02*
G01X687550D01*
X699640Y-30750D02*
G01Y-18250D01*
X702740*
X703980Y-18875*
X704910Y-19708*
X705685Y-20958*
X706305Y-22417*
X706460Y-24500*
X706305Y-26584*
X705685Y-28042*
X704910Y-29292*
X703980Y-30125*
X702740Y-30750*
X699640*
X710800Y-34916D02*
G01X720100D01*
X724595Y-29084D02*
G01X725835Y-30125D01*
X727230Y-30750*
X728470*
X729710Y-30125*
X730640Y-29084*
X731105Y-27625*
X730795Y-26167*
X730020Y-24917*
X728625Y-24083*
X726765Y-23667*
X725680Y-22834*
X725215Y-21375*
X725525Y-19917*
X726300Y-18875*
X727385Y-18250*
X728470*
X729555Y-18667*
X730485Y-19708*
X738390Y-18250D02*
G01X742110D01*
X740250D02*
G01Y-30750D01*
X738390D02*
G01X742110D01*
X749705Y-18250D02*
G01X755595D01*
X749705Y-30750*
X755595*
X768150D02*
G01X761950D01*
Y-18250*
X768150*
X765670Y-24292D02*
G01X761950D01*
X656705Y-120333D02*
G01X657635Y-119084D01*
X658720Y-118458*
X659960Y-118250*
X661510Y-118667*
X662595Y-119708*
X662905Y-120958*
X662750Y-122209*
X662130Y-123250*
X659030Y-125333*
X657635Y-126792*
X656705Y-128875*
X656395Y-130750*
X662905*
X672050D02*
G01Y-118250D01*
X670190Y-120750*
Y-130750D02*
G01X673910D01*
X684450Y-131167D02*
G01X684140Y-130958D01*
Y-130542*
X684450Y-130333*
X684760Y-130542*
Y-130958*
X684450Y-131167*
X693905Y-125542D02*
G01X694990Y-124083D01*
X695920Y-123250*
X697160Y-122834*
X698245Y-123250*
X699020Y-124083*
X699640Y-125333*
X699795Y-126792*
X699640Y-128042*
X699020Y-129292*
X698090Y-130333*
X697005Y-130750*
X695765Y-130333*
X694680Y-129084*
X694060Y-127208*
X693905Y-125125*
X694215Y-122417*
X694680Y-120958*
X695455Y-119500*
X696540Y-118458*
X697625Y-118250*
X698710Y-118667*
X699485Y-119708*
X705840Y-128875D02*
G01X706770Y-129917D01*
X707855Y-130542*
X709250Y-130750*
X710645Y-130333*
X711730Y-129500*
X712505Y-128042*
X712660Y-126375*
X712350Y-124708*
X711575Y-123667*
X710490Y-122834*
X709405Y-122625*
X708320Y-122834*
X706925Y-123667*
X707390Y-118250*
X711575*
X723510Y-130750D02*
G01Y-118250D01*
X717775Y-127208*
X725525*
X661510Y-105750D02*
G01Y-93250D01*
X655775Y-102208*
X663525*
X672050Y-93250D02*
G01X670810Y-93667D01*
X669880Y-94708*
X669260Y-95958*
X668795Y-97625*
X668640Y-99500*
X668795Y-101375*
X669260Y-103042*
X669880Y-104292*
X670810Y-105333*
X672050Y-105750*
X673290Y-105333*
X674220Y-104292*
X674840Y-103042*
X675305Y-101375*
X675460Y-99500*
X675305Y-97625*
X674840Y-95958*
X674220Y-94708*
X673290Y-93667*
X672050Y-93250*
X684450Y-106167D02*
G01X684140Y-105958D01*
Y-105542*
X684450Y-105333*
X684760Y-105542*
Y-105958*
X684450Y-106167*
X696850Y-105750D02*
G01Y-93250D01*
X694990Y-95750*
Y-105750D02*
G01X698710D01*
X705840Y-103875D02*
G01X706770Y-104917D01*
X707855Y-105542*
X709250Y-105750*
X710645Y-105333*
X711730Y-104500*
X712505Y-103042*
X712660Y-101375*
X712350Y-99709*
X711575Y-98667*
X710490Y-97834*
X709405Y-97625*
X708320Y-97834*
X706925Y-98667*
X707390Y-93250*
X711575*
X721340Y-105750D02*
G01X721650Y-103042D01*
X722115Y-100750*
X722735Y-98667*
X723510Y-96375*
X724750Y-93250*
X718550*
X669105Y-70333D02*
G01X670035Y-69084D01*
X671120Y-68458*
X672360Y-68250*
X673910Y-68667*
X674995Y-69708*
X675305Y-70958*
X675150Y-72209*
X674530Y-73250*
X671430Y-75333*
X670035Y-76792*
X669105Y-78875*
X668795Y-80750*
X675305*
X684450Y-68250D02*
G01X683210Y-68667D01*
X682280Y-69708*
X681660Y-70958*
X681195Y-72625*
X681040Y-74500*
X681195Y-76375*
X681660Y-78042*
X682280Y-79292*
X683210Y-80333*
X684450Y-80750*
X685690Y-80333*
X686620Y-79292*
X687240Y-78042*
X687705Y-76375*
X687860Y-74500*
X687705Y-72625*
X687240Y-70958*
X686620Y-69708*
X685690Y-68667*
X684450Y-68250*
X696850Y-81167D02*
G01X696540Y-80958D01*
Y-80542*
X696850Y-80333*
X697160Y-80542*
Y-80958*
X696850Y-81167*
X709250Y-68250D02*
G01X708010Y-68667D01*
X707080Y-69708*
X706460Y-70958*
X705995Y-72625*
X705840Y-74500*
X705995Y-76375*
X706460Y-78042*
X707080Y-79292*
X708010Y-80333*
X709250Y-80750*
X710490Y-80333*
X711420Y-79292*
X712040Y-78042*
X712505Y-76375*
X712660Y-74500*
X712505Y-72625*
X712040Y-70958*
X711420Y-69708*
X710490Y-68667*
X709250Y-68250*
X672050Y-55750D02*
G01Y-43250D01*
X670190Y-45750*
Y-55750D02*
G01X673910D01*
X681505Y-45333D02*
G01X682435Y-44084D01*
X683520Y-43458*
X684760Y-43250*
X686310Y-43667*
X687395Y-44708*
X687705Y-45958*
X687550Y-47209*
X686930Y-48250*
X683830Y-50333*
X682435Y-51792*
X681505Y-53875*
X681195Y-55750*
X687705*
X696850Y-56167D02*
G01X696540Y-55958D01*
Y-55542*
X696850Y-55333*
X697160Y-55542*
Y-55958*
X696850Y-56167*
X709250Y-43250D02*
G01X708010Y-43667D01*
X707080Y-44708*
X706460Y-45958*
X705995Y-47625*
X705840Y-49500*
X705995Y-51375*
X706460Y-53042*
X707080Y-54292*
X708010Y-55333*
X709250Y-55750*
X710490Y-55333*
X711420Y-54292*
X712040Y-53042*
X712505Y-51375*
X712660Y-49500*
X712505Y-47625*
X712040Y-45958*
X711420Y-44708*
X710490Y-43667*
X709250Y-43250*
X690340Y19250D02*
G01Y31750D01*
X693440*
X694680Y31125*
X695610Y30292*
X696385Y29042*
X697005Y27583*
X697160Y25500*
X697005Y23416*
X696385Y21958*
X695610Y20708*
X694680Y19875*
X693440Y19250*
X690340*
X703050D02*
G01Y31750D01*
X706925*
X708165Y31125*
X708940Y30292*
X709250Y28625*
X708940Y26958*
X708010Y25917*
X706925Y25292*
X703050*
X706925D02*
G01X709250Y19250D01*
X716690Y31750D02*
G01X720410D01*
X718550D02*
G01Y19250D01*
X716690D02*
G01X720410D01*
X727850Y31750D02*
G01Y19250D01*
X734050*
X740250Y31750D02*
G01Y19250D01*
X746450*
X771560Y30708D02*
G01X770630Y31333D01*
X769545Y31750*
X768305*
X766910Y31125*
X765825Y30083*
X765050Y28833*
X764430Y26750*
X764275Y24875*
X764585Y23000*
X765050Y21750*
X765980Y20500*
X767065Y19667*
X768150Y19250*
X769235*
X770320Y19667*
X771250Y20291*
X772025Y21125*
X777295Y19250D02*
G01Y31750D01*
X783805D02*
G01Y19250D01*
Y25500D02*
G01X777295D01*
X789075Y19250D02*
G01X792950Y31750D01*
X796825Y19250*
X795430Y23625D02*
G01X790470D01*
X802250Y19250D02*
G01Y31750D01*
X806125*
X807365Y31125*
X808140Y30292*
X808450Y28625*
X808140Y26958*
X807210Y25917*
X806125Y25292*
X802250*
X806125D02*
G01X808450Y19250D01*
X817750Y31750D02*
G01Y19250D01*
X814185Y31750D02*
G01X821315D01*
X830150Y18833D02*
G01X829840Y19042D01*
Y19458*
X830150Y19667*
X830460Y19458*
Y19042*
X830150Y18833*
Y24458D02*
G01X829840Y24667D01*
Y25083*
X830150Y25292*
X830460Y25083*
Y24667*
X830150Y24458*
X854950Y31750D02*
G01Y19250D01*
X851385Y31750D02*
G01X858515D01*
X867350Y19250D02*
G01X866110Y19458D01*
X865025Y20291*
X864095Y21542*
X863475Y23000*
X863165Y24667*
Y26333*
X863475Y28000*
X864095Y29458*
X865025Y30708*
X866110Y31542*
X867350Y31750*
X868590Y31542*
X869675Y30708*
X870605Y29458*
X871225Y28000*
X871535Y26333*
Y24667*
X871225Y23000*
X870605Y21542*
X869675Y20291*
X868590Y19458*
X867350Y19250*
X876650D02*
G01Y31750D01*
X880370*
X881610Y31125*
X882540Y29667*
X882850Y28000*
X882540Y26333*
X881765Y25083*
X880370Y24458*
X876650*
X904550Y31750D02*
G01Y19250D01*
X902380Y27583D02*
G01X906720D01*
X916950Y19250D02*
G01X916020Y19458D01*
X915090Y20291*
X914470Y21750*
X914160Y23416*
X914470Y25083*
X915090Y26542*
X916020Y27375*
X916950Y27583*
X917880Y27375*
X918810Y26542*
X919430Y25083*
X919585Y23416*
X919430Y21750*
X918810Y20291*
X917880Y19458*
X916950Y19250*
X942990Y25917D02*
G01X943610Y26542D01*
X944075Y27583*
X944385Y29042*
X944075Y30292*
X943455Y31125*
X942370Y31750*
X938185*
Y19250*
X943300*
X944385Y20083*
X945005Y21333*
X945315Y22792*
X945005Y24250*
X944075Y25500*
X942990Y25917*
X938185*
X954150Y19250D02*
G01X952910Y19458D01*
X951825Y20291*
X950895Y21542*
X950275Y23000*
X949965Y24667*
Y26333*
X950275Y28000*
X950895Y29458*
X951825Y30708*
X952910Y31542*
X954150Y31750*
X955390Y31542*
X956475Y30708*
X957405Y29458*
X958025Y28000*
X958335Y26333*
Y24667*
X958025Y23000*
X957405Y21542*
X956475Y20291*
X955390Y19458*
X954150Y19250*
X966550Y31750D02*
G01Y19250D01*
X962985Y31750D02*
G01X970115D01*
X978950D02*
G01Y19250D01*
X975385Y31750D02*
G01X982515D01*
X991350Y19250D02*
G01X990110Y19458D01*
X989025Y20291*
X988095Y21542*
X987475Y23000*
X987165Y24667*
Y26333*
X987475Y28000*
X988095Y29458*
X989025Y30708*
X990110Y31542*
X991350Y31750*
X992590Y31542*
X993675Y30708*
X994605Y29458*
X995225Y28000*
X995535Y26333*
Y24667*
X995225Y23000*
X994605Y21542*
X993675Y20291*
X992590Y19458*
X991350Y19250*
X999720D02*
G01Y31750D01*
X1003750Y21333*
X1007780Y31750*
Y19250*
X698400Y-236300D02*
G01Y-416300D01*
Y-381300D02*
G01X908400D01*
X698400Y-356300D02*
G01X908400D01*
X698400Y-326300D02*
G01X908400D01*
X698400Y-296300D02*
G01X908400D01*
X720875Y-5750D02*
G01X724750Y6750D01*
X728625Y-5750*
X727230Y-1375D02*
G01X722270D01*
X734050Y6750D02*
G01Y-5750D01*
X740250*
X746450Y6750D02*
G01Y-5750D01*
X752650*
X770940Y6750D02*
G01Y-2208D01*
X771560Y-4084*
X772800Y-5333*
X774350Y-5750*
X775900Y-5333*
X777140Y-4084*
X777760Y-2208*
Y6750*
X783185Y-5750D02*
G01Y6750D01*
X790315Y-5750*
Y6750*
X797290D02*
G01X801010D01*
X799150D02*
G01Y-5750D01*
X797290D02*
G01X801010D01*
X811550Y6750D02*
G01Y-5750D01*
X807985Y6750D02*
G01X815115D01*
X820695Y-4084D02*
G01X821935Y-5125D01*
X823330Y-5750*
X824570*
X825810Y-5125*
X826740Y-4084*
X827205Y-2625*
X826895Y-1167*
X826120Y83*
X824725Y917*
X822865Y1333*
X821780Y2166*
X821315Y3625*
X821625Y5083*
X822400Y6125*
X823485Y6750*
X824570*
X825655Y6333*
X826585Y5292*
X844875Y-5750D02*
G01X848750Y6750D01*
X852625Y-5750*
X851230Y-1375D02*
G01X846270D01*
X858050Y-5750D02*
G01Y6750D01*
X861925*
X863165Y6125*
X863940Y5292*
X864250Y3625*
X863940Y1958*
X863010Y917*
X861925Y292*
X858050*
X861925D02*
G01X864250Y-5750D01*
X876650D02*
G01X870450D01*
Y6750*
X876650*
X874170Y708D02*
G01X870450D01*
X896490Y6750D02*
G01X900210D01*
X898350D02*
G01Y-5750D01*
X896490D02*
G01X900210D01*
X907185D02*
G01Y6750D01*
X914315Y-5750*
Y6750*
X931520Y-5750D02*
G01Y6750D01*
X935550Y-3667*
X939580Y6750*
Y-5750*
X946090Y6750D02*
G01X949810D01*
X947950D02*
G01Y-5750D01*
X946090D02*
G01X949810D01*
X957250Y6750D02*
G01Y-5750D01*
X963450*
X969495Y-4084D02*
G01X970735Y-5125D01*
X972130Y-5750*
X973370*
X974610Y-5125*
X975540Y-4084*
X976005Y-2625*
X975695Y-1167*
X974920Y83*
X973525Y917*
X971665Y1333*
X970580Y2166*
X970115Y3625*
X970425Y5083*
X971200Y6125*
X972285Y6750*
X973370*
X974455Y6333*
X975385Y5292*
X741605Y-252960D02*
G01X742232Y-253485D01*
X742937Y-253800*
X743563*
X744190Y-253485*
X744660Y-252960*
X744895Y-252225*
X744738Y-251490*
X744347Y-250860*
X743642Y-250440*
X742702Y-250230*
X742153Y-249810*
X741918Y-249075*
X742075Y-248340*
X742467Y-247815*
X743015Y-247500*
X743563*
X744112Y-247710*
X744582Y-248235*
X748610Y-247500D02*
G01X750490D01*
X749550D02*
G01Y-253800D01*
X748610D02*
G01X750490D01*
X756320Y-250650D02*
G01X757887D01*
Y-252540*
X757417Y-253170*
X756868Y-253590*
X756085Y-253800*
X755302Y-253590*
X754753Y-253170*
X754283Y-252540*
X753970Y-251805*
X753813Y-250965*
Y-250230*
X753970Y-249600*
X754283Y-248865*
X754753Y-248235*
X755223Y-247815*
X755850Y-247500*
X756398*
X757025Y-247710*
X757495Y-248130*
X760348Y-253800D02*
G01Y-247500D01*
X763952Y-253800*
Y-247500*
X766492Y-253800D02*
G01X768450Y-247500D01*
X770408Y-253800*
X769703Y-251595D02*
G01X767197D01*
X774750Y-247500D02*
G01Y-253800D01*
X772948Y-247500D02*
G01X776552D01*
X779327D02*
G01Y-252015D01*
X779640Y-252960*
X780267Y-253590*
X781050Y-253800*
X781833Y-253590*
X782460Y-252960*
X782773Y-252015*
Y-247500*
X785783Y-253800D02*
G01Y-247500D01*
X787742*
X788368Y-247815*
X788760Y-248235*
X788917Y-249075*
X788760Y-249915*
X788290Y-250440*
X787742Y-250755*
X785783*
X787742D02*
G01X788917Y-253800D01*
X795217D02*
G01X792083D01*
Y-247500*
X795217*
X793963Y-250545D02*
G01X792083D01*
X798305Y-252960D02*
G01X798932Y-253485D01*
X799637Y-253800*
X800263*
X800890Y-253485*
X801360Y-252960*
X801595Y-252225*
X801438Y-251490*
X801047Y-250860*
X800342Y-250440*
X799402Y-250230*
X798853Y-249810*
X798618Y-249075*
X798775Y-248340*
X799167Y-247815*
X799715Y-247500*
X800263*
X800812Y-247710*
X801282Y-248235*
X791400Y-12000D02*
G01Y-137000D01*
X805350Y-18250D02*
G01Y-30750D01*
X801785Y-18250D02*
G01X808915D01*
X817750Y-30750D02*
G01X816510Y-30542D01*
X815425Y-29709*
X814495Y-28458*
X813875Y-27000*
X813565Y-25333*
Y-23667*
X813875Y-22000*
X814495Y-20542*
X815425Y-19292*
X816510Y-18458*
X817750Y-18250*
X818990Y-18458*
X820075Y-19292*
X821005Y-20542*
X821625Y-22000*
X821935Y-23667*
Y-25333*
X821625Y-27000*
X821005Y-28458*
X820075Y-29709*
X818990Y-30542*
X817750Y-30750*
X827050Y-18250D02*
G01Y-30750D01*
X833250*
X845650D02*
G01X839450D01*
Y-18250*
X845650*
X843170Y-24292D02*
G01X839450D01*
X851850Y-30750D02*
G01Y-18250D01*
X855725*
X856965Y-18875*
X857740Y-19708*
X858050Y-21375*
X857740Y-23042*
X856810Y-24083*
X855725Y-24709*
X851850*
X855725D02*
G01X858050Y-30750D01*
X863475D02*
G01X867350Y-18250D01*
X871225Y-30750*
X869830Y-26375D02*
G01X864870D01*
X876185Y-30750D02*
G01Y-18250D01*
X883315Y-30750*
Y-18250*
X895560Y-19292D02*
G01X894630Y-18667D01*
X893545Y-18250*
X892305*
X890910Y-18875*
X889825Y-19917*
X889050Y-21167*
X888430Y-23250*
X888275Y-25125*
X888585Y-27000*
X889050Y-28250*
X889980Y-29500*
X891065Y-30333*
X892150Y-30750*
X893235*
X894320Y-30333*
X895250Y-29709*
X896025Y-28875*
X907650Y-30750D02*
G01X901450D01*
Y-18250*
X907650*
X905170Y-24292D02*
G01X901450D01*
X912300Y-34916D02*
G01X921600D01*
X925940Y-30750D02*
G01Y-18250D01*
X929040*
X930280Y-18875*
X931210Y-19708*
X931985Y-20958*
X932605Y-22417*
X932760Y-24500*
X932605Y-26584*
X931985Y-28042*
X931210Y-29292*
X930280Y-30125*
X929040Y-30750*
X925940*
X938650D02*
G01Y-18250D01*
X942525*
X943765Y-18875*
X944540Y-19708*
X944850Y-21375*
X944540Y-23042*
X943610Y-24083*
X942525Y-24709*
X938650*
X942525D02*
G01X944850Y-30750D01*
X952290Y-18250D02*
G01X956010D01*
X954150D02*
G01Y-30750D01*
X952290D02*
G01X956010D01*
X963450Y-18250D02*
G01Y-30750D01*
X969650*
X975850Y-18250D02*
G01Y-30750D01*
X982050*
X828400Y-353800D02*
G01Y-236300D01*
Y-353800D02*
G01Y-356300D01*
X818000Y212540D02*
G01Y395540D01*
X878000*
Y212540*
X818000*
X828400Y533700D02*
G01Y503700D01*
Y623700D02*
G01Y533700D01*
Y563700D02*
G01X1328400D01*
X834650Y573700D02*
G01Y583700D01*
X837775*
X838775Y583200*
X839400Y582533*
X839650Y581200*
X839400Y579867*
X838650Y579033*
X837775Y578533*
X834650*
X837775D02*
G01X839650Y573700D01*
X849650D02*
G01X844650D01*
Y583700*
X849650*
X847650Y578867D02*
G01X844650D01*
X854025Y583700D02*
G01X857150Y573700D01*
X860275Y583700*
X828400Y593700D02*
G01X1328400D01*
X854027Y-253800D02*
G01Y-247500D01*
X855593*
X856220Y-247815*
X856690Y-248235*
X857082Y-248865*
X857395Y-249600*
X857473Y-250650*
X857395Y-251700*
X857082Y-252435*
X856690Y-253065*
X856220Y-253485*
X855593Y-253800*
X854027*
X860092D02*
G01X862050Y-247500D01*
X864008Y-253800*
X863303Y-251595D02*
G01X860797D01*
X868350Y-247500D02*
G01Y-253800D01*
X866548Y-247500D02*
G01X870152D01*
X876217Y-253800D02*
G01X873083D01*
Y-247500*
X876217*
X874963Y-250545D02*
G01X873083D01*
X840845Y-126584D02*
G01X844565D01*
X842550Y-123875D02*
G01Y-129292D01*
X851540Y-128250D02*
G01X852470Y-129709D01*
X853710Y-130542*
X855105Y-130750*
X856345Y-130542*
X857585Y-129500*
X858360Y-128250*
X858515Y-127000*
X858205Y-125542*
X857120Y-124500*
X856035Y-124083*
X854640*
X856035D02*
G01X856965Y-123458D01*
X857740Y-122417*
X858050Y-121167*
X857740Y-119917*
X856965Y-118875*
X855570Y-118250*
X854175Y-118458*
X852780Y-119292*
X867350Y-131167D02*
G01X867040Y-130958D01*
Y-130542*
X867350Y-130333*
X867660Y-130542*
Y-130958*
X867350Y-131167*
X879750Y-118250D02*
G01X878510Y-118667D01*
X877580Y-119708*
X876960Y-120958*
X876495Y-122625*
X876340Y-124500*
X876495Y-126375*
X876960Y-128042*
X877580Y-129292*
X878510Y-130333*
X879750Y-130750*
X880990Y-130333*
X881920Y-129292*
X882540Y-128042*
X883005Y-126375*
X883160Y-124500*
X883005Y-122625*
X882540Y-120958*
X881920Y-119708*
X880990Y-118667*
X879750Y-118250*
X889360Y-131167D02*
G01X894940Y-118250D01*
X902535Y-126584D02*
G01X906565D01*
X913540Y-128250D02*
G01X914470Y-129709D01*
X915710Y-130542*
X917105Y-130750*
X918345Y-130542*
X919585Y-129500*
X920360Y-128250*
X920515Y-127000*
X920205Y-125542*
X919120Y-124500*
X918035Y-124083*
X916640*
X918035D02*
G01X918965Y-123458D01*
X919740Y-122417*
X920050Y-121167*
X919740Y-119917*
X918965Y-118875*
X917570Y-118250*
X916175Y-118458*
X914780Y-119292*
X929350Y-131167D02*
G01X929040Y-130958D01*
Y-130542*
X929350Y-130333*
X929660Y-130542*
Y-130958*
X929350Y-131167*
X941750Y-118250D02*
G01X940510Y-118667D01*
X939580Y-119708*
X938960Y-120958*
X938495Y-122625*
X938340Y-124500*
X938495Y-126375*
X938960Y-128042*
X939580Y-129292*
X940510Y-130333*
X941750Y-130750*
X942990Y-130333*
X943920Y-129292*
X944540Y-128042*
X945005Y-126375*
X945160Y-124500*
X945005Y-122625*
X944540Y-120958*
X943920Y-119708*
X942990Y-118667*
X941750Y-118250*
X840845Y-101584D02*
G01X844565D01*
X842550Y-98875D02*
G01Y-104292D01*
X851540Y-103250D02*
G01X852470Y-104709D01*
X853710Y-105542*
X855105Y-105750*
X856345Y-105542*
X857585Y-104500*
X858360Y-103250*
X858515Y-102000*
X858205Y-100542*
X857120Y-99500*
X856035Y-99083*
X854640*
X856035D02*
G01X856965Y-98458D01*
X857740Y-97417*
X858050Y-96167*
X857740Y-94917*
X856965Y-93875*
X855570Y-93250*
X854175Y-93458*
X852780Y-94292*
X867350Y-106167D02*
G01X867040Y-105958D01*
Y-105542*
X867350Y-105333*
X867660Y-105542*
Y-105958*
X867350Y-106167*
X879750Y-93250D02*
G01X878510Y-93667D01*
X877580Y-94708*
X876960Y-95958*
X876495Y-97625*
X876340Y-99500*
X876495Y-101375*
X876960Y-103042*
X877580Y-104292*
X878510Y-105333*
X879750Y-105750*
X880990Y-105333*
X881920Y-104292*
X882540Y-103042*
X883005Y-101375*
X883160Y-99500*
X883005Y-97625*
X882540Y-95958*
X881920Y-94708*
X880990Y-93667*
X879750Y-93250*
X889360Y-106167D02*
G01X894940Y-93250D01*
X902535Y-101584D02*
G01X906565D01*
X913540Y-103250D02*
G01X914470Y-104709D01*
X915710Y-105542*
X917105Y-105750*
X918345Y-105542*
X919585Y-104500*
X920360Y-103250*
X920515Y-102000*
X920205Y-100542*
X919120Y-99500*
X918035Y-99083*
X916640*
X918035D02*
G01X918965Y-98458D01*
X919740Y-97417*
X920050Y-96167*
X919740Y-94917*
X918965Y-93875*
X917570Y-93250*
X916175Y-93458*
X914780Y-94292*
X929350Y-106167D02*
G01X929040Y-105958D01*
Y-105542*
X929350Y-105333*
X929660Y-105542*
Y-105958*
X929350Y-106167*
X941750Y-93250D02*
G01X940510Y-93667D01*
X939580Y-94708*
X938960Y-95958*
X938495Y-97625*
X938340Y-99500*
X938495Y-101375*
X938960Y-103042*
X939580Y-104292*
X940510Y-105333*
X941750Y-105750*
X942990Y-105333*
X943920Y-104292*
X944540Y-103042*
X945005Y-101375*
X945160Y-99500*
X945005Y-97625*
X944540Y-95958*
X943920Y-94708*
X942990Y-93667*
X941750Y-93250*
X840845Y-76584D02*
G01X844565D01*
X842550Y-73875D02*
G01Y-79292D01*
X851540Y-78250D02*
G01X852470Y-79709D01*
X853710Y-80542*
X855105Y-80750*
X856345Y-80542*
X857585Y-79500*
X858360Y-78250*
X858515Y-77000*
X858205Y-75542*
X857120Y-74500*
X856035Y-74083*
X854640*
X856035D02*
G01X856965Y-73458D01*
X857740Y-72417*
X858050Y-71167*
X857740Y-69917*
X856965Y-68875*
X855570Y-68250*
X854175Y-68458*
X852780Y-69292*
X867350Y-81167D02*
G01X867040Y-80958D01*
Y-80542*
X867350Y-80333*
X867660Y-80542*
Y-80958*
X867350Y-81167*
X879750Y-68250D02*
G01X878510Y-68667D01*
X877580Y-69708*
X876960Y-70958*
X876495Y-72625*
X876340Y-74500*
X876495Y-76375*
X876960Y-78042*
X877580Y-79292*
X878510Y-80333*
X879750Y-80750*
X880990Y-80333*
X881920Y-79292*
X882540Y-78042*
X883005Y-76375*
X883160Y-74500*
X883005Y-72625*
X882540Y-70958*
X881920Y-69708*
X880990Y-68667*
X879750Y-68250*
X889360Y-81167D02*
G01X894940Y-68250D01*
X902535Y-76584D02*
G01X906565D01*
X913540Y-78250D02*
G01X914470Y-79709D01*
X915710Y-80542*
X917105Y-80750*
X918345Y-80542*
X919585Y-79500*
X920360Y-78250*
X920515Y-77000*
X920205Y-75542*
X919120Y-74500*
X918035Y-74083*
X916640*
X918035D02*
G01X918965Y-73458D01*
X919740Y-72417*
X920050Y-71167*
X919740Y-69917*
X918965Y-68875*
X917570Y-68250*
X916175Y-68458*
X914780Y-69292*
X929350Y-81167D02*
G01X929040Y-80958D01*
Y-80542*
X929350Y-80333*
X929660Y-80542*
Y-80958*
X929350Y-81167*
X941750Y-68250D02*
G01X940510Y-68667D01*
X939580Y-69708*
X938960Y-70958*
X938495Y-72625*
X938340Y-74500*
X938495Y-76375*
X938960Y-78042*
X939580Y-79292*
X940510Y-80333*
X941750Y-80750*
X942990Y-80333*
X943920Y-79292*
X944540Y-78042*
X945005Y-76375*
X945160Y-74500*
X945005Y-72625*
X944540Y-70958*
X943920Y-69708*
X942990Y-68667*
X941750Y-68250*
X840845Y-51584D02*
G01X844565D01*
X842550Y-48875D02*
G01Y-54292D01*
X851540Y-53250D02*
G01X852470Y-54709D01*
X853710Y-55542*
X855105Y-55750*
X856345Y-55542*
X857585Y-54500*
X858360Y-53250*
X858515Y-52000*
X858205Y-50542*
X857120Y-49500*
X856035Y-49083*
X854640*
X856035D02*
G01X856965Y-48458D01*
X857740Y-47417*
X858050Y-46167*
X857740Y-44917*
X856965Y-43875*
X855570Y-43250*
X854175Y-43458*
X852780Y-44292*
X867350Y-56167D02*
G01X867040Y-55958D01*
Y-55542*
X867350Y-55333*
X867660Y-55542*
Y-55958*
X867350Y-56167*
X879750Y-43250D02*
G01X878510Y-43667D01*
X877580Y-44708*
X876960Y-45958*
X876495Y-47625*
X876340Y-49500*
X876495Y-51375*
X876960Y-53042*
X877580Y-54292*
X878510Y-55333*
X879750Y-55750*
X880990Y-55333*
X881920Y-54292*
X882540Y-53042*
X883005Y-51375*
X883160Y-49500*
X883005Y-47625*
X882540Y-45958*
X881920Y-44708*
X880990Y-43667*
X879750Y-43250*
X889360Y-56167D02*
G01X894940Y-43250D01*
X902535Y-51584D02*
G01X906565D01*
X913540Y-53250D02*
G01X914470Y-54709D01*
X915710Y-55542*
X917105Y-55750*
X918345Y-55542*
X919585Y-54500*
X920360Y-53250*
X920515Y-52000*
X920205Y-50542*
X919120Y-49500*
X918035Y-49083*
X916640*
X918035D02*
G01X918965Y-48458D01*
X919740Y-47417*
X920050Y-46167*
X919740Y-44917*
X918965Y-43875*
X917570Y-43250*
X916175Y-43458*
X914780Y-44292*
X929350Y-56167D02*
G01X929040Y-55958D01*
Y-55542*
X929350Y-55333*
X929660Y-55542*
Y-55958*
X929350Y-56167*
X941750Y-43250D02*
G01X940510Y-43667D01*
X939580Y-44708*
X938960Y-45958*
X938495Y-47625*
X938340Y-49500*
X938495Y-51375*
X938960Y-53042*
X939580Y-54292*
X940510Y-55333*
X941750Y-55750*
X942990Y-55333*
X943920Y-54292*
X944540Y-53042*
X945005Y-51375*
X945160Y-49500*
X945005Y-47625*
X944540Y-45958*
X943920Y-44708*
X942990Y-43667*
X941750Y-43250*
X868400Y533700D02*
G01Y503700D01*
Y533700D02*
G01Y593700D01*
X914525Y-399967D02*
G01X915525Y-400800D01*
X916650Y-401300*
X917650*
X918650Y-400800*
X919400Y-399967*
X919775Y-398800*
X919525Y-397634*
X918900Y-396633*
X917775Y-395967*
X916275Y-395633*
X915400Y-394967*
X915025Y-393800*
X915275Y-392633*
X915900Y-391800*
X916775Y-391300*
X917650*
X918525Y-391633*
X919275Y-392467*
X929900Y-392134D02*
G01X929150Y-391633D01*
X928275Y-391300*
X927275*
X926150Y-391800*
X925275Y-392633*
X924650Y-393633*
X924150Y-395300*
X924025Y-396800*
X924275Y-398300*
X924650Y-399300*
X925400Y-400300*
X926275Y-400967*
X927150Y-401300*
X928025*
X928900Y-400967*
X929650Y-400467*
X930275Y-399800*
X934025Y-401300D02*
G01X937150Y-391300D01*
X940275Y-401300*
X939150Y-397800D02*
G01X935150D01*
X944650Y-391300D02*
G01Y-401300D01*
X949650*
X959650D02*
G01X954650D01*
Y-391300*
X959650*
X957650Y-396133D02*
G01X954650D01*
X908400Y-236300D02*
G01Y-416300D01*
X1158400Y-386300D02*
G01X908400D01*
X914525Y-359967D02*
G01X915525Y-360800D01*
X916650Y-361300*
X917650*
X918650Y-360800*
X919400Y-359967*
X919775Y-358800*
X919525Y-357634*
X918900Y-356633*
X917775Y-355967*
X916275Y-355633*
X915400Y-354967*
X915025Y-353800*
X915275Y-352633*
X915900Y-351800*
X916775Y-351300*
X917650*
X918525Y-351633*
X919275Y-352467*
X925650Y-351300D02*
G01X928650D01*
X927150D02*
G01Y-361300D01*
X925650D02*
G01X928650D01*
X934775Y-351300D02*
G01X939525D01*
X934775Y-361300*
X939525*
X949650D02*
G01X944650D01*
Y-351300*
X949650*
X947650Y-356133D02*
G01X944650D01*
X1328400Y-346300D02*
G01X908400D01*
X1328400Y-286300D02*
G01X908400D01*
X939400Y573700D02*
G01Y583700D01*
X941900*
X942900Y583200*
X943650Y582533*
X944275Y581534*
X944775Y580366*
X944900Y578700*
X944775Y577033*
X944275Y575866*
X943650Y574866*
X942900Y574200*
X941900Y573700*
X939400*
X954650D02*
G01X949650D01*
Y583700*
X954650*
X952650Y578867D02*
G01X949650D01*
X959525Y575033D02*
G01X960525Y574200D01*
X961650Y573700*
X962650*
X963650Y574200*
X964400Y575033*
X964775Y576200*
X964525Y577366*
X963900Y578367*
X962775Y579033*
X961275Y579367*
X960400Y580033*
X960025Y581200*
X960275Y582367*
X960900Y583200*
X961775Y583700*
X962650*
X963525Y583367*
X964275Y582533*
X974900Y582866D02*
G01X974150Y583367D01*
X973275Y583700*
X972275*
X971150Y583200*
X970275Y582367*
X969650Y581367*
X969150Y579700*
X969025Y578200*
X969275Y576700*
X969650Y575700*
X970400Y574700*
X971275Y574033*
X972150Y573700*
X973025*
X973900Y574033*
X974650Y574533*
X975275Y575200*
X979650Y573700D02*
G01Y583700D01*
X982775*
X983775Y583200*
X984400Y582533*
X984650Y581200*
X984400Y579867*
X983650Y579033*
X982775Y578533*
X979650*
X982775D02*
G01X984650Y573700D01*
X990650Y583700D02*
G01X993650D01*
X992150D02*
G01Y573700D01*
X990650D02*
G01X993650D01*
X999650D02*
G01Y583700D01*
X1002650*
X1003650Y583200*
X1004400Y582033*
X1004650Y580700*
X1004400Y579367*
X1003775Y578367*
X1002650Y577866*
X999650*
X1012150Y583700D02*
G01Y573700D01*
X1009275Y583700D02*
G01X1015025D01*
X1020650D02*
G01X1023650D01*
X1022150D02*
G01Y573700D01*
X1020650D02*
G01X1023650D01*
X1032150D02*
G01X1031150Y573867D01*
X1030275Y574533*
X1029525Y575533*
X1029025Y576700*
X1028775Y578033*
Y579367*
X1029025Y580700*
X1029525Y581867*
X1030275Y582866*
X1031150Y583533*
X1032150Y583700*
X1033150Y583533*
X1034025Y582866*
X1034775Y581867*
X1035275Y580700*
X1035525Y579367*
Y578033*
X1035275Y576700*
X1034775Y575533*
X1034025Y574533*
X1033150Y573867*
X1032150Y573700*
X1039275D02*
G01Y583700D01*
X1045025Y573700*
Y583700*
X958400Y-386300D02*
G01Y-346300D01*
X969775Y-361300D02*
G01Y-351300D01*
X974525*
X972775Y-356133D02*
G01X969775D01*
X979525Y-359967D02*
G01X980525Y-360800D01*
X981650Y-361300*
X982650*
X983650Y-360800*
X984400Y-359967*
X984775Y-358800*
X984525Y-357634*
X983900Y-356633*
X982775Y-355967*
X981275Y-355633*
X980400Y-354967*
X980025Y-353800*
X980275Y-352633*
X980900Y-351800*
X981775Y-351300*
X982650*
X983525Y-351633*
X984275Y-352467*
X994900Y-352134D02*
G01X994150Y-351633D01*
X993275Y-351300*
X992275*
X991150Y-351800*
X990275Y-352633*
X989650Y-353633*
X989150Y-355300*
X989025Y-356800*
X989275Y-358300*
X989650Y-359300*
X990400Y-360300*
X991275Y-360967*
X992150Y-361300*
X993025*
X993900Y-360967*
X994650Y-360467*
X995275Y-359800*
X998900Y-361300D02*
G01Y-351300D01*
X1002150Y-359633*
X1005400Y-351300*
Y-361300*
X1019275D02*
G01Y-351300D01*
X1025025Y-361300*
Y-351300*
X1032150Y-361300D02*
G01X1031150Y-361133D01*
X1030275Y-360467*
X1029525Y-359467*
X1029025Y-358300*
X1028775Y-356967*
Y-355633*
X1029025Y-354300*
X1029525Y-353133*
X1030275Y-352134*
X1031150Y-351467*
X1032150Y-351300*
X1033150Y-351467*
X1034025Y-352134*
X1034775Y-353133*
X1035275Y-354300*
X1035525Y-355633*
Y-356967*
X1035275Y-358300*
X1034775Y-359467*
X1034025Y-360467*
X1033150Y-361133*
X1032150Y-361300*
X984900Y-257134D02*
G01X984150Y-256633D01*
X983275Y-256300*
X982275*
X981150Y-256800*
X980275Y-257633*
X979650Y-258633*
X979150Y-260300*
X979025Y-261800*
X979275Y-263300*
X979650Y-264300*
X980400Y-265300*
X981275Y-265967*
X982150Y-266300*
X983025*
X983900Y-265967*
X984650Y-265467*
X985275Y-264800*
X992150Y-266300D02*
G01X991150Y-266133D01*
X990275Y-265467*
X989525Y-264467*
X989025Y-263300*
X988775Y-261967*
Y-260633*
X989025Y-259300*
X989525Y-258133*
X990275Y-257134*
X991150Y-256467*
X992150Y-256300*
X993150Y-256467*
X994025Y-257134*
X994775Y-258133*
X995275Y-259300*
X995525Y-260633*
Y-261967*
X995275Y-263300*
X994775Y-264467*
X994025Y-265467*
X993150Y-266133*
X992150Y-266300*
X998900D02*
G01Y-256300D01*
X1002150Y-264633*
X1005400Y-256300*
Y-266300*
X1009650D02*
G01Y-256300D01*
X1012650*
X1013650Y-256800*
X1014400Y-257967*
X1014650Y-259300*
X1014400Y-260633*
X1013775Y-261633*
X1012650Y-262134*
X1009650*
X1019025Y-266300D02*
G01X1022150Y-256300D01*
X1025275Y-266300*
X1024150Y-262800D02*
G01X1020150D01*
X1029275Y-266300D02*
G01Y-256300D01*
X1035025Y-266300*
Y-256300*
X1042150Y-266300D02*
G01Y-261800D01*
X1039650Y-256300*
X1044650D02*
G01X1042150Y-261800D01*
X1059275Y-266300D02*
G01Y-256300D01*
X1065025Y-266300*
Y-256300*
X1069025Y-266300D02*
G01X1072150Y-256300D01*
X1075275Y-266300*
X1074150Y-262800D02*
G01X1070150D01*
X1078900Y-266300D02*
G01Y-256300D01*
X1082150Y-264633*
X1085400Y-256300*
Y-266300*
X1094650D02*
G01X1089650D01*
Y-256300*
X1094650*
X1092650Y-261133D02*
G01X1089650D01*
X1109025Y-266300D02*
G01X1112150Y-256300D01*
X1115275Y-266300*
X1114150Y-262800D02*
G01X1110150D01*
X1119275Y-266300D02*
G01Y-256300D01*
X1125025Y-266300*
Y-256300*
X1129400Y-266300D02*
G01Y-256300D01*
X1131900*
X1132900Y-256800*
X1133650Y-257467*
X1134275Y-258467*
X1134775Y-259634*
X1134900Y-261300*
X1134775Y-262967*
X1134275Y-264134*
X1133650Y-265134*
X1132900Y-265800*
X1131900Y-266300*
X1129400*
X1149025D02*
G01X1152150Y-256300D01*
X1155275Y-266300*
X1154150Y-262800D02*
G01X1150150D01*
X1159400Y-266300D02*
G01Y-256300D01*
X1161900*
X1162900Y-256800*
X1163650Y-257467*
X1164275Y-258467*
X1164775Y-259634*
X1164900Y-261300*
X1164775Y-262967*
X1164275Y-264134*
X1163650Y-265134*
X1162900Y-265800*
X1161900Y-266300*
X1159400*
X1169400D02*
G01Y-256300D01*
X1171900*
X1172900Y-256800*
X1173650Y-257467*
X1174275Y-258467*
X1174775Y-259634*
X1174900Y-261300*
X1174775Y-262967*
X1174275Y-264134*
X1173650Y-265134*
X1172900Y-265800*
X1171900Y-266300*
X1169400*
X1179650D02*
G01Y-256300D01*
X1182775*
X1183775Y-256800*
X1184400Y-257467*
X1184650Y-258800*
X1184400Y-260133*
X1183650Y-260967*
X1182775Y-261467*
X1179650*
X1182775D02*
G01X1184650Y-266300D01*
X1194650D02*
G01X1189650D01*
Y-256300*
X1194650*
X1192650Y-261133D02*
G01X1189650D01*
X1199525Y-264967D02*
G01X1200525Y-265800D01*
X1201650Y-266300*
X1202650*
X1203650Y-265800*
X1204400Y-264967*
X1204775Y-263800*
X1204525Y-262634*
X1203900Y-261633*
X1202775Y-260967*
X1201275Y-260633*
X1200400Y-259967*
X1200025Y-258800*
X1200275Y-257633*
X1200900Y-256800*
X1201775Y-256300*
X1202650*
X1203525Y-256633*
X1204275Y-257467*
X1209525Y-264967D02*
G01X1210525Y-265800D01*
X1211650Y-266300*
X1212650*
X1213650Y-265800*
X1214400Y-264967*
X1214775Y-263800*
X1214525Y-262634*
X1213900Y-261633*
X1212775Y-260967*
X1211275Y-260633*
X1210400Y-259967*
X1210025Y-258800*
X1210275Y-257633*
X1210900Y-256800*
X1211775Y-256300*
X1212650*
X1213525Y-256633*
X1214275Y-257467*
X998400Y-386300D02*
G01Y-416300D01*
X997085Y-130750D02*
G01Y-118250D01*
X1004215Y-130750*
Y-118250*
X1013050Y-130750D02*
G01X1011810Y-130542D01*
X1010725Y-129709*
X1009795Y-128458*
X1009175Y-127000*
X1008865Y-125333*
Y-123667*
X1009175Y-122000*
X1009795Y-120542*
X1010725Y-119292*
X1011810Y-118458*
X1013050Y-118250*
X1014290Y-118458*
X1015375Y-119292*
X1016305Y-120542*
X1016925Y-122000*
X1017235Y-123667*
Y-125333*
X1016925Y-127000*
X1016305Y-128458*
X1015375Y-129709*
X1014290Y-130542*
X1013050Y-130750*
X1021885D02*
G01Y-118250D01*
X1029015Y-130750*
Y-118250*
X1035835Y-126584D02*
G01X1039865D01*
X1047150Y-130750D02*
G01Y-118250D01*
X1050870*
X1052110Y-118875*
X1053040Y-120333*
X1053350Y-122000*
X1053040Y-123667*
X1052265Y-124917*
X1050870Y-125542*
X1047150*
X1059550Y-118250D02*
G01Y-130750D01*
X1065750*
X1071175D02*
G01X1075050Y-118250D01*
X1078925Y-130750*
X1077530Y-126375D02*
G01X1072570D01*
X1087450Y-118250D02*
G01Y-130750D01*
X1083885Y-118250D02*
G01X1091015D01*
X1102950Y-130750D02*
G01X1096750D01*
Y-118250*
X1102950*
X1100470Y-124292D02*
G01X1096750D01*
X1108840Y-130750D02*
G01Y-118250D01*
X1111940*
X1113180Y-118875*
X1114110Y-119708*
X1114885Y-120958*
X1115505Y-122417*
X1115660Y-124500*
X1115505Y-126584*
X1114885Y-128042*
X1114110Y-129292*
X1113180Y-130125*
X1111940Y-130750*
X1108840*
X992900Y-12000D02*
G01Y-137000D01*
X1022350Y-105750D02*
G01Y-93250D01*
X1026070*
X1027310Y-93875*
X1028240Y-95333*
X1028550Y-97000*
X1028240Y-98667*
X1027465Y-99917*
X1026070Y-100542*
X1022350*
X1034750Y-93250D02*
G01Y-105750D01*
X1040950*
X1046375D02*
G01X1050250Y-93250D01*
X1054125Y-105750*
X1052730Y-101375D02*
G01X1047770D01*
X1062650Y-93250D02*
G01Y-105750D01*
X1059085Y-93250D02*
G01X1066215D01*
X1078150Y-105750D02*
G01X1071950D01*
Y-93250*
X1078150*
X1075670Y-99292D02*
G01X1071950D01*
X1084040Y-105750D02*
G01Y-93250D01*
X1087140*
X1088380Y-93875*
X1089310Y-94708*
X1090085Y-95958*
X1090705Y-97417*
X1090860Y-99500*
X1090705Y-101584*
X1090085Y-103042*
X1089310Y-104292*
X1088380Y-105125*
X1087140Y-105750*
X1084040*
X1022350Y-80750D02*
G01Y-68250D01*
X1026070*
X1027310Y-68875*
X1028240Y-70333*
X1028550Y-72000*
X1028240Y-73667*
X1027465Y-74917*
X1026070Y-75542*
X1022350*
X1034750Y-68250D02*
G01Y-80750D01*
X1040950*
X1046375D02*
G01X1050250Y-68250D01*
X1054125Y-80750*
X1052730Y-76375D02*
G01X1047770D01*
X1062650Y-68250D02*
G01Y-80750D01*
X1059085Y-68250D02*
G01X1066215D01*
X1078150Y-80750D02*
G01X1071950D01*
Y-68250*
X1078150*
X1075670Y-74292D02*
G01X1071950D01*
X1084040Y-80750D02*
G01Y-68250D01*
X1087140*
X1088380Y-68875*
X1089310Y-69708*
X1090085Y-70958*
X1090705Y-72417*
X1090860Y-74500*
X1090705Y-76584*
X1090085Y-78042*
X1089310Y-79292*
X1088380Y-80125*
X1087140Y-80750*
X1084040*
X1022350Y-55750D02*
G01Y-43250D01*
X1026070*
X1027310Y-43875*
X1028240Y-45333*
X1028550Y-47000*
X1028240Y-48667*
X1027465Y-49917*
X1026070Y-50542*
X1022350*
X1034750Y-43250D02*
G01Y-55750D01*
X1040950*
X1046375D02*
G01X1050250Y-43250D01*
X1054125Y-55750*
X1052730Y-51375D02*
G01X1047770D01*
X1062650Y-43250D02*
G01Y-55750D01*
X1059085Y-43250D02*
G01X1066215D01*
X1078150Y-55750D02*
G01X1071950D01*
Y-43250*
X1078150*
X1075670Y-49292D02*
G01X1071950D01*
X1084040Y-55750D02*
G01Y-43250D01*
X1087140*
X1088380Y-43875*
X1089310Y-44708*
X1090085Y-45958*
X1090705Y-47417*
X1090860Y-49500*
X1090705Y-51584*
X1090085Y-53042*
X1089310Y-54292*
X1088380Y-55125*
X1087140Y-55750*
X1084040*
X1022350Y-30750D02*
G01Y-18250D01*
X1026070*
X1027310Y-18875*
X1028240Y-20333*
X1028550Y-22000*
X1028240Y-23667*
X1027465Y-24917*
X1026070Y-25542*
X1022350*
X1034750Y-18250D02*
G01Y-30750D01*
X1040950*
X1046375D02*
G01X1050250Y-18250D01*
X1054125Y-30750*
X1052730Y-26375D02*
G01X1047770D01*
X1062650Y-18250D02*
G01Y-30750D01*
X1059085Y-18250D02*
G01X1066215D01*
X1078150Y-30750D02*
G01X1071950D01*
Y-18250*
X1078150*
X1075670Y-24292D02*
G01X1071950D01*
X1084040Y-30750D02*
G01Y-18250D01*
X1087140*
X1088380Y-18875*
X1089310Y-19708*
X1090085Y-20958*
X1090705Y-22417*
X1090860Y-24500*
X1090705Y-26584*
X1090085Y-28042*
X1089310Y-29292*
X1088380Y-30125*
X1087140Y-30750*
X1084040*
X1044650Y603700D02*
G01Y613700D01*
X1047775*
X1048775Y613200*
X1049400Y612533*
X1049650Y611200*
X1049400Y609867*
X1048650Y609033*
X1047775Y608533*
X1044650*
X1047775D02*
G01X1049650Y603700D01*
X1059650D02*
G01X1054650D01*
Y613700*
X1059650*
X1057650Y608867D02*
G01X1054650D01*
X1064025Y613700D02*
G01X1067150Y603700D01*
X1070275Y613700*
X1075650D02*
G01X1078650D01*
X1077150D02*
G01Y603700D01*
X1075650D02*
G01X1078650D01*
X1084525Y605033D02*
G01X1085525Y604200D01*
X1086650Y603700*
X1087650*
X1088650Y604200*
X1089400Y605033*
X1089775Y606200*
X1089525Y607366*
X1088900Y608367*
X1087775Y609033*
X1086275Y609367*
X1085400Y610033*
X1085025Y611200*
X1085275Y612367*
X1085900Y613200*
X1086775Y613700*
X1087650*
X1088525Y613367*
X1089275Y612533*
X1095650Y613700D02*
G01X1098650D01*
X1097150D02*
G01Y603700D01*
X1095650D02*
G01X1098650D01*
X1107150D02*
G01X1106150Y603867D01*
X1105275Y604533*
X1104525Y605533*
X1104025Y606700*
X1103775Y608033*
Y609367*
X1104025Y610700*
X1104525Y611867*
X1105275Y612866*
X1106150Y613533*
X1107150Y613700*
X1108150Y613533*
X1109025Y612866*
X1109775Y611867*
X1110275Y610700*
X1110525Y609367*
Y608033*
X1110275Y606700*
X1109775Y605533*
X1109025Y604533*
X1108150Y603867*
X1107150Y603700*
X1114275D02*
G01Y613700D01*
X1120025Y603700*
Y613700*
X1124525Y605033D02*
G01X1125525Y604200D01*
X1126650Y603700*
X1127650*
X1128650Y604200*
X1129400Y605033*
X1129775Y606200*
X1129525Y607366*
X1128900Y608367*
X1127775Y609033*
X1126275Y609367*
X1125400Y610033*
X1125025Y611200*
X1125275Y612367*
X1125900Y613200*
X1126775Y613700*
X1127650*
X1128525Y613367*
X1129275Y612533*
X1078400Y-386300D02*
G01Y-346300D01*
X1089400Y-361300D02*
G01Y-351300D01*
X1091900*
X1092900Y-351800*
X1093650Y-352467*
X1094275Y-353466*
X1094775Y-354634*
X1094900Y-356300*
X1094775Y-357967*
X1094275Y-359134*
X1093650Y-360134*
X1092900Y-360800*
X1091900Y-361300*
X1089400*
X1098400Y-351300D02*
G01X1100150Y-361300D01*
X1102150Y-351300*
X1104150Y-361300*
X1105900Y-351300*
X1112900Y-356300D02*
G01X1115400D01*
Y-359300*
X1114650Y-360300*
X1113775Y-360967*
X1112525Y-361300*
X1111275Y-360967*
X1110400Y-360300*
X1109650Y-359300*
X1109150Y-358133*
X1108900Y-356800*
Y-355633*
X1109150Y-354634*
X1109650Y-353466*
X1110400Y-352467*
X1111150Y-351800*
X1112150Y-351300*
X1113025*
X1114025Y-351633*
X1114775Y-352300*
X1129275Y-361300D02*
G01Y-351300D01*
X1135025Y-361300*
Y-351300*
X1142150Y-361300D02*
G01X1141150Y-361133D01*
X1140275Y-360467*
X1139525Y-359467*
X1139025Y-358300*
X1138775Y-356967*
Y-355633*
X1139025Y-354300*
X1139525Y-353133*
X1140275Y-352134*
X1141150Y-351467*
X1142150Y-351300*
X1143150Y-351467*
X1144025Y-352134*
X1144775Y-353133*
X1145275Y-354300*
X1145525Y-355633*
Y-356967*
X1145275Y-358300*
X1144775Y-359467*
X1144025Y-360467*
X1143150Y-361133*
X1142150Y-361300*
X1120000Y-12000D02*
G01Y-137000D01*
X1158400Y-416300D02*
G01Y-386300D01*
X1328400*
X1155805Y-120333D02*
G01X1156735Y-119084D01*
X1157820Y-118458*
X1159060Y-118250*
X1160610Y-118667*
X1161695Y-119708*
X1162005Y-120958*
X1161850Y-122209*
X1161230Y-123250*
X1158130Y-125333*
X1156735Y-126792*
X1155805Y-128875*
X1155495Y-130750*
X1162005*
X1149140Y-103875D02*
G01X1150070Y-104917D01*
X1151155Y-105542*
X1152550Y-105750*
X1153945Y-105333*
X1155030Y-104500*
X1155805Y-103042*
X1155960Y-101375*
X1155650Y-99709*
X1154875Y-98667*
X1153790Y-97834*
X1152705Y-97625*
X1151620Y-97834*
X1150225Y-98667*
X1150690Y-93250*
X1154875*
X1164950D02*
G01X1163710Y-93667D01*
X1162780Y-94708*
X1162160Y-95958*
X1161695Y-97625*
X1161540Y-99500*
X1161695Y-101375*
X1162160Y-103042*
X1162780Y-104292*
X1163710Y-105333*
X1164950Y-105750*
X1166190Y-105333*
X1167120Y-104292*
X1167740Y-103042*
X1168205Y-101375*
X1168360Y-99500*
X1168205Y-97625*
X1167740Y-95958*
X1167120Y-94708*
X1166190Y-93667*
X1164950Y-93250*
X1149605Y-70333D02*
G01X1150535Y-69084D01*
X1151620Y-68458*
X1152860Y-68250*
X1154410Y-68667*
X1155495Y-69708*
X1155805Y-70958*
X1155650Y-72209*
X1155030Y-73250*
X1151930Y-75333*
X1150535Y-76792*
X1149605Y-78875*
X1149295Y-80750*
X1155805*
X1161540Y-78875D02*
G01X1162470Y-79917D01*
X1163555Y-80542*
X1164950Y-80750*
X1166345Y-80333*
X1167430Y-79500*
X1168205Y-78042*
X1168360Y-76375*
X1168050Y-74708*
X1167275Y-73667*
X1166190Y-72834*
X1165105Y-72625*
X1164020Y-72834*
X1162625Y-73667*
X1163090Y-68250*
X1167275*
X1149605Y-45333D02*
G01X1150535Y-44084D01*
X1151620Y-43458*
X1152860Y-43250*
X1154410Y-43667*
X1155495Y-44708*
X1155805Y-45958*
X1155650Y-47209*
X1155030Y-48250*
X1151930Y-50333*
X1150535Y-51792*
X1149605Y-53875*
X1149295Y-55750*
X1155805*
X1166810D02*
G01Y-43250D01*
X1161075Y-52208*
X1168825*
X1146350Y-30750D02*
G01X1145110Y-30542D01*
X1144025Y-29709*
X1143095Y-28458*
X1142475Y-27000*
X1142165Y-25333*
Y-23667*
X1142475Y-22000*
X1143095Y-20542*
X1144025Y-19292*
X1145110Y-18458*
X1146350Y-18250*
X1147590Y-18458*
X1148675Y-19292*
X1149605Y-20542*
X1150225Y-22000*
X1150535Y-23667*
Y-25333*
X1150225Y-27000*
X1149605Y-28458*
X1148675Y-29709*
X1147590Y-30542*
X1146350Y-30750*
X1147590Y-27417D02*
G01X1149450Y-30750D01*
X1158750Y-18250D02*
G01Y-30750D01*
X1155185Y-18250D02*
G01X1162315D01*
X1171150Y-30750D02*
G01Y-25125D01*
X1168050Y-18250*
X1174250D02*
G01X1171150Y-25125D01*
X1138400Y533700D02*
G01Y503700D01*
Y523700D02*
G01Y563700D01*
Y563700D02*
G01Y593700D01*
X1169525Y-399967D02*
G01X1170525Y-400800D01*
X1171650Y-401300*
X1172650*
X1173650Y-400800*
X1174400Y-399967*
X1174775Y-398800*
X1174525Y-397634*
X1173900Y-396633*
X1172775Y-395967*
X1171275Y-395633*
X1170400Y-394967*
X1170025Y-393800*
X1170275Y-392633*
X1170900Y-391800*
X1171775Y-391300*
X1172650*
X1173525Y-391633*
X1174275Y-392467*
X1179525Y-401300D02*
G01Y-391300D01*
X1184775D02*
G01Y-401300D01*
Y-396300D02*
G01X1179525D01*
X1194650Y-401300D02*
G01X1189650D01*
Y-391300*
X1194650*
X1192650Y-396133D02*
G01X1189650D01*
X1204650Y-401300D02*
G01X1199650D01*
Y-391300*
X1204650*
X1202650Y-396133D02*
G01X1199650D01*
X1212150Y-391300D02*
G01Y-401300D01*
X1209275Y-391300D02*
G01X1215025D01*
X1164400Y573700D02*
G01Y583700D01*
X1166900*
X1167900Y583200*
X1168650Y582533*
X1169275Y581534*
X1169775Y580366*
X1169900Y578700*
X1169775Y577033*
X1169275Y575866*
X1168650Y574866*
X1167900Y574200*
X1166900Y573700*
X1164400*
X1174025D02*
G01X1177150Y583700D01*
X1180275Y573700*
X1179150Y577200D02*
G01X1175150D01*
X1187150Y583700D02*
G01Y573700D01*
X1184275Y583700D02*
G01X1190025D01*
X1199650Y573700D02*
G01X1194650D01*
Y583700*
X1199650*
X1197650Y578867D02*
G01X1194650D01*
X1228400Y533700D02*
G01Y503700D01*
Y533700D02*
G01Y563700D01*
Y563700D02*
G01Y593700D01*
X1239025Y573700D02*
G01X1242150Y583700D01*
X1245275Y573700*
X1244150Y577200D02*
G01X1240150D01*
X1249650Y573700D02*
G01Y583700D01*
X1252650*
X1253650Y583200*
X1254400Y582033*
X1254650Y580700*
X1254400Y579367*
X1253775Y578367*
X1252650Y577866*
X1249650*
X1259650Y573700D02*
G01Y583700D01*
X1262650*
X1263650Y583200*
X1264400Y582033*
X1264650Y580700*
X1264400Y579367*
X1263775Y578367*
X1262650Y577866*
X1259650*
X1269650Y573700D02*
G01Y583700D01*
X1272775*
X1273775Y583200*
X1274400Y582533*
X1274650Y581200*
X1274400Y579867*
X1273650Y579033*
X1272775Y578533*
X1269650*
X1272775D02*
G01X1274650Y573700D01*
X1282150D02*
G01X1281150Y573867D01*
X1280275Y574533*
X1279525Y575533*
X1279025Y576700*
X1278775Y578033*
Y579367*
X1279025Y580700*
X1279525Y581867*
X1280275Y582866*
X1281150Y583533*
X1282150Y583700*
X1283150Y583533*
X1284025Y582866*
X1284775Y581867*
X1285275Y580700*
X1285525Y579367*
Y578033*
X1285275Y576700*
X1284775Y575533*
X1284025Y574533*
X1283150Y573867*
X1282150Y573700*
X1289025Y583700D02*
G01X1292150Y573700D01*
X1295275Y583700*
X1304650Y573700D02*
G01X1299650D01*
Y583700*
X1304650*
X1302650Y578867D02*
G01X1299650D01*
X1309400Y573700D02*
G01Y583700D01*
X1311900*
X1312900Y583200*
X1313650Y582533*
X1314275Y581534*
X1314775Y580366*
X1314900Y578700*
X1314775Y577033*
X1314275Y575866*
X1313650Y574866*
X1312900Y574200*
X1311900Y573700*
X1309400*
X1328400Y623700D02*
G01Y503700D01*
M02*
