G04 CAM350/DFMSTREAM V12.1 (Build 1022) Date:  Mon Dec 28 22:30:29 2020 *
G04 Database: (Untitled) *
G04 Layer 5: SMT.art *
%FSLAX25Y25*%
%MOIN*%
%SFA1.000B1.000*%

%MIA0B0*%
%IPPOS*%
%AMMACRO21*
20,1,0.0177170,0.0187913,-0.0187913,-0.0187913,0.0187913,0.0000000*
%
%AMMACRO22*
20,1,0.0370000,-0.0123743,-0.0123743,0.0123743,0.0123743,0.0000000*
%
%AMMACRO20*
20,1,0.0177170,-0.0187913,-0.0187913,0.0187913,0.0187913,0.0000000*
%
%ADD11C,0.00600*%
%ADD31R,0.03700X0.03500*%
%ADD33R,0.03500X0.03700*%
%ADD34C,0.03600*%
%ADD35C,0.02800*%
%ADD36C,0.03165*%
%ADD37C,0.06575*%
%ADD38R,0.06575X0.06575*%
%ADD39MACRO21*%
%ADD40R,0.08465X0.24213*%
%ADD41R,0.08071X0.13209*%
%ADD42MACRO22*%
%ADD43MACRO20*%
%ADD44R,0.05315X0.04528*%
%ADD45R,0.05905X0.02165*%
%ADD46R,0.08071X0.05709*%
%ADD47R,0.07283X0.06496*%
%ADD101C,0.02600*%
%ADD103C,0.08000*%
%ADD105C,0.12000*%
%LNSMT.art*%
%LPD*%
G54D37*
X13268Y7744D03*
Y110366D03*
X23268Y7744D03*
X33268D03*
X43268D03*
X23268Y110366D03*
X33268D03*
X43268D03*
X53268Y7744D03*
X63268D03*
X73268D03*
X72100Y90700D03*
X62100D03*
X72100Y80700D03*
X53268Y110366D03*
X63268D03*
X73268D03*
X83268Y7744D03*
X93268D03*
X103268D03*
X82100Y90700D03*
Y80700D03*
X83268Y110366D03*
X93268D03*
X103268D03*
X113268Y7744D03*
X123268D03*
X133268D03*
X113268Y110366D03*
X123268D03*
X133268D03*
X143268Y7744D03*
X153268D03*
X163268D03*
X143268Y110366D03*
X153268D03*
X163268D03*
X173268Y7744D03*
X183268D03*
X193268D03*
X173268Y110366D03*
X183268D03*
X193268D03*
X204791Y44055D03*
Y54055D03*
Y64055D03*
G54D43*
X108700Y40960D03*
X107308Y42352D03*
X105916Y43744D03*
X104524Y45136D03*
X103132Y46528D03*
X101740Y47920D03*
X100348Y49312D03*
X98956Y50704D03*
X97564Y52095D03*
X96172Y53487D03*
X94780Y54879D03*
X110092Y39568D03*
X124011Y72975D03*
X125403Y71583D03*
X126795Y70191D03*
X128187Y68799D03*
X129579Y67407D03*
X130971Y66015D03*
X132363Y64623D03*
X133755Y63231D03*
X118443Y78542D03*
X119836Y77150D03*
X121227Y75758D03*
X122619Y74366D03*
G54D41*
X11583Y47116D03*
Y70994D03*
G54D45*
X22114Y53937D03*
Y56496D03*
Y59055D03*
Y61614D03*
Y64173D03*
G54D39*
X94780Y63231D03*
X96172Y64623D03*
X97564Y66015D03*
X98956Y67407D03*
X100348Y68799D03*
X101740Y70191D03*
X103132Y71583D03*
X104524Y72975D03*
X105916Y74366D03*
X107308Y75758D03*
X108700Y77150D03*
X122619Y43744D03*
X121227Y42352D03*
X119836Y40960D03*
X118443Y39568D03*
X133755Y54879D03*
X132363Y53487D03*
X130971Y52095D03*
X129579Y50704D03*
X128187Y49312D03*
X126795Y47920D03*
X125403Y46528D03*
X124011Y45136D03*
X110092Y78542D03*
G54D36*
X20047Y51181D03*
Y66929D03*
G54D42*
X137326Y78426D03*
X136774Y86274D03*
X133026Y82526D03*
X141074Y82174D03*
G54D34*
X16000Y58000D03*
X19000Y77900D03*
X25000Y48000D03*
X28500Y69100D03*
X25300Y72600D03*
X31800D03*
X23000Y89800D03*
X42400Y80500D03*
Y76900D03*
X64700Y32800D03*
X55300Y85450D03*
X51100D03*
X53200Y81300D03*
X103700Y63300D03*
X89900Y65900D03*
X115050Y34850D03*
X114000Y44700D03*
X131124Y58624D03*
X116300Y71900D03*
X127900Y78200D03*
X143543Y53443D03*
X139600Y49600D03*
X142900Y88300D03*
X189800Y23550D03*
X204400Y30500D03*
G54D40*
X159449Y38583D03*
Y79528D03*
G54D47*
X196800Y32199D03*
Y19601D03*
X199400Y85001D03*
Y97599D03*
G54D33*
X31650Y57500D03*
X36950D03*
X31650Y63500D03*
X36950D03*
X41050Y95600D03*
X35750D03*
X41150Y85400D03*
X35850D03*
G54D46*
X187899Y69927D03*
X175301D03*
X187899Y48273D03*
X175301D03*
G54D35*
X42895Y62870D03*
Y59130D03*
X45000Y95000D03*
X76700Y65550D03*
X83400Y28600D03*
X108250Y22750D03*
X105400Y28000D03*
X108161Y54668D03*
X82400Y100900D03*
X118600Y26700D03*
X115650Y61950D03*
X112325Y54668D03*
X118000Y55100D03*
X134800Y74000D03*
X130476Y85076D03*
X139800Y64900D03*
X140300Y70600D03*
X159449Y62200D03*
Y56200D03*
X139652Y75900D03*
X175000Y64000D03*
X168073Y69927D03*
X193800Y97600D03*
X202701Y19601D03*
G54D31*
X46700Y85450D03*
Y90750D03*
X72200Y65550D03*
Y70850D03*
X196200Y68650D03*
Y73950D03*
G54D44*
X58139Y28600D03*
X88061D03*
G54D38*
X62100Y80700D03*
X203268Y7744D03*
X204791Y74055D03*
X203268Y110366D03*
G54D37*
X13268Y135854D03*
Y238476D03*
X23268Y135854D03*
X33268D03*
X43268D03*
X23268Y238476D03*
X33268D03*
X43268D03*
X53268Y135854D03*
X63268D03*
X73268D03*
X72100Y218810D03*
X62100D03*
X72100Y208810D03*
X53268Y238476D03*
X63268D03*
X73268D03*
X83268Y135854D03*
X93268D03*
X103268D03*
X82100Y218810D03*
Y208810D03*
X83268Y238476D03*
X93268D03*
X103268D03*
X113268Y135854D03*
X123268D03*
X133268D03*
X113268Y238476D03*
X123268D03*
X133268D03*
X143268Y135854D03*
X153268D03*
X163268D03*
X143268Y238476D03*
X153268D03*
X163268D03*
X173268Y135854D03*
X183268D03*
X193268D03*
X173268Y238476D03*
X183268D03*
X193268D03*
X204791Y172165D03*
Y182165D03*
Y192165D03*
G54D43*
X108700Y169070D03*
X107308Y170462D03*
X105916Y171854D03*
X104524Y173246D03*
X103132Y174638D03*
X101740Y176030D03*
X100348Y177422D03*
X98956Y178814D03*
X97564Y180205D03*
X96172Y181597D03*
X94780Y182989D03*
X110092Y167678D03*
X124011Y201085D03*
X125403Y199693D03*
X126795Y198301D03*
X128187Y196909D03*
X129579Y195517D03*
X130971Y194125D03*
X132363Y192733D03*
X133755Y191341D03*
X118443Y206652D03*
X119836Y205260D03*
X121227Y203868D03*
X122619Y202476D03*
G54D41*
X11583Y175226D03*
Y199104D03*
G54D45*
X22114Y182047D03*
Y184606D03*
Y187165D03*
Y189724D03*
Y192283D03*
G54D39*
X94780Y191341D03*
X96172Y192733D03*
X97564Y194125D03*
X98956Y195517D03*
X100348Y196909D03*
X101740Y198301D03*
X103132Y199693D03*
X104524Y201085D03*
X105916Y202476D03*
X107308Y203868D03*
X108700Y205260D03*
X122619Y171854D03*
X121227Y170462D03*
X119836Y169070D03*
X118443Y167678D03*
X133755Y182989D03*
X132363Y181597D03*
X130971Y180205D03*
X129579Y178814D03*
X128187Y177422D03*
X126795Y176030D03*
X125403Y174638D03*
X124011Y173246D03*
X110092Y206652D03*
G54D36*
X20047Y179291D03*
Y195039D03*
G54D42*
X137326Y206536D03*
X136774Y214384D03*
X133026Y210636D03*
X141074Y210284D03*
G54D34*
X16000Y186110D03*
X19000Y206010D03*
X25000Y176110D03*
X28500Y197210D03*
X25300Y200710D03*
X31800D03*
X23000Y217910D03*
X42400Y208610D03*
Y205010D03*
X64700Y160910D03*
X55300Y213560D03*
X51100D03*
X53200Y209410D03*
X103700Y191410D03*
X89900Y194010D03*
X115050Y162960D03*
X114000Y172810D03*
X131124Y186734D03*
X116300Y200010D03*
X127900Y206310D03*
X143543Y181553D03*
X139600Y177710D03*
X142900Y216410D03*
X189800Y151660D03*
X204400Y158610D03*
G54D40*
X159449Y166693D03*
Y207638D03*
G54D47*
X196800Y160309D03*
Y147711D03*
X199400Y213111D03*
Y225709D03*
G54D33*
X31650Y185610D03*
X36950D03*
X31650Y191610D03*
X36950D03*
X41050Y223710D03*
X35750D03*
X41150Y213510D03*
X35850D03*
G54D46*
X187899Y198037D03*
X175301D03*
X187899Y176383D03*
X175301D03*
G54D35*
X42895Y190980D03*
Y187240D03*
X45000Y223110D03*
X76700Y193660D03*
X83400Y156710D03*
X108250Y150860D03*
X105400Y156110D03*
X108161Y182778D03*
X82400Y229010D03*
X118600Y154810D03*
X115650Y190060D03*
X112325Y182778D03*
X118000Y183210D03*
X134800Y202110D03*
X130476Y213186D03*
X139800Y193010D03*
X140300Y198710D03*
X159449Y190310D03*
Y184310D03*
X139652Y204010D03*
X175000Y192110D03*
X168073Y198037D03*
X193800Y225710D03*
X202701Y147711D03*
G54D31*
X46700Y213560D03*
Y218860D03*
X72200Y193660D03*
Y198960D03*
X196200Y196760D03*
Y202060D03*
G54D44*
X58139Y156710D03*
X88061D03*
G54D38*
X62100Y208810D03*
X203268Y135854D03*
X204791Y202165D03*
X203268Y238476D03*
G54D101*
X27068Y119110D03*
X189468D03*
X31068D03*
X35068D03*
X39068D03*
X43068D03*
X185468D03*
X181468D03*
X177468D03*
X173468D03*
X108270D03*
X104270D03*
X100270D03*
X112270D03*
X116270D03*
X27068Y127110D03*
X189468D03*
X31068D03*
X35068D03*
X39068D03*
X43068D03*
X185468D03*
X181468D03*
X177468D03*
X173468D03*
X108270D03*
X104270D03*
X100270D03*
X112270D03*
X116270D03*
X27068Y247220D03*
X189468D03*
X31068D03*
X35068D03*
X39068D03*
X43068D03*
X185468D03*
X181468D03*
X177468D03*
X173468D03*
X108270D03*
X104270D03*
X100270D03*
X112270D03*
X116270D03*
X27068Y-1000D03*
X189468D03*
X31068D03*
X35068D03*
X39068D03*
X43068D03*
X185468D03*
X181468D03*
X177468D03*
X173468D03*
X108270D03*
X104270D03*
X100270D03*
X112270D03*
X116270D03*
G54D105*
X20000Y266220D03*
X196535D03*
X20000Y-20000D03*
X196535D03*
G54D103*
X50000Y266220D03*
Y-20000D03*
X166535D03*
G54D11*
X0Y0D02*
G01X216535D01*
Y118110*
X0*
Y0*
Y128110D02*
G01X216535D01*
Y246220*
X0*
Y128110*
X100179Y249443D02*
G01X100128Y249943D01*
X99997Y250428*
X99792Y250886*
X99517Y251305*
X99178Y251676*
X98785Y251988*
X98348Y252234*
X97877Y252408*
X97384Y252505*
X97025Y252525*
X46245*
X45745Y252485*
X45257Y252366*
X44794Y252172*
X44368Y251906*
X43990Y251576*
X43668Y251191*
X43412Y250759*
X43228Y250292*
X43120Y249802*
X43091Y249297*
X43142Y248797*
X43273Y248312*
X43478Y247854*
X43753Y247435*
X44092Y247064*
X44485Y246752*
X44922Y246506*
X45393Y246332*
X45886Y246235*
X46245Y246215*
X97025*
X97525Y246255*
X98013Y246374*
X98476Y246568*
X98902Y246834*
X99280Y247164*
X99602Y247549*
X99858Y247981*
X100042Y248448*
X100150Y248938*
X100179Y249443*
X173471D02*
G01X173420Y249943D01*
X173289Y250428*
X173084Y250886*
X172809Y251305*
X172470Y251676*
X172077Y251988*
X171640Y252234*
X171169Y252408*
X170676Y252505*
X170317Y252525*
X119325*
X118825Y252485*
X118337Y252366*
X117874Y252172*
X117448Y251906*
X117070Y251576*
X116748Y251191*
X116492Y250759*
X116308Y250292*
X116200Y249802*
X116171Y249297*
X116222Y248797*
X116353Y248312*
X116558Y247854*
X116833Y247435*
X117172Y247064*
X117565Y246752*
X118002Y246506*
X118473Y246332*
X118966Y246235*
X119325Y246215*
X170317*
X170817Y246255*
X171305Y246374*
X171768Y246568*
X172194Y246834*
X172572Y247164*
X172894Y247549*
X173150Y247981*
X173334Y248448*
X173442Y248938*
X173471Y249443*
X99667Y123251D02*
G01X99905Y123694D01*
X100069Y124168*
X100156Y124662*
X100163Y125164*
X100091Y125661*
X99941Y126140*
X99717Y126589*
X99424Y126997*
X99071Y127353*
X98665Y127649*
X98218Y127877*
X97740Y128031*
X97244Y128107*
X97015Y128115*
X46217*
X45717Y128075*
X45229Y127956*
X44766Y127762*
X44340Y127496*
X43962Y127166*
X43640Y126781*
X43384Y126349*
X43200Y125882*
X43092Y125392*
X43063Y124891*
X43114Y124391*
X43243Y123906*
X43448Y123448*
X43662Y123109*
X43401Y122680*
X43211Y122216*
X43098Y121727*
X43063Y121226*
X43109Y120726*
X43233Y120239*
X43432Y119779*
X43702Y119356*
X44036Y118981*
X44425Y118664*
X44860Y118412*
X45329Y118233*
X45820Y118130*
X46218Y118105*
X97220*
X97720Y118145*
X98208Y118264*
X98671Y118458*
X99097Y118724*
X99475Y119054*
X99797Y119439*
X100053Y119871*
X100237Y120338*
X100345Y120828*
X100374Y121329*
X100323Y121829*
X100194Y122314*
X99989Y122772*
X99714Y123192*
X99667Y123251*
X172873Y123111D02*
G01X173134Y123540D01*
X173324Y124004*
X173437Y124493*
X173472Y124994*
X173426Y125494*
X173302Y125981*
X173103Y126441*
X172833Y126864*
X172499Y127239*
X172110Y127556*
X171675Y127808*
X171206Y127987*
X170715Y128090*
X170317Y128115*
X119315*
X118815Y128075*
X118327Y127956*
X117864Y127762*
X117438Y127496*
X117060Y127166*
X116738Y126781*
X116482Y126349*
X116298Y125882*
X116190Y125392*
X116161Y124891*
X116212Y124391*
X116341Y123906*
X116546Y123448*
X116821Y123028*
X116868Y122969*
X116630Y122526*
X116466Y122052*
X116379Y121558*
X116372Y121056*
X116444Y120559*
X116594Y120080*
X116818Y119631*
X117111Y119223*
X117464Y118867*
X117870Y118571*
X118317Y118343*
X118795Y118189*
X119291Y118113*
X119520Y118105*
X170318*
X170818Y118145*
X171306Y118264*
X171769Y118458*
X172195Y118724*
X172573Y119054*
X172895Y119439*
X173151Y119871*
X173335Y120338*
X173443Y120828*
X173472Y121329*
X173421Y121829*
X173292Y122314*
X173087Y122772*
X172873Y123111*
X100364Y-3077D02*
G01X100313Y-2577D01*
X100182Y-2092*
X99977Y-1634*
X99702Y-1215*
X99363Y-844*
X98970Y-532*
X98533Y-286*
X98062Y-112*
X97569Y-15*
X97210Y5*
X46218*
X45718Y-35*
X45230Y-154*
X44767Y-348*
X44341Y-614*
X43963Y-944*
X43641Y-1329*
X43385Y-1761*
X43201Y-2228*
X43093Y-2718*
X43064Y-3223*
X43115Y-3723*
X43246Y-4208*
X43451Y-4666*
X43726Y-5085*
X44065Y-5456*
X44458Y-5768*
X44895Y-6014*
X45366Y-6188*
X45859Y-6285*
X46218Y-6305*
X97210*
X97710Y-6265*
X98198Y-6146*
X98661Y-5952*
X99087Y-5686*
X99465Y-5356*
X99787Y-4971*
X100043Y-4539*
X100227Y-4072*
X100335Y-3582*
X100364Y-3077*
X173444D02*
G01X173393Y-2577D01*
X173262Y-2092*
X173057Y-1634*
X172782Y-1215*
X172443Y-844*
X172050Y-532*
X171613Y-286*
X171142Y-112*
X170649Y-15*
X170290Y5*
X119510*
X119010Y-35*
X118522Y-154*
X118059Y-348*
X117633Y-614*
X117255Y-944*
X116933Y-1329*
X116677Y-1761*
X116493Y-2228*
X116385Y-2718*
X116356Y-3223*
X116407Y-3723*
X116538Y-4208*
X116743Y-4666*
X117018Y-5085*
X117357Y-5456*
X117750Y-5768*
X118187Y-6014*
X118658Y-6188*
X119151Y-6285*
X119510Y-6305*
X170290*
X170790Y-6265*
X171278Y-6146*
X171741Y-5952*
X172167Y-5686*
X172545Y-5356*
X172867Y-4971*
X173123Y-4539*
X173307Y-4072*
X173415Y-3582*
X173444Y-3077*
X0Y-6305D02*
G01X23918D01*
X24418Y-6265*
X24906Y-6146*
X25369Y-5952*
X25795Y-5686*
X26173Y-5356*
X26495Y-4971*
X26751Y-4539*
X26935Y-4072*
X27043Y-3582*
X27072Y-3077*
Y-3077D02*
G01X27021Y-2577D01*
X26890Y-2092*
X26685Y-1634*
X26410Y-1215*
X26071Y-844*
X25678Y-532*
X25241Y-286*
X24770Y-112*
X24277Y-15*
X23918Y5*
X5*
Y118105*
X23918*
X24418Y118145*
X24906Y118264*
X25369Y118458*
X25795Y118724*
X26173Y119054*
X26495Y119439*
X26751Y119871*
X26935Y120338*
X27043Y120828*
X27072Y121329*
X27021Y121829*
X26892Y122314*
X26687Y122772*
X26473Y123111*
X26734Y123540*
X26924Y124004*
X27037Y124493*
X27072Y124994*
X27026Y125494*
X26902Y125981*
X26703Y126441*
X26433Y126864*
X26099Y127239*
X25710Y127556*
X25275Y127808*
X24806Y127987*
X24315Y128090*
X23917Y128115*
X0*
Y246215*
X23945*
X24445Y246255*
X24933Y246374*
X25396Y246568*
X25822Y246834*
X26200Y247164*
X26522Y247549*
X26778Y247981*
X26962Y248448*
X27070Y248938*
X27099Y249443*
X27048Y249943*
X26917Y250428*
X26712Y250886*
X26437Y251305*
X26098Y251676*
X25705Y251988*
X25268Y252234*
X24797Y252408*
X24304Y252505*
X23945Y252525*
X0*
X216535D02*
G01X192617D01*
X192117Y252485*
X191629Y252366*
X191166Y252172*
X190740Y251906*
X190362Y251576*
X190040Y251191*
X189784Y250759*
X189600Y250292*
X189492Y249802*
X189463Y249297*
X189514Y248797*
X189645Y248312*
X189850Y247854*
X190125Y247435*
X190464Y247064*
X190857Y246752*
X191294Y246506*
X191765Y246332*
X192258Y246235*
X192617Y246215*
X216530*
Y128115*
X192617*
X192117Y128075*
X191629Y127956*
X191166Y127762*
X190740Y127496*
X190362Y127166*
X190040Y126781*
X189784Y126349*
X189600Y125882*
X189492Y125392*
X189463Y124891*
X189514Y124391*
X189643Y123906*
X189848Y123448*
X190062Y123109*
X189801Y122680*
X189611Y122216*
X189498Y121727*
X189463Y121226*
X189509Y120726*
X189633Y120239*
X189832Y119779*
X190102Y119356*
X190436Y118981*
X190825Y118664*
X191260Y118412*
X191729Y118233*
X192220Y118130*
X192618Y118105*
X216535*
Y5*
X192590*
X192090Y-35*
X191602Y-154*
X191139Y-348*
X190713Y-614*
X190335Y-944*
X190013Y-1329*
X189757Y-1761*
X189573Y-2228*
X189465Y-2718*
X189436Y-3223*
X189487Y-3723*
X189618Y-4208*
X189823Y-4666*
X190098Y-5085*
X190437Y-5456*
X190830Y-5768*
X191267Y-6014*
X191738Y-6188*
X192231Y-6285*
X192590Y-6305*
X216535*
X0Y0D02*
G01X216535D01*
Y118110*
X0*
Y0*
Y128110D02*
G01X216535D01*
Y246220*
X0*
Y128110*
Y252525D02*
G01Y286220D01*
Y286220D02*
G01X216535D01*
Y252525*
Y-6305D02*
G01Y-40000D01*
X0*
Y-6305*
Y5D02*
G01Y118108D01*
Y128115D02*
G01Y246219D01*
X216535Y246212D02*
G01Y128115D01*
Y118109D02*
G01Y5D01*
M02*
