G04 CAM350/DFMSTREAM V12.1 (Build 1022) Date:  Mon Dec 28 22:43:55 2020 *
G04 Database: (Untitled) *
G04 Layer 10: SST.art *
%FSLAX25Y25*%
%MOIN*%
%SFA1.000B1.000*%

%MIA0B0*%
%IPPOS*%
%ADD11C,0.00600*%
%ADD56C,0.00300*%
%LNSST.art*%
%LPD*%
G36*
X136539Y194125D02*
G01Y198301D01*
X140715Y194125*
X136539*
G37*
G36*
Y66015D02*
G01Y70191D01*
X140715Y66015*
X136539*
G37*
G36*
X210079Y136110D02*
G01X215000Y141031D01*
Y131189*
X210079Y136110*
G37*
G36*
Y8000D02*
G01X215000Y12921D01*
Y3079*
X210079Y8000*
G37*
G36*
X209520Y209630D02*
G01Y216590D01*
X216480Y209630*
X209520*
G37*
G36*
Y81520D02*
G01Y88480D01*
X216480Y81520*
X209520*
G37*
G36*
X27660Y202570D02*
G01Y209530D01*
X34620Y202570*
X27660*
G37*
G36*
Y74460D02*
G01Y81420D01*
X34620Y74460*
X27660*
G37*
G36*
X209539Y111000D02*
G01X214461Y115921D01*
Y106079*
X209539Y111000*
G37*
G36*
X54384Y195109D02*
G01X61273Y201999D01*
X68163Y195109*
X54384*
G37*
G36*
Y66999D02*
G01X61273Y73889D01*
X68163Y66999*
X54384*
G37*
G36*
X170110Y210955D02*
G01X183890D01*
X177000Y204065*
X170110Y210955*
G37*
G36*
Y82845D02*
G01X183890D01*
X177000Y75955*
X170110Y82845*
G37*
G54D56*
X-2197Y60039D02*
G01X-7118Y64961D01*
Y62008*
X-11055*
Y58071*
X-7118*
Y55118*
X-2197Y60039*
X8268Y12488D02*
G01Y3000D01*
X208268*
Y12488*
X8268*
X22665Y73622D02*
G01Y44488D01*
X500*
Y73622*
X22665*
X8268Y115110D02*
G01Y105622D01*
X208268*
Y115110*
X8268*
X29300Y60000D02*
G01X39300D01*
Y55000*
X29300*
Y60000*
Y66000D02*
G01X39300D01*
Y61000*
X29300*
Y66000*
X42800Y93100D02*
G01X34000D01*
X33400Y93700D02*
G75*
G03X34000Y93100I600D01*
X33400Y93700D02*
G01Y97500D01*
X34000Y98100D02*
G03X33400Y97500J-600D01*
X34000Y98100D02*
G01X42800D01*
X43400Y97500D02*
G03X42800Y98100I-600D01*
X43400Y97500D02*
G01Y93700D01*
X42800Y93100D02*
G03X43400Y93700J600D01*
X42900Y82900D02*
G01X34100D01*
X33500Y83500D02*
G03X34100Y82900I600D01*
X33500Y83500D02*
G01Y87300D01*
X34100Y87900D02*
G03X33500Y87300J-600D01*
X34100Y87900D02*
G01X42900D01*
X43500Y87300D02*
G03X42900Y87900I-600D01*
X43500Y87300D02*
G01Y83500D01*
X42900Y82900D02*
G03X43500Y83500J600D01*
X44200Y83700D02*
G01Y92500D01*
X44800Y93100D02*
G03X44200Y92500J-600D01*
X44800Y93100D02*
G01X48600D01*
X49200Y92500D02*
G03X48600Y93100I-600D01*
X49200Y92500D02*
G01Y83700D01*
X48600Y83100D02*
G03X49200Y83700J600D01*
X48600Y83100D02*
G01X44800D01*
X44200Y83700D02*
G03X44800Y83100I600D01*
X57352Y21513D02*
G01X88848D01*
Y35687*
X57352*
Y21513*
X69700Y63200D02*
G01Y73200D01*
X74700*
Y63200*
X69700*
X56116Y95700D02*
G01X88084D01*
Y75700*
X56116*
Y95700*
X114268Y78542D02*
G01X94780Y59055D01*
X114268Y39568*
X133755Y59055*
X114268Y78542*
X144079Y81643D02*
G01X137856Y75421D01*
X137008D02*
G03X137856Y75421I424J424D01*
X137008D02*
G01X134321Y78108D01*
Y78956D02*
G03X134321Y78108I424J-424D01*
Y78956D02*
G01X140544Y85179D01*
X141392D02*
G03X140544Y85179I-424J-424D01*
X141392D02*
G01X144079Y82492D01*
Y81643D02*
G03X144079Y82492I-424J424D01*
X139779Y85744D02*
G01X133556Y79521D01*
X132708D02*
G03X133556Y79521I424J424D01*
X132708D02*
G01X130021Y82208D01*
Y83057D02*
G03X130021Y82208I424J-425D01*
Y83057D02*
G01X136244Y89279D01*
X137092D02*
G03X136244Y89279I-424J-424D01*
X137092D02*
G01X139779Y86592D01*
Y85744D02*
G03X139779Y86592I-424J424D01*
X168701Y34843D02*
G01Y83268D01*
X150197*
Y34843*
X168701*
X199753Y19601D02*
G01Y32199D01*
X193847*
Y19601*
X199753*
X189080Y74848D02*
G01Y43352D01*
X174120*
Y74848*
X189080*
X198700Y75700D02*
G01Y66900D01*
X198100Y66300D02*
G03X198700Y66900J600D01*
X198100Y66300D02*
G01X194300D01*
X193700Y66900D02*
G03X194300Y66300I600D01*
X193700Y66900D02*
G01Y75700D01*
X194300Y76300D02*
G03X193700Y75700J-600D01*
X194300Y76300D02*
G01X198100D01*
X198700Y75700D02*
G03X198100Y76300I-600D01*
X203200Y25000D02*
G01Y28500D01*
X201200Y23000D02*
G01X205200D01*
X203200D02*
G01X205200Y25000D01*
X201200*
X203200Y23000*
Y21500*
X200047Y39055D02*
G01X209535D01*
Y79055*
X200047*
Y39055*
X204900Y91300D02*
G01Y87800D01*
X206900Y93300D02*
G01X202900D01*
X204900D02*
G01X202900Y91300D01*
X206900*
X204900Y93300*
Y94800*
X196447Y97599D02*
G01Y85001D01*
X202353*
Y97599*
X196447*
G54D11*
X7207Y15103D02*
G01X7360Y15258D01*
X7475Y15517*
X7552Y15878*
X7475Y16188*
X7322Y16395*
X7053Y16550*
X6018*
Y13450*
X7283*
X7552Y13657*
X7705Y13967*
X7782Y14328*
X7705Y14690*
X7475Y15000*
X7207Y15103*
X6018*
X10000Y13450D02*
G01Y16550D01*
X9540Y15930*
Y13450D02*
G01X10460D01*
X12372Y16033D02*
G01X12602Y16343D01*
X12870Y16498*
X13177Y16550*
X13560Y16447*
X13828Y16188*
X13905Y15878*
X13867Y15568*
X13713Y15310*
X12947Y14793*
X12602Y14432*
X12372Y13915*
X12295Y13450*
X13905*
X18207Y15103D02*
G01X18360Y15258D01*
X18475Y15517*
X18552Y15878*
X18475Y16188*
X18322Y16395*
X18053Y16550*
X17018*
Y13450*
X18283*
X18552Y13657*
X18705Y13967*
X18782Y14328*
X18705Y14690*
X18475Y15000*
X18207Y15103*
X17018*
X21000Y13450D02*
G01Y16550D01*
X20540Y15930*
Y13450D02*
G01X21460D01*
X23257Y14070D02*
G01X23487Y13708D01*
X23793Y13502*
X24138Y13450*
X24445Y13502*
X24752Y13760*
X24943Y14070*
X24982Y14380*
X24905Y14742*
X24637Y15000*
X24368Y15103*
X24023*
X24368D02*
G01X24598Y15258D01*
X24790Y15517*
X24867Y15827*
X24790Y16137*
X24598Y16395*
X24253Y16550*
X23908Y16498*
X23563Y16292*
X1822Y8533D02*
G01X2052Y8843D01*
X2320Y8998*
X2627Y9050*
X3010Y8947*
X3278Y8688*
X3355Y8378*
X3317Y8068*
X3163Y7810*
X2397Y7293*
X2052Y6932*
X1822Y6415*
X1745Y5950*
X3355*
X5650Y9050D02*
G01X5343Y8947D01*
X5113Y8688*
X4960Y8378*
X4845Y7965*
X4807Y7500*
X4845Y7035*
X4960Y6622*
X5113Y6312*
X5343Y6053*
X5650Y5950*
X5957Y6053*
X6187Y6312*
X6340Y6622*
X6455Y7035*
X6493Y7500*
X6455Y7965*
X6340Y8378*
X6187Y8688*
X5957Y8947*
X5650Y9050*
X21593Y97883D02*
G01X21213Y98133D01*
X20770Y98300*
X20263*
X19693Y98050*
X19250Y97633*
X18933Y97133*
X18680Y96300*
X18617Y95550*
X18743Y94800*
X18933Y94300*
X19313Y93800*
X19757Y93467*
X20200Y93300*
X20643*
X21087Y93467*
X21467Y93717*
X21783Y94050*
X25300Y93300D02*
G01Y98300D01*
X24540Y97300*
Y93300D02*
G01X26060D01*
X30400Y98300D02*
G01X29893Y98133D01*
X29513Y97717*
X29260Y97217*
X29070Y96550*
X29007Y95800*
X29070Y95050*
X29260Y94383*
X29513Y93883*
X29893Y93467*
X30400Y93300*
X30907Y93467*
X31287Y93883*
X31540Y94383*
X31730Y95050*
X31793Y95800*
X31730Y96550*
X31540Y97217*
X31287Y97717*
X30907Y98133*
X30400Y98300*
X6057Y85700D02*
G01Y82117D01*
X6310Y81366*
X6817Y80867*
X7450Y80700*
X8083Y80867*
X8590Y81366*
X8843Y82117*
Y85700*
X11157Y81700D02*
G01X11537Y81117D01*
X12043Y80783*
X12613Y80700*
X13120Y80783*
X13627Y81200*
X13943Y81700*
X14007Y82200*
X13880Y82783*
X13437Y83200*
X12993Y83367*
X12423*
X12993D02*
G01X13373Y83617D01*
X13690Y84033*
X13817Y84533*
X13690Y85033*
X13373Y85450*
X12803Y85700*
X12233Y85617*
X11663Y85283*
X13230Y104000D02*
G01X13997D01*
Y103070*
X13767Y102760*
X13498Y102553*
X13115Y102450*
X12732Y102553*
X12463Y102760*
X12233Y103070*
X12080Y103432*
X12003Y103845*
Y104207*
X12080Y104517*
X12233Y104878*
X12463Y105188*
X12693Y105395*
X13000Y105550*
X13268*
X13575Y105447*
X13805Y105240*
X1722Y111033D02*
G01X1952Y111343D01*
X2220Y111498*
X2527Y111550*
X2910Y111447*
X3178Y111188*
X3255Y110878*
X3217Y110568*
X3063Y110310*
X2297Y109793*
X1952Y109432*
X1722Y108915*
X1645Y108450*
X3255*
X5550Y111550D02*
G01X5243Y111447D01*
X5013Y111188*
X4860Y110878*
X4745Y110465*
X4707Y110000*
X4745Y109535*
X4860Y109122*
X5013Y108812*
X5243Y108553*
X5550Y108450*
X5857Y108553*
X6087Y108812*
X6240Y109122*
X6355Y109535*
X6393Y110000*
X6355Y110465*
X6240Y110878*
X6087Y111188*
X5857Y111447*
X5550Y111550*
X29207Y15103D02*
G01X29360Y15258D01*
X29475Y15517*
X29552Y15878*
X29475Y16188*
X29322Y16395*
X29053Y16550*
X28018*
Y13450*
X29283*
X29552Y13657*
X29705Y13967*
X29782Y14328*
X29705Y14690*
X29475Y15000*
X29207Y15103*
X28018*
X32000Y13450D02*
G01Y16550D01*
X31540Y15930*
Y13450D02*
G01X32460D01*
X35560D02*
G01Y16550D01*
X34142Y14328*
X36058*
X40207Y15103D02*
G01X40360Y15258D01*
X40475Y15517*
X40552Y15878*
X40475Y16188*
X40322Y16395*
X40053Y16550*
X39018*
Y13450*
X40283*
X40552Y13657*
X40705Y13967*
X40782Y14328*
X40705Y14690*
X40475Y15000*
X40207Y15103*
X39018*
X43000Y13450D02*
G01Y16550D01*
X42540Y15930*
Y13450D02*
G01X43460D01*
X45257Y13915D02*
G01X45487Y13657D01*
X45755Y13502*
X46100Y13450*
X46445Y13553*
X46713Y13760*
X46905Y14122*
X46943Y14535*
X46867Y14948*
X46675Y15207*
X46407Y15413*
X46138Y15465*
X45870Y15413*
X45525Y15207*
X45640Y16550*
X46675*
X29533Y26500D02*
G01Y31500D01*
X31117*
X31623Y31250*
X31940Y30917*
X32067Y30250*
X31940Y29583*
X31560Y29167*
X31117Y28917*
X29533*
X31117D02*
G01X32067Y26500D01*
X37167D02*
G01X34633D01*
Y31500*
X37167*
X36153Y29083D02*
G01X34633D01*
X39670Y27167D02*
G01X40177Y26750D01*
X40747Y26500*
X41253*
X41760Y26750*
X42140Y27167*
X42330Y27750*
X42203Y28333*
X41887Y28833*
X41317Y29167*
X40557Y29333*
X40113Y29667*
X39923Y30250*
X40050Y30833*
X40367Y31250*
X40810Y31500*
X41253*
X41697Y31333*
X42077Y30917*
X47367Y26500D02*
G01X44833D01*
Y31500*
X47367*
X46353Y29083D02*
G01X44833D01*
X51200Y31500D02*
G01Y26500D01*
X49743Y31500D02*
G01X52657D01*
X44983Y55000D02*
G01Y60000D01*
X46567*
X47073Y59750*
X47390Y59417*
X47517Y58750*
X47390Y58083*
X47010Y57667*
X46567Y57417*
X44983*
X46567D02*
G01X47517Y55000D01*
X51223D02*
G01X51350Y56083D01*
X51540Y57000*
X51793Y57833*
X52110Y58750*
X52617Y60000*
X50083*
X44983Y61000D02*
G01Y66000D01*
X46567*
X47073Y65750*
X47390Y65417*
X47517Y64750*
X47390Y64083*
X47010Y63667*
X46567Y63417*
X44983*
X46567D02*
G01X47517Y61000D01*
X50147Y63083D02*
G01X50590Y63667D01*
X50970Y64000*
X51477Y64167*
X51920Y64000*
X52237Y63667*
X52490Y63167*
X52553Y62583*
X52490Y62083*
X52237Y61583*
X51857Y61167*
X51413Y61000*
X50907Y61167*
X50463Y61666*
X50210Y62417*
X50147Y63250*
X50273Y64333*
X50463Y64917*
X50780Y65500*
X51223Y65917*
X51667Y66000*
X52110Y65833*
X52427Y65417*
X30550Y49807D02*
G01X30967Y50187D01*
X31217Y50630*
X31300Y51200*
X31133Y51770*
X30800Y52213*
X30217Y52530*
X29550Y52593*
X28883Y52467*
X28467Y52150*
X28133Y51707*
X28050Y51263*
X28133Y50820*
X28467Y50250*
X26300Y50440*
Y52150*
X29057Y102587D02*
G01X29287Y102225D01*
X29593Y102018*
X29938Y101967*
X30245Y102018*
X30552Y102277*
X30743Y102587*
X30782Y102897*
X30705Y103258*
X30437Y103517*
X30168Y103620*
X29823*
X30168D02*
G01X30398Y103775D01*
X30590Y104033*
X30667Y104343*
X30590Y104653*
X30398Y104912*
X30053Y105067*
X29708Y105015*
X29363Y104808*
X33000Y101863D02*
G01X32923Y101915D01*
Y102018*
X33000Y102070*
X33077Y102018*
Y101915*
X33000Y101863*
X35257Y102587D02*
G01X35487Y102225D01*
X35793Y102018*
X36138Y101967*
X36445Y102018*
X36752Y102277*
X36943Y102587*
X36982Y102897*
X36905Y103258*
X36637Y103517*
X36368Y103620*
X36023*
X36368D02*
G01X36598Y103775D01*
X36790Y104033*
X36867Y104343*
X36790Y104653*
X36598Y104912*
X36253Y105067*
X35908Y105015*
X35563Y104808*
X25943Y86883D02*
G01X25563Y87133D01*
X25120Y87300*
X24613*
X24043Y87050*
X23600Y86633*
X23283Y86133*
X23030Y85300*
X22967Y84550*
X23093Y83800*
X23283Y83300*
X23663Y82800*
X24107Y82467*
X24550Y82300*
X24993*
X25437Y82467*
X25817Y82717*
X26133Y83050*
X29650Y82300D02*
G01X30093Y82383D01*
X30600Y82633*
X30917Y83050*
X31043Y83633*
X30917Y84217*
X30537Y84717*
X29967Y84967*
X29333*
X28953Y85133*
X28637Y85550*
X28510Y86133*
X28700Y86717*
X29143Y87133*
X29650Y87300*
X30157Y87133*
X30600Y86717*
X30790Y86133*
X30663Y85550*
X30347Y85133*
X29967Y84967*
X29333*
X28763Y84717*
X28383Y84217*
X28257Y83633*
X28383Y83050*
X28700Y82633*
X29207Y82383*
X29650Y82300*
X45717Y76143D02*
G01X45467Y75763D01*
X45300Y75320*
Y74813*
X45550Y74243*
X45967Y73800*
X46467Y73483*
X47300Y73230*
X48050Y73167*
X48800Y73293*
X49300Y73483*
X49800Y73863*
X50133Y74307*
X50300Y74750*
Y75193*
X50133Y75637*
X49883Y76017*
X49550Y76333*
X49717Y78773D02*
G01X50133Y79217D01*
X50300Y79723*
X50133Y80230*
X49634Y80673*
X48883Y80990*
X48133Y81117*
X47217*
X46467Y80990*
X45800Y80673*
X45467Y80293*
X45300Y79850*
X45467Y79343*
X45800Y78963*
X46300Y78710*
X46967Y78583*
X47550Y78710*
X48133Y79027*
X48467Y79407*
X48550Y79850*
X48383Y80357*
X47967Y80737*
X47217Y81117*
X23230Y104000D02*
G01X23997D01*
Y103070*
X23767Y102760*
X23498Y102553*
X23115Y102450*
X22732Y102553*
X22463Y102760*
X22233Y103070*
X22080Y103432*
X22003Y103845*
Y104207*
X22080Y104517*
X22233Y104878*
X22463Y105188*
X22693Y105395*
X23000Y105550*
X23268*
X23575Y105447*
X23805Y105240*
X42233Y102450D02*
G01Y105550D01*
X43192*
X43498Y105395*
X43690Y105188*
X43767Y104775*
X43690Y104362*
X43460Y104103*
X43192Y103948*
X42233*
X43192D02*
G01X43767Y102450D01*
X50207Y104103D02*
G01X50360Y104258D01*
X50475Y104517*
X50552Y104878*
X50475Y105188*
X50322Y105395*
X50053Y105550*
X49018*
Y102450*
X50283*
X50552Y102657*
X50705Y102967*
X50782Y103328*
X50705Y103690*
X50475Y104000*
X50207Y104103*
X49018*
X53000Y102450D02*
G01Y105550D01*
X52540Y104930*
Y102450D02*
G01X53460D01*
X56100D02*
G01Y105550D01*
X55640Y104930*
Y102450D02*
G01X56560D01*
X50492Y13450D02*
G01X51450Y16550D01*
X52408Y13450*
X52063Y14535D02*
G01X50837D01*
X54550Y13450D02*
G01X54818Y13502D01*
X55125Y13657*
X55317Y13915*
X55393Y14277*
X55317Y14638*
X55087Y14948*
X54742Y15103*
X54358*
X54128Y15207*
X53937Y15465*
X53860Y15827*
X53975Y16188*
X54243Y16447*
X54550Y16550*
X54857Y16447*
X55125Y16188*
X55240Y15827*
X55163Y15465*
X54972Y15207*
X54742Y15103*
X54358*
X54013Y14948*
X53783Y14638*
X53707Y14277*
X53783Y13915*
X53975Y13657*
X54282Y13502*
X54550Y13450*
X59492D02*
G01X60450Y16550D01*
X61408Y13450*
X61063Y14535D02*
G01X59837D01*
X62898Y13812D02*
G01X63167Y13553D01*
X63473Y13450*
X63780Y13553*
X64048Y13863*
X64240Y14328*
X64317Y14793*
Y15362*
X64240Y15827*
X64048Y16240*
X63818Y16447*
X63550Y16550*
X63243Y16447*
X63013Y16240*
X62860Y15930*
X62783Y15517*
X62860Y15155*
X63052Y14793*
X63282Y14587*
X63550Y14535*
X63857Y14638*
X64087Y14897*
X64317Y15362*
X67942Y13450D02*
G01X68900Y16550D01*
X69858Y13450*
X69513Y14535D02*
G01X68287D01*
X72000Y13450D02*
G01Y16550D01*
X71540Y15930*
Y13450D02*
G01X72460D01*
X75100Y16550D02*
G01X74793Y16447D01*
X74563Y16188*
X74410Y15878*
X74295Y15465*
X74257Y15000*
X74295Y14535*
X74410Y14122*
X74563Y13812*
X74793Y13553*
X75100Y13450*
X75407Y13553*
X75637Y13812*
X75790Y14122*
X75905Y14535*
X75943Y15000*
X75905Y15465*
X75790Y15878*
X75637Y16188*
X75407Y16447*
X75100Y16550*
X67270Y37366D02*
G01X67777Y36950D01*
X68347Y36700*
X68853*
X69360Y36950*
X69740Y37366*
X69930Y37950*
X69803Y38533*
X69487Y39033*
X68917Y39367*
X68157Y39533*
X67713Y39867*
X67523Y40450*
X67650Y41033*
X67967Y41450*
X68410Y41700*
X68853*
X69297Y41533*
X69677Y41117*
X71800Y41700D02*
G01X72687Y36700D01*
X73700Y41700*
X74713Y36700*
X75600Y41700*
X78800Y36700D02*
G01Y41700D01*
X78040Y40700*
Y36700D02*
G01X79560D01*
X78107Y70403D02*
G01X78260Y70558D01*
X78375Y70817*
X78452Y71178*
X78375Y71488*
X78222Y71695*
X77953Y71850*
X76918*
Y68750*
X78183*
X78452Y68957*
X78605Y69267*
X78682Y69628*
X78605Y69990*
X78375Y70300*
X78107Y70403*
X76918*
X80900Y68750D02*
G01X80593Y68802D01*
X80325Y69008*
X80095Y69318*
X79942Y69680*
X79865Y70093*
Y70507*
X79942Y70920*
X80095Y71282*
X80325Y71592*
X80593Y71798*
X80900Y71850*
X81207Y71798*
X81475Y71592*
X81705Y71282*
X81858Y70920*
X81935Y70507*
Y70093*
X81858Y69680*
X81705Y69318*
X81475Y69008*
X81207Y68802*
X80900Y68750*
X84000D02*
G01X83693Y68802D01*
X83425Y69008*
X83195Y69318*
X83042Y69680*
X82965Y70093*
Y70507*
X83042Y70920*
X83195Y71282*
X83425Y71592*
X83693Y71798*
X84000Y71850*
X84307Y71798*
X84575Y71592*
X84805Y71282*
X84958Y70920*
X85035Y70507*
Y70093*
X84958Y69680*
X84805Y69318*
X84575Y69008*
X84307Y68802*
X84000Y68750*
X87100Y71850D02*
G01Y68750D01*
X86218Y71850D02*
G01X87982D01*
X90200D02*
G01X89893Y71747D01*
X89663Y71488*
X89510Y71178*
X89395Y70765*
X89357Y70300*
X89395Y69835*
X89510Y69422*
X89663Y69112*
X89893Y68853*
X90200Y68750*
X90507Y68853*
X90737Y69112*
X90890Y69422*
X91005Y69835*
X91043Y70300*
X91005Y70765*
X90890Y71178*
X90737Y71488*
X90507Y71747*
X90200Y71850*
X74200Y53683D02*
G01X69200D01*
Y55267*
X69450Y55773*
X69783Y56090*
X70450Y56217*
X71117Y56090*
X71533Y55710*
X71783Y55267*
Y53683*
Y55267D02*
G01X74200Y56217D01*
X70033Y58847D02*
G01X69533Y59227D01*
X69283Y59670*
X69200Y60177*
X69367Y60810*
X69783Y61253*
X70283Y61380*
X70784Y61317*
X71200Y61063*
X72033Y59797*
X72617Y59227*
X73450Y58847*
X74200Y58720*
Y61380*
X53100Y89550D02*
G01Y92650D01*
X52640Y92030*
Y89550D02*
G01X53560D01*
X54200Y75650D02*
G01Y78750D01*
X53740Y78130*
Y75650D02*
G01X54660D01*
X65707Y98503D02*
G01X65860Y98658D01*
X65975Y98917*
X66052Y99278*
X65975Y99588*
X65822Y99795*
X65553Y99950*
X64518*
Y96850*
X65783*
X66052Y97057*
X66205Y97367*
X66282Y97728*
X66205Y98090*
X65975Y98400*
X65707Y98503*
X64518*
X68500Y96850D02*
G01X68193Y96902D01*
X67925Y97108*
X67695Y97418*
X67542Y97780*
X67465Y98193*
Y98607*
X67542Y99020*
X67695Y99382*
X67925Y99692*
X68193Y99898*
X68500Y99950*
X68807Y99898*
X69075Y99692*
X69305Y99382*
X69458Y99020*
X69535Y98607*
Y98193*
X69458Y97780*
X69305Y97418*
X69075Y97108*
X68807Y96902*
X68500Y96850*
X71600D02*
G01X71293Y96902D01*
X71025Y97108*
X70795Y97418*
X70642Y97780*
X70565Y98193*
Y98607*
X70642Y99020*
X70795Y99382*
X71025Y99692*
X71293Y99898*
X71600Y99950*
X71907Y99898*
X72175Y99692*
X72405Y99382*
X72558Y99020*
X72635Y98607*
Y98193*
X72558Y97780*
X72405Y97418*
X72175Y97108*
X71907Y96902*
X71600Y96850*
X74700Y99950D02*
G01Y96850D01*
X73818Y99950D02*
G01X75582D01*
X77800Y96850D02*
G01Y99950D01*
X77340Y99330*
Y96850D02*
G01X78260D01*
X57072Y99333D02*
G01X57302Y99643D01*
X57570Y99798*
X57877Y99850*
X58260Y99747*
X58528Y99488*
X58605Y99178*
X58567Y98868*
X58413Y98610*
X57647Y98093*
X57302Y97732*
X57072Y97215*
X56995Y96750*
X58605*
X61207Y104103D02*
G01X61360Y104258D01*
X61475Y104517*
X61552Y104878*
X61475Y105188*
X61322Y105395*
X61053Y105550*
X60018*
Y102450*
X61283*
X61552Y102657*
X61705Y102967*
X61782Y103328*
X61705Y103690*
X61475Y104000*
X61207Y104103*
X60018*
X64000Y102450D02*
G01Y105550D01*
X63540Y104930*
Y102450D02*
G01X64460D01*
X67100Y105550D02*
G01X66793Y105447D01*
X66563Y105188*
X66410Y104878*
X66295Y104465*
X66257Y104000*
X66295Y103535*
X66410Y103122*
X66563Y102812*
X66793Y102553*
X67100Y102450*
X67407Y102553*
X67637Y102812*
X67790Y103122*
X67905Y103535*
X67943Y104000*
X67905Y104465*
X67790Y104878*
X67637Y105188*
X67407Y105447*
X67100Y105550*
X72757Y104103D02*
G01X72910Y104258D01*
X73025Y104517*
X73102Y104878*
X73025Y105188*
X72872Y105395*
X72603Y105550*
X71568*
Y102450*
X72833*
X73102Y102657*
X73255Y102967*
X73332Y103328*
X73255Y103690*
X73025Y104000*
X72757Y104103*
X71568*
X75550Y102450D02*
G01Y105550D01*
X75090Y104930*
Y102450D02*
G01X76010D01*
X78942Y13450D02*
G01X79900Y16550D01*
X80858Y13450*
X80513Y14535D02*
G01X79287D01*
X83000Y13450D02*
G01Y16550D01*
X82540Y15930*
Y13450D02*
G01X83460D01*
X86100D02*
G01Y16550D01*
X85640Y15930*
Y13450D02*
G01X86560D01*
X88942D02*
G01X89900Y16550D01*
X90858Y13450*
X90513Y14535D02*
G01X89287D01*
X93000Y13450D02*
G01Y16550D01*
X92540Y15930*
Y13450D02*
G01X93460D01*
X95372Y16033D02*
G01X95602Y16343D01*
X95870Y16498*
X96177Y16550*
X96560Y16447*
X96828Y16188*
X96905Y15878*
X96867Y15568*
X96713Y15310*
X95947Y14793*
X95602Y14432*
X95372Y13915*
X95295Y13450*
X96905*
X99942D02*
G01X100900Y16550D01*
X101858Y13450*
X101513Y14535D02*
G01X100287D01*
X104000Y13450D02*
G01Y16550D01*
X103540Y15930*
Y13450D02*
G01X104460D01*
X106257Y13915D02*
G01X106487Y13657D01*
X106755Y13502*
X107100Y13450*
X107445Y13553*
X107713Y13760*
X107905Y14122*
X107943Y14535*
X107867Y14948*
X107675Y15207*
X107407Y15413*
X107138Y15465*
X106870Y15413*
X106525Y15207*
X106640Y16550*
X107675*
X101851Y36328D02*
G01X101707Y35646D01*
X101830Y35053*
X102174Y34591*
X102591Y34291*
X103244Y34228*
X103821Y34357*
X104220Y34666*
X104543Y35168*
X104524Y35776*
X104328Y36208*
X103925Y36611*
X104328Y36208D02*
G01X104774Y36116D01*
X105292Y36186*
X105735Y36450*
X105999Y36893*
X106070Y37412*
X105844Y37992*
X105382Y38336*
X104743Y38503*
X106357Y33353D02*
G01X107084Y33452D01*
X107588Y33419*
X108064Y33179*
X108260Y32747*
X108248Y32288*
X108074Y31755*
X107706Y31298*
X107307Y30989*
X106775Y30815*
X106211Y30789*
X105780Y30984*
X105540Y31461*
X105580Y32127*
X105931Y32837*
X106475Y33471*
X107331Y34148*
X107878Y34426*
X108514Y34614*
X109122Y34595*
X109495Y34341*
X109690Y33910*
X109620Y33391*
X86825Y52733D02*
G01X87447Y52817D01*
X87937Y52681*
X88354Y52381*
X88684Y51816*
X88703Y51208*
X88439Y50764*
X88041Y50456*
X87567Y50340*
X86082Y50647*
X85267Y50637*
X84409Y50317*
X83789Y49876*
X85670Y47995*
X87880Y46845D02*
G01X87854Y46281D01*
X87991Y45791*
X88335Y45329*
X88856Y45044*
X89405Y44966*
X90042Y45155*
X90558Y45581*
X90940Y46142*
X91011Y46661*
X90933Y47210*
X90678Y47582*
X90306Y47837*
X89667Y48004*
X91334Y49402*
X92543Y48193*
X85768Y58025D02*
G01X85683Y58647D01*
X85819Y59137*
X86119Y59554*
X86684Y59884*
X87293Y59903*
X87736Y59639*
X88044Y59241*
X88160Y58767*
X87854Y57282*
X87863Y56467*
X88184Y55609*
X88624Y54989*
X90505Y56870*
X93708Y60073D02*
G01X90173Y63608D01*
X91050Y59418*
X93289Y61657*
X90900Y91850D02*
G01X90593Y91747D01*
X90363Y91488*
X90210Y91178*
X90095Y90765*
X90057Y90300*
X90095Y89835*
X90210Y89422*
X90363Y89112*
X90593Y88853*
X90900Y88750*
X91207Y88853*
X91437Y89112*
X91590Y89422*
X91705Y89835*
X91743Y90300*
X91705Y90765*
X91590Y91178*
X91437Y91488*
X91207Y91747*
X90900Y91850*
X90400Y82250D02*
G01X90093Y82147D01*
X89863Y81888*
X89710Y81578*
X89595Y81165*
X89557Y80700*
X89595Y80235*
X89710Y79822*
X89863Y79512*
X90093Y79253*
X90400Y79150*
X90707Y79253*
X90937Y79512*
X91090Y79822*
X91205Y80235*
X91243Y80700*
X91205Y81165*
X91090Y81578*
X90937Y81888*
X90707Y82147*
X90400Y82250*
X90183Y94500D02*
G01X90500Y94000D01*
X90880Y93667*
X91323Y93500*
X91830Y93667*
X92210Y94000*
X92590Y94500*
X92717Y95167*
Y98500*
X96550Y93500D02*
G01Y98500D01*
X95790Y97500*
Y93500D02*
G01X97310D01*
X86372Y97942D02*
G01X86640Y98303D01*
X86870Y98510*
X87177Y98613*
X87445Y98510*
X87637Y98303*
X87790Y97993*
X87828Y97632*
X87790Y97322*
X87637Y97012*
X87407Y96753*
X87138Y96650*
X86832Y96753*
X86563Y97063*
X86410Y97528*
X86372Y98045*
X86448Y98717*
X86563Y99078*
X86755Y99440*
X87023Y99698*
X87292Y99750*
X87560Y99647*
X87752Y99388*
X89157Y73415D02*
G01X89387Y73157D01*
X89655Y73002*
X90000Y72950*
X90345Y73053*
X90613Y73260*
X90805Y73622*
X90843Y74035*
X90767Y74448*
X90575Y74707*
X90307Y74913*
X90038Y74965*
X89770Y74913*
X89425Y74707*
X89540Y76050*
X90575*
X97444Y79979D02*
G01X99978Y77446D01*
X100687Y77094*
X101399Y77099*
X101965Y77429*
X102295Y77995*
X102300Y78707*
X101948Y79416*
X99414Y81950*
X105571Y81035D02*
G01X102035Y84571D01*
X102205Y83326*
X105034Y80498D02*
G01X106108Y81573D01*
X81757Y104103D02*
G01X81910Y104258D01*
X82025Y104517*
X82102Y104878*
X82025Y105188*
X81872Y105395*
X81603Y105550*
X80568*
Y102450*
X81833*
X82102Y102657*
X82255Y102967*
X82332Y103328*
X82255Y103690*
X82025Y104000*
X81757Y104103*
X80568*
X84550Y105550D02*
G01X84243Y105447D01*
X84013Y105188*
X83860Y104878*
X83745Y104465*
X83707Y104000*
X83745Y103535*
X83860Y103122*
X84013Y102812*
X84243Y102553*
X84550Y102450*
X84857Y102553*
X85087Y102812*
X85240Y103122*
X85355Y103535*
X85393Y104000*
X85355Y104465*
X85240Y104878*
X85087Y105188*
X84857Y105447*
X84550Y105550*
X90492Y102450D02*
G01X91450Y105550D01*
X92408Y102450*
X92063Y103535D02*
G01X90837D01*
X94473Y102450D02*
G01X94550Y103122D01*
X94665Y103690*
X94818Y104207*
X95010Y104775*
X95317Y105550*
X93783*
X100492Y102450D02*
G01X101450Y105550D01*
X102408Y102450*
X102063Y103535D02*
G01X100837D01*
X103822Y103742D02*
G01X104090Y104103D01*
X104320Y104310*
X104627Y104413*
X104895Y104310*
X105087Y104103*
X105240Y103793*
X105278Y103432*
X105240Y103122*
X105087Y102812*
X104857Y102553*
X104588Y102450*
X104282Y102553*
X104013Y102863*
X103860Y103328*
X103822Y103845*
X103898Y104517*
X104013Y104878*
X104205Y105240*
X104473Y105498*
X104742Y105550*
X105010Y105447*
X105202Y105188*
X112757Y15103D02*
G01X112910Y15258D01*
X113025Y15517*
X113102Y15878*
X113025Y16188*
X112872Y16395*
X112603Y16550*
X111568*
Y13450*
X112833*
X113102Y13657*
X113255Y13967*
X113332Y14328*
X113255Y14690*
X113025Y15000*
X112757Y15103*
X111568*
X114707Y14070D02*
G01X114937Y13708D01*
X115243Y13502*
X115588Y13450*
X115895Y13502*
X116202Y13760*
X116393Y14070*
X116432Y14380*
X116355Y14742*
X116087Y15000*
X115818Y15103*
X115473*
X115818D02*
G01X116048Y15258D01*
X116240Y15517*
X116317Y15827*
X116240Y16137*
X116048Y16395*
X115703Y16550*
X115358Y16498*
X115013Y16292*
X121757Y15103D02*
G01X121910Y15258D01*
X122025Y15517*
X122102Y15878*
X122025Y16188*
X121872Y16395*
X121603Y16550*
X120568*
Y13450*
X121833*
X122102Y13657*
X122255Y13967*
X122332Y14328*
X122255Y14690*
X122025Y15000*
X121757Y15103*
X120568*
X125010Y13450D02*
G01Y16550D01*
X123592Y14328*
X125508*
X131757Y15103D02*
G01X131910Y15258D01*
X132025Y15517*
X132102Y15878*
X132025Y16188*
X131872Y16395*
X131603Y16550*
X130568*
Y13450*
X131833*
X132102Y13657*
X132255Y13967*
X132332Y14328*
X132255Y14690*
X132025Y15000*
X131757Y15103*
X130568*
X133707Y13915D02*
G01X133937Y13657D01*
X134205Y13502*
X134550Y13450*
X134895Y13553*
X135163Y13760*
X135355Y14122*
X135393Y14535*
X135317Y14948*
X135125Y15207*
X134857Y15413*
X134588Y15465*
X134320Y15413*
X133975Y15207*
X134090Y16550*
X135125*
X110183Y19500D02*
G01X110500Y19000D01*
X110880Y18667*
X111323Y18500*
X111830Y18667*
X112210Y19000*
X112590Y19500*
X112717Y20167*
Y23500*
X117310Y18500D02*
G01Y23500D01*
X114967Y19917*
X118133*
X120272Y30051D02*
G01X120954Y29907D01*
X121547Y30030*
X122009Y30374*
X122309Y30791*
X122372Y31444*
X122243Y32021*
X121934Y32420*
X121432Y32743*
X120824Y32724*
X120392Y32528*
X119989Y32125*
X120392Y32528D02*
G01X120484Y32974D01*
X120414Y33492*
X120150Y33935*
X119707Y34199*
X119188Y34270*
X118608Y34044*
X118264Y33582*
X118097Y32943*
X125481Y33846D02*
G01X124805Y34701D01*
X124291Y35484*
X123881Y36252*
X123457Y37124*
X122931Y38366*
X121140Y36575*
X139106Y72852D02*
G01X138660Y72760D01*
X138229Y72565*
X137871Y72206*
X137644Y71626*
X137626Y71018*
X137755Y70441*
X138165Y69672*
X138651Y69097*
X139271Y68657*
X139759Y68437*
X140381Y68352*
X140930Y68430*
X141362Y68626*
X141675Y68940*
X141871Y69371*
X141963Y69816*
X141951Y70276*
X144968Y72232D02*
G01X141432Y75768D01*
X141602Y74523*
X144430Y71695D02*
G01X145505Y72770D01*
X146882Y75560D02*
G01X147563Y75416D01*
X148157Y75539*
X148619Y75883*
X148918Y76300*
X148982Y76953*
X148852Y77531*
X148543Y77929*
X148041Y78252*
X147433Y78233*
X147002Y78038*
X146599Y77634*
X147002Y78038D02*
G01X147094Y78483D01*
X147023Y79002*
X146759Y79445*
X146316Y79709*
X145797Y79779*
X145218Y79553*
X144873Y79091*
X144706Y78452*
X140002Y55166D02*
G01X136466Y58702D01*
X137343Y54511*
X139582Y56751*
X143071Y58235D02*
G01X143325Y58608D01*
X143507Y59143*
X143436Y59661*
X143113Y60163*
X142611Y60486*
X141989Y60571*
X141409Y60345*
X140961Y59897*
X140575Y59746*
X140056Y59817*
X139554Y60140*
X139276Y60687*
X139295Y61295*
X139535Y61771*
X140011Y62011*
X140620Y62030*
X141166Y61752*
X141489Y61250*
X141560Y60731*
X141409Y60345*
X140961Y59897*
X140735Y59317*
X140820Y58695*
X141143Y58193*
X141645Y57870*
X142163Y57799*
X142698Y57981*
X143071Y58235*
X129906Y92252D02*
G01X129460Y92160D01*
X129029Y91965*
X128671Y91606*
X128444Y91026*
X128426Y90418*
X128555Y89841*
X128965Y89072*
X129451Y88497*
X130071Y88057*
X130559Y87837*
X131181Y87752*
X131730Y87830*
X132162Y88026*
X132475Y88340*
X132671Y88771*
X132763Y89216*
X132751Y89676*
X135768Y91632D02*
G01X132232Y95168D01*
X132402Y93923*
X135230Y91095D02*
G01X136305Y92170D01*
X139911Y95776D02*
G01X136376Y99311D01*
X137253Y95121*
X139492Y97360*
X112183Y95500D02*
G01X112500Y95000D01*
X112880Y94667*
X113323Y94500*
X113830Y94667*
X114210Y95000*
X114590Y95500*
X114717Y96167*
Y99500*
X117157Y95500D02*
G01X117537Y94917D01*
X118043Y94583*
X118613Y94500*
X119120Y94583*
X119627Y95000*
X119943Y95500*
X120007Y96000*
X119880Y96583*
X119437Y97000*
X118993Y97167*
X118423*
X118993D02*
G01X119373Y97417D01*
X119690Y97833*
X119817Y98333*
X119690Y98833*
X119373Y99250*
X118803Y99500*
X118233Y99417*
X117663Y99083*
X112865Y79829D02*
G01X109329Y83365D01*
X109499Y82120*
X112327Y79292D02*
G01X113402Y80366D01*
X114778Y83157D02*
G01X115460Y83013D01*
X116054Y83136*
X116516Y83480*
X116815Y83897*
X116879Y84550*
X116749Y85128*
X116440Y85526*
X115938Y85849*
X115330Y85830*
X114899Y85634*
X114496Y85231*
X114899Y85634D02*
G01X114991Y86080D01*
X114920Y86598*
X114656Y87042*
X114213Y87306*
X113694Y87376*
X113114Y87150*
X112770Y86688*
X112603Y86049*
X122765Y81129D02*
G01X119229Y84665D01*
X119399Y83420*
X122227Y80592D02*
G01X123302Y81666D01*
X122574Y86831D02*
G01X122489Y87453D01*
X122626Y87943*
X122925Y88360*
X123490Y88690*
X124099Y88709*
X124542Y88445*
X124851Y88047*
X124966Y87573*
X124660Y86088*
X124669Y85273*
X124990Y84415*
X125430Y83795*
X127311Y85676*
X110492Y102450D02*
G01X111450Y105550D01*
X112408Y102450*
X112063Y103535D02*
G01X110837D01*
X113707Y102915D02*
G01X113937Y102657D01*
X114205Y102502*
X114550Y102450*
X114895Y102553*
X115163Y102760*
X115355Y103122*
X115393Y103535*
X115317Y103948*
X115125Y104207*
X114857Y104413*
X114588Y104465*
X114320Y104413*
X113975Y104207*
X114090Y105550*
X115125*
X120492Y102450D02*
G01X121450Y105550D01*
X122408Y102450*
X122063Y103535D02*
G01X120837D01*
X125010Y102450D02*
G01Y105550D01*
X123592Y103328*
X125508*
X130492Y102450D02*
G01X131450Y105550D01*
X132408Y102450*
X132063Y103535D02*
G01X130837D01*
X133707Y103070D02*
G01X133937Y102708D01*
X134243Y102502*
X134588Y102450*
X134895Y102502*
X135202Y102760*
X135393Y103070*
X135432Y103380*
X135355Y103742*
X135087Y104000*
X134818Y104103*
X134473*
X134818D02*
G01X135048Y104258D01*
X135240Y104517*
X135317Y104827*
X135240Y105137*
X135048Y105395*
X134703Y105550*
X134358Y105498*
X134013Y105292*
X141757Y15103D02*
G01X141910Y15258D01*
X142025Y15517*
X142102Y15878*
X142025Y16188*
X141872Y16395*
X141603Y16550*
X140568*
Y13450*
X141833*
X142102Y13657*
X142255Y13967*
X142332Y14328*
X142255Y14690*
X142025Y15000*
X141757Y15103*
X140568*
X143822Y14742D02*
G01X144090Y15103D01*
X144320Y15310*
X144627Y15413*
X144895Y15310*
X145087Y15103*
X145240Y14793*
X145278Y14432*
X145240Y14122*
X145087Y13812*
X144857Y13553*
X144588Y13450*
X144282Y13553*
X144013Y13863*
X143860Y14328*
X143822Y14845*
X143898Y15517*
X144013Y15878*
X144205Y16240*
X144473Y16498*
X144742Y16550*
X145010Y16447*
X145202Y16188*
X151757Y15103D02*
G01X151910Y15258D01*
X152025Y15517*
X152102Y15878*
X152025Y16188*
X151872Y16395*
X151603Y16550*
X150568*
Y13450*
X151833*
X152102Y13657*
X152255Y13967*
X152332Y14328*
X152255Y14690*
X152025Y15000*
X151757Y15103*
X150568*
X154473Y13450D02*
G01X154550Y14122D01*
X154665Y14690*
X154818Y15207*
X155010Y15775*
X155317Y16550*
X153783*
X161757Y15103D02*
G01X161910Y15258D01*
X162025Y15517*
X162102Y15878*
X162025Y16188*
X161872Y16395*
X161603Y16550*
X160568*
Y13450*
X161833*
X162102Y13657*
X162255Y13967*
X162332Y14328*
X162255Y14690*
X162025Y15000*
X161757Y15103*
X160568*
X164550Y13450D02*
G01X164818Y13502D01*
X165125Y13657*
X165317Y13915*
X165393Y14277*
X165317Y14638*
X165087Y14948*
X164742Y15103*
X164358*
X164128Y15207*
X163937Y15465*
X163860Y15827*
X163975Y16188*
X164243Y16447*
X164550Y16550*
X164857Y16447*
X165125Y16188*
X165240Y15827*
X165163Y15465*
X164972Y15207*
X164742Y15103*
X164358*
X164013Y14948*
X163783Y14638*
X163707Y14277*
X163783Y13915*
X163975Y13657*
X164282Y13502*
X164550Y13450*
X152500Y26450D02*
G01X150250D01*
X147500Y25183*
Y27717D02*
G01X150250Y26450D01*
X148333Y30347D02*
G01X147833Y30727D01*
X147583Y31170*
X147500Y31677*
X147667Y32310*
X148083Y32753*
X148583Y32880*
X149084Y32817*
X149500Y32563*
X150333Y31297*
X150917Y30727*
X151750Y30347*
X152500Y30220*
Y32880*
X140492Y102450D02*
G01X141450Y105550D01*
X142408Y102450*
X142063Y103535D02*
G01X140837D01*
X143822Y105033D02*
G01X144052Y105343D01*
X144320Y105498*
X144627Y105550*
X145010Y105447*
X145278Y105188*
X145355Y104878*
X145317Y104568*
X145163Y104310*
X144397Y103793*
X144052Y103432*
X143822Y102915*
X143745Y102450*
X145355*
X150492D02*
G01X151450Y105550D01*
X152408Y102450*
X152063Y103535D02*
G01X150837D01*
X154550Y102450D02*
G01Y105550D01*
X154090Y104930*
Y102450D02*
G01X155010D01*
X160492D02*
G01X161450Y105550D01*
X162408Y102450*
X162063Y103535D02*
G01X160837D01*
X164550Y105550D02*
G01X164243Y105447D01*
X164013Y105188*
X163860Y104878*
X163745Y104465*
X163707Y104000*
X163745Y103535*
X163860Y103122*
X164013Y102812*
X164243Y102553*
X164550Y102450*
X164857Y102553*
X165087Y102812*
X165240Y103122*
X165355Y103535*
X165393Y104000*
X165355Y104465*
X165240Y104878*
X165087Y105188*
X164857Y105447*
X164550Y105550*
X171757Y15103D02*
G01X171910Y15258D01*
X172025Y15517*
X172102Y15878*
X172025Y16188*
X171872Y16395*
X171603Y16550*
X170568*
Y13450*
X171833*
X172102Y13657*
X172255Y13967*
X172332Y14328*
X172255Y14690*
X172025Y15000*
X171757Y15103*
X170568*
X173898Y13812D02*
G01X174167Y13553D01*
X174473Y13450*
X174780Y13553*
X175048Y13863*
X175240Y14328*
X175317Y14793*
Y15362*
X175240Y15827*
X175048Y16240*
X174818Y16447*
X174550Y16550*
X174243Y16447*
X174013Y16240*
X173860Y15930*
X173783Y15517*
X173860Y15155*
X174052Y14793*
X174282Y14587*
X174550Y14535*
X174857Y14638*
X175087Y14897*
X175317Y15362*
X180607Y13915D02*
G01X180837Y13657D01*
X181105Y13502*
X181450Y13450*
X181795Y13553*
X182063Y13760*
X182255Y14122*
X182293Y14535*
X182217Y14948*
X182025Y15207*
X181757Y15413*
X181488Y15465*
X181220Y15413*
X180875Y15207*
X180990Y16550*
X182025*
X183592D02*
G01X184550Y13450D01*
X185508Y16550*
X192230Y15000D02*
G01X192997D01*
Y14070*
X192767Y13760*
X192498Y13553*
X192115Y13450*
X191732Y13553*
X191463Y13760*
X191233Y14070*
X191080Y14432*
X191003Y14845*
Y15207*
X191080Y15517*
X191233Y15878*
X191463Y16188*
X191693Y16395*
X192000Y16550*
X192268*
X192575Y16447*
X192805Y16240*
X183500Y32450D02*
G01X181250D01*
X178500Y31183*
Y33717D02*
G01X181250Y32450D01*
X183500Y37550D02*
G01X178500D01*
X179500Y36790*
X183500D02*
G01Y38310D01*
X190000Y39007D02*
G01X190583Y39387D01*
X190917Y39893*
X191000Y40463*
X190917Y40970*
X190500Y41477*
X190000Y41793*
X189500Y41857*
X188917Y41730*
X188500Y41287*
X188333Y40843*
Y40273*
Y40843D02*
G01X188083Y41223D01*
X187667Y41540*
X187167Y41667*
X186667Y41540*
X186250Y41223*
X186000Y40653*
X186083Y40083*
X186417Y39513*
X171533Y39097D02*
G01X171033Y39477D01*
X170783Y39920*
X170700Y40427*
X170867Y41060*
X171283Y41503*
X171783Y41630*
X172284Y41567*
X172700Y41313*
X173533Y40047*
X174117Y39477*
X174950Y39097*
X175700Y38970*
Y41630*
X190500Y27057D02*
G01X185500D01*
Y28323*
X185750Y28830*
X186083Y29210*
X186583Y29527*
X187167Y29780*
X188000Y29843*
X188833Y29780*
X189417Y29527*
X189917Y29210*
X190250Y28830*
X190500Y28323*
Y27057*
Y33550D02*
G01X185500D01*
X186500Y32790*
X190500D02*
G01Y34310D01*
X193117Y59943D02*
G01X192867Y59563D01*
X192700Y59120*
Y58613*
X192950Y58043*
X193367Y57600*
X193867Y57283*
X194700Y57030*
X195450Y56967*
X196200Y57093*
X196700Y57283*
X197200Y57663*
X197533Y58107*
X197700Y58550*
Y58993*
X197533Y59437*
X197283Y59817*
X196950Y60133*
X193533Y62447D02*
G01X193033Y62827D01*
X192783Y63270*
X192700Y63777*
X192867Y64410*
X193283Y64853*
X193783Y64980*
X194284Y64917*
X194700Y64663*
X195533Y63397*
X196117Y62827*
X196950Y62447*
X197700Y62320*
Y64980*
X197500Y46883D02*
G01X198000Y47200D01*
X198333Y47580*
X198500Y48023*
X198333Y48530*
X198000Y48910*
X197500Y49290*
X196833Y49417*
X193500*
X194333Y52047D02*
G01X193833Y52427D01*
X193583Y52870*
X193500Y53377*
X193667Y54010*
X194083Y54453*
X194583Y54580*
X195084Y54517*
X195500Y54263*
X196333Y52997*
X196917Y52427*
X197750Y52047*
X198500Y51920*
Y54580*
X190200Y79060D02*
G01X185200D01*
X188783Y76717*
Y79883*
X193800Y86957D02*
G01X188800D01*
Y88223*
X189050Y88730*
X189383Y89110*
X189883Y89427*
X190467Y89680*
X191300Y89743*
X192133Y89680*
X192717Y89427*
X193217Y89110*
X193550Y88730*
X193800Y88223*
Y86957*
X189633Y92247D02*
G01X189133Y92627D01*
X188883Y93070*
X188800Y93577*
X188967Y94210*
X189383Y94653*
X189883Y94780*
X190384Y94717*
X190800Y94463*
X191633Y93197*
X192217Y92627*
X193050Y92247*
X193800Y92120*
Y94780*
X169743Y105292D02*
G01X169513Y105447D01*
X169245Y105550*
X168938*
X168593Y105395*
X168325Y105137*
X168133Y104827*
X167980Y104310*
X167942Y103845*
X168018Y103380*
X168133Y103070*
X168363Y102760*
X168632Y102553*
X168900Y102450*
X169168*
X169437Y102553*
X169667Y102708*
X169858Y102915*
X172000Y102450D02*
G01Y105550D01*
X171540Y104930*
Y102450D02*
G01X172460D01*
X174257Y102915D02*
G01X174487Y102657D01*
X174755Y102502*
X175100Y102450*
X175445Y102553*
X175713Y102760*
X175905Y103122*
X175943Y103535*
X175867Y103948*
X175675Y104207*
X175407Y104413*
X175138Y104465*
X174870Y104413*
X174525Y104207*
X174640Y105550*
X175675*
X180743Y105292D02*
G01X180513Y105447D01*
X180245Y105550*
X179938*
X179593Y105395*
X179325Y105137*
X179133Y104827*
X178980Y104310*
X178942Y103845*
X179018Y103380*
X179133Y103070*
X179363Y102760*
X179632Y102553*
X179900Y102450*
X180168*
X180437Y102553*
X180667Y102708*
X180858Y102915*
X183000Y102450D02*
G01Y105550D01*
X182540Y104930*
Y102450D02*
G01X183460D01*
X186560D02*
G01Y105550D01*
X185142Y103328*
X187058*
X190743Y105292D02*
G01X190513Y105447D01*
X190245Y105550*
X189938*
X189593Y105395*
X189325Y105137*
X189133Y104827*
X188980Y104310*
X188942Y103845*
X189018Y103380*
X189133Y103070*
X189363Y102760*
X189632Y102553*
X189900Y102450*
X190168*
X190437Y102553*
X190667Y102708*
X190858Y102915*
X193000Y102450D02*
G01Y105550D01*
X192540Y104930*
Y102450D02*
G01X193460D01*
X195257Y103070D02*
G01X195487Y102708D01*
X195793Y102502*
X196138Y102450*
X196445Y102502*
X196752Y102760*
X196943Y103070*
X196982Y103380*
X196905Y103742*
X196637Y104000*
X196368Y104103*
X196023*
X196368D02*
G01X196598Y104258D01*
X196790Y104517*
X196867Y104827*
X196790Y105137*
X196598Y105395*
X196253Y105550*
X195908Y105498*
X195563Y105292*
X201057Y13587D02*
G01X201287Y13225D01*
X201593Y13018*
X201938Y12967*
X202245Y13018*
X202552Y13277*
X202743Y13587*
X202782Y13897*
X202705Y14258*
X202437Y14517*
X202168Y14620*
X201823*
X202168D02*
G01X202398Y14775D01*
X202590Y15033*
X202667Y15343*
X202590Y15653*
X202398Y15912*
X202053Y16067*
X201708Y16015*
X201363Y15808*
X205000Y12863D02*
G01X204923Y12915D01*
Y13018*
X205000Y13070*
X205077Y13018*
Y12915*
X205000Y12863*
X207257Y13587D02*
G01X207487Y13225D01*
X207793Y13018*
X208138Y12967*
X208445Y13018*
X208752Y13277*
X208943Y13587*
X208982Y13897*
X208905Y14258*
X208637Y14517*
X208368Y14620*
X208023*
X208368D02*
G01X208598Y14775D01*
X208790Y15033*
X208867Y15343*
X208790Y15653*
X208598Y15912*
X208253Y16067*
X207908Y16015*
X207563Y15808*
X213000Y41230D02*
G01Y41997D01*
X213930*
X214240Y41767*
X214447Y41498*
X214550Y41115*
X214447Y40732*
X214240Y40463*
X213930Y40233*
X213568Y40080*
X213155Y40003*
X212793*
X212483Y40080*
X212122Y40233*
X211812Y40463*
X211605Y40693*
X211450Y41000*
Y41268*
X211553Y41575*
X211760Y41805*
X209600Y18307D02*
G01X204600D01*
Y20713D02*
G01X207683Y18307D01*
X209600Y21093D02*
G01X206267Y19383D01*
X207500Y34017D02*
G01X202500Y35600D01*
X207500Y37183*
X205750Y36613D02*
G01Y34587D01*
X214500Y35760D02*
G01X209500D01*
X213083Y33417*
Y36583*
X214137Y60545D02*
G01X214395Y60852D01*
X214550Y61197*
Y61503*
X214395Y61810*
X214137Y62040*
X213775Y62155*
X213413Y62078*
X213103Y61887*
X212897Y61542*
X212793Y61082*
X212587Y60813*
X212225Y60698*
X211863Y60775*
X211605Y60967*
X211450Y61235*
Y61503*
X211553Y61772*
X211812Y62002*
X211450Y63300D02*
G01X214550Y63837D01*
X211450Y64450*
X214550Y65063*
X211450Y65600*
Y67090D02*
G01Y68010D01*
Y67550D02*
G01X214550D01*
Y67090D02*
G01Y68010D01*
Y70650D02*
G01X214498Y70343D01*
X214292Y70075*
X213982Y69845*
X213620Y69692*
X213207Y69615*
X212793*
X212380Y69692*
X212018Y69845*
X211708Y70075*
X211502Y70343*
X211450Y70650*
X211502Y70957*
X211708Y71225*
X212018Y71455*
X212380Y71608*
X212793Y71685*
X213207*
X213620Y71608*
X213982Y71455*
X214292Y71225*
X214498Y70957*
X214550Y70650*
X214137Y44995D02*
G01X214395Y45302D01*
X214550Y45647*
Y45953*
X214395Y46260*
X214137Y46490*
X213775Y46605*
X213413Y46528*
X213103Y46337*
X212897Y45992*
X212793Y45532*
X212587Y45263*
X212225Y45148*
X211863Y45225*
X211605Y45417*
X211450Y45685*
Y45953*
X211553Y46222*
X211812Y46452*
X211450Y47750D02*
G01X214550Y48287D01*
X211450Y48900*
X214550Y49513*
X211450Y50050*
X211708Y52843D02*
G01X211553Y52613D01*
X211450Y52345*
Y52038*
X211605Y51693*
X211863Y51425*
X212173Y51233*
X212690Y51080*
X213155Y51042*
X213620Y51118*
X213930Y51233*
X214240Y51463*
X214447Y51732*
X214550Y52000*
Y52268*
X214447Y52537*
X214292Y52767*
X214085Y52958*
X211450Y54333D02*
G01X214550D01*
Y55867*
Y57357D02*
G01X211450D01*
Y58813D02*
G01X213362Y57357D01*
X214550Y59043D02*
G01X212483Y58008D01*
X213413Y73057D02*
G01X213775Y73287D01*
X213982Y73593*
X214033Y73938*
X213982Y74245*
X213724Y74552*
X213413Y74743*
X213103Y74782*
X212742Y74705*
X212483Y74437*
X212380Y74168*
Y73823*
Y74168D02*
G01X212225Y74398D01*
X211967Y74590*
X211657Y74667*
X211347Y74590*
X211088Y74398*
X210933Y74053*
X210985Y73708*
X211192Y73363*
X214137Y77000D02*
G01X214085Y76923D01*
X213982*
X213930Y77000*
X213982Y77077*
X214085*
X214137Y77000*
X213413Y79257D02*
G01X213775Y79487D01*
X213982Y79793*
X214033Y80138*
X213982Y80445*
X213724Y80752*
X213413Y80943*
X213103Y80982*
X212742Y80905*
X212483Y80637*
X212380Y80368*
Y80023*
Y80368D02*
G01X212225Y80598D01*
X211967Y80790*
X211657Y80867*
X211347Y80790*
X211088Y80598*
X210933Y80253*
X210985Y79908*
X211192Y79563*
X209500Y97607D02*
G01X204500D01*
Y100013D02*
G01X207583Y97607D01*
X209500Y100393D02*
G01X206167Y98683D01*
X208500Y82417D02*
G01X203500Y84000D01*
X208500Y85583*
X206750Y85013D02*
G01Y82987D01*
X200492Y105550D02*
G01X201450Y102450D01*
X202408Y105550*
X204857Y104103D02*
G01X205010Y104258D01*
X205125Y104517*
X205202Y104878*
X205125Y105188*
X204972Y105395*
X204703Y105550*
X203668*
Y102450*
X204933*
X205202Y102657*
X205355Y102967*
X205432Y103328*
X205355Y103690*
X205125Y104000*
X204857Y104103*
X203668*
X0Y0D02*
G01X216535D01*
Y118110*
X0*
Y0*
Y0D02*
G01X216535D01*
Y118110*
X0*
Y0*
Y128110D02*
G01X216535D01*
Y246220*
X0*
Y128110*
X100179Y249443D02*
G01X100128Y249943D01*
X99997Y250428*
X99792Y250886*
X99517Y251305*
X99178Y251676*
X98785Y251988*
X98348Y252234*
X97877Y252408*
X97384Y252505*
X97025Y252525*
X46245*
X45745Y252485*
X45257Y252366*
X44794Y252172*
X44368Y251906*
X43990Y251576*
X43668Y251191*
X43412Y250759*
X43228Y250292*
X43120Y249802*
X43091Y249297*
X43142Y248797*
X43273Y248312*
X43478Y247854*
X43753Y247435*
X44092Y247064*
X44485Y246752*
X44922Y246506*
X45393Y246332*
X45886Y246235*
X46245Y246215*
X97025*
X97525Y246255*
X98013Y246374*
X98476Y246568*
X98902Y246834*
X99280Y247164*
X99602Y247549*
X99858Y247981*
X100042Y248448*
X100150Y248938*
X100179Y249443*
X173471D02*
G01X173420Y249943D01*
X173289Y250428*
X173084Y250886*
X172809Y251305*
X172470Y251676*
X172077Y251988*
X171640Y252234*
X171169Y252408*
X170676Y252505*
X170317Y252525*
X119325*
X118825Y252485*
X118337Y252366*
X117874Y252172*
X117448Y251906*
X117070Y251576*
X116748Y251191*
X116492Y250759*
X116308Y250292*
X116200Y249802*
X116171Y249297*
X116222Y248797*
X116353Y248312*
X116558Y247854*
X116833Y247435*
X117172Y247064*
X117565Y246752*
X118002Y246506*
X118473Y246332*
X118966Y246235*
X119325Y246215*
X170317*
X170817Y246255*
X171305Y246374*
X171768Y246568*
X172194Y246834*
X172572Y247164*
X172894Y247549*
X173150Y247981*
X173334Y248448*
X173442Y248938*
X173471Y249443*
X99667Y123251D02*
G01X99905Y123694D01*
X100069Y124168*
X100156Y124662*
X100163Y125164*
X100091Y125661*
X99941Y126140*
X99717Y126589*
X99424Y126997*
X99071Y127353*
X98665Y127649*
X98218Y127877*
X97740Y128031*
X97244Y128107*
X97015Y128115*
X46217*
X45717Y128075*
X45229Y127956*
X44766Y127762*
X44340Y127496*
X43962Y127166*
X43640Y126781*
X43384Y126349*
X43200Y125882*
X43092Y125392*
X43063Y124891*
X43114Y124391*
X43243Y123906*
X43448Y123448*
X43662Y123109*
X43401Y122680*
X43211Y122216*
X43098Y121727*
X43063Y121226*
X43109Y120726*
X43233Y120239*
X43432Y119779*
X43702Y119356*
X44036Y118981*
X44425Y118664*
X44860Y118412*
X45329Y118233*
X45820Y118130*
X46218Y118105*
X97220*
X97720Y118145*
X98208Y118264*
X98671Y118458*
X99097Y118724*
X99475Y119054*
X99797Y119439*
X100053Y119871*
X100237Y120338*
X100345Y120828*
X100374Y121329*
X100323Y121829*
X100194Y122314*
X99989Y122772*
X99714Y123192*
X99667Y123251*
X172873Y123111D02*
G01X173134Y123540D01*
X173324Y124004*
X173437Y124493*
X173472Y124994*
X173426Y125494*
X173302Y125981*
X173103Y126441*
X172833Y126864*
X172499Y127239*
X172110Y127556*
X171675Y127808*
X171206Y127987*
X170715Y128090*
X170317Y128115*
X119315*
X118815Y128075*
X118327Y127956*
X117864Y127762*
X117438Y127496*
X117060Y127166*
X116738Y126781*
X116482Y126349*
X116298Y125882*
X116190Y125392*
X116161Y124891*
X116212Y124391*
X116341Y123906*
X116546Y123448*
X116821Y123028*
X116868Y122969*
X116630Y122526*
X116466Y122052*
X116379Y121558*
X116372Y121056*
X116444Y120559*
X116594Y120080*
X116818Y119631*
X117111Y119223*
X117464Y118867*
X117870Y118571*
X118317Y118343*
X118795Y118189*
X119291Y118113*
X119520Y118105*
X170318*
X170818Y118145*
X171306Y118264*
X171769Y118458*
X172195Y118724*
X172573Y119054*
X172895Y119439*
X173151Y119871*
X173335Y120338*
X173443Y120828*
X173472Y121329*
X173421Y121829*
X173292Y122314*
X173087Y122772*
X172873Y123111*
X100364Y-3077D02*
G01X100313Y-2577D01*
X100182Y-2092*
X99977Y-1634*
X99702Y-1215*
X99363Y-844*
X98970Y-532*
X98533Y-286*
X98062Y-112*
X97569Y-15*
X97210Y5*
X46218*
X45718Y-35*
X45230Y-154*
X44767Y-348*
X44341Y-614*
X43963Y-944*
X43641Y-1329*
X43385Y-1761*
X43201Y-2228*
X43093Y-2718*
X43064Y-3223*
X43115Y-3723*
X43246Y-4208*
X43451Y-4666*
X43726Y-5085*
X44065Y-5456*
X44458Y-5768*
X44895Y-6014*
X45366Y-6188*
X45859Y-6285*
X46218Y-6305*
X97210*
X97710Y-6265*
X98198Y-6146*
X98661Y-5952*
X99087Y-5686*
X99465Y-5356*
X99787Y-4971*
X100043Y-4539*
X100227Y-4072*
X100335Y-3582*
X100364Y-3077*
X173444D02*
G01X173393Y-2577D01*
X173262Y-2092*
X173057Y-1634*
X172782Y-1215*
X172443Y-844*
X172050Y-532*
X171613Y-286*
X171142Y-112*
X170649Y-15*
X170290Y5*
X119510*
X119010Y-35*
X118522Y-154*
X118059Y-348*
X117633Y-614*
X117255Y-944*
X116933Y-1329*
X116677Y-1761*
X116493Y-2228*
X116385Y-2718*
X116356Y-3223*
X116407Y-3723*
X116538Y-4208*
X116743Y-4666*
X117018Y-5085*
X117357Y-5456*
X117750Y-5768*
X118187Y-6014*
X118658Y-6188*
X119151Y-6285*
X119510Y-6305*
X170290*
X170790Y-6265*
X171278Y-6146*
X171741Y-5952*
X172167Y-5686*
X172545Y-5356*
X172867Y-4971*
X173123Y-4539*
X173307Y-4072*
X173415Y-3582*
X173444Y-3077*
X0Y-6305D02*
G01X23918D01*
X24418Y-6265*
X24906Y-6146*
X25369Y-5952*
X25795Y-5686*
X26173Y-5356*
X26495Y-4971*
X26751Y-4539*
X26935Y-4072*
X27043Y-3582*
X27072Y-3077*
Y-3077D02*
G01X27021Y-2577D01*
X26890Y-2092*
X26685Y-1634*
X26410Y-1215*
X26071Y-844*
X25678Y-532*
X25241Y-286*
X24770Y-112*
X24277Y-15*
X23918Y5*
X5*
Y118105*
X23918*
X24418Y118145*
X24906Y118264*
X25369Y118458*
X25795Y118724*
X26173Y119054*
X26495Y119439*
X26751Y119871*
X26935Y120338*
X27043Y120828*
X27072Y121329*
X27021Y121829*
X26892Y122314*
X26687Y122772*
X26473Y123111*
X26734Y123540*
X26924Y124004*
X27037Y124493*
X27072Y124994*
X27026Y125494*
X26902Y125981*
X26703Y126441*
X26433Y126864*
X26099Y127239*
X25710Y127556*
X25275Y127808*
X24806Y127987*
X24315Y128090*
X23917Y128115*
X0*
Y246215*
X23945*
X24445Y246255*
X24933Y246374*
X25396Y246568*
X25822Y246834*
X26200Y247164*
X26522Y247549*
X26778Y247981*
X26962Y248448*
X27070Y248938*
X27099Y249443*
X27048Y249943*
X26917Y250428*
X26712Y250886*
X26437Y251305*
X26098Y251676*
X25705Y251988*
X25268Y252234*
X24797Y252408*
X24304Y252505*
X23945Y252525*
X0*
X216535D02*
G01X192617D01*
X192117Y252485*
X191629Y252366*
X191166Y252172*
X190740Y251906*
X190362Y251576*
X190040Y251191*
X189784Y250759*
X189600Y250292*
X189492Y249802*
X189463Y249297*
X189514Y248797*
X189645Y248312*
X189850Y247854*
X190125Y247435*
X190464Y247064*
X190857Y246752*
X191294Y246506*
X191765Y246332*
X192258Y246235*
X192617Y246215*
X216530*
Y128115*
X192617*
X192117Y128075*
X191629Y127956*
X191166Y127762*
X190740Y127496*
X190362Y127166*
X190040Y126781*
X189784Y126349*
X189600Y125882*
X189492Y125392*
X189463Y124891*
X189514Y124391*
X189643Y123906*
X189848Y123448*
X190062Y123109*
X189801Y122680*
X189611Y122216*
X189498Y121727*
X189463Y121226*
X189509Y120726*
X189633Y120239*
X189832Y119779*
X190102Y119356*
X190436Y118981*
X190825Y118664*
X191260Y118412*
X191729Y118233*
X192220Y118130*
X192618Y118105*
X216535*
Y5*
X192590*
X192090Y-35*
X191602Y-154*
X191139Y-348*
X190713Y-614*
X190335Y-944*
X190013Y-1329*
X189757Y-1761*
X189573Y-2228*
X189465Y-2718*
X189436Y-3223*
X189487Y-3723*
X189618Y-4208*
X189823Y-4666*
X190098Y-5085*
X190437Y-5456*
X190830Y-5768*
X191267Y-6014*
X191738Y-6188*
X192231Y-6285*
X192590Y-6305*
X216535*
X0Y0D02*
G01X216535D01*
Y118110*
X0*
Y0*
Y128110D02*
G01X216535D01*
Y246220*
X0*
Y128110*
Y252525D02*
G01Y286220D01*
Y286220D02*
G01X216535D01*
Y252525*
Y-6305D02*
G01Y-40000D01*
X0*
Y-6305*
Y5D02*
G01Y118108D01*
Y128115D02*
G01Y246219D01*
X216535Y246212D02*
G01Y128115D01*
Y118109D02*
G01Y5D01*
G54D56*
X-2197Y188149D02*
G01X-7118Y193071D01*
Y190118*
X-11055*
Y186181*
X-7118*
Y183228*
X-2197Y188149*
X8268Y140598D02*
G01Y131110D01*
X208268*
Y140598*
X8268*
X22665Y201732D02*
G01Y172598D01*
X500*
Y201732*
X22665*
X8268Y243220D02*
G01Y233732D01*
X208268*
Y243220*
X8268*
X29300Y188110D02*
G01X39300D01*
Y183110*
X29300*
Y188110*
Y194110D02*
G01X39300D01*
Y189110*
X29300*
Y194110*
X42800Y221210D02*
G01X34000D01*
X33400Y221810D02*
G03X34000Y221210I600D01*
X33400Y221810D02*
G01Y225610D01*
X34000Y226210D02*
G03X33400Y225610J-600D01*
X34000Y226210D02*
G01X42800D01*
X43400Y225610D02*
G03X42800Y226210I-600D01*
X43400Y225610D02*
G01Y221810D01*
X42800Y221210D02*
G03X43400Y221810J600D01*
X42900Y211010D02*
G01X34100D01*
X33500Y211610D02*
G03X34100Y211010I600D01*
X33500Y211610D02*
G01Y215410D01*
X34100Y216010D02*
G03X33500Y215410J-600D01*
X34100Y216010D02*
G01X42900D01*
X43500Y215410D02*
G03X42900Y216010I-600D01*
X43500Y215410D02*
G01Y211610D01*
X42900Y211010D02*
G03X43500Y211610J600D01*
X44200Y211810D02*
G01Y220610D01*
X44800Y221210D02*
G03X44200Y220610J-600D01*
X44800Y221210D02*
G01X48600D01*
X49200Y220610D02*
G03X48600Y221210I-600D01*
X49200Y220610D02*
G01Y211810D01*
X48600Y211210D02*
G03X49200Y211810J600D01*
X48600Y211210D02*
G01X44800D01*
X44200Y211810D02*
G03X44800Y211210I600D01*
X57352Y149623D02*
G01X88848D01*
Y163797*
X57352*
Y149623*
X69700Y191310D02*
G01Y201310D01*
X74700*
Y191310*
X69700*
X56116Y223810D02*
G01X88084D01*
Y203810*
X56116*
Y223810*
X114268Y206652D02*
G01X94780Y187165D01*
X114268Y167678*
X133755Y187165*
X114268Y206652*
X144079Y209753D02*
G01X137856Y203531D01*
X137008D02*
G03X137856Y203531I424J424D01*
X137008D02*
G01X134321Y206218D01*
Y207066D02*
G03X134321Y206218I424J-424D01*
Y207066D02*
G01X140544Y213289D01*
X141392D02*
G03X140544Y213289I-424J-424D01*
X141392D02*
G01X144079Y210602D01*
Y209753D02*
G03X144079Y210602I-424J424D01*
X139779Y213854D02*
G01X133556Y207631D01*
X132708D02*
G03X133556Y207631I424J424D01*
X132708D02*
G01X130021Y210318D01*
Y211167D02*
G03X130021Y210318I424J-425D01*
Y211167D02*
G01X136244Y217389D01*
X137092D02*
G03X136244Y217389I-424J-424D01*
X137092D02*
G01X139779Y214702D01*
Y213854D02*
G03X139779Y214702I-424J424D01*
X168701Y162953D02*
G01Y211378D01*
X150197*
Y162953*
X168701*
X199753Y147711D02*
G01Y160309D01*
X193847*
Y147711*
X199753*
X189080Y202958D02*
G01Y171462D01*
X174120*
Y202958*
X189080*
X198700Y203810D02*
G01Y195010D01*
X198100Y194410D02*
G03X198700Y195010J600D01*
X198100Y194410D02*
G01X194300D01*
X193700Y195010D02*
G03X194300Y194410I600D01*
X193700Y195010D02*
G01Y203810D01*
X194300Y204410D02*
G03X193700Y203810J-600D01*
X194300Y204410D02*
G01X198100D01*
X198700Y203810D02*
G03X198100Y204410I-600D01*
X203200Y153110D02*
G01Y156610D01*
X201200Y151110D02*
G01X205200D01*
X203200D02*
G01X205200Y153110D01*
X201200*
X203200Y151110*
Y149610*
X200047Y167165D02*
G01X209535D01*
Y207165*
X200047*
Y167165*
X204900Y219410D02*
G01Y215910D01*
X206900Y221410D02*
G01X202900D01*
X204900D02*
G01X202900Y219410D01*
X206900*
X204900Y221410*
Y222910*
X196447Y225709D02*
G01Y213111D01*
X202353*
Y225709*
X196447*
G54D11*
X7207Y143213D02*
G01X7360Y143368D01*
X7475Y143627*
X7552Y143988*
X7475Y144298*
X7322Y144505*
X7053Y144660*
X6018*
Y141560*
X7283*
X7552Y141767*
X7705Y142077*
X7782Y142438*
X7705Y142800*
X7475Y143110*
X7207Y143213*
X6018*
X10000Y141560D02*
G01Y144660D01*
X9540Y144040*
Y141560D02*
G01X10460D01*
X12372Y144143D02*
G01X12602Y144453D01*
X12870Y144608*
X13177Y144660*
X13560Y144557*
X13828Y144298*
X13905Y143988*
X13867Y143678*
X13713Y143420*
X12947Y142903*
X12602Y142542*
X12372Y142025*
X12295Y141560*
X13905*
X18207Y143213D02*
G01X18360Y143368D01*
X18475Y143627*
X18552Y143988*
X18475Y144298*
X18322Y144505*
X18053Y144660*
X17018*
Y141560*
X18283*
X18552Y141767*
X18705Y142077*
X18782Y142438*
X18705Y142800*
X18475Y143110*
X18207Y143213*
X17018*
X21000Y141560D02*
G01Y144660D01*
X20540Y144040*
Y141560D02*
G01X21460D01*
X23257Y142180D02*
G01X23487Y141818D01*
X23793Y141612*
X24138Y141560*
X24445Y141612*
X24752Y141870*
X24943Y142180*
X24982Y142490*
X24905Y142852*
X24637Y143110*
X24368Y143213*
X24023*
X24368D02*
G01X24598Y143368D01*
X24790Y143627*
X24867Y143937*
X24790Y144247*
X24598Y144505*
X24253Y144660*
X23908Y144608*
X23563Y144402*
X1822Y136643D02*
G01X2052Y136953D01*
X2320Y137108*
X2627Y137160*
X3010Y137057*
X3278Y136798*
X3355Y136488*
X3317Y136178*
X3163Y135920*
X2397Y135403*
X2052Y135042*
X1822Y134525*
X1745Y134060*
X3355*
X5650Y137160D02*
G01X5343Y137057D01*
X5113Y136798*
X4960Y136488*
X4845Y136075*
X4807Y135610*
X4845Y135145*
X4960Y134732*
X5113Y134422*
X5343Y134163*
X5650Y134060*
X5957Y134163*
X6187Y134422*
X6340Y134732*
X6455Y135145*
X6493Y135610*
X6455Y136075*
X6340Y136488*
X6187Y136798*
X5957Y137057*
X5650Y137160*
X21593Y225993D02*
G01X21213Y226243D01*
X20770Y226410*
X20263*
X19693Y226160*
X19250Y225743*
X18933Y225243*
X18680Y224410*
X18617Y223660*
X18743Y222910*
X18933Y222410*
X19313Y221910*
X19757Y221577*
X20200Y221410*
X20643*
X21087Y221577*
X21467Y221827*
X21783Y222160*
X25300Y221410D02*
G01Y226410D01*
X24540Y225410*
Y221410D02*
G01X26060D01*
X30400Y226410D02*
G01X29893Y226243D01*
X29513Y225827*
X29260Y225327*
X29070Y224660*
X29007Y223910*
X29070Y223160*
X29260Y222493*
X29513Y221993*
X29893Y221577*
X30400Y221410*
X30907Y221577*
X31287Y221993*
X31540Y222493*
X31730Y223160*
X31793Y223910*
X31730Y224660*
X31540Y225327*
X31287Y225827*
X30907Y226243*
X30400Y226410*
X6057Y213810D02*
G01Y210227D01*
X6310Y209476*
X6817Y208977*
X7450Y208810*
X8083Y208977*
X8590Y209476*
X8843Y210227*
Y213810*
X11157Y209810D02*
G01X11537Y209227D01*
X12043Y208893*
X12613Y208810*
X13120Y208893*
X13627Y209310*
X13943Y209810*
X14007Y210310*
X13880Y210893*
X13437Y211310*
X12993Y211477*
X12423*
X12993D02*
G01X13373Y211727D01*
X13690Y212143*
X13817Y212643*
X13690Y213143*
X13373Y213560*
X12803Y213810*
X12233Y213727*
X11663Y213393*
X13230Y232110D02*
G01X13997D01*
Y231180*
X13767Y230870*
X13498Y230663*
X13115Y230560*
X12732Y230663*
X12463Y230870*
X12233Y231180*
X12080Y231542*
X12003Y231955*
Y232317*
X12080Y232627*
X12233Y232988*
X12463Y233298*
X12693Y233505*
X13000Y233660*
X13268*
X13575Y233557*
X13805Y233350*
X1722Y239143D02*
G01X1952Y239453D01*
X2220Y239608*
X2527Y239660*
X2910Y239557*
X3178Y239298*
X3255Y238988*
X3217Y238678*
X3063Y238420*
X2297Y237903*
X1952Y237542*
X1722Y237025*
X1645Y236560*
X3255*
X5550Y239660D02*
G01X5243Y239557D01*
X5013Y239298*
X4860Y238988*
X4745Y238575*
X4707Y238110*
X4745Y237645*
X4860Y237232*
X5013Y236922*
X5243Y236663*
X5550Y236560*
X5857Y236663*
X6087Y236922*
X6240Y237232*
X6355Y237645*
X6393Y238110*
X6355Y238575*
X6240Y238988*
X6087Y239298*
X5857Y239557*
X5550Y239660*
X29207Y143213D02*
G01X29360Y143368D01*
X29475Y143627*
X29552Y143988*
X29475Y144298*
X29322Y144505*
X29053Y144660*
X28018*
Y141560*
X29283*
X29552Y141767*
X29705Y142077*
X29782Y142438*
X29705Y142800*
X29475Y143110*
X29207Y143213*
X28018*
X32000Y141560D02*
G01Y144660D01*
X31540Y144040*
Y141560D02*
G01X32460D01*
X35560D02*
G01Y144660D01*
X34142Y142438*
X36058*
X40207Y143213D02*
G01X40360Y143368D01*
X40475Y143627*
X40552Y143988*
X40475Y144298*
X40322Y144505*
X40053Y144660*
X39018*
Y141560*
X40283*
X40552Y141767*
X40705Y142077*
X40782Y142438*
X40705Y142800*
X40475Y143110*
X40207Y143213*
X39018*
X43000Y141560D02*
G01Y144660D01*
X42540Y144040*
Y141560D02*
G01X43460D01*
X45257Y142025D02*
G01X45487Y141767D01*
X45755Y141612*
X46100Y141560*
X46445Y141663*
X46713Y141870*
X46905Y142232*
X46943Y142645*
X46867Y143058*
X46675Y143317*
X46407Y143523*
X46138Y143575*
X45870Y143523*
X45525Y143317*
X45640Y144660*
X46675*
X29533Y154610D02*
G01Y159610D01*
X31117*
X31623Y159360*
X31940Y159027*
X32067Y158360*
X31940Y157693*
X31560Y157277*
X31117Y157027*
X29533*
X31117D02*
G01X32067Y154610D01*
X37167D02*
G01X34633D01*
Y159610*
X37167*
X36153Y157193D02*
G01X34633D01*
X39670Y155277D02*
G01X40177Y154860D01*
X40747Y154610*
X41253*
X41760Y154860*
X42140Y155277*
X42330Y155860*
X42203Y156443*
X41887Y156943*
X41317Y157277*
X40557Y157443*
X40113Y157777*
X39923Y158360*
X40050Y158943*
X40367Y159360*
X40810Y159610*
X41253*
X41697Y159443*
X42077Y159027*
X47367Y154610D02*
G01X44833D01*
Y159610*
X47367*
X46353Y157193D02*
G01X44833D01*
X51200Y159610D02*
G01Y154610D01*
X49743Y159610D02*
G01X52657D01*
X44983Y183110D02*
G01Y188110D01*
X46567*
X47073Y187860*
X47390Y187527*
X47517Y186860*
X47390Y186193*
X47010Y185777*
X46567Y185527*
X44983*
X46567D02*
G01X47517Y183110D01*
X51223D02*
G01X51350Y184193D01*
X51540Y185110*
X51793Y185943*
X52110Y186860*
X52617Y188110*
X50083*
X44983Y189110D02*
G01Y194110D01*
X46567*
X47073Y193860*
X47390Y193527*
X47517Y192860*
X47390Y192193*
X47010Y191777*
X46567Y191527*
X44983*
X46567D02*
G01X47517Y189110D01*
X50147Y191193D02*
G01X50590Y191777D01*
X50970Y192110*
X51477Y192277*
X51920Y192110*
X52237Y191777*
X52490Y191277*
X52553Y190693*
X52490Y190193*
X52237Y189693*
X51857Y189277*
X51413Y189110*
X50907Y189277*
X50463Y189776*
X50210Y190527*
X50147Y191360*
X50273Y192443*
X50463Y193027*
X50780Y193610*
X51223Y194027*
X51667Y194110*
X52110Y193943*
X52427Y193527*
X30550Y177917D02*
G01X30967Y178297D01*
X31217Y178740*
X31300Y179310*
X31133Y179880*
X30800Y180323*
X30217Y180640*
X29550Y180703*
X28883Y180577*
X28467Y180260*
X28133Y179817*
X28050Y179373*
X28133Y178930*
X28467Y178360*
X26300Y178550*
Y180260*
X29057Y230697D02*
G01X29287Y230335D01*
X29593Y230128*
X29938Y230077*
X30245Y230128*
X30552Y230387*
X30743Y230697*
X30782Y231007*
X30705Y231368*
X30437Y231627*
X30168Y231730*
X29823*
X30168D02*
G01X30398Y231885D01*
X30590Y232143*
X30667Y232453*
X30590Y232763*
X30398Y233022*
X30053Y233177*
X29708Y233125*
X29363Y232918*
X33000Y229973D02*
G01X32923Y230025D01*
Y230128*
X33000Y230180*
X33077Y230128*
Y230025*
X33000Y229973*
X35257Y230697D02*
G01X35487Y230335D01*
X35793Y230128*
X36138Y230077*
X36445Y230128*
X36752Y230387*
X36943Y230697*
X36982Y231007*
X36905Y231368*
X36637Y231627*
X36368Y231730*
X36023*
X36368D02*
G01X36598Y231885D01*
X36790Y232143*
X36867Y232453*
X36790Y232763*
X36598Y233022*
X36253Y233177*
X35908Y233125*
X35563Y232918*
X25943Y214993D02*
G01X25563Y215243D01*
X25120Y215410*
X24613*
X24043Y215160*
X23600Y214743*
X23283Y214243*
X23030Y213410*
X22967Y212660*
X23093Y211910*
X23283Y211410*
X23663Y210910*
X24107Y210577*
X24550Y210410*
X24993*
X25437Y210577*
X25817Y210827*
X26133Y211160*
X29650Y210410D02*
G01X30093Y210493D01*
X30600Y210743*
X30917Y211160*
X31043Y211743*
X30917Y212327*
X30537Y212827*
X29967Y213077*
X29333*
X28953Y213243*
X28637Y213660*
X28510Y214243*
X28700Y214827*
X29143Y215243*
X29650Y215410*
X30157Y215243*
X30600Y214827*
X30790Y214243*
X30663Y213660*
X30347Y213243*
X29967Y213077*
X29333*
X28763Y212827*
X28383Y212327*
X28257Y211743*
X28383Y211160*
X28700Y210743*
X29207Y210493*
X29650Y210410*
X45717Y204253D02*
G01X45467Y203873D01*
X45300Y203430*
Y202923*
X45550Y202353*
X45967Y201910*
X46467Y201593*
X47300Y201340*
X48050Y201277*
X48800Y201403*
X49300Y201593*
X49800Y201973*
X50133Y202417*
X50300Y202860*
Y203303*
X50133Y203747*
X49883Y204127*
X49550Y204443*
X49717Y206883D02*
G01X50133Y207327D01*
X50300Y207833*
X50133Y208340*
X49634Y208783*
X48883Y209100*
X48133Y209227*
X47217*
X46467Y209100*
X45800Y208783*
X45467Y208403*
X45300Y207960*
X45467Y207453*
X45800Y207073*
X46300Y206820*
X46967Y206693*
X47550Y206820*
X48133Y207137*
X48467Y207517*
X48550Y207960*
X48383Y208467*
X47967Y208847*
X47217Y209227*
X23230Y232110D02*
G01X23997D01*
Y231180*
X23767Y230870*
X23498Y230663*
X23115Y230560*
X22732Y230663*
X22463Y230870*
X22233Y231180*
X22080Y231542*
X22003Y231955*
Y232317*
X22080Y232627*
X22233Y232988*
X22463Y233298*
X22693Y233505*
X23000Y233660*
X23268*
X23575Y233557*
X23805Y233350*
X42233Y230560D02*
G01Y233660D01*
X43192*
X43498Y233505*
X43690Y233298*
X43767Y232885*
X43690Y232472*
X43460Y232213*
X43192Y232058*
X42233*
X43192D02*
G01X43767Y230560D01*
X50207Y232213D02*
G01X50360Y232368D01*
X50475Y232627*
X50552Y232988*
X50475Y233298*
X50322Y233505*
X50053Y233660*
X49018*
Y230560*
X50283*
X50552Y230767*
X50705Y231077*
X50782Y231438*
X50705Y231800*
X50475Y232110*
X50207Y232213*
X49018*
X53000Y230560D02*
G01Y233660D01*
X52540Y233040*
Y230560D02*
G01X53460D01*
X56100D02*
G01Y233660D01*
X55640Y233040*
Y230560D02*
G01X56560D01*
X50492Y141560D02*
G01X51450Y144660D01*
X52408Y141560*
X52063Y142645D02*
G01X50837D01*
X54550Y141560D02*
G01X54818Y141612D01*
X55125Y141767*
X55317Y142025*
X55393Y142387*
X55317Y142748*
X55087Y143058*
X54742Y143213*
X54358*
X54128Y143317*
X53937Y143575*
X53860Y143937*
X53975Y144298*
X54243Y144557*
X54550Y144660*
X54857Y144557*
X55125Y144298*
X55240Y143937*
X55163Y143575*
X54972Y143317*
X54742Y143213*
X54358*
X54013Y143058*
X53783Y142748*
X53707Y142387*
X53783Y142025*
X53975Y141767*
X54282Y141612*
X54550Y141560*
X59492D02*
G01X60450Y144660D01*
X61408Y141560*
X61063Y142645D02*
G01X59837D01*
X62898Y141922D02*
G01X63167Y141663D01*
X63473Y141560*
X63780Y141663*
X64048Y141973*
X64240Y142438*
X64317Y142903*
Y143472*
X64240Y143937*
X64048Y144350*
X63818Y144557*
X63550Y144660*
X63243Y144557*
X63013Y144350*
X62860Y144040*
X62783Y143627*
X62860Y143265*
X63052Y142903*
X63282Y142697*
X63550Y142645*
X63857Y142748*
X64087Y143007*
X64317Y143472*
X67942Y141560D02*
G01X68900Y144660D01*
X69858Y141560*
X69513Y142645D02*
G01X68287D01*
X72000Y141560D02*
G01Y144660D01*
X71540Y144040*
Y141560D02*
G01X72460D01*
X75100Y144660D02*
G01X74793Y144557D01*
X74563Y144298*
X74410Y143988*
X74295Y143575*
X74257Y143110*
X74295Y142645*
X74410Y142232*
X74563Y141922*
X74793Y141663*
X75100Y141560*
X75407Y141663*
X75637Y141922*
X75790Y142232*
X75905Y142645*
X75943Y143110*
X75905Y143575*
X75790Y143988*
X75637Y144298*
X75407Y144557*
X75100Y144660*
X67270Y165476D02*
G01X67777Y165060D01*
X68347Y164810*
X68853*
X69360Y165060*
X69740Y165476*
X69930Y166060*
X69803Y166643*
X69487Y167143*
X68917Y167477*
X68157Y167643*
X67713Y167977*
X67523Y168560*
X67650Y169143*
X67967Y169560*
X68410Y169810*
X68853*
X69297Y169643*
X69677Y169227*
X71800Y169810D02*
G01X72687Y164810D01*
X73700Y169810*
X74713Y164810*
X75600Y169810*
X78800Y164810D02*
G01Y169810D01*
X78040Y168810*
Y164810D02*
G01X79560D01*
X78107Y198513D02*
G01X78260Y198668D01*
X78375Y198927*
X78452Y199288*
X78375Y199598*
X78222Y199805*
X77953Y199960*
X76918*
Y196860*
X78183*
X78452Y197067*
X78605Y197377*
X78682Y197738*
X78605Y198100*
X78375Y198410*
X78107Y198513*
X76918*
X80900Y196860D02*
G01X80593Y196912D01*
X80325Y197118*
X80095Y197428*
X79942Y197790*
X79865Y198203*
Y198617*
X79942Y199030*
X80095Y199392*
X80325Y199702*
X80593Y199908*
X80900Y199960*
X81207Y199908*
X81475Y199702*
X81705Y199392*
X81858Y199030*
X81935Y198617*
Y198203*
X81858Y197790*
X81705Y197428*
X81475Y197118*
X81207Y196912*
X80900Y196860*
X84000D02*
G01X83693Y196912D01*
X83425Y197118*
X83195Y197428*
X83042Y197790*
X82965Y198203*
Y198617*
X83042Y199030*
X83195Y199392*
X83425Y199702*
X83693Y199908*
X84000Y199960*
X84307Y199908*
X84575Y199702*
X84805Y199392*
X84958Y199030*
X85035Y198617*
Y198203*
X84958Y197790*
X84805Y197428*
X84575Y197118*
X84307Y196912*
X84000Y196860*
X87100Y199960D02*
G01Y196860D01*
X86218Y199960D02*
G01X87982D01*
X90200D02*
G01X89893Y199857D01*
X89663Y199598*
X89510Y199288*
X89395Y198875*
X89357Y198410*
X89395Y197945*
X89510Y197532*
X89663Y197222*
X89893Y196963*
X90200Y196860*
X90507Y196963*
X90737Y197222*
X90890Y197532*
X91005Y197945*
X91043Y198410*
X91005Y198875*
X90890Y199288*
X90737Y199598*
X90507Y199857*
X90200Y199960*
X74200Y181793D02*
G01X69200D01*
Y183377*
X69450Y183883*
X69783Y184200*
X70450Y184327*
X71117Y184200*
X71533Y183820*
X71783Y183377*
Y181793*
Y183377D02*
G01X74200Y184327D01*
X70033Y186957D02*
G01X69533Y187337D01*
X69283Y187780*
X69200Y188287*
X69367Y188920*
X69783Y189363*
X70283Y189490*
X70784Y189427*
X71200Y189173*
X72033Y187907*
X72617Y187337*
X73450Y186957*
X74200Y186830*
Y189490*
X53100Y217660D02*
G01Y220760D01*
X52640Y220140*
Y217660D02*
G01X53560D01*
X54200Y203760D02*
G01Y206860D01*
X53740Y206240*
Y203760D02*
G01X54660D01*
X65707Y226613D02*
G01X65860Y226768D01*
X65975Y227027*
X66052Y227388*
X65975Y227698*
X65822Y227905*
X65553Y228060*
X64518*
Y224960*
X65783*
X66052Y225167*
X66205Y225477*
X66282Y225838*
X66205Y226200*
X65975Y226510*
X65707Y226613*
X64518*
X68500Y224960D02*
G01X68193Y225012D01*
X67925Y225218*
X67695Y225528*
X67542Y225890*
X67465Y226303*
Y226717*
X67542Y227130*
X67695Y227492*
X67925Y227802*
X68193Y228008*
X68500Y228060*
X68807Y228008*
X69075Y227802*
X69305Y227492*
X69458Y227130*
X69535Y226717*
Y226303*
X69458Y225890*
X69305Y225528*
X69075Y225218*
X68807Y225012*
X68500Y224960*
X71600D02*
G01X71293Y225012D01*
X71025Y225218*
X70795Y225528*
X70642Y225890*
X70565Y226303*
Y226717*
X70642Y227130*
X70795Y227492*
X71025Y227802*
X71293Y228008*
X71600Y228060*
X71907Y228008*
X72175Y227802*
X72405Y227492*
X72558Y227130*
X72635Y226717*
Y226303*
X72558Y225890*
X72405Y225528*
X72175Y225218*
X71907Y225012*
X71600Y224960*
X74700Y228060D02*
G01Y224960D01*
X73818Y228060D02*
G01X75582D01*
X77800Y224960D02*
G01Y228060D01*
X77340Y227440*
Y224960D02*
G01X78260D01*
X57072Y227443D02*
G01X57302Y227753D01*
X57570Y227908*
X57877Y227960*
X58260Y227857*
X58528Y227598*
X58605Y227288*
X58567Y226978*
X58413Y226720*
X57647Y226203*
X57302Y225842*
X57072Y225325*
X56995Y224860*
X58605*
X61207Y232213D02*
G01X61360Y232368D01*
X61475Y232627*
X61552Y232988*
X61475Y233298*
X61322Y233505*
X61053Y233660*
X60018*
Y230560*
X61283*
X61552Y230767*
X61705Y231077*
X61782Y231438*
X61705Y231800*
X61475Y232110*
X61207Y232213*
X60018*
X64000Y230560D02*
G01Y233660D01*
X63540Y233040*
Y230560D02*
G01X64460D01*
X67100Y233660D02*
G01X66793Y233557D01*
X66563Y233298*
X66410Y232988*
X66295Y232575*
X66257Y232110*
X66295Y231645*
X66410Y231232*
X66563Y230922*
X66793Y230663*
X67100Y230560*
X67407Y230663*
X67637Y230922*
X67790Y231232*
X67905Y231645*
X67943Y232110*
X67905Y232575*
X67790Y232988*
X67637Y233298*
X67407Y233557*
X67100Y233660*
X72757Y232213D02*
G01X72910Y232368D01*
X73025Y232627*
X73102Y232988*
X73025Y233298*
X72872Y233505*
X72603Y233660*
X71568*
Y230560*
X72833*
X73102Y230767*
X73255Y231077*
X73332Y231438*
X73255Y231800*
X73025Y232110*
X72757Y232213*
X71568*
X75550Y230560D02*
G01Y233660D01*
X75090Y233040*
Y230560D02*
G01X76010D01*
X78942Y141560D02*
G01X79900Y144660D01*
X80858Y141560*
X80513Y142645D02*
G01X79287D01*
X83000Y141560D02*
G01Y144660D01*
X82540Y144040*
Y141560D02*
G01X83460D01*
X86100D02*
G01Y144660D01*
X85640Y144040*
Y141560D02*
G01X86560D01*
X88942D02*
G01X89900Y144660D01*
X90858Y141560*
X90513Y142645D02*
G01X89287D01*
X93000Y141560D02*
G01Y144660D01*
X92540Y144040*
Y141560D02*
G01X93460D01*
X95372Y144143D02*
G01X95602Y144453D01*
X95870Y144608*
X96177Y144660*
X96560Y144557*
X96828Y144298*
X96905Y143988*
X96867Y143678*
X96713Y143420*
X95947Y142903*
X95602Y142542*
X95372Y142025*
X95295Y141560*
X96905*
X99942D02*
G01X100900Y144660D01*
X101858Y141560*
X101513Y142645D02*
G01X100287D01*
X104000Y141560D02*
G01Y144660D01*
X103540Y144040*
Y141560D02*
G01X104460D01*
X106257Y142025D02*
G01X106487Y141767D01*
X106755Y141612*
X107100Y141560*
X107445Y141663*
X107713Y141870*
X107905Y142232*
X107943Y142645*
X107867Y143058*
X107675Y143317*
X107407Y143523*
X107138Y143575*
X106870Y143523*
X106525Y143317*
X106640Y144660*
X107675*
X101851Y164438D02*
G01X101707Y163756D01*
X101830Y163163*
X102174Y162701*
X102591Y162401*
X103244Y162338*
X103821Y162467*
X104220Y162776*
X104543Y163278*
X104524Y163886*
X104328Y164318*
X103925Y164721*
X104328Y164318D02*
G01X104774Y164226D01*
X105292Y164296*
X105735Y164560*
X105999Y165003*
X106070Y165522*
X105844Y166102*
X105382Y166446*
X104743Y166613*
X106357Y161463D02*
G01X107084Y161562D01*
X107588Y161529*
X108064Y161289*
X108260Y160857*
X108248Y160398*
X108074Y159865*
X107706Y159408*
X107307Y159099*
X106775Y158925*
X106211Y158899*
X105780Y159094*
X105540Y159571*
X105580Y160237*
X105931Y160947*
X106475Y161581*
X107331Y162258*
X107878Y162536*
X108514Y162724*
X109122Y162705*
X109495Y162451*
X109690Y162020*
X109620Y161501*
X86825Y180843D02*
G01X87447Y180927D01*
X87937Y180791*
X88354Y180491*
X88684Y179926*
X88703Y179318*
X88439Y178874*
X88041Y178566*
X87567Y178450*
X86082Y178757*
X85267Y178747*
X84409Y178427*
X83789Y177986*
X85670Y176105*
X87880Y174955D02*
G01X87854Y174391D01*
X87991Y173901*
X88335Y173439*
X88856Y173154*
X89405Y173076*
X90042Y173265*
X90558Y173691*
X90940Y174252*
X91011Y174771*
X90933Y175320*
X90678Y175692*
X90306Y175947*
X89667Y176114*
X91334Y177512*
X92543Y176303*
X85768Y186135D02*
G01X85683Y186757D01*
X85819Y187247*
X86119Y187664*
X86684Y187994*
X87293Y188013*
X87736Y187749*
X88044Y187351*
X88160Y186877*
X87854Y185392*
X87863Y184577*
X88184Y183719*
X88624Y183099*
X90505Y184980*
X93708Y188183D02*
G01X90173Y191718D01*
X91050Y187528*
X93289Y189767*
X90900Y219960D02*
G01X90593Y219857D01*
X90363Y219598*
X90210Y219288*
X90095Y218875*
X90057Y218410*
X90095Y217945*
X90210Y217532*
X90363Y217222*
X90593Y216963*
X90900Y216860*
X91207Y216963*
X91437Y217222*
X91590Y217532*
X91705Y217945*
X91743Y218410*
X91705Y218875*
X91590Y219288*
X91437Y219598*
X91207Y219857*
X90900Y219960*
X90400Y210360D02*
G01X90093Y210257D01*
X89863Y209998*
X89710Y209688*
X89595Y209275*
X89557Y208810*
X89595Y208345*
X89710Y207932*
X89863Y207622*
X90093Y207363*
X90400Y207260*
X90707Y207363*
X90937Y207622*
X91090Y207932*
X91205Y208345*
X91243Y208810*
X91205Y209275*
X91090Y209688*
X90937Y209998*
X90707Y210257*
X90400Y210360*
X90183Y222610D02*
G01X90500Y222110D01*
X90880Y221777*
X91323Y221610*
X91830Y221777*
X92210Y222110*
X92590Y222610*
X92717Y223277*
Y226610*
X96550Y221610D02*
G01Y226610D01*
X95790Y225610*
Y221610D02*
G01X97310D01*
X86372Y226052D02*
G01X86640Y226413D01*
X86870Y226620*
X87177Y226723*
X87445Y226620*
X87637Y226413*
X87790Y226103*
X87828Y225742*
X87790Y225432*
X87637Y225122*
X87407Y224863*
X87138Y224760*
X86832Y224863*
X86563Y225173*
X86410Y225638*
X86372Y226155*
X86448Y226827*
X86563Y227188*
X86755Y227550*
X87023Y227808*
X87292Y227860*
X87560Y227757*
X87752Y227498*
X89157Y201525D02*
G01X89387Y201267D01*
X89655Y201112*
X90000Y201060*
X90345Y201163*
X90613Y201370*
X90805Y201732*
X90843Y202145*
X90767Y202558*
X90575Y202817*
X90307Y203023*
X90038Y203075*
X89770Y203023*
X89425Y202817*
X89540Y204160*
X90575*
X97444Y208089D02*
G01X99978Y205556D01*
X100687Y205204*
X101399Y205209*
X101965Y205539*
X102295Y206105*
X102300Y206817*
X101948Y207526*
X99414Y210060*
X105571Y209145D02*
G01X102035Y212681D01*
X102205Y211436*
X105034Y208608D02*
G01X106108Y209683D01*
X81757Y232213D02*
G01X81910Y232368D01*
X82025Y232627*
X82102Y232988*
X82025Y233298*
X81872Y233505*
X81603Y233660*
X80568*
Y230560*
X81833*
X82102Y230767*
X82255Y231077*
X82332Y231438*
X82255Y231800*
X82025Y232110*
X81757Y232213*
X80568*
X84550Y233660D02*
G01X84243Y233557D01*
X84013Y233298*
X83860Y232988*
X83745Y232575*
X83707Y232110*
X83745Y231645*
X83860Y231232*
X84013Y230922*
X84243Y230663*
X84550Y230560*
X84857Y230663*
X85087Y230922*
X85240Y231232*
X85355Y231645*
X85393Y232110*
X85355Y232575*
X85240Y232988*
X85087Y233298*
X84857Y233557*
X84550Y233660*
X90492Y230560D02*
G01X91450Y233660D01*
X92408Y230560*
X92063Y231645D02*
G01X90837D01*
X94473Y230560D02*
G01X94550Y231232D01*
X94665Y231800*
X94818Y232317*
X95010Y232885*
X95317Y233660*
X93783*
X100492Y230560D02*
G01X101450Y233660D01*
X102408Y230560*
X102063Y231645D02*
G01X100837D01*
X103822Y231852D02*
G01X104090Y232213D01*
X104320Y232420*
X104627Y232523*
X104895Y232420*
X105087Y232213*
X105240Y231903*
X105278Y231542*
X105240Y231232*
X105087Y230922*
X104857Y230663*
X104588Y230560*
X104282Y230663*
X104013Y230973*
X103860Y231438*
X103822Y231955*
X103898Y232627*
X104013Y232988*
X104205Y233350*
X104473Y233608*
X104742Y233660*
X105010Y233557*
X105202Y233298*
X112757Y143213D02*
G01X112910Y143368D01*
X113025Y143627*
X113102Y143988*
X113025Y144298*
X112872Y144505*
X112603Y144660*
X111568*
Y141560*
X112833*
X113102Y141767*
X113255Y142077*
X113332Y142438*
X113255Y142800*
X113025Y143110*
X112757Y143213*
X111568*
X114707Y142180D02*
G01X114937Y141818D01*
X115243Y141612*
X115588Y141560*
X115895Y141612*
X116202Y141870*
X116393Y142180*
X116432Y142490*
X116355Y142852*
X116087Y143110*
X115818Y143213*
X115473*
X115818D02*
G01X116048Y143368D01*
X116240Y143627*
X116317Y143937*
X116240Y144247*
X116048Y144505*
X115703Y144660*
X115358Y144608*
X115013Y144402*
X121757Y143213D02*
G01X121910Y143368D01*
X122025Y143627*
X122102Y143988*
X122025Y144298*
X121872Y144505*
X121603Y144660*
X120568*
Y141560*
X121833*
X122102Y141767*
X122255Y142077*
X122332Y142438*
X122255Y142800*
X122025Y143110*
X121757Y143213*
X120568*
X125010Y141560D02*
G01Y144660D01*
X123592Y142438*
X125508*
X131757Y143213D02*
G01X131910Y143368D01*
X132025Y143627*
X132102Y143988*
X132025Y144298*
X131872Y144505*
X131603Y144660*
X130568*
Y141560*
X131833*
X132102Y141767*
X132255Y142077*
X132332Y142438*
X132255Y142800*
X132025Y143110*
X131757Y143213*
X130568*
X133707Y142025D02*
G01X133937Y141767D01*
X134205Y141612*
X134550Y141560*
X134895Y141663*
X135163Y141870*
X135355Y142232*
X135393Y142645*
X135317Y143058*
X135125Y143317*
X134857Y143523*
X134588Y143575*
X134320Y143523*
X133975Y143317*
X134090Y144660*
X135125*
X110183Y147610D02*
G01X110500Y147110D01*
X110880Y146777*
X111323Y146610*
X111830Y146777*
X112210Y147110*
X112590Y147610*
X112717Y148277*
Y151610*
X117310Y146610D02*
G01Y151610D01*
X114967Y148027*
X118133*
X120272Y158161D02*
G01X120954Y158017D01*
X121547Y158140*
X122009Y158484*
X122309Y158901*
X122372Y159554*
X122243Y160131*
X121934Y160530*
X121432Y160853*
X120824Y160834*
X120392Y160638*
X119989Y160235*
X120392Y160638D02*
G01X120484Y161084D01*
X120414Y161602*
X120150Y162045*
X119707Y162309*
X119188Y162380*
X118608Y162154*
X118264Y161692*
X118097Y161053*
X125481Y161956D02*
G01X124805Y162811D01*
X124291Y163594*
X123881Y164362*
X123457Y165234*
X122931Y166476*
X121140Y164685*
X139106Y200962D02*
G01X138660Y200870D01*
X138229Y200675*
X137871Y200316*
X137644Y199736*
X137626Y199128*
X137755Y198551*
X138165Y197782*
X138651Y197207*
X139271Y196767*
X139759Y196547*
X140381Y196462*
X140930Y196540*
X141362Y196736*
X141675Y197050*
X141871Y197481*
X141963Y197926*
X141951Y198386*
X144968Y200342D02*
G01X141432Y203878D01*
X141602Y202633*
X144430Y199805D02*
G01X145505Y200880D01*
X146882Y203670D02*
G01X147563Y203526D01*
X148157Y203649*
X148619Y203993*
X148918Y204410*
X148982Y205063*
X148852Y205641*
X148543Y206039*
X148041Y206362*
X147433Y206343*
X147002Y206148*
X146599Y205744*
X147002Y206148D02*
G01X147094Y206593D01*
X147023Y207112*
X146759Y207555*
X146316Y207819*
X145797Y207889*
X145218Y207663*
X144873Y207201*
X144706Y206562*
X140002Y183276D02*
G01X136466Y186812D01*
X137343Y182621*
X139582Y184861*
X143071Y186345D02*
G01X143325Y186718D01*
X143507Y187253*
X143436Y187771*
X143113Y188273*
X142611Y188596*
X141989Y188681*
X141409Y188455*
X140961Y188007*
X140575Y187856*
X140056Y187927*
X139554Y188250*
X139276Y188797*
X139295Y189405*
X139535Y189881*
X140011Y190121*
X140620Y190140*
X141166Y189862*
X141489Y189360*
X141560Y188841*
X141409Y188455*
X140961Y188007*
X140735Y187427*
X140820Y186805*
X141143Y186303*
X141645Y185980*
X142163Y185909*
X142698Y186091*
X143071Y186345*
X129906Y220362D02*
G01X129460Y220270D01*
X129029Y220075*
X128671Y219716*
X128444Y219136*
X128426Y218528*
X128555Y217951*
X128965Y217182*
X129451Y216607*
X130071Y216167*
X130559Y215947*
X131181Y215862*
X131730Y215940*
X132162Y216136*
X132475Y216450*
X132671Y216881*
X132763Y217326*
X132751Y217786*
X135768Y219742D02*
G01X132232Y223278D01*
X132402Y222033*
X135230Y219205D02*
G01X136305Y220280D01*
X139911Y223886D02*
G01X136376Y227421D01*
X137253Y223231*
X139492Y225470*
X112183Y223610D02*
G01X112500Y223110D01*
X112880Y222777*
X113323Y222610*
X113830Y222777*
X114210Y223110*
X114590Y223610*
X114717Y224277*
Y227610*
X117157Y223610D02*
G01X117537Y223027D01*
X118043Y222693*
X118613Y222610*
X119120Y222693*
X119627Y223110*
X119943Y223610*
X120007Y224110*
X119880Y224693*
X119437Y225110*
X118993Y225277*
X118423*
X118993D02*
G01X119373Y225527D01*
X119690Y225943*
X119817Y226443*
X119690Y226943*
X119373Y227360*
X118803Y227610*
X118233Y227527*
X117663Y227193*
X112865Y207939D02*
G01X109329Y211475D01*
X109499Y210230*
X112327Y207402D02*
G01X113402Y208476D01*
X114778Y211267D02*
G01X115460Y211123D01*
X116054Y211246*
X116516Y211590*
X116815Y212007*
X116879Y212660*
X116749Y213238*
X116440Y213636*
X115938Y213959*
X115330Y213940*
X114899Y213744*
X114496Y213341*
X114899Y213744D02*
G01X114991Y214190D01*
X114920Y214708*
X114656Y215152*
X114213Y215416*
X113694Y215486*
X113114Y215260*
X112770Y214798*
X112603Y214159*
X122765Y209239D02*
G01X119229Y212775D01*
X119399Y211530*
X122227Y208702D02*
G01X123302Y209776D01*
X122574Y214941D02*
G01X122489Y215563D01*
X122626Y216053*
X122925Y216470*
X123490Y216800*
X124099Y216819*
X124542Y216555*
X124851Y216157*
X124966Y215683*
X124660Y214198*
X124669Y213383*
X124990Y212525*
X125430Y211905*
X127311Y213786*
X110492Y230560D02*
G01X111450Y233660D01*
X112408Y230560*
X112063Y231645D02*
G01X110837D01*
X113707Y231025D02*
G01X113937Y230767D01*
X114205Y230612*
X114550Y230560*
X114895Y230663*
X115163Y230870*
X115355Y231232*
X115393Y231645*
X115317Y232058*
X115125Y232317*
X114857Y232523*
X114588Y232575*
X114320Y232523*
X113975Y232317*
X114090Y233660*
X115125*
X120492Y230560D02*
G01X121450Y233660D01*
X122408Y230560*
X122063Y231645D02*
G01X120837D01*
X125010Y230560D02*
G01Y233660D01*
X123592Y231438*
X125508*
X130492Y230560D02*
G01X131450Y233660D01*
X132408Y230560*
X132063Y231645D02*
G01X130837D01*
X133707Y231180D02*
G01X133937Y230818D01*
X134243Y230612*
X134588Y230560*
X134895Y230612*
X135202Y230870*
X135393Y231180*
X135432Y231490*
X135355Y231852*
X135087Y232110*
X134818Y232213*
X134473*
X134818D02*
G01X135048Y232368D01*
X135240Y232627*
X135317Y232937*
X135240Y233247*
X135048Y233505*
X134703Y233660*
X134358Y233608*
X134013Y233402*
X141757Y143213D02*
G01X141910Y143368D01*
X142025Y143627*
X142102Y143988*
X142025Y144298*
X141872Y144505*
X141603Y144660*
X140568*
Y141560*
X141833*
X142102Y141767*
X142255Y142077*
X142332Y142438*
X142255Y142800*
X142025Y143110*
X141757Y143213*
X140568*
X143822Y142852D02*
G01X144090Y143213D01*
X144320Y143420*
X144627Y143523*
X144895Y143420*
X145087Y143213*
X145240Y142903*
X145278Y142542*
X145240Y142232*
X145087Y141922*
X144857Y141663*
X144588Y141560*
X144282Y141663*
X144013Y141973*
X143860Y142438*
X143822Y142955*
X143898Y143627*
X144013Y143988*
X144205Y144350*
X144473Y144608*
X144742Y144660*
X145010Y144557*
X145202Y144298*
X151757Y143213D02*
G01X151910Y143368D01*
X152025Y143627*
X152102Y143988*
X152025Y144298*
X151872Y144505*
X151603Y144660*
X150568*
Y141560*
X151833*
X152102Y141767*
X152255Y142077*
X152332Y142438*
X152255Y142800*
X152025Y143110*
X151757Y143213*
X150568*
X154473Y141560D02*
G01X154550Y142232D01*
X154665Y142800*
X154818Y143317*
X155010Y143885*
X155317Y144660*
X153783*
X161757Y143213D02*
G01X161910Y143368D01*
X162025Y143627*
X162102Y143988*
X162025Y144298*
X161872Y144505*
X161603Y144660*
X160568*
Y141560*
X161833*
X162102Y141767*
X162255Y142077*
X162332Y142438*
X162255Y142800*
X162025Y143110*
X161757Y143213*
X160568*
X164550Y141560D02*
G01X164818Y141612D01*
X165125Y141767*
X165317Y142025*
X165393Y142387*
X165317Y142748*
X165087Y143058*
X164742Y143213*
X164358*
X164128Y143317*
X163937Y143575*
X163860Y143937*
X163975Y144298*
X164243Y144557*
X164550Y144660*
X164857Y144557*
X165125Y144298*
X165240Y143937*
X165163Y143575*
X164972Y143317*
X164742Y143213*
X164358*
X164013Y143058*
X163783Y142748*
X163707Y142387*
X163783Y142025*
X163975Y141767*
X164282Y141612*
X164550Y141560*
X152500Y154560D02*
G01X150250D01*
X147500Y153293*
Y155827D02*
G01X150250Y154560D01*
X148333Y158457D02*
G01X147833Y158837D01*
X147583Y159280*
X147500Y159787*
X147667Y160420*
X148083Y160863*
X148583Y160990*
X149084Y160927*
X149500Y160673*
X150333Y159407*
X150917Y158837*
X151750Y158457*
X152500Y158330*
Y160990*
X140492Y230560D02*
G01X141450Y233660D01*
X142408Y230560*
X142063Y231645D02*
G01X140837D01*
X143822Y233143D02*
G01X144052Y233453D01*
X144320Y233608*
X144627Y233660*
X145010Y233557*
X145278Y233298*
X145355Y232988*
X145317Y232678*
X145163Y232420*
X144397Y231903*
X144052Y231542*
X143822Y231025*
X143745Y230560*
X145355*
X150492D02*
G01X151450Y233660D01*
X152408Y230560*
X152063Y231645D02*
G01X150837D01*
X154550Y230560D02*
G01Y233660D01*
X154090Y233040*
Y230560D02*
G01X155010D01*
X160492D02*
G01X161450Y233660D01*
X162408Y230560*
X162063Y231645D02*
G01X160837D01*
X164550Y233660D02*
G01X164243Y233557D01*
X164013Y233298*
X163860Y232988*
X163745Y232575*
X163707Y232110*
X163745Y231645*
X163860Y231232*
X164013Y230922*
X164243Y230663*
X164550Y230560*
X164857Y230663*
X165087Y230922*
X165240Y231232*
X165355Y231645*
X165393Y232110*
X165355Y232575*
X165240Y232988*
X165087Y233298*
X164857Y233557*
X164550Y233660*
X171757Y143213D02*
G01X171910Y143368D01*
X172025Y143627*
X172102Y143988*
X172025Y144298*
X171872Y144505*
X171603Y144660*
X170568*
Y141560*
X171833*
X172102Y141767*
X172255Y142077*
X172332Y142438*
X172255Y142800*
X172025Y143110*
X171757Y143213*
X170568*
X173898Y141922D02*
G01X174167Y141663D01*
X174473Y141560*
X174780Y141663*
X175048Y141973*
X175240Y142438*
X175317Y142903*
Y143472*
X175240Y143937*
X175048Y144350*
X174818Y144557*
X174550Y144660*
X174243Y144557*
X174013Y144350*
X173860Y144040*
X173783Y143627*
X173860Y143265*
X174052Y142903*
X174282Y142697*
X174550Y142645*
X174857Y142748*
X175087Y143007*
X175317Y143472*
X180607Y142025D02*
G01X180837Y141767D01*
X181105Y141612*
X181450Y141560*
X181795Y141663*
X182063Y141870*
X182255Y142232*
X182293Y142645*
X182217Y143058*
X182025Y143317*
X181757Y143523*
X181488Y143575*
X181220Y143523*
X180875Y143317*
X180990Y144660*
X182025*
X183592D02*
G01X184550Y141560D01*
X185508Y144660*
X192230Y143110D02*
G01X192997D01*
Y142180*
X192767Y141870*
X192498Y141663*
X192115Y141560*
X191732Y141663*
X191463Y141870*
X191233Y142180*
X191080Y142542*
X191003Y142955*
Y143317*
X191080Y143627*
X191233Y143988*
X191463Y144298*
X191693Y144505*
X192000Y144660*
X192268*
X192575Y144557*
X192805Y144350*
X183500Y160560D02*
G01X181250D01*
X178500Y159293*
Y161827D02*
G01X181250Y160560D01*
X183500Y165660D02*
G01X178500D01*
X179500Y164900*
X183500D02*
G01Y166420D01*
X190000Y167117D02*
G01X190583Y167497D01*
X190917Y168003*
X191000Y168573*
X190917Y169080*
X190500Y169587*
X190000Y169903*
X189500Y169967*
X188917Y169840*
X188500Y169397*
X188333Y168953*
Y168383*
Y168953D02*
G01X188083Y169333D01*
X187667Y169650*
X187167Y169777*
X186667Y169650*
X186250Y169333*
X186000Y168763*
X186083Y168193*
X186417Y167623*
X171533Y167207D02*
G01X171033Y167587D01*
X170783Y168030*
X170700Y168537*
X170867Y169170*
X171283Y169613*
X171783Y169740*
X172284Y169677*
X172700Y169423*
X173533Y168157*
X174117Y167587*
X174950Y167207*
X175700Y167080*
Y169740*
X190500Y155167D02*
G01X185500D01*
Y156433*
X185750Y156940*
X186083Y157320*
X186583Y157637*
X187167Y157890*
X188000Y157953*
X188833Y157890*
X189417Y157637*
X189917Y157320*
X190250Y156940*
X190500Y156433*
Y155167*
Y161660D02*
G01X185500D01*
X186500Y160900*
X190500D02*
G01Y162420D01*
X193117Y188053D02*
G01X192867Y187673D01*
X192700Y187230*
Y186723*
X192950Y186153*
X193367Y185710*
X193867Y185393*
X194700Y185140*
X195450Y185077*
X196200Y185203*
X196700Y185393*
X197200Y185773*
X197533Y186217*
X197700Y186660*
Y187103*
X197533Y187547*
X197283Y187927*
X196950Y188243*
X193533Y190557D02*
G01X193033Y190937D01*
X192783Y191380*
X192700Y191887*
X192867Y192520*
X193283Y192963*
X193783Y193090*
X194284Y193027*
X194700Y192773*
X195533Y191507*
X196117Y190937*
X196950Y190557*
X197700Y190430*
Y193090*
X197500Y174993D02*
G01X198000Y175310D01*
X198333Y175690*
X198500Y176133*
X198333Y176640*
X198000Y177020*
X197500Y177400*
X196833Y177527*
X193500*
X194333Y180157D02*
G01X193833Y180537D01*
X193583Y180980*
X193500Y181487*
X193667Y182120*
X194083Y182563*
X194583Y182690*
X195084Y182627*
X195500Y182373*
X196333Y181107*
X196917Y180537*
X197750Y180157*
X198500Y180030*
Y182690*
X190200Y207170D02*
G01X185200D01*
X188783Y204827*
Y207993*
X193800Y215067D02*
G01X188800D01*
Y216333*
X189050Y216840*
X189383Y217220*
X189883Y217537*
X190467Y217790*
X191300Y217853*
X192133Y217790*
X192717Y217537*
X193217Y217220*
X193550Y216840*
X193800Y216333*
Y215067*
X189633Y220357D02*
G01X189133Y220737D01*
X188883Y221180*
X188800Y221687*
X188967Y222320*
X189383Y222763*
X189883Y222890*
X190384Y222827*
X190800Y222573*
X191633Y221307*
X192217Y220737*
X193050Y220357*
X193800Y220230*
Y222890*
X169743Y233402D02*
G01X169513Y233557D01*
X169245Y233660*
X168938*
X168593Y233505*
X168325Y233247*
X168133Y232937*
X167980Y232420*
X167942Y231955*
X168018Y231490*
X168133Y231180*
X168363Y230870*
X168632Y230663*
X168900Y230560*
X169168*
X169437Y230663*
X169667Y230818*
X169858Y231025*
X172000Y230560D02*
G01Y233660D01*
X171540Y233040*
Y230560D02*
G01X172460D01*
X174257Y231025D02*
G01X174487Y230767D01*
X174755Y230612*
X175100Y230560*
X175445Y230663*
X175713Y230870*
X175905Y231232*
X175943Y231645*
X175867Y232058*
X175675Y232317*
X175407Y232523*
X175138Y232575*
X174870Y232523*
X174525Y232317*
X174640Y233660*
X175675*
X180743Y233402D02*
G01X180513Y233557D01*
X180245Y233660*
X179938*
X179593Y233505*
X179325Y233247*
X179133Y232937*
X178980Y232420*
X178942Y231955*
X179018Y231490*
X179133Y231180*
X179363Y230870*
X179632Y230663*
X179900Y230560*
X180168*
X180437Y230663*
X180667Y230818*
X180858Y231025*
X183000Y230560D02*
G01Y233660D01*
X182540Y233040*
Y230560D02*
G01X183460D01*
X186560D02*
G01Y233660D01*
X185142Y231438*
X187058*
X190743Y233402D02*
G01X190513Y233557D01*
X190245Y233660*
X189938*
X189593Y233505*
X189325Y233247*
X189133Y232937*
X188980Y232420*
X188942Y231955*
X189018Y231490*
X189133Y231180*
X189363Y230870*
X189632Y230663*
X189900Y230560*
X190168*
X190437Y230663*
X190667Y230818*
X190858Y231025*
X193000Y230560D02*
G01Y233660D01*
X192540Y233040*
Y230560D02*
G01X193460D01*
X195257Y231180D02*
G01X195487Y230818D01*
X195793Y230612*
X196138Y230560*
X196445Y230612*
X196752Y230870*
X196943Y231180*
X196982Y231490*
X196905Y231852*
X196637Y232110*
X196368Y232213*
X196023*
X196368D02*
G01X196598Y232368D01*
X196790Y232627*
X196867Y232937*
X196790Y233247*
X196598Y233505*
X196253Y233660*
X195908Y233608*
X195563Y233402*
X201057Y141697D02*
G01X201287Y141335D01*
X201593Y141128*
X201938Y141077*
X202245Y141128*
X202552Y141387*
X202743Y141697*
X202782Y142007*
X202705Y142368*
X202437Y142627*
X202168Y142730*
X201823*
X202168D02*
G01X202398Y142885D01*
X202590Y143143*
X202667Y143453*
X202590Y143763*
X202398Y144022*
X202053Y144177*
X201708Y144125*
X201363Y143918*
X205000Y140973D02*
G01X204923Y141025D01*
Y141128*
X205000Y141180*
X205077Y141128*
Y141025*
X205000Y140973*
X207257Y141697D02*
G01X207487Y141335D01*
X207793Y141128*
X208138Y141077*
X208445Y141128*
X208752Y141387*
X208943Y141697*
X208982Y142007*
X208905Y142368*
X208637Y142627*
X208368Y142730*
X208023*
X208368D02*
G01X208598Y142885D01*
X208790Y143143*
X208867Y143453*
X208790Y143763*
X208598Y144022*
X208253Y144177*
X207908Y144125*
X207563Y143918*
X213000Y169340D02*
G01Y170107D01*
X213930*
X214240Y169877*
X214447Y169608*
X214550Y169225*
X214447Y168842*
X214240Y168573*
X213930Y168343*
X213568Y168190*
X213155Y168113*
X212793*
X212483Y168190*
X212122Y168343*
X211812Y168573*
X211605Y168803*
X211450Y169110*
Y169378*
X211553Y169685*
X211760Y169915*
X209600Y146417D02*
G01X204600D01*
Y148823D02*
G01X207683Y146417D01*
X209600Y149203D02*
G01X206267Y147493D01*
X207500Y162127D02*
G01X202500Y163710D01*
X207500Y165293*
X205750Y164723D02*
G01Y162697D01*
X214500Y163870D02*
G01X209500D01*
X213083Y161527*
Y164693*
X214137Y188655D02*
G01X214395Y188962D01*
X214550Y189307*
Y189613*
X214395Y189920*
X214137Y190150*
X213775Y190265*
X213413Y190188*
X213103Y189997*
X212897Y189652*
X212793Y189192*
X212587Y188923*
X212225Y188808*
X211863Y188885*
X211605Y189077*
X211450Y189345*
Y189613*
X211553Y189882*
X211812Y190112*
X211450Y191410D02*
G01X214550Y191947D01*
X211450Y192560*
X214550Y193173*
X211450Y193710*
Y195200D02*
G01Y196120D01*
Y195660D02*
G01X214550D01*
Y195200D02*
G01Y196120D01*
Y198760D02*
G01X214498Y198453D01*
X214292Y198185*
X213982Y197955*
X213620Y197802*
X213207Y197725*
X212793*
X212380Y197802*
X212018Y197955*
X211708Y198185*
X211502Y198453*
X211450Y198760*
X211502Y199067*
X211708Y199335*
X212018Y199565*
X212380Y199718*
X212793Y199795*
X213207*
X213620Y199718*
X213982Y199565*
X214292Y199335*
X214498Y199067*
X214550Y198760*
X214137Y173105D02*
G01X214395Y173412D01*
X214550Y173757*
Y174063*
X214395Y174370*
X214137Y174600*
X213775Y174715*
X213413Y174638*
X213103Y174447*
X212897Y174102*
X212793Y173642*
X212587Y173373*
X212225Y173258*
X211863Y173335*
X211605Y173527*
X211450Y173795*
Y174063*
X211553Y174332*
X211812Y174562*
X211450Y175860D02*
G01X214550Y176397D01*
X211450Y177010*
X214550Y177623*
X211450Y178160*
X211708Y180953D02*
G01X211553Y180723D01*
X211450Y180455*
Y180148*
X211605Y179803*
X211863Y179535*
X212173Y179343*
X212690Y179190*
X213155Y179152*
X213620Y179228*
X213930Y179343*
X214240Y179573*
X214447Y179842*
X214550Y180110*
Y180378*
X214447Y180647*
X214292Y180877*
X214085Y181068*
X211450Y182443D02*
G01X214550D01*
Y183977*
Y185467D02*
G01X211450D01*
Y186923D02*
G01X213362Y185467D01*
X214550Y187153D02*
G01X212483Y186118D01*
X213413Y201167D02*
G01X213775Y201397D01*
X213982Y201703*
X214033Y202048*
X213982Y202355*
X213724Y202662*
X213413Y202853*
X213103Y202892*
X212742Y202815*
X212483Y202547*
X212380Y202278*
Y201933*
Y202278D02*
G01X212225Y202508D01*
X211967Y202700*
X211657Y202777*
X211347Y202700*
X211088Y202508*
X210933Y202163*
X210985Y201818*
X211192Y201473*
X214137Y205110D02*
G01X214085Y205033D01*
X213982*
X213930Y205110*
X213982Y205187*
X214085*
X214137Y205110*
X213413Y207367D02*
G01X213775Y207597D01*
X213982Y207903*
X214033Y208248*
X213982Y208555*
X213724Y208862*
X213413Y209053*
X213103Y209092*
X212742Y209015*
X212483Y208747*
X212380Y208478*
Y208133*
Y208478D02*
G01X212225Y208708D01*
X211967Y208900*
X211657Y208977*
X211347Y208900*
X211088Y208708*
X210933Y208363*
X210985Y208018*
X211192Y207673*
X209500Y225717D02*
G01X204500D01*
Y228123D02*
G01X207583Y225717D01*
X209500Y228503D02*
G01X206167Y226793D01*
X208500Y210527D02*
G01X203500Y212110D01*
X208500Y213693*
X206750Y213123D02*
G01Y211097D01*
X200492Y233660D02*
G01X201450Y230560D01*
X202408Y233660*
X204857Y232213D02*
G01X205010Y232368D01*
X205125Y232627*
X205202Y232988*
X205125Y233298*
X204972Y233505*
X204703Y233660*
X203668*
Y230560*
X204933*
X205202Y230767*
X205355Y231077*
X205432Y231438*
X205355Y231800*
X205125Y232110*
X204857Y232213*
X203668*
M02*
