G04 CAM350/DFMSTREAM V12.1 (Build 1022) Date:  Mon Dec 28 22:30:27 2020 *
G04 Database: (Untitled) *
G04 Layer 1: TOP.art *
%FSLAX25Y25*%
%MOIN*%
%SFA1.000B1.000*%

%MIA0B0*%
%IPPOS*%
%AMMACRO18*
20,1,0.0320000,-0.0106066,-0.0106066,0.0106066,0.0106066,0.0000000*
%
%AMMACRO16*
20,1,0.0118110,0.0167032,-0.0167032,-0.0167032,0.0167032,0.0000000*
%
%AMMACRO15*
20,1,0.0118110,-0.0167032,-0.0167032,0.0167032,0.0167032,0.0000000*
%
%ADD11C,0.00600*%
%ADD12C,0.03000*%
%ADD13C,0.02200*%
%ADD14R,0.03000X0.03200*%
%ADD16C,0.02169*%
%ADD18MACRO18*%
%ADD19R,0.03200X0.03000*%
%ADD70C,0.05984*%
%ADD71R,0.05984X0.05984*%
%ADD20C,0.00800*%
%ADD21C,0.01000*%
%ADD22C,0.02000*%
%ADD49MACRO16*%
%ADD50R,0.07874X0.23622*%
%ADD52MACRO15*%
%ADD57R,0.06693X0.05905*%
%ADD58R,0.07480X0.12618*%
%ADD59R,0.07480X0.05118*%
%ADD60R,0.05315X0.01575*%
%ADD61R,0.04724X0.03937*%
%ADD62C,0.01500*%
%ADD102C,0.04000*%
%LNTOP.art*%
%LPD*%
G36*
X2100Y2100D02*
G01Y116010D01*
X214435*
Y2100*
X2100*
G37*
G36*
X2095Y130205D02*
G01Y244115D01*
X214430*
Y130205*
X2095*
G37*
%LPC*%
G36*
X7843Y63885D02*
G01X15323D01*
G75*
G03X16123Y64685I0J800*
G01Y77303*
G03X15323Y78103I-800J0*
G01X7843*
G03X7042Y77303I-1J-800*
G01Y64685*
G03X7843Y63885I801J1*
G37*
G36*
X9285Y7468D02*
G01X9314Y7193D01*
G03X13124Y3754I3954J551*
X17172Y6909I144J3990*
X17260Y7744I-3904J834*
X14768Y11444I-3993J0*
G01Y12046*
X53723Y51002*
X55414*
G02X55790Y50739I0J-400*
X55814Y50602I-376J-137*
X55697Y50319I-400J0*
G01X21768Y16389*
Y16388*
Y11444*
G03X19276Y7744I1501J-3700*
G01X19285Y7468*
X19314Y7193*
G03X23124Y3754I3954J551*
X27172Y6909I144J3990*
X27260Y7744I-3904J834*
X24768Y11444I-3993J0*
G01Y15146*
X58521Y48900*
X60312*
G02X60688Y48637I0J-400*
X60712Y48500I-376J-137*
X60595Y48217I-400J0*
G01X31768Y19389*
Y19388*
Y11444*
G03X29276Y7744I1501J-3700*
G01X29285Y7468*
X29314Y7193*
G03X33124Y3754I3954J551*
X37172Y6909I144J3990*
X37260Y7744I-3904J834*
X34768Y11444I-3993J0*
G01Y18146*
X63321Y46700*
X64313*
G02X64712Y46300I-1J-400*
X64595Y46017I-400J0*
G01X41768Y23189*
Y23188*
Y11444*
G03X39276Y7744I1501J-3700*
G01X39285Y7468*
X39314Y7193*
G03X43124Y3754I3954J551*
X47172Y6909I144J3990*
X47260Y7744I-3904J834*
X44768Y11444I-3993J0*
G01Y21946*
X67421Y44600*
X80212*
G02X80588Y44337I0J-400*
X80612Y44200I-376J-137*
X80495Y43917I-400J0*
G01X70800Y34221*
Y34220*
Y27398*
X54825Y11423*
X54703Y11470*
G03X49324Y8363I-1435J-3725*
G01X49288Y8054*
X49279Y7899*
X49276Y7744*
G03X53691Y3774I3992J0*
X57260Y7744I-423J3970*
X56993Y9180I-3992J1*
G01X56946Y9301*
X73317Y25672*
G02X73769Y25752I283J-283*
X74000Y25389I-169J-363*
G01Y20598*
X64825Y11423*
X64703Y11470*
G03X59324Y8363I-1435J-3725*
G01X59288Y8054*
X59279Y7899*
X59276Y7744*
G03X63691Y3774I3992J0*
X67260Y7744I-423J3970*
X66993Y9180I-3992J1*
G01X66946Y9301*
X77000Y19355*
Y32579*
X77417Y32995*
G02X77869Y33075I283J-283*
X78100Y32712I-169J-363*
G01Y14698*
X74825Y11423*
X74703Y11470*
G03X69324Y8363I-1435J-3725*
G01X69288Y8054*
X69279Y7899*
X69276Y7744*
G03X73691Y3774I3992J0*
X77260Y7744I-423J3970*
X76993Y9180I-3992J1*
G01X76946Y9301*
X81100Y13455*
Y26975*
G02X81360Y27350I400J0*
X81804Y27235I140J-375*
G03X84585Y26866I1596J1365*
G01X84636Y26901*
X84898*
Y26632*
Y26631*
G03X85698Y25831I800J0*
G01X90423*
G03X91223Y26631I-1J801*
G01Y26632*
Y30568*
Y30569*
G03X90423Y31369I-800J0*
G01X85698*
G03X84898Y30569I1J-801*
G01Y30568*
Y30299*
X84636*
X84585Y30334*
G03X81804Y29965I-1185J-1734*
G02X81363Y29849I-304J260*
X81100Y30225I137J376*
G01Y32279*
X86821Y38000*
X94774*
G02X95150Y37737I0J-400*
X95174Y37600I-376J-137*
X95057Y37317I-400J0*
G01X92700Y34960*
Y34959*
Y22680*
X86200Y16180*
Y16179*
Y11333*
G02X85569Y11006I-400J0*
G03X79829Y9772I-2301J-3263*
X79275Y7744I3439J-2029*
X81547Y4141I3993J0*
X87007Y6344I1721J3603*
G01X87323*
X87324*
X88322Y7342*
X89320Y6344*
X89529*
G03X94704Y4019I3739J1400*
X97260Y7744I-1436J3725*
X96993Y9180I-3992J1*
G01X96946Y9301*
X108294Y20649*
X108370Y20653*
G03X108721Y20703I-120J2097*
X110350Y22750I-471J2047*
G01X110349Y22823*
X110345Y22896*
X110330Y23041*
G03X108142Y24848I-2080J-291*
X106151Y22825I108J-2098*
G01X106148Y22746*
X94825Y11423*
X94703Y11470*
G03X91116Y11107I-1435J-3726*
G02X90500Y11444I-216J337*
G01Y14399*
X97000Y20899*
Y33179*
X103206Y39385*
X103800*
Y29580*
Y29579*
X103899Y29480*
X103782Y29340*
G03X103592Y29068I1621J-1335*
X103300Y28000I1808J-1068*
X104178Y26292I2100J0*
X106995Y26634I1222J1708*
X107500Y28000I-1595J1366*
X106900Y29470I-2101J0*
G01Y30721*
X106800Y30821*
Y38533*
X107072*
X107128Y38487*
G03X107212Y38430I321J383*
G01X107206Y38372*
X107204Y38344*
Y38315*
G03X107438Y37749I800J0*
G01X108273Y36914*
G03X109405I566J566*
G01X109454Y36963*
G02X110091Y36867I283J-283*
G03X110445Y36386I1770J932*
G01X112637Y34194*
X112651Y34145*
G03X112807Y33745I2399J705*
X115749Y32449I2243J1105*
X117550Y34850I-699J2401*
G01X117547Y34986*
X117536Y35122*
G03X115214Y37345I-2486J-272*
G01X115139Y37350*
X113274Y39214*
G03X112793Y39569I-1415J-1414*
G02X112580Y39923I187J354*
X112697Y40206I400J0*
G01X112746Y40255*
G03X112980Y40821I-566J566*
X112746Y41387I-800J0*
G01X111910Y42222*
G03X111229Y42448I-566J-566*
X111142Y42566I-442J-235*
G01X110306Y43401*
G03X110188Y43489I-355J-353*
G01X110194Y43547*
X110196Y43575*
Y43604*
G03X109962Y44170I-801J0*
G01X109142Y44990*
X110275Y46123*
Y46454*
X112300Y48479*
Y50910*
X112393Y51003*
Y52561*
X112570Y52582*
G03X114421Y54536I-245J2086*
G01X114424Y54602*
X114425Y54635*
Y54668*
G03X112995Y56658I-2100J0*
X110576Y55830I-670J-1990*
G02X109910I-333J221*
G03X107408Y56629I-1750J-1162*
X106060Y54668I752J-1961*
G01X106063Y54558*
X106072Y54449*
G03X107831Y52594I2089J219*
G01X108000Y52567*
Y50260*
X107234Y49494*
X106903*
X105770Y48362*
X104951Y49181*
G03X104599Y49386I-566J-567*
X104394Y49738I-771J-214*
G01X103559Y50573*
G03X103207Y50779I-567J-565*
X103002Y51130I-771J-215*
G01X102167Y51965*
G03X101815Y52170I-566J-567*
X101610Y52522I-771J-214*
G01X100775Y53357*
G03X100423Y53562I-566J-567*
X100218Y53914I-771J-214*
G01X99383Y54749*
G03X99031Y54954I-566J-567*
X98826Y55306I-771J-214*
G01X97991Y56141*
G03X97639Y56346I-566J-567*
X97434Y56698I-771J-214*
G01X96599Y57533*
G03X95467I-566J-566*
G01X94196Y56261*
X94162Y56246*
G03X93720Y55940I619J-1367*
G01X91782Y54002*
X52480*
X11768Y13289*
Y13288*
Y11444*
G03X9276Y7744I1501J-3700*
G01X9285Y7468*
G37*
G36*
X13268Y106874D02*
G03X16760Y110366I0J3492D01*
X13268Y113858I-3492J0*
X9776Y110366I0J-3492*
X13268Y106874I3492J0*
G37*
G36*
X18348Y49972D02*
G03X21103Y49384I1698J1210D01*
X22132Y51181I-1056J1798*
X21930Y52077I-2085J1*
G02X21891Y52249I361J172*
X22291Y52649I400J0*
G01X24772*
G03X25272Y53149I-1J501*
G01Y53150*
Y57283*
G03X25243Y57450I-500J-1*
G02X25232Y57516I189J65*
X25300Y57667I200J1*
G03X25539Y58041I-528J601*
G01X25582Y58184*
X28985*
X29350Y57820*
Y55900*
G03X30150Y55100I800J0*
G01X33150*
G03X33934Y55740I0J800*
G01X33967Y55900*
X34633*
X34666Y55740*
G03X35450Y55100I784J160*
G01X38450*
G03X39250Y55900I0J800*
G01Y57820*
X40153Y58723*
X40829*
X40869Y58576*
G03X44052Y57377I2026J554*
X44995Y59130I-1157J1753*
X44289Y60701I-2100J0*
G02X44154Y61000I265J299*
X44289Y61299I400J0*
G03X44995Y62870I-1394J1571*
X43908Y64709I-2100J-1*
X40820Y63193I-1013J-1839*
G01X40794Y63024*
X39407*
X39250Y63180*
Y65100*
G03X38450Y65900I-800J0*
G01X35450*
G03X34666Y65260I0J-800*
G01X34633Y65100*
X33967*
X33934Y65260*
X33837Y65510*
X33758Y65643*
X35700Y67586*
Y75614*
X33914Y77400*
X33913*
X23286*
X21300Y75414*
Y75413*
Y69587*
Y69586*
X21400Y69486*
Y69224*
G02X20846Y68855I-400J1*
G03X18432Y68247I-798J-1926*
X17963Y66929I1616J-1318*
X18357Y65709I2085J0*
G01X18456Y65571*
X18000Y65114*
Y65113*
Y63287*
Y63286*
X18656Y62629*
Y58268*
G03X18928Y57667I800J0*
G02X18996Y57516I-132J-150*
X18985Y57450I-200J-1*
G03X18956Y57283I471J-168*
G01Y53150*
G03X18987Y52977I501J1*
X18694Y52768I1060J-1796*
X17962Y51181I1353J-1586*
X18348Y49972I2085J0*
G37*
G36*
X23268Y106874D02*
G03X26760Y110366I0J3492D01*
X23268Y113858I-3492J0*
X19776Y110366I0J-3492*
X23268Y106874I3492J0*
G37*
G36*
X33268Y106374D02*
G03X37260Y110366I0J3992D01*
X33268Y114358I-3992J0*
X29276Y110366I0J-3992*
X33268Y106374I3992J0*
G37*
G36*
X34250Y93500D02*
G01X37250D01*
G03X37729Y93857I0J500*
G01X37772Y94000*
X38733*
X38766Y93840*
G03X39550Y93200I784J160*
G01X42550*
X42551*
G03X43090Y93409I0J800*
G02X43359Y93513I269J-296*
X43622Y93415I1J-401*
G03X44390Y92990I1379J1585*
G02X44674Y92607I-116J-383*
X44641Y92449I-402J1*
G01X44600Y92250*
Y89400*
X41911*
X41876Y89414*
G03X41150Y89550I-725J-1864*
X40424Y89414I-1J-2000*
G01X40389Y89400*
X38686*
X37800Y88514*
Y88513*
Y87899*
Y87898*
G02X37400Y87498I-400J0*
G01X37378Y87499*
X37350Y87500*
X34350*
G03X33850Y87000I0J-500*
G01Y83800*
G03X34350Y83300I500J0*
G01X37350*
X37378Y83301*
X37400Y83302*
G02X37800Y82902I0J-400*
G01Y82901*
Y76586*
X40586Y73800*
X40587*
X65313*
X65314*
X67900Y76386*
Y78497*
G02X68195Y78882I400J-1*
X68300Y78896I105J-386*
X68646Y78697I0J-400*
G03X70600Y77000I3454J2003*
G01Y76086*
X70700Y75986*
Y73164*
X70520Y73146*
G03X69800Y72350I80J-796*
G01Y69350*
G03X70440Y68566I800J0*
G01X70600Y68533*
Y68532*
Y67867*
X70440Y67834*
G03X69800Y67050I160J-784*
G01Y64050*
G03X70600Y63250I800J0*
G01X73800*
G03X74584Y63890I0J800*
G01X74617Y64050*
X75228*
X75285Y63998*
G03X75567Y63782I1413J1553*
X76700Y63450I1133J1768*
X78363Y64267I0J2100*
X78800Y65550I-1663J1282*
X78123Y67095I-2100J1*
X76700Y67650I-1422J-1545*
X75285Y67102I0J-2100*
G01X75228Y67050*
X74617*
X74584Y67210*
G03X73960Y67834I-784J-160*
G01X73800Y67867*
Y68533*
X73960Y68566*
G03X74600Y69350I-160J784*
G01Y72350*
G03X73880Y73146I-800J0*
G01X73700Y73164*
Y77042*
G03X74736Y77701I-1600J3660*
G02X75000Y77800I263J-301*
X75400Y77401I0J-400*
G01Y71879*
X88879Y58400*
X88880*
X114220*
X114221*
X115670Y59849*
X115747Y59852*
G03X117748Y61853I-97J2098*
G01X117752Y61930*
X120206Y64385*
X120326*
X120327*
X124228Y68286*
X124977Y67537*
G03X125328Y67332I566J566*
X125534Y66980I772J215*
G01X126369Y66145*
G03X126720Y65940I566J566*
X126925Y65588I772J214*
G01X127761Y64753*
G03X128112Y64548I566J566*
X128317Y64196I772J214*
G01X129152Y63361*
G03X129504Y63156I565J566*
X129709Y62804I772J214*
G01X130544Y61969*
G03X130896Y61764I565J566*
X130941Y61641I773J213*
G02X130979Y61472I-362J-170*
X130654Y61079I-400*
G03X128643Y58933I470J-2455*
X128624Y58623I2481J-308*
X130183Y56307I2500J0*
G01X130220Y56292*
X130670Y55842*
X129921Y55094*
G03X129834Y54975I356J-352*
G01X129776Y54981*
X129747Y54983*
X129718*
G03X129152Y54749I0J-800*
G01X128317Y53914*
G03X128112Y53562I567J-566*
X127761Y53357I215J-771*
G01X127012Y52608*
X126431Y53189*
X126332*
X122921Y56600*
X119470*
G03X118000Y57200I-1470J-1500*
X116530Y56600I0J-2100*
X115900Y55100I1470J-1500*
X116500Y53630I2100J0*
X118000Y53000I1500J1470*
X119470Y53600I0J2100*
G01X121679*
X124841Y50438*
X124142Y49738*
G03X123936Y49386I565J-567*
X123585Y49181I215J-771*
G01X122750Y48346*
G03X122544Y47994I565J-567*
X122193Y47789I215J-771*
G01X121358Y46954*
G03X121152Y46603I565J-567*
X120801Y46397I216J-771*
G01X119966Y45562*
G03X119760Y45211I565J-568*
X119409Y45006I215J-771*
G01X118574Y44170*
G03X118368Y43819I565J-568*
X118017Y43614I215J-771*
G01X117182Y42778*
G03X116977Y42427I566J-566*
X116625Y42222I214J-771*
G01X115790Y41387*
G03X115556Y40821I566J-566*
X115790Y40255I800J0*
G01X117062Y38983*
X117076Y38950*
G03X117383Y38507I1367J619*
G01X119321Y36569*
Y29542*
X118580Y28801*
X118503Y28798*
G03X116568Y27231I97J-2098*
X116500Y26700I2032J-530*
X117561Y24875I2100J0*
G02X117763Y24527I-198J-348*
X117646Y24244I-400J0*
G01X104825Y11423*
X104703Y11470*
G03X103268Y11737I-1435J-3725*
X99324Y8363I0J-3992*
G01X99288Y8054*
X99279Y7899*
X99276Y7744*
G03X103268Y3752I3992J0*
X103691Y3774I4J3992*
X107260Y7744I-423J3970*
X106993Y9180I-3992J1*
G01X106946Y9301*
X122917Y25272*
G02X123200Y25389I283J-283*
X123369Y25352I1J-400*
X123600Y24989I-169J-363*
G01Y20198*
X114825Y11423*
X114703Y11470*
G03X113268Y11737I-1435J-3725*
X109324Y8363I0J-3992*
G01X109288Y8054*
X109279Y7899*
X109276Y7744*
G03X113268Y3752I3992J0*
X113691Y3774I4J3992*
X117260Y7744I-423J3970*
X116993Y9180I-3992J1*
G01X116946Y9301*
X125317Y17672*
G02X125600Y17789I283J-283*
X125769Y17752I1J-400*
X126000Y17389I-169J-363*
G01Y12598*
X124825Y11423*
X124703Y11470*
G03X123268Y11737I-1435J-3725*
X119324Y8363I0J-3992*
G01X119288Y8054*
X119279Y7899*
X119276Y7744*
G03X123268Y3752I3992J0*
X123691Y3774I4J3992*
X127260Y7744I-423J3970*
X126993Y9180I-3992J1*
G01X126946Y9301*
X128262Y10617*
G02X128544Y10733I282J-284*
X128944Y10334I0J-400*
G01Y9946*
X129589Y9301*
X129542Y9180*
G03X129275Y7744I3725J-1435*
X132721Y3789I3992J0*
G01X132994Y3761*
X133268Y3752*
G03X137260Y7744I0J3992*
G01X137257Y7892*
G03X133268Y11736I-3989J-148*
X132429Y11647I-1J-3992*
G02X132345Y11638I-84J391*
X131945Y12038J400*
G01Y15980*
G02X132345Y16379I400J-1*
X132628Y16262I0J-400*
G01X139589Y9301*
X139542Y9180*
G03X139275Y7745I3725J-1435*
X142649Y3801I3992J0*
G01X142958Y3765*
X143113Y3756*
X143268Y3753*
G03X147260Y7745I0J3992*
X147238Y8168I-3992J4*
X143268Y11737I-3970J-423*
X141832Y11470I-1J-3992*
G01X141711Y11423*
X134500Y18633*
Y23424*
G02X134763Y23800I400J0*
X134900Y23824I137J-376*
X135183Y23707I0J-400*
G01X149589Y9301*
X149542Y9180*
G03X149275Y7744I3725J-1435*
X152775Y3782I3992J0*
G01X153021Y3759*
X153144Y3754*
X153267Y3752*
G03X157259Y7744I0J3992*
X157221Y8294I-3992J0*
X153267Y11736I-3954J-550*
X151712Y11421I-1J-3993*
G01X136800Y26333*
Y31124*
G02X137063Y31500I400J0*
X137200Y31524I137J-376*
X137483Y31407I0J-400*
G01X159589Y9301*
X159542Y9180*
G03X159275Y7745I3725J-1435*
X162649Y3801I3992J0*
G01X162958Y3765*
X163113Y3756*
X163268Y3753*
G03X167260Y7745I0J3992*
X167238Y8168I-3992J4*
X163268Y11737I-3970J-423*
X161832Y11470I-1J-3992*
G01X161711Y11423*
X161116Y12017*
G02X160999Y12300I283J283*
X161036Y12469I400J1*
X161399Y12700I363J-169*
G01X166190*
X169589Y9301*
X169542Y9180*
G03X169275Y7745I3725J-1435*
X172649Y3801I3992J0*
G01X172958Y3765*
X173113Y3756*
X173268Y3753*
G03X177260Y7745I0J3992*
X177238Y8168I-3992J4*
X173268Y11737I-3970J-423*
X171832Y11470I-1J-3992*
G01X171711Y11423*
X167433Y15700*
X162121*
X142900Y34921*
Y42287*
Y42288*
X134056Y51132*
X134805Y51881*
G03X134892Y52000I-355J351*
G01X134950Y51994*
X134979Y51992*
X135008*
G03X135574Y52226I0J801*
G01X136409Y53061*
G03X136643Y53627I-566J566*
X136409Y54192I-800J-1*
G01X135137Y55464*
X135122Y55497*
G03X134816Y55940I-1368J-617*
G01X133325Y57430*
X133385Y57558*
G03X133624Y58624I-2261J1067*
X133013Y60262I-2501J0*
G01X132964Y60393*
G02X133032Y60543I200J0*
G01X133068Y60577*
X133678Y61187*
X141066Y53798*
X141056Y53703*
X141046Y53573*
X141043Y53508*
X141042Y53443*
G03X143367Y50949I2501J0*
G01X143455Y50944*
X143543Y50942*
G03X146044Y53443I0J2501*
G01X146043Y53464*
Y53485*
G03X143543Y55944I-2500J-42*
G01X143478Y55943*
X143413Y55940*
X143283Y55930*
X143188Y55920*
X135799Y63308*
X136409Y63918*
G03X136643Y64484I-566J566*
X136409Y65050I-800J0*
G01X136200Y65258*
G02X136141Y65400I141J142*
X136153Y65468I200J0*
X136341Y65600I188J-68*
G01X136979*
X137698Y64880*
X137702Y64803*
G03X137748Y64451I2098J95*
X139800Y62800I2052J449*
X140069Y62817I2J2100*
X141900Y64900I-269J2083*
G01X141898Y64986*
G03X139897Y66998I-2099J-86*
G01X139820Y67002*
X138221Y68600*
X136161*
X136160*
G02X135979Y68716I1J200*
X135960Y68800I181J85*
X136019Y68942I200J0*
G01X136178Y69100*
X138830*
G03X140300Y68500I1470J1501*
X141770Y69100I0J2100*
X142400Y70600I-1470J1500*
X141800Y72070I-2100J0*
X140300Y72700I-1500J-1470*
X138830Y72100I0J-2101*
G01X136800*
G02X136400Y72500J400*
X136480Y72740I400J0*
G03X136900Y74000I-1680J1260*
X136497Y75237I-2100J0*
G01X136397Y75375*
X136751Y75729*
X136891Y75614*
G03X137397Y75434I506J620*
G01X137418*
X137440Y75435*
X137451*
G02X137642Y75293I0J-200*
G03X137736Y75040I2012J603*
X139652Y73800I1916J860*
X139987Y73826I5J2100*
X141741Y75686I-335J2073*
G01X141750Y75793*
X141752Y75847*
Y75900*
G03X140399Y77863I-2100J0*
G02X140270Y78050I71J187*
X140280Y78111I200J-1*
G03X140318Y78356I-762J244*
X140186Y78797I-800J1*
G01X140096Y78933*
X140776Y79613*
X140907Y79542*
G03X141145Y79482I238J441*
X141498Y79628I0J501*
G01X143620Y81749*
G03X143767Y82103I-354J354*
X143620Y82457I-501J0*
G01X141357Y84720*
G03X141003Y84867I-354J-354*
X140649Y84720I0J-501*
G01X138528Y82598*
G03X138382Y82245I354J-353*
X138442Y82007I500J0*
G01X138513Y81876*
X137833Y81196*
X137697Y81286*
G03X137256Y81418I-440J-669*
X136690Y81184I0J-801*
G01X135280Y79774*
G02X134997Y79657I-283J283*
X134828Y79694I-1J400*
X134597Y80057I169J363*
G01Y80703*
X135784Y81890*
G03X136018Y82456I-566J566*
X135886Y82897I-800J1*
G01X135796Y83033*
X136476Y83713*
X136607Y83642*
G03X136845Y83582I238J441*
X137198Y83728I0J501*
G01X139320Y85849*
G03X139467Y86203I-354J354*
X139320Y86557I-501J0*
G01X137057Y88820*
G03X136703Y88967I-354J-354*
X136349Y88820I0J-501*
G01X134228Y86698*
G03X134082Y86345I354J-353*
X134142Y86107I500J0*
G01X134213Y85976*
X133533Y85296*
X133397Y85386*
G03X132956Y85519I-442J-667*
X132747Y85491I1J-800*
G02X132695Y85484I-52J193*
X132502Y85631I0J200*
G03X130476Y87178I-2026J-554*
G01X130390Y87176*
X130305Y87171*
G03X128384Y85272I171J-2094*
G01X128378Y85174*
X128376Y85126*
X128375Y85077*
G03X129921Y83051I2101J0*
G02X130069Y82858I-52J-193*
X130062Y82806I-200J0*
G03X130034Y82596I772J-210*
X130268Y82031I800J1*
G01X131597Y80703*
Y79118*
X127500Y75021*
Y75020*
Y74786*
G02X127100Y74386I-400J0*
X126952Y74414I-1J400*
G03X126657Y74470I-294J-745*
G01X126599Y74468*
X126541Y74462*
G03X126453Y74581I-442J-235*
G01X125618Y75416*
G03X125499Y75504I-354J-354*
X125507Y75619I-796J113*
X125273Y76185I-800J0*
G01X124524Y76934*
X126500Y78910*
Y88279*
X132521Y94300*
X149322*
X149323*
X161712Y106689*
G03X163268Y106373I1557J3677*
X166453Y107959I-1J3992*
X167260Y110366I-3185J2407*
X166191Y113085I-3992J0*
X163268Y114358I-2923J-2719*
X161098Y113717I0J-3992*
X159276Y110366I2170J-3351*
X159591Y108811I3992J-1*
G01X148080Y97300*
X143289*
G02X142913Y97563I0J400*
X142889Y97700I376J137*
X143006Y97983I400J0*
G01X151711Y106688*
X151832Y106641*
G03X153268Y106374I1435J3725*
X157230Y109874I0J3992*
G01X157253Y110120*
X157258Y110243*
X157260Y110366*
G03X153268Y114358I-3992J0*
X152718Y114320I0J-3992*
X149276Y110366I550J-3954*
X149591Y108811I3992J-1*
G01X140380Y99600*
X135589*
G02X135213Y99863I0J400*
X135189Y100000I376J137*
X135306Y100283I400J0*
G01X141711Y106688*
X141832Y106641*
G03X143268Y106374I1435J3725*
X147230Y109874I0J3992*
G01X147253Y110120*
X147258Y110243*
X147260Y110366*
G03X143268Y114358I-3992J0*
X142718Y114320I0J-3992*
X139276Y110366I550J-3954*
X139591Y108811I3992J-1*
G01X132580Y101800*
X127379*
X119321Y93742*
Y93741*
Y81541*
X117383Y79603*
G03X117076Y79160I1060J-1062*
G01X117062Y79127*
X115790Y77855*
G03X115556Y77290I566J-566*
X115790Y76724I800J0*
G01X116625Y75889*
G03X116977Y75683I567J565*
X117182Y75332I772J215*
G01X118017Y74497*
G03X118368Y74292I566J566*
X118574Y73940I772J215*
G01X118772Y73742*
G02X118831Y73600I-141J-142*
X118819Y73532I-200J0*
X118631Y73400I-188J68*
G01X118302*
X118242Y73474*
G03X116300Y74400I-1942J-1574*
X114591Y73725I0J-2500*
X113800Y71900I1709J-1825*
X114631Y70038I2500J-1*
X116300Y69400I1668J1862*
X118300Y70400I0J2500*
G01X120773*
X120774*
X121656Y71282*
X122318Y70619*
X119084Y67385*
X118964*
X115630Y64051*
X115553Y64048*
G03X113552Y62047I97J-2098*
G01X113548Y61970*
X112979Y61400*
X98055*
G02X97656Y61800I1J400*
G01X97657Y61830*
X97660Y61860*
G03X97669Y61977I-792J120*
X97660Y62093I-804J-4*
X97779Y62181I-236J443*
G01X98614Y63016*
G03X98702Y63135I-353J353*
G01X98760Y63129*
X98788Y63127*
X98817*
G03X99383Y63361I0J801*
G01X100218Y64196*
G03X100423Y64548I-566J565*
X100775Y64753I-214J772*
G01X101610Y65588*
G03X101815Y65940I-566J565*
X102167Y66145I-214J772*
G01X103002Y66980*
G03X103207Y67332I-566J565*
X103559Y67537I-214J772*
G01X104394Y68372*
G03X104599Y68724I-566J565*
X104951Y68929I-214J772*
G01X105786Y69764*
G03X105991Y70116I-566J565*
X106343Y70321I-214J772*
G01X107178Y71156*
G03X107383Y71508I-566J565*
X107735Y71713I-214J772*
G01X108570Y72548*
G03X108775Y72900I-566J565*
X109127Y73105I-214J772*
G01X109962Y73940*
G03X110167Y74292I-566J565*
X110518Y74497I-215J772*
G01X111354Y75332*
G03X111559Y75683I-566J566*
X111910Y75889I-217J771*
G01X112746Y76724*
G03X112980Y77290I-566J566*
X112746Y77855I-801J-1*
G01X111474Y79127*
X111459Y79160*
G03X111153Y79603I-1368J-617*
G01X109215Y81541*
Y87693*
X124921Y103400*
X128422*
X128423*
X131711Y106688*
X131832Y106641*
G03X133267Y106374I1435J3725*
X137211Y109748I0J3992*
G01X137259Y110367*
G03X133267Y114359I-3992J0*
X132844Y114337I-4J-3992*
X129275Y110367I423J-3970*
X129542Y108931I3992J-1*
G01X129589Y108809*
X127180Y106400*
X125832*
G02X125448Y106691I1J400*
X125433Y106800I386J109*
X125599Y107125I400J0*
G03X127261Y110367I-2331J3242*
X126688Y112428I-3993J0*
X123268Y114360I-3420J-2061*
X121513Y113953I1J-3993*
X119275Y110367I1755J-3587*
X119542Y108931I3993J0*
G01X119589Y108809*
X115451Y104671*
G02X115168Y104554I-283J283*
X114999Y104591I-1J400*
X114768Y104954I169J363*
G01Y106666*
G03X117260Y110366I-1501J3700*
G01X117258Y110504*
X117251Y110642*
X117222Y110917*
G03X113412Y114356I-3954J-551*
G01X113340Y114358*
X113304*
X113268*
G03X109364Y111201I0J-3993*
X109298Y110786I3905J-834*
G01X109281Y110576*
X109277Y110471*
X109276Y110366*
G03X111768Y106666I3993J0*
G01Y104889*
X103483Y96605*
G02X103200Y96488I-283J283*
X103031Y96525I-1J400*
X102800Y96888I169J363*
G01Y101579*
X104768Y103546*
Y106666*
G03X107260Y110366I-1501J3700*
G01X107250Y110642*
X107221Y110917*
G03X103411Y114356I-3954J-551*
G01X103339Y114358*
X103303*
X103267*
G03X99363Y111201I0J-3993*
X99297Y110786I3905J-834*
G01X99280Y110576*
X99276Y110471*
X99275Y110366*
G03X101767Y106666I3993J0*
G01Y104789*
X101083Y104105*
G02X100800Y103988I-283J283*
X100631Y104025I-1J400*
X100400Y104388I169J363*
G01Y105354*
Y105355*
X96945Y108811*
G03X97260Y110366I-3679J1555*
X95322Y113789I-3993J0*
X93268Y114359I-2056J-3423*
X90253Y112984I0J-3993*
X89275Y110366I3015J-2618*
X90166Y107852I3993J0*
G02X90255Y107600I-311J-252*
X89856Y107200I-400*
G01X88555*
X86945Y108811*
G03X87261Y110367I-3678J1557*
X83888Y114311I-3993J0*
G01X83268Y114360*
G03X79275Y110367I0J-3993*
G01X79281Y110156*
X79298Y109945*
G03X83268Y106374I3970J422*
X84703Y106641I-1J3993*
G01X84825Y106688*
X85829Y105683*
G02X85946Y105400I-283J-283*
X85909Y105231I-400J-1*
X85546Y105000I-363J169*
G01X80755*
X76945Y108811*
G03X77260Y110366I-3678J1555*
X75137Y113894I-3992J0*
X73268Y114358I-1868J-3528*
X69916Y112535I0J-3992*
X69276Y110366I3352J-2168*
X70815Y107216I3992J0*
G02X70969Y106900I-246J-315*
X70945Y106763I-400J-1*
X70569Y106500I-376J137*
G01X69255*
X66945Y108811*
G03X67261Y110367I-3678J1557*
X63888Y114311I-3993J0*
G01X63268Y114360*
G03X59275Y110367I0J-3993*
G01X59281Y110156*
X59298Y109945*
G03X63268Y106374I3970J422*
X64703Y106641I-1J3993*
G01X64825Y106688*
X66729Y104783*
G02X66846Y104500I-283J-283*
X66809Y104331I-400J-1*
X66446Y104100I-363J169*
G01X61655*
X56946Y108809*
X56993Y108931*
G03X57260Y110366I-3725J1435*
X53886Y114310I-3992J0*
G01X53577Y114346*
X53422Y114355*
X53267Y114358*
G03X49275Y110366I0J-3992*
G01X49280Y110154*
X49297Y109943*
G03X53267Y106374I3970J423*
X54703Y106641I1J3992*
G01X54825Y106688*
X59629Y101883*
G02X59746Y101600I-283J-283*
X59709Y101431I-400J-1*
X59346Y101200I-363J169*
G01X54555*
X46946Y108809*
X46993Y108931*
G03X47260Y110366I-3725J1435*
X43886Y114310I-3992J0*
G01X43577Y114346*
X43422Y114355*
X43267Y114358*
G03X39275Y110366I0J-3992*
G01X39280Y110154*
X39297Y109943*
G03X43267Y106374I3970J423*
X44703Y106641I1J3992*
G01X44825Y106688*
X53312Y98200*
X53313*
X70779*
X73858Y95120*
G02X73975Y94837I-283J-283*
X73904Y94610I-400J1*
X73575Y94437I-329J227*
X73441Y94460I0J400*
G03X72100Y94692I-1341J-3761*
X68646Y92703I0J-3993*
G02X68300Y92503I-346J200*
X68196Y92517I1J400*
X67900Y92903I104J386*
G01Y93513*
Y93514*
X65314Y96100*
X58086*
X51386Y89400*
X48800*
Y92250*
G03X48300Y92750I-500J0*
G01X46682*
G02X46312Y92998I0J400*
X46282Y93150I370J152*
X46413Y93446I400J0*
G03X47100Y95000I-1413J1554*
X45987Y96854I-2100J0*
G01X45961Y96868*
X45229Y97600*
X43243*
G03X42550Y98000I-693J-400*
G01X39550*
G03X38766Y97360I0J-800*
G01X38733Y97200*
X37772*
X37729Y97343*
G03X37250Y97700I-479J-143*
G01X34250*
G03X33750Y97200I0J-500*
G01Y94000*
G03X34250Y93500I500J0*
G37*
G36*
X55777Y26131D02*
G01X60502D01*
G03X61002Y26631I-1J501*
G01Y26632*
Y30568*
Y30569*
G03X60502Y31069I-500J0*
G01X55777*
G03X55277Y30569I1J-501*
G01Y30568*
Y26632*
Y26631*
G03X55777Y26131I500J0*
G37*
G36*
X155512Y25971D02*
G01X163386D01*
G03X164186Y26771I0J800*
G01Y26772*
Y50394*
G03X163386Y51194I-800J0*
G01X160949*
Y54730*
G03X161549Y56199I-1501J1470*
X160948Y57670I-2100J0*
X157978Y57700I-1500J-1470*
X157348Y56200I1470J-1500*
X157948Y54730I2100J0*
G01Y51194*
X155512*
G03X154711Y50394I-1J-800*
G01Y26772*
G03X155512Y25971I801J0*
G37*
G36*
Y66916D02*
G01X157948D01*
Y63670*
G03X157348Y62201I1500J-1470*
X157949Y60730I2100J0*
X160919Y60700I1500J1470*
X161549Y62200I-1470J1500*
X160949Y63670I-2101J0*
G01Y66916*
X163386*
G03X164186Y67716I0J800*
G01Y91338*
Y91339*
G03X163386Y92139I-800J0*
G01X155512*
G03X154711Y91338I0J-801*
G01Y67716*
G03X155512Y66916I801J1*
G37*
G36*
X166573Y68457D02*
G03X169543Y68427I1500J1470D01*
G01X170760*
Y67368*
G03X171561Y66568I801J1*
G01X179041*
G03X179841Y67368I0J800*
G01Y71164*
X181248Y72572*
Y104507*
X176945Y108811*
G03X177261Y110367I-3678J1557*
X173888Y114311I-3993J0*
X169275Y110367I-620J-3944*
G01X169281Y110156*
X169298Y109945*
G03X174703Y106641I3970J422*
G01X174825Y106688*
X178248Y103264*
Y73815*
X177720Y73286*
X171561*
G03X170760Y72486I-1J-800*
G01Y71427*
X169543*
G03X166603I-1470J-1500*
X165973Y69927I1470J-1500*
X166573Y68457I2100J0*
G37*
G36*
X171561Y44914D02*
G01X179041D01*
G03X179841Y45714I0J800*
G01Y50832*
Y50833*
G03X179041Y51633I-800J0*
G01X171561*
G03X170760Y50832I0J-801*
G01Y45714*
G03X171561Y44914I801J1*
G37*
G36*
X173500Y62530D02*
G03X176470Y62500I1500J1470D01*
G01X181412*
X181413*
X185480Y66568*
X191639*
G03X192440Y67368I1J800*
G01Y72486*
X192437Y72550*
X192430Y72642*
X192636Y72849*
X194386Y71100*
X194600*
Y70672*
X194457Y70629*
G03X194100Y70150I143J-479*
G01Y67150*
G03X194600Y66650I500J0*
G01X197800*
G03X198300Y67150I0J500*
G01Y70150*
G03X197943Y70629I-500J0*
G01X197800Y70672*
Y71100*
X198686*
X201086Y68700*
X209613*
X209614*
X210700Y69786*
Y85414*
X203914Y92200*
X203913*
X193486*
X191800Y90514*
Y90513*
Y73687*
Y73686*
X192003Y73483*
X191796Y73276*
X191704Y73284*
X191639Y73286*
X188900*
Y106855*
X186945Y108811*
G03X187260Y110366I-3679J1555*
X185675Y113551I-3992J0*
X180549Y113289I-2407J-3185*
X179276Y110366I2719J-2923*
X179917Y108196I3992J0*
X184823Y106689I3351J2170*
G01X185900Y105612*
Y73286*
X184159*
G03X183359Y72486I0J-800*
G01Y68689*
X180170Y65500*
X176470*
G03X173530I-1470J-1500*
X172900Y64000I1470J-1500*
X173500Y62530I2100J0*
G37*
G36*
X183268Y3752D02*
G03X187260Y7744I0J3992D01*
X183268Y11736I-3992J0*
X179276Y7744I0J-3992*
X183268Y3752I3992J0*
G37*
G36*
X184159Y44914D02*
G01X191639D01*
G03X192440Y45714I1J800*
G01Y50832*
G03X191639Y51633I-801J0*
G01X184159*
G03X183359Y50833I1J-801*
G01Y50832*
Y45714*
G03X184159Y44914I800J0*
G37*
G36*
X193268Y106374D02*
G03X197260Y110366I0J3992D01*
X193268Y114358I-3992J0*
X189276Y110366I0J-3992*
X193268Y106374I3992J0*
G37*
G36*
Y4252D02*
G03X196760Y7744I0J3492D01*
X193268Y11236I-3492J0*
X189776Y7744I0J-3492*
X193268Y4252I3492J0*
G37*
G36*
X192189Y96252D02*
G03X194685Y95695I1611J1348D01*
G02X195253Y95333I168J-363*
G01Y94646*
G03X196054Y93846I801J1*
G01X202746*
G03X203547Y94646I1J800*
G01Y100552*
G03X202746Y101352I-801J-1*
G01X196054*
G03X195253Y100552I-1J-800*
G01Y99868*
G02X194685Y99505I-400J0*
G03X192081Y98807I-885J-1905*
X191699Y97600I1719J-1208*
X192189Y96252I2101J1*
G37*
G36*
X193453Y15848D02*
G01X193454D01*
X200146*
X200147*
G03X200947Y16648I0J800*
G01Y18101*
X201229*
X201286Y18048*
G03X201568Y17833I1410J1557*
X202701Y17501I1133J1768*
X204364Y18318I0J2100*
X204801Y19601I-1663J1282*
X204124Y21146I-2100J1*
X202701Y21701I-1422J-1545*
X201286Y21153I0J-2100*
G01X201229Y21101*
X200947*
Y22554*
G03X200147Y23354I-801J-1*
G01X200146*
X193454*
X193453*
G03X192653Y22554I0J-800*
G01Y16648*
G03X193453Y15848I801J1*
G37*
G36*
Y28446D02*
G01X193454D01*
X200146*
X200147*
G03X200947Y29246I0J800*
G01Y30199*
X201872*
X201925Y30146*
G03X204400Y28000I2475J354*
G01X204418*
G03X206892Y30300I-18J2500*
G01X206898Y30400*
X206899Y30450*
X206900Y30500*
G03X204816Y32965I-2500J0*
G01X204753Y32976*
X203529Y34199*
X200947*
Y35152*
G03X200147Y35952I-801J-1*
G01X200146*
X193454*
X193453*
G03X192653Y35152I0J-800*
G01Y29246*
G03X193453Y28446I801J1*
G37*
G36*
X200276Y3752D02*
G01X206260D01*
G03X207260Y4752I0J1000*
G01Y10736*
G03X206260Y11736I-1000J0*
G01X200276*
G03X199275Y10736I-1J-1000*
G01Y4752*
G03X200276Y3752I1001J1*
G37*
G36*
Y106374D02*
G01X206260D01*
G03X207260Y107374J1000*
G01Y113358*
G03X206260Y114358I-1000J0*
G01X200276*
G03X199275Y113358I-1J-1000*
G01Y107374*
G03X200276Y106374I1001J1*
G37*
G36*
X204791Y50063D02*
G03X208783Y54055I0J3992D01*
X204791Y58047I-3992J0*
X200799Y54055I0J-3992*
X204791Y50063I3992J0*
G37*
G36*
Y60063D02*
G03X208783Y64055I0J3992D01*
X204791Y68047I-3992J0*
X200799Y64055I0J-3992*
X204791Y60063I3992J0*
G37*
G36*
Y40563D02*
G03X208283Y44055I0J3492D01*
X204791Y47547I-3492J0*
X201299Y44055I0J-3492*
X204791Y40563I3492J0*
G37*
G36*
X7843Y40007D02*
G01X15323D01*
G03X16123Y40807I0J800*
G01Y53425*
G03X15323Y54225I-800J0*
G01X7843*
G03X7042Y53425I-1J-800*
G01Y40807*
G03X7843Y40007I801J1*
G37*
G36*
X7077Y192541D02*
G01X7192Y192317D01*
X7372Y192139*
X7598Y192027*
X7838Y191990*
X15318*
X15567Y192030*
X15791Y192145*
X15969Y192324*
X16081Y192550*
X16118Y192790*
Y205408*
X16078Y205657*
X15963Y205881*
X15784Y206059*
X15558Y206171*
X15318Y206208*
X7838*
X7589Y206169*
X7364Y206054*
X7187Y205874*
X7074Y205649*
X7037Y205408*
Y192790*
X7077Y192541*
G37*
G36*
X9280Y135573D02*
G01X9309Y135298D01*
X9426Y134746*
X9620Y134215*
X9887Y133717*
X10222Y133262*
X10617Y132859*
X11066Y132516*
X11558Y132239*
X12084Y132034*
X12634Y131906*
X13119Y131859*
X13683Y131879*
X14239Y131978*
X14776Y132154*
X15282Y132405*
X15748Y132724*
X16164Y133106*
X16522Y133543*
X16815Y134026*
X17037Y134545*
X17167Y135014*
X17246Y135574*
X17255Y135849*
X17216Y136412*
X17096Y136965*
X16901Y137494*
X16632Y137991*
X16296Y138445*
X15899Y138847*
X15450Y139189*
X14957Y139464*
X14763Y139549*
Y140151*
X53718Y179107*
X55409*
X55537Y179086*
X55689Y178993*
X55785Y178844*
X55803Y178776*
X55809Y178707*
X55787Y178575*
X55692Y178424*
X21763Y144494*
Y144493*
Y139549*
X21255Y139300*
X20789Y138982*
X20371Y138602*
X20012Y138166*
X19717Y137684*
X19494Y137165*
X19346Y136620*
X19276Y136060*
X19271Y135849*
X19280Y135573*
X19309Y135298*
X19426Y134746*
X19620Y134215*
X19887Y133717*
X20222Y133262*
X20617Y132859*
X21066Y132516*
X21558Y132239*
X22084Y132034*
X22634Y131906*
X23119Y131859*
X23683Y131879*
X24239Y131978*
X24776Y132154*
X25282Y132405*
X25748Y132724*
X26164Y133106*
X26522Y133543*
X26815Y134026*
X27037Y134545*
X27167Y135014*
X27246Y135574*
X27255Y135849*
X27216Y136412*
X27096Y136965*
X26901Y137494*
X26632Y137991*
X26296Y138445*
X25899Y138847*
X25450Y139189*
X24957Y139464*
X24763Y139549*
Y143251*
X58516Y177005*
X60307*
X60435Y176984*
X60587Y176891*
X60683Y176742*
X60701Y176674*
X60707Y176605*
X60685Y176473*
X60590Y176322*
X31763Y147494*
Y147493*
Y139549*
X31255Y139300*
X30789Y138982*
X30371Y138602*
X30012Y138166*
X29717Y137684*
X29494Y137165*
X29346Y136620*
X29276Y136060*
X29271Y135849*
X29280Y135573*
X29309Y135298*
X29426Y134746*
X29620Y134215*
X29887Y133717*
X30222Y133262*
X30617Y132859*
X31066Y132516*
X31558Y132239*
X32084Y132034*
X32634Y131906*
X33119Y131859*
X33683Y131879*
X34239Y131978*
X34776Y132154*
X35282Y132405*
X35748Y132724*
X36164Y133106*
X36522Y133543*
X36815Y134026*
X37037Y134545*
X37167Y135014*
X37246Y135574*
X37255Y135849*
X37216Y136412*
X37096Y136965*
X36901Y137494*
X36632Y137991*
X36296Y138445*
X35899Y138847*
X35450Y139189*
X34957Y139464*
X34763Y139549*
Y146251*
X63316Y174805*
X64308*
X64397Y174795*
X64557Y174717*
X64667Y174578*
X64707Y174405*
X64685Y174273*
X64590Y174122*
X41763Y151294*
Y151293*
Y139549*
X41255Y139300*
X40789Y138982*
X40371Y138602*
X40012Y138166*
X39717Y137684*
X39494Y137165*
X39346Y136620*
X39276Y136060*
X39271Y135849*
X39280Y135573*
X39309Y135298*
X39426Y134746*
X39620Y134215*
X39887Y133717*
X40222Y133262*
X40617Y132859*
X41066Y132516*
X41558Y132239*
X42084Y132034*
X42634Y131906*
X43119Y131859*
X43683Y131879*
X44239Y131978*
X44776Y132154*
X45282Y132405*
X45748Y132724*
X46164Y133106*
X46522Y133543*
X46815Y134026*
X47037Y134545*
X47167Y135014*
X47246Y135574*
X47255Y135849*
X47216Y136412*
X47096Y136965*
X46901Y137494*
X46632Y137991*
X46296Y138445*
X45899Y138847*
X45450Y139189*
X44957Y139464*
X44763Y139549*
Y150051*
X67416Y172705*
X80207*
X80335Y172684*
X80487Y172591*
X80583Y172442*
X80601Y172374*
X80607Y172305*
X80585Y172173*
X80490Y172022*
X70795Y162326*
Y162325*
Y155503*
X54820Y139528*
X54698Y139575*
X54158Y139740*
X53600Y139828*
X53035Y139835*
X52475Y139763*
X51931Y139613*
X51413Y139387*
X50932Y139091*
X50498Y138729*
X50119Y138310*
X49804Y137842*
X49557Y137334*
X49385Y136796*
X49319Y136468*
X49283Y136159*
X49274Y136004*
X49271Y135849*
X49311Y135286*
X49430Y134734*
X49626Y134204*
X49894Y133707*
X50230Y133253*
X50627Y132851*
X51076Y132509*
X51570Y132234*
X52097Y132031*
X52647Y131905*
X53210Y131857*
X53686Y131879*
X54242Y131979*
X54778Y132156*
X55284Y132406*
X55750Y132726*
X56166Y133108*
X56523Y133545*
X56816Y134028*
X57037Y134548*
X57183Y135094*
X57250Y135654*
X57255Y135849*
X57215Y136412*
X57096Y136964*
X56988Y137285*
X56941Y137406*
X73312Y153777*
X73417Y153853*
X73590Y153894*
X73764Y153857*
X73845Y153806*
X73955Y153667*
X73995Y153494*
Y148703*
X64820Y139528*
X64698Y139575*
X64158Y139740*
X63600Y139828*
X63035Y139835*
X62475Y139763*
X61931Y139613*
X61413Y139387*
X60932Y139091*
X60498Y138729*
X60119Y138310*
X59804Y137842*
X59557Y137334*
X59385Y136796*
X59319Y136468*
X59283Y136159*
X59274Y136004*
X59271Y135849*
X59311Y135286*
X59430Y134734*
X59626Y134204*
X59894Y133707*
X60230Y133253*
X60627Y132851*
X61076Y132509*
X61570Y132234*
X62097Y132031*
X62647Y131905*
X63210Y131857*
X63686Y131879*
X64242Y131979*
X64778Y132156*
X65284Y132406*
X65750Y132726*
X66166Y133108*
X66523Y133545*
X66816Y134028*
X67037Y134548*
X67183Y135094*
X67250Y135654*
X67255Y135849*
X67215Y136412*
X67096Y136964*
X66988Y137285*
X66941Y137406*
X76995Y147460*
Y160684*
X77412Y161100*
X77517Y161176*
X77690Y161217*
X77864Y161180*
X77945Y161129*
X78055Y160990*
X78095Y160817*
Y142803*
X74820Y139528*
X74698Y139575*
X74158Y139740*
X73600Y139828*
X73035Y139835*
X72475Y139763*
X71931Y139613*
X71413Y139387*
X70932Y139091*
X70498Y138729*
X70119Y138310*
X69804Y137842*
X69557Y137334*
X69385Y136796*
X69319Y136468*
X69283Y136159*
X69274Y136004*
X69271Y135849*
X69311Y135286*
X69430Y134734*
X69626Y134204*
X69894Y133707*
X70230Y133253*
X70627Y132851*
X71076Y132509*
X71570Y132234*
X72097Y132031*
X72647Y131905*
X73210Y131857*
X73686Y131879*
X74242Y131979*
X74778Y132156*
X75284Y132406*
X75750Y132726*
X76166Y133108*
X76523Y133545*
X76816Y134028*
X77037Y134548*
X77183Y135094*
X77250Y135654*
X77255Y135849*
X77215Y136412*
X77096Y136964*
X76988Y137285*
X76941Y137406*
X81095Y141560*
Y155080*
X81115Y155204*
X81206Y155357*
X81355Y155455*
X81482Y155480*
X81656Y155446*
X81799Y155340*
X82094Y155056*
X82439Y154835*
X82820Y154685*
X83223Y154612*
X83632Y154618*
X84032Y154704*
X84408Y154865*
X84580Y154971*
X84631Y155006*
X84893*
Y154737*
Y154736*
X84933Y154487*
X85048Y154263*
X85227Y154085*
X85453Y153973*
X85693Y153936*
X90418*
X90667Y153976*
X90891Y154091*
X91069Y154271*
X91181Y154497*
X91218Y154736*
Y154737*
Y158673*
Y158674*
X91178Y158923*
X91063Y159147*
X90884Y159325*
X90658Y159437*
X90418Y159474*
X85693*
X85444Y159434*
X85220Y159319*
X85042Y159139*
X84930Y158913*
X84893Y158674*
Y158673*
Y158404*
X84631*
X84580Y158439*
X84221Y158636*
X83831Y158759*
X83424Y158805*
X83016Y158771*
X82622Y158658*
X82258Y158471*
X81937Y158217*
X81799Y158070*
X81703Y157988*
X81535Y157932*
X81358Y157954*
X81245Y158018*
X81135Y158157*
X81095Y158330*
Y160384*
X86816Y166105*
X94769*
X94897Y166084*
X95049Y165991*
X95145Y165842*
X95163Y165774*
X95169Y165705*
X95147Y165573*
X95052Y165422*
X92695Y163065*
Y163064*
Y150785*
X86195Y144285*
Y144284*
Y139438*
X86164Y139285*
X86062Y139140*
X85906Y139054*
X85728Y139043*
X85564Y139111*
X85081Y139403*
X84561Y139624*
X84015Y139769*
X83454Y139836*
X82890Y139824*
X82332Y139731*
X81794Y139561*
X81285Y139317*
X80815Y139003*
X80394Y138626*
X80031Y138193*
X79824Y137877*
X79572Y137371*
X79394Y136835*
X79294Y136280*
X79270Y135849*
X79310Y135286*
X79429Y134733*
X79625Y134204*
X79894Y133707*
X80230Y133253*
X80627Y132851*
X81076Y132509*
X81542Y132246*
X82068Y132040*
X82618Y131909*
X83180Y131857*
X83744Y131886*
X84299Y131993*
X84832Y132178*
X85335Y132436*
X85796Y132763*
X86206Y133151*
X86557Y133593*
X86842Y134080*
X87002Y134449*
X87318*
X87319*
X88317Y135447*
X89315Y134449*
X89524*
X89759Y133935*
X90064Y133460*
X90433Y133032*
X90859Y132661*
X91333Y132354*
X91846Y132117*
X92386Y131954*
X92945Y131869*
X93510Y131864*
X94069Y131939*
X94613Y132092*
X94699Y132124*
X95210Y132364*
X95683Y132674*
X96106Y133047*
X96473Y133476*
X96776Y133953*
X97009Y134468*
X97166Y135010*
X97245Y135569*
X97255Y135849*
X97215Y136412*
X97096Y136964*
X96988Y137285*
X96941Y137406*
X108289Y148754*
X108365Y148758*
X108541Y148776*
X108716Y148808*
X109104Y148938*
X109459Y149141*
X109769Y149410*
X110020Y149733*
X110204Y150098*
X110314Y150493*
X110345Y150855*
X110344Y150928*
X110340Y151001*
X110325Y151146*
X110229Y151544*
X110058Y151915*
X109818Y152247*
X109518Y152526*
X109169Y152741*
X108786Y152884*
X108382Y152951*
X108137Y152953*
X107732Y152892*
X107347Y152753*
X106995Y152543*
X106692Y152269*
X106447Y151940*
X106270Y151571*
X106169Y151174*
X106146Y150930*
X106143Y150851*
X94820Y139528*
X94698Y139575*
X94158Y139740*
X93600Y139827*
X93035Y139835*
X92475Y139763*
X91930Y139613*
X91413Y139387*
X91111Y139212*
X90983Y139158*
X90805Y139159*
X90645Y139236*
X90535Y139375*
X90495Y139549*
Y142504*
X96995Y149004*
Y161284*
X103201Y167490*
X103795*
Y157685*
Y157684*
X103894Y157585*
X103777Y157445*
X103677Y157313*
X103587Y157173*
X103414Y156802*
X103316Y156405*
X103295Y156105*
X103335Y155698*
X103453Y155306*
X103645Y154944*
X103903Y154626*
X104173Y154397*
X104528Y154192*
X104915Y154060*
X105321Y154006*
X105730Y154032*
X106126Y154136*
X106494Y154315*
X106820Y154562*
X106990Y154739*
X107225Y155074*
X107390Y155449*
X107479Y155848*
X107495Y156105*
X107455Y156513*
X107337Y156905*
X107145Y157266*
X106895Y157575*
Y158826*
X106795Y158926*
Y166638*
X107067*
X107123Y166592*
X107163Y166561*
X107207Y166535*
X107201Y166477*
X107199Y166449*
Y166420*
X107238Y166171*
X107354Y165946*
X107433Y165854*
X108268Y165019*
X108472Y164871*
X108712Y164794*
X108965Y164795*
X109204Y164875*
X109400Y165019*
X109449Y165068*
X109472Y165089*
X109629Y165172*
X109807Y165178*
X109970Y165107*
X110086Y164972*
X110307Y164639*
X110440Y164491*
X112632Y162299*
X112646Y162250*
X112716Y162046*
X112802Y161850*
X113035Y161468*
X113332Y161134*
X113683Y160858*
X114078Y160649*
X114504Y160514*
X114947Y160457*
X115393Y160479*
X115744Y160554*
X116160Y160717*
X116541Y160951*
X116874Y161250*
X117148Y161602*
X117355Y161998*
X117488Y162425*
X117544Y162868*
X117545Y162955*
X117542Y163091*
X117531Y163227*
X117442Y163665*
X117278Y164080*
X117042Y164460*
X116742Y164791*
X116388Y165064*
X115992Y165269*
X115565Y165401*
X115209Y165450*
X115134Y165455*
X113269Y167319*
X112960Y167572*
X112788Y167674*
X112725Y167715*
X112614Y167855*
X112575Y168028*
X112597Y168160*
X112692Y168311*
X112741Y168360*
X112889Y168564*
X112966Y168804*
X112975Y168926*
X112936Y169175*
X112820Y169399*
X112741Y169492*
X111905Y170327*
X111701Y170475*
X111460Y170552*
X111224Y170553*
X111185Y170615*
X111137Y170671*
X110301Y171506*
X110245Y171554*
X110183Y171594*
X110189Y171652*
X110191Y171680*
Y171709*
X110152Y171958*
X110036Y172183*
X109957Y172275*
X109137Y173095*
X110270Y174228*
Y174559*
X112295Y176584*
Y179015*
X112388Y179108*
Y180666*
X112565Y180687*
X112965Y180774*
X113340Y180937*
X113677Y181170*
X113962Y181464*
X114185Y181807*
X114337Y182188*
X114416Y182641*
X114419Y182707*
X114420Y182740*
Y182773*
X114380Y183180*
X114262Y183572*
X114070Y183934*
X113811Y184251*
X113496Y184513*
X113136Y184708*
X112990Y184763*
X112591Y184855*
X112182Y184868*
X111778Y184802*
X111394Y184658*
X111046Y184442*
X110747Y184164*
X110571Y183935*
X110527Y183880*
X110379Y183782*
X110203Y183758*
X110034Y183813*
X109905Y183935*
X109646Y184252*
X109331Y184513*
X108971Y184708*
X108580Y184830*
X108173Y184873*
X107765Y184837*
X107403Y184734*
X107037Y184550*
X106713Y184300*
X106444Y183991*
X106241Y183636*
X106109Y183248*
X106056Y182842*
X106055Y182773*
X106058Y182663*
X106067Y182554*
X106149Y182153*
X106307Y181775*
X106536Y181436*
X106826Y181147*
X107167Y180920*
X107545Y180764*
X107826Y180699*
X107995Y180672*
Y178365*
X107229Y177599*
X106898*
X105765Y176467*
X104946Y177286*
X104742Y177434*
X104594Y177491*
X104489Y177721*
X104389Y177843*
X103554Y178678*
X103350Y178826*
X103202Y178884*
X103097Y179114*
X102997Y179235*
X102162Y180070*
X101958Y180218*
X101810Y180275*
X101705Y180505*
X101605Y180627*
X100770Y181462*
X100566Y181610*
X100418Y181667*
X100313Y181897*
X100213Y182019*
X99378Y182854*
X99174Y183002*
X99026Y183059*
X98921Y183289*
X98821Y183411*
X97986Y184246*
X97782Y184394*
X97634Y184451*
X97529Y184681*
X97429Y184803*
X96594Y185638*
X96390Y185786*
X96150Y185863*
X95897Y185862*
X95658Y185782*
X95462Y185638*
X94191Y184366*
X94157Y184351*
X93860Y184173*
X93715Y184045*
X91777Y182107*
X52475*
X11763Y141394*
Y141393*
Y139549*
X11255Y139300*
X10789Y138982*
X10371Y138602*
X10012Y138166*
X9717Y137684*
X9494Y137165*
X9346Y136620*
X9276Y136060*
X9271Y135849*
X9280Y135573*
G37*
G36*
X9811Y237944D02*
G01X9929Y237430D01*
X10125Y236939*
X10392Y236483*
X10724Y236073*
X11115Y235717*
X11555Y235425*
X12034Y235202*
X12541Y235054*
X13064Y234984*
X13263Y234979*
X13790Y235019*
X14304Y235137*
X14795Y235333*
X15251Y235600*
X15661Y235932*
X16017Y236323*
X16309Y236763*
X16532Y237242*
X16680Y237749*
X16750Y238272*
X16755Y238471*
X16715Y238998*
X16597Y239512*
X16401Y240003*
X16134Y240459*
X15802Y240869*
X15411Y241225*
X14971Y241517*
X14492Y241740*
X13985Y241888*
X13462Y241958*
X13263Y241963*
X12736Y241923*
X12222Y241805*
X11731Y241609*
X11275Y241342*
X10865Y241010*
X10509Y240619*
X10217Y240179*
X9994Y239700*
X9846Y239193*
X9776Y238670*
X9771Y238471*
X9811Y237944*
G37*
G36*
X17997Y178880D02*
G01X18115Y178490D01*
X18307Y178130*
X18343Y178077*
X18611Y177770*
X18934Y177520*
X19299Y177338*
X19692Y177231*
X20099Y177202*
X20504Y177253*
X20891Y177382*
X21098Y177489*
X21428Y177729*
X21705Y178028*
X21918Y178376*
X22059Y178759*
X22123Y179162*
X22127Y179286*
X22087Y179692*
X21969Y180083*
X21925Y180182*
X21896Y180266*
X21886Y180354*
X21896Y180444*
X21974Y180604*
X22113Y180714*
X22286Y180754*
X24767*
X24962Y180794*
X25126Y180907*
X25233Y181074*
X25267Y181254*
Y181255*
Y185388*
X25260Y185473*
X25238Y185555*
X25229Y185588*
X25227Y185621*
X25231Y185665*
X25295Y185772*
X25456Y185966*
X25534Y186146*
X25577Y186289*
X28980*
X29345Y185925*
Y184005*
X29385Y183756*
X29500Y183532*
X29679Y183354*
X29905Y183242*
X30145Y183205*
X33145*
X33394Y183245*
X33618Y183360*
X33796Y183539*
X33908Y183765*
X33929Y183845*
X33962Y184005*
X34628*
X34661Y183845*
X34750Y183609*
X34908Y183412*
X35119Y183274*
X35362Y183209*
X35445Y183205*
X38445*
X38694Y183245*
X38918Y183360*
X39096Y183539*
X39208Y183765*
X39245Y184005*
Y185925*
X40148Y186828*
X40824*
X40864Y186681*
X41010Y186298*
X41227Y185952*
X41508Y185653*
X41841Y185415*
X42214Y185246*
X42613Y185153*
X43022Y185139*
X43426Y185204*
X43810Y185347*
X44047Y185482*
X44365Y185740*
X44627Y186054*
X44823Y186414*
X44946Y186804*
X44990Y187235*
X44950Y187642*
X44832Y188034*
X44640Y188396*
X44382Y188714*
X44284Y188806*
X44189Y188932*
X44149Y189105*
X44181Y189260*
X44284Y189404*
X44562Y189704*
X44777Y190053*
X44920Y190436*
X44986Y190840*
X44990Y190975*
X44950Y191382*
X44832Y191774*
X44640Y192136*
X44382Y192453*
X44066Y192715*
X43903Y192814*
X43527Y192976*
X43127Y193062*
X42717Y193068*
X42315Y192995*
X41934Y192845*
X41589Y192624*
X41294Y192340*
X41060Y192004*
X40895Y191629*
X40815Y191298*
X40789Y191129*
X39402*
X39245Y191285*
Y193205*
X39205Y193454*
X39090Y193678*
X38911Y193856*
X38685Y193968*
X38445Y194005*
X35445*
X35196Y193965*
X34972Y193850*
X34794Y193671*
X34682Y193445*
X34661Y193365*
X34628Y193205*
X33962*
X33929Y193365*
X33832Y193615*
X33753Y193748*
X35695Y195691*
Y203719*
X33909Y205505*
X33908*
X23281*
X21295Y203519*
Y203518*
Y197692*
Y197691*
X21395Y197591*
Y197329*
X21389Y197261*
X21320Y197097*
X21187Y196979*
X21016Y196930*
X20841Y196960*
X20451Y197079*
X20045Y197119*
X19639Y197079*
X19248Y196961*
X18888Y196770*
X18572Y196512*
X18427Y196352*
X18201Y196012*
X18046Y195634*
X17967Y195234*
X17958Y195034*
X17998Y194628*
X18116Y194238*
X18308Y193878*
X18352Y193814*
X18451Y193676*
X17995Y193219*
Y193218*
Y191392*
Y191391*
X18651Y190734*
Y186373*
X18691Y186124*
X18806Y185900*
X18923Y185772*
X18952Y185740*
X18991Y185621*
X18988Y185588*
X18980Y185555*
X18958Y185473*
X18951Y185388*
Y181255*
X18959Y181167*
X18982Y181082*
X18831Y180984*
X18689Y180873*
X18406Y180580*
X18186Y180236*
X18036Y179857*
X17964Y179455*
X17957Y179286*
X17997Y178880*
G37*
G36*
X19811Y237944D02*
G01X19929Y237430D01*
X20125Y236939*
X20392Y236483*
X20724Y236073*
X21115Y235717*
X21555Y235425*
X22034Y235202*
X22541Y235054*
X23064Y234984*
X23263Y234979*
X23790Y235019*
X24304Y235137*
X24795Y235333*
X25251Y235600*
X25661Y235932*
X26017Y236323*
X26309Y236763*
X26532Y237242*
X26680Y237749*
X26750Y238272*
X26755Y238471*
X26715Y238998*
X26597Y239512*
X26401Y240003*
X26134Y240459*
X25802Y240869*
X25411Y241225*
X24971Y241517*
X24492Y241740*
X23985Y241888*
X23462Y241958*
X23263Y241963*
X22736Y241923*
X22222Y241805*
X21731Y241609*
X21275Y241342*
X20865Y241010*
X20509Y240619*
X20217Y240179*
X19994Y239700*
X19846Y239193*
X19776Y238670*
X19771Y238471*
X19811Y237944*
G37*
G36*
X29311Y237908D02*
G01X29430Y237356D01*
X29625Y236826*
X29894Y236329*
X30230Y235875*
X30627Y235473*
X31076Y235131*
X31569Y234856*
X32096Y234653*
X32647Y234526*
X33263Y234479*
X33826Y234519*
X34378Y234638*
X34908Y234833*
X35405Y235102*
X35859Y235438*
X36261Y235835*
X36603Y236284*
X36878Y236777*
X37081Y237304*
X37208Y237855*
X37255Y238471*
X37215Y239034*
X37096Y239586*
X36901Y240116*
X36632Y240613*
X36296Y241067*
X35899Y241469*
X35450Y241811*
X34957Y242086*
X34430Y242289*
X33879Y242416*
X33263Y242463*
X32700Y242423*
X32148Y242304*
X31618Y242109*
X31121Y241840*
X30667Y241504*
X30265Y241107*
X29923Y240658*
X29648Y240165*
X29445Y239638*
X29318Y239087*
X29271Y238471*
X29311Y237908*
G37*
G36*
X33785Y221910D02*
G01X33897Y221746D01*
X34065Y221639*
X34245Y221605*
X37245*
X37440Y221645*
X37604Y221757*
X37711Y221925*
X37724Y221962*
X37767Y222105*
X38728*
X38761Y221945*
X38850Y221709*
X39008Y221512*
X39219Y221374*
X39462Y221309*
X39545Y221305*
X42545*
X42546*
X42795Y221345*
X43019Y221460*
X43085Y221514*
X43181Y221579*
X43354Y221618*
X43460Y221604*
X43617Y221520*
X43951Y221283*
X44324Y221115*
X44385Y221095*
X44518Y221025*
X44629Y220886*
X44669Y220712*
X44660Y220631*
X44636Y220554*
X44595Y220355*
Y217505*
X41906*
X41871Y217519*
X41486Y217626*
X41145Y217655*
X40747Y217615*
X40419Y217519*
X40384Y217505*
X38681*
X37795Y216619*
Y216618*
Y216004*
Y216003*
X37785Y215914*
X37708Y215754*
X37569Y215643*
X37395Y215603*
X37373Y215604*
X37345Y215605*
X34345*
X34150Y215565*
X33986Y215453*
X33879Y215285*
X33845Y215105*
Y211905*
X33885Y211710*
X33997Y211546*
X34165Y211439*
X34345Y211405*
X37345*
X37373Y211406*
X37395Y211407*
X37485Y211396*
X37645Y211319*
X37755Y211180*
X37795Y211007*
Y211006*
Y204691*
X40581Y201905*
X40582*
X65308*
X65309*
X67895Y204491*
Y206602*
X67928Y206760*
X68033Y206904*
X68190Y206987*
X68242Y206998*
X68295Y207001*
X68354Y206997*
X68520Y206932*
X68641Y206802*
X68958Y206335*
X69338Y205917*
X69773Y205557*
X70255Y205262*
X70595Y205105*
Y204191*
X70695Y204091*
Y201269*
X70515Y201251*
X70271Y201187*
X70060Y201049*
X69901Y200853*
X69812Y200617*
X69795Y200455*
Y197455*
X69835Y197206*
X69950Y196982*
X70129Y196804*
X70355Y196692*
X70435Y196671*
X70595Y196638*
Y196637*
Y195972*
X70435Y195939*
X70199Y195850*
X70002Y195692*
X69864Y195481*
X69799Y195238*
X69795Y195155*
Y192155*
X69835Y191906*
X69950Y191682*
X70129Y191504*
X70355Y191392*
X70595Y191355*
X73795*
X74044Y191395*
X74268Y191510*
X74446Y191689*
X74558Y191915*
X74579Y191995*
X74612Y192155*
X75223*
X75280Y192103*
X75416Y191989*
X75562Y191887*
X75927Y191700*
X76321Y191588*
X76695Y191555*
X77102Y191595*
X77494Y191713*
X77856Y191905*
X78174Y192163*
X78358Y192372*
X78575Y192719*
X78721Y193102*
X78790Y193505*
X78795Y193655*
X78755Y194062*
X78637Y194454*
X78445Y194816*
X78187Y195134*
X78118Y195200*
X77791Y195447*
X77423Y195625*
X77027Y195729*
X76695Y195755*
X76288Y195715*
X75896Y195597*
X75534Y195405*
X75280Y195207*
X75223Y195155*
X74612*
X74579Y195315*
X74490Y195551*
X74332Y195748*
X74121Y195886*
X73955Y195939*
X73795Y195972*
Y196638*
X73955Y196671*
X74191Y196760*
X74388Y196918*
X74526Y197129*
X74591Y197372*
X74595Y197455*
Y200455*
X74555Y200704*
X74440Y200928*
X74261Y201106*
X74035Y201218*
X73875Y201251*
X73695Y201269*
Y205147*
X74196Y205409*
X74654Y205740*
X74731Y205806*
X74822Y205866*
X74995Y205905*
X75084Y205895*
X75244Y205818*
X75355Y205679*
X75395Y205506*
Y199984*
X88874Y186505*
X88875*
X114215*
X114216*
X115665Y187954*
X115742Y187957*
X116147Y188016*
X116533Y188152*
X116886Y188360*
X117191Y188633*
X117437Y188960*
X117616Y189329*
X117719Y189725*
X117743Y189958*
X117747Y190035*
X120201Y192490*
X120321*
X120322*
X124223Y196391*
X124972Y195642*
X125176Y195494*
X125323Y195437*
X125428Y195207*
X125529Y195085*
X126364Y194250*
X126568Y194102*
X126715Y194045*
X126820Y193815*
X126920Y193693*
X127756Y192858*
X127960Y192710*
X128107Y192653*
X128212Y192423*
X128312Y192301*
X129147Y191466*
X129351Y191318*
X129499Y191261*
X129604Y191031*
X129704Y190909*
X130539Y190074*
X130743Y189926*
X130891Y189869*
X130911Y189806*
X130936Y189746*
X130964Y189663*
X130974Y189577*
X130927Y189391*
X130812Y189256*
X130649Y189184*
X130219Y189061*
X129819Y188864*
X129459Y188598*
X129153Y188273*
X128910Y187898*
X128737Y187486*
X128638Y187038*
X128624Y186883*
X128619Y186728*
X128659Y186283*
X128778Y185852*
X128971Y185449*
X129233Y185088*
X129555Y184778*
X129927Y184531*
X130178Y184412*
X130215Y184397*
X130665Y183947*
X129916Y183199*
X129868Y183143*
X129829Y183080*
X129771Y183086*
X129742Y183088*
X129713*
X129464Y183049*
X129239Y182933*
X129147Y182854*
X128312Y182019*
X128164Y181815*
X128107Y181667*
X127877Y181562*
X127756Y181462*
X127007Y180713*
X126426Y181294*
X126327*
X122916Y184705*
X119465*
X119146Y184962*
X118783Y185152*
X118390Y185268*
X117995Y185305*
X117588Y185265*
X117196Y185147*
X116834Y184955*
X116525Y184705*
X116262Y184391*
X116065Y184033*
X115941Y183642*
X115895Y183205*
X115935Y182798*
X116053Y182406*
X116245Y182044*
X116495Y181735*
X116809Y181472*
X117167Y181275*
X117558Y181151*
X117995Y181105*
X118402Y181145*
X118794Y181263*
X119156Y181455*
X119465Y181705*
X121674*
X124836Y178543*
X124137Y177843*
X123989Y177639*
X123931Y177491*
X123701Y177386*
X123580Y177286*
X122745Y176451*
X122597Y176247*
X122539Y176099*
X122309Y175994*
X122188Y175894*
X121353Y175059*
X121204Y174855*
X121147Y174708*
X120918Y174602*
X120796Y174502*
X119961Y173667*
X119812Y173463*
X119755Y173316*
X119525Y173211*
X119404Y173111*
X118569Y172275*
X118420Y172071*
X118363Y171924*
X118133Y171819*
X118012Y171719*
X117177Y170883*
X117029Y170679*
X116972Y170532*
X116742Y170427*
X116620Y170327*
X115785Y169492*
X115637Y169288*
X115560Y169048*
X115551Y168926*
X115590Y168677*
X115706Y168453*
X115785Y168360*
X117057Y167088*
X117071Y167055*
X117249Y166758*
X117378Y166612*
X119316Y164674*
Y157647*
X118575Y156906*
X118498Y156903*
X118093Y156844*
X117707Y156708*
X117354Y156500*
X117049Y156227*
X116803Y155900*
X116625Y155531*
X116563Y155336*
X116499Y154932*
X116495Y154805*
X116535Y154398*
X116653Y154006*
X116845Y153644*
X117104Y153327*
X117419Y153065*
X117556Y152980*
X117608Y152945*
X117719Y152805*
X117758Y152632*
X117736Y152499*
X117641Y152349*
X104820Y139528*
X104698Y139575*
X104158Y139740*
X103600Y139828*
X103263Y139842*
X102700Y139802*
X102148Y139683*
X101618Y139487*
X101121Y139218*
X100667Y138882*
X100265Y138486*
X99923Y138036*
X99648Y137543*
X99445Y137016*
X99319Y136468*
X99283Y136159*
X99274Y136004*
X99271Y135849*
X99311Y135286*
X99430Y134734*
X99626Y134204*
X99894Y133707*
X100230Y133253*
X100627Y132851*
X101076Y132509*
X101569Y132234*
X102097Y132031*
X102647Y131905*
X103263Y131857*
X103475Y131862*
X103686Y131879*
X104242Y131979*
X104778Y132156*
X105284Y132406*
X105750Y132726*
X106166Y133108*
X106523Y133545*
X106816Y134028*
X107037Y134548*
X107183Y135094*
X107250Y135654*
X107255Y135849*
X107215Y136412*
X107096Y136964*
X106988Y137285*
X106941Y137406*
X122912Y153377*
X123021Y153455*
X123195Y153494*
X123281Y153485*
X123364Y153457*
X123445Y153406*
X123555Y153267*
X123595Y153094*
Y148303*
X114820Y139528*
X114698Y139575*
X114158Y139740*
X113600Y139828*
X113263Y139842*
X112700Y139802*
X112148Y139683*
X111618Y139487*
X111121Y139218*
X110667Y138882*
X110265Y138486*
X109923Y138036*
X109648Y137543*
X109445Y137016*
X109319Y136468*
X109283Y136159*
X109274Y136004*
X109271Y135849*
X109311Y135286*
X109430Y134734*
X109626Y134204*
X109894Y133707*
X110230Y133253*
X110627Y132851*
X111076Y132509*
X111569Y132234*
X112097Y132031*
X112647Y131905*
X113263Y131857*
X113475Y131862*
X113686Y131879*
X114242Y131979*
X114778Y132156*
X115284Y132406*
X115750Y132726*
X116166Y133108*
X116523Y133545*
X116816Y134028*
X117037Y134548*
X117183Y135094*
X117250Y135654*
X117255Y135849*
X117215Y136412*
X117096Y136964*
X116988Y137285*
X116941Y137406*
X125312Y145777*
X125421Y145855*
X125595Y145894*
X125681Y145885*
X125764Y145857*
X125845Y145806*
X125955Y145667*
X125995Y145494*
Y140703*
X124820Y139528*
X124698Y139575*
X124158Y139740*
X123600Y139828*
X123263Y139842*
X122700Y139802*
X122148Y139683*
X121618Y139487*
X121121Y139218*
X120667Y138882*
X120265Y138486*
X119923Y138036*
X119648Y137543*
X119445Y137016*
X119319Y136468*
X119283Y136159*
X119274Y136004*
X119271Y135849*
X119311Y135286*
X119430Y134734*
X119626Y134204*
X119894Y133707*
X120230Y133253*
X120627Y132851*
X121076Y132509*
X121569Y132234*
X122097Y132031*
X122647Y131905*
X123263Y131857*
X123475Y131862*
X123686Y131879*
X124242Y131979*
X124778Y132156*
X125284Y132406*
X125750Y132726*
X126166Y133108*
X126523Y133545*
X126816Y134028*
X127037Y134548*
X127183Y135094*
X127250Y135654*
X127255Y135849*
X127215Y136412*
X127096Y136964*
X126988Y137285*
X126941Y137406*
X128257Y138722*
X128366Y138799*
X128539Y138838*
X128628Y138828*
X128788Y138751*
X128899Y138612*
X128939Y138439*
Y138051*
X129584Y137406*
X129537Y137285*
X129372Y136745*
X129284Y136187*
X129270Y135849*
X129310Y135286*
X129429Y134734*
X129625Y134204*
X129893Y133707*
X130229Y133253*
X130626Y132851*
X131075Y132509*
X131569Y132234*
X132096Y132031*
X132646Y131905*
X132716Y131894*
X132989Y131866*
X133263Y131857*
X133826Y131897*
X134378Y132016*
X134908Y132212*
X135405Y132480*
X135859Y132816*
X136261Y133213*
X136603Y133662*
X136878Y134156*
X137081Y134683*
X137207Y135233*
X137255Y135849*
X137252Y135997*
X137192Y136559*
X137052Y137106*
X136837Y137628*
X136550Y138115*
X136197Y138556*
X135786Y138943*
X135324Y139268*
X134821Y139525*
X134286Y139708*
X133732Y139814*
X133263Y139841*
X132700Y139801*
X132424Y139752*
X132382Y139745*
X132340Y139743*
X132250Y139753*
X132090Y139831*
X131980Y139970*
X131940Y140143*
Y144085*
X131950Y144174*
X132028Y144334*
X132167Y144444*
X132340Y144484*
X132472Y144462*
X132623Y144367*
X139584Y137406*
X139537Y137285*
X139372Y136745*
X139284Y136187*
X139270Y135850*
X139310Y135287*
X139429Y134735*
X139625Y134205*
X139894Y133708*
X140230Y133254*
X140626Y132852*
X141076Y132510*
X141569Y132235*
X142096Y132032*
X142644Y131906*
X142953Y131870*
X143108Y131861*
X143263Y131858*
X143826Y131898*
X144378Y132017*
X144908Y132213*
X145405Y132481*
X145859Y132817*
X146261Y133214*
X146603Y133663*
X146878Y134157*
X147081Y134684*
X147207Y135234*
X147255Y135850*
X147250Y136062*
X147233Y136273*
X147133Y136829*
X146956Y137365*
X146706Y137871*
X146386Y138337*
X146004Y138753*
X145567Y139110*
X145084Y139403*
X144564Y139624*
X144018Y139770*
X143458Y139837*
X143263Y139842*
X142700Y139802*
X142148Y139683*
X141827Y139575*
X141706Y139528*
X134495Y146738*
Y151529*
X134516Y151657*
X134609Y151809*
X134758Y151905*
X134825Y151923*
X134895Y151929*
X135027Y151907*
X135178Y151812*
X149584Y137406*
X149537Y137285*
X149372Y136745*
X149284Y136187*
X149270Y135849*
X149310Y135286*
X149429Y134734*
X149625Y134204*
X149893Y133707*
X150229Y133253*
X150626Y132851*
X151075Y132509*
X151568Y132234*
X152096Y132031*
X152646Y131905*
X152770Y131887*
X153016Y131864*
X153139Y131859*
X153262Y131857*
X153825Y131897*
X154377Y132016*
X154907Y132211*
X155404Y132480*
X155858Y132816*
X156260Y133213*
X156602Y133662*
X156877Y134155*
X157080Y134683*
X157206Y135233*
X157254Y135849*
X157245Y136125*
X157216Y136399*
X157099Y136952*
X156905Y137482*
X156638Y137980*
X156303Y138435*
X155908Y138838*
X155460Y139182*
X154967Y139459*
X154441Y139663*
X153891Y139791*
X153262Y139841*
X152699Y139801*
X152146Y139682*
X151707Y139526*
X136795Y154438*
Y159229*
X136816Y159357*
X136909Y159509*
X137058Y159605*
X137125Y159623*
X137195Y159629*
X137327Y159607*
X137478Y159512*
X159584Y137406*
X159537Y137285*
X159372Y136745*
X159284Y136187*
X159270Y135850*
X159310Y135287*
X159429Y134735*
X159625Y134205*
X159894Y133708*
X160230Y133254*
X160626Y132852*
X161076Y132510*
X161569Y132235*
X162096Y132032*
X162644Y131906*
X162953Y131870*
X163108Y131861*
X163263Y131858*
X163826Y131898*
X164378Y132017*
X164908Y132213*
X165405Y132481*
X165859Y132817*
X166261Y133214*
X166603Y133663*
X166878Y134157*
X167081Y134684*
X167207Y135234*
X167255Y135850*
X167250Y136062*
X167233Y136273*
X167133Y136829*
X166956Y137365*
X166706Y137871*
X166386Y138337*
X166004Y138753*
X165567Y139110*
X165084Y139403*
X164564Y139624*
X164018Y139770*
X163458Y139837*
X163263Y139842*
X162700Y139802*
X162148Y139683*
X161827Y139575*
X161706Y139528*
X161111Y140122*
X161033Y140231*
X160994Y140405*
X161003Y140491*
X161031Y140574*
X161082Y140655*
X161221Y140765*
X161394Y140805*
X166185*
X169584Y137406*
X169537Y137285*
X169372Y136745*
X169284Y136187*
X169270Y135850*
X169310Y135287*
X169429Y134735*
X169625Y134205*
X169894Y133708*
X170230Y133254*
X170626Y132852*
X171076Y132510*
X171569Y132235*
X172096Y132032*
X172644Y131906*
X172953Y131870*
X173108Y131861*
X173263Y131858*
X173826Y131898*
X174378Y132017*
X174908Y132213*
X175405Y132481*
X175859Y132817*
X176261Y133214*
X176603Y133663*
X176878Y134157*
X177081Y134684*
X177207Y135234*
X177255Y135850*
X177250Y136062*
X177233Y136273*
X177133Y136829*
X176956Y137365*
X176706Y137871*
X176386Y138337*
X176004Y138753*
X175567Y139110*
X175084Y139403*
X174564Y139624*
X174018Y139770*
X173458Y139837*
X173263Y139842*
X172700Y139802*
X172148Y139683*
X171827Y139575*
X171706Y139528*
X167428Y143805*
X162116*
X142895Y163026*
Y170392*
Y170393*
X134051Y179237*
X134800Y179986*
X134848Y180042*
X134887Y180105*
X134945Y180099*
X134974Y180097*
X135003*
X135252Y180136*
X135476Y180252*
X135569Y180331*
X136404Y181166*
X136552Y181370*
X136629Y181611*
X136638Y181732*
X136598Y181981*
X136483Y182205*
X136404Y182297*
X135132Y183569*
X135117Y183602*
X134939Y183899*
X134811Y184045*
X133320Y185535*
X133380Y185663*
X133534Y186083*
X133610Y186523*
X133619Y186729*
X133579Y187175*
X133460Y187605*
X133267Y188008*
X133008Y188367*
X132959Y188498*
X132964Y188540*
X133027Y188648*
X133063Y188682*
X133673Y189292*
X141061Y181903*
X141051Y181808*
X141041Y181678*
X141038Y181613*
X141037Y181548*
X141077Y181103*
X141196Y180672*
X141389Y180269*
X141651Y179907*
X141973Y179598*
X142345Y179350*
X142755Y179173*
X143191Y179072*
X143362Y179054*
X143450Y179049*
X143538Y179047*
X143983Y179087*
X144414Y179206*
X144817Y179399*
X145179Y179661*
X145488Y179983*
X145736Y180355*
X145913Y180765*
X146014Y181201*
X146039Y181548*
X146038Y181569*
Y181590*
X145991Y182035*
X145865Y182463*
X145665Y182863*
X145397Y183220*
X145070Y183525*
X144693Y183766*
X144280Y183936*
X143843Y184030*
X143538Y184049*
X143473Y184048*
X143408Y184045*
X143278Y184035*
X143183Y184025*
X135794Y191413*
X136404Y192023*
X136552Y192227*
X136629Y192467*
X136638Y192589*
X136599Y192838*
X136483Y193062*
X136404Y193155*
X136195Y193363*
X136175Y193386*
X136136Y193505*
X136139Y193540*
X136148Y193573*
X136217Y193666*
X136336Y193705*
X136974*
X137693Y192985*
X137697Y192908*
X137713Y192731*
X137743Y192556*
X137870Y192166*
X138069Y191809*
X138334Y191496*
X138654Y191242*
X139018Y191054*
X139411Y190940*
X139795Y190905*
X139930Y190909*
X140064Y190922*
X140463Y191014*
X140836Y191181*
X141170Y191418*
X141452Y191715*
X141671Y192061*
X141819Y192443*
X141889Y192846*
X141895Y193005*
X141893Y193091*
X141837Y193497*
X141703Y193883*
X141496Y194237*
X141225Y194544*
X140899Y194792*
X140531Y194972*
X140136Y195077*
X139892Y195103*
X139815Y195107*
X138216Y196705*
X136156*
X136155*
X136059Y196730*
X135974Y196821*
X135960Y196862*
X135955Y196905*
X135957Y196936*
X136014Y197047*
X136173Y197205*
X138825*
X139144Y196948*
X139507Y196758*
X139900Y196642*
X140295Y196605*
X140702Y196645*
X141094Y196763*
X141456Y196955*
X141765Y197205*
X142028Y197519*
X142225Y197877*
X142349Y198268*
X142395Y198705*
X142355Y199112*
X142237Y199504*
X142045Y199866*
X141795Y200175*
X141481Y200438*
X141123Y200635*
X140732Y200759*
X140295Y200805*
X139887Y200765*
X139495Y200647*
X139134Y200455*
X138825Y200205*
X136795*
X136705Y200215*
X136545Y200293*
X136434Y200432*
X136395Y200605*
X136403Y200683*
X136475Y200845*
X136688Y201195*
X136828Y201579*
X136891Y201984*
X136895Y202105*
X136855Y202512*
X136737Y202904*
X136545Y203266*
X136492Y203342*
X136392Y203480*
X136746Y203834*
X136886Y203719*
X137104Y203592*
X137351Y203540*
X137392Y203539*
X137413*
X137435Y203540*
X137446*
X137566Y203500*
X137637Y203398*
X137680Y203270*
X137731Y203145*
X137934Y202790*
X138202Y202480*
X138525Y202229*
X138891Y202045*
X139286Y201936*
X139647Y201905*
X139815Y201911*
X139982Y201931*
X140377Y202036*
X140746Y202215*
X141072Y202462*
X141344Y202768*
X141552Y203121*
X141687Y203507*
X141736Y203791*
X141745Y203898*
X141747Y203952*
Y204005*
X141707Y204412*
X141589Y204804*
X141397Y205166*
X141139Y205484*
X140823Y205745*
X140464Y205940*
X140394Y205968*
X140304Y206036*
X140265Y206155*
X140268Y206186*
X140275Y206216*
X140304Y206337*
X140313Y206461*
X140274Y206710*
X140181Y206902*
X140091Y207038*
X140771Y207718*
X140902Y207647*
X141093Y207589*
X141140Y207587*
X141335Y207627*
X141493Y207733*
X143615Y209854*
X143725Y210020*
X143762Y210208*
X143722Y210403*
X143615Y210562*
X141352Y212825*
X141186Y212935*
X140998Y212972*
X140803Y212932*
X140644Y212825*
X138523Y210703*
X138413Y210537*
X138377Y210350*
X138417Y210155*
X138437Y210112*
X138508Y209981*
X137828Y209301*
X137692Y209391*
X137462Y209495*
X137251Y209523*
X137002Y209484*
X136778Y209368*
X136685Y209289*
X135275Y207879*
X135166Y207801*
X134992Y207762*
X134906Y207771*
X134823Y207799*
X134742Y207850*
X134631Y207989*
X134592Y208162*
Y208808*
X135779Y209995*
X135927Y210199*
X136004Y210439*
X136013Y210561*
X135974Y210810*
X135881Y211002*
X135791Y211138*
X136471Y211818*
X136602Y211747*
X136793Y211689*
X136840Y211687*
X137035Y211727*
X137193Y211833*
X139315Y213954*
X139425Y214120*
X139462Y214308*
X139422Y214503*
X139315Y214662*
X137052Y216925*
X136886Y217035*
X136698Y217072*
X136503Y217032*
X136344Y216925*
X134223Y214803*
X134113Y214637*
X134077Y214450*
X134117Y214255*
X134137Y214212*
X134208Y214081*
X133528Y213401*
X133392Y213491*
X133162Y213595*
X132951Y213624*
X132845Y213617*
X132742Y213596*
X132716Y213591*
X132690Y213589*
X132566Y213632*
X132497Y213736*
X132351Y214119*
X132134Y214466*
X131853Y214764*
X131520Y215002*
X131147Y215171*
X130748Y215264*
X130471Y215283*
X130385Y215281*
X130300Y215276*
X129897Y215203*
X129516Y215053*
X129171Y214832*
X128875Y214548*
X128641Y214213*
X128475Y213838*
X128386Y213439*
X128379Y213377*
X128373Y213279*
X128371Y213231*
X128370Y213182*
X128410Y212774*
X128528Y212382*
X128720Y212021*
X128979Y211703*
X129294Y211442*
X129654Y211247*
X129916Y211156*
X130025Y211082*
X130064Y210963*
X130062Y210937*
X130057Y210911*
X130036Y210807*
X130029Y210701*
X130069Y210452*
X130184Y210228*
X130263Y210136*
X131592Y208808*
Y207223*
X127495Y203126*
Y203125*
Y202891*
X127485Y202801*
X127407Y202641*
X127268Y202530*
X127095Y202491*
X127019Y202498*
X126947Y202519*
X126701Y202574*
X126652Y202575*
X126594Y202573*
X126536Y202567*
X126496Y202630*
X126448Y202686*
X125613Y203521*
X125557Y203569*
X125494Y203609*
X125500Y203667*
X125502Y203724*
X125463Y203973*
X125347Y204198*
X125268Y204290*
X124519Y205039*
X126495Y207015*
Y216384*
X132516Y222405*
X149317*
X149318*
X161707Y234794*
X162242Y234611*
X162797Y234506*
X163263Y234478*
X163826Y234518*
X164378Y234637*
X164908Y234833*
X165405Y235102*
X165859Y235438*
X166261Y235834*
X166448Y236064*
X166756Y236538*
X166994Y237050*
X167157Y237591*
X167242Y238149*
X167255Y238471*
X167215Y239034*
X167096Y239586*
X166900Y240116*
X166632Y240613*
X166296Y241067*
X166186Y241190*
X165773Y241575*
X165310Y241898*
X164806Y242153*
X164271Y242334*
X163716Y242438*
X163263Y242463*
X162700Y242423*
X162148Y242304*
X161618Y242109*
X161093Y241822*
X160642Y241482*
X160243Y241082*
X159905Y240630*
X159634Y240135*
X159435Y239606*
X159314Y239054*
X159271Y238471*
X159311Y237908*
X159430Y237356*
X159586Y236916*
X148075Y225405*
X143284*
X143156Y225426*
X143004Y225519*
X142908Y225668*
X142890Y225735*
X142884Y225805*
X142906Y225937*
X143001Y226088*
X151706Y234793*
X151827Y234746*
X152367Y234581*
X152925Y234493*
X153263Y234479*
X153826Y234519*
X154378Y234638*
X154908Y234834*
X155405Y235102*
X155859Y235438*
X156261Y235835*
X156603Y236284*
X156878Y236777*
X157081Y237305*
X157207Y237855*
X157225Y237979*
X157248Y238225*
X157253Y238348*
X157255Y238471*
X157215Y239034*
X157096Y239586*
X156900Y240116*
X156632Y240613*
X156296Y241067*
X155899Y241469*
X155450Y241811*
X154957Y242086*
X154429Y242289*
X153879Y242415*
X153263Y242463*
X152987Y242454*
X152713Y242425*
X152160Y242308*
X151630Y242114*
X151132Y241847*
X150677Y241512*
X150274Y241117*
X149930Y240669*
X149653Y240176*
X149449Y239650*
X149321Y239100*
X149271Y238471*
X149311Y237908*
X149430Y237356*
X149586Y236916*
X140375Y227705*
X135584*
X135456Y227726*
X135304Y227819*
X135208Y227968*
X135190Y228035*
X135184Y228105*
X135206Y228237*
X135301Y228388*
X141706Y234793*
X141827Y234746*
X142367Y234581*
X142925Y234493*
X143263Y234479*
X143826Y234519*
X144378Y234638*
X144908Y234834*
X145405Y235102*
X145859Y235438*
X146261Y235835*
X146603Y236284*
X146878Y236777*
X147081Y237305*
X147207Y237855*
X147225Y237979*
X147248Y238225*
X147253Y238348*
X147255Y238471*
X147215Y239034*
X147096Y239586*
X146900Y240116*
X146632Y240613*
X146296Y241067*
X145899Y241469*
X145450Y241811*
X144957Y242086*
X144429Y242289*
X143879Y242415*
X143263Y242463*
X142987Y242454*
X142713Y242425*
X142160Y242308*
X141630Y242114*
X141132Y241847*
X140677Y241512*
X140274Y241117*
X139930Y240669*
X139653Y240176*
X139449Y239650*
X139321Y239100*
X139271Y238471*
X139311Y237908*
X139430Y237356*
X139586Y236916*
X132575Y229905*
X127374*
X119316Y221847*
Y221846*
Y209646*
X117378Y207708*
X117163Y207437*
X117071Y207265*
X117057Y207232*
X115785Y205960*
X115637Y205756*
X115560Y205515*
X115551Y205395*
X115591Y205145*
X115706Y204921*
X115785Y204829*
X116620Y203994*
X116824Y203846*
X116972Y203788*
X117077Y203558*
X117177Y203437*
X118012Y202602*
X118216Y202454*
X118363Y202397*
X118468Y202167*
X118569Y202045*
X118767Y201847*
X118787Y201824*
X118826Y201705*
X118823Y201670*
X118814Y201637*
X118745Y201544*
X118626Y201505*
X118297*
X118237Y201579*
X117926Y201900*
X117562Y202160*
X117159Y202351*
X116727Y202467*
X116295Y202505*
X115850Y202465*
X115419Y202346*
X115016Y202153*
X114654Y201891*
X114586Y201830*
X114288Y201496*
X114055Y201115*
X113893Y200699*
X113808Y200260*
X113795Y200005*
X113835Y199560*
X113953Y199129*
X114147Y198726*
X114409Y198364*
X114626Y198143*
X114984Y197876*
X115384Y197677*
X115813Y197552*
X116295Y197505*
X116740Y197545*
X117171Y197663*
X117574Y197857*
X117936Y198119*
X118245Y198441*
X118295Y198505*
X120768*
X120769*
X121651Y199387*
X122313Y198724*
X119079Y195490*
X118959*
X115625Y192156*
X115548Y192153*
X115143Y192094*
X114757Y191958*
X114404Y191750*
X114099Y191477*
X113853Y191150*
X113674Y190781*
X113571Y190385*
X113547Y190152*
X113543Y190075*
X112974Y189505*
X98050*
X97961Y189515*
X97801Y189593*
X97690Y189732*
X97651Y189905*
X97652Y189935*
X97655Y189965*
X97661Y190023*
X97664Y190082*
X97661Y190140*
X97655Y190198*
X97718Y190238*
X97774Y190286*
X98609Y191121*
X98657Y191177*
X98697Y191240*
X98755Y191234*
X98783Y191232*
X98812*
X99061Y191271*
X99286Y191387*
X99378Y191466*
X100213Y192301*
X100361Y192505*
X100418Y192653*
X100648Y192758*
X100770Y192858*
X101605Y193693*
X101753Y193897*
X101810Y194045*
X102040Y194150*
X102162Y194250*
X102997Y195085*
X103145Y195289*
X103202Y195437*
X103432Y195542*
X103554Y195642*
X104389Y196477*
X104537Y196681*
X104594Y196829*
X104824Y196934*
X104946Y197034*
X105781Y197869*
X105929Y198073*
X105986Y198221*
X106216Y198326*
X106338Y198426*
X107173Y199261*
X107321Y199465*
X107378Y199613*
X107608Y199718*
X107730Y199818*
X108565Y200653*
X108713Y200857*
X108770Y201005*
X109000Y201110*
X109122Y201210*
X109957Y202045*
X110105Y202249*
X110162Y202397*
X110392Y202502*
X110513Y202602*
X111349Y203437*
X111497Y203641*
X111554Y203788*
X111783Y203894*
X111905Y203994*
X112741Y204829*
X112889Y205033*
X112966Y205274*
X112975Y205395*
X112935Y205644*
X112820Y205868*
X112741Y205960*
X111469Y207232*
X111454Y207265*
X111276Y207562*
X111148Y207708*
X109210Y209646*
Y215798*
X124916Y231505*
X128417*
X128418*
X131706Y234793*
X131827Y234746*
X132367Y234581*
X132925Y234493*
X133262Y234479*
X133825Y234519*
X134377Y234638*
X134907Y234834*
X135404Y235103*
X135858Y235439*
X136260Y235835*
X136602Y236285*
X136877Y236778*
X137080Y237305*
X137206Y237853*
X137254Y238472*
X137214Y239035*
X137095Y239587*
X136899Y240117*
X136631Y240614*
X136295Y241068*
X135898Y241470*
X135449Y241812*
X134955Y242087*
X134428Y242290*
X133878Y242416*
X133262Y242464*
X133050Y242459*
X132839Y242442*
X132283Y242342*
X131747Y242165*
X131241Y241915*
X130775Y241595*
X130359Y241213*
X130002Y240776*
X129709Y240293*
X129488Y239773*
X129342Y239227*
X129275Y238667*
X129270Y238472*
X129310Y237909*
X129429Y237357*
X129537Y237036*
X129584Y236914*
X127175Y234505*
X125827*
X125672Y234536*
X125528Y234640*
X125443Y234796*
X125431Y234850*
X125428Y234905*
X125476Y235097*
X125594Y235230*
X126028Y235591*
X126407Y236010*
X126723Y236479*
X126969Y236987*
X127142Y237525*
X127237Y238081*
X127256Y238472*
X127216Y239035*
X127097Y239587*
X126901Y240117*
X126683Y240533*
X126358Y240995*
X125971Y241406*
X125530Y241759*
X125043Y242046*
X124521Y242261*
X123974Y242401*
X123412Y242462*
X123263Y242465*
X122699Y242425*
X122147Y242306*
X121617Y242110*
X121508Y242058*
X121019Y241775*
X120576Y241425*
X120186Y241016*
X119858Y240557*
X119597Y240055*
X119411Y239522*
X119301Y238968*
X119270Y238472*
X119310Y237908*
X119429Y237356*
X119537Y237036*
X119584Y236914*
X115446Y232776*
X115337Y232698*
X115163Y232659*
X115077Y232668*
X114994Y232696*
X114913Y232747*
X114802Y232886*
X114763Y233059*
Y234771*
X115270Y235020*
X115737Y235338*
X116155Y235718*
X116514Y236154*
X116809Y236636*
X117032Y237155*
X117180Y237700*
X117250Y238260*
X117255Y238471*
X117253Y238609*
X117246Y238747*
X117217Y239022*
X117100Y239574*
X116906Y240105*
X116639Y240603*
X116304Y241058*
X115909Y241461*
X115460Y241804*
X114968Y242081*
X114442Y242286*
X113892Y242414*
X113407Y242461*
X113335Y242463*
X113299*
X113263*
X112700Y242424*
X112147Y242304*
X111618Y242109*
X111121Y241840*
X110667Y241504*
X110265Y241107*
X109923Y240658*
X109648Y240165*
X109445Y239638*
X109359Y239306*
X109320Y239099*
X109293Y238891*
X109276Y238681*
X109272Y238576*
X109271Y238471*
X109310Y237908*
X109430Y237355*
X109625Y236826*
X109894Y236329*
X110230Y235875*
X110627Y235473*
X111076Y235131*
X111569Y234856*
X111763Y234771*
Y232994*
X103478Y224710*
X103369Y224632*
X103195Y224593*
X103109Y224602*
X103026Y224630*
X102945Y224681*
X102834Y224820*
X102795Y224993*
Y229684*
X104763Y231651*
Y234771*
X105270Y235020*
X105737Y235338*
X106154Y235719*
X106514Y236154*
X106808Y236636*
X107032Y237155*
X107179Y237700*
X107249Y238261*
X107255Y238471*
X107245Y238747*
X107216Y239022*
X107099Y239574*
X106905Y240105*
X106638Y240603*
X106303Y241058*
X105908Y241461*
X105459Y241804*
X104967Y242081*
X104441Y242286*
X103891Y242414*
X103406Y242461*
X103334Y242463*
X103298*
X103262*
X102699Y242424*
X102146Y242304*
X101617Y242109*
X101120Y241840*
X100666Y241504*
X100264Y241107*
X99922Y240658*
X99647Y240165*
X99444Y239638*
X99358Y239306*
X99319Y239099*
X99292Y238891*
X99275Y238681*
X99271Y238576*
X99270Y238471*
X99309Y237908*
X99429Y237355*
X99624Y236826*
X99893Y236329*
X100229Y235875*
X100626Y235473*
X101075Y235131*
X101568Y234856*
X101762Y234771*
Y232894*
X101078Y232210*
X100969Y232132*
X100795Y232093*
X100709Y232102*
X100626Y232130*
X100545Y232181*
X100434Y232320*
X100395Y232493*
Y233459*
Y233460*
X96940Y236916*
X97123Y237451*
X97228Y238006*
X97255Y238471*
X97215Y239034*
X97096Y239587*
X96901Y240116*
X96632Y240613*
X96296Y241067*
X95899Y241469*
X95450Y241811*
X95317Y241894*
X94814Y242150*
X94279Y242332*
X93724Y242437*
X93263Y242464*
X92699Y242424*
X92147Y242305*
X91617Y242109*
X91120Y241840*
X90666Y241504*
X90248Y241089*
X89909Y240638*
X89637Y240143*
X89437Y239614*
X89314Y239063*
X89270Y238471*
X89310Y237908*
X89429Y237356*
X89625Y236826*
X89893Y236329*
X90161Y235957*
X90211Y235878*
X90250Y235705*
X90240Y235616*
X90163Y235456*
X90024Y235345*
X89851Y235305*
X88550*
X86940Y236916*
X87123Y237451*
X87228Y238006*
X87256Y238472*
X87216Y239035*
X87097Y239587*
X86901Y240117*
X86632Y240614*
X86296Y241068*
X85899Y241470*
X85450Y241812*
X84957Y242087*
X84430Y242290*
X83883Y242416*
X83263Y242465*
X82699Y242425*
X82147Y242306*
X81618Y242110*
X81121Y241841*
X80667Y241505*
X80265Y241108*
X79923Y240659*
X79647Y240166*
X79444Y239639*
X79318Y239088*
X79270Y238472*
X79276Y238261*
X79293Y238050*
X79392Y237494*
X79569Y236958*
X79819Y236451*
X80139Y235986*
X80521Y235570*
X80958Y235212*
X81441Y234919*
X81960Y234698*
X82506Y234552*
X83067Y234484*
X83263Y234479*
X83826Y234519*
X84378Y234638*
X84698Y234746*
X84820Y234793*
X85824Y233788*
X85902Y233679*
X85941Y233505*
X85932Y233419*
X85904Y233336*
X85853Y233255*
X85714Y233145*
X85541Y233105*
X80750*
X76940Y236916*
X77123Y237451*
X77228Y238006*
X77255Y238471*
X77215Y239034*
X77096Y239587*
X76901Y240116*
X76632Y240613*
X76296Y241067*
X75899Y241469*
X75450Y241811*
X75132Y241999*
X74615Y242227*
X74072Y242381*
X73512Y242456*
X73263Y242463*
X72700Y242424*
X72148Y242304*
X71618Y242109*
X71121Y241840*
X70667Y241504*
X70265Y241107*
X69911Y240640*
X69639Y240145*
X69439Y239617*
X69315Y239066*
X69271Y238471*
X69310Y237908*
X69430Y237356*
X69625Y236826*
X69894Y236329*
X70230Y235875*
X70627Y235473*
X70810Y235321*
X70925Y235179*
X70964Y235005*
X70958Y234936*
X70940Y234868*
X70876Y234755*
X70737Y234645*
X70564Y234605*
X69250*
X66940Y236916*
X67123Y237451*
X67228Y238006*
X67256Y238472*
X67216Y239035*
X67097Y239587*
X66901Y240117*
X66632Y240614*
X66296Y241068*
X65899Y241470*
X65450Y241812*
X64957Y242087*
X64430Y242290*
X63883Y242416*
X63263Y242465*
X62699Y242425*
X62147Y242306*
X61618Y242110*
X61121Y241841*
X60667Y241505*
X60265Y241108*
X59923Y240659*
X59647Y240166*
X59444Y239639*
X59318Y239088*
X59270Y238472*
X59276Y238261*
X59293Y238050*
X59392Y237494*
X59569Y236958*
X59819Y236451*
X60139Y235986*
X60521Y235570*
X60958Y235212*
X61441Y234919*
X61960Y234698*
X62506Y234552*
X63067Y234484*
X63263Y234479*
X63826Y234519*
X64378Y234638*
X64698Y234746*
X64820Y234793*
X66724Y232888*
X66802Y232779*
X66841Y232605*
X66832Y232519*
X66804Y232436*
X66753Y232355*
X66614Y232245*
X66441Y232205*
X61650*
X56941Y236914*
X56988Y237036*
X57153Y237576*
X57241Y238134*
X57255Y238471*
X57215Y239034*
X57096Y239586*
X56900Y240116*
X56631Y240613*
X56295Y241067*
X55899Y241469*
X55449Y241811*
X54956Y242086*
X54429Y242289*
X53881Y242415*
X53572Y242451*
X53417Y242460*
X53262Y242463*
X52699Y242423*
X52147Y242304*
X51617Y242108*
X51120Y241840*
X50666Y241504*
X50264Y241107*
X49922Y240658*
X49647Y240164*
X49444Y239637*
X49318Y239087*
X49270Y238471*
X49275Y238259*
X49292Y238048*
X49392Y237492*
X49569Y236956*
X49819Y236450*
X50139Y235984*
X50521Y235568*
X50958Y235211*
X51441Y234918*
X51961Y234697*
X52507Y234551*
X53067Y234484*
X53262Y234479*
X53825Y234519*
X54377Y234638*
X54698Y234746*
X54820Y234793*
X59624Y229988*
X59702Y229879*
X59741Y229705*
X59732Y229619*
X59704Y229536*
X59653Y229455*
X59514Y229345*
X59341Y229305*
X54550*
X46941Y236914*
X46988Y237036*
X47153Y237576*
X47241Y238134*
X47255Y238471*
X47215Y239034*
X47096Y239586*
X46900Y240116*
X46631Y240613*
X46295Y241067*
X45899Y241469*
X45449Y241811*
X44956Y242086*
X44429Y242289*
X43881Y242415*
X43572Y242451*
X43417Y242460*
X43262Y242463*
X42699Y242423*
X42147Y242304*
X41617Y242108*
X41120Y241840*
X40666Y241504*
X40264Y241107*
X39922Y240658*
X39647Y240164*
X39444Y239637*
X39318Y239087*
X39270Y238471*
X39275Y238259*
X39292Y238048*
X39392Y237492*
X39569Y236956*
X39819Y236450*
X40139Y235984*
X40521Y235568*
X40958Y235211*
X41441Y234918*
X41961Y234697*
X42507Y234551*
X43067Y234484*
X43262Y234479*
X43825Y234519*
X44377Y234638*
X44698Y234746*
X44820Y234793*
X53307Y226305*
X53308*
X70774*
X73853Y223225*
X73931Y223115*
X73970Y222942*
X73965Y222880*
X73899Y222715*
X73882Y222692*
X73743Y222581*
X73570Y222542*
X73502Y222548*
X73436Y222565*
X72892Y222717*
X72332Y222790*
X72095Y222797*
X71531Y222757*
X70979Y222638*
X70449Y222442*
X69952Y222174*
X69498Y221838*
X69096Y221441*
X68754Y220992*
X68641Y220808*
X68607Y220758*
X68468Y220648*
X68295Y220608*
X68243Y220611*
X68191Y220622*
X68045Y220696*
X67935Y220835*
X67895Y221008*
Y221618*
Y221619*
X65309Y224205*
X58081*
X51381Y217505*
X48795*
Y220355*
X48755Y220550*
X48643Y220714*
X48475Y220821*
X48295Y220855*
X46677*
X46564Y220871*
X46409Y220958*
X46307Y221103*
X46285Y221178*
X46277Y221255*
X46306Y221405*
X46408Y221551*
X46683Y221855*
X46893Y222206*
X47032Y222591*
X47093Y222996*
X47095Y223105*
X47055Y223512*
X46937Y223904*
X46745Y224266*
X46487Y224584*
X46172Y224845*
X45982Y224959*
X45956Y224973*
X45224Y225705*
X43238*
X43079Y225901*
X42867Y226038*
X42623Y226101*
X42545Y226105*
X39545*
X39296Y226065*
X39072Y225950*
X38894Y225771*
X38782Y225545*
X38761Y225465*
X38728Y225305*
X37767*
X37724Y225448*
X37630Y225624*
X37475Y225749*
X37284Y225803*
X37245Y225805*
X34245*
X34050Y225765*
X33886Y225653*
X33779Y225485*
X33745Y225305*
Y222105*
X33785Y221910*
G37*
G36*
X55312Y154541D02*
G01X55424Y154377D01*
X55592Y154270*
X55772Y154236*
X60497*
X60692Y154276*
X60856Y154389*
X60963Y154556*
X60997Y154736*
Y154737*
Y158673*
Y158674*
X60957Y158869*
X60845Y159033*
X60677Y159140*
X60497Y159174*
X55772*
X55577Y159134*
X55413Y159021*
X55306Y158854*
X55272Y158674*
Y158673*
Y154737*
Y154736*
X55312Y154541*
G37*
G36*
X154746Y154627D02*
G01X154861Y154403D01*
X155040Y154226*
X155266Y154113*
X155507Y154076*
X163381*
X163630Y154116*
X163854Y154231*
X164032Y154411*
X164144Y154637*
X164181Y154876*
Y154877*
Y178499*
X164141Y178748*
X164026Y178972*
X163847Y179150*
X163621Y179262*
X163381Y179299*
X160944*
Y182835*
X161201Y183154*
X161390Y183517*
X161506Y183910*
X161544Y184304*
X161504Y184712*
X161386Y185104*
X161194Y185466*
X160943Y185775*
X160629Y186038*
X160271Y186235*
X159880Y186359*
X159473Y186405*
X159065Y186371*
X158672Y186258*
X158307Y186072*
X157973Y185805*
X157710Y185491*
X157513Y185133*
X157389Y184742*
X157343Y184305*
X157383Y183898*
X157501Y183506*
X157693Y183144*
X157943Y182835*
Y179299*
X155507*
X155258Y179260*
X155033Y179145*
X154856Y178965*
X154743Y178740*
X154706Y178499*
Y154877*
X154746Y154627*
G37*
G36*
Y195572D02*
G01X154861Y195348D01*
X155041Y195170*
X155267Y195058*
X155507Y195021*
X157943*
Y191775*
X157686Y191456*
X157496Y191093*
X157381Y190700*
X157343Y190306*
X157383Y189898*
X157501Y189506*
X157693Y189144*
X157944Y188835*
X158258Y188572*
X158616Y188375*
X159007Y188251*
X159414Y188205*
X159822Y188239*
X160215Y188351*
X160580Y188538*
X160914Y188805*
X161177Y189119*
X161374Y189477*
X161498Y189868*
X161544Y190305*
X161504Y190713*
X161386Y191105*
X161194Y191466*
X160944Y191775*
Y195021*
X163381*
X163630Y195061*
X163854Y195176*
X164032Y195355*
X164144Y195581*
X164181Y195821*
Y219443*
Y219444*
X164141Y219693*
X164026Y219917*
X163847Y220095*
X163621Y220207*
X163381Y220244*
X155507*
X155258Y220204*
X155033Y220089*
X154856Y219910*
X154743Y219684*
X154706Y219443*
Y195821*
X154746Y195572*
G37*
G36*
X166008Y197625D02*
G01X166126Y197233D01*
X166318Y196871*
X166568Y196562*
X166882Y196299*
X167240Y196102*
X167631Y195978*
X168038Y195932*
X168446Y195966*
X168839Y196079*
X169204Y196265*
X169538Y196532*
X170755*
Y195473*
X170795Y195224*
X170910Y195000*
X171090Y194822*
X171316Y194710*
X171556Y194673*
X179036*
X179285Y194713*
X179509Y194828*
X179687Y195007*
X179799Y195233*
X179836Y195473*
Y199269*
X181243Y200677*
Y232612*
X176940Y236916*
X177123Y237451*
X177228Y238006*
X177256Y238472*
X177216Y239035*
X177097Y239587*
X176901Y240117*
X176632Y240614*
X176296Y241068*
X175900Y241470*
X175450Y241812*
X174957Y242087*
X174430Y242290*
X173883Y242416*
X173320Y242464*
X172756Y242432*
X172203Y242321*
X171670Y242133*
X171169Y241872*
X170711Y241542*
X170303Y241151*
X169954Y240707*
X169672Y240218*
X169462Y239693*
X169327Y239145*
X169272Y238583*
X169270Y238472*
X169276Y238261*
X169293Y238050*
X169392Y237494*
X169569Y236958*
X169819Y236451*
X170139Y235986*
X170521Y235570*
X170958Y235212*
X171441Y234919*
X171960Y234698*
X172506Y234552*
X173067Y234484*
X173632Y234496*
X174189Y234588*
X174698Y234746*
X174820Y234793*
X178243Y231369*
Y201920*
X177715Y201391*
X171556*
X171307Y201352*
X171082Y201237*
X170905Y201057*
X170792Y200832*
X170755Y200591*
Y199532*
X169538*
X169219Y199789*
X168856Y199979*
X168463Y200095*
X168056Y200132*
X167648Y200090*
X167257Y199969*
X166897Y199775*
X166598Y199532*
X166335Y199218*
X166138Y198860*
X166014Y198469*
X165968Y198032*
X166008Y197625*
G37*
G36*
X170795Y173570D02*
G01X170910Y173346D01*
X171090Y173168*
X171316Y173056*
X171556Y173019*
X179036*
X179285Y173059*
X179509Y173174*
X179687Y173353*
X179799Y173579*
X179836Y173819*
Y178937*
Y178938*
X179796Y179187*
X179681Y179411*
X179502Y179589*
X179276Y179701*
X179036Y179738*
X171556*
X171307Y179698*
X171082Y179583*
X170905Y179404*
X170792Y179178*
X170755Y178937*
Y173819*
X170795Y173570*
G37*
G36*
X172935Y191698D02*
G01X173053Y191306D01*
X173245Y190944*
X173495Y190635*
X173809Y190372*
X174167Y190175*
X174558Y190051*
X174965Y190005*
X175373Y190039*
X175766Y190152*
X176131Y190338*
X176465Y190605*
X181407*
X181408*
X185475Y194673*
X191634*
X191883Y194712*
X192108Y194827*
X192285Y195007*
X192398Y195232*
X192435Y195473*
Y200591*
X192432Y200655*
X192425Y200747*
X192631Y200954*
X194381Y199205*
X194595*
Y198777*
X194452Y198734*
X194276Y198640*
X194151Y198486*
X194097Y198294*
X194095Y198255*
Y195255*
X194135Y195060*
X194247Y194896*
X194415Y194789*
X194595Y194755*
X197795*
X197990Y194795*
X198154Y194907*
X198261Y195075*
X198295Y195255*
Y198255*
X198255Y198450*
X198143Y198614*
X197975Y198721*
X197938Y198734*
X197795Y198777*
Y199205*
X198681*
X201081Y196805*
X209608*
X209609*
X210695Y197891*
Y213519*
X203909Y220305*
X203908*
X193481*
X191795Y218619*
Y218618*
Y201792*
Y201791*
X191998Y201588*
X191791Y201381*
X191699Y201389*
X191634Y201391*
X188895*
Y234960*
X186940Y236916*
X187123Y237451*
X187228Y238006*
X187255Y238471*
X187215Y239034*
X187096Y239586*
X186901Y240116*
X186632Y240613*
X186296Y241067*
X185899Y241469*
X185670Y241656*
X185196Y241964*
X184684Y242202*
X184143Y242365*
X183585Y242450*
X183020Y242456*
X182460Y242382*
X181917Y242229*
X181400Y242002*
X180920Y241703*
X180544Y241394*
X180159Y240981*
X179836Y240518*
X179581Y240014*
X179400Y239479*
X179296Y238924*
X179271Y238471*
X179311Y237908*
X179430Y237356*
X179625Y236826*
X179912Y236301*
X180252Y235850*
X180652Y235451*
X181104Y235113*
X181599Y234842*
X182128Y234643*
X182680Y234522*
X183243Y234479*
X183806Y234516*
X184359Y234632*
X184818Y234794*
X185895Y233717*
Y201391*
X184154*
X183905Y201351*
X183681Y201236*
X183503Y201057*
X183391Y200831*
X183354Y200591*
Y196794*
X180165Y193605*
X176465*
X176146Y193862*
X175783Y194052*
X175390Y194168*
X174983Y194205*
X174575Y194163*
X174184Y194042*
X173824Y193848*
X173525Y193605*
X173262Y193291*
X173065Y192933*
X172941Y192542*
X172895Y192105*
X172935Y191698*
G37*
G36*
X179311Y135286D02*
G01X179430Y134734D01*
X179625Y134204*
X179894Y133707*
X180230Y133253*
X180627Y132851*
X181076Y132509*
X181569Y132234*
X182096Y132031*
X182647Y131904*
X183263Y131857*
X183826Y131897*
X184378Y132016*
X184908Y132211*
X185405Y132480*
X185859Y132816*
X186261Y133213*
X186603Y133662*
X186878Y134155*
X187081Y134682*
X187208Y135233*
X187255Y135849*
X187215Y136412*
X187096Y136964*
X186901Y137494*
X186632Y137991*
X186296Y138445*
X185899Y138847*
X185450Y139189*
X184957Y139464*
X184430Y139667*
X183879Y139794*
X183263Y139841*
X182700Y139801*
X182148Y139682*
X181618Y139487*
X181121Y139218*
X180667Y138882*
X180265Y138485*
X179923Y138036*
X179648Y137543*
X179445Y137016*
X179318Y136465*
X179271Y135849*
X179311Y135286*
G37*
G36*
X183394Y173570D02*
G01X183509Y173346D01*
X183688Y173168*
X183914Y173056*
X184154Y173019*
X191634*
X191883Y173058*
X192108Y173173*
X192285Y173353*
X192398Y173578*
X192435Y173819*
Y178937*
X192395Y179187*
X192280Y179411*
X192101Y179588*
X191875Y179701*
X191634Y179738*
X184154*
X183905Y179698*
X183681Y179583*
X183503Y179403*
X183391Y179177*
X183354Y178938*
Y178937*
Y173819*
X183394Y173570*
G37*
G36*
X189311Y237908D02*
G01X189430Y237356D01*
X189625Y236826*
X189894Y236329*
X190230Y235875*
X190627Y235473*
X191076Y235131*
X191569Y234856*
X192096Y234653*
X192647Y234526*
X193263Y234479*
X193826Y234519*
X194378Y234638*
X194908Y234833*
X195405Y235102*
X195859Y235438*
X196261Y235835*
X196603Y236284*
X196878Y236777*
X197081Y237304*
X197208Y237855*
X197255Y238471*
X197215Y239034*
X197096Y239586*
X196901Y240116*
X196632Y240613*
X196296Y241067*
X195899Y241469*
X195450Y241811*
X194957Y242086*
X194430Y242289*
X193879Y242416*
X193263Y242463*
X192700Y242423*
X192148Y242304*
X191618Y242109*
X191121Y241840*
X190667Y241504*
X190265Y241107*
X189923Y240658*
X189648Y240165*
X189445Y239638*
X189318Y239087*
X189271Y238471*
X189311Y237908*
G37*
G36*
X189811Y135322D02*
G01X189929Y134808D01*
X190125Y134317*
X190392Y133861*
X190724Y133451*
X191115Y133095*
X191555Y132803*
X192034Y132580*
X192541Y132432*
X193064Y132362*
X193263Y132357*
X193790Y132397*
X194304Y132515*
X194795Y132711*
X195251Y132978*
X195661Y133310*
X196017Y133701*
X196309Y134141*
X196532Y134620*
X196680Y135127*
X196750Y135650*
X196755Y135849*
X196715Y136376*
X196597Y136890*
X196401Y137381*
X196134Y137837*
X195802Y138247*
X195411Y138603*
X194971Y138895*
X194492Y139118*
X193985Y139266*
X193462Y139336*
X193263Y139341*
X192736Y139301*
X192222Y139183*
X191731Y138987*
X191275Y138720*
X190865Y138388*
X190509Y137997*
X190217Y137557*
X189994Y137078*
X189846Y136571*
X189776Y136048*
X189771Y135849*
X189811Y135322*
G37*
G36*
X191734Y225298D02*
G01X191853Y224905D01*
X192045Y224544*
X192184Y224357*
X192476Y224070*
X192818Y223845*
X193198Y223691*
X193600Y223614*
X194009Y223615*
X194410Y223697*
X194680Y223800*
X194759Y223827*
X194937*
X195097Y223750*
X195208Y223611*
X195248Y223438*
Y222751*
X195288Y222502*
X195403Y222278*
X195583Y222100*
X195809Y221988*
X196049Y221951*
X202741*
X202990Y221990*
X203215Y222105*
X203392Y222285*
X203505Y222510*
X203542Y222751*
Y228657*
X203502Y228906*
X203387Y229130*
X203207Y229308*
X202981Y229420*
X202741Y229457*
X196049*
X195800Y229418*
X195575Y229303*
X195398Y229123*
X195285Y228898*
X195248Y228657*
Y227973*
X195239Y227888*
X195164Y227727*
X195026Y227615*
X194854Y227573*
X194680Y227610*
X194294Y227745*
X193888Y227803*
X193479Y227782*
X193083Y227681*
X192713Y227505*
X192384Y227261*
X192109Y226958*
X192076Y226912*
X191875Y226556*
X191746Y226167*
X191695Y225761*
X191694Y225705*
X191734Y225298*
G37*
G36*
X192688Y144504D02*
G01X192803Y144280D01*
X192983Y144102*
X193209Y143990*
X193448Y143953*
X193449*
X200141*
X200142*
X200391Y143993*
X200615Y144108*
X200793Y144287*
X200905Y144513*
X200942Y144753*
Y146206*
X201224*
X201281Y146153*
X201417Y146039*
X201563Y145938*
X201928Y145751*
X202322Y145639*
X202696Y145606*
X203103Y145646*
X203495Y145764*
X203857Y145956*
X204175Y146214*
X204359Y146423*
X204576Y146770*
X204722Y147153*
X204791Y147556*
X204796Y147706*
X204756Y148113*
X204638Y148505*
X204446Y148867*
X204188Y149185*
X204119Y149251*
X203792Y149498*
X203424Y149676*
X203028Y149780*
X202696Y149806*
X202289Y149766*
X201897Y149648*
X201535Y149456*
X201281Y149258*
X201224Y149206*
X200942*
Y150659*
X200902Y150908*
X200787Y151132*
X200607Y151310*
X200381Y151422*
X200142Y151459*
X200141*
X193449*
X193448*
X193199Y151419*
X192975Y151304*
X192797Y151125*
X192685Y150899*
X192648Y150659*
Y144753*
X192688Y144504*
G37*
G36*
Y157102D02*
G01X192803Y156878D01*
X192983Y156700*
X193209Y156588*
X193448Y156551*
X193449*
X200141*
X200142*
X200391Y156591*
X200615Y156706*
X200793Y156885*
X200905Y157111*
X200942Y157351*
Y158304*
X201867*
X201920Y158251*
X202023Y157816*
X202201Y157406*
X202449Y157035*
X202760Y156714*
X203123Y156453*
X203526Y156261*
X203957Y156144*
X204395Y156105*
X204413*
X204858Y156148*
X205288Y156270*
X205689Y156466*
X206049Y156731*
X206356Y157055*
X206601Y157429*
X206775Y157840*
X206873Y158276*
X206887Y158405*
X206893Y158505*
X206894Y158555*
X206895Y158605*
X206855Y159050*
X206736Y159481*
X206543Y159883*
X206281Y160245*
X205959Y160555*
X205587Y160802*
X205177Y160979*
X204811Y161070*
X204748Y161081*
X203524Y162304*
X200942*
Y163257*
X200902Y163506*
X200787Y163730*
X200607Y163908*
X200381Y164020*
X200142Y164057*
X200141*
X193449*
X193448*
X193199Y164017*
X192975Y163902*
X192797Y163723*
X192685Y163497*
X192648Y163257*
Y157351*
X192688Y157102*
G37*
G36*
X199310Y132578D02*
G01X199426Y132321D01*
X199610Y132106*
X199846Y131952*
X200116Y131869*
X200271Y131857*
X206255*
X206534Y131897*
X206791Y132013*
X207006Y132196*
X207160Y132432*
X207243Y132702*
X207255Y132857*
Y138841*
X207215Y139120*
X207099Y139377*
X206916Y139592*
X206680Y139746*
X206410Y139829*
X206255Y139841*
X200271*
X199992Y139801*
X199734Y139685*
X199520Y139502*
X199365Y139266*
X199282Y138997*
X199270Y138841*
Y132857*
X199310Y132578*
G37*
G36*
Y235200D02*
G01X199426Y234943D01*
X199610Y234728*
X199846Y234574*
X200116Y234491*
X200271Y234479*
X206255*
X206534Y234519*
X206791Y234635*
X207006Y234818*
X207160Y235054*
X207243Y235324*
X207255Y235479*
Y241463*
X207215Y241742*
X207099Y241999*
X206916Y242214*
X206680Y242368*
X206410Y242451*
X206255Y242463*
X200271*
X199992Y242423*
X199734Y242307*
X199520Y242124*
X199365Y241888*
X199282Y241619*
X199270Y241463*
Y235479*
X199310Y235200*
G37*
G36*
X200834Y181597D02*
G01X200953Y181045D01*
X201148Y180515*
X201417Y180018*
X201753Y179564*
X202150Y179162*
X202599Y178820*
X203092Y178545*
X203619Y178342*
X204170Y178215*
X204786Y178168*
X205349Y178208*
X205901Y178327*
X206431Y178522*
X206928Y178791*
X207382Y179127*
X207784Y179524*
X208126Y179973*
X208401Y180466*
X208604Y180993*
X208731Y181544*
X208778Y182160*
X208738Y182723*
X208619Y183275*
X208424Y183805*
X208155Y184302*
X207819Y184756*
X207422Y185158*
X206973Y185500*
X206480Y185775*
X205953Y185978*
X205402Y186105*
X204786Y186152*
X204223Y186112*
X203671Y185993*
X203141Y185798*
X202644Y185529*
X202190Y185193*
X201788Y184796*
X201446Y184347*
X201171Y183854*
X200968Y183327*
X200841Y182776*
X200794Y182160*
X200834Y181597*
G37*
G36*
Y191597D02*
G01X200953Y191045D01*
X201148Y190515*
X201417Y190018*
X201753Y189564*
X202150Y189162*
X202599Y188820*
X203092Y188545*
X203619Y188342*
X204170Y188215*
X204786Y188168*
X205349Y188208*
X205901Y188327*
X206431Y188522*
X206928Y188791*
X207382Y189127*
X207784Y189524*
X208126Y189973*
X208401Y190466*
X208604Y190993*
X208731Y191544*
X208778Y192160*
X208738Y192723*
X208619Y193275*
X208424Y193805*
X208155Y194302*
X207819Y194756*
X207422Y195158*
X206973Y195500*
X206480Y195775*
X205953Y195978*
X205402Y196105*
X204786Y196152*
X204223Y196112*
X203671Y195993*
X203141Y195798*
X202644Y195529*
X202190Y195193*
X201788Y194796*
X201446Y194347*
X201171Y193854*
X200968Y193327*
X200841Y192776*
X200794Y192160*
X200834Y191597*
G37*
G36*
X201334Y171633D02*
G01X201452Y171119D01*
X201648Y170628*
X201915Y170172*
X202247Y169762*
X202638Y169406*
X203078Y169114*
X203557Y168891*
X204064Y168743*
X204587Y168673*
X204786Y168668*
X205313Y168708*
X205827Y168826*
X206318Y169022*
X206774Y169289*
X207184Y169621*
X207540Y170012*
X207832Y170452*
X208055Y170931*
X208203Y171438*
X208273Y171961*
X208278Y172160*
X208238Y172687*
X208120Y173201*
X207924Y173692*
X207657Y174148*
X207325Y174558*
X206934Y174914*
X206494Y175206*
X206015Y175429*
X205508Y175577*
X204985Y175647*
X204786Y175652*
X204259Y175612*
X203745Y175494*
X203254Y175298*
X202798Y175031*
X202388Y174699*
X202032Y174308*
X201740Y173868*
X201517Y173389*
X201369Y172882*
X201299Y172359*
X201294Y172160*
X201334Y171633*
G37*
G36*
X7077Y168663D02*
G01X7192Y168439D01*
X7372Y168261*
X7598Y168149*
X7838Y168112*
X15318*
X15567Y168152*
X15791Y168267*
X15969Y168446*
X16081Y168672*
X16118Y168912*
Y181530*
X16078Y181779*
X15963Y182003*
X15784Y182181*
X15558Y182293*
X15318Y182330*
X7838*
X7589Y182291*
X7364Y182176*
X7187Y181996*
X7074Y181771*
X7037Y181530*
Y168912*
X7077Y168663*
G37*
%LPD*%
G36*
X22300Y70000D02*
G01Y75000D01*
X23700Y76400*
X33500*
X34700Y75200*
Y68000*
X32900Y66200*
X30700*
X30400Y65900*
X30150*
G03X29350Y65100I0J-800*
G01Y64850*
X27800Y63300*
X25272*
Y64961*
G03X24772Y65461I-500J0*
G01X22400*
Y69900*
X22300Y70000*
G37*
G36*
X192800Y74100D02*
G01Y90100D01*
X193900Y91200*
X203500*
X209700Y85000*
Y70200*
X209200Y69700*
X201500*
X199100Y72100*
X198284*
Y72322*
X198289Y72343*
G03X198300Y72447I-490J104*
G01Y72450*
Y75450*
G03X197800Y75950I-500J0*
G01X194600*
G03X194100Y75450I0J-500*
G01Y73766*
G02X193869Y73403I-400J0*
X193417Y73483I-169J363*
G01X192800Y74100*
G37*
G36*
X78400Y73121D02*
G01Y78636D01*
G02X78696Y79022I400J0*
X79139Y78848I104J-386*
G03X84438Y78106I2961J1852*
X85592Y80700I-2338J2594*
X84249Y83453I-3492J0*
X79139Y82552I-2149J-2753*
G02X78683Y82382I-339J212*
X78400Y82764I117J382*
G01Y88636*
G02X78696Y89022I400J0*
X79139Y88848I104J-386*
G03X84438Y88106I2961J1852*
X85592Y90700I-2338J2594*
X84249Y93453I-3492J0*
X79139Y92552I-2149J-2753*
G02X78683Y92382I-339J212*
X78400Y92764I117J382*
G01Y94700*
X84279*
X86900Y92079*
Y74558*
X94480Y66978*
X93817Y66316*
X92733Y67400*
X91900*
G03X88400Y67900I-2000J-1500*
X87400Y65900I1500J-2000*
X87900Y64400I2500*
X91400Y63900I2000J1500*
G01X91576Y64045*
X91717Y64172*
X93720Y62170*
G03X94162Y61864I1061J1061*
G01X94196Y61849*
X94303Y61742*
G02X94362Y61600I-141J-142*
X94162Y61400I-200J0*
G01X90121*
X78400Y73121*
G37*
G36*
X38800Y77000D02*
G01Y83020D01*
Y83021*
G02X39400Y83367I400J0*
G03X39650Y83300I250J433*
G01X42650*
G03X43150Y83800I0J500*
G01Y87000*
G03X42650Y87500I-500J0*
G01X39650*
G03X39400Y87433I0J-500*
G02X38800Y87779I-200J346*
G01Y87780*
Y88100*
X39100Y88400*
X45100*
Y87472*
X44957Y87429*
G03X44600Y86950I143J-479*
G01Y83950*
G03X45100Y83450I500J0*
G01X48300*
G03X48800Y83950I0J500*
G01Y86950*
G03X48443Y87429I-500J0*
G01X48300Y87472*
Y88400*
X51800*
X58500Y95100*
X64900*
X66900Y93100*
Y76800*
X64900Y74800*
X41000*
X38800Y77000*
G37*
G36*
X22295Y198105D02*
G01Y203105D01*
X23695Y204505*
X33495*
X34695Y203305*
Y196105*
X32895Y194305*
X30695*
X30395Y194005*
X30145*
X29896Y193965*
X29672Y193850*
X29494Y193671*
X29382Y193445*
X29345Y193205*
Y192955*
X27795Y191405*
X25267*
Y193066*
X25227Y193261*
X25115Y193425*
X24947Y193532*
X24767Y193566*
X22395*
Y198005*
X22295Y198105*
G37*
G36*
X192795Y202205D02*
G01Y218205D01*
X193895Y219305*
X203495*
X209695Y213105*
Y198305*
X209195Y197805*
X201495*
X199095Y200205*
X198279*
Y200427*
X198284Y200448*
X198292Y200500*
X198295Y200552*
Y200555*
Y203555*
X198255Y203750*
X198143Y203914*
X197975Y204021*
X197795Y204055*
X194595*
X194400Y204015*
X194236Y203903*
X194129Y203735*
X194095Y203555*
Y201871*
X194084Y201777*
X194004Y201618*
X193864Y201508*
X193739Y201473*
X193563Y201493*
X193412Y201588*
X192795Y202205*
G37*
G36*
X78395Y201226D02*
G01Y206741D01*
X78429Y206901*
X78534Y207044*
X78691Y207127*
X78841Y207138*
X79009Y207079*
X79134Y206953*
X79447Y206528*
X79821Y206154*
X80247Y205842*
X80715Y205597*
X81214Y205425*
X81734Y205331*
X82262Y205317*
X82786Y205382*
X83295Y205525*
X83775Y205743*
X84218Y206032*
X84433Y206211*
X84798Y206593*
X85100Y207026*
X85334Y207499*
X85494Y208003*
X85576Y208524*
X85587Y208805*
X85548Y209332*
X85429Y209846*
X85233Y210337*
X84966Y210793*
X84634Y211203*
X84244Y211558*
X83804Y211851*
X83325Y212074*
X82818Y212222*
X82295Y212292*
X81767Y212282*
X81246Y212193*
X80745Y212026*
X80275Y211786*
X79846Y211477*
X79469Y211107*
X79134Y210657*
X79021Y210539*
X78855Y210474*
X78678Y210487*
X78545Y210557*
X78435Y210696*
X78395Y210869*
Y216741*
X78429Y216901*
X78534Y217044*
X78691Y217127*
X78841Y217138*
X79009Y217079*
X79134Y216953*
X79447Y216528*
X79821Y216154*
X80247Y215842*
X80715Y215597*
X81214Y215425*
X81734Y215331*
X82262Y215317*
X82786Y215382*
X83295Y215525*
X83775Y215743*
X84218Y216032*
X84433Y216211*
X84798Y216593*
X85100Y217026*
X85334Y217499*
X85494Y218003*
X85576Y218524*
X85587Y218805*
X85548Y219332*
X85429Y219846*
X85233Y220337*
X84966Y220793*
X84634Y221203*
X84244Y221558*
X83804Y221851*
X83325Y222074*
X82818Y222222*
X82295Y222292*
X81767Y222282*
X81246Y222193*
X80745Y222026*
X80275Y221786*
X79846Y221477*
X79469Y221107*
X79134Y220657*
X79021Y220539*
X78855Y220474*
X78678Y220487*
X78545Y220557*
X78435Y220696*
X78395Y220869*
Y222805*
X84274*
X86895Y220184*
Y202663*
X94475Y195083*
X93812Y194421*
X92728Y195505*
X91895*
X91596Y195837*
X91243Y196111*
X90846Y196317*
X90420Y196449*
X89976Y196504*
X89530Y196478*
X89096Y196374*
X88687Y196194*
X88395Y196005*
X88063Y195706*
X87789Y195353*
X87583Y194957*
X87451Y194530*
X87396Y194086*
X87395Y194005*
X87435Y193560*
X87553Y193129*
X87747Y192726*
X87895Y192505*
X88194Y192173*
X88547Y191899*
X88943Y191693*
X89370Y191561*
X89814Y191506*
X90260Y191532*
X90694Y191636*
X91103Y191816*
X91395Y192005*
X91571Y192150*
X91712Y192277*
X93715Y190275*
X93986Y190060*
X94157Y189969*
X94191Y189954*
X94298Y189847*
X94318Y189824*
X94357Y189705*
X94348Y189646*
X94276Y189544*
X94157Y189505*
X90116*
X78395Y201226*
G37*
G36*
X38795Y205105D02*
G01Y211125D01*
Y211126*
X38813Y211244*
X38902Y211398*
X39049Y211498*
X39225Y211524*
X39395Y211472*
X39584Y211409*
X39645Y211405*
X42645*
X42840Y211445*
X43004Y211557*
X43111Y211725*
X43145Y211905*
Y215105*
X43105Y215300*
X42993Y215464*
X42825Y215571*
X42645Y215605*
X39645*
X39450Y215565*
X39395Y215538*
X39283Y215494*
X39105*
X38945Y215572*
X38835Y215711*
X38795Y215884*
Y215885*
Y216205*
X39095Y216505*
X45095*
Y215577*
X44952Y215534*
X44776Y215440*
X44651Y215286*
X44597Y215094*
X44595Y215055*
Y212055*
X44635Y211860*
X44747Y211696*
X44915Y211589*
X45095Y211555*
X48295*
X48490Y211595*
X48654Y211707*
X48761Y211875*
X48795Y212055*
Y215055*
X48755Y215250*
X48643Y215414*
X48475Y215521*
X48438Y215534*
X48295Y215577*
Y216505*
X51795*
X58495Y223205*
X64895*
X66895Y221205*
Y204905*
X64895Y202905*
X40995*
X38795Y205105*
G37*
%LPC*%
G36*
X201799Y70563D02*
G01X207783D01*
G03X208284Y71063I1J500*
G01Y77047*
G03X207783Y77547I-501J-1*
G01X201799*
G03X201299Y77047I0J-500*
G01Y71063*
G03X201799Y70563I500J0*
G37*
G36*
X196054Y81548D02*
G01X202746D01*
G03X203247Y82048I1J500*
G01Y87954*
G03X202746Y88454I-501J-1*
G01X196054*
G03X195553Y87954I-1J-500*
G01Y82048*
G03X196054Y81548I501J1*
G37*
G36*
X61901Y87213D02*
G03X65592Y90700I199J3487D01*
X62299Y94187I-3492J0*
X58608Y90700I-199J-3487*
X61901Y87213I3492J0*
G37*
G36*
X59108Y77208D02*
G01X65092D01*
G03X65592Y77708I0J500*
G01Y83692*
G03X65092Y84192I-500J0*
G01X59108*
G03X58608Y83692I0J-500*
G01Y77708*
G03X59108Y77208I500J0*
G37*
G36*
X201334Y198973D02*
G01X201446Y198809D01*
X201614Y198702*
X201794Y198668*
X207778*
X207973Y198707*
X208137Y198819*
X208245Y198987*
X208279Y199168*
Y205152*
X208239Y205347*
X208126Y205511*
X207959Y205618*
X207778Y205652*
X201794*
X201599Y205612*
X201435Y205500*
X201328Y205332*
X201294Y205152*
Y199168*
X201334Y198973*
G37*
G36*
X195588Y209958D02*
G01X195701Y209794D01*
X195868Y209687*
X196049Y209653*
X202741*
X202936Y209692*
X203100Y209804*
X203208Y209972*
X203242Y210153*
Y216059*
X203202Y216254*
X203089Y216418*
X202922Y216525*
X202741Y216559*
X196049*
X195854Y216520*
X195690Y216408*
X195582Y216240*
X195548Y216059*
Y210153*
X195588Y209958*
G37*
G36*
X58643Y218278D02*
G01X58761Y217764D01*
X58957Y217273*
X59224Y216817*
X59556Y216407*
X59947Y216051*
X60387Y215759*
X60866Y215536*
X61373Y215388*
X61896Y215318*
X62424Y215328*
X62945Y215418*
X63446Y215585*
X63916Y215825*
X64345Y216134*
X64722Y216504*
X65039Y216926*
X65289Y217392*
X65465Y217889*
X65565Y218408*
X65587Y218805*
X65547Y219332*
X65429Y219846*
X65233Y220337*
X64966Y220793*
X64634Y221203*
X64243Y221559*
X63803Y221851*
X63324Y222074*
X62817Y222222*
X62294Y222292*
X61766Y222282*
X61245Y222192*
X60744Y222025*
X60274Y221785*
X59845Y221476*
X59468Y221106*
X59151Y220684*
X58901Y220218*
X58725Y219721*
X58625Y219202*
X58603Y218805*
X58643Y218278*
G37*
G36*
Y205618D02*
G01X58755Y205454D01*
X58923Y205347*
X59103Y205313*
X65087*
X65282Y205353*
X65446Y205465*
X65553Y205633*
X65587Y205813*
Y211797*
X65547Y211992*
X65435Y212156*
X65267Y212263*
X65087Y212297*
X59103*
X58908Y212257*
X58744Y212145*
X58637Y211977*
X58603Y211797*
Y205813*
X58643Y205618*
G37*
%LPD*%
G54D70*
X13268Y7744D03*
Y110366D03*
X23268Y7744D03*
X33268D03*
X43268D03*
X23268Y110366D03*
X33268D03*
X43268D03*
X53268Y7744D03*
X63268D03*
X73268D03*
X72100Y90700D03*
X62100D03*
X72100Y80700D03*
X53268Y110366D03*
X63268D03*
X73268D03*
X83268Y7744D03*
X93268D03*
X103268D03*
X82100Y90700D03*
Y80700D03*
X83268Y110366D03*
X93268D03*
X103268D03*
X113268Y7744D03*
X123268D03*
X133268D03*
X113268Y110366D03*
X123268D03*
X133268D03*
X143268Y7744D03*
X153268D03*
X163268D03*
X143268Y110366D03*
X153268D03*
X163268D03*
X173268Y7744D03*
X183268D03*
X193268D03*
X173268Y110366D03*
X183268D03*
X193268D03*
X204791Y44055D03*
Y54055D03*
Y64055D03*
G54D52*
X108700Y40960D03*
X107308Y42352D03*
X105916Y43744D03*
X104524Y45136D03*
X103132Y46528D03*
X101740Y47920D03*
X100348Y49312D03*
X98956Y50704D03*
X97564Y52095D03*
X96172Y53487D03*
X94780Y54879D03*
X110092Y39568D03*
X124011Y72975D03*
X125403Y71583D03*
X126795Y70191D03*
X128187Y68799D03*
X129579Y67407D03*
X130971Y66015D03*
X132363Y64623D03*
X133755Y63231D03*
X118443Y78542D03*
X119836Y77150D03*
X121227Y75758D03*
X122619Y74366D03*
G54D58*
X11583Y47116D03*
Y70994D03*
G54D60*
X22114Y53937D03*
Y56496D03*
Y59055D03*
Y61614D03*
Y64173D03*
G54D49*
X94780Y63231D03*
X96172Y64623D03*
X97564Y66015D03*
X98956Y67407D03*
X100348Y68799D03*
X101740Y70191D03*
X103132Y71583D03*
X104524Y72975D03*
X105916Y74366D03*
X107308Y75758D03*
X108700Y77150D03*
X122619Y43744D03*
X121227Y42352D03*
X119836Y40960D03*
X118443Y39568D03*
X133755Y54879D03*
X132363Y53487D03*
X130971Y52095D03*
X129579Y50704D03*
X128187Y49312D03*
X126795Y47920D03*
X125403Y46528D03*
X124011Y45136D03*
X110092Y78542D03*
G54D16*
X20047Y51181D03*
Y66929D03*
G54D18*
X137326Y78426D03*
X136774Y86274D03*
X133026Y82526D03*
X141074Y82174D03*
G54D12*
X16000Y58000D03*
X19000Y77900D03*
X25000Y48000D03*
X28500Y69100D03*
X25300Y72600D03*
X31800D03*
X23000Y89800D03*
X42400Y80500D03*
Y76900D03*
X64700Y32800D03*
X55300Y85450D03*
X51100D03*
X53200Y81300D03*
X103700Y63300D03*
X89900Y65900D03*
X115050Y34850D03*
X114000Y44700D03*
X131124Y58624D03*
X116300Y71900D03*
X127900Y78200D03*
X143543Y53443D03*
X139600Y49600D03*
X142900Y88300D03*
X189800Y23550D03*
X204400Y30500D03*
G54D50*
X159449Y38583D03*
Y79528D03*
G54D14*
X31650Y57500D03*
X36950D03*
X31650Y63500D03*
X36950D03*
X41050Y95600D03*
X35750D03*
X41150Y85400D03*
X35850D03*
G54D57*
X196800Y32199D03*
Y19601D03*
X199400Y85001D03*
Y97599D03*
G54D59*
X187899Y69927D03*
X175301D03*
X187899Y48273D03*
X175301D03*
G54D13*
X42895Y62870D03*
Y59130D03*
X45000Y95000D03*
X76700Y65550D03*
X83400Y28600D03*
X108250Y22750D03*
X105400Y28000D03*
X108161Y54668D03*
X82400Y100900D03*
X118600Y26700D03*
X115650Y61950D03*
X112325Y54668D03*
X118000Y55100D03*
X134800Y74000D03*
X130476Y85076D03*
X139800Y64900D03*
X140300Y70600D03*
X159449Y62200D03*
Y56200D03*
X139652Y75900D03*
X175000Y64000D03*
X168073Y69927D03*
X193800Y97600D03*
X202701Y19601D03*
G54D19*
X46700Y85450D03*
Y90750D03*
X72200Y65550D03*
Y70850D03*
X196200Y68650D03*
Y73950D03*
G54D61*
X58139Y28600D03*
X88061D03*
G54D71*
X62100Y80700D03*
X203268Y7744D03*
X204791Y74055D03*
X203268Y110366D03*
G54D70*
X13263Y135849D03*
Y238471D03*
X23263Y135849D03*
X33263D03*
X43263D03*
X23263Y238471D03*
X33263D03*
X43263D03*
X53263Y135849D03*
X63263D03*
X73263D03*
X72095Y218805D03*
X62095D03*
X72095Y208805D03*
X53263Y238471D03*
X63263D03*
X73263D03*
X83263Y135849D03*
X93263D03*
X103263D03*
X82095Y218805D03*
Y208805D03*
X83263Y238471D03*
X93263D03*
X103263D03*
X113263Y135849D03*
X123263D03*
X133263D03*
X113263Y238471D03*
X123263D03*
X133263D03*
X143263Y135849D03*
X153263D03*
X163263D03*
X143263Y238471D03*
X153263D03*
X163263D03*
X173263Y135849D03*
X183263D03*
X193263D03*
X173263Y238471D03*
X183263D03*
X193263D03*
X204786Y172160D03*
Y182160D03*
Y192160D03*
G54D52*
X108695Y169065D03*
X107303Y170457D03*
X105911Y171849D03*
X104519Y173241D03*
X103127Y174633D03*
X101735Y176025D03*
X100343Y177417D03*
X98951Y178809D03*
X97559Y180200D03*
X96167Y181592D03*
X94775Y182984D03*
X110087Y167673D03*
X124006Y201080D03*
X125398Y199688D03*
X126790Y198296D03*
X128182Y196904D03*
X129574Y195512D03*
X130966Y194120D03*
X132358Y192728D03*
X133750Y191336D03*
X118438Y206647D03*
X119831Y205255D03*
X121222Y203863D03*
X122614Y202471D03*
G54D58*
X11578Y175221D03*
Y199099D03*
G54D60*
X22109Y182042D03*
Y184601D03*
Y187160D03*
Y189719D03*
Y192278D03*
G54D49*
X94775Y191336D03*
X96167Y192728D03*
X97559Y194120D03*
X98951Y195512D03*
X100343Y196904D03*
X101735Y198296D03*
X103127Y199688D03*
X104519Y201080D03*
X105911Y202471D03*
X107303Y203863D03*
X108695Y205255D03*
X122614Y171849D03*
X121222Y170457D03*
X119831Y169065D03*
X118438Y167673D03*
X133750Y182984D03*
X132358Y181592D03*
X130966Y180200D03*
X129574Y178809D03*
X128182Y177417D03*
X126790Y176025D03*
X125398Y174633D03*
X124006Y173241D03*
X110087Y206647D03*
G54D16*
X20042Y179286D03*
Y195034D03*
G54D18*
X137321Y206531D03*
X136769Y214379D03*
X133021Y210631D03*
X141069Y210279D03*
G54D12*
X15995Y186105D03*
X18995Y206005D03*
X24995Y176105D03*
X28495Y197205D03*
X25295Y200705D03*
X31795D03*
X22995Y217905D03*
X42395Y208605D03*
Y205005D03*
X64695Y160905D03*
X55295Y213555D03*
X51095D03*
X53195Y209405D03*
X103695Y191405D03*
X89895Y194005D03*
X115045Y162955D03*
X113995Y172805D03*
X131119Y186729D03*
X116295Y200005D03*
X127895Y206305D03*
X143538Y181548D03*
X139595Y177705D03*
X142895Y216405D03*
X189795Y151655D03*
X204395Y158605D03*
G54D50*
X159444Y166688D03*
Y207633D03*
G54D14*
X31645Y185605D03*
X36945D03*
X31645Y191605D03*
X36945D03*
X41045Y223705D03*
X35745D03*
X41145Y213505D03*
X35845D03*
G54D57*
X196795Y160304D03*
Y147706D03*
X199395Y213106D03*
Y225704D03*
G54D59*
X187894Y198032D03*
X175296D03*
X187894Y176378D03*
X175296D03*
G54D13*
X42890Y190975D03*
Y187235D03*
X44995Y223105D03*
X76695Y193655D03*
X83395Y156705D03*
X108245Y150855D03*
X105395Y156105D03*
X108156Y182773D03*
X82395Y229005D03*
X118595Y154805D03*
X115645Y190055D03*
X112320Y182773D03*
X117995Y183205D03*
X134795Y202105D03*
X130471Y213181D03*
X139795Y193005D03*
X140295Y198705D03*
X159444Y190305D03*
Y184305D03*
X139647Y204005D03*
X174995Y192105D03*
X168068Y198032D03*
X193795Y225705D03*
X202696Y147706D03*
G54D19*
X46695Y213555D03*
Y218855D03*
X72195Y193655D03*
Y198955D03*
X196195Y196755D03*
Y202055D03*
G54D61*
X58134Y156705D03*
X88056D03*
G54D71*
X62095Y208805D03*
X203263Y135849D03*
X204786Y202160D03*
X203263Y238471D03*
G54D102*
X50000Y266220D03*
Y-20000D03*
X166535D03*
G54D11*
X0Y0D02*
G01X216535D01*
Y118110*
X0*
Y0*
G54D20*
X36950Y63500D02*
G01X38827Y61623D01*
X42095*
X42895Y62424*
Y62870*
Y59130D02*
G01Y59323D01*
X42095Y60123*
X39573*
X36950Y57500*
X22114Y61614D02*
G01X24486D01*
X25015Y61085*
X29235*
X31650Y63500*
X22114Y59055D02*
G01X24455D01*
X24985Y59585*
X29565*
X31650Y57500*
X104524Y45136D02*
G01X101565Y42177D01*
Y41846*
X94100Y34380*
Y22100*
X87600Y15600*
Y8600*
X86744Y7744*
X83268*
X93268D02*
G01X89900D01*
X89100Y8544*
Y14979*
X95600Y21479*
Y33759*
X102626Y40785*
X102957*
X105916Y43744*
X108161Y54668D02*
G01X109493Y53335D01*
Y52204*
X109400Y52111*
Y49680*
X107814Y48094*
X107483*
X104524Y45136*
X112325Y54668D02*
G01X110993Y53336D01*
Y51583*
X110900Y51490*
Y49059*
X108875Y47034*
Y46703*
X105916Y43744*
G54D21*
X94780Y54879D02*
G01X92403Y52502D01*
X53102*
X13268Y12668*
Y7744*
X96172Y53487D02*
G01X93085Y50400D01*
X57900*
X23268Y15768*
Y7744*
X97564Y52095D02*
G01X93669Y48200D01*
X62700*
X33268Y18768*
Y7744*
X98956Y50704D02*
G01X94353Y46100D01*
X66800*
X43268Y22568*
Y7744*
Y110366D02*
G01X53934Y99700D01*
X71400*
X76900Y94200*
Y72500*
X89500Y59900*
X113600*
X115650Y61950*
X100348Y49312D02*
G01X94937Y43900D01*
X82600*
X72300Y33600*
Y26776*
X53268Y7744*
X101740Y47920D02*
G01X95721Y41900D01*
X84200*
X75500Y33200*
Y19976*
X63268Y7744*
X103132Y46528D02*
G01X96105Y39500D01*
X86200*
X79600Y32900*
Y14076*
X73268Y7744*
X76700Y65550D02*
G01X72200D01*
X72100Y80700D02*
G01Y76708D01*
X72200Y76608*
Y70850*
X98956Y67407D02*
G01X90300Y76063D01*
Y94700*
X86800Y98200*
X80600*
X73800Y105000*
X68634*
X63268Y110366*
X97564Y66015D02*
G01X88400Y75179D01*
Y92700*
X84900Y96200*
X78800*
X72400Y102600*
X61034*
X53268Y110366*
X101740Y70191D02*
G01X94400Y77531D01*
Y99400*
X90300Y103500*
X80134*
X73268Y110366*
X93268Y7744D02*
G01X108250Y22726D01*
Y22750*
X119836Y40960D02*
G01X123000Y37795D01*
Y27476*
X103268Y7744*
X88061Y28600D02*
G01X83400D01*
X107308Y42352D02*
G01X105300Y40344D01*
Y30200*
X105400Y30100*
Y28000*
X96172Y64623D02*
G01X93195Y67600D01*
X103700Y63300D02*
G01X100295D01*
X98895Y61900*
Y61900D02*
G01X96172Y64623D01*
X94780Y63231D02*
G01X92111Y65900D01*
X89900*
X103132Y71583D02*
G01X96700Y78015D01*
Y101200*
X92200Y105700*
X87934*
X83268Y110366*
X100348Y68799D02*
G01X92400Y76747D01*
Y96700*
X88200Y100900*
X82400*
X108700Y77150D02*
G01X105100Y80750D01*
Y92198*
X123268Y110366*
X107308Y75758D02*
G01X103300Y79766D01*
Y94300*
X113268Y104268*
Y110366*
X105916Y74366D02*
G01X101300Y78983D01*
Y102200*
X103268Y104168*
Y110366*
X104524Y72975D02*
G01X98900Y78599D01*
Y104734*
X93268Y110366*
X121227Y42352D02*
G01X125100Y38479D01*
Y19576*
X113268Y7744*
X122619Y43744D02*
G01X127500Y38863D01*
Y11976*
X123268Y7744*
X124011Y45136D02*
G01X130445Y38702D01*
Y10567*
X133268Y7744*
X112440Y44700D02*
G01X108700Y40960D01*
X110092Y39568D02*
G01X111860Y37800D01*
X118443Y39568D02*
G01X120821Y37190D01*
Y28921*
X118600Y26700*
X125403Y46528D02*
G01X133000Y38931D01*
Y18012*
X143268Y7744*
X126795Y47920D02*
G01X135300Y39415D01*
Y25712*
X153268Y7744*
X143543Y53443D02*
G01X133755Y63231D01*
X132363Y64623D02*
G01X134840Y67100D01*
X137600*
X139800Y64900*
X130971Y66015D02*
G01X135556Y70600D01*
X140300*
X129579Y67407D02*
G01X133315Y71143D01*
Y72515*
X134800Y74000*
X128187Y68799D02*
G01X131100Y71712D01*
Y73800*
X133958Y76658*
X135558*
X137326Y78426*
X126795Y70191D02*
G01Y70195D01*
X129000Y72400*
Y74400*
X133097Y78497*
Y82455*
X133026Y82526*
X125403Y71583D02*
G01X119706Y65885D01*
X119585*
X115650Y61950*
X124011Y72975D02*
G01X120537Y69500D01*
X114000Y44700D02*
G01X112440D01*
X139600Y49600D02*
G01X136250D01*
X127000Y58300D02*
G01X129435Y55865D01*
X129986*
Y55865D02*
G01X132363Y53487D01*
X136250Y49600D02*
G01X132363Y53487D01*
X133755Y54879D02*
G01X131124Y57510D01*
Y58624*
X122619Y74366D02*
G01X120153Y71900D01*
X116300*
X128187Y49312D02*
G01X125810Y51689D01*
X125711*
X122300Y55100*
X118000*
X129579Y50704D02*
G01X138700Y41583D01*
Y32312*
X163268Y7744*
X130971Y52095D02*
G01X141400Y41666D01*
Y34300*
X161500Y14200*
X166812*
X173268Y7744*
X133026Y82526D02*
G01X130476Y85076D01*
X127900Y78200D02*
G01Y76863D01*
Y76863D02*
G01X124011Y72975D01*
X121227Y75758D02*
G01X125000Y79531D01*
Y88900*
X131900Y95800*
X148702*
X163268Y110366*
X119836Y77150D02*
G01X123000Y80315D01*
Y91300*
X129800Y98100*
X141002*
X153268Y110366*
X118443Y78542D02*
G01X120821Y80920D01*
Y93121*
X128000Y100300*
X133202*
X143268Y110366*
X110092Y78542D02*
G01X107714Y80920D01*
Y88314*
X124300Y104900*
X127802*
X133268Y110366*
X159449Y38583D02*
G01Y56200D01*
Y79528D02*
G01Y62200D01*
X137326Y78426D02*
G01X139652Y76100D01*
Y75900*
X175000Y64000D02*
G01X180791D01*
X186718Y69927*
Y69927D02*
G01X187899D01*
X183268Y110366D02*
G01X187400Y106234D01*
Y70609*
X186718Y69927*
X168073D02*
G01X175301D01*
X173268Y110366D02*
G01X179748Y103886D01*
Y73193*
X176482Y69927*
X175301*
X199400Y97599D02*
G01X193801D01*
X193800Y97600*
X196800Y19601D02*
G01X202701D01*
G54D22*
X19575Y110366D02*
G01X23268D01*
X13268Y106674D02*
G01Y110366D01*
Y110366D02*
G01Y114058D01*
X9575Y110366D02*
G01X13268D01*
Y110366D02*
G01X16960D01*
X44400Y90750D02*
G01X46700D01*
Y90750D02*
G01X49000D01*
X35850Y83100D02*
G01Y85400D01*
Y85400D02*
G01Y87700D01*
X33650Y85400D02*
G01X35850D01*
X35750Y93300D02*
G01Y95600D01*
Y95600D02*
G01Y97900D01*
X33550Y95600D02*
G01X35750D01*
X46700Y85450D02*
G01X51100D01*
X46700D02*
G01Y81900D01*
X41150Y85400D02*
G01Y87550D01*
Y85400D02*
G01X41200Y85450D01*
X46700*
X41150Y85400D02*
G01Y81750D01*
Y81750D02*
G01X42400Y80500D01*
X41050Y95600D02*
G01X44400D01*
X45000Y95000*
X23268Y106674D02*
G01Y110366D01*
Y110366D02*
G01Y114058D01*
Y110366D02*
G01X26960D01*
X64700Y32800D02*
G01Y31200D01*
X62100Y28600*
Y28600D02*
G01X58139D01*
Y25931D02*
G01Y28600D01*
Y28600D02*
G01Y31269D01*
X55077Y28600D02*
G01X58139D01*
X62100Y77008D02*
G01Y80700D01*
Y80700D02*
G01Y84392D01*
X58408Y80700D02*
G01X62100D01*
Y80700D02*
G01X65792D01*
X62100Y87008D02*
G01Y90700D01*
X58408D02*
G01X62100D01*
Y90700D02*
G01X65792D01*
X82100Y77008D02*
G01Y80700D01*
Y80700D02*
G01Y84392D01*
Y80700D02*
G01X85792D01*
X82100Y87008D02*
G01Y90700D01*
Y90700D02*
G01X85792D01*
X111860Y37800D02*
G01X114810Y34850D01*
X115050*
X138800Y88300D02*
G01X136774Y86274D01*
X135147Y87900D02*
G01X136774Y86274D01*
Y86274D02*
G01X138400Y84647D01*
X142900Y88300D02*
G01X138800D01*
X142900D02*
G01Y84000D01*
Y84000D02*
G01X141074Y82174D01*
X139447Y83800D02*
G01X141074Y82174D01*
Y82174D02*
G01X142700Y80547D01*
X193268Y4052D02*
G01Y7744D01*
Y7744D02*
G01Y11436D01*
X189575Y7744D02*
G01X193268D01*
Y7744D02*
G01X196960D01*
X193900Y68650D02*
G01X196200D01*
X195353Y85001D02*
G01X199400D01*
X204791Y40363D02*
G01Y44055D01*
X196800Y32199D02*
G01X202701D01*
X204400Y30500*
X204791Y44055D02*
G01Y47748D01*
X201099Y44055D02*
G01X204791D01*
Y44055D02*
G01X208484D01*
X196200Y66450D02*
G01Y68650D01*
Y68650D02*
G01X198500D01*
X199400Y80150D02*
G01Y85001D01*
X196200Y73950D02*
G01Y76950D01*
Y73950D02*
G01X200194D01*
Y73950D02*
G01X200299Y74055D01*
Y74055D02*
G01X204791D01*
X199400Y85001D02*
G01Y88654D01*
Y85001D02*
G01X203447D01*
X204791Y74055D02*
G01Y77748D01*
Y74055D02*
G01X208484D01*
G54D62*
X22114Y53937D02*
G01X17463D01*
X16000Y58000D02*
G01X17504Y56496D01*
Y56496D02*
G01X22114D01*
Y56496D02*
G01Y53937D01*
Y53937D02*
G01X26637D01*
X22114Y56496D02*
G01X27004D01*
X22114Y53937D02*
G01Y53486D01*
X25000Y50600*
Y50600D02*
G01Y48000D01*
X26573Y64173D02*
G01X23573D01*
X28500Y69100D02*
G01X26555Y67155D01*
Y67155D02*
G01X23573Y64173D01*
Y64173D02*
G01X22114D01*
X25055Y67155D02*
G01X22114Y64214D01*
Y64173*
X26555Y67155D02*
G01X25055D01*
G54D11*
X-5Y128105D02*
G01X216530D01*
Y246215*
X-5*
Y128105*
G54D20*
X36945Y191605D02*
G01X38822Y189728D01*
X42090*
X42890Y190529*
Y190975*
Y187235D02*
G01Y187428D01*
X42090Y188228*
X39568*
X36945Y185605*
X22109Y189719D02*
G01X24481D01*
X25010Y189190*
X29230*
X31645Y191605*
X22109Y187160D02*
G01X24450D01*
X24980Y187690*
X29560*
X31645Y185605*
X104519Y173241D02*
G01X101560Y170282D01*
Y169951*
X94095Y162485*
Y150205*
X87595Y143705*
Y136705*
X86739Y135849*
X83263*
X93263D02*
G01X89895D01*
X89095Y136649*
Y143084*
X95595Y149584*
Y161864*
X102621Y168890*
X102952*
X105911Y171849*
X108156Y182773D02*
G01X109488Y181440D01*
Y180309*
X109395Y180216*
Y177785*
X107809Y176199*
X107478*
X104519Y173241*
X112320Y182773D02*
G01X110988Y181441D01*
Y179688*
X110895Y179595*
Y177164*
X108870Y175139*
Y174808*
X105911Y171849*
G54D21*
X94775Y182984D02*
G01X92398Y180607D01*
X53097*
X13263Y140773*
Y135849*
X96167Y181592D02*
G01X93080Y178505D01*
X57895*
X23263Y143873*
Y135849*
X97559Y180200D02*
G01X93664Y176305D01*
X62695*
X33263Y146873*
Y135849*
X98951Y178809D02*
G01X94348Y174205D01*
X66795*
X43263Y150673*
Y135849*
Y238471D02*
G01X53929Y227805D01*
X71395*
X76895Y222305*
Y200605*
X89495Y188005*
X113595*
X115645Y190055*
X100343Y177417D02*
G01X94932Y172005D01*
X82595*
X72295Y161705*
Y154881*
X53263Y135849*
X101735Y176025D02*
G01X95716Y170005D01*
X84195*
X75495Y161305*
Y148081*
X63263Y135849*
X103127Y174633D02*
G01X96100Y167605D01*
X86195*
X79595Y161005*
Y142181*
X73263Y135849*
X76695Y193655D02*
G01X72195D01*
X72095Y208805D02*
G01Y204813D01*
X72195Y204713*
Y198955*
X98951Y195512D02*
G01X90295Y204168D01*
Y222805*
X86795Y226305*
X80595*
X73795Y233105*
X68629*
X63263Y238471*
X97559Y194120D02*
G01X88395Y203284D01*
Y220805*
X84895Y224305*
X78795*
X72395Y230705*
X61029*
X53263Y238471*
X101735Y198296D02*
G01X94395Y205636D01*
Y227505*
X90295Y231605*
X80129*
X73263Y238471*
X93263Y135849D02*
G01X108245Y150831D01*
Y150855*
X119831Y169065D02*
G01X122995Y165900D01*
Y155581*
X103263Y135849*
X88056Y156705D02*
G01X83395D01*
X107303Y170457D02*
G01X105295Y168449D01*
Y158305*
X105395Y158205*
Y156105*
X96167Y192728D02*
G01X93190Y195705D01*
X103695Y191405D02*
G01X100290D01*
X98890Y190005*
Y190005D02*
G01X96167Y192728D01*
X94775Y191336D02*
G01X92106Y194005D01*
X89895*
X103127Y199688D02*
G01X96695Y206120D01*
Y229305*
X92195Y233805*
X87929*
X83263Y238471*
X100343Y196904D02*
G01X92395Y204852D01*
Y224805*
X88195Y229005*
X82395*
X108695Y205255D02*
G01X105095Y208855D01*
Y220303*
X123263Y238471*
X107303Y203863D02*
G01X103295Y207871D01*
Y222405*
X113263Y232373*
Y238471*
X105911Y202471D02*
G01X101295Y207088D01*
Y230305*
X103263Y232273*
Y238471*
X104519Y201080D02*
G01X98895Y206704D01*
Y232839*
X93263Y238471*
X121222Y170457D02*
G01X125095Y166584D01*
Y147681*
X113263Y135849*
X122614Y171849D02*
G01X127495Y166968D01*
Y140081*
X123263Y135849*
X124006Y173241D02*
G01X130440Y166807D01*
Y138672*
X133263Y135849*
X112435Y172805D02*
G01X108695Y169065D01*
X110087Y167673D02*
G01X111855Y165905D01*
X118438Y167673D02*
G01X120816Y165295D01*
Y157026*
X118595Y154805*
X125398Y174633D02*
G01X132995Y167036D01*
Y146117*
X143263Y135849*
X126790Y176025D02*
G01X135295Y167520D01*
Y153817*
X153263Y135849*
X143538Y181548D02*
G01X133750Y191336D01*
X132358Y192728D02*
G01X134835Y195205D01*
X137595*
X139795Y193005*
X130966Y194120D02*
G01X135551Y198705D01*
X140295*
X129574Y195512D02*
G01X133310Y199248D01*
Y200620*
X134795Y202105*
X128182Y196904D02*
G01X131095Y199817D01*
Y201905*
X133953Y204763*
X135553*
X137321Y206531*
X126790Y198296D02*
G01Y198300D01*
X128995Y200505*
Y202505*
X133092Y206602*
Y210560*
X133021Y210631*
X125398Y199688D02*
G01X119701Y193990D01*
X119580*
X115645Y190055*
X124006Y201080D02*
G01X120532Y197605D01*
X113995Y172805D02*
G01X112435D01*
X139595Y177705D02*
G01X136245D01*
X126995Y186405D02*
G01X129430Y183970D01*
X129981*
Y183970D02*
G01X132358Y181592D01*
X136245Y177705D02*
G01X132358Y181592D01*
X133750Y182984D02*
G01X131119Y185615D01*
Y186729*
X122614Y202471D02*
G01X120148Y200005D01*
X116295*
X128182Y177417D02*
G01X125805Y179794D01*
X125706*
X122295Y183205*
X117995*
X129574Y178809D02*
G01X138695Y169688D01*
Y160417*
X163263Y135849*
X130966Y180200D02*
G01X141395Y169771D01*
Y162405*
X161495Y142305*
X166807*
X173263Y135849*
X133021Y210631D02*
G01X130471Y213181D01*
X127895Y206305D02*
G01Y204968D01*
Y204968D02*
G01X124006Y201080D01*
X121222Y203863D02*
G01X124995Y207636D01*
Y217005*
X131895Y223905*
X148697*
X163263Y238471*
X119831Y205255D02*
G01X122995Y208420D01*
Y219405*
X129795Y226205*
X140997*
X153263Y238471*
X118438Y206647D02*
G01X120816Y209025D01*
Y221226*
X127995Y228405*
X133197*
X143263Y238471*
X110087Y206647D02*
G01X107709Y209025D01*
Y216419*
X124295Y233005*
X127797*
X133263Y238471*
X159444Y166688D02*
G01Y184305D01*
Y207633D02*
G01Y190305D01*
X137321Y206531D02*
G01X139647Y204205D01*
Y204005*
X174995Y192105D02*
G01X180786D01*
X186713Y198032*
Y198032D02*
G01X187894D01*
X183263Y238471D02*
G01X187395Y234339D01*
Y198714*
X186713Y198032*
X168068D02*
G01X175296D01*
X173263Y238471D02*
G01X179743Y231991D01*
Y201298*
X176477Y198032*
X175296*
X199395Y225704D02*
G01X193796D01*
X193795Y225705*
X196795Y147706D02*
G01X202696D01*
G54D22*
X19570Y238471D02*
G01X23263D01*
X13263Y234779D02*
G01Y238471D01*
Y238471D02*
G01Y242163D01*
X9570Y238471D02*
G01X13263D01*
Y238471D02*
G01X16955D01*
X44395Y218855D02*
G01X46695D01*
Y218855D02*
G01X48995D01*
X35845Y211205D02*
G01Y213505D01*
Y213505D02*
G01Y215805D01*
X33645Y213505D02*
G01X35845D01*
X35745Y221405D02*
G01Y223705D01*
Y223705D02*
G01Y226005D01*
X33545Y223705D02*
G01X35745D01*
X46695Y213555D02*
G01X51095D01*
X46695D02*
G01Y210005D01*
X41145Y213505D02*
G01Y215655D01*
Y213505D02*
G01X41195Y213555D01*
X46695*
X41145Y213505D02*
G01Y209855D01*
Y209855D02*
G01X42395Y208605D01*
X41045Y223705D02*
G01X44395D01*
X44995Y223105*
X23263Y234779D02*
G01Y238471D01*
Y238471D02*
G01Y242163D01*
Y238471D02*
G01X26955D01*
X64695Y160905D02*
G01Y159305D01*
X62095Y156705*
Y156705D02*
G01X58134D01*
Y154036D02*
G01Y156705D01*
Y156705D02*
G01Y159374D01*
X55072Y156705D02*
G01X58134D01*
X62095Y205113D02*
G01Y208805D01*
Y208805D02*
G01Y212497D01*
X58403Y208805D02*
G01X62095D01*
Y208805D02*
G01X65787D01*
X62095Y215113D02*
G01Y218805D01*
X58403D02*
G01X62095D01*
Y218805D02*
G01X65787D01*
X82095Y205113D02*
G01Y208805D01*
Y208805D02*
G01Y212497D01*
Y208805D02*
G01X85787D01*
X82095Y215113D02*
G01Y218805D01*
Y218805D02*
G01X85787D01*
X111855Y165905D02*
G01X114805Y162955D01*
X115045*
X138795Y216405D02*
G01X136769Y214379D01*
X135142Y216005D02*
G01X136769Y214379D01*
Y214379D02*
G01X138395Y212752D01*
X142895Y216405D02*
G01X138795D01*
X142895D02*
G01Y212105D01*
Y212105D02*
G01X141069Y210279D01*
X139442Y211905D02*
G01X141069Y210279D01*
Y210279D02*
G01X142695Y208652D01*
X193263Y132157D02*
G01Y135849D01*
Y135849D02*
G01Y139541D01*
X189570Y135849D02*
G01X193263D01*
Y135849D02*
G01X196955D01*
X193895Y196755D02*
G01X196195D01*
X195348Y213106D02*
G01X199395D01*
X204786Y168468D02*
G01Y172160D01*
X196795Y160304D02*
G01X202696D01*
X204395Y158605*
X204786Y172160D02*
G01Y175853D01*
X201094Y172160D02*
G01X204786D01*
Y172160D02*
G01X208479D01*
X196195Y194555D02*
G01Y196755D01*
Y196755D02*
G01X198495D01*
X199395Y208255D02*
G01Y213106D01*
X196195Y202055D02*
G01Y205055D01*
Y202055D02*
G01X200189D01*
Y202055D02*
G01X200294Y202160D01*
Y202160D02*
G01X204786D01*
X199395Y213106D02*
G01Y216759D01*
Y213106D02*
G01X203442D01*
X204786Y202160D02*
G01Y205853D01*
Y202160D02*
G01X208479D01*
G54D62*
X22109Y182042D02*
G01X17458D01*
X15995Y186105D02*
G01X17499Y184601D01*
Y184601D02*
G01X22109D01*
Y184601D02*
G01Y182042D01*
Y182042D02*
G01X26632D01*
X22109Y184601D02*
G01X26999D01*
X22109Y182042D02*
G01Y181591D01*
X24995Y178705*
Y178705D02*
G01Y176105D01*
X26568Y192278D02*
G01X23568D01*
X28495Y197205D02*
G01X26550Y195260D01*
Y195260D02*
G01X23568Y192278D01*
Y192278D02*
G01X22109D01*
X25050Y195260D02*
G01X22109Y192319D01*
Y192278*
X26550Y195260D02*
G01X25050D01*
G54D11*
X0Y0D02*
G01X216535D01*
Y118110*
X0*
Y0*
Y128110D02*
G01X216535D01*
Y246220*
X0*
Y128110*
X100179Y249443D02*
G01X100128Y249943D01*
X99997Y250428*
X99792Y250886*
X99517Y251305*
X99178Y251676*
X98785Y251988*
X98348Y252234*
X97877Y252408*
X97384Y252505*
X97025Y252525*
X46245*
X45745Y252485*
X45257Y252366*
X44794Y252172*
X44368Y251906*
X43990Y251576*
X43668Y251191*
X43412Y250759*
X43228Y250292*
X43120Y249802*
X43091Y249297*
X43142Y248797*
X43273Y248312*
X43478Y247854*
X43753Y247435*
X44092Y247064*
X44485Y246752*
X44922Y246506*
X45393Y246332*
X45886Y246235*
X46245Y246215*
X97025*
X97525Y246255*
X98013Y246374*
X98476Y246568*
X98902Y246834*
X99280Y247164*
X99602Y247549*
X99858Y247981*
X100042Y248448*
X100150Y248938*
X100179Y249443*
X173471D02*
G01X173420Y249943D01*
X173289Y250428*
X173084Y250886*
X172809Y251305*
X172470Y251676*
X172077Y251988*
X171640Y252234*
X171169Y252408*
X170676Y252505*
X170317Y252525*
X119325*
X118825Y252485*
X118337Y252366*
X117874Y252172*
X117448Y251906*
X117070Y251576*
X116748Y251191*
X116492Y250759*
X116308Y250292*
X116200Y249802*
X116171Y249297*
X116222Y248797*
X116353Y248312*
X116558Y247854*
X116833Y247435*
X117172Y247064*
X117565Y246752*
X118002Y246506*
X118473Y246332*
X118966Y246235*
X119325Y246215*
X170317*
X170817Y246255*
X171305Y246374*
X171768Y246568*
X172194Y246834*
X172572Y247164*
X172894Y247549*
X173150Y247981*
X173334Y248448*
X173442Y248938*
X173471Y249443*
X99667Y123251D02*
G01X99905Y123694D01*
X100069Y124168*
X100156Y124662*
X100163Y125164*
X100091Y125661*
X99941Y126140*
X99717Y126589*
X99424Y126997*
X99071Y127353*
X98665Y127649*
X98218Y127877*
X97740Y128031*
X97244Y128107*
X97015Y128115*
X46217*
X45717Y128075*
X45229Y127956*
X44766Y127762*
X44340Y127496*
X43962Y127166*
X43640Y126781*
X43384Y126349*
X43200Y125882*
X43092Y125392*
X43063Y124891*
X43114Y124391*
X43243Y123906*
X43448Y123448*
X43662Y123109*
X43401Y122680*
X43211Y122216*
X43098Y121727*
X43063Y121226*
X43109Y120726*
X43233Y120239*
X43432Y119779*
X43702Y119356*
X44036Y118981*
X44425Y118664*
X44860Y118412*
X45329Y118233*
X45820Y118130*
X46218Y118105*
X97220*
X97720Y118145*
X98208Y118264*
X98671Y118458*
X99097Y118724*
X99475Y119054*
X99797Y119439*
X100053Y119871*
X100237Y120338*
X100345Y120828*
X100374Y121329*
X100323Y121829*
X100194Y122314*
X99989Y122772*
X99714Y123192*
X99667Y123251*
X172873Y123111D02*
G01X173134Y123540D01*
X173324Y124004*
X173437Y124493*
X173472Y124994*
X173426Y125494*
X173302Y125981*
X173103Y126441*
X172833Y126864*
X172499Y127239*
X172110Y127556*
X171675Y127808*
X171206Y127987*
X170715Y128090*
X170317Y128115*
X119315*
X118815Y128075*
X118327Y127956*
X117864Y127762*
X117438Y127496*
X117060Y127166*
X116738Y126781*
X116482Y126349*
X116298Y125882*
X116190Y125392*
X116161Y124891*
X116212Y124391*
X116341Y123906*
X116546Y123448*
X116821Y123028*
X116868Y122969*
X116630Y122526*
X116466Y122052*
X116379Y121558*
X116372Y121056*
X116444Y120559*
X116594Y120080*
X116818Y119631*
X117111Y119223*
X117464Y118867*
X117870Y118571*
X118317Y118343*
X118795Y118189*
X119291Y118113*
X119520Y118105*
X170318*
X170818Y118145*
X171306Y118264*
X171769Y118458*
X172195Y118724*
X172573Y119054*
X172895Y119439*
X173151Y119871*
X173335Y120338*
X173443Y120828*
X173472Y121329*
X173421Y121829*
X173292Y122314*
X173087Y122772*
X172873Y123111*
X100364Y-3077D02*
G01X100313Y-2577D01*
X100182Y-2092*
X99977Y-1634*
X99702Y-1215*
X99363Y-844*
X98970Y-532*
X98533Y-286*
X98062Y-112*
X97569Y-15*
X97210Y5*
X46218*
X45718Y-35*
X45230Y-154*
X44767Y-348*
X44341Y-614*
X43963Y-944*
X43641Y-1329*
X43385Y-1761*
X43201Y-2228*
X43093Y-2718*
X43064Y-3223*
X43115Y-3723*
X43246Y-4208*
X43451Y-4666*
X43726Y-5085*
X44065Y-5456*
X44458Y-5768*
X44895Y-6014*
X45366Y-6188*
X45859Y-6285*
X46218Y-6305*
X97210*
X97710Y-6265*
X98198Y-6146*
X98661Y-5952*
X99087Y-5686*
X99465Y-5356*
X99787Y-4971*
X100043Y-4539*
X100227Y-4072*
X100335Y-3582*
X100364Y-3077*
X173444D02*
G01X173393Y-2577D01*
X173262Y-2092*
X173057Y-1634*
X172782Y-1215*
X172443Y-844*
X172050Y-532*
X171613Y-286*
X171142Y-112*
X170649Y-15*
X170290Y5*
X119510*
X119010Y-35*
X118522Y-154*
X118059Y-348*
X117633Y-614*
X117255Y-944*
X116933Y-1329*
X116677Y-1761*
X116493Y-2228*
X116385Y-2718*
X116356Y-3223*
X116407Y-3723*
X116538Y-4208*
X116743Y-4666*
X117018Y-5085*
X117357Y-5456*
X117750Y-5768*
X118187Y-6014*
X118658Y-6188*
X119151Y-6285*
X119510Y-6305*
X170290*
X170790Y-6265*
X171278Y-6146*
X171741Y-5952*
X172167Y-5686*
X172545Y-5356*
X172867Y-4971*
X173123Y-4539*
X173307Y-4072*
X173415Y-3582*
X173444Y-3077*
X0Y-6305D02*
G01X23918D01*
X24418Y-6265*
X24906Y-6146*
X25369Y-5952*
X25795Y-5686*
X26173Y-5356*
X26495Y-4971*
X26751Y-4539*
X26935Y-4072*
X27043Y-3582*
X27072Y-3077*
Y-3077D02*
G01X27021Y-2577D01*
X26890Y-2092*
X26685Y-1634*
X26410Y-1215*
X26071Y-844*
X25678Y-532*
X25241Y-286*
X24770Y-112*
X24277Y-15*
X23918Y5*
X5*
Y118105*
X23918*
X24418Y118145*
X24906Y118264*
X25369Y118458*
X25795Y118724*
X26173Y119054*
X26495Y119439*
X26751Y119871*
X26935Y120338*
X27043Y120828*
X27072Y121329*
X27021Y121829*
X26892Y122314*
X26687Y122772*
X26473Y123111*
X26734Y123540*
X26924Y124004*
X27037Y124493*
X27072Y124994*
X27026Y125494*
X26902Y125981*
X26703Y126441*
X26433Y126864*
X26099Y127239*
X25710Y127556*
X25275Y127808*
X24806Y127987*
X24315Y128090*
X23917Y128115*
X0*
Y246215*
X23945*
X24445Y246255*
X24933Y246374*
X25396Y246568*
X25822Y246834*
X26200Y247164*
X26522Y247549*
X26778Y247981*
X26962Y248448*
X27070Y248938*
X27099Y249443*
X27048Y249943*
X26917Y250428*
X26712Y250886*
X26437Y251305*
X26098Y251676*
X25705Y251988*
X25268Y252234*
X24797Y252408*
X24304Y252505*
X23945Y252525*
X0*
X216535D02*
G01X192617D01*
X192117Y252485*
X191629Y252366*
X191166Y252172*
X190740Y251906*
X190362Y251576*
X190040Y251191*
X189784Y250759*
X189600Y250292*
X189492Y249802*
X189463Y249297*
X189514Y248797*
X189645Y248312*
X189850Y247854*
X190125Y247435*
X190464Y247064*
X190857Y246752*
X191294Y246506*
X191765Y246332*
X192258Y246235*
X192617Y246215*
X216530*
Y128115*
X192617*
X192117Y128075*
X191629Y127956*
X191166Y127762*
X190740Y127496*
X190362Y127166*
X190040Y126781*
X189784Y126349*
X189600Y125882*
X189492Y125392*
X189463Y124891*
X189514Y124391*
X189643Y123906*
X189848Y123448*
X190062Y123109*
X189801Y122680*
X189611Y122216*
X189498Y121727*
X189463Y121226*
X189509Y120726*
X189633Y120239*
X189832Y119779*
X190102Y119356*
X190436Y118981*
X190825Y118664*
X191260Y118412*
X191729Y118233*
X192220Y118130*
X192618Y118105*
X216535*
Y5*
X192590*
X192090Y-35*
X191602Y-154*
X191139Y-348*
X190713Y-614*
X190335Y-944*
X190013Y-1329*
X189757Y-1761*
X189573Y-2228*
X189465Y-2718*
X189436Y-3223*
X189487Y-3723*
X189618Y-4208*
X189823Y-4666*
X190098Y-5085*
X190437Y-5456*
X190830Y-5768*
X191267Y-6014*
X191738Y-6188*
X192231Y-6285*
X192590Y-6305*
X216535*
X0Y0D02*
G01X216535D01*
Y118110*
X0*
Y0*
Y128110D02*
G01X216535D01*
Y246220*
X0*
Y128110*
Y252525D02*
G01Y286220D01*
Y286220D02*
G01X216535D01*
Y252525*
Y-6305D02*
G01Y-40000D01*
X0*
Y-6305*
Y5D02*
G01Y118108D01*
Y128115D02*
G01Y246219D01*
X216535Y246212D02*
G01Y128115D01*
Y118109D02*
G01Y5D01*
M02*
